<?xml version="1.0" encoding="UTF-8" standalone="no"?>
<!-- Created with matplotlib (https://matplotlib.org/) -->

<svg
   xmlns:dc="http://purl.org/dc/elements/1.1/"
   xmlns:cc="http://creativecommons.org/ns#"
   xmlns:rdf="http://www.w3.org/1999/02/22-rdf-syntax-ns#"
   xmlns:svg="http://www.w3.org/2000/svg"
   xmlns="http://www.w3.org/2000/svg"
   xmlns:xlink="http://www.w3.org/1999/xlink"
   xmlns:sodipodi="http://sodipodi.sourceforge.net/DTD/sodipodi-0.dtd"
   xmlns:inkscape="http://www.inkscape.org/namespaces/inkscape"
   height="144.53874pt"
   version="1.1"
   viewBox="0 0 434.64658 144.53874"
   width="434.64658pt"
   id="svg292"
   sodipodi:docname="blast_refseq_100_deletion_scores.svg"
   inkscape:version="0.92.4 5da689c313, 2019-01-14">
  <metadata
     id="metadata296">
    <rdf:RDF>
      <cc:Work
         rdf:about="">
        <dc:format>image/svg+xml</dc:format>
        <dc:type
           rdf:resource="http://purl.org/dc/dcmitype/StillImage" />
        <dc:title></dc:title>
      </cc:Work>
    </rdf:RDF>
  </metadata>
  <sodipodi:namedview
     pagecolor="#ffffff"
     bordercolor="#666666"
     borderopacity="1"
     objecttolerance="10"
     gridtolerance="10"
     guidetolerance="10"
     inkscape:pageopacity="0"
     inkscape:pageshadow="2"
     inkscape:window-width="640"
     inkscape:window-height="480"
     id="namedview294"
     showgrid="false"
     fit-margin-top="0"
     fit-margin-left="0"
     fit-margin-right="0"
     fit-margin-bottom="0"
     inkscape:current-layer="svg292" />
  <defs
     id="defs4"
     style="stroke-linecap:butt;stroke-linejoin:round">
    <style
       type="text/css"
       id="style2">
*{stroke-linecap:butt;stroke-linejoin:round;}
  </style>
  </defs>
  <g
     id="figure_1"
     style="stroke-linecap:butt;stroke-linejoin:round"
     transform="translate(2.646562)">
    <g
       id="patch_1"
       style="stroke-linecap:butt;stroke-linejoin:round">
      <path
         d="M 0,144 H 432 V 0 H 0 Z"
         style="fill:none;stroke-linecap:butt;stroke-linejoin:round"
         id="path6"
         inkscape:connector-curvature="0" />
    </g>
    <g
       id="axes_1"
       style="stroke-linecap:butt;stroke-linejoin:round">
      <g
         id="patch_2"
         style="stroke-linecap:butt;stroke-linejoin:round">
        <path
           d="M 30.58,116.12 H 408.42 V 14.76 H 30.58 Z"
           style="fill:#ffffff;stroke-linecap:butt;stroke-linejoin:round"
           id="path9"
           inkscape:connector-curvature="0" />
      </g>
      <g
         id="matplotlib.axis_1"
         style="stroke-linecap:butt;stroke-linejoin:round">
        <g
           id="xtick_1"
           style="stroke-linecap:butt;stroke-linejoin:round">
          <g
             id="line2d_1"
             style="stroke-linecap:butt;stroke-linejoin:round">
            <defs
               id="defs13">
              <path
                 d="M 0,0 V 3.5"
                 id="m587eba6acf"
                 style="stroke:#000000;stroke-width:0.80000001;stroke-linecap:butt;stroke-linejoin:round"
                 inkscape:connector-curvature="0" />
            </defs>
            <g
               id="g17"
               style="stroke-linecap:butt;stroke-linejoin:round">
              <use
                 style="stroke:#000000;stroke-width:0.80000001;stroke-linecap:butt;stroke-linejoin:round"
                 x="30.58"
                 xlink:href="#m587eba6acf"
                 y="116.12"
                 id="use15"
                 width="100%"
                 height="100%" />
            </g>
          </g>
          <g
             id="text_1"
             style="stroke-linecap:butt;stroke-linejoin:round">
            <!-- 0 -->
            <defs
               id="defs21">
              <path
                 d="m 31.78125,66.40625 q -7.609375,0 -11.453125,-7.5 Q 16.5,51.421875 16.5,36.375 q 0,-14.984375 3.828125,-22.484375 3.84375,-7.5 11.453125,-7.5 7.671875,0 11.5,7.5 3.84375,7.5 3.84375,22.484375 0,15.046875 -3.84375,22.53125 -3.828125,7.5 -11.5,7.5 z m 0,7.8125 q 12.265625,0 18.734375,-9.703125 6.46875,-9.6875 6.46875,-28.140625 0,-18.40625 -6.46875,-28.109375 -6.46875,-9.6875 -18.734375,-9.6875 -12.25,0 -18.71875,9.6875 Q 6.59375,17.96875 6.59375,36.375 q 0,18.453125 6.46875,28.140625 6.46875,9.703125 18.71875,9.703125 z"
                 id="DejaVuSans-48"
                 inkscape:connector-curvature="0"
                 style="stroke-linecap:butt;stroke-linejoin:round" />
            </defs>
            <g
               transform="matrix(0.1,0,0,-0.1,27.39875,130.71844)"
               id="g25"
               style="stroke-linecap:butt;stroke-linejoin:round">
              <use
                 xlink:href="#DejaVuSans-48"
                 id="use23"
                 style="stroke-linecap:butt;stroke-linejoin:round"
                 x="0"
                 y="0"
                 width="100%"
                 height="100%" />
            </g>
          </g>
        </g>
        <g
           id="xtick_2"
           style="stroke-linecap:butt;stroke-linejoin:round">
          <g
             id="line2d_2"
             style="stroke-linecap:butt;stroke-linejoin:round">
            <g
               id="g31"
               style="stroke-linecap:butt;stroke-linejoin:round">
              <use
                 style="stroke:#000000;stroke-width:0.80000001;stroke-linecap:butt;stroke-linejoin:round"
                 x="84.557144"
                 xlink:href="#m587eba6acf"
                 y="116.12"
                 id="use29"
                 width="100%"
                 height="100%" />
            </g>
          </g>
          <g
             id="text_2"
             style="stroke-linecap:butt;stroke-linejoin:round">
            <!-- 200 -->
            <defs
               id="defs35">
              <path
                 d="M 19.1875,8.296875 H 53.609375 V 0 H 7.328125 v 8.296875 q 5.609375,5.8125 15.296875,15.59375 9.703125,9.796875 12.1875,12.640625 4.734375,5.3125 6.609375,9 1.890625,3.6875 1.890625,7.25 0,5.8125 -4.078125,9.46875 -4.078125,3.671875 -10.625,3.671875 -4.640625,0 -9.796875,-1.609375 -5.140625,-1.609375 -11,-4.890625 v 9.96875 Q 13.765625,71.78125 18.9375,73 q 5.1875,1.21875 9.484375,1.21875 11.328125,0 18.0625,-5.671875 6.734375,-5.65625 6.734375,-15.125 0,-4.5 -1.6875,-8.53125 Q 49.859375,40.875 45.40625,35.40625 44.1875,33.984375 37.640625,27.21875 31.109375,20.453125 19.1875,8.296875 Z"
                 id="DejaVuSans-50"
                 inkscape:connector-curvature="0"
                 style="stroke-linecap:butt;stroke-linejoin:round" />
            </defs>
            <g
               transform="matrix(0.1,0,0,-0.1,75.013393,130.71844)"
               id="g43"
               style="stroke-linecap:butt;stroke-linejoin:round">
              <use
                 xlink:href="#DejaVuSans-50"
                 id="use37"
                 style="stroke-linecap:butt;stroke-linejoin:round"
                 x="0"
                 y="0"
                 width="100%"
                 height="100%" />
              <use
                 x="63.623047"
                 xlink:href="#DejaVuSans-48"
                 id="use39"
                 style="stroke-linecap:butt;stroke-linejoin:round"
                 y="0"
                 width="100%"
                 height="100%" />
              <use
                 x="127.24609"
                 xlink:href="#DejaVuSans-48"
                 id="use41"
                 style="stroke-linecap:butt;stroke-linejoin:round"
                 y="0"
                 width="100%"
                 height="100%" />
            </g>
          </g>
        </g>
        <g
           id="xtick_3"
           style="stroke-linecap:butt;stroke-linejoin:round">
          <g
             id="line2d_3"
             style="stroke-linecap:butt;stroke-linejoin:round">
            <g
               id="g49"
               style="stroke-linecap:butt;stroke-linejoin:round">
              <use
                 style="stroke:#000000;stroke-width:0.80000001;stroke-linecap:butt;stroke-linejoin:round"
                 x="138.53429"
                 xlink:href="#m587eba6acf"
                 y="116.12"
                 id="use47"
                 width="100%"
                 height="100%" />
            </g>
          </g>
          <g
             id="text_3"
             style="stroke-linecap:butt;stroke-linejoin:round">
            <!-- 400 -->
            <defs
               id="defs53">
              <path
                 d="M 37.796875,64.3125 12.890625,25.390625 h 24.90625 z m -2.59375,8.59375 h 12.40625 V 25.390625 h 10.40625 V 17.1875 H 47.609375 V 0 h -9.8125 V 17.1875 H 4.890625 v 9.515625 z"
                 id="DejaVuSans-52"
                 inkscape:connector-curvature="0"
                 style="stroke-linecap:butt;stroke-linejoin:round" />
            </defs>
            <g
               transform="matrix(0.1,0,0,-0.1,128.99054,130.71844)"
               id="g61"
               style="stroke-linecap:butt;stroke-linejoin:round">
              <use
                 xlink:href="#DejaVuSans-52"
                 id="use55"
                 style="stroke-linecap:butt;stroke-linejoin:round"
                 x="0"
                 y="0"
                 width="100%"
                 height="100%" />
              <use
                 x="63.623047"
                 xlink:href="#DejaVuSans-48"
                 id="use57"
                 style="stroke-linecap:butt;stroke-linejoin:round"
                 y="0"
                 width="100%"
                 height="100%" />
              <use
                 x="127.24609"
                 xlink:href="#DejaVuSans-48"
                 id="use59"
                 style="stroke-linecap:butt;stroke-linejoin:round"
                 y="0"
                 width="100%"
                 height="100%" />
            </g>
          </g>
        </g>
        <g
           id="xtick_4"
           style="stroke-linecap:butt;stroke-linejoin:round">
          <g
             id="line2d_4"
             style="stroke-linecap:butt;stroke-linejoin:round">
            <g
               id="g67"
               style="stroke-linecap:butt;stroke-linejoin:round">
              <use
                 style="stroke:#000000;stroke-width:0.80000001;stroke-linecap:butt;stroke-linejoin:round"
                 x="192.51143"
                 xlink:href="#m587eba6acf"
                 y="116.12"
                 id="use65"
                 width="100%"
                 height="100%" />
            </g>
          </g>
          <g
             id="text_4"
             style="stroke-linecap:butt;stroke-linejoin:round">
            <!-- 600 -->
            <defs
               id="defs71">
              <path
                 d="m 33.015625,40.375 q -6.640625,0 -10.53125,-4.546875 -3.875,-4.53125 -3.875,-12.4375 0,-7.859375 3.875,-12.4375 3.890625,-4.5625 10.53125,-4.5625 6.640625,0 10.515625,4.5625 3.875,4.578125 3.875,12.4375 0,7.90625 -3.875,12.4375 Q 39.65625,40.375 33.015625,40.375 Z M 52.59375,71.296875 V 62.3125 q -3.71875,1.75 -7.5,2.671875 -3.78125,0.9375 -7.5,0.9375 -9.765625,0 -14.921875,-6.59375 -5.140625,-6.59375 -5.875,-19.921875 2.875,4.25 7.21875,6.515625 4.359375,2.265625 9.578125,2.265625 10.984375,0 17.359375,-6.671875 6.375,-6.65625 6.375,-18.125 0,-11.234375 -6.640625,-18.03125 -6.640625,-6.78125 -17.671875,-6.78125 -12.65625,0 -19.34375,9.6875 -6.6875,9.703125 -6.6875,28.109375 0,17.28125 8.203125,27.5625 8.203125,10.28125 22.015625,10.28125 3.71875,0 7.5,-0.734375 3.78125,-0.734375 7.890625,-2.1875 z"
                 id="DejaVuSans-54"
                 inkscape:connector-curvature="0"
                 style="stroke-linecap:butt;stroke-linejoin:round" />
            </defs>
            <g
               transform="matrix(0.1,0,0,-0.1,182.96768,130.71844)"
               id="g79"
               style="stroke-linecap:butt;stroke-linejoin:round">
              <use
                 xlink:href="#DejaVuSans-54"
                 id="use73"
                 style="stroke-linecap:butt;stroke-linejoin:round"
                 x="0"
                 y="0"
                 width="100%"
                 height="100%" />
              <use
                 x="63.623047"
                 xlink:href="#DejaVuSans-48"
                 id="use75"
                 style="stroke-linecap:butt;stroke-linejoin:round"
                 y="0"
                 width="100%"
                 height="100%" />
              <use
                 x="127.24609"
                 xlink:href="#DejaVuSans-48"
                 id="use77"
                 style="stroke-linecap:butt;stroke-linejoin:round"
                 y="0"
                 width="100%"
                 height="100%" />
            </g>
          </g>
        </g>
        <g
           id="xtick_5"
           style="stroke-linecap:butt;stroke-linejoin:round">
          <g
             id="line2d_5"
             style="stroke-linecap:butt;stroke-linejoin:round">
            <g
               id="g85"
               style="stroke-linecap:butt;stroke-linejoin:round">
              <use
                 style="stroke:#000000;stroke-width:0.80000001;stroke-linecap:butt;stroke-linejoin:round"
                 x="246.48857"
                 xlink:href="#m587eba6acf"
                 y="116.12"
                 id="use83"
                 width="100%"
                 height="100%" />
            </g>
          </g>
          <g
             id="text_5"
             style="stroke-linecap:butt;stroke-linejoin:round">
            <!-- 800 -->
            <defs
               id="defs89">
              <path
                 d="m 31.78125,34.625 q -7.03125,0 -11.0625,-3.765625 -4.015625,-3.765625 -4.015625,-10.34375 0,-6.59375 4.015625,-10.359375 4.03125,-3.765625 11.0625,-3.765625 7.03125,0 11.078125,3.78125 4.0625,3.796875 4.0625,10.34375 0,6.578125 -4.03125,10.34375 Q 38.875,34.625 31.78125,34.625 Z m -9.859375,4.1875 Q 15.578125,40.375 12.03125,44.71875 8.5,49.078125 8.5,55.328125 q 0,8.734375 6.21875,13.8125 6.234375,5.078125 17.0625,5.078125 10.890625,0 17.09375,-5.078125 6.203125,-5.078125 6.203125,-13.8125 0,-6.25 -3.546875,-10.609375 Q 48,40.375 41.703125,38.8125 q 7.125,-1.65625 11.09375,-6.5 3.984375,-4.828125 3.984375,-11.796875 0,-10.609375 -6.46875,-16.28125 -6.46875,-5.65625 -18.53125,-5.65625 -12.046875,0 -18.53125,5.65625 -6.46875,5.671875 -6.46875,16.28125 0,6.96875 4,11.796875 4.015625,4.84375 11.140625,6.5 z M 18.3125,54.390625 q 0,-5.65625 3.53125,-8.828125 3.546875,-3.171875 9.9375,-3.171875 6.359375,0 9.9375,3.171875 3.59375,3.171875 3.59375,8.828125 0,5.671875 -3.59375,8.84375 -3.578125,3.171875 -9.9375,3.171875 -6.390625,0 -9.9375,-3.171875 Q 18.3125,60.0625 18.3125,54.390625 Z"
                 id="DejaVuSans-56"
                 inkscape:connector-curvature="0"
                 style="stroke-linecap:butt;stroke-linejoin:round" />
            </defs>
            <g
               transform="matrix(0.1,0,0,-0.1,236.94482,130.71844)"
               id="g97"
               style="stroke-linecap:butt;stroke-linejoin:round">
              <use
                 xlink:href="#DejaVuSans-56"
                 id="use91"
                 style="stroke-linecap:butt;stroke-linejoin:round"
                 x="0"
                 y="0"
                 width="100%"
                 height="100%" />
              <use
                 x="63.623047"
                 xlink:href="#DejaVuSans-48"
                 id="use93"
                 style="stroke-linecap:butt;stroke-linejoin:round"
                 y="0"
                 width="100%"
                 height="100%" />
              <use
                 x="127.24609"
                 xlink:href="#DejaVuSans-48"
                 id="use95"
                 style="stroke-linecap:butt;stroke-linejoin:round"
                 y="0"
                 width="100%"
                 height="100%" />
            </g>
          </g>
        </g>
        <g
           id="xtick_6"
           style="stroke-linecap:butt;stroke-linejoin:round">
          <g
             id="line2d_6"
             style="stroke-linecap:butt;stroke-linejoin:round">
            <g
               id="g103"
               style="stroke-linecap:butt;stroke-linejoin:round">
              <use
                 style="stroke:#000000;stroke-width:0.80000001;stroke-linecap:butt;stroke-linejoin:round"
                 x="300.46573"
                 xlink:href="#m587eba6acf"
                 y="116.12"
                 id="use101"
                 width="100%"
                 height="100%" />
            </g>
          </g>
          <g
             id="text_6"
             style="stroke-linecap:butt;stroke-linejoin:round">
            <!-- 1000 -->
            <defs
               id="defs107">
              <path
                 d="m 12.40625,8.296875 h 16.109375 v 55.625 L 10.984375,60.40625 v 8.984375 l 17.4375,3.515625 H 38.28125 V 8.296875 H 54.390625 V 0 H 12.40625 Z"
                 id="DejaVuSans-49"
                 inkscape:connector-curvature="0"
                 style="stroke-linecap:butt;stroke-linejoin:round" />
            </defs>
            <g
               transform="matrix(0.1,0,0,-0.1,287.74071,130.71844)"
               id="g117"
               style="stroke-linecap:butt;stroke-linejoin:round">
              <use
                 xlink:href="#DejaVuSans-49"
                 id="use109"
                 style="stroke-linecap:butt;stroke-linejoin:round"
                 x="0"
                 y="0"
                 width="100%"
                 height="100%" />
              <use
                 x="63.623047"
                 xlink:href="#DejaVuSans-48"
                 id="use111"
                 style="stroke-linecap:butt;stroke-linejoin:round"
                 y="0"
                 width="100%"
                 height="100%" />
              <use
                 x="127.24609"
                 xlink:href="#DejaVuSans-48"
                 id="use113"
                 style="stroke-linecap:butt;stroke-linejoin:round"
                 y="0"
                 width="100%"
                 height="100%" />
              <use
                 x="190.86914"
                 xlink:href="#DejaVuSans-48"
                 id="use115"
                 style="stroke-linecap:butt;stroke-linejoin:round"
                 y="0"
                 width="100%"
                 height="100%" />
            </g>
          </g>
        </g>
        <g
           id="xtick_7"
           style="stroke-linecap:butt;stroke-linejoin:round">
          <g
             id="line2d_7"
             style="stroke-linecap:butt;stroke-linejoin:round">
            <g
               id="g123"
               style="stroke-linecap:butt;stroke-linejoin:round">
              <use
                 style="stroke:#000000;stroke-width:0.80000001;stroke-linecap:butt;stroke-linejoin:round"
                 x="354.44287"
                 xlink:href="#m587eba6acf"
                 y="116.12"
                 id="use121"
                 width="100%"
                 height="100%" />
            </g>
          </g>
          <g
             id="text_7"
             style="stroke-linecap:butt;stroke-linejoin:round">
            <!-- 1200 -->
            <g
               transform="matrix(0.1,0,0,-0.1,341.71786,130.71844)"
               id="g134"
               style="stroke-linecap:butt;stroke-linejoin:round">
              <use
                 xlink:href="#DejaVuSans-49"
                 id="use126"
                 style="stroke-linecap:butt;stroke-linejoin:round"
                 x="0"
                 y="0"
                 width="100%"
                 height="100%" />
              <use
                 x="63.623047"
                 xlink:href="#DejaVuSans-50"
                 id="use128"
                 style="stroke-linecap:butt;stroke-linejoin:round"
                 y="0"
                 width="100%"
                 height="100%" />
              <use
                 x="127.24609"
                 xlink:href="#DejaVuSans-48"
                 id="use130"
                 style="stroke-linecap:butt;stroke-linejoin:round"
                 y="0"
                 width="100%"
                 height="100%" />
              <use
                 x="190.86914"
                 xlink:href="#DejaVuSans-48"
                 id="use132"
                 style="stroke-linecap:butt;stroke-linejoin:round"
                 y="0"
                 width="100%"
                 height="100%" />
            </g>
          </g>
        </g>
        <g
           id="xtick_8"
           style="stroke-linecap:butt;stroke-linejoin:round">
          <g
             id="line2d_8"
             style="stroke-linecap:butt;stroke-linejoin:round">
            <g
               id="g140"
               style="stroke-linecap:butt;stroke-linejoin:round">
              <use
                 style="stroke:#000000;stroke-width:0.80000001;stroke-linecap:butt;stroke-linejoin:round"
                 x="408.42001"
                 xlink:href="#m587eba6acf"
                 y="116.12"
                 id="use138"
                 width="100%"
                 height="100%" />
            </g>
          </g>
          <g
             id="text_8"
             style="stroke-linecap:butt;stroke-linejoin:round">
            <!-- 1400 -->
            <g
               transform="matrix(0.1,0,0,-0.1,395.695,130.71844)"
               id="g151"
               style="stroke-linecap:butt;stroke-linejoin:round">
              <use
                 xlink:href="#DejaVuSans-49"
                 id="use143"
                 style="stroke-linecap:butt;stroke-linejoin:round"
                 x="0"
                 y="0"
                 width="100%"
                 height="100%" />
              <use
                 x="63.623047"
                 xlink:href="#DejaVuSans-52"
                 id="use145"
                 style="stroke-linecap:butt;stroke-linejoin:round"
                 y="0"
                 width="100%"
                 height="100%" />
              <use
                 x="127.24609"
                 xlink:href="#DejaVuSans-48"
                 id="use147"
                 style="stroke-linecap:butt;stroke-linejoin:round"
                 y="0"
                 width="100%"
                 height="100%" />
              <use
                 x="190.86914"
                 xlink:href="#DejaVuSans-48"
                 id="use149"
                 style="stroke-linecap:butt;stroke-linejoin:round"
                 y="0"
                 width="100%"
                 height="100%" />
            </g>
          </g>
        </g>
        <g
           id="text_9"
           style="stroke-linecap:butt;stroke-linejoin:round">
          <!-- Residue index -->
          <defs
             id="defs164">
            <path
               d="m 44.390625,34.1875 q 3.171875,-1.078125 6.171875,-4.59375 3,-3.515625 6.03125,-9.671875 L 66.609375,0 H 56 l -9.3125,18.703125 q -3.625,7.328125 -7.015625,9.71875 -3.390625,2.390625 -9.25,2.390625 h -10.75 V 0 H 9.8125 v 72.90625 h 22.265625 q 12.5,0 18.65625,-5.234375 6.15625,-5.21875 6.15625,-15.765625 0,-6.890625 -3.203125,-11.4375 -3.203125,-4.53125 -9.296875,-6.28125 z m -24.71875,30.609375 v -25.875 h 12.40625 q 7.125,0 10.765625,3.296875 3.640625,3.296875 3.640625,9.6875 0,6.390625 -3.640625,9.640625 -3.640625,3.25 -10.765625,3.25 z"
               id="DejaVuSans-82"
               inkscape:connector-curvature="0"
               style="stroke-linecap:butt;stroke-linejoin:round" />
            <path
               d="m 56.203125,29.59375 v -4.390625 h -41.3125 q 0.59375,-9.28125 5.59375,-14.140625 5,-4.859375 13.9375,-4.859375 5.171875,0 10.03125,1.265625 4.859375,1.265625 9.65625,3.8125 v -8.5 q -4.84375,-2.046875 -9.921875,-3.125 -5.078125,-1.078125 -10.296875,-1.078125 -13.09375,0 -20.734375,7.609375 -7.640625,7.625 -7.640625,20.625 0,13.421875 7.25,21.296875 Q 20.015625,56 32.328125,56 q 11.03125,0 17.453125,-7.109375 6.421875,-7.09375 6.421875,-19.296875 z m -8.984375,2.640625 q -0.09375,7.359375 -4.125,11.75 -4.03125,4.40625 -10.671875,4.40625 -7.515625,0 -12.03125,-4.25 -4.515625,-4.25 -5.203125,-11.96875 z"
               id="DejaVuSans-101"
               inkscape:connector-curvature="0"
               style="stroke-linecap:butt;stroke-linejoin:round" />
            <path
               d="m 44.28125,53.078125 v -8.5 Q 40.484375,46.53125 36.375,47.5 q -4.09375,0.984375 -8.5,0.984375 -6.6875,0 -10.03125,-2.046875 Q 14.5,44.390625 14.5,40.28125 q 0,-3.125 2.390625,-4.90625 2.390625,-1.78125 9.625,-3.390625 l 3.078125,-0.6875 Q 39.15625,29.25 43.1875,25.515625 47.21875,21.78125 47.21875,15.09375 q 0,-7.625 -6.03125,-12.078125 -6.03125,-4.4375 -16.578125,-4.4375 -4.390625,0 -9.15625,0.859375 Q 10.6875,0.296875 5.421875,2 v 9.28125 q 4.984375,-2.59375 9.8125,-3.890625 4.828125,-1.28125 9.578125,-1.28125 6.34375,0 9.75,2.171875 3.421875,2.171875 3.421875,6.125 0,3.65625 -2.46875,5.609375 -2.453125,1.953125 -10.8125,3.765625 l -3.125,0.734375 q -8.34375,1.75 -12.0625,5.390625 -3.703125,3.640625 -3.703125,9.984375 0,7.71875 5.46875,11.90625 Q 16.75,56 26.8125,56 q 4.96875,0 9.359375,-0.734375 4.40625,-0.71875 8.109375,-2.1875 z"
               id="DejaVuSans-115"
               inkscape:connector-curvature="0"
               style="stroke-linecap:butt;stroke-linejoin:round" />
            <path
               d="M 9.421875,54.6875 H 18.40625 V 0 H 9.421875 Z m 0,21.296875 H 18.40625 V 64.59375 H 9.421875 Z"
               id="DejaVuSans-105"
               inkscape:connector-curvature="0"
               style="stroke-linecap:butt;stroke-linejoin:round" />
            <path
               d="m 45.40625,46.390625 v 29.59375 h 8.984375 V 0 H 45.40625 v 8.203125 q -2.828125,-4.875 -7.15625,-7.25 -4.3125,-2.375 -10.375,-2.375 -9.90625,0 -16.140625,7.90625 -6.21875,7.921875 -6.21875,20.8125 0,12.890625 6.21875,20.796875 Q 17.96875,56 27.875,56 q 6.0625,0 10.375,-2.375 4.328125,-2.359375 7.15625,-7.234375 z M 14.796875,27.296875 q 0,-9.90625 4.078125,-15.546875 4.078125,-5.640625 11.203125,-5.640625 7.125,0 11.21875,5.640625 4.109375,5.640625 4.109375,15.546875 0,9.90625 -4.109375,15.546875 -4.09375,5.640625 -11.21875,5.640625 -7.125,0 -11.203125,-5.640625 -4.078125,-5.640625 -4.078125,-15.546875 z"
               id="DejaVuSans-100"
               inkscape:connector-curvature="0"
               style="stroke-linecap:butt;stroke-linejoin:round" />
            <path
               d="M 8.5,21.578125 V 54.6875 h 8.984375 V 21.921875 q 0,-7.765625 3.015625,-11.65625 3.03125,-3.875 9.09375,-3.875 7.265625,0 11.484375,4.640625 4.234375,4.640625 4.234375,12.65625 v 31 h 8.984375 V 0 H 45.3125 V 8.40625 Q 42.046875,3.421875 37.71875,1 33.40625,-1.421875 27.6875,-1.421875 18.265625,-1.421875 13.375,4.4375 8.5,10.296875 8.5,21.578125 Z M 31.109375,56 Z"
               id="DejaVuSans-117"
               inkscape:connector-curvature="0"
               style="stroke-linecap:butt;stroke-linejoin:round" />
            <path
               id="DejaVuSans-32"
               d=""
               inkscape:connector-curvature="0"
               style="stroke-linecap:butt;stroke-linejoin:round" />
            <path
               d="M 54.890625,33.015625 V 0 H 45.90625 v 32.71875 q 0,7.765625 -3.03125,11.609375 -3.03125,3.859375 -9.078125,3.859375 -7.28125,0 -11.484375,-4.640625 -4.203125,-4.625 -4.203125,-12.640625 V 0 h -9.03125 v 54.6875 h 9.03125 v -8.5 q 3.234375,4.9375 7.59375,7.375 4.375,2.4375 10.09375,2.4375 9.421875,0 14.25,-5.828125 4.84375,-5.828125 4.84375,-17.15625 z"
               id="DejaVuSans-110"
               inkscape:connector-curvature="0"
               style="stroke-linecap:butt;stroke-linejoin:round" />
            <path
               d="M 54.890625,54.6875 35.109375,28.078125 55.90625,0 H 45.3125 L 29.390625,21.484375 13.484375,0 H 2.875 L 24.125,28.609375 4.6875,54.6875 h 10.59375 l 14.5,-19.484375 14.5,19.484375 z"
               id="DejaVuSans-120"
               inkscape:connector-curvature="0"
               style="stroke-linecap:butt;stroke-linejoin:round" />
          </defs>
          <g
             transform="matrix(0.1,0,0,-0.1,184.18281,144.39656)"
             id="g192"
             style="stroke-linecap:butt;stroke-linejoin:round">
            <use
               xlink:href="#DejaVuSans-82"
               id="use166"
               style="stroke-linecap:butt;stroke-linejoin:round"
               x="0"
               y="0"
               width="100%"
               height="100%" />
            <use
               x="69.419922"
               xlink:href="#DejaVuSans-101"
               id="use168"
               style="stroke-linecap:butt;stroke-linejoin:round"
               y="0"
               width="100%"
               height="100%" />
            <use
               x="130.94336"
               xlink:href="#DejaVuSans-115"
               id="use170"
               style="stroke-linecap:butt;stroke-linejoin:round"
               y="0"
               width="100%"
               height="100%" />
            <use
               x="183.04297"
               xlink:href="#DejaVuSans-105"
               id="use172"
               style="stroke-linecap:butt;stroke-linejoin:round"
               y="0"
               width="100%"
               height="100%" />
            <use
               x="210.82617"
               xlink:href="#DejaVuSans-100"
               id="use174"
               style="stroke-linecap:butt;stroke-linejoin:round"
               y="0"
               width="100%"
               height="100%" />
            <use
               x="274.30273"
               xlink:href="#DejaVuSans-117"
               id="use176"
               style="stroke-linecap:butt;stroke-linejoin:round"
               y="0"
               width="100%"
               height="100%" />
            <use
               x="337.68164"
               xlink:href="#DejaVuSans-101"
               id="use178"
               style="stroke-linecap:butt;stroke-linejoin:round"
               y="0"
               width="100%"
               height="100%" />
            <use
               x="399.20508"
               xlink:href="#DejaVuSans-32"
               id="use180"
               style="stroke-linecap:butt;stroke-linejoin:round"
               y="0"
               width="100%"
               height="100%" />
            <use
               x="430.99219"
               xlink:href="#DejaVuSans-105"
               id="use182"
               style="stroke-linecap:butt;stroke-linejoin:round"
               y="0"
               width="100%"
               height="100%" />
            <use
               x="458.77539"
               xlink:href="#DejaVuSans-110"
               id="use184"
               style="stroke-linecap:butt;stroke-linejoin:round"
               y="0"
               width="100%"
               height="100%" />
            <use
               x="522.1543"
               xlink:href="#DejaVuSans-100"
               id="use186"
               style="stroke-linecap:butt;stroke-linejoin:round"
               y="0"
               width="100%"
               height="100%" />
            <use
               x="585.63086"
               xlink:href="#DejaVuSans-101"
               id="use188"
               style="stroke-linecap:butt;stroke-linejoin:round"
               y="0"
               width="100%"
               height="100%" />
            <use
               x="647.13867"
               xlink:href="#DejaVuSans-120"
               id="use190"
               style="stroke-linecap:butt;stroke-linejoin:round"
               y="0"
               width="100%"
               height="100%" />
          </g>
        </g>
      </g>
      <g
         id="matplotlib.axis_2"
         style="stroke-linecap:butt;stroke-linejoin:round">
        <g
           id="ytick_1"
           style="stroke-linecap:butt;stroke-linejoin:round">
          <g
             id="line2d_9"
             style="stroke-linecap:butt;stroke-linejoin:round">
            <defs
               id="defs197">
              <path
                 d="M 0,0 H -3.5"
                 id="m6bb7d4c879"
                 style="stroke:#000000;stroke-width:0.80000001;stroke-linecap:butt;stroke-linejoin:round"
                 inkscape:connector-curvature="0" />
            </defs>
            <g
               id="g201"
               style="stroke-linecap:butt;stroke-linejoin:round">
              <use
                 style="stroke:#000000;stroke-width:0.80000001;stroke-linecap:butt;stroke-linejoin:round"
                 x="30.58"
                 xlink:href="#m6bb7d4c879"
                 y="116.12"
                 id="use199"
                 width="100%"
                 height="100%" />
            </g>
          </g>
          <g
             id="text_10"
             style="stroke-linecap:butt;stroke-linejoin:round">
            <!-- 0 -->
            <g
               transform="matrix(0.1,0,0,-0.1,17.2175,119.91922)"
               id="g206"
               style="stroke-linecap:butt;stroke-linejoin:round">
              <use
                 xlink:href="#DejaVuSans-48"
                 id="use204"
                 style="stroke-linecap:butt;stroke-linejoin:round"
                 x="0"
                 y="0"
                 width="100%"
                 height="100%" />
            </g>
          </g>
        </g>
        <g
           id="ytick_2"
           style="stroke-linecap:butt;stroke-linejoin:round">
          <g
             id="line2d_10"
             style="stroke-linecap:butt;stroke-linejoin:round">
            <g
               id="g212"
               style="stroke-linecap:butt;stroke-linejoin:round">
              <use
                 style="stroke:#000000;stroke-width:0.80000001;stroke-linecap:butt;stroke-linejoin:round"
                 x="30.58"
                 xlink:href="#m6bb7d4c879"
                 y="82.333336"
                 id="use210"
                 width="100%"
                 height="100%" />
            </g>
          </g>
          <g
             id="text_11"
             style="stroke-linecap:butt;stroke-linejoin:round">
            <!-- 5 -->
            <defs
               id="defs216">
              <path
                 d="m 10.796875,72.90625 h 38.71875 v -8.3125 h -29.6875 V 46.734375 q 2.140625,0.734375 4.28125,1.09375 2.15625,0.359375 4.3125,0.359375 Q 40.625,48.1875 47.75,41.5 54.890625,34.8125 54.890625,23.390625 54.890625,11.625 47.5625,5.09375 40.234375,-1.421875 26.90625,-1.421875 q -4.59375,0 -9.359375,0.78125 -4.75,0.78125 -9.828125,2.34375 V 11.625 q 4.390625,-2.390625 9.078125,-3.5625 4.6875,-1.171875 9.90625,-1.171875 8.453125,0 13.375,4.4375 4.9375,4.4375 4.9375,12.0625 0,7.609375 -4.9375,12.046875 -4.921875,4.453125 -13.375,4.453125 -3.953125,0 -7.890625,-0.875 -3.921875,-0.875 -8.015625,-2.734375 z"
                 id="DejaVuSans-53"
                 inkscape:connector-curvature="0"
                 style="stroke-linecap:butt;stroke-linejoin:round" />
            </defs>
            <g
               transform="matrix(0.1,0,0,-0.1,17.2175,86.132552)"
               id="g220"
               style="stroke-linecap:butt;stroke-linejoin:round">
              <use
                 xlink:href="#DejaVuSans-53"
                 id="use218"
                 style="stroke-linecap:butt;stroke-linejoin:round"
                 x="0"
                 y="0"
                 width="100%"
                 height="100%" />
            </g>
          </g>
        </g>
        <g
           id="ytick_3"
           style="stroke-linecap:butt;stroke-linejoin:round">
          <g
             id="line2d_11"
             style="stroke-linecap:butt;stroke-linejoin:round">
            <g
               id="g226"
               style="stroke-linecap:butt;stroke-linejoin:round">
              <use
                 style="stroke:#000000;stroke-width:0.80000001;stroke-linecap:butt;stroke-linejoin:round"
                 x="30.58"
                 xlink:href="#m6bb7d4c879"
                 y="48.546665"
                 id="use224"
                 width="100%"
                 height="100%" />
            </g>
          </g>
          <g
             id="text_12"
             style="stroke-linecap:butt;stroke-linejoin:round">
            <!-- 10 -->
            <g
               transform="matrix(0.1,0,0,-0.1,10.855,52.345885)"
               id="g233"
               style="stroke-linecap:butt;stroke-linejoin:round">
              <use
                 xlink:href="#DejaVuSans-49"
                 id="use229"
                 style="stroke-linecap:butt;stroke-linejoin:round"
                 x="0"
                 y="0"
                 width="100%"
                 height="100%" />
              <use
                 x="63.623047"
                 xlink:href="#DejaVuSans-48"
                 id="use231"
                 style="stroke-linecap:butt;stroke-linejoin:round"
                 y="0"
                 width="100%"
                 height="100%" />
            </g>
          </g>
        </g>
        <g
           id="ytick_4"
           style="stroke-linecap:butt;stroke-linejoin:round">
          <g
             id="line2d_12"
             style="stroke-linecap:butt;stroke-linejoin:round">
            <g
               id="g239"
               style="stroke-linecap:butt;stroke-linejoin:round">
              <use
                 style="stroke:#000000;stroke-width:0.80000001;stroke-linecap:butt;stroke-linejoin:round"
                 x="30.58"
                 xlink:href="#m6bb7d4c879"
                 y="14.76"
                 id="use237"
                 width="100%"
                 height="100%" />
            </g>
          </g>
          <g
             id="text_13"
             style="stroke-linecap:butt;stroke-linejoin:round">
            <!-- 15 -->
            <g
               transform="matrix(0.1,0,0,-0.1,10.855,18.559219)"
               id="g246"
               style="stroke-linecap:butt;stroke-linejoin:round">
              <use
                 xlink:href="#DejaVuSans-49"
                 id="use242"
                 style="stroke-linecap:butt;stroke-linejoin:round"
                 x="0"
                 y="0"
                 width="100%"
                 height="100%" />
              <use
                 x="63.623047"
                 xlink:href="#DejaVuSans-53"
                 id="use244"
                 style="stroke-linecap:butt;stroke-linejoin:round"
                 y="0"
                 width="100%"
                 height="100%" />
            </g>
          </g>
        </g>
        <g
           id="text_14"
           style="stroke-linecap:butt;stroke-linejoin:round">
          <!-- Score -->
          <defs
             id="defs254">
            <path
               d="m 53.515625,70.515625 v -9.625 q -5.609375,2.6875 -10.59375,4 -4.984375,1.328125 -9.625,1.328125 -8.046875,0 -12.421875,-3.125 -4.375,-3.125 -4.375,-8.890625 0,-4.84375 2.90625,-7.3125 2.90625,-2.453125 11.015625,-3.96875 L 36.375,41.703125 Q 47.40625,39.59375 52.65625,34.296875 57.90625,29 57.90625,20.125 q 0,-10.609375 -7.109375,-16.078125 -7.09375,-5.46875 -20.8125,-5.46875 -5.171875,0 -11.015625,1.171875 Q 13.140625,0.921875 6.890625,3.21875 V 13.375 q 6,-3.359375 11.765625,-5.078125 5.765625,-1.703125 11.328125,-1.703125 8.4375,0 13.03125,3.3125 4.59375,3.328125 4.59375,9.484375 0,5.359375 -3.296875,8.390625 Q 41.015625,30.8125 33.5,32.328125 L 27.484375,33.5 q -11.03125,2.1875 -15.96875,6.875 -4.921875,4.6875 -4.921875,13.046875 0,9.671875 6.8125,15.234375 6.8125,5.5625 18.765625,5.5625 5.140625,0 10.453125,-0.9375 5.328125,-0.921875 10.890625,-2.765625 z"
               id="DejaVuSans-83"
               inkscape:connector-curvature="0"
               style="stroke-linecap:butt;stroke-linejoin:round" />
            <path
               d="M 48.78125,52.59375 V 44.1875 q -3.8125,2.109375 -7.640625,3.15625 -3.828125,1.046875 -7.734375,1.046875 -8.75,0 -13.59375,-5.546875 -4.828125,-5.53125 -4.828125,-15.546875 0,-10.015625 4.828125,-15.5625 4.84375,-5.53125 13.59375,-5.53125 3.90625,0 7.734375,1.046875 3.828125,1.046875 7.640625,3.15625 v -8.3125 q -3.765625,-1.75 -7.796875,-2.625 -4.015625,-0.890625 -8.5625,-0.890625 -12.359375,0 -19.640625,7.765625 -7.265625,7.765625 -7.265625,20.953125 0,13.375 7.34375,21.03125 Q 20.21875,56 33.015625,56 q 4.140625,0 8.09375,-0.859375 3.953125,-0.84375 7.671875,-2.546875 z"
               id="DejaVuSans-99"
               inkscape:connector-curvature="0"
               style="stroke-linecap:butt;stroke-linejoin:round" />
            <path
               d="m 30.609375,48.390625 q -7.21875,0 -11.421875,-5.640625 -4.203125,-5.640625 -4.203125,-15.453125 0,-9.8125 4.171875,-15.453125 4.1875,-5.640625 11.453125,-5.640625 7.1875,0 11.375,5.65625 4.203125,5.671875 4.203125,15.4375 0,9.71875 -4.203125,15.40625 -4.1875,5.6875 -11.375,5.6875 z m 0,7.609375 q 11.71875,0 18.40625,-7.625 6.703125,-7.609375 6.703125,-21.078125 0,-13.421875 -6.703125,-21.078125 -6.6875,-7.640625 -18.40625,-7.640625 -11.765625,0 -18.4375,7.640625 -6.65625,7.65625 -6.65625,21.078125 0,13.46875 6.65625,21.078125 Q 18.84375,56 30.609375,56 Z"
               id="DejaVuSans-111"
               inkscape:connector-curvature="0"
               style="stroke-linecap:butt;stroke-linejoin:round" />
            <path
               d="m 41.109375,46.296875 q -1.515625,0.875 -3.296875,1.28125 Q 36.03125,48 33.890625,48 26.265625,48 22.1875,43.046875 18.109375,38.09375 18.109375,28.8125 V 0 h -9.03125 v 54.6875 h 9.03125 v -8.5 q 2.84375,4.984375 7.375,7.390625 Q 30.03125,56 36.53125,56 q 0.921875,0 2.046875,-0.125 1.125,-0.109375 2.484375,-0.359375 z"
               id="DejaVuSans-114"
               inkscape:connector-curvature="0"
               style="stroke-linecap:butt;stroke-linejoin:round" />
          </defs>
          <g
             transform="matrix(0,-0.1,-0.1,0,4.775313,79.553281)"
             id="g266"
             style="stroke-linecap:butt;stroke-linejoin:round">
            <use
               xlink:href="#DejaVuSans-83"
               id="use256"
               style="stroke-linecap:butt;stroke-linejoin:round"
               x="0"
               y="0"
               width="100%"
               height="100%" />
            <use
               x="63.476562"
               xlink:href="#DejaVuSans-99"
               id="use258"
               style="stroke-linecap:butt;stroke-linejoin:round"
               y="0"
               width="100%"
               height="100%" />
            <use
               x="118.45703"
               xlink:href="#DejaVuSans-111"
               id="use260"
               style="stroke-linecap:butt;stroke-linejoin:round"
               y="0"
               width="100%"
               height="100%" />
            <use
               x="179.63867"
               xlink:href="#DejaVuSans-114"
               id="use262"
               style="stroke-linecap:butt;stroke-linejoin:round"
               y="0"
               width="100%"
               height="100%" />
            <use
               x="220.7207"
               xlink:href="#DejaVuSans-101"
               id="use264"
               style="stroke-linecap:butt;stroke-linejoin:round"
               y="0"
               width="100%"
               height="100%" />
          </g>
        </g>
      </g>
      <g
         id="line2d_13"
         style="stroke-linecap:butt;stroke-linejoin:round">
        <path
           clip-path="url(#pe8ac6d2443)"
           d="m 30.58,116.12 h 2.159086 l 0.269885,-1.29084 h 2.428972 l 0.269886,0.12533 0.269885,-4.50968 0.269886,5.16896 h 0.269886 l 0.269885,0.50623 h 4.048286 l 0.269886,-1.41845 h 0.269886 l 0.269885,-11.74204 H 41.9152 l 0.269886,-7.531357 h 0.539771 l 0.269886,-1.076736 0.269886,-27.093124 h 1.079542 l 0.269886,6.558071 0.269886,0.394902 0.269886,2.198779 H 45.6936 l 0.269886,4.239055 0.269885,6.958153 0.269886,27.093127 0.269886,1.41962 0.269886,-0.94235 0.269885,0.94235 h 1.619315 L 49.202114,115.20765 49.472,116.12 h 0.809657 l 0.269886,-5.35436 H 51.3612 l 0.269886,-3.5773 0.269885,-0.44546 h 0.269886 l 0.269886,-0.97339 h 0.539771 l 0.269886,-9.449322 0.269886,13.918412 0.269885,5.88142 h 9.985772 l 0.269886,-0.50223 0.269885,0.50223 H 64.5856 l 0.269886,-11.38697 0.269885,-4.62296 h 0.269886 l 0.269886,-2.273679 0.269886,1.090417 h 0.269885 l 0.269886,1.183262 h 1.619314 L 68.364,90.016038 l 0.539771,12.806742 0.269886,2.50128 h 0.269886 l 0.269886,-2.86559 0.269885,6.63275 0.269886,1.17647 0.539771,5.09757 0.269886,0.27441 0.269886,0.48033 H 74.0316 l 0.269886,-2.30467 0.269885,-22.662307 0.269886,3.726821 0.269886,20.295876 h 0.269886 l 0.269885,0.72074 h 5.6676 l 0.269886,-0.50018 0.269886,-7.80078 0.269885,-3.87435 0.269886,0.94989 0.269886,4.69459 h 0.269886 l 0.269885,-1.56726 0.269886,-10.780331 h 0.269886 l 0.269885,7.756601 h 0.539772 l 0.269886,-9.894796 h 1.349428 l 0.269886,-1.290836 h 0.269886 l 0.269885,1.290836 0.269886,-1.090417 h 0.269886 l 0.269885,-0.997081 0.269886,-2.638272 0.269886,-8.486521 0.269886,7.528867 0.269885,3.391693 H 89.1452 l 0.269886,2.291731 0.269885,-2.219753 h 0.269886 l 0.269886,-2.278046 0.269886,2.278046 h 1.079542 l 0.269886,2.219753 0.269886,-11.124793 H 92.9236 l 0.269886,11.124793 h 1.8892 l 0.539771,9.894796 h 0.269886 l 0.269886,-5.563975 0.269885,5.563975 H 96.702 l 0.269886,-0.89927 h 0.269885 l 0.269886,-0.98721 0.269886,0.98721 0.269886,-4.756995 0.269885,-2.519703 0.269886,-9.894793 h 0.269886 l 0.269885,-3.578021 h 0.269886 l 0.269886,11.307437 h 2.698857 l 0.26989,0.446549 h 1.8892 l 0.26988,-0.987209 h 0.26989 l 0.26988,-4.981332 0.26989,2.483412 0.53977,2.585864 h 0.53977 l 0.26989,-2.304675 0.80965,12.199466 0.26989,-0.0599 0.26989,0.50541 0.53977,3.8517 0.26988,0.44633 0.26989,5.5779 0.26988,1.02397 0.26989,-0.78265 h 0.53977 l 0.26989,0.30231 0.80965,0.0242 0.26989,0.45614 0.26989,-1.29084 0.26988,1.29084 h 0.26989 l 0.26988,-0.50262 0.26989,0.50262 0.53977,-3.32877 0.26989,3.32877 h 1.34942 l 0.26989,-2.54649 0.26989,2.54649 h 0.80965 l 0.26989,-0.47684 0.26988,-0.0233 0.26989,0.50018 h 1.07954 l 0.26989,-5.71724 0.26988,-3.30925 0.26989,-20.244558 0.26989,0.446549 h 0.26988 l 0.26989,5.717239 0.26988,-0.393822 0.26989,14.863712 0.26988,0.89927 0.26989,-1.02394 0.26989,0.63743 h 0.26988 l 0.26989,-1.87141 0.26988,1.36518 h 0.80966 l 0.26989,0.50623 0.26988,-6.95269 0.26989,4.229 H 125.04 l 0.26989,-0.44547 0.26988,-4.231789 h 0.80966 l 0.26988,-0.502612 0.26989,-2.509909 0.26989,-4.087729 0.26988,3.562925 0.26989,-1.535198 h 0.53977 l 0.26988,-2.192626 0.26989,-4.890596 0.26989,7.083222 h 0.80965 l 0.26989,-0.912355 0.26988,-15.742005 0.26989,14.665269 h 1.34943 l 0.26988,4.583001 0.26989,-6.264529 0.26989,-0.142337 h 0.26988 l 0.26989,-9.679844 0.26988,7.964571 0.26989,4.287853 0.53977,1.796749 0.26989,8.747939 h 0.80965 l 0.26989,0.44547 h 0.53977 l 0.26989,2.32755 h 0.26988 l 0.26989,3.02681 h 0.53977 l 0.26988,-6.6361 h 0.26989 l 0.26989,7.41022 0.26988,-3.48794 0.26989,2.68546 h 0.26988 l 0.26989,5.02435 0.26988,0.27441 h 0.80966 l 0.26989,-1.17647 h 0.26988 l 0.26989,-2.40082 h 0.26988 l 0.26989,-1.6393 0.26989,-2.54648 h 0.26988 l 0.26989,2.54648 h 0.26988 l 0.26989,-1.82132 0.26988,2.30166 h 2.96875 l 0.26988,-4.84814 h 0.80966 l 0.26989,3.57729 h 0.26988 l 0.53977,2.05823 0.26989,5.07167 h 3.7784 l 0.26988,-7.24107 0.26989,-14.996732 0.26989,0.847666 h 0.26988 l 0.26989,17.669756 h 0.26988 l 0.26989,2.54648 h 1.07954 l 0.26989,-3.35029 0.26988,-1.01751 0.26989,-0.48033 0.26988,2.30165 h 0.26989 l 0.26989,-1.26434 h 0.53977 l 0.53977,2.82361 0.26988,0.98721 0.26989,-1.92398 0.26989,-18.260888 0.53977,-5.041903 0.26988,-9.974924 0.53977,0.0084 0.26989,27.327505 0.26989,5.78814 0.26988,2.07762 0.26989,-11.09742 h 0.53977 l 0.26988,11.09742 0.26989,-0.50622 h 0.26989 l 0.26988,0.50622 h 1.34943 l 0.26989,-14.68916 h 0.26988 l 0.26989,-0.527054 h 0.53977 l 0.26988,-4.176543 0.26989,-0.481236 0.26989,1.922875 0.53977,0.956547 h 0.26988 l 0.26989,0.920874 0.26988,4.219177 h 0.53978 l 0.26988,-4.231791 0.26989,1.439411 0.26988,4.23179 h 0.80966 l 0.26989,0.22354 h 0.26988 l 0.26989,3.34406 0.53977,0.67595 0.26988,7.07105 h 1.61932 l 0.26988,0.27441 h 4.04829 l 0.26989,-0.48033 h 0.26988 l 0.26989,-62.17214 0.26988,25.379834 0.26989,1.059792 h 0.26988 l 0.26989,1.522202 h 0.26989 l 0.26988,28.594882 0.26989,3.57729 0.26988,1.34457 0.26989,0.17841 0.26988,0.44655 0.26989,0.22354 h 0.80966 l 0.26988,0.3254 h 0.26989 l 0.26988,-2.0875 0.26989,1.60717 0.26989,0.48033 h 0.80965 l 0.26989,-2.27209 0.26988,2.27209 0.26989,-1.29084 0.26989,-4.07325 0.26988,1.29083 0.26989,4.07326 h 0.53977 l 0.26988,-1.41845 0.26989,1.41845 h 0.26989 l 0.53977,-0.95375 h 0.26988 l 0.26989,-5.09904 0.53977,4.64969 0.26989,-1.76148 0.26988,-26.283458 0.26989,22.184138 h 0.26988 l 0.26989,-7.06863 0.26988,7.60637 0.26989,0.80677 h 0.26989 l 0.26988,-1.01384 0.53977,-4.16419 0.26989,9.64193 0.26988,0.97329 h 0.26989 l 0.26989,0.4822 0.26988,-2.81334 0.26989,-1.41845 h 0.80965 l 0.26989,-0.40287 0.53977,4.63466 h 0.80966 l 0.26988,-1.36518 0.26989,-11.57985 0.53977,-29.516547 0.26989,34.489017 0.26988,4.96424 0.26989,-1.45012 0.26988,1.37432 0.26989,2.51004 h 0.26989 l 0.26988,0.35054 h 0.26989 l 0.26988,-2.97428 0.26989,0.50018 0.53977,0.3293 0.26989,2.36834 h 0.53977 l 0.26988,-0.47684 h 0.26989 l 0.26988,0.47684 h 0.53978 l 0.26988,-2.8401 0.53977,-16.348452 0.26989,2.073956 0.26988,6.526346 0.26989,10.2377 h 0.26989 l 0.26988,0.35055 h 1.8892 l 0.26989,-1.29084 0.26988,1.29084 h 0.26989 l 0.26988,-2.27209 0.26989,2.27209 0.26989,-0.45614 0.26988,0.45614 h 0.26989 l 0.26988,-4.9965 0.26989,4.6711 h 0.26988 l 0.26989,-4.07326 0.26989,-6.74946 0.26988,-2.59492 0.26989,-7.113804 h 0.26988 l 0.26989,4.956824 0.26988,1.07673 0.26989,14.27435 h 2.42897 l 0.26989,-0.35055 h 0.53977 l 0.26988,-3.25929 0.26989,-13.554506 h 1.61931 l 0.26989,-1.972146 0.26989,14.288642 0.26988,-0.78996 0.26989,4.89344 h 0.53977 l 0.26988,-22.176205 0.26989,-0.527052 0.26989,5.7334 h 0.53977 l 0.26988,-0.446549 h 0.26989 l 0.26988,-1.640949 0.26989,2.087498 h 1.34943 l 0.26988,0.527052 0.26989,9.724395 h 0.26989 l 0.26988,-4.6711 0.26989,4.6711 0.26988,0.44633 h 0.26989 l 0.26988,6.6659 h 0.26989 l 0.26989,-5.60694 0.26988,5.60694 h 0.53977 l 0.26989,-1.8962 0.26988,-6.09319 0.26989,3.66099 0.26989,1.1104 h 0.26988 l 0.26989,-1.21639 h 0.26988 l 0.26989,2.32079 0.26988,-0.47683 h 0.53978 l 0.26988,-0.38651 0.26989,-3.39594 0.53977,4.10435 0.26988,2.94448 0.26989,0.22354 0.26989,-0.50018 h 0.26988 l 0.26989,0.50018 h 5.39771 l 0.26989,-0.35055 h 0.26988 l 0.26989,-6.27497 0.26988,-81.221556 0.26989,69.827533 0.26989,13.652023 0.26988,3.69157 0.53977,0.67595 h 1.8892 l 0.26989,-2.4741 h 0.26988 l 0.26989,-1.20457 0.26989,-2.21591 0.26988,5.89458 h 0.26989 l 0.26988,-6.53347 0.26989,-2.45827 0.26988,1.18327 0.53978,7.80847 h 1.07954 l 0.26988,-6.82382 0.26989,6.82382 h 0.80966 l 0.26988,-1.37393 0.26989,1.37393 h 1.34943 l 0.26988,-6.36659 0.53977,1.93409 0.26989,-7.25039 0.26989,-4.1708 0.26988,-24.84394 0.26989,25.40113 0.26988,1.47978 0.26989,3.84202 0.26988,-3.64354 0.26989,8.80293 0.26989,0.35055 h 0.26988 l 0.26989,-4.58894 0.26988,6.9369 0.26989,-2.23291 h 0.26988 l 0.26989,4.34971 h 2.15909 l 0.26988,-0.39614 0.26989,0.39614 h 1.07954 l 0.26989,-0.49795 h 1.61931 l 0.53977,-0.67595 h 0.26989 l 0.26988,-0.58036 0.26989,0.0301 0.26988,1.72412 h 4.58806 l 0.26989,-0.27441 0.26988,0.27441 h 1.8892 l 0.26989,-8.63783 0.26988,8.63783 0.26989,-2.63008 0.26989,2.30468 h 1.07954 l 0.26988,-0.90888 h 1.07955 l 0.26988,-0.9971 0.26989,-3.51376 0.26988,-13.970712 0.26989,7.041012 0.26989,0.91235 0.53977,10.08187 0.26988,0.44634 0.26989,-0.47312 0.26988,0.47312 h 0.53978 l 0.26988,-3.56704 0.26989,3.56704 h 0.53977 l 0.26988,-0.95574 0.26989,-0.0251 0.26989,-4.74281 0.26988,-1.76669 0.26989,-0.97329 0.26988,-5.08495 0.26989,-2.905169 0.26988,7.017549 0.26989,2.37824 0.26989,0.44633 0.26988,-0.44655 0.26989,2.82213 0.26988,1.16778 0.26989,-11.32112 h 0.26988 l 0.26989,9.94306 h 0.26989 l 0.26988,3.91533 0.26989,0.2744 0.26988,-0.39382 0.26989,1.88468 h 0.26988 l 0.26989,-12.31649 0.26989,12.31649 h 5.39771 l 0.26989,-0.3254 h 0.53977 l 0.26988,-0.39615 0.53977,-43.5171 0.26989,7.534523 0.26989,-2.68525 0.26988,-5.30627 0.26989,-8.91186 0.26988,2.782817 0.26989,-7.183952 0.26988,4.734403 0.26989,1.450126 0.26989,-2.219753 0.80965,52.201706 0.26989,0.8918 0.26988,0.27441 h 0.26989 l 0.26989,0.3254 h 0.53977 l 0.26988,0.35055 h 2.69886 l 0.26989,-1.82132 h 0.26988 l 0.26989,1.59778 0.26988,0.22354 h 0.53977 l 0.26989,-3.00811 0.26989,3.00811 h 3.23862 l 0.26989,-2.52778 h 0.26989 l 0.26988,-2.80066 0.26989,-15.508758 h 1.07954 l 0.26989,3.604519 0.26988,17.232679 h 2.15909 l 0.26988,-0.91235 0.26989,-4.92426 0.26988,0.90691 0.26989,1.36518 0.26989,2.4741 0.26988,-9.47728 h 0.26989 l 0.26988,-5.713846 0.26989,-0.973291 0.26988,-6.4911 0.26989,-1.006611 0.26989,-23.485246 0.26988,-1.134792 0.26989,4.809456 0.26988,-6.823817 0.26989,-14.208385 h 0.26988 l 0.26989,1.448698 0.26989,7.783365 0.26988,31.850214 0.53977,-5.766083 0.26989,0.974358 0.26988,-4.34369 0.26989,-2.436068 0.26989,-5.466527 0.26988,6.957154 0.26989,12.026168 h 0.26988 l 0.26989,-1.92313 0.26988,2.329467 h 0.26989 l 0.53977,-3.009488 h 1.07954 l 0.26989,1.535198 0.26989,5.552193 0.26988,-1.175144 0.53977,1.86855 0.26989,-4.193148 0.26988,-11.719808 0.26989,-3.522195 0.26989,-30.720139 0.26988,-0.983847 0.26989,3.40079 0.26988,9.611271 h 0.26989 l 0.26988,2.860325 0.26989,4.303933 0.53977,2.580184 0.26989,2.728201 0.26988,3.891277 0.26989,1.183267 0.26988,3.987071 0.26989,23.845065 h 0.26989 l 0.26988,4.4973 h 1.34943 l 0.53977,-16.149373 0.26989,19.754183 0.26988,0.59023 0.26989,-0.47311 h 2.15908 l 0.80966,1.41844 0.26989,-0.78265 0.26988,0.10636 0.53977,-0.94533 h 0.26989 l 0.26989,0.94533 0.26988,-0.47541 0.26989,0.47541 0.26988,-0.50261 0.26989,-0.9499 0.26988,-1.41844 0.26989,-23.37777 0.26989,26.97886 0.26988,0.44633 h 1.61932 l 0.53977,-11.8993 0.26988,0.5197 0.26989,-0.3546 0.26988,-5.151543 0.26989,-21.285055 0.26989,4.497301 h 0.26988 l 0.53977,12.869984 0.26989,-2.286427 0.53977,19.09716 0.26989,3.03903 h 1.61931 l 0.26989,-0.78265 h 0.26988 l 0.26989,-4.85533 h 0.26988 l 0.26989,-1.40998 0.26988,4.52017 0.26989,2.52779 h 0.26989 l 0.26988,-1.96769 h 0.53977 l 0.26989,1.96769 h 0.26988 l 0.26989,-3.27525 0.26989,3.72277 h 0.26988 l 0.26989,-3.93633 0.26988,4.44256 h 0.26989 l 0.26988,-8.00755 0.26989,-17.525079 h 0.26989 l 0.26988,4.885458 0.26989,20.647171 0.26988,-1.49086 0.26989,0.53711 0.26988,-0.38651 h 0.53978 l 0.26988,-1.83325 0.26989,1.74435 0.26988,0.47541 h 0.53977 l 0.26989,-1.02237 0.26989,-8.22163 0.26988,1.294 0.26989,2.32755 0.26988,-2.18257 0.26989,3.2593 0.26988,-0.4677 0.26989,0.4416 0.26989,1.82132 h 0.26988 l 0.26989,2.52778 h 1.07954 l 0.26989,-4.17407 0.26988,-0.834 0.26989,1.61665 0.26988,0.57257 0.26989,3.99532 0.26988,-0.50541 0.26989,-1.79926 0.26989,-4.40725 h 0.26988 l 0.26989,-5.13381 0.26988,-23.331075 0.26989,0.355573 0.26988,32.529502 0.26989,2.29173 0.26989,-0.39614 0.26988,0.39614 0.26989,-0.47684 h 0.26988 l 0.26989,0.47684 h 0.80966 l 0.26988,-0.78265 0.26989,-0.39382 0.26988,-4.82944 h 1.61932 l 0.26988,4.35633 0.26989,0.47311 h 0.26988 l 0.26989,-3.38485 0.26989,-1.90644 0.26988,0.0851 0.26989,3.39633 0.26988,0.89748 h 0.26989 l 0.26988,0.91236 h 1.8892 l 0.26989,-4.01864 0.26989,1.01052 0.26988,2.00533 0.26989,-1.96769 0.26988,2.97048 h 1.8892 l 0.26989,-11.24196 0.26988,-22.806794 0.26989,0.912354 0.26989,2.636714 0.26988,-4.550134 0.26989,-11.271796 0.26988,-29.248227 0.80966,15.124964 0.26989,5.20787 0.26988,43.445679 0.26989,6.72352 0.26988,0.73152 0.26989,0.39125 0.26988,2.52778 0.26989,0.50623 0.26989,2.0875 h 1.07954 l 0.26988,-0.38651 0.26989,0.38651 h 1.61931 l 0.26989,-1.78928 0.26989,-3.33978 0.26988,-0.92338 0.26989,1.42704 0.26988,3.72617 0.53977,0.89923 h 0.26989 l 0.26989,-1.10658 0.26988,1.10658 h 1.07954 l 0.26989,-1.82132 h 0.26989 l 0.26988,1.82132 h 1.07954 l 0.26989,-6.59461 0.26989,-0.78265 0.53977,-7.50061 0.26988,-47.397197 0.26989,42.138257 h 0.80966 l 0.26988,-1.418449 0.26989,2.618661 h 0.26988 l 0.26989,2.793942 h 0.26988 l 0.53978,10.947546 0.26988,1.17647 0.26989,-0.47311 h 0.53977 l 0.26988,0.47311 0.26989,2.52778 0.26989,-4.69458 h 0.53977 l 0.26988,4.69458 0.26989,1.49086 h 0.26988 l 0.26989,-1.46498 0.26989,-4.75849 0.26988,5.71724 0.26989,-2.52778 h 0.26988 l 0.26989,2.52778 0.26988,0.50623 h 0.26989 l 0.26989,-2.94098 h 0.53977 l 0.26988,-2.45127 0.26989,3.95455 0.26988,-3.0024 0.26989,3.0024 h 0.80966 l 0.26988,-14.860193 0.26989,2.919123 0.26988,9.94497 0.26989,-0.50541 0.26989,-0.22298 0.26988,1.18327 0.26989,-0.0292 0.26988,0.48033 h 0.26989 l 0.26988,2.52778 h 2.42898 l 0.26988,-1.45013 0.26989,0.9479 0.26988,0.50223 h 0.80966 l 0.26989,-0.48033 0.26988,0.48033 h 3.7784 v 0"
           style="fill:none;stroke:#1f77b4;stroke-linecap:butt;stroke-linejoin:round"
           id="path270"
           inkscape:connector-curvature="0" />
      </g>
      <g
         id="patch_3"
         style="stroke-linecap:butt;stroke-linejoin:round">
        <path
           d="M 30.58,116.12 V 14.76"
           style="fill:none;stroke:#000000;stroke-width:0.80000001;stroke-linecap:square;stroke-linejoin:miter"
           id="path273"
           inkscape:connector-curvature="0" />
      </g>
      <g
         id="patch_4"
         style="stroke-linecap:butt;stroke-linejoin:round">
        <path
           d="M 408.42,116.12 V 14.76"
           style="fill:none;stroke:#000000;stroke-width:0.80000001;stroke-linecap:square;stroke-linejoin:miter"
           id="path276"
           inkscape:connector-curvature="0" />
      </g>
      <g
         id="patch_5"
         style="stroke-linecap:butt;stroke-linejoin:round">
        <path
           d="M 30.58,116.12 H 408.42"
           style="fill:none;stroke:#000000;stroke-width:0.80000001;stroke-linecap:square;stroke-linejoin:miter"
           id="path279"
           inkscape:connector-curvature="0" />
      </g>
      <g
         id="patch_6"
         style="stroke-linecap:butt;stroke-linejoin:round">
        <path
           d="M 30.58,14.76 H 408.42"
           style="fill:none;stroke:#000000;stroke-width:0.80000001;stroke-linecap:square;stroke-linejoin:miter"
           id="path282"
           inkscape:connector-curvature="0" />
      </g>
    </g>
  </g>
  <defs
     id="defs290">
    <clipPath
       id="pe8ac6d2443"
       style="stroke-linecap:butt;stroke-linejoin:round">
      <rect
         height="101.36"
         width="377.84"
         x="30.58"
         y="14.76"
         id="rect287"
         style="stroke-linecap:butt;stroke-linejoin:round" />
    </clipPath>
  </defs>
</svg>
