<?xml version="1.0" encoding="utf-8" standalone="no"?>
<!DOCTYPE svg PUBLIC "-//W3C//DTD SVG 1.1//EN"
  "http://www.w3.org/Graphics/SVG/1.1/DTD/svg11.dtd">
<!-- Created with matplotlib (https://matplotlib.org/) -->
<svg height="345.6pt" version="1.1" viewBox="0 0 460.8 345.6" width="460.8pt" xmlns="http://www.w3.org/2000/svg" xmlns:xlink="http://www.w3.org/1999/xlink">
 <defs>
  <style type="text/css">
*{stroke-linecap:butt;stroke-linejoin:round;}
  </style>
 </defs>
 <g id="figure_1">
  <g id="patch_1">
   <path d="M 0 345.6 
L 460.8 345.6 
L 460.8 0 
L 0 0 
z
" style="fill:none;"/>
  </g>
  <g id="axes_1">
   <g id="patch_2">
    <path d="M 57.6 307.584 
L 414.72 307.584 
L 414.72 41.472 
L 57.6 41.472 
z
" style="fill:#ffffff;"/>
   </g>
   <g id="matplotlib.axis_1">
    <g id="xtick_1">
     <g id="line2d_1">
      <defs>
       <path d="M 0 0 
L 0 3.5 
" id="m79e3090a73" style="stroke:#000000;stroke-width:0.8;"/>
      </defs>
      <g>
       <use style="stroke:#000000;stroke-width:0.8;" x="57.6" xlink:href="#m79e3090a73" y="307.584"/>
      </g>
     </g>
     <g id="text_1">
      <!-- 0 -->
      <defs>
       <path d="M 31.78125 66.40625 
Q 24.171875 66.40625 20.328125 58.90625 
Q 16.5 51.421875 16.5 36.375 
Q 16.5 21.390625 20.328125 13.890625 
Q 24.171875 6.390625 31.78125 6.390625 
Q 39.453125 6.390625 43.28125 13.890625 
Q 47.125 21.390625 47.125 36.375 
Q 47.125 51.421875 43.28125 58.90625 
Q 39.453125 66.40625 31.78125 66.40625 
z
M 31.78125 74.21875 
Q 44.046875 74.21875 50.515625 64.515625 
Q 56.984375 54.828125 56.984375 36.375 
Q 56.984375 17.96875 50.515625 8.265625 
Q 44.046875 -1.421875 31.78125 -1.421875 
Q 19.53125 -1.421875 13.0625 8.265625 
Q 6.59375 17.96875 6.59375 36.375 
Q 6.59375 54.828125 13.0625 64.515625 
Q 19.53125 74.21875 31.78125 74.21875 
z
" id="DejaVuSans-48"/>
      </defs>
      <g transform="translate(54.41875 322.182437)scale(0.1 -0.1)">
       <use xlink:href="#DejaVuSans-48"/>
      </g>
     </g>
    </g>
    <g id="xtick_2">
     <g id="line2d_2">
      <g>
       <use style="stroke:#000000;stroke-width:0.8;" x="129.024" xlink:href="#m79e3090a73" y="307.584"/>
      </g>
     </g>
     <g id="text_2">
      <!-- 200 -->
      <defs>
       <path d="M 19.1875 8.296875 
L 53.609375 8.296875 
L 53.609375 0 
L 7.328125 0 
L 7.328125 8.296875 
Q 12.9375 14.109375 22.625 23.890625 
Q 32.328125 33.6875 34.8125 36.53125 
Q 39.546875 41.84375 41.421875 45.53125 
Q 43.3125 49.21875 43.3125 52.78125 
Q 43.3125 58.59375 39.234375 62.25 
Q 35.15625 65.921875 28.609375 65.921875 
Q 23.96875 65.921875 18.8125 64.3125 
Q 13.671875 62.703125 7.8125 59.421875 
L 7.8125 69.390625 
Q 13.765625 71.78125 18.9375 73 
Q 24.125 74.21875 28.421875 74.21875 
Q 39.75 74.21875 46.484375 68.546875 
Q 53.21875 62.890625 53.21875 53.421875 
Q 53.21875 48.921875 51.53125 44.890625 
Q 49.859375 40.875 45.40625 35.40625 
Q 44.1875 33.984375 37.640625 27.21875 
Q 31.109375 20.453125 19.1875 8.296875 
z
" id="DejaVuSans-50"/>
      </defs>
      <g transform="translate(119.48025 322.182437)scale(0.1 -0.1)">
       <use xlink:href="#DejaVuSans-50"/>
       <use x="63.623047" xlink:href="#DejaVuSans-48"/>
       <use x="127.246094" xlink:href="#DejaVuSans-48"/>
      </g>
     </g>
    </g>
    <g id="xtick_3">
     <g id="line2d_3">
      <g>
       <use style="stroke:#000000;stroke-width:0.8;" x="200.448" xlink:href="#m79e3090a73" y="307.584"/>
      </g>
     </g>
     <g id="text_3">
      <!-- 400 -->
      <defs>
       <path d="M 37.796875 64.3125 
L 12.890625 25.390625 
L 37.796875 25.390625 
z
M 35.203125 72.90625 
L 47.609375 72.90625 
L 47.609375 25.390625 
L 58.015625 25.390625 
L 58.015625 17.1875 
L 47.609375 17.1875 
L 47.609375 0 
L 37.796875 0 
L 37.796875 17.1875 
L 4.890625 17.1875 
L 4.890625 26.703125 
z
" id="DejaVuSans-52"/>
      </defs>
      <g transform="translate(190.90425 322.182437)scale(0.1 -0.1)">
       <use xlink:href="#DejaVuSans-52"/>
       <use x="63.623047" xlink:href="#DejaVuSans-48"/>
       <use x="127.246094" xlink:href="#DejaVuSans-48"/>
      </g>
     </g>
    </g>
    <g id="xtick_4">
     <g id="line2d_4">
      <g>
       <use style="stroke:#000000;stroke-width:0.8;" x="271.872" xlink:href="#m79e3090a73" y="307.584"/>
      </g>
     </g>
     <g id="text_4">
      <!-- 600 -->
      <defs>
       <path d="M 33.015625 40.375 
Q 26.375 40.375 22.484375 35.828125 
Q 18.609375 31.296875 18.609375 23.390625 
Q 18.609375 15.53125 22.484375 10.953125 
Q 26.375 6.390625 33.015625 6.390625 
Q 39.65625 6.390625 43.53125 10.953125 
Q 47.40625 15.53125 47.40625 23.390625 
Q 47.40625 31.296875 43.53125 35.828125 
Q 39.65625 40.375 33.015625 40.375 
z
M 52.59375 71.296875 
L 52.59375 62.3125 
Q 48.875 64.0625 45.09375 64.984375 
Q 41.3125 65.921875 37.59375 65.921875 
Q 27.828125 65.921875 22.671875 59.328125 
Q 17.53125 52.734375 16.796875 39.40625 
Q 19.671875 43.65625 24.015625 45.921875 
Q 28.375 48.1875 33.59375 48.1875 
Q 44.578125 48.1875 50.953125 41.515625 
Q 57.328125 34.859375 57.328125 23.390625 
Q 57.328125 12.15625 50.6875 5.359375 
Q 44.046875 -1.421875 33.015625 -1.421875 
Q 20.359375 -1.421875 13.671875 8.265625 
Q 6.984375 17.96875 6.984375 36.375 
Q 6.984375 53.65625 15.1875 63.9375 
Q 23.390625 74.21875 37.203125 74.21875 
Q 40.921875 74.21875 44.703125 73.484375 
Q 48.484375 72.75 52.59375 71.296875 
z
" id="DejaVuSans-54"/>
      </defs>
      <g transform="translate(262.32825 322.182437)scale(0.1 -0.1)">
       <use xlink:href="#DejaVuSans-54"/>
       <use x="63.623047" xlink:href="#DejaVuSans-48"/>
       <use x="127.246094" xlink:href="#DejaVuSans-48"/>
      </g>
     </g>
    </g>
    <g id="xtick_5">
     <g id="line2d_5">
      <g>
       <use style="stroke:#000000;stroke-width:0.8;" x="343.296" xlink:href="#m79e3090a73" y="307.584"/>
      </g>
     </g>
     <g id="text_5">
      <!-- 800 -->
      <defs>
       <path d="M 31.78125 34.625 
Q 24.75 34.625 20.71875 30.859375 
Q 16.703125 27.09375 16.703125 20.515625 
Q 16.703125 13.921875 20.71875 10.15625 
Q 24.75 6.390625 31.78125 6.390625 
Q 38.8125 6.390625 42.859375 10.171875 
Q 46.921875 13.96875 46.921875 20.515625 
Q 46.921875 27.09375 42.890625 30.859375 
Q 38.875 34.625 31.78125 34.625 
z
M 21.921875 38.8125 
Q 15.578125 40.375 12.03125 44.71875 
Q 8.5 49.078125 8.5 55.328125 
Q 8.5 64.0625 14.71875 69.140625 
Q 20.953125 74.21875 31.78125 74.21875 
Q 42.671875 74.21875 48.875 69.140625 
Q 55.078125 64.0625 55.078125 55.328125 
Q 55.078125 49.078125 51.53125 44.71875 
Q 48 40.375 41.703125 38.8125 
Q 48.828125 37.15625 52.796875 32.3125 
Q 56.78125 27.484375 56.78125 20.515625 
Q 56.78125 9.90625 50.3125 4.234375 
Q 43.84375 -1.421875 31.78125 -1.421875 
Q 19.734375 -1.421875 13.25 4.234375 
Q 6.78125 9.90625 6.78125 20.515625 
Q 6.78125 27.484375 10.78125 32.3125 
Q 14.796875 37.15625 21.921875 38.8125 
z
M 18.3125 54.390625 
Q 18.3125 48.734375 21.84375 45.5625 
Q 25.390625 42.390625 31.78125 42.390625 
Q 38.140625 42.390625 41.71875 45.5625 
Q 45.3125 48.734375 45.3125 54.390625 
Q 45.3125 60.0625 41.71875 63.234375 
Q 38.140625 66.40625 31.78125 66.40625 
Q 25.390625 66.40625 21.84375 63.234375 
Q 18.3125 60.0625 18.3125 54.390625 
z
" id="DejaVuSans-56"/>
      </defs>
      <g transform="translate(333.75225 322.182437)scale(0.1 -0.1)">
       <use xlink:href="#DejaVuSans-56"/>
       <use x="63.623047" xlink:href="#DejaVuSans-48"/>
       <use x="127.246094" xlink:href="#DejaVuSans-48"/>
      </g>
     </g>
    </g>
    <g id="xtick_6">
     <g id="line2d_6">
      <g>
       <use style="stroke:#000000;stroke-width:0.8;" x="414.72" xlink:href="#m79e3090a73" y="307.584"/>
      </g>
     </g>
     <g id="text_6">
      <!-- 1000 -->
      <defs>
       <path d="M 12.40625 8.296875 
L 28.515625 8.296875 
L 28.515625 63.921875 
L 10.984375 60.40625 
L 10.984375 69.390625 
L 28.421875 72.90625 
L 38.28125 72.90625 
L 38.28125 8.296875 
L 54.390625 8.296875 
L 54.390625 0 
L 12.40625 0 
z
" id="DejaVuSans-49"/>
      </defs>
      <g transform="translate(401.995 322.182437)scale(0.1 -0.1)">
       <use xlink:href="#DejaVuSans-49"/>
       <use x="63.623047" xlink:href="#DejaVuSans-48"/>
       <use x="127.246094" xlink:href="#DejaVuSans-48"/>
       <use x="190.869141" xlink:href="#DejaVuSans-48"/>
      </g>
     </g>
    </g>
    <g id="text_7">
     <!-- residue index -->
     <defs>
      <path d="M 41.109375 46.296875 
Q 39.59375 47.171875 37.8125 47.578125 
Q 36.03125 48 33.890625 48 
Q 26.265625 48 22.1875 43.046875 
Q 18.109375 38.09375 18.109375 28.8125 
L 18.109375 0 
L 9.078125 0 
L 9.078125 54.6875 
L 18.109375 54.6875 
L 18.109375 46.1875 
Q 20.953125 51.171875 25.484375 53.578125 
Q 30.03125 56 36.53125 56 
Q 37.453125 56 38.578125 55.875 
Q 39.703125 55.765625 41.0625 55.515625 
z
" id="DejaVuSans-114"/>
      <path d="M 56.203125 29.59375 
L 56.203125 25.203125 
L 14.890625 25.203125 
Q 15.484375 15.921875 20.484375 11.0625 
Q 25.484375 6.203125 34.421875 6.203125 
Q 39.59375 6.203125 44.453125 7.46875 
Q 49.3125 8.734375 54.109375 11.28125 
L 54.109375 2.78125 
Q 49.265625 0.734375 44.1875 -0.34375 
Q 39.109375 -1.421875 33.890625 -1.421875 
Q 20.796875 -1.421875 13.15625 6.1875 
Q 5.515625 13.8125 5.515625 26.8125 
Q 5.515625 40.234375 12.765625 48.109375 
Q 20.015625 56 32.328125 56 
Q 43.359375 56 49.78125 48.890625 
Q 56.203125 41.796875 56.203125 29.59375 
z
M 47.21875 32.234375 
Q 47.125 39.59375 43.09375 43.984375 
Q 39.0625 48.390625 32.421875 48.390625 
Q 24.90625 48.390625 20.390625 44.140625 
Q 15.875 39.890625 15.1875 32.171875 
z
" id="DejaVuSans-101"/>
      <path d="M 44.28125 53.078125 
L 44.28125 44.578125 
Q 40.484375 46.53125 36.375 47.5 
Q 32.28125 48.484375 27.875 48.484375 
Q 21.1875 48.484375 17.84375 46.4375 
Q 14.5 44.390625 14.5 40.28125 
Q 14.5 37.15625 16.890625 35.375 
Q 19.28125 33.59375 26.515625 31.984375 
L 29.59375 31.296875 
Q 39.15625 29.25 43.1875 25.515625 
Q 47.21875 21.78125 47.21875 15.09375 
Q 47.21875 7.46875 41.1875 3.015625 
Q 35.15625 -1.421875 24.609375 -1.421875 
Q 20.21875 -1.421875 15.453125 -0.5625 
Q 10.6875 0.296875 5.421875 2 
L 5.421875 11.28125 
Q 10.40625 8.6875 15.234375 7.390625 
Q 20.0625 6.109375 24.8125 6.109375 
Q 31.15625 6.109375 34.5625 8.28125 
Q 37.984375 10.453125 37.984375 14.40625 
Q 37.984375 18.0625 35.515625 20.015625 
Q 33.0625 21.96875 24.703125 23.78125 
L 21.578125 24.515625 
Q 13.234375 26.265625 9.515625 29.90625 
Q 5.8125 33.546875 5.8125 39.890625 
Q 5.8125 47.609375 11.28125 51.796875 
Q 16.75 56 26.8125 56 
Q 31.78125 56 36.171875 55.265625 
Q 40.578125 54.546875 44.28125 53.078125 
z
" id="DejaVuSans-115"/>
      <path d="M 9.421875 54.6875 
L 18.40625 54.6875 
L 18.40625 0 
L 9.421875 0 
z
M 9.421875 75.984375 
L 18.40625 75.984375 
L 18.40625 64.59375 
L 9.421875 64.59375 
z
" id="DejaVuSans-105"/>
      <path d="M 45.40625 46.390625 
L 45.40625 75.984375 
L 54.390625 75.984375 
L 54.390625 0 
L 45.40625 0 
L 45.40625 8.203125 
Q 42.578125 3.328125 38.25 0.953125 
Q 33.9375 -1.421875 27.875 -1.421875 
Q 17.96875 -1.421875 11.734375 6.484375 
Q 5.515625 14.40625 5.515625 27.296875 
Q 5.515625 40.1875 11.734375 48.09375 
Q 17.96875 56 27.875 56 
Q 33.9375 56 38.25 53.625 
Q 42.578125 51.265625 45.40625 46.390625 
z
M 14.796875 27.296875 
Q 14.796875 17.390625 18.875 11.75 
Q 22.953125 6.109375 30.078125 6.109375 
Q 37.203125 6.109375 41.296875 11.75 
Q 45.40625 17.390625 45.40625 27.296875 
Q 45.40625 37.203125 41.296875 42.84375 
Q 37.203125 48.484375 30.078125 48.484375 
Q 22.953125 48.484375 18.875 42.84375 
Q 14.796875 37.203125 14.796875 27.296875 
z
" id="DejaVuSans-100"/>
      <path d="M 8.5 21.578125 
L 8.5 54.6875 
L 17.484375 54.6875 
L 17.484375 21.921875 
Q 17.484375 14.15625 20.5 10.265625 
Q 23.53125 6.390625 29.59375 6.390625 
Q 36.859375 6.390625 41.078125 11.03125 
Q 45.3125 15.671875 45.3125 23.6875 
L 45.3125 54.6875 
L 54.296875 54.6875 
L 54.296875 0 
L 45.3125 0 
L 45.3125 8.40625 
Q 42.046875 3.421875 37.71875 1 
Q 33.40625 -1.421875 27.6875 -1.421875 
Q 18.265625 -1.421875 13.375 4.4375 
Q 8.5 10.296875 8.5 21.578125 
z
M 31.109375 56 
z
" id="DejaVuSans-117"/>
      <path id="DejaVuSans-32"/>
      <path d="M 54.890625 33.015625 
L 54.890625 0 
L 45.90625 0 
L 45.90625 32.71875 
Q 45.90625 40.484375 42.875 44.328125 
Q 39.84375 48.1875 33.796875 48.1875 
Q 26.515625 48.1875 22.3125 43.546875 
Q 18.109375 38.921875 18.109375 30.90625 
L 18.109375 0 
L 9.078125 0 
L 9.078125 54.6875 
L 18.109375 54.6875 
L 18.109375 46.1875 
Q 21.34375 51.125 25.703125 53.5625 
Q 30.078125 56 35.796875 56 
Q 45.21875 56 50.046875 50.171875 
Q 54.890625 44.34375 54.890625 33.015625 
z
" id="DejaVuSans-110"/>
      <path d="M 54.890625 54.6875 
L 35.109375 28.078125 
L 55.90625 0 
L 45.3125 0 
L 29.390625 21.484375 
L 13.484375 0 
L 2.875 0 
L 24.125 28.609375 
L 4.6875 54.6875 
L 15.28125 54.6875 
L 29.78125 35.203125 
L 44.28125 54.6875 
z
" id="DejaVuSans-120"/>
     </defs>
     <g transform="translate(202.26 335.860562)scale(0.1 -0.1)">
      <use xlink:href="#DejaVuSans-114"/>
      <use x="41.082031" xlink:href="#DejaVuSans-101"/>
      <use x="102.605469" xlink:href="#DejaVuSans-115"/>
      <use x="154.705078" xlink:href="#DejaVuSans-105"/>
      <use x="182.488281" xlink:href="#DejaVuSans-100"/>
      <use x="245.964844" xlink:href="#DejaVuSans-117"/>
      <use x="309.34375" xlink:href="#DejaVuSans-101"/>
      <use x="370.867188" xlink:href="#DejaVuSans-32"/>
      <use x="402.654297" xlink:href="#DejaVuSans-105"/>
      <use x="430.4375" xlink:href="#DejaVuSans-110"/>
      <use x="493.816406" xlink:href="#DejaVuSans-100"/>
      <use x="557.292969" xlink:href="#DejaVuSans-101"/>
      <use x="618.800781" xlink:href="#DejaVuSans-120"/>
     </g>
    </g>
   </g>
   <g id="matplotlib.axis_2">
    <g id="ytick_1">
     <g id="line2d_7">
      <defs>
       <path d="M 0 0 
L -3.5 0 
" id="m30bc157602" style="stroke:#000000;stroke-width:0.8;"/>
      </defs>
      <g>
       <use style="stroke:#000000;stroke-width:0.8;" x="57.6" xlink:href="#m30bc157602" y="307.584"/>
      </g>
     </g>
     <g id="text_8">
      <!-- 0 -->
      <g transform="translate(44.2375 311.383219)scale(0.1 -0.1)">
       <use xlink:href="#DejaVuSans-48"/>
      </g>
     </g>
    </g>
    <g id="ytick_2">
     <g id="line2d_8">
      <g>
       <use style="stroke:#000000;stroke-width:0.8;" x="57.6" xlink:href="#m30bc157602" y="254.3616"/>
      </g>
     </g>
     <g id="text_9">
      <!-- 50 -->
      <defs>
       <path d="M 10.796875 72.90625 
L 49.515625 72.90625 
L 49.515625 64.59375 
L 19.828125 64.59375 
L 19.828125 46.734375 
Q 21.96875 47.46875 24.109375 47.828125 
Q 26.265625 48.1875 28.421875 48.1875 
Q 40.625 48.1875 47.75 41.5 
Q 54.890625 34.8125 54.890625 23.390625 
Q 54.890625 11.625 47.5625 5.09375 
Q 40.234375 -1.421875 26.90625 -1.421875 
Q 22.3125 -1.421875 17.546875 -0.640625 
Q 12.796875 0.140625 7.71875 1.703125 
L 7.71875 11.625 
Q 12.109375 9.234375 16.796875 8.0625 
Q 21.484375 6.890625 26.703125 6.890625 
Q 35.15625 6.890625 40.078125 11.328125 
Q 45.015625 15.765625 45.015625 23.390625 
Q 45.015625 31 40.078125 35.4375 
Q 35.15625 39.890625 26.703125 39.890625 
Q 22.75 39.890625 18.8125 39.015625 
Q 14.890625 38.140625 10.796875 36.28125 
z
" id="DejaVuSans-53"/>
      </defs>
      <g transform="translate(37.875 258.160819)scale(0.1 -0.1)">
       <use xlink:href="#DejaVuSans-53"/>
       <use x="63.623047" xlink:href="#DejaVuSans-48"/>
      </g>
     </g>
    </g>
    <g id="ytick_3">
     <g id="line2d_9">
      <g>
       <use style="stroke:#000000;stroke-width:0.8;" x="57.6" xlink:href="#m30bc157602" y="201.1392"/>
      </g>
     </g>
     <g id="text_10">
      <!-- 100 -->
      <g transform="translate(31.5125 204.938419)scale(0.1 -0.1)">
       <use xlink:href="#DejaVuSans-49"/>
       <use x="63.623047" xlink:href="#DejaVuSans-48"/>
       <use x="127.246094" xlink:href="#DejaVuSans-48"/>
      </g>
     </g>
    </g>
    <g id="ytick_4">
     <g id="line2d_10">
      <g>
       <use style="stroke:#000000;stroke-width:0.8;" x="57.6" xlink:href="#m30bc157602" y="147.9168"/>
      </g>
     </g>
     <g id="text_11">
      <!-- 150 -->
      <g transform="translate(31.5125 151.716019)scale(0.1 -0.1)">
       <use xlink:href="#DejaVuSans-49"/>
       <use x="63.623047" xlink:href="#DejaVuSans-53"/>
       <use x="127.246094" xlink:href="#DejaVuSans-48"/>
      </g>
     </g>
    </g>
    <g id="ytick_5">
     <g id="line2d_11">
      <g>
       <use style="stroke:#000000;stroke-width:0.8;" x="57.6" xlink:href="#m30bc157602" y="94.6944"/>
      </g>
     </g>
     <g id="text_12">
      <!-- 200 -->
      <g transform="translate(31.5125 98.493619)scale(0.1 -0.1)">
       <use xlink:href="#DejaVuSans-50"/>
       <use x="63.623047" xlink:href="#DejaVuSans-48"/>
       <use x="127.246094" xlink:href="#DejaVuSans-48"/>
      </g>
     </g>
    </g>
    <g id="ytick_6">
     <g id="line2d_12">
      <g>
       <use style="stroke:#000000;stroke-width:0.8;" x="57.6" xlink:href="#m30bc157602" y="41.472"/>
      </g>
     </g>
     <g id="text_13">
      <!-- 250 -->
      <g transform="translate(31.5125 45.271219)scale(0.1 -0.1)">
       <use xlink:href="#DejaVuSans-50"/>
       <use x="63.623047" xlink:href="#DejaVuSans-53"/>
       <use x="127.246094" xlink:href="#DejaVuSans-48"/>
      </g>
     </g>
    </g>
    <g id="text_14">
     <!-- deletions -->
     <defs>
      <path d="M 9.421875 75.984375 
L 18.40625 75.984375 
L 18.40625 0 
L 9.421875 0 
z
" id="DejaVuSans-108"/>
      <path d="M 18.3125 70.21875 
L 18.3125 54.6875 
L 36.8125 54.6875 
L 36.8125 47.703125 
L 18.3125 47.703125 
L 18.3125 18.015625 
Q 18.3125 11.328125 20.140625 9.421875 
Q 21.96875 7.515625 27.59375 7.515625 
L 36.8125 7.515625 
L 36.8125 0 
L 27.59375 0 
Q 17.1875 0 13.234375 3.875 
Q 9.28125 7.765625 9.28125 18.015625 
L 9.28125 47.703125 
L 2.6875 47.703125 
L 2.6875 54.6875 
L 9.28125 54.6875 
L 9.28125 70.21875 
z
" id="DejaVuSans-116"/>
      <path d="M 30.609375 48.390625 
Q 23.390625 48.390625 19.1875 42.75 
Q 14.984375 37.109375 14.984375 27.296875 
Q 14.984375 17.484375 19.15625 11.84375 
Q 23.34375 6.203125 30.609375 6.203125 
Q 37.796875 6.203125 41.984375 11.859375 
Q 46.1875 17.53125 46.1875 27.296875 
Q 46.1875 37.015625 41.984375 42.703125 
Q 37.796875 48.390625 30.609375 48.390625 
z
M 30.609375 56 
Q 42.328125 56 49.015625 48.375 
Q 55.71875 40.765625 55.71875 27.296875 
Q 55.71875 13.875 49.015625 6.21875 
Q 42.328125 -1.421875 30.609375 -1.421875 
Q 18.84375 -1.421875 12.171875 6.21875 
Q 5.515625 13.875 5.515625 27.296875 
Q 5.515625 40.765625 12.171875 48.375 
Q 18.84375 56 30.609375 56 
z
" id="DejaVuSans-111"/>
     </defs>
     <g transform="translate(25.432812 197.426437)rotate(-90)scale(0.1 -0.1)">
      <use xlink:href="#DejaVuSans-100"/>
      <use x="63.476562" xlink:href="#DejaVuSans-101"/>
      <use x="125" xlink:href="#DejaVuSans-108"/>
      <use x="152.783203" xlink:href="#DejaVuSans-101"/>
      <use x="214.306641" xlink:href="#DejaVuSans-116"/>
      <use x="253.515625" xlink:href="#DejaVuSans-105"/>
      <use x="281.298828" xlink:href="#DejaVuSans-111"/>
      <use x="342.480469" xlink:href="#DejaVuSans-110"/>
      <use x="405.859375" xlink:href="#DejaVuSans-115"/>
     </g>
    </g>
   </g>
   <g id="line2d_13">
    <path clip-path="url(#p5e1d9bb25a)" d="M 57.6 307.584 
L 64.02816 307.584 
L 64.38528 303.326208 
L 65.09952 301.197312 
L 65.45664 304.390656 
L 66.528 307.584 
L 68.67072 307.584 
L 69.02784 304.390656 
L 69.38496 302.26176 
L 70.0992 300.132864 
L 70.81344 300.132864 
L 71.17056 304.390656 
L 71.52768 305.455104 
L 71.8848 307.584 
L 72.24192 307.584 
L 72.95616 305.455104 
L 73.31328 307.584 
L 80.8128 307.584 
L 81.16992 306.519552 
L 81.52704 302.26176 
L 81.88416 302.26176 
L 82.5984 293.746176 
L 83.31264 266.070528 
L 83.66976 261.812736 
L 84.384 243.71712 
L 84.74112 238.39488 
L 85.45536 224.557056 
L 85.81248 221.363712 
L 86.1696 220.299264 
L 86.88384 203.268096 
L 87.24096 205.396992 
L 87.59808 208.590336 
L 87.9552 214.977024 
L 88.31232 223.492608 
L 88.66944 224.557056 
L 89.02656 223.492608 
L 89.38368 226.685952 
L 89.7408 224.557056 
L 90.09792 221.363712 
L 90.45504 221.363712 
L 90.81216 220.299264 
L 91.16928 220.299264 
L 91.5264 217.10592 
L 92.24064 208.590336 
L 92.59776 206.46144 
L 93.66912 220.299264 
L 94.02624 221.363712 
L 94.38336 221.363712 
L 94.74048 220.299264 
L 95.0976 214.977024 
L 95.45472 214.977024 
L 95.81184 217.10592 
L 96.16896 217.10592 
L 96.52608 219.234816 
L 97.24032 241.588224 
L 97.59744 245.846016 
L 97.95456 247.974912 
L 98.31168 255.426048 
L 98.6688 267.134976 
L 99.02592 271.392768 
L 99.38304 278.843904 
L 99.74016 279.908352 
L 100.09728 284.166144 
L 100.4544 286.29504 
L 100.81152 289.488384 
L 101.16864 290.552832 
L 101.88288 288.423936 
L 102.24 289.488384 
L 102.59712 289.488384 
L 102.95424 288.423936 
L 103.31136 289.488384 
L 103.66848 291.61728 
L 104.0256 292.681728 
L 104.38272 286.29504 
L 104.73984 285.230592 
L 105.09696 282.037248 
L 105.45408 276.715008 
L 105.8112 269.263872 
L 106.52544 269.263872 
L 106.88256 271.392768 
L 107.5968 271.392768 
L 108.31104 267.134976 
L 108.66816 266.070528 
L 109.02528 261.812736 
L 109.3824 261.812736 
L 109.73952 267.134976 
L 110.09664 266.070528 
L 111.52512 249.03936 
L 111.88224 247.974912 
L 112.23936 241.588224 
L 112.59648 237.330432 
L 113.31072 224.557056 
L 113.66784 214.977024 
L 114.02496 210.719232 
L 114.38208 210.719232 
L 115.09632 202.203648 
L 115.45344 200.074752 
L 115.81056 199.010304 
L 116.16768 195.81696 
L 116.5248 194.752512 
L 116.88192 191.559168 
L 117.23904 190.49472 
L 117.59616 188.365824 
L 117.95328 187.301376 
L 118.3104 181.979136 
L 118.66752 178.785792 
L 119.02464 173.463552 
L 119.38176 155.367936 
L 119.73888 155.367936 
L 120.096 157.496832 
L 120.45312 161.754624 
L 120.81024 162.819072 
L 121.16736 162.819072 
L 121.52448 163.88352 
L 122.59584 163.88352 
L 122.95296 160.690176 
L 123.31008 172.399104 
L 123.6672 176.656896 
L 124.02432 184.108032 
L 124.38144 186.236928 
L 124.73856 196.881408 
L 125.4528 203.268096 
L 126.52416 227.7504 
L 126.88128 247.974912 
L 127.2384 258.619392 
L 127.59552 262.877184 
L 127.95264 272.457216 
L 128.30976 274.586112 
L 128.66688 287.359488 
L 129.024 293.746176 
L 130.09536 303.326208 
L 130.45248 304.390656 
L 130.8096 306.519552 
L 131.16672 307.584 
L 133.66656 307.584 
L 134.02368 305.455104 
L 134.73792 299.068416 
L 135.45216 305.455104 
L 135.80928 307.584 
L 136.1664 307.584 
L 136.52352 306.519552 
L 136.88064 307.584 
L 140.80896 307.584 
L 141.5232 305.455104 
L 142.23744 307.584 
L 145.45152 307.584 
L 145.80864 306.519552 
L 146.16576 301.197312 
L 146.52288 301.197312 
L 146.88 303.326208 
L 147.59424 305.455104 
L 147.95136 307.584 
L 148.6656 307.584 
L 149.02272 306.519552 
L 149.37984 306.519552 
L 149.73696 305.455104 
L 150.09408 305.455104 
L 150.4512 303.326208 
L 151.16544 289.488384 
L 151.52256 280.9728 
L 151.87968 267.134976 
L 152.2368 258.619392 
L 152.59392 254.3616 
L 153.30816 233.07264 
L 153.66528 216.041472 
L 154.0224 192.623616 
L 154.37952 196.881408 
L 154.73664 196.881408 
L 155.09376 195.81696 
L 155.45088 192.623616 
L 155.808 188.365824 
L 156.16512 180.914688 
L 156.52224 164.947968 
L 156.87936 162.819072 
L 157.5936 145.787904 
L 157.95072 146.852352 
L 158.30784 151.110144 
L 159.02208 151.110144 
L 159.3792 150.045696 
L 159.73632 150.045696 
L 160.09344 159.625728 
L 160.45056 166.012416 
L 161.1648 173.463552 
L 161.52192 174.528 
L 161.87904 177.721344 
L 162.59328 179.85024 
L 162.9504 179.85024 
L 164.736 185.17248 
L 165.09312 179.85024 
L 165.45024 178.785792 
L 165.80736 178.785792 
L 166.16448 176.656896 
L 166.5216 175.592448 
L 166.87872 179.85024 
L 167.23584 180.914688 
L 167.59296 179.85024 
L 167.95008 173.463552 
L 168.3072 174.528 
L 168.66432 172.399104 
L 169.02144 171.334656 
L 169.37856 161.754624 
L 169.73568 163.88352 
L 170.0928 167.076864 
L 170.80704 169.20576 
L 171.16416 169.20576 
L 171.52128 173.463552 
L 171.8784 173.463552 
L 172.23552 170.270208 
L 172.59264 171.334656 
L 172.94976 176.656896 
L 173.30688 178.785792 
L 173.664 181.979136 
L 174.02112 188.365824 
L 174.37824 201.1392 
L 174.73536 218.170368 
L 175.09248 224.557056 
L 175.4496 228.814848 
L 175.80672 228.814848 
L 176.16384 232.008192 
L 176.52096 251.168256 
L 176.87808 257.554944 
L 177.2352 259.68384 
L 177.59232 263.941632 
L 177.94944 266.070528 
L 178.30656 267.134976 
L 178.66368 263.941632 
L 179.37792 263.941632 
L 179.73504 259.68384 
L 180.8064 259.68384 
L 181.16352 260.748288 
L 181.52064 260.748288 
L 181.87776 265.00608 
L 182.23488 266.070528 
L 182.592 269.263872 
L 182.94912 269.263872 
L 183.30624 272.457216 
L 183.66336 280.9728 
L 184.02048 285.230592 
L 184.73472 287.359488 
L 185.44896 296.93952 
L 185.80608 296.93952 
L 186.1632 293.746176 
L 186.52032 295.875072 
L 186.87744 299.068416 
L 187.23456 299.068416 
L 187.59168 295.875072 
L 187.9488 296.93952 
L 188.30592 296.93952 
L 188.66304 295.875072 
L 189.02016 292.681728 
L 190.09152 289.488384 
L 190.44864 289.488384 
L 191.16288 279.908352 
L 191.87712 284.166144 
L 192.23424 284.166144 
L 192.59136 282.037248 
L 193.3056 282.037248 
L 194.73408 277.779456 
L 195.44832 271.392768 
L 195.80544 276.715008 
L 196.16256 279.908352 
L 196.51968 280.9728 
L 196.8768 283.101696 
L 197.59104 303.326208 
L 197.94816 307.584 
L 199.37664 307.584 
L 199.73376 306.519552 
L 200.09088 306.519552 
L 200.448 305.455104 
L 200.80512 303.326208 
L 202.94784 303.326208 
L 203.30496 301.197312 
L 204.0192 303.326208 
L 205.44768 303.326208 
L 205.8048 302.26176 
L 206.16192 300.132864 
L 206.51904 302.26176 
L 206.87616 303.326208 
L 209.73312 303.326208 
L 210.09024 302.26176 
L 210.44736 303.326208 
L 210.80448 301.197312 
L 211.1616 298.003968 
L 211.51872 287.359488 
L 211.87584 280.9728 
L 213.30432 244.781568 
L 213.66144 239.459328 
L 214.01856 241.588224 
L 214.37568 240.523776 
L 214.7328 238.39488 
L 215.08992 237.330432 
L 215.44704 235.201536 
L 215.80416 242.652672 
L 216.16128 243.71712 
L 216.5184 243.71712 
L 217.23264 256.490496 
L 217.58976 259.68384 
L 217.94688 260.748288 
L 218.304 262.877184 
L 219.01824 270.32832 
L 219.37536 272.457216 
L 219.73248 273.521664 
L 220.0896 275.65056 
L 220.44672 279.908352 
L 220.80384 282.037248 
L 221.16096 288.423936 
L 221.8752 292.681728 
L 222.23232 293.746176 
L 222.94656 298.003968 
L 223.30368 299.068416 
L 223.6608 299.068416 
L 224.01792 302.26176 
L 224.37504 304.390656 
L 224.73216 302.26176 
L 225.08928 305.455104 
L 225.4464 307.584 
L 288.65664 307.584 
L 289.01376 305.455104 
L 289.728 294.810624 
L 290.08512 291.61728 
L 290.44224 290.552832 
L 290.79936 288.423936 
L 291.5136 282.037248 
L 292.22784 279.908352 
L 292.58496 279.908352 
L 292.94208 275.65056 
L 293.2992 277.779456 
L 293.65632 278.843904 
L 294.37056 278.843904 
L 294.72768 276.715008 
L 297.58464 276.715008 
L 298.656 283.101696 
L 299.72736 294.810624 
L 300.4416 294.810624 
L 301.15584 296.93952 
L 301.87008 301.197312 
L 302.2272 302.26176 
L 302.58432 302.26176 
L 302.94144 303.326208 
L 304.0128 303.326208 
L 304.36992 302.26176 
L 304.72704 300.132864 
L 305.08416 290.552832 
L 305.44128 288.423936 
L 305.7984 289.488384 
L 306.15552 285.230592 
L 306.51264 285.230592 
L 306.86976 291.61728 
L 307.22688 292.681728 
L 307.584 289.488384 
L 307.94112 288.423936 
L 308.29824 288.423936 
L 309.01248 286.29504 
L 309.3696 282.037248 
L 309.72672 282.037248 
L 310.08384 280.9728 
L 310.79808 276.715008 
L 311.1552 270.32832 
L 311.51232 261.812736 
L 312.58368 245.846016 
L 312.9408 242.652672 
L 313.29792 240.523776 
L 313.65504 234.137088 
L 314.01216 232.008192 
L 314.36928 232.008192 
L 314.7264 230.943744 
L 315.08352 230.943744 
L 315.44064 229.879296 
L 327.93984 229.879296 
L 328.29696 230.943744 
L 328.65408 233.07264 
L 329.0112 234.137088 
L 329.36832 234.137088 
L 330.08256 236.265984 
L 330.43968 241.588224 
L 331.15392 241.588224 
L 331.51104 244.781568 
L 331.86816 253.297152 
L 332.22528 258.619392 
L 332.93952 277.779456 
L 333.29664 283.101696 
L 333.65376 286.29504 
L 334.72512 298.003968 
L 335.43936 304.390656 
L 335.79648 303.326208 
L 336.1536 295.875072 
L 336.51072 296.93952 
L 336.86784 291.61728 
L 337.22496 293.746176 
L 337.9392 293.746176 
L 338.29632 292.681728 
L 338.65344 288.423936 
L 339.36768 268.199424 
L 339.7248 260.748288 
L 340.08192 256.490496 
L 340.43904 239.459328 
L 341.15328 219.234816 
L 341.5104 218.170368 
L 341.86752 220.299264 
L 342.22464 218.170368 
L 342.58176 213.912576 
L 342.93888 205.396992 
L 343.296 201.1392 
L 344.01024 172.399104 
L 344.36736 169.20576 
L 344.72448 162.819072 
L 345.0816 158.56128 
L 345.43872 156.432384 
L 346.15296 162.819072 
L 346.8672 156.432384 
L 347.22432 154.303488 
L 347.58144 153.23904 
L 347.93856 162.819072 
L 348.29568 155.367936 
L 348.6528 140.465664 
L 349.36704 129.821184 
L 350.08128 110.66112 
L 350.4384 112.790016 
L 350.79552 118.112256 
L 351.15264 118.112256 
L 351.50976 136.207872 
L 352.58112 151.110144 
L 352.93824 151.110144 
L 353.29536 157.496832 
L 353.65248 166.012416 
L 354.0096 169.20576 
L 354.36672 173.463552 
L 354.72384 175.592448 
L 355.08096 176.656896 
L 355.43808 172.399104 
L 355.7952 166.012416 
L 356.50944 122.370048 
L 356.86656 123.434496 
L 357.5808 121.3056 
L 357.93792 113.854464 
L 358.29504 115.98336 
L 358.65216 113.854464 
L 359.00928 113.854464 
L 359.3664 119.176704 
L 359.72352 121.3056 
L 360.08064 104.274432 
L 360.79488 97.887744 
L 361.152 100.01664 
L 361.50912 96.823296 
L 361.86624 91.501056 
L 362.58048 73.40544 
L 362.9376 70.212096 
L 363.29472 71.276544 
L 363.65184 75.534336 
L 364.00896 82.985472 
L 364.36608 80.856576 
L 364.7232 80.856576 
L 365.08032 81.921024 
L 365.79456 95.758848 
L 366.15168 100.01664 
L 366.5088 106.403328 
L 366.86592 114.918912 
L 367.22304 112.790016 
L 367.58016 108.532224 
L 368.2944 108.532224 
L 368.65152 112.790016 
L 369.00864 122.370048 
L 369.72288 130.885632 
L 370.43712 151.110144 
L 370.79424 157.496832 
L 371.15136 166.012416 
L 371.50848 178.785792 
L 371.8656 178.785792 
L 372.57984 193.688064 
L 372.93696 200.074752 
L 373.29408 202.203648 
L 373.6512 193.688064 
L 374.00832 195.81696 
L 374.36544 193.688064 
L 374.72256 190.49472 
L 375.4368 199.010304 
L 375.79392 197.945856 
L 376.15104 190.49472 
L 377.93664 125.563392 
L 378.29376 123.434496 
L 378.65088 123.434496 
L 379.008 119.176704 
L 379.72224 106.403328 
L 380.07936 95.758848 
L 380.43648 92.565504 
L 380.7936 92.565504 
L 381.50784 71.276544 
L 382.22208 54.245376 
L 382.5792 52.11648 
L 382.93632 47.858688 
L 383.29344 51.052032 
L 383.65056 59.567616 
L 384.00768 88.307712 
L 384.72192 110.66112 
L 385.07904 119.176704 
L 385.43616 121.3056 
L 385.79328 112.790016 
L 386.1504 124.498944 
L 386.50752 114.918912 
L 386.86464 117.047808 
L 387.22176 112.790016 
L 387.57888 115.98336 
L 387.936 107.467776 
L 388.29312 105.33888 
L 389.00736 90.436608 
L 389.36448 84.04992 
L 390.07872 79.792128 
L 390.43584 82.985472 
L 391.15008 72.340992 
L 391.5072 74.469888 
L 391.86432 77.663232 
L 392.22144 77.663232 
L 392.57856 90.436608 
L 392.93568 107.467776 
L 393.2928 113.854464 
L 394.00704 122.370048 
L 394.36416 128.756736 
L 394.72128 131.95008 
L 395.0784 154.303488 
L 395.43552 160.690176 
L 395.79264 160.690176 
L 396.50688 186.236928 
L 396.864 189.430272 
L 397.57824 204.332544 
L 397.93536 205.396992 
L 398.29248 208.590336 
L 399.00672 223.492608 
L 399.36384 244.781568 
L 399.72096 254.3616 
L 400.07808 258.619392 
L 400.4352 259.68384 
L 400.79232 265.00608 
L 401.50656 269.263872 
L 401.86368 270.32832 
L 402.2208 273.521664 
L 402.93504 286.29504 
L 403.64928 292.681728 
L 404.0064 291.61728 
L 404.36352 289.488384 
L 405.07776 299.068416 
L 405.43488 300.132864 
L 405.792 300.132864 
L 406.50624 302.26176 
L 406.86336 305.455104 
L 407.22048 305.455104 
L 407.93472 307.584 
L 411.50592 307.584 
L 411.50592 307.584 
" style="fill:none;stroke:#1f77b4;"/>
   </g>
   <g id="line2d_14">
    <path clip-path="url(#p5e1d9bb25a)" d="M 57.6 306.519552 
L 57.95712 303.326208 
L 58.67136 305.455104 
L 59.02848 307.584 
L 64.02816 307.584 
L 64.38528 304.390656 
L 64.7424 305.455104 
L 65.09952 304.390656 
L 65.45664 306.519552 
L 65.81376 307.584 
L 68.3136 307.584 
L 68.67072 301.197312 
L 69.02784 299.068416 
L 69.38496 298.003968 
L 69.74208 295.875072 
L 70.0992 296.93952 
L 70.81344 294.810624 
L 71.17056 300.132864 
L 71.52768 299.068416 
L 71.8848 302.26176 
L 72.24192 303.326208 
L 72.59904 301.197312 
L 72.95616 302.26176 
L 73.31328 304.390656 
L 73.6704 305.455104 
L 75.456 305.455104 
L 75.81312 306.519552 
L 76.17024 305.455104 
L 76.52736 305.455104 
L 78.31296 300.132864 
L 81.88416 300.132864 
L 82.24128 298.003968 
L 82.5984 298.003968 
L 83.31264 295.875072 
L 84.02688 295.875072 
L 85.09824 292.681728 
L 85.45536 290.552832 
L 86.1696 288.423936 
L 86.52672 283.101696 
L 86.88384 282.037248 
L 87.24096 284.166144 
L 87.59808 283.101696 
L 87.9552 285.230592 
L 88.31232 286.29504 
L 89.02656 284.166144 
L 89.38368 287.359488 
L 89.7408 284.166144 
L 90.45504 286.29504 
L 90.81216 285.230592 
L 91.16928 283.101696 
L 91.5264 282.037248 
L 91.88352 278.843904 
L 92.59776 280.9728 
L 92.95488 284.166144 
L 93.66912 299.068416 
L 94.02624 299.068416 
L 94.38336 307.584 
L 94.74048 306.519552 
L 95.0976 303.326208 
L 96.16896 303.326208 
L 96.52608 302.26176 
L 96.8832 304.390656 
L 97.24032 305.455104 
L 97.59744 307.584 
L 104.0256 307.584 
L 104.38272 303.326208 
L 104.73984 303.326208 
L 105.09696 302.26176 
L 105.45408 300.132864 
L 106.52544 296.93952 
L 106.88256 301.197312 
L 107.23968 303.326208 
L 107.5968 303.326208 
L 107.95392 299.068416 
L 108.66816 301.197312 
L 109.02528 299.068416 
L 109.3824 300.132864 
L 109.73952 302.26176 
L 110.09664 303.326208 
L 112.9536 303.326208 
L 113.31072 302.26176 
L 113.66784 300.132864 
L 114.02496 301.197312 
L 114.38208 303.326208 
L 115.81056 303.326208 
L 116.16768 301.197312 
L 118.66752 301.197312 
L 119.02464 300.132864 
L 119.38176 293.746176 
L 119.73888 291.61728 
L 120.096 292.681728 
L 120.45312 294.810624 
L 120.81024 295.875072 
L 121.16736 293.746176 
L 121.52448 294.810624 
L 121.8816 296.93952 
L 122.59584 299.068416 
L 122.95296 298.003968 
L 123.31008 302.26176 
L 123.6672 300.132864 
L 124.02432 301.197312 
L 124.38144 295.875072 
L 125.09568 298.003968 
L 125.4528 298.003968 
L 125.80992 296.93952 
L 126.16704 299.068416 
L 126.52416 300.132864 
L 127.2384 304.390656 
L 127.59552 304.390656 
L 127.95264 305.455104 
L 128.30976 305.455104 
L 128.66688 306.519552 
L 129.73824 306.519552 
L 130.09536 307.584 
L 134.02368 307.584 
L 134.3808 306.519552 
L 134.73792 304.390656 
L 135.09504 305.455104 
L 135.45216 305.455104 
L 135.80928 307.584 
L 136.1664 307.584 
L 136.52352 306.519552 
L 136.88064 307.584 
L 140.80896 307.584 
L 141.16608 302.26176 
L 142.59456 306.519552 
L 144.02304 306.519552 
L 144.38016 307.584 
L 145.45152 307.584 
L 145.80864 306.519552 
L 146.16576 302.26176 
L 147.23712 305.455104 
L 147.59424 305.455104 
L 147.95136 307.584 
L 153.30816 307.584 
L 154.0224 305.455104 
L 154.37952 307.584 
L 154.73664 307.584 
L 155.09376 306.519552 
L 155.45088 303.326208 
L 156.16512 301.197312 
L 156.52224 296.93952 
L 156.87936 298.003968 
L 157.23648 294.810624 
L 157.95072 292.681728 
L 158.30784 295.875072 
L 158.66496 296.93952 
L 159.73632 293.746176 
L 160.09344 299.068416 
L 160.45056 300.132864 
L 160.80768 304.390656 
L 162.23616 304.390656 
L 162.59328 305.455104 
L 164.736 305.455104 
L 165.09312 304.390656 
L 165.45024 305.455104 
L 166.16448 305.455104 
L 166.5216 304.390656 
L 166.87872 305.455104 
L 167.23584 305.455104 
L 167.59296 307.584 
L 167.95008 303.326208 
L 168.3072 303.326208 
L 169.02144 301.197312 
L 169.37856 296.93952 
L 170.0928 299.068416 
L 170.44992 298.003968 
L 170.80704 295.875072 
L 171.16416 294.810624 
L 171.52128 296.93952 
L 171.8784 294.810624 
L 172.59264 292.681728 
L 172.94976 295.875072 
L 173.30688 294.810624 
L 173.664 292.681728 
L 174.02112 293.746176 
L 174.37824 292.681728 
L 174.73536 300.132864 
L 176.16384 295.875072 
L 176.52096 304.390656 
L 177.2352 304.390656 
L 177.59232 305.455104 
L 178.30656 305.455104 
L 178.66368 301.197312 
L 179.0208 301.197312 
L 179.37792 300.132864 
L 180.09216 295.875072 
L 180.44928 296.93952 
L 180.8064 295.875072 
L 181.16352 299.068416 
L 181.52064 298.003968 
L 181.87776 302.26176 
L 182.23488 303.326208 
L 182.592 303.326208 
L 182.94912 302.26176 
L 184.02048 305.455104 
L 185.44896 305.455104 
L 186.1632 301.197312 
L 186.52032 302.26176 
L 186.87744 304.390656 
L 187.23456 303.326208 
L 187.59168 300.132864 
L 188.30592 302.26176 
L 190.09152 302.26176 
L 190.44864 301.197312 
L 191.16288 296.93952 
L 191.52 298.003968 
L 191.87712 300.132864 
L 192.59136 300.132864 
L 193.3056 298.003968 
L 194.73408 298.003968 
L 195.44832 291.61728 
L 196.16256 293.746176 
L 196.51968 291.61728 
L 196.8768 292.681728 
L 197.23392 295.875072 
L 197.59104 296.93952 
L 197.94816 306.519552 
L 198.30528 307.584 
L 200.09088 307.584 
L 200.448 306.519552 
L 201.87648 306.519552 
L 202.2336 304.390656 
L 202.94784 302.26176 
L 203.30496 298.003968 
L 204.0192 300.132864 
L 205.8048 300.132864 
L 206.16192 296.93952 
L 206.87616 299.068416 
L 207.23328 298.003968 
L 209.376 298.003968 
L 209.73312 295.875072 
L 210.09024 292.681728 
L 210.80448 294.810624 
L 211.51872 292.681728 
L 211.87584 296.93952 
L 212.23296 292.681728 
L 212.59008 293.746176 
L 213.30432 289.488384 
L 213.66144 288.423936 
L 214.01856 290.552832 
L 214.37568 289.488384 
L 214.7328 287.359488 
L 215.08992 286.29504 
L 215.44704 288.423936 
L 215.80416 292.681728 
L 216.16128 294.810624 
L 216.5184 293.746176 
L 216.87552 295.875072 
L 217.58976 305.455104 
L 217.94688 307.584 
L 224.37504 307.584 
L 224.73216 305.455104 
L 225.4464 307.584 
L 229.73184 307.584 
L 230.08896 305.455104 
L 230.8032 307.584 
L 233.30304 307.584 
L 234.01728 305.455104 
L 234.73152 305.455104 
L 235.80288 302.26176 
L 236.16 303.326208 
L 238.30272 303.326208 
L 238.65984 302.26176 
L 239.01696 303.326208 
L 240.08832 303.326208 
L 240.44544 300.132864 
L 240.80256 301.197312 
L 241.15968 298.003968 
L 241.5168 296.93952 
L 241.87392 293.746176 
L 242.58816 295.875072 
L 242.94528 299.068416 
L 243.65952 294.810624 
L 244.01664 295.875072 
L 245.088 302.26176 
L 245.44512 307.584 
L 252.58752 307.584 
L 252.94464 305.455104 
L 253.30176 304.390656 
L 253.65888 302.26176 
L 254.016 303.326208 
L 254.37312 301.197312 
L 254.73024 300.132864 
L 255.08736 302.26176 
L 255.44448 306.519552 
L 255.8016 307.584 
L 265.44384 307.584 
L 265.80096 306.519552 
L 266.15808 307.584 
L 268.65792 307.584 
L 269.01504 305.455104 
L 269.37216 304.390656 
L 269.72928 302.26176 
L 270.0864 303.326208 
L 270.44352 302.26176 
L 270.80064 300.132864 
L 271.15776 301.197312 
L 271.51488 300.132864 
L 271.872 306.519552 
L 272.58624 306.519552 
L 272.94336 307.584 
L 273.6576 307.584 
L 274.01472 304.390656 
L 274.37184 303.326208 
L 274.72896 305.455104 
L 275.4432 307.584 
L 279.0144 307.584 
L 279.37152 303.326208 
L 279.72864 301.197312 
L 280.08576 300.132864 
L 280.44288 302.26176 
L 280.8 299.068416 
L 281.15712 298.003968 
L 281.51424 300.132864 
L 281.87136 299.068416 
L 282.22848 301.197312 
L 282.5856 304.390656 
L 282.94272 305.455104 
L 283.29984 305.455104 
L 284.01408 307.584 
L 287.58528 307.584 
L 287.9424 306.519552 
L 288.29952 306.519552 
L 289.37088 303.326208 
L 289.728 303.326208 
L 290.08512 301.197312 
L 290.44224 300.132864 
L 291.15648 300.132864 
L 291.5136 295.875072 
L 291.87072 293.746176 
L 292.22784 294.810624 
L 292.58496 293.746176 
L 292.94208 291.61728 
L 293.2992 292.681728 
L 293.65632 296.93952 
L 294.01344 295.875072 
L 294.37056 298.003968 
L 294.72768 291.61728 
L 295.0848 289.488384 
L 295.44192 290.552832 
L 295.79904 288.423936 
L 296.15616 287.359488 
L 296.51328 289.488384 
L 296.8704 292.681728 
L 297.22752 291.61728 
L 297.58464 293.746176 
L 298.656 296.93952 
L 299.01312 299.068416 
L 299.37024 302.26176 
L 299.72736 307.584 
L 304.72704 307.584 
L 305.08416 302.26176 
L 305.7984 304.390656 
L 306.15552 302.26176 
L 306.51264 303.326208 
L 306.86976 305.455104 
L 307.22688 306.519552 
L 307.584 306.519552 
L 307.94112 307.584 
L 311.86944 307.584 
L 312.58368 305.455104 
L 313.65504 305.455104 
L 314.36928 303.326208 
L 314.7264 303.326208 
L 315.08352 301.197312 
L 315.44064 302.26176 
L 315.79776 302.26176 
L 316.15488 303.326208 
L 316.512 302.26176 
L 316.86912 300.132864 
L 317.58336 298.003968 
L 317.94048 298.003968 
L 318.2976 294.810624 
L 319.01184 294.810624 
L 319.72608 292.681728 
L 320.0832 286.29504 
L 320.79744 288.423936 
L 321.15456 287.359488 
L 321.51168 289.488384 
L 322.22592 291.61728 
L 323.29728 288.423936 
L 323.6544 295.875072 
L 324.01152 289.488384 
L 324.36864 288.423936 
L 324.72576 290.552832 
L 326.15424 294.810624 
L 326.51136 293.746176 
L 326.86848 296.93952 
L 327.2256 294.810624 
L 327.58272 293.746176 
L 327.93984 295.875072 
L 328.29696 301.197312 
L 329.72544 301.197312 
L 330.08256 300.132864 
L 330.43968 307.584 
L 330.7968 302.26176 
L 331.15392 299.068416 
L 331.51104 296.93952 
L 331.86816 295.875072 
L 332.5824 300.132864 
L 332.93952 301.197312 
L 333.29664 303.326208 
L 334.01088 303.326208 
L 334.368 304.390656 
L 334.72512 304.390656 
L 335.08224 302.26176 
L 335.43936 301.197312 
L 335.79648 301.197312 
L 336.1536 300.132864 
L 336.51072 303.326208 
L 336.86784 301.197312 
L 337.22496 302.26176 
L 337.58208 305.455104 
L 338.29632 307.584 
L 338.65344 304.390656 
L 339.01056 303.326208 
L 339.36768 303.326208 
L 339.7248 302.26176 
L 340.08192 302.26176 
L 340.43904 295.875072 
L 340.79616 294.810624 
L 341.15328 292.681728 
L 341.5104 293.746176 
L 341.86752 296.93952 
L 342.58176 299.068416 
L 343.296 296.93952 
L 343.65312 293.746176 
L 344.01024 288.423936 
L 344.36736 289.488384 
L 345.43872 286.29504 
L 345.79584 290.552832 
L 346.51008 292.681728 
L 347.58144 289.488384 
L 347.93856 294.810624 
L 348.6528 287.359488 
L 349.00992 288.423936 
L 349.36704 287.359488 
L 349.72416 289.488384 
L 351.15264 285.230592 
L 351.50976 291.61728 
L 352.224 293.746176 
L 352.58112 295.875072 
L 352.93824 293.746176 
L 353.29536 294.810624 
L 353.65248 300.132864 
L 354.36672 300.132864 
L 354.72384 301.197312 
L 355.08096 305.455104 
L 355.43808 306.519552 
L 355.7952 306.519552 
L 356.15232 302.26176 
L 356.50944 300.132864 
L 356.86656 301.197312 
L 357.22368 303.326208 
L 357.5808 304.390656 
L 357.93792 303.326208 
L 358.29504 305.455104 
L 358.65216 306.519552 
L 359.3664 306.519552 
L 359.72352 307.584 
L 360.08064 303.326208 
L 360.79488 301.197312 
L 361.152 304.390656 
L 361.50912 305.455104 
L 361.86624 302.26176 
L 362.22336 300.132864 
L 362.58048 295.875072 
L 362.9376 296.93952 
L 363.29472 294.810624 
L 363.65184 295.875072 
L 364.00896 298.003968 
L 364.36608 299.068416 
L 364.7232 294.810624 
L 365.08032 293.746176 
L 365.43744 295.875072 
L 365.79456 294.810624 
L 366.15168 296.93952 
L 366.5088 295.875072 
L 366.86592 298.003968 
L 367.22304 294.810624 
L 367.58016 289.488384 
L 367.93728 290.552832 
L 368.2944 289.488384 
L 368.65152 291.61728 
L 369.36576 293.746176 
L 369.72288 292.681728 
L 370.08 295.875072 
L 370.43712 294.810624 
L 370.79424 296.93952 
L 371.15136 295.875072 
L 371.50848 301.197312 
L 371.8656 299.068416 
L 372.22272 300.132864 
L 372.57984 303.326208 
L 372.93696 304.390656 
L 373.29408 304.390656 
L 373.6512 303.326208 
L 374.00832 304.390656 
L 374.36544 304.390656 
L 374.72256 302.26176 
L 375.07968 303.326208 
L 375.4368 306.519552 
L 375.79392 307.584 
L 376.15104 306.519552 
L 376.50816 304.390656 
L 376.86528 300.132864 
L 377.2224 301.197312 
L 378.29376 298.003968 
L 378.65088 295.875072 
L 379.36512 293.746176 
L 379.72224 296.93952 
L 380.07936 294.810624 
L 380.43648 295.875072 
L 380.7936 302.26176 
L 381.15072 294.810624 
L 381.86496 296.93952 
L 382.22208 294.810624 
L 382.5792 295.875072 
L 383.65056 292.681728 
L 384.00768 298.003968 
L 384.3648 299.068416 
L 384.72192 299.068416 
L 385.07904 300.132864 
L 385.43616 299.068416 
L 385.79328 296.93952 
L 386.1504 298.003968 
L 386.50752 294.810624 
L 387.22176 296.93952 
L 387.57888 301.197312 
L 387.936 294.810624 
L 388.29312 295.875072 
L 388.65024 294.810624 
L 389.36448 290.552832 
L 390.79296 286.29504 
L 391.15008 284.166144 
L 391.5072 285.230592 
L 392.22144 283.101696 
L 392.57856 291.61728 
L 392.93568 293.746176 
L 393.2928 292.681728 
L 393.64992 290.552832 
L 394.00704 291.61728 
L 394.72128 289.488384 
L 395.0784 296.93952 
L 395.43552 298.003968 
L 395.79264 295.875072 
L 396.14976 296.93952 
L 396.50688 299.068416 
L 396.864 294.810624 
L 397.57824 296.93952 
L 397.93536 295.875072 
L 398.29248 293.746176 
L 398.6496 294.810624 
L 399.00672 293.746176 
L 399.36384 298.003968 
L 399.72096 300.132864 
L 400.07808 303.326208 
L 400.4352 302.26176 
L 400.79232 305.455104 
L 401.14944 307.584 
L 404.0064 307.584 
L 404.36352 305.455104 
L 405.07776 307.584 
L 411.50592 307.584 
L 411.50592 307.584 
" style="fill:none;stroke:#ff7f0e;"/>
   </g>
   <g id="patch_3">
    <path d="M 57.6 307.584 
L 57.6 41.472 
" style="fill:none;stroke:#000000;stroke-linecap:square;stroke-linejoin:miter;stroke-width:0.8;"/>
   </g>
   <g id="patch_4">
    <path d="M 414.72 307.584 
L 414.72 41.472 
" style="fill:none;stroke:#000000;stroke-linecap:square;stroke-linejoin:miter;stroke-width:0.8;"/>
   </g>
   <g id="patch_5">
    <path d="M 57.6 307.584 
L 414.72 307.584 
" style="fill:none;stroke:#000000;stroke-linecap:square;stroke-linejoin:miter;stroke-width:0.8;"/>
   </g>
   <g id="patch_6">
    <path d="M 57.6 41.472 
L 414.72 41.472 
" style="fill:none;stroke:#000000;stroke-linecap:square;stroke-linejoin:miter;stroke-width:0.8;"/>
   </g>
   <g id="legend_1">
    <g id="patch_7">
     <path d="M 62.6 79.3845 
L 361.004688 79.3845 
L 361.004688 46.472 
L 62.6 46.472 
z
" style="fill:#ffffff;stroke:#000000;stroke-linejoin:miter;"/>
    </g>
    <g id="line2d_15">
     <path d="M 66.6 54.570438 
L 86.6 54.570438 
" style="fill:none;stroke:#1f77b4;"/>
    </g>
    <g id="line2d_16"/>
    <g id="text_15">
     <!-- cj_cas9/blast_refseq_5000/mafft/loophash (N=1721) -->
     <defs>
      <path d="M 48.78125 52.59375 
L 48.78125 44.1875 
Q 44.96875 46.296875 41.140625 47.34375 
Q 37.3125 48.390625 33.40625 48.390625 
Q 24.65625 48.390625 19.8125 42.84375 
Q 14.984375 37.3125 14.984375 27.296875 
Q 14.984375 17.28125 19.8125 11.734375 
Q 24.65625 6.203125 33.40625 6.203125 
Q 37.3125 6.203125 41.140625 7.25 
Q 44.96875 8.296875 48.78125 10.40625 
L 48.78125 2.09375 
Q 45.015625 0.34375 40.984375 -0.53125 
Q 36.96875 -1.421875 32.421875 -1.421875 
Q 20.0625 -1.421875 12.78125 6.34375 
Q 5.515625 14.109375 5.515625 27.296875 
Q 5.515625 40.671875 12.859375 48.328125 
Q 20.21875 56 33.015625 56 
Q 37.15625 56 41.109375 55.140625 
Q 45.0625 54.296875 48.78125 52.59375 
z
" id="DejaVuSans-99"/>
      <path d="M 9.421875 54.6875 
L 18.40625 54.6875 
L 18.40625 -0.984375 
Q 18.40625 -11.421875 14.421875 -16.109375 
Q 10.453125 -20.796875 1.609375 -20.796875 
L -1.8125 -20.796875 
L -1.8125 -13.1875 
L 0.59375 -13.1875 
Q 5.71875 -13.1875 7.5625 -10.8125 
Q 9.421875 -8.453125 9.421875 -0.984375 
z
M 9.421875 75.984375 
L 18.40625 75.984375 
L 18.40625 64.59375 
L 9.421875 64.59375 
z
" id="DejaVuSans-106"/>
      <path d="M 50.984375 -16.609375 
L 50.984375 -23.578125 
L -0.984375 -23.578125 
L -0.984375 -16.609375 
z
" id="DejaVuSans-95"/>
      <path d="M 34.28125 27.484375 
Q 23.390625 27.484375 19.1875 25 
Q 14.984375 22.515625 14.984375 16.5 
Q 14.984375 11.71875 18.140625 8.90625 
Q 21.296875 6.109375 26.703125 6.109375 
Q 34.1875 6.109375 38.703125 11.40625 
Q 43.21875 16.703125 43.21875 25.484375 
L 43.21875 27.484375 
z
M 52.203125 31.203125 
L 52.203125 0 
L 43.21875 0 
L 43.21875 8.296875 
Q 40.140625 3.328125 35.546875 0.953125 
Q 30.953125 -1.421875 24.3125 -1.421875 
Q 15.921875 -1.421875 10.953125 3.296875 
Q 6 8.015625 6 15.921875 
Q 6 25.140625 12.171875 29.828125 
Q 18.359375 34.515625 30.609375 34.515625 
L 43.21875 34.515625 
L 43.21875 35.40625 
Q 43.21875 41.609375 39.140625 45 
Q 35.0625 48.390625 27.6875 48.390625 
Q 23 48.390625 18.546875 47.265625 
Q 14.109375 46.140625 10.015625 43.890625 
L 10.015625 52.203125 
Q 14.9375 54.109375 19.578125 55.046875 
Q 24.21875 56 28.609375 56 
Q 40.484375 56 46.34375 49.84375 
Q 52.203125 43.703125 52.203125 31.203125 
z
" id="DejaVuSans-97"/>
      <path d="M 10.984375 1.515625 
L 10.984375 10.5 
Q 14.703125 8.734375 18.5 7.8125 
Q 22.3125 6.890625 25.984375 6.890625 
Q 35.75 6.890625 40.890625 13.453125 
Q 46.046875 20.015625 46.78125 33.40625 
Q 43.953125 29.203125 39.59375 26.953125 
Q 35.25 24.703125 29.984375 24.703125 
Q 19.046875 24.703125 12.671875 31.3125 
Q 6.296875 37.9375 6.296875 49.421875 
Q 6.296875 60.640625 12.9375 67.421875 
Q 19.578125 74.21875 30.609375 74.21875 
Q 43.265625 74.21875 49.921875 64.515625 
Q 56.59375 54.828125 56.59375 36.375 
Q 56.59375 19.140625 48.40625 8.859375 
Q 40.234375 -1.421875 26.421875 -1.421875 
Q 22.703125 -1.421875 18.890625 -0.6875 
Q 15.09375 0.046875 10.984375 1.515625 
z
M 30.609375 32.421875 
Q 37.25 32.421875 41.125 36.953125 
Q 45.015625 41.5 45.015625 49.421875 
Q 45.015625 57.28125 41.125 61.84375 
Q 37.25 66.40625 30.609375 66.40625 
Q 23.96875 66.40625 20.09375 61.84375 
Q 16.21875 57.28125 16.21875 49.421875 
Q 16.21875 41.5 20.09375 36.953125 
Q 23.96875 32.421875 30.609375 32.421875 
z
" id="DejaVuSans-57"/>
      <path d="M 25.390625 72.90625 
L 33.6875 72.90625 
L 8.296875 -9.28125 
L 0 -9.28125 
z
" id="DejaVuSans-47"/>
      <path d="M 48.6875 27.296875 
Q 48.6875 37.203125 44.609375 42.84375 
Q 40.53125 48.484375 33.40625 48.484375 
Q 26.265625 48.484375 22.1875 42.84375 
Q 18.109375 37.203125 18.109375 27.296875 
Q 18.109375 17.390625 22.1875 11.75 
Q 26.265625 6.109375 33.40625 6.109375 
Q 40.53125 6.109375 44.609375 11.75 
Q 48.6875 17.390625 48.6875 27.296875 
z
M 18.109375 46.390625 
Q 20.953125 51.265625 25.265625 53.625 
Q 29.59375 56 35.59375 56 
Q 45.5625 56 51.78125 48.09375 
Q 58.015625 40.1875 58.015625 27.296875 
Q 58.015625 14.40625 51.78125 6.484375 
Q 45.5625 -1.421875 35.59375 -1.421875 
Q 29.59375 -1.421875 25.265625 0.953125 
Q 20.953125 3.328125 18.109375 8.203125 
L 18.109375 0 
L 9.078125 0 
L 9.078125 75.984375 
L 18.109375 75.984375 
z
" id="DejaVuSans-98"/>
      <path d="M 37.109375 75.984375 
L 37.109375 68.5 
L 28.515625 68.5 
Q 23.6875 68.5 21.796875 66.546875 
Q 19.921875 64.59375 19.921875 59.515625 
L 19.921875 54.6875 
L 34.71875 54.6875 
L 34.71875 47.703125 
L 19.921875 47.703125 
L 19.921875 0 
L 10.890625 0 
L 10.890625 47.703125 
L 2.296875 47.703125 
L 2.296875 54.6875 
L 10.890625 54.6875 
L 10.890625 58.5 
Q 10.890625 67.625 15.140625 71.796875 
Q 19.390625 75.984375 28.609375 75.984375 
z
" id="DejaVuSans-102"/>
      <path d="M 14.796875 27.296875 
Q 14.796875 17.390625 18.875 11.75 
Q 22.953125 6.109375 30.078125 6.109375 
Q 37.203125 6.109375 41.296875 11.75 
Q 45.40625 17.390625 45.40625 27.296875 
Q 45.40625 37.203125 41.296875 42.84375 
Q 37.203125 48.484375 30.078125 48.484375 
Q 22.953125 48.484375 18.875 42.84375 
Q 14.796875 37.203125 14.796875 27.296875 
z
M 45.40625 8.203125 
Q 42.578125 3.328125 38.25 0.953125 
Q 33.9375 -1.421875 27.875 -1.421875 
Q 17.96875 -1.421875 11.734375 6.484375 
Q 5.515625 14.40625 5.515625 27.296875 
Q 5.515625 40.1875 11.734375 48.09375 
Q 17.96875 56 27.875 56 
Q 33.9375 56 38.25 53.625 
Q 42.578125 51.265625 45.40625 46.390625 
L 45.40625 54.6875 
L 54.390625 54.6875 
L 54.390625 -20.796875 
L 45.40625 -20.796875 
z
" id="DejaVuSans-113"/>
      <path d="M 52 44.1875 
Q 55.375 50.25 60.0625 53.125 
Q 64.75 56 71.09375 56 
Q 79.640625 56 84.28125 50.015625 
Q 88.921875 44.046875 88.921875 33.015625 
L 88.921875 0 
L 79.890625 0 
L 79.890625 32.71875 
Q 79.890625 40.578125 77.09375 44.375 
Q 74.3125 48.1875 68.609375 48.1875 
Q 61.625 48.1875 57.5625 43.546875 
Q 53.515625 38.921875 53.515625 30.90625 
L 53.515625 0 
L 44.484375 0 
L 44.484375 32.71875 
Q 44.484375 40.625 41.703125 44.40625 
Q 38.921875 48.1875 33.109375 48.1875 
Q 26.21875 48.1875 22.15625 43.53125 
Q 18.109375 38.875 18.109375 30.90625 
L 18.109375 0 
L 9.078125 0 
L 9.078125 54.6875 
L 18.109375 54.6875 
L 18.109375 46.1875 
Q 21.1875 51.21875 25.484375 53.609375 
Q 29.78125 56 35.6875 56 
Q 41.65625 56 45.828125 52.96875 
Q 50 49.953125 52 44.1875 
z
" id="DejaVuSans-109"/>
      <path d="M 18.109375 8.203125 
L 18.109375 -20.796875 
L 9.078125 -20.796875 
L 9.078125 54.6875 
L 18.109375 54.6875 
L 18.109375 46.390625 
Q 20.953125 51.265625 25.265625 53.625 
Q 29.59375 56 35.59375 56 
Q 45.5625 56 51.78125 48.09375 
Q 58.015625 40.1875 58.015625 27.296875 
Q 58.015625 14.40625 51.78125 6.484375 
Q 45.5625 -1.421875 35.59375 -1.421875 
Q 29.59375 -1.421875 25.265625 0.953125 
Q 20.953125 3.328125 18.109375 8.203125 
z
M 48.6875 27.296875 
Q 48.6875 37.203125 44.609375 42.84375 
Q 40.53125 48.484375 33.40625 48.484375 
Q 26.265625 48.484375 22.1875 42.84375 
Q 18.109375 37.203125 18.109375 27.296875 
Q 18.109375 17.390625 22.1875 11.75 
Q 26.265625 6.109375 33.40625 6.109375 
Q 40.53125 6.109375 44.609375 11.75 
Q 48.6875 17.390625 48.6875 27.296875 
z
" id="DejaVuSans-112"/>
      <path d="M 54.890625 33.015625 
L 54.890625 0 
L 45.90625 0 
L 45.90625 32.71875 
Q 45.90625 40.484375 42.875 44.328125 
Q 39.84375 48.1875 33.796875 48.1875 
Q 26.515625 48.1875 22.3125 43.546875 
Q 18.109375 38.921875 18.109375 30.90625 
L 18.109375 0 
L 9.078125 0 
L 9.078125 75.984375 
L 18.109375 75.984375 
L 18.109375 46.1875 
Q 21.34375 51.125 25.703125 53.5625 
Q 30.078125 56 35.796875 56 
Q 45.21875 56 50.046875 50.171875 
Q 54.890625 44.34375 54.890625 33.015625 
z
" id="DejaVuSans-104"/>
      <path d="M 31 75.875 
Q 24.46875 64.65625 21.28125 53.65625 
Q 18.109375 42.671875 18.109375 31.390625 
Q 18.109375 20.125 21.3125 9.0625 
Q 24.515625 -2 31 -13.1875 
L 23.1875 -13.1875 
Q 15.875 -1.703125 12.234375 9.375 
Q 8.59375 20.453125 8.59375 31.390625 
Q 8.59375 42.28125 12.203125 53.3125 
Q 15.828125 64.359375 23.1875 75.875 
z
" id="DejaVuSans-40"/>
      <path d="M 9.8125 72.90625 
L 23.09375 72.90625 
L 55.421875 11.921875 
L 55.421875 72.90625 
L 64.984375 72.90625 
L 64.984375 0 
L 51.703125 0 
L 19.390625 60.984375 
L 19.390625 0 
L 9.8125 0 
z
" id="DejaVuSans-78"/>
      <path d="M 10.59375 45.40625 
L 73.1875 45.40625 
L 73.1875 37.203125 
L 10.59375 37.203125 
z
M 10.59375 25.484375 
L 73.1875 25.484375 
L 73.1875 17.1875 
L 10.59375 17.1875 
z
" id="DejaVuSans-61"/>
      <path d="M 8.203125 72.90625 
L 55.078125 72.90625 
L 55.078125 68.703125 
L 28.609375 0 
L 18.3125 0 
L 43.21875 64.59375 
L 8.203125 64.59375 
z
" id="DejaVuSans-55"/>
      <path d="M 8.015625 75.875 
L 15.828125 75.875 
Q 23.140625 64.359375 26.78125 53.3125 
Q 30.421875 42.28125 30.421875 31.390625 
Q 30.421875 20.453125 26.78125 9.375 
Q 23.140625 -1.703125 15.828125 -13.1875 
L 8.015625 -13.1875 
Q 14.5 -2 17.703125 9.0625 
Q 20.90625 20.125 20.90625 31.390625 
Q 20.90625 42.671875 17.703125 53.65625 
Q 14.5 64.65625 8.015625 75.875 
z
" id="DejaVuSans-41"/>
     </defs>
     <g transform="translate(94.6 58.070438)scale(0.1 -0.1)">
      <use xlink:href="#DejaVuSans-99"/>
      <use x="54.980469" xlink:href="#DejaVuSans-106"/>
      <use x="82.763672" xlink:href="#DejaVuSans-95"/>
      <use x="132.763672" xlink:href="#DejaVuSans-99"/>
      <use x="187.744141" xlink:href="#DejaVuSans-97"/>
      <use x="249.023438" xlink:href="#DejaVuSans-115"/>
      <use x="301.123047" xlink:href="#DejaVuSans-57"/>
      <use x="364.746094" xlink:href="#DejaVuSans-47"/>
      <use x="398.4375" xlink:href="#DejaVuSans-98"/>
      <use x="461.914062" xlink:href="#DejaVuSans-108"/>
      <use x="489.697266" xlink:href="#DejaVuSans-97"/>
      <use x="550.976562" xlink:href="#DejaVuSans-115"/>
      <use x="603.076172" xlink:href="#DejaVuSans-116"/>
      <use x="642.285156" xlink:href="#DejaVuSans-95"/>
      <use x="692.285156" xlink:href="#DejaVuSans-114"/>
      <use x="733.367188" xlink:href="#DejaVuSans-101"/>
      <use x="794.890625" xlink:href="#DejaVuSans-102"/>
      <use x="830.095703" xlink:href="#DejaVuSans-115"/>
      <use x="882.195312" xlink:href="#DejaVuSans-101"/>
      <use x="943.71875" xlink:href="#DejaVuSans-113"/>
      <use x="1007.195312" xlink:href="#DejaVuSans-95"/>
      <use x="1057.195312" xlink:href="#DejaVuSans-53"/>
      <use x="1120.818359" xlink:href="#DejaVuSans-48"/>
      <use x="1184.441406" xlink:href="#DejaVuSans-48"/>
      <use x="1248.064453" xlink:href="#DejaVuSans-48"/>
      <use x="1311.6875" xlink:href="#DejaVuSans-47"/>
      <use x="1345.378906" xlink:href="#DejaVuSans-109"/>
      <use x="1442.791016" xlink:href="#DejaVuSans-97"/>
      <use x="1504.070312" xlink:href="#DejaVuSans-102"/>
      <use x="1539.275391" xlink:href="#DejaVuSans-102"/>
      <use x="1574.464844" xlink:href="#DejaVuSans-116"/>
      <use x="1613.673828" xlink:href="#DejaVuSans-47"/>
      <use x="1647.365234" xlink:href="#DejaVuSans-108"/>
      <use x="1675.148438" xlink:href="#DejaVuSans-111"/>
      <use x="1736.330078" xlink:href="#DejaVuSans-111"/>
      <use x="1797.511719" xlink:href="#DejaVuSans-112"/>
      <use x="1860.988281" xlink:href="#DejaVuSans-104"/>
      <use x="1924.367188" xlink:href="#DejaVuSans-97"/>
      <use x="1985.646484" xlink:href="#DejaVuSans-115"/>
      <use x="2037.746094" xlink:href="#DejaVuSans-104"/>
      <use x="2101.125" xlink:href="#DejaVuSans-32"/>
      <use x="2132.912109" xlink:href="#DejaVuSans-40"/>
      <use x="2171.925781" xlink:href="#DejaVuSans-78"/>
      <use x="2246.730469" xlink:href="#DejaVuSans-61"/>
      <use x="2330.519531" xlink:href="#DejaVuSans-49"/>
      <use x="2394.142578" xlink:href="#DejaVuSans-55"/>
      <use x="2457.765625" xlink:href="#DejaVuSans-50"/>
      <use x="2521.388672" xlink:href="#DejaVuSans-49"/>
      <use x="2585.011719" xlink:href="#DejaVuSans-41"/>
     </g>
    </g>
    <g id="line2d_17">
     <path d="M 66.6 69.526688 
L 86.6 69.526688 
" style="fill:none;stroke:#ff7f0e;"/>
    </g>
    <g id="line2d_18"/>
    <g id="text_16">
     <!-- cj_cas9/blast_refseq_5000/mafft/threshold (N=549) -->
     <g transform="translate(94.6 73.026688)scale(0.1 -0.1)">
      <use xlink:href="#DejaVuSans-99"/>
      <use x="54.980469" xlink:href="#DejaVuSans-106"/>
      <use x="82.763672" xlink:href="#DejaVuSans-95"/>
      <use x="132.763672" xlink:href="#DejaVuSans-99"/>
      <use x="187.744141" xlink:href="#DejaVuSans-97"/>
      <use x="249.023438" xlink:href="#DejaVuSans-115"/>
      <use x="301.123047" xlink:href="#DejaVuSans-57"/>
      <use x="364.746094" xlink:href="#DejaVuSans-47"/>
      <use x="398.4375" xlink:href="#DejaVuSans-98"/>
      <use x="461.914062" xlink:href="#DejaVuSans-108"/>
      <use x="489.697266" xlink:href="#DejaVuSans-97"/>
      <use x="550.976562" xlink:href="#DejaVuSans-115"/>
      <use x="603.076172" xlink:href="#DejaVuSans-116"/>
      <use x="642.285156" xlink:href="#DejaVuSans-95"/>
      <use x="692.285156" xlink:href="#DejaVuSans-114"/>
      <use x="733.367188" xlink:href="#DejaVuSans-101"/>
      <use x="794.890625" xlink:href="#DejaVuSans-102"/>
      <use x="830.095703" xlink:href="#DejaVuSans-115"/>
      <use x="882.195312" xlink:href="#DejaVuSans-101"/>
      <use x="943.71875" xlink:href="#DejaVuSans-113"/>
      <use x="1007.195312" xlink:href="#DejaVuSans-95"/>
      <use x="1057.195312" xlink:href="#DejaVuSans-53"/>
      <use x="1120.818359" xlink:href="#DejaVuSans-48"/>
      <use x="1184.441406" xlink:href="#DejaVuSans-48"/>
      <use x="1248.064453" xlink:href="#DejaVuSans-48"/>
      <use x="1311.6875" xlink:href="#DejaVuSans-47"/>
      <use x="1345.378906" xlink:href="#DejaVuSans-109"/>
      <use x="1442.791016" xlink:href="#DejaVuSans-97"/>
      <use x="1504.070312" xlink:href="#DejaVuSans-102"/>
      <use x="1539.275391" xlink:href="#DejaVuSans-102"/>
      <use x="1574.464844" xlink:href="#DejaVuSans-116"/>
      <use x="1613.673828" xlink:href="#DejaVuSans-47"/>
      <use x="1647.365234" xlink:href="#DejaVuSans-116"/>
      <use x="1686.574219" xlink:href="#DejaVuSans-104"/>
      <use x="1749.953125" xlink:href="#DejaVuSans-114"/>
      <use x="1791.035156" xlink:href="#DejaVuSans-101"/>
      <use x="1852.558594" xlink:href="#DejaVuSans-115"/>
      <use x="1904.658203" xlink:href="#DejaVuSans-104"/>
      <use x="1968.037109" xlink:href="#DejaVuSans-111"/>
      <use x="2029.21875" xlink:href="#DejaVuSans-108"/>
      <use x="2057.001953" xlink:href="#DejaVuSans-100"/>
      <use x="2120.478516" xlink:href="#DejaVuSans-32"/>
      <use x="2152.265625" xlink:href="#DejaVuSans-40"/>
      <use x="2191.279297" xlink:href="#DejaVuSans-78"/>
      <use x="2266.083984" xlink:href="#DejaVuSans-61"/>
      <use x="2349.873047" xlink:href="#DejaVuSans-53"/>
      <use x="2413.496094" xlink:href="#DejaVuSans-52"/>
      <use x="2477.119141" xlink:href="#DejaVuSans-57"/>
      <use x="2540.742188" xlink:href="#DejaVuSans-41"/>
     </g>
    </g>
   </g>
  </g>
 </g>
 <defs>
  <clipPath id="p5e1d9bb25a">
   <rect height="266.112" width="357.12" x="57.6" y="41.472"/>
  </clipPath>
 </defs>
</svg>
