<?xml version="1.0" encoding="utf-8" standalone="no"?>
<!DOCTYPE svg PUBLIC "-//W3C//DTD SVG 1.1//EN"
  "http://www.w3.org/Graphics/SVG/1.1/DTD/svg11.dtd">
<!-- Created with matplotlib (https://matplotlib.org/) -->
<svg height="345.6pt" version="1.1" viewBox="0 0 460.8 345.6" width="460.8pt" xmlns="http://www.w3.org/2000/svg" xmlns:xlink="http://www.w3.org/1999/xlink">
 <defs>
  <style type="text/css">
*{stroke-linecap:butt;stroke-linejoin:round;}
  </style>
 </defs>
 <g id="figure_1">
  <g id="patch_1">
   <path d="M 0 345.6 
L 460.8 345.6 
L 460.8 0 
L 0 0 
z
" style="fill:none;"/>
  </g>
  <g id="axes_1">
   <g id="patch_2">
    <path d="M 57.6 307.584 
L 414.72 307.584 
L 414.72 41.472 
L 57.6 41.472 
z
" style="fill:#ffffff;"/>
   </g>
   <g id="matplotlib.axis_1">
    <g id="xtick_1">
     <g id="line2d_1">
      <defs>
       <path d="M 0 0 
L 0 3.5 
" id="m98310c32b3" style="stroke:#000000;stroke-width:0.8;"/>
      </defs>
      <g>
       <use style="stroke:#000000;stroke-width:0.8;" x="57.6" xlink:href="#m98310c32b3" y="307.584"/>
      </g>
     </g>
     <g id="text_1">
      <!-- 0 -->
      <defs>
       <path d="M 31.78125 66.40625 
Q 24.171875 66.40625 20.328125 58.90625 
Q 16.5 51.421875 16.5 36.375 
Q 16.5 21.390625 20.328125 13.890625 
Q 24.171875 6.390625 31.78125 6.390625 
Q 39.453125 6.390625 43.28125 13.890625 
Q 47.125 21.390625 47.125 36.375 
Q 47.125 51.421875 43.28125 58.90625 
Q 39.453125 66.40625 31.78125 66.40625 
z
M 31.78125 74.21875 
Q 44.046875 74.21875 50.515625 64.515625 
Q 56.984375 54.828125 56.984375 36.375 
Q 56.984375 17.96875 50.515625 8.265625 
Q 44.046875 -1.421875 31.78125 -1.421875 
Q 19.53125 -1.421875 13.0625 8.265625 
Q 6.59375 17.96875 6.59375 36.375 
Q 6.59375 54.828125 13.0625 64.515625 
Q 19.53125 74.21875 31.78125 74.21875 
z
" id="DejaVuSans-48"/>
      </defs>
      <g transform="translate(54.41875 322.182437)scale(0.1 -0.1)">
       <use xlink:href="#DejaVuSans-48"/>
      </g>
     </g>
    </g>
    <g id="xtick_2">
     <g id="line2d_2">
      <g>
       <use style="stroke:#000000;stroke-width:0.8;" x="108.984173" xlink:href="#m98310c32b3" y="307.584"/>
      </g>
     </g>
     <g id="text_2">
      <!-- 200 -->
      <defs>
       <path d="M 19.1875 8.296875 
L 53.609375 8.296875 
L 53.609375 0 
L 7.328125 0 
L 7.328125 8.296875 
Q 12.9375 14.109375 22.625 23.890625 
Q 32.328125 33.6875 34.8125 36.53125 
Q 39.546875 41.84375 41.421875 45.53125 
Q 43.3125 49.21875 43.3125 52.78125 
Q 43.3125 58.59375 39.234375 62.25 
Q 35.15625 65.921875 28.609375 65.921875 
Q 23.96875 65.921875 18.8125 64.3125 
Q 13.671875 62.703125 7.8125 59.421875 
L 7.8125 69.390625 
Q 13.765625 71.78125 18.9375 73 
Q 24.125 74.21875 28.421875 74.21875 
Q 39.75 74.21875 46.484375 68.546875 
Q 53.21875 62.890625 53.21875 53.421875 
Q 53.21875 48.921875 51.53125 44.890625 
Q 49.859375 40.875 45.40625 35.40625 
Q 44.1875 33.984375 37.640625 27.21875 
Q 31.109375 20.453125 19.1875 8.296875 
z
" id="DejaVuSans-50"/>
      </defs>
      <g transform="translate(99.440423 322.182437)scale(0.1 -0.1)">
       <use xlink:href="#DejaVuSans-50"/>
       <use x="63.623047" xlink:href="#DejaVuSans-48"/>
       <use x="127.246094" xlink:href="#DejaVuSans-48"/>
      </g>
     </g>
    </g>
    <g id="xtick_3">
     <g id="line2d_3">
      <g>
       <use style="stroke:#000000;stroke-width:0.8;" x="160.368345" xlink:href="#m98310c32b3" y="307.584"/>
      </g>
     </g>
     <g id="text_3">
      <!-- 400 -->
      <defs>
       <path d="M 37.796875 64.3125 
L 12.890625 25.390625 
L 37.796875 25.390625 
z
M 35.203125 72.90625 
L 47.609375 72.90625 
L 47.609375 25.390625 
L 58.015625 25.390625 
L 58.015625 17.1875 
L 47.609375 17.1875 
L 47.609375 0 
L 37.796875 0 
L 37.796875 17.1875 
L 4.890625 17.1875 
L 4.890625 26.703125 
z
" id="DejaVuSans-52"/>
      </defs>
      <g transform="translate(150.824595 322.182437)scale(0.1 -0.1)">
       <use xlink:href="#DejaVuSans-52"/>
       <use x="63.623047" xlink:href="#DejaVuSans-48"/>
       <use x="127.246094" xlink:href="#DejaVuSans-48"/>
      </g>
     </g>
    </g>
    <g id="xtick_4">
     <g id="line2d_4">
      <g>
       <use style="stroke:#000000;stroke-width:0.8;" x="211.752518" xlink:href="#m98310c32b3" y="307.584"/>
      </g>
     </g>
     <g id="text_4">
      <!-- 600 -->
      <defs>
       <path d="M 33.015625 40.375 
Q 26.375 40.375 22.484375 35.828125 
Q 18.609375 31.296875 18.609375 23.390625 
Q 18.609375 15.53125 22.484375 10.953125 
Q 26.375 6.390625 33.015625 6.390625 
Q 39.65625 6.390625 43.53125 10.953125 
Q 47.40625 15.53125 47.40625 23.390625 
Q 47.40625 31.296875 43.53125 35.828125 
Q 39.65625 40.375 33.015625 40.375 
z
M 52.59375 71.296875 
L 52.59375 62.3125 
Q 48.875 64.0625 45.09375 64.984375 
Q 41.3125 65.921875 37.59375 65.921875 
Q 27.828125 65.921875 22.671875 59.328125 
Q 17.53125 52.734375 16.796875 39.40625 
Q 19.671875 43.65625 24.015625 45.921875 
Q 28.375 48.1875 33.59375 48.1875 
Q 44.578125 48.1875 50.953125 41.515625 
Q 57.328125 34.859375 57.328125 23.390625 
Q 57.328125 12.15625 50.6875 5.359375 
Q 44.046875 -1.421875 33.015625 -1.421875 
Q 20.359375 -1.421875 13.671875 8.265625 
Q 6.984375 17.96875 6.984375 36.375 
Q 6.984375 53.65625 15.1875 63.9375 
Q 23.390625 74.21875 37.203125 74.21875 
Q 40.921875 74.21875 44.703125 73.484375 
Q 48.484375 72.75 52.59375 71.296875 
z
" id="DejaVuSans-54"/>
      </defs>
      <g transform="translate(202.208768 322.182437)scale(0.1 -0.1)">
       <use xlink:href="#DejaVuSans-54"/>
       <use x="63.623047" xlink:href="#DejaVuSans-48"/>
       <use x="127.246094" xlink:href="#DejaVuSans-48"/>
      </g>
     </g>
    </g>
    <g id="xtick_5">
     <g id="line2d_5">
      <g>
       <use style="stroke:#000000;stroke-width:0.8;" x="263.136691" xlink:href="#m98310c32b3" y="307.584"/>
      </g>
     </g>
     <g id="text_5">
      <!-- 800 -->
      <defs>
       <path d="M 31.78125 34.625 
Q 24.75 34.625 20.71875 30.859375 
Q 16.703125 27.09375 16.703125 20.515625 
Q 16.703125 13.921875 20.71875 10.15625 
Q 24.75 6.390625 31.78125 6.390625 
Q 38.8125 6.390625 42.859375 10.171875 
Q 46.921875 13.96875 46.921875 20.515625 
Q 46.921875 27.09375 42.890625 30.859375 
Q 38.875 34.625 31.78125 34.625 
z
M 21.921875 38.8125 
Q 15.578125 40.375 12.03125 44.71875 
Q 8.5 49.078125 8.5 55.328125 
Q 8.5 64.0625 14.71875 69.140625 
Q 20.953125 74.21875 31.78125 74.21875 
Q 42.671875 74.21875 48.875 69.140625 
Q 55.078125 64.0625 55.078125 55.328125 
Q 55.078125 49.078125 51.53125 44.71875 
Q 48 40.375 41.703125 38.8125 
Q 48.828125 37.15625 52.796875 32.3125 
Q 56.78125 27.484375 56.78125 20.515625 
Q 56.78125 9.90625 50.3125 4.234375 
Q 43.84375 -1.421875 31.78125 -1.421875 
Q 19.734375 -1.421875 13.25 4.234375 
Q 6.78125 9.90625 6.78125 20.515625 
Q 6.78125 27.484375 10.78125 32.3125 
Q 14.796875 37.15625 21.921875 38.8125 
z
M 18.3125 54.390625 
Q 18.3125 48.734375 21.84375 45.5625 
Q 25.390625 42.390625 31.78125 42.390625 
Q 38.140625 42.390625 41.71875 45.5625 
Q 45.3125 48.734375 45.3125 54.390625 
Q 45.3125 60.0625 41.71875 63.234375 
Q 38.140625 66.40625 31.78125 66.40625 
Q 25.390625 66.40625 21.84375 63.234375 
Q 18.3125 60.0625 18.3125 54.390625 
z
" id="DejaVuSans-56"/>
      </defs>
      <g transform="translate(253.592941 322.182437)scale(0.1 -0.1)">
       <use xlink:href="#DejaVuSans-56"/>
       <use x="63.623047" xlink:href="#DejaVuSans-48"/>
       <use x="127.246094" xlink:href="#DejaVuSans-48"/>
      </g>
     </g>
    </g>
    <g id="xtick_6">
     <g id="line2d_6">
      <g>
       <use style="stroke:#000000;stroke-width:0.8;" x="314.520863" xlink:href="#m98310c32b3" y="307.584"/>
      </g>
     </g>
     <g id="text_6">
      <!-- 1000 -->
      <defs>
       <path d="M 12.40625 8.296875 
L 28.515625 8.296875 
L 28.515625 63.921875 
L 10.984375 60.40625 
L 10.984375 69.390625 
L 28.421875 72.90625 
L 38.28125 72.90625 
L 38.28125 8.296875 
L 54.390625 8.296875 
L 54.390625 0 
L 12.40625 0 
z
" id="DejaVuSans-49"/>
      </defs>
      <g transform="translate(301.795863 322.182437)scale(0.1 -0.1)">
       <use xlink:href="#DejaVuSans-49"/>
       <use x="63.623047" xlink:href="#DejaVuSans-48"/>
       <use x="127.246094" xlink:href="#DejaVuSans-48"/>
       <use x="190.869141" xlink:href="#DejaVuSans-48"/>
      </g>
     </g>
    </g>
    <g id="xtick_7">
     <g id="line2d_7">
      <g>
       <use style="stroke:#000000;stroke-width:0.8;" x="365.905036" xlink:href="#m98310c32b3" y="307.584"/>
      </g>
     </g>
     <g id="text_7">
      <!-- 1200 -->
      <g transform="translate(353.180036 322.182437)scale(0.1 -0.1)">
       <use xlink:href="#DejaVuSans-49"/>
       <use x="63.623047" xlink:href="#DejaVuSans-50"/>
       <use x="127.246094" xlink:href="#DejaVuSans-48"/>
       <use x="190.869141" xlink:href="#DejaVuSans-48"/>
      </g>
     </g>
    </g>
    <g id="text_8">
     <!-- aligned residue index -->
     <defs>
      <path d="M 34.28125 27.484375 
Q 23.390625 27.484375 19.1875 25 
Q 14.984375 22.515625 14.984375 16.5 
Q 14.984375 11.71875 18.140625 8.90625 
Q 21.296875 6.109375 26.703125 6.109375 
Q 34.1875 6.109375 38.703125 11.40625 
Q 43.21875 16.703125 43.21875 25.484375 
L 43.21875 27.484375 
z
M 52.203125 31.203125 
L 52.203125 0 
L 43.21875 0 
L 43.21875 8.296875 
Q 40.140625 3.328125 35.546875 0.953125 
Q 30.953125 -1.421875 24.3125 -1.421875 
Q 15.921875 -1.421875 10.953125 3.296875 
Q 6 8.015625 6 15.921875 
Q 6 25.140625 12.171875 29.828125 
Q 18.359375 34.515625 30.609375 34.515625 
L 43.21875 34.515625 
L 43.21875 35.40625 
Q 43.21875 41.609375 39.140625 45 
Q 35.0625 48.390625 27.6875 48.390625 
Q 23 48.390625 18.546875 47.265625 
Q 14.109375 46.140625 10.015625 43.890625 
L 10.015625 52.203125 
Q 14.9375 54.109375 19.578125 55.046875 
Q 24.21875 56 28.609375 56 
Q 40.484375 56 46.34375 49.84375 
Q 52.203125 43.703125 52.203125 31.203125 
z
" id="DejaVuSans-97"/>
      <path d="M 9.421875 75.984375 
L 18.40625 75.984375 
L 18.40625 0 
L 9.421875 0 
z
" id="DejaVuSans-108"/>
      <path d="M 9.421875 54.6875 
L 18.40625 54.6875 
L 18.40625 0 
L 9.421875 0 
z
M 9.421875 75.984375 
L 18.40625 75.984375 
L 18.40625 64.59375 
L 9.421875 64.59375 
z
" id="DejaVuSans-105"/>
      <path d="M 45.40625 27.984375 
Q 45.40625 37.75 41.375 43.109375 
Q 37.359375 48.484375 30.078125 48.484375 
Q 22.859375 48.484375 18.828125 43.109375 
Q 14.796875 37.75 14.796875 27.984375 
Q 14.796875 18.265625 18.828125 12.890625 
Q 22.859375 7.515625 30.078125 7.515625 
Q 37.359375 7.515625 41.375 12.890625 
Q 45.40625 18.265625 45.40625 27.984375 
z
M 54.390625 6.78125 
Q 54.390625 -7.171875 48.1875 -13.984375 
Q 42 -20.796875 29.203125 -20.796875 
Q 24.46875 -20.796875 20.265625 -20.09375 
Q 16.0625 -19.390625 12.109375 -17.921875 
L 12.109375 -9.1875 
Q 16.0625 -11.328125 19.921875 -12.34375 
Q 23.78125 -13.375 27.78125 -13.375 
Q 36.625 -13.375 41.015625 -8.765625 
Q 45.40625 -4.15625 45.40625 5.171875 
L 45.40625 9.625 
Q 42.625 4.78125 38.28125 2.390625 
Q 33.9375 0 27.875 0 
Q 17.828125 0 11.671875 7.65625 
Q 5.515625 15.328125 5.515625 27.984375 
Q 5.515625 40.671875 11.671875 48.328125 
Q 17.828125 56 27.875 56 
Q 33.9375 56 38.28125 53.609375 
Q 42.625 51.21875 45.40625 46.390625 
L 45.40625 54.6875 
L 54.390625 54.6875 
z
" id="DejaVuSans-103"/>
      <path d="M 54.890625 33.015625 
L 54.890625 0 
L 45.90625 0 
L 45.90625 32.71875 
Q 45.90625 40.484375 42.875 44.328125 
Q 39.84375 48.1875 33.796875 48.1875 
Q 26.515625 48.1875 22.3125 43.546875 
Q 18.109375 38.921875 18.109375 30.90625 
L 18.109375 0 
L 9.078125 0 
L 9.078125 54.6875 
L 18.109375 54.6875 
L 18.109375 46.1875 
Q 21.34375 51.125 25.703125 53.5625 
Q 30.078125 56 35.796875 56 
Q 45.21875 56 50.046875 50.171875 
Q 54.890625 44.34375 54.890625 33.015625 
z
" id="DejaVuSans-110"/>
      <path d="M 56.203125 29.59375 
L 56.203125 25.203125 
L 14.890625 25.203125 
Q 15.484375 15.921875 20.484375 11.0625 
Q 25.484375 6.203125 34.421875 6.203125 
Q 39.59375 6.203125 44.453125 7.46875 
Q 49.3125 8.734375 54.109375 11.28125 
L 54.109375 2.78125 
Q 49.265625 0.734375 44.1875 -0.34375 
Q 39.109375 -1.421875 33.890625 -1.421875 
Q 20.796875 -1.421875 13.15625 6.1875 
Q 5.515625 13.8125 5.515625 26.8125 
Q 5.515625 40.234375 12.765625 48.109375 
Q 20.015625 56 32.328125 56 
Q 43.359375 56 49.78125 48.890625 
Q 56.203125 41.796875 56.203125 29.59375 
z
M 47.21875 32.234375 
Q 47.125 39.59375 43.09375 43.984375 
Q 39.0625 48.390625 32.421875 48.390625 
Q 24.90625 48.390625 20.390625 44.140625 
Q 15.875 39.890625 15.1875 32.171875 
z
" id="DejaVuSans-101"/>
      <path d="M 45.40625 46.390625 
L 45.40625 75.984375 
L 54.390625 75.984375 
L 54.390625 0 
L 45.40625 0 
L 45.40625 8.203125 
Q 42.578125 3.328125 38.25 0.953125 
Q 33.9375 -1.421875 27.875 -1.421875 
Q 17.96875 -1.421875 11.734375 6.484375 
Q 5.515625 14.40625 5.515625 27.296875 
Q 5.515625 40.1875 11.734375 48.09375 
Q 17.96875 56 27.875 56 
Q 33.9375 56 38.25 53.625 
Q 42.578125 51.265625 45.40625 46.390625 
z
M 14.796875 27.296875 
Q 14.796875 17.390625 18.875 11.75 
Q 22.953125 6.109375 30.078125 6.109375 
Q 37.203125 6.109375 41.296875 11.75 
Q 45.40625 17.390625 45.40625 27.296875 
Q 45.40625 37.203125 41.296875 42.84375 
Q 37.203125 48.484375 30.078125 48.484375 
Q 22.953125 48.484375 18.875 42.84375 
Q 14.796875 37.203125 14.796875 27.296875 
z
" id="DejaVuSans-100"/>
      <path id="DejaVuSans-32"/>
      <path d="M 41.109375 46.296875 
Q 39.59375 47.171875 37.8125 47.578125 
Q 36.03125 48 33.890625 48 
Q 26.265625 48 22.1875 43.046875 
Q 18.109375 38.09375 18.109375 28.8125 
L 18.109375 0 
L 9.078125 0 
L 9.078125 54.6875 
L 18.109375 54.6875 
L 18.109375 46.1875 
Q 20.953125 51.171875 25.484375 53.578125 
Q 30.03125 56 36.53125 56 
Q 37.453125 56 38.578125 55.875 
Q 39.703125 55.765625 41.0625 55.515625 
z
" id="DejaVuSans-114"/>
      <path d="M 44.28125 53.078125 
L 44.28125 44.578125 
Q 40.484375 46.53125 36.375 47.5 
Q 32.28125 48.484375 27.875 48.484375 
Q 21.1875 48.484375 17.84375 46.4375 
Q 14.5 44.390625 14.5 40.28125 
Q 14.5 37.15625 16.890625 35.375 
Q 19.28125 33.59375 26.515625 31.984375 
L 29.59375 31.296875 
Q 39.15625 29.25 43.1875 25.515625 
Q 47.21875 21.78125 47.21875 15.09375 
Q 47.21875 7.46875 41.1875 3.015625 
Q 35.15625 -1.421875 24.609375 -1.421875 
Q 20.21875 -1.421875 15.453125 -0.5625 
Q 10.6875 0.296875 5.421875 2 
L 5.421875 11.28125 
Q 10.40625 8.6875 15.234375 7.390625 
Q 20.0625 6.109375 24.8125 6.109375 
Q 31.15625 6.109375 34.5625 8.28125 
Q 37.984375 10.453125 37.984375 14.40625 
Q 37.984375 18.0625 35.515625 20.015625 
Q 33.0625 21.96875 24.703125 23.78125 
L 21.578125 24.515625 
Q 13.234375 26.265625 9.515625 29.90625 
Q 5.8125 33.546875 5.8125 39.890625 
Q 5.8125 47.609375 11.28125 51.796875 
Q 16.75 56 26.8125 56 
Q 31.78125 56 36.171875 55.265625 
Q 40.578125 54.546875 44.28125 53.078125 
z
" id="DejaVuSans-115"/>
      <path d="M 8.5 21.578125 
L 8.5 54.6875 
L 17.484375 54.6875 
L 17.484375 21.921875 
Q 17.484375 14.15625 20.5 10.265625 
Q 23.53125 6.390625 29.59375 6.390625 
Q 36.859375 6.390625 41.078125 11.03125 
Q 45.3125 15.671875 45.3125 23.6875 
L 45.3125 54.6875 
L 54.296875 54.6875 
L 54.296875 0 
L 45.3125 0 
L 45.3125 8.40625 
Q 42.046875 3.421875 37.71875 1 
Q 33.40625 -1.421875 27.6875 -1.421875 
Q 18.265625 -1.421875 13.375 4.4375 
Q 8.5 10.296875 8.5 21.578125 
z
M 31.109375 56 
z
" id="DejaVuSans-117"/>
      <path d="M 54.890625 54.6875 
L 35.109375 28.078125 
L 55.90625 0 
L 45.3125 0 
L 29.390625 21.484375 
L 13.484375 0 
L 2.875 0 
L 24.125 28.609375 
L 4.6875 54.6875 
L 15.28125 54.6875 
L 29.78125 35.203125 
L 44.28125 54.6875 
z
" id="DejaVuSans-120"/>
     </defs>
     <g transform="translate(182.235 335.860562)scale(0.1 -0.1)">
      <use xlink:href="#DejaVuSans-97"/>
      <use x="61.279297" xlink:href="#DejaVuSans-108"/>
      <use x="89.0625" xlink:href="#DejaVuSans-105"/>
      <use x="116.845703" xlink:href="#DejaVuSans-103"/>
      <use x="180.322266" xlink:href="#DejaVuSans-110"/>
      <use x="243.701172" xlink:href="#DejaVuSans-101"/>
      <use x="305.224609" xlink:href="#DejaVuSans-100"/>
      <use x="368.701172" xlink:href="#DejaVuSans-32"/>
      <use x="400.488281" xlink:href="#DejaVuSans-114"/>
      <use x="441.570312" xlink:href="#DejaVuSans-101"/>
      <use x="503.09375" xlink:href="#DejaVuSans-115"/>
      <use x="555.193359" xlink:href="#DejaVuSans-105"/>
      <use x="582.976562" xlink:href="#DejaVuSans-100"/>
      <use x="646.453125" xlink:href="#DejaVuSans-117"/>
      <use x="709.832031" xlink:href="#DejaVuSans-101"/>
      <use x="771.355469" xlink:href="#DejaVuSans-32"/>
      <use x="803.142578" xlink:href="#DejaVuSans-105"/>
      <use x="830.925781" xlink:href="#DejaVuSans-110"/>
      <use x="894.304688" xlink:href="#DejaVuSans-100"/>
      <use x="957.78125" xlink:href="#DejaVuSans-101"/>
      <use x="1019.289062" xlink:href="#DejaVuSans-120"/>
     </g>
    </g>
   </g>
   <g id="matplotlib.axis_2">
    <g id="ytick_1">
     <g id="line2d_8">
      <defs>
       <path d="M 0 0 
L -3.5 0 
" id="m6388d7ea7c" style="stroke:#000000;stroke-width:0.8;"/>
      </defs>
      <g>
       <use style="stroke:#000000;stroke-width:0.8;" x="57.6" xlink:href="#m6388d7ea7c" y="307.584"/>
      </g>
     </g>
     <g id="text_9">
      <!-- 0 -->
      <g transform="translate(44.2375 311.383219)scale(0.1 -0.1)">
       <use xlink:href="#DejaVuSans-48"/>
      </g>
     </g>
    </g>
    <g id="ytick_2">
     <g id="line2d_9">
      <g>
       <use style="stroke:#000000;stroke-width:0.8;" x="57.6" xlink:href="#m6388d7ea7c" y="263.232"/>
      </g>
     </g>
     <g id="text_10">
      <!-- 5 -->
      <defs>
       <path d="M 10.796875 72.90625 
L 49.515625 72.90625 
L 49.515625 64.59375 
L 19.828125 64.59375 
L 19.828125 46.734375 
Q 21.96875 47.46875 24.109375 47.828125 
Q 26.265625 48.1875 28.421875 48.1875 
Q 40.625 48.1875 47.75 41.5 
Q 54.890625 34.8125 54.890625 23.390625 
Q 54.890625 11.625 47.5625 5.09375 
Q 40.234375 -1.421875 26.90625 -1.421875 
Q 22.3125 -1.421875 17.546875 -0.640625 
Q 12.796875 0.140625 7.71875 1.703125 
L 7.71875 11.625 
Q 12.109375 9.234375 16.796875 8.0625 
Q 21.484375 6.890625 26.703125 6.890625 
Q 35.15625 6.890625 40.078125 11.328125 
Q 45.015625 15.765625 45.015625 23.390625 
Q 45.015625 31 40.078125 35.4375 
Q 35.15625 39.890625 26.703125 39.890625 
Q 22.75 39.890625 18.8125 39.015625 
Q 14.890625 38.140625 10.796875 36.28125 
z
" id="DejaVuSans-53"/>
      </defs>
      <g transform="translate(44.2375 267.031219)scale(0.1 -0.1)">
       <use xlink:href="#DejaVuSans-53"/>
      </g>
     </g>
    </g>
    <g id="ytick_3">
     <g id="line2d_10">
      <g>
       <use style="stroke:#000000;stroke-width:0.8;" x="57.6" xlink:href="#m6388d7ea7c" y="218.88"/>
      </g>
     </g>
     <g id="text_11">
      <!-- 10 -->
      <g transform="translate(37.875 222.679219)scale(0.1 -0.1)">
       <use xlink:href="#DejaVuSans-49"/>
       <use x="63.623047" xlink:href="#DejaVuSans-48"/>
      </g>
     </g>
    </g>
    <g id="ytick_4">
     <g id="line2d_11">
      <g>
       <use style="stroke:#000000;stroke-width:0.8;" x="57.6" xlink:href="#m6388d7ea7c" y="174.528"/>
      </g>
     </g>
     <g id="text_12">
      <!-- 15 -->
      <g transform="translate(37.875 178.327219)scale(0.1 -0.1)">
       <use xlink:href="#DejaVuSans-49"/>
       <use x="63.623047" xlink:href="#DejaVuSans-53"/>
      </g>
     </g>
    </g>
    <g id="ytick_5">
     <g id="line2d_12">
      <g>
       <use style="stroke:#000000;stroke-width:0.8;" x="57.6" xlink:href="#m6388d7ea7c" y="130.176"/>
      </g>
     </g>
     <g id="text_13">
      <!-- 20 -->
      <g transform="translate(37.875 133.975219)scale(0.1 -0.1)">
       <use xlink:href="#DejaVuSans-50"/>
       <use x="63.623047" xlink:href="#DejaVuSans-48"/>
      </g>
     </g>
    </g>
    <g id="ytick_6">
     <g id="line2d_13">
      <g>
       <use style="stroke:#000000;stroke-width:0.8;" x="57.6" xlink:href="#m6388d7ea7c" y="85.824"/>
      </g>
     </g>
     <g id="text_14">
      <!-- 25 -->
      <g transform="translate(37.875 89.623219)scale(0.1 -0.1)">
       <use xlink:href="#DejaVuSans-50"/>
       <use x="63.623047" xlink:href="#DejaVuSans-53"/>
      </g>
     </g>
    </g>
    <g id="ytick_7">
     <g id="line2d_14">
      <g>
       <use style="stroke:#000000;stroke-width:0.8;" x="57.6" xlink:href="#m6388d7ea7c" y="41.472"/>
      </g>
     </g>
     <g id="text_15">
      <!-- 30 -->
      <defs>
       <path d="M 40.578125 39.3125 
Q 47.65625 37.796875 51.625 33 
Q 55.609375 28.21875 55.609375 21.1875 
Q 55.609375 10.40625 48.1875 4.484375 
Q 40.765625 -1.421875 27.09375 -1.421875 
Q 22.515625 -1.421875 17.65625 -0.515625 
Q 12.796875 0.390625 7.625 2.203125 
L 7.625 11.71875 
Q 11.71875 9.328125 16.59375 8.109375 
Q 21.484375 6.890625 26.8125 6.890625 
Q 36.078125 6.890625 40.9375 10.546875 
Q 45.796875 14.203125 45.796875 21.1875 
Q 45.796875 27.640625 41.28125 31.265625 
Q 36.765625 34.90625 28.71875 34.90625 
L 20.21875 34.90625 
L 20.21875 43.015625 
L 29.109375 43.015625 
Q 36.375 43.015625 40.234375 45.921875 
Q 44.09375 48.828125 44.09375 54.296875 
Q 44.09375 59.90625 40.109375 62.90625 
Q 36.140625 65.921875 28.71875 65.921875 
Q 24.65625 65.921875 20.015625 65.03125 
Q 15.375 64.15625 9.8125 62.3125 
L 9.8125 71.09375 
Q 15.4375 72.65625 20.34375 73.4375 
Q 25.25 74.21875 29.59375 74.21875 
Q 40.828125 74.21875 47.359375 69.109375 
Q 53.90625 64.015625 53.90625 55.328125 
Q 53.90625 49.265625 50.4375 45.09375 
Q 46.96875 40.921875 40.578125 39.3125 
z
" id="DejaVuSans-51"/>
      </defs>
      <g transform="translate(37.875 45.271219)scale(0.1 -0.1)">
       <use xlink:href="#DejaVuSans-51"/>
       <use x="63.623047" xlink:href="#DejaVuSans-48"/>
      </g>
     </g>
    </g>
    <g id="text_16">
     <!-- deletions -->
     <defs>
      <path d="M 18.3125 70.21875 
L 18.3125 54.6875 
L 36.8125 54.6875 
L 36.8125 47.703125 
L 18.3125 47.703125 
L 18.3125 18.015625 
Q 18.3125 11.328125 20.140625 9.421875 
Q 21.96875 7.515625 27.59375 7.515625 
L 36.8125 7.515625 
L 36.8125 0 
L 27.59375 0 
Q 17.1875 0 13.234375 3.875 
Q 9.28125 7.765625 9.28125 18.015625 
L 9.28125 47.703125 
L 2.6875 47.703125 
L 2.6875 54.6875 
L 9.28125 54.6875 
L 9.28125 70.21875 
z
" id="DejaVuSans-116"/>
      <path d="M 30.609375 48.390625 
Q 23.390625 48.390625 19.1875 42.75 
Q 14.984375 37.109375 14.984375 27.296875 
Q 14.984375 17.484375 19.15625 11.84375 
Q 23.34375 6.203125 30.609375 6.203125 
Q 37.796875 6.203125 41.984375 11.859375 
Q 46.1875 17.53125 46.1875 27.296875 
Q 46.1875 37.015625 41.984375 42.703125 
Q 37.796875 48.390625 30.609375 48.390625 
z
M 30.609375 56 
Q 42.328125 56 49.015625 48.375 
Q 55.71875 40.765625 55.71875 27.296875 
Q 55.71875 13.875 49.015625 6.21875 
Q 42.328125 -1.421875 30.609375 -1.421875 
Q 18.84375 -1.421875 12.171875 6.21875 
Q 5.515625 13.875 5.515625 27.296875 
Q 5.515625 40.765625 12.171875 48.375 
Q 18.84375 56 30.609375 56 
z
" id="DejaVuSans-111"/>
     </defs>
     <g transform="translate(31.795312 197.426437)rotate(-90)scale(0.1 -0.1)">
      <use xlink:href="#DejaVuSans-100"/>
      <use x="63.476562" xlink:href="#DejaVuSans-101"/>
      <use x="125" xlink:href="#DejaVuSans-108"/>
      <use x="152.783203" xlink:href="#DejaVuSans-101"/>
      <use x="214.306641" xlink:href="#DejaVuSans-116"/>
      <use x="253.515625" xlink:href="#DejaVuSans-105"/>
      <use x="281.298828" xlink:href="#DejaVuSans-111"/>
      <use x="342.480469" xlink:href="#DejaVuSans-110"/>
      <use x="405.859375" xlink:href="#DejaVuSans-115"/>
     </g>
    </g>
   </g>
   <g id="line2d_15">
    <path clip-path="url(#pfe4789ec95)" d="M 57.6 307.584 
L 57.856921 307.584 
L 58.113842 289.8432 
L 58.627683 307.584 
L 58.884604 298.7136 
L 59.141525 307.584 
L 64.793784 307.584 
L 65.050705 298.7136 
L 65.307626 280.9728 
L 65.821468 263.232 
L 66.078388 227.7504 
L 67.106072 227.7504 
L 67.362993 218.88 
L 67.619914 236.6208 
L 67.876835 218.88 
L 68.904518 254.3616 
L 69.161439 289.8432 
L 69.675281 289.8432 
L 69.932201 307.584 
L 85.347453 307.584 
L 85.604374 298.7136 
L 85.861295 245.4912 
L 86.118216 236.6208 
L 86.375137 254.3616 
L 86.632058 245.4912 
L 86.888978 263.232 
L 87.659741 289.8432 
L 87.916662 307.584 
L 88.687424 307.584 
L 89.201266 289.8432 
L 89.458187 307.584 
L 94.339683 307.584 
L 94.596604 298.7136 
L 94.853525 280.9728 
L 95.110446 289.8432 
L 95.367367 307.584 
L 102.818072 307.584 
L 103.074993 298.7136 
L 103.331914 307.584 
L 106.158043 307.584 
L 106.414964 280.9728 
L 107.185727 254.3616 
L 107.442647 254.3616 
L 107.699568 201.1392 
L 107.956489 192.2688 
L 108.21341 210.0096 
L 108.470331 201.1392 
L 108.727252 218.88 
L 109.241094 236.6208 
L 109.498014 218.88 
L 109.754935 227.7504 
L 110.011856 201.1392 
L 110.268777 210.0096 
L 110.525698 201.1392 
L 110.782619 218.88 
L 111.03954 245.4912 
L 111.29646 289.8432 
L 113.094906 289.8432 
L 113.351827 298.7136 
L 114.12259 298.7136 
L 114.379511 307.584 
L 114.893353 307.584 
L 115.150273 298.7136 
L 115.407194 298.7136 
L 115.664115 245.4912 
L 116.177957 245.4912 
L 117.20564 210.0096 
L 117.462561 254.3616 
L 117.719482 263.232 
L 117.976403 263.232 
L 118.233324 272.1024 
L 118.490245 272.1024 
L 118.747165 263.232 
L 119.004086 280.9728 
L 119.261007 289.8432 
L 119.517928 307.584 
L 123.371741 307.584 
L 123.628662 254.3616 
L 123.885583 245.4912 
L 124.142504 263.232 
L 124.399424 272.1024 
L 124.656345 254.3616 
L 124.913266 263.232 
L 125.170187 280.9728 
L 125.94095 307.584 
L 129.794763 307.584 
L 130.308604 289.8432 
L 130.565525 307.584 
L 132.363971 307.584 
L 132.620892 298.7136 
L 135.960863 298.7136 
L 136.217784 289.8432 
L 136.474705 254.3616 
L 136.731626 245.4912 
L 136.988547 263.232 
L 137.245468 245.4912 
L 138.01623 218.88 
L 138.273151 254.3616 
L 138.530072 272.1024 
L 138.786993 280.9728 
L 139.043914 307.584 
L 144.953094 307.584 
L 145.210014 245.4912 
L 145.466935 236.6208 
L 145.723856 218.88 
L 145.980777 227.7504 
L 146.237698 254.3616 
L 146.75154 236.6208 
L 147.00846 263.232 
L 147.265381 236.6208 
L 147.522302 245.4912 
L 147.779223 245.4912 
L 148.036144 236.6208 
L 148.293065 254.3616 
L 149.063827 254.3616 
L 149.320748 245.4912 
L 149.577669 272.1024 
L 149.83459 280.9728 
L 150.091511 280.9728 
L 150.348432 289.8432 
L 150.605353 289.8432 
L 150.862273 298.7136 
L 151.119194 272.1024 
L 151.633036 254.3616 
L 151.889957 280.9728 
L 152.146878 272.1024 
L 152.403799 289.8432 
L 153.174561 289.8432 
L 153.431482 298.7136 
L 155.229928 298.7136 
L 155.486849 254.3616 
L 156.771453 298.7136 
L 157.799137 298.7136 
L 158.056058 307.584 
L 169.360576 307.584 
L 170.131338 280.9728 
L 170.388259 307.584 
L 174.755914 307.584 
L 175.012835 272.1024 
L 175.269755 280.9728 
L 175.783597 263.232 
L 176.040518 289.8432 
L 176.297439 280.9728 
L 176.55436 298.7136 
L 176.811281 307.584 
L 189.657324 307.584 
L 189.914245 298.7136 
L 194.024978 298.7136 
L 194.281899 272.1024 
L 194.795741 254.3616 
L 195.052662 254.3616 
L 195.309583 227.7504 
L 195.566504 227.7504 
L 196.080345 245.4912 
L 196.337266 245.4912 
L 196.594187 272.1024 
L 196.851108 272.1024 
L 197.108029 245.4912 
L 197.36495 254.3616 
L 197.621871 254.3616 
L 197.878791 263.232 
L 198.135712 280.9728 
L 199.677237 280.9728 
L 199.934158 289.8432 
L 200.704921 289.8432 
L 200.961842 307.584 
L 201.218763 298.7136 
L 203.274129 298.7136 
L 203.53105 289.8432 
L 203.787971 289.8432 
L 204.301813 272.1024 
L 204.815655 272.1024 
L 205.072576 254.3616 
L 205.329496 263.232 
L 205.843338 227.7504 
L 206.100259 218.88 
L 206.35718 236.6208 
L 206.614101 218.88 
L 206.871022 227.7504 
L 207.127942 254.3616 
L 207.384863 236.6208 
L 207.641784 245.4912 
L 207.898705 298.7136 
L 208.412547 298.7136 
L 209.44023 263.232 
L 209.697151 307.584 
L 211.238676 307.584 
L 211.495597 298.7136 
L 212.26636 298.7136 
L 212.523281 272.1024 
L 212.780201 272.1024 
L 213.294043 254.3616 
L 213.550964 210.0096 
L 213.807885 218.88 
L 214.064806 210.0096 
L 214.321727 227.7504 
L 214.578647 218.88 
L 214.835568 236.6208 
L 215.092489 245.4912 
L 215.34941 280.9728 
L 216.634014 280.9728 
L 216.890935 289.8432 
L 217.147856 307.584 
L 222.029353 307.584 
L 222.286273 280.9728 
L 222.543194 272.1024 
L 222.800115 272.1024 
L 223.313957 254.3616 
L 223.570878 236.6208 
L 223.827799 245.4912 
L 224.084719 289.8432 
L 224.855482 289.8432 
L 225.112403 298.7136 
L 225.369324 280.9728 
L 227.424691 280.9728 
L 227.681612 272.1024 
L 228.452374 272.1024 
L 228.709295 254.3616 
L 230.25082 254.3616 
L 230.507741 245.4912 
L 231.278504 174.528 
L 231.535424 183.3984 
L 231.792345 201.1392 
L 232.049266 210.0096 
L 232.306187 227.7504 
L 232.563108 227.7504 
L 232.820029 236.6208 
L 233.07695 263.232 
L 234.361554 263.232 
L 234.618475 218.88 
L 234.875396 227.7504 
L 235.132317 218.88 
L 235.389237 201.1392 
L 235.646158 210.0096 
L 235.903079 201.1392 
L 236.16 236.6208 
L 236.416921 245.4912 
L 236.930763 254.3616 
L 237.187683 263.232 
L 237.444604 263.232 
L 237.701525 289.8432 
L 237.958446 289.8432 
L 238.215367 307.584 
L 238.472288 298.7136 
L 238.729209 298.7136 
L 238.986129 289.8432 
L 239.24305 298.7136 
L 239.499971 272.1024 
L 240.784576 280.9728 
L 241.041496 289.8432 
L 241.298417 289.8432 
L 241.555338 307.584 
L 242.326101 307.584 
L 242.839942 289.8432 
L 243.353784 245.4912 
L 243.867626 227.7504 
L 244.124547 254.3616 
L 244.381468 245.4912 
L 244.638388 272.1024 
L 244.895309 245.4912 
L 245.15223 254.3616 
L 245.409151 254.3616 
L 245.666072 263.232 
L 245.922993 280.9728 
L 246.179914 307.584 
L 251.832173 307.584 
L 252.089094 298.7136 
L 253.373698 298.7136 
L 253.630619 263.232 
L 254.401381 289.8432 
L 256.456748 289.8432 
L 256.713669 272.1024 
L 256.97059 245.4912 
L 259.025957 236.6208 
L 259.282878 236.6208 
L 259.539799 227.7504 
L 259.796719 210.0096 
L 260.05364 201.1392 
L 260.310561 218.88 
L 260.824403 201.1392 
L 261.081324 254.3616 
L 261.338245 263.232 
L 261.595165 280.9728 
L 263.393612 280.9728 
L 263.650532 254.3616 
L 263.907453 254.3616 
L 264.164374 236.6208 
L 264.421295 236.6208 
L 264.678216 192.2688 
L 265.192058 174.528 
L 265.448978 156.7872 
L 265.705899 165.6576 
L 266.219741 130.176 
L 266.476662 139.0464 
L 266.733583 156.7872 
L 266.990504 201.1392 
L 267.247424 183.3984 
L 267.504345 192.2688 
L 267.761266 210.0096 
L 268.018187 210.0096 
L 268.275108 218.88 
L 268.532029 210.0096 
L 269.045871 245.4912 
L 269.559712 245.4912 
L 269.816633 263.232 
L 270.073554 272.1024 
L 270.844317 272.1024 
L 271.101237 280.9728 
L 272.385842 280.9728 
L 272.642763 307.584 
L 275.982734 307.584 
L 276.239655 298.7136 
L 276.496576 307.584 
L 284.718043 307.584 
L 284.974964 272.1024 
L 285.231885 272.1024 
L 285.488806 254.3616 
L 286.77341 254.3616 
L 287.030331 218.88 
L 287.544173 236.6208 
L 287.801094 218.88 
L 288.058014 227.7504 
L 288.828777 280.9728 
L 289.085698 289.8432 
L 289.342619 289.8432 
L 289.59954 298.7136 
L 289.85646 298.7136 
L 290.370302 307.584 
L 294.224115 307.584 
L 294.481036 272.1024 
L 294.994878 272.1024 
L 295.251799 245.4912 
L 295.508719 236.6208 
L 295.76564 254.3616 
L 296.022561 263.232 
L 296.279482 280.9728 
L 296.536403 272.1024 
L 296.793324 272.1024 
L 297.050245 254.3616 
L 297.307165 263.232 
L 297.564086 289.8432 
L 299.619453 289.8432 
L 299.876374 298.7136 
L 301.67482 298.7136 
L 301.931741 289.8432 
L 306.556317 289.8432 
L 306.813237 192.2688 
L 307.070158 183.3984 
L 307.327079 201.1392 
L 307.840921 218.88 
L 308.097842 210.0096 
L 308.354763 183.3984 
L 308.611683 174.528 
L 308.868604 192.2688 
L 309.382446 174.528 
L 309.896288 227.7504 
L 310.153209 236.6208 
L 310.410129 236.6208 
L 310.923971 254.3616 
L 311.951655 254.3616 
L 312.208576 263.232 
L 313.236259 263.232 
L 313.750101 280.9728 
L 314.007022 307.584 
L 314.263942 298.7136 
L 314.520863 280.9728 
L 315.034705 280.9728 
L 315.291626 272.1024 
L 320.943885 272.1024 
L 321.200806 254.3616 
L 321.457727 245.4912 
L 321.971568 245.4912 
L 322.48541 227.7504 
L 322.742331 210.0096 
L 322.999252 210.0096 
L 323.256173 201.1392 
L 323.513094 174.528 
L 324.026935 192.2688 
L 324.283856 192.2688 
L 324.540777 183.3984 
L 324.797698 156.7872 
L 325.31154 174.528 
L 325.56846 165.6576 
L 325.825381 218.88 
L 326.082302 201.1392 
L 326.339223 192.2688 
L 326.596144 156.7872 
L 326.853065 165.6576 
L 327.366906 147.9168 
L 327.623827 130.176 
L 327.880748 103.5648 
L 328.137669 112.4352 
L 328.39459 94.6944 
L 328.651511 85.824 
L 329.422273 139.0464 
L 329.679194 174.528 
L 329.936115 183.3984 
L 330.449957 147.9168 
L 330.963799 130.176 
L 331.220719 156.7872 
L 331.734561 174.528 
L 331.991482 156.7872 
L 333.533007 147.9168 
L 333.789928 165.6576 
L 334.30377 263.232 
L 334.560691 227.7504 
L 335.331453 254.3616 
L 335.588374 165.6576 
L 336.102216 183.3984 
L 336.359137 156.7872 
L 336.616058 165.6576 
L 337.38682 139.0464 
L 337.643741 174.528 
L 337.900662 156.7872 
L 338.157583 147.9168 
L 338.414504 147.9168 
L 338.928345 130.176 
L 339.185266 165.6576 
L 339.442187 130.176 
L 340.21295 156.7872 
L 340.469871 139.0464 
L 340.726791 147.9168 
L 340.983712 139.0464 
L 341.240633 192.2688 
L 341.497554 183.3984 
L 341.754475 201.1392 
L 343.039079 245.4912 
L 343.296 210.0096 
L 344.066763 236.6208 
L 344.323683 236.6208 
L 346.37905 245.4912 
L 347.663655 245.4912 
L 347.920576 289.8432 
L 348.177496 307.584 
L 352.28823 307.584 
L 353.829755 254.3616 
L 354.086676 254.3616 
L 354.343597 218.88 
L 354.857439 201.1392 
L 355.11436 227.7504 
L 355.371281 236.6208 
L 355.628201 227.7504 
L 355.885122 210.0096 
L 356.142043 218.88 
L 356.398964 245.4912 
L 356.655885 307.584 
L 357.169727 307.584 
L 357.426647 289.8432 
L 357.940489 272.1024 
L 358.19741 298.7136 
L 358.454331 307.584 
L 362.051223 307.584 
L 362.308144 289.8432 
L 362.565065 245.4912 
L 362.821986 227.7504 
L 363.078906 218.88 
L 363.592748 165.6576 
L 364.10659 183.3984 
L 364.363511 201.1392 
L 364.620432 210.0096 
L 364.877353 236.6208 
L 365.134273 218.88 
L 365.391194 192.2688 
L 365.648115 201.1392 
L 366.675799 165.6576 
L 366.932719 210.0096 
L 367.18964 227.7504 
L 367.446561 254.3616 
L 367.960403 272.1024 
L 368.474245 272.1024 
L 368.731165 245.4912 
L 368.988086 245.4912 
L 369.245007 218.88 
L 369.501928 210.0096 
L 371.300374 210.0096 
L 371.814216 192.2688 
L 372.071137 192.2688 
L 372.584978 174.528 
L 372.841899 156.7872 
L 373.09882 165.6576 
L 373.869583 139.0464 
L 374.126504 103.5648 
L 374.383424 112.4352 
L 374.640345 94.6944 
L 374.897266 103.5648 
L 375.154187 121.3056 
L 375.411108 130.176 
L 375.92495 112.4352 
L 376.181871 94.6944 
L 376.438791 103.5648 
L 376.695712 227.7504 
L 376.952633 236.6208 
L 377.209554 254.3616 
L 378.237237 254.3616 
L 378.494158 263.232 
L 379.008 298.7136 
L 379.521842 263.232 
L 379.778763 254.3616 
L 380.035683 236.6208 
L 380.292604 245.4912 
L 380.549525 272.1024 
L 380.806446 263.232 
L 381.063367 289.8432 
L 381.320288 298.7136 
L 381.577209 298.7136 
L 381.834129 307.584 
L 382.09105 289.8432 
L 382.347971 263.232 
L 382.861813 245.4912 
L 383.118734 245.4912 
L 383.375655 227.7504 
L 383.889496 245.4912 
L 384.403338 245.4912 
L 384.660259 236.6208 
L 385.431022 236.6208 
L 385.687942 218.88 
L 385.944863 210.0096 
L 386.458705 210.0096 
L 386.715626 201.1392 
L 387.486388 201.1392 
L 388.00023 156.7872 
L 388.257151 139.0464 
L 389.027914 112.4352 
L 389.284835 94.6944 
L 389.541755 103.5648 
L 389.798676 85.824 
L 390.055597 76.9536 
L 390.312518 94.6944 
L 390.569439 147.9168 
L 391.083281 130.176 
L 391.597122 94.6944 
L 391.854043 103.5648 
L 392.110964 85.824 
L 392.881727 59.2128 
L 393.652489 165.6576 
L 393.90941 183.3984 
L 394.166331 192.2688 
L 394.680173 192.2688 
L 395.194014 272.1024 
L 395.964777 272.1024 
L 396.221698 280.9728 
L 396.478619 263.232 
L 396.73554 263.232 
L 397.249381 245.4912 
L 397.763223 245.4912 
L 398.277065 201.1392 
L 398.533986 210.0096 
L 398.790906 227.7504 
L 399.047827 218.88 
L 399.304748 201.1392 
L 399.81859 183.3984 
L 400.589353 272.1024 
L 400.846273 272.1024 
L 401.103194 298.7136 
L 401.360115 289.8432 
L 401.873957 289.8432 
L 402.130878 263.232 
L 402.387799 272.1024 
L 402.644719 245.4912 
L 402.90164 245.4912 
L 403.158561 218.88 
L 404.186245 183.3984 
L 404.443165 227.7504 
L 404.700086 236.6208 
L 404.957007 254.3616 
L 405.213928 254.3616 
L 405.470849 263.232 
L 405.72777 263.232 
L 405.984691 280.9728 
L 406.241612 307.584 
L 407.012374 307.584 
L 407.269295 298.7136 
L 407.526216 298.7136 
L 407.783137 236.6208 
L 408.296978 254.3616 
L 408.553899 245.4912 
L 408.81082 245.4912 
L 409.067741 263.232 
L 409.324662 254.3616 
L 409.581583 263.232 
L 409.838504 263.232 
L 410.095424 254.3616 
L 410.352345 254.3616 
L 410.609266 245.4912 
L 410.866187 272.1024 
L 411.123108 263.232 
L 411.380029 236.6208 
L 411.63695 245.4912 
L 411.893871 236.6208 
L 412.150791 254.3616 
L 412.407712 236.6208 
L 412.664633 245.4912 
L 412.921554 280.9728 
L 413.178475 263.232 
L 413.435396 236.6208 
L 413.949237 218.88 
L 414.206158 245.4912 
L 414.72 227.7504 
L 414.976921 254.3616 
L 414.976921 254.3616 
" style="fill:none;stroke:#1f77b4;"/>
   </g>
   <g id="line2d_16">
    <path clip-path="url(#pfe4789ec95)" d="M 57.6 298.7136 
L 57.856921 272.1024 
L 58.113842 280.9728 
L 58.884604 289.8432 
L 59.141525 307.584 
L 62.738417 307.584 
L 62.995338 280.9728 
L 63.252259 289.8432 
L 63.50918 280.9728 
L 65.307626 298.7136 
L 65.564547 307.584 
L 67.362993 307.584 
L 67.619914 254.3616 
L 67.876835 236.6208 
L 68.133755 227.7504 
L 68.390676 210.0096 
L 68.647597 218.88 
L 69.161439 201.1392 
L 69.41836 245.4912 
L 69.675281 236.6208 
L 69.932201 263.232 
L 70.189122 272.1024 
L 70.446043 254.3616 
L 70.702964 263.232 
L 72.50141 280.9728 
L 72.758331 289.8432 
L 74.042935 289.8432 
L 74.299856 298.7136 
L 74.556777 289.8432 
L 74.813698 289.8432 
L 76.098302 245.4912 
L 78.667511 245.4912 
L 78.924432 227.7504 
L 79.181353 227.7504 
L 79.695194 210.0096 
L 80.209036 210.0096 
L 80.465957 201.1392 
L 80.979799 192.2688 
L 81.236719 183.3984 
L 81.49364 165.6576 
L 82.007482 147.9168 
L 82.264403 103.5648 
L 82.521324 94.6944 
L 82.778245 112.4352 
L 83.035165 103.5648 
L 83.292086 121.3056 
L 83.549007 130.176 
L 84.062849 112.4352 
L 84.31977 139.0464 
L 89.458187 112.4352 
L 89.972029 130.176 
L 90.22895 121.3056 
L 90.485871 103.5648 
L 90.742791 94.6944 
L 90.999712 68.0832 
L 91.513554 85.824 
L 91.770475 112.4352 
L 92.284317 236.6208 
L 92.541237 236.6208 
L 92.798158 307.584 
L 93.055079 298.7136 
L 93.312 272.1024 
L 94.082763 272.1024 
L 94.339683 263.232 
L 94.596604 280.9728 
L 94.853525 289.8432 
L 95.110446 307.584 
L 100.505784 307.584 
L 100.762705 272.1024 
L 101.019626 272.1024 
L 101.276547 263.232 
L 101.533468 245.4912 
L 103.331914 236.6208 
L 103.845755 218.88 
L 104.616518 272.1024 
L 110.782619 272.1024 
L 111.03954 236.6208 
L 111.553381 254.3616 
L 111.810302 236.6208 
L 112.067223 245.4912 
L 112.324144 263.232 
L 112.581065 272.1024 
L 114.636432 272.1024 
L 114.893353 263.232 
L 115.150273 245.4912 
L 115.407194 254.3616 
L 116.177957 272.1024 
L 117.20564 272.1024 
L 132.10705 254.3616 
L 142.383885 254.3616 
L 146.494619 245.4912 
L 146.75154 192.2688 
L 147.00846 174.528 
L 147.265381 183.3984 
L 152.146878 201.1392 
L 152.403799 210.0096 
L 152.660719 192.2688 
L 152.91764 201.1392 
L 153.174561 218.88 
L 153.688403 236.6208 
L 154.973007 227.7504 
L 155.229928 263.232 
L 155.486849 245.4912 
L 155.74377 254.3616 
L 156.000691 210.0096 
L 156.514532 227.7504 
L 156.771453 227.7504 
L 157.028374 218.88 
L 157.285295 236.6208 
L 157.542216 245.4912 
L 158.056058 280.9728 
L 158.312978 280.9728 
L 158.569899 289.8432 
L 158.82682 289.8432 
L 159.083741 298.7136 
L 164.992921 298.7136 
L 165.249842 307.584 
L 168.075971 307.584 
L 168.332892 298.7136 
L 168.589813 280.9728 
L 168.846734 289.8432 
L 169.103655 289.8432 
L 169.360576 307.584 
L 169.617496 307.584 
L 169.874417 298.7136 
L 170.131338 307.584 
L 172.957468 307.584 
L 173.214388 263.232 
L 174.242072 298.7136 
L 175.269755 298.7136 
L 175.526676 307.584 
L 176.297439 307.584 
L 176.55436 298.7136 
L 186.831194 263.232 
L 187.601957 289.8432 
L 187.858878 289.8432 
L 188.115799 307.584 
L 191.969612 307.584 
L 192.483453 289.8432 
L 192.740374 307.584 
L 192.997295 307.584 
L 193.254216 298.7136 
L 193.511137 272.1024 
L 194.024978 254.3616 
L 194.281899 218.88 
L 194.53882 227.7504 
L 194.795741 201.1392 
L 195.309583 192.2688 
L 195.566504 183.3984 
L 195.823424 210.0096 
L 196.080345 218.88 
L 197.36495 210.0096 
L 197.878791 192.2688 
L 198.135712 236.6208 
L 198.392633 245.4912 
L 198.649554 280.9728 
L 199.677237 280.9728 
L 199.934158 289.8432 
L 201.732604 289.8432 
L 201.989525 280.9728 
L 202.246446 289.8432 
L 202.760288 289.8432 
L 203.017209 280.9728 
L 203.274129 289.8432 
L 203.53105 289.8432 
L 203.787971 307.584 
L 204.044892 272.1024 
L 205.329496 272.1024 
L 205.843338 254.3616 
L 206.100259 218.88 
L 206.614101 236.6208 
L 206.871022 227.7504 
L 207.127942 210.0096 
L 207.384863 201.1392 
L 207.641784 218.88 
L 207.898705 201.1392 
L 208.412547 183.3984 
L 208.669468 210.0096 
L 208.926388 201.1392 
L 209.183309 183.3984 
L 209.44023 192.2688 
L 209.697151 183.3984 
L 209.954072 245.4912 
L 210.981755 210.0096 
L 211.238676 280.9728 
L 211.752518 280.9728 
L 212.009439 289.8432 
L 212.523281 289.8432 
L 212.780201 254.3616 
L 213.037122 254.3616 
L 213.294043 245.4912 
L 213.807885 210.0096 
L 214.064806 218.88 
L 214.321727 210.0096 
L 214.578647 236.6208 
L 216.120173 227.7504 
L 216.377094 263.232 
L 216.634014 272.1024 
L 216.890935 272.1024 
L 217.147856 263.232 
L 217.918619 289.8432 
L 218.946302 289.8432 
L 219.460144 254.3616 
L 219.717065 263.232 
L 219.973986 280.9728 
L 220.230906 272.1024 
L 220.487827 245.4912 
L 221.001669 263.232 
L 222.286273 263.232 
L 222.543194 254.3616 
L 223.057036 218.88 
L 223.313957 227.7504 
L 224.084719 245.4912 
L 224.598561 245.4912 
L 225.112403 227.7504 
L 226.140086 227.7504 
L 226.653928 174.528 
L 227.16777 192.2688 
L 227.424691 174.528 
L 227.681612 183.3984 
L 227.938532 210.0096 
L 228.195453 218.88 
L 228.452374 298.7136 
L 228.709295 307.584 
L 229.993899 307.584 
L 230.25082 298.7136 
L 232.563108 298.7136 
L 232.820029 280.9728 
L 233.333871 263.232 
L 233.590791 227.7504 
L 234.104633 245.4912 
L 235.389237 245.4912 
L 235.646158 218.88 
L 236.16 236.6208 
L 236.416921 227.7504 
L 237.958446 227.7504 
L 238.215367 210.0096 
L 238.472288 183.3984 
L 238.986129 201.1392 
L 239.499971 183.3984 
L 239.756892 218.88 
L 240.013813 183.3984 
L 240.270734 192.2688 
L 240.784576 156.7872 
L 241.041496 147.9168 
L 241.298417 165.6576 
L 241.555338 156.7872 
L 241.812259 139.0464 
L 242.06918 130.176 
L 242.326101 147.9168 
L 242.583022 183.3984 
L 242.839942 201.1392 
L 243.096863 192.2688 
L 243.353784 210.0096 
L 243.610705 254.3616 
L 247.721439 289.8432 
L 247.97836 307.584 
L 252.602935 307.584 
L 252.859856 289.8432 
L 253.373698 307.584 
L 256.97059 307.584 
L 257.227511 289.8432 
L 257.741353 307.584 
L 259.539799 307.584 
L 260.05364 289.8432 
L 260.567482 289.8432 
L 261.338245 263.232 
L 261.595165 272.1024 
L 263.136691 272.1024 
L 263.393612 263.232 
L 263.650532 272.1024 
L 264.421295 272.1024 
L 264.678216 245.4912 
L 264.935137 254.3616 
L 265.192058 227.7504 
L 265.448978 218.88 
L 265.705899 192.2688 
L 266.219741 210.0096 
L 266.476662 236.6208 
L 266.990504 201.1392 
L 267.247424 210.0096 
L 267.761266 245.4912 
L 270.073554 263.232 
L 270.330475 307.584 
L 275.468892 307.584 
L 275.725813 289.8432 
L 275.982734 280.9728 
L 276.239655 263.232 
L 276.496576 272.1024 
L 276.753496 254.3616 
L 277.010417 245.4912 
L 277.267338 263.232 
L 277.524259 298.7136 
L 277.78118 307.584 
L 284.718043 307.584 
L 284.974964 298.7136 
L 285.231885 307.584 
L 287.030331 307.584 
L 287.287252 289.8432 
L 287.544173 280.9728 
L 287.801094 263.232 
L 288.058014 272.1024 
L 288.314935 263.232 
L 288.571856 245.4912 
L 288.828777 254.3616 
L 289.085698 245.4912 
L 289.342619 298.7136 
L 289.85646 298.7136 
L 290.113381 307.584 
L 290.627223 307.584 
L 290.884144 280.9728 
L 291.141065 272.1024 
L 291.397986 289.8432 
L 291.911827 307.584 
L 294.481036 307.584 
L 294.737957 272.1024 
L 296.022561 254.3616 
L 296.279482 245.4912 
L 296.536403 263.232 
L 296.793324 236.6208 
L 297.050245 227.7504 
L 297.307165 245.4912 
L 297.564086 236.6208 
L 297.821007 254.3616 
L 298.077928 280.9728 
L 298.334849 289.8432 
L 298.59177 289.8432 
L 299.105612 307.584 
L 301.67482 307.584 
L 301.931741 298.7136 
L 302.188662 298.7136 
L 302.959424 272.1024 
L 303.216345 272.1024 
L 303.473266 254.3616 
L 303.730187 245.4912 
L 304.244029 245.4912 
L 304.50095 210.0096 
L 304.757871 192.2688 
L 305.014791 201.1392 
L 305.271712 192.2688 
L 305.528633 174.528 
L 305.785554 183.3984 
L 306.042475 218.88 
L 306.299396 210.0096 
L 306.556317 227.7504 
L 306.813237 174.528 
L 307.070158 156.7872 
L 307.327079 165.6576 
L 307.584 147.9168 
L 307.840921 139.0464 
L 308.097842 156.7872 
L 308.354763 183.3984 
L 308.611683 174.528 
L 308.868604 192.2688 
L 309.382446 201.1392 
L 309.896288 218.88 
L 310.153209 236.6208 
L 310.410129 263.232 
L 310.66705 307.584 
L 314.263942 307.584 
L 314.520863 263.232 
L 315.034705 280.9728 
L 315.291626 263.232 
L 315.548547 272.1024 
L 315.805468 289.8432 
L 316.062388 298.7136 
L 316.319309 298.7136 
L 316.57623 307.584 
L 319.40236 307.584 
L 319.916201 289.8432 
L 320.686964 289.8432 
L 321.200806 272.1024 
L 321.457727 272.1024 
L 321.714647 254.3616 
L 321.971568 263.232 
L 322.228489 263.232 
L 322.48541 272.1024 
L 322.742331 263.232 
L 322.999252 245.4912 
L 323.513094 227.7504 
L 323.770014 227.7504 
L 324.026935 201.1392 
L 324.540777 201.1392 
L 325.054619 183.3984 
L 325.31154 130.176 
L 325.825381 147.9168 
L 326.082302 139.0464 
L 326.339223 156.7872 
L 328.137669 165.6576 
L 328.39459 174.528 
L 329.165353 147.9168 
L 329.422273 210.0096 
L 329.679194 156.7872 
L 329.936115 147.9168 
L 330.193036 165.6576 
L 331.220719 201.1392 
L 331.47764 192.2688 
L 331.734561 218.88 
L 331.991482 201.1392 
L 332.248403 192.2688 
L 332.505324 210.0096 
L 332.762245 254.3616 
L 333.789928 254.3616 
L 334.046849 245.4912 
L 334.30377 307.584 
L 334.817612 236.6208 
L 335.074532 218.88 
L 335.331453 210.0096 
L 335.588374 227.7504 
L 336.359137 254.3616 
L 336.616058 272.1024 
L 337.129899 272.1024 
L 337.38682 280.9728 
L 337.643741 280.9728 
L 337.900662 263.232 
L 338.157583 254.3616 
L 338.671424 254.3616 
L 338.928345 245.4912 
L 339.185266 272.1024 
L 339.442187 254.3616 
L 340.726791 263.232 
L 340.983712 289.8432 
L 341.497554 307.584 
L 341.754475 280.9728 
L 342.011396 272.1024 
L 342.268317 272.1024 
L 342.525237 263.232 
L 342.782158 263.232 
L 343.039079 210.0096 
L 343.296 201.1392 
L 343.552921 183.3984 
L 343.809842 192.2688 
L 344.066763 218.88 
L 344.580604 236.6208 
L 345.094446 218.88 
L 345.351367 192.2688 
L 345.608288 147.9168 
L 345.865209 156.7872 
L 346.635971 130.176 
L 346.892892 165.6576 
L 347.406734 183.3984 
L 348.177496 156.7872 
L 348.434417 201.1392 
L 348.948259 139.0464 
L 349.20518 147.9168 
L 349.462101 139.0464 
L 349.719022 156.7872 
L 350.746705 121.3056 
L 351.003626 174.528 
L 351.517468 192.2688 
L 351.774388 210.0096 
L 352.031309 192.2688 
L 352.28823 201.1392 
L 352.545151 245.4912 
L 353.058993 245.4912 
L 353.315914 254.3616 
L 353.572835 289.8432 
L 353.829755 298.7136 
L 354.086676 298.7136 
L 354.343597 263.232 
L 354.600518 245.4912 
L 354.857439 254.3616 
L 355.11436 272.1024 
L 355.371281 280.9728 
L 355.628201 272.1024 
L 355.885122 289.8432 
L 356.142043 298.7136 
L 356.655885 298.7136 
L 359.995856 307.584 
L 360.252777 272.1024 
L 360.766619 254.3616 
L 361.02354 280.9728 
L 361.28046 289.8432 
L 362.051223 210.0096 
L 362.308144 218.88 
L 362.565065 201.1392 
L 362.821986 210.0096 
L 363.078906 227.7504 
L 363.335827 236.6208 
L 363.592748 201.1392 
L 363.849669 192.2688 
L 364.10659 210.0096 
L 364.363511 201.1392 
L 364.620432 218.88 
L 364.877353 210.0096 
L 365.134273 227.7504 
L 365.391194 201.1392 
L 365.648115 156.7872 
L 366.161957 165.6576 
L 366.418878 156.7872 
L 366.675799 174.528 
L 367.18964 192.2688 
L 367.446561 183.3984 
L 367.703482 210.0096 
L 368.731165 201.1392 
L 368.988086 218.88 
L 369.245007 210.0096 
L 369.501928 254.3616 
L 369.758849 236.6208 
L 370.01577 245.4912 
L 370.272691 272.1024 
L 370.529612 280.9728 
L 370.786532 280.9728 
L 371.043453 272.1024 
L 371.300374 280.9728 
L 371.557295 280.9728 
L 371.814216 263.232 
L 372.071137 272.1024 
L 372.328058 298.7136 
L 372.584978 307.584 
L 372.841899 298.7136 
L 373.09882 280.9728 
L 373.355741 245.4912 
L 373.612662 254.3616 
L 374.383424 227.7504 
L 374.640345 210.0096 
L 375.154187 192.2688 
L 375.411108 218.88 
L 377.980317 201.1392 
L 378.237237 210.0096 
L 378.494158 263.232 
L 378.751079 201.1392 
L 379.264921 218.88 
L 379.521842 201.1392 
L 385.174101 210.0096 
L 385.944863 183.3984 
L 386.201784 227.7504 
L 386.458705 236.6208 
L 386.715626 236.6208 
L 386.972547 245.4912 
L 392.881727 236.6208 
L 393.138647 218.88 
L 393.395568 227.7504 
L 393.652489 201.1392 
L 394.166331 218.88 
L 395.450935 254.3616 
L 395.707856 201.1392 
L 395.964777 210.0096 
L 396.221698 201.1392 
L 396.73554 165.6576 
L 397.506302 139.0464 
L 398.020144 130.176 
L 398.277065 112.4352 
L 398.533986 121.3056 
L 399.047827 103.5648 
L 399.304748 174.528 
L 399.561669 192.2688 
L 399.81859 183.3984 
L 400.075511 165.6576 
L 400.332432 174.528 
L 400.846273 156.7872 
L 401.103194 218.88 
L 401.360115 227.7504 
L 401.617036 210.0096 
L 401.873957 218.88 
L 403.929324 236.6208 
L 404.186245 201.1392 
L 404.700086 218.88 
L 404.957007 210.0096 
L 405.213928 192.2688 
L 405.470849 201.1392 
L 405.72777 192.2688 
L 405.984691 227.7504 
L 406.241612 245.4912 
L 406.498532 272.1024 
L 406.755453 263.232 
L 407.269295 307.584 
L 409.324662 307.584 
L 409.581583 289.8432 
L 410.095424 307.584 
L 414.72 307.584 
L 414.72 307.584 
" style="fill:none;stroke:#ff7f0e;"/>
   </g>
   <g id="patch_3">
    <path d="M 57.6 307.584 
L 57.6 41.472 
" style="fill:none;stroke:#000000;stroke-linecap:square;stroke-linejoin:miter;stroke-width:0.8;"/>
   </g>
   <g id="patch_4">
    <path d="M 414.72 307.584 
L 414.72 41.472 
" style="fill:none;stroke:#000000;stroke-linecap:square;stroke-linejoin:miter;stroke-width:0.8;"/>
   </g>
   <g id="patch_5">
    <path d="M 57.6 307.584 
L 414.72 307.584 
" style="fill:none;stroke:#000000;stroke-linecap:square;stroke-linejoin:miter;stroke-width:0.8;"/>
   </g>
   <g id="patch_6">
    <path d="M 57.6 41.472 
L 414.72 41.472 
" style="fill:none;stroke:#000000;stroke-linecap:square;stroke-linejoin:miter;stroke-width:0.8;"/>
   </g>
   <g id="legend_1">
    <g id="patch_7">
     <path d="M 62.6 79.3845 
L 390.307812 79.3845 
L 390.307812 46.472 
L 62.6 46.472 
z
" style="fill:#ffffff;stroke:#000000;stroke-linejoin:miter;"/>
    </g>
    <g id="line2d_17">
     <path d="M 66.6 54.570438 
L 86.6 54.570438 
" style="fill:none;stroke:#1f77b4;"/>
    </g>
    <g id="line2d_18"/>
    <g id="text_17">
     <!-- sp_cas9/blast_refseq_5000/mafft_2000/threshold (N=555) -->
     <defs>
      <path d="M 18.109375 8.203125 
L 18.109375 -20.796875 
L 9.078125 -20.796875 
L 9.078125 54.6875 
L 18.109375 54.6875 
L 18.109375 46.390625 
Q 20.953125 51.265625 25.265625 53.625 
Q 29.59375 56 35.59375 56 
Q 45.5625 56 51.78125 48.09375 
Q 58.015625 40.1875 58.015625 27.296875 
Q 58.015625 14.40625 51.78125 6.484375 
Q 45.5625 -1.421875 35.59375 -1.421875 
Q 29.59375 -1.421875 25.265625 0.953125 
Q 20.953125 3.328125 18.109375 8.203125 
z
M 48.6875 27.296875 
Q 48.6875 37.203125 44.609375 42.84375 
Q 40.53125 48.484375 33.40625 48.484375 
Q 26.265625 48.484375 22.1875 42.84375 
Q 18.109375 37.203125 18.109375 27.296875 
Q 18.109375 17.390625 22.1875 11.75 
Q 26.265625 6.109375 33.40625 6.109375 
Q 40.53125 6.109375 44.609375 11.75 
Q 48.6875 17.390625 48.6875 27.296875 
z
" id="DejaVuSans-112"/>
      <path d="M 50.984375 -16.609375 
L 50.984375 -23.578125 
L -0.984375 -23.578125 
L -0.984375 -16.609375 
z
" id="DejaVuSans-95"/>
      <path d="M 48.78125 52.59375 
L 48.78125 44.1875 
Q 44.96875 46.296875 41.140625 47.34375 
Q 37.3125 48.390625 33.40625 48.390625 
Q 24.65625 48.390625 19.8125 42.84375 
Q 14.984375 37.3125 14.984375 27.296875 
Q 14.984375 17.28125 19.8125 11.734375 
Q 24.65625 6.203125 33.40625 6.203125 
Q 37.3125 6.203125 41.140625 7.25 
Q 44.96875 8.296875 48.78125 10.40625 
L 48.78125 2.09375 
Q 45.015625 0.34375 40.984375 -0.53125 
Q 36.96875 -1.421875 32.421875 -1.421875 
Q 20.0625 -1.421875 12.78125 6.34375 
Q 5.515625 14.109375 5.515625 27.296875 
Q 5.515625 40.671875 12.859375 48.328125 
Q 20.21875 56 33.015625 56 
Q 37.15625 56 41.109375 55.140625 
Q 45.0625 54.296875 48.78125 52.59375 
z
" id="DejaVuSans-99"/>
      <path d="M 10.984375 1.515625 
L 10.984375 10.5 
Q 14.703125 8.734375 18.5 7.8125 
Q 22.3125 6.890625 25.984375 6.890625 
Q 35.75 6.890625 40.890625 13.453125 
Q 46.046875 20.015625 46.78125 33.40625 
Q 43.953125 29.203125 39.59375 26.953125 
Q 35.25 24.703125 29.984375 24.703125 
Q 19.046875 24.703125 12.671875 31.3125 
Q 6.296875 37.9375 6.296875 49.421875 
Q 6.296875 60.640625 12.9375 67.421875 
Q 19.578125 74.21875 30.609375 74.21875 
Q 43.265625 74.21875 49.921875 64.515625 
Q 56.59375 54.828125 56.59375 36.375 
Q 56.59375 19.140625 48.40625 8.859375 
Q 40.234375 -1.421875 26.421875 -1.421875 
Q 22.703125 -1.421875 18.890625 -0.6875 
Q 15.09375 0.046875 10.984375 1.515625 
z
M 30.609375 32.421875 
Q 37.25 32.421875 41.125 36.953125 
Q 45.015625 41.5 45.015625 49.421875 
Q 45.015625 57.28125 41.125 61.84375 
Q 37.25 66.40625 30.609375 66.40625 
Q 23.96875 66.40625 20.09375 61.84375 
Q 16.21875 57.28125 16.21875 49.421875 
Q 16.21875 41.5 20.09375 36.953125 
Q 23.96875 32.421875 30.609375 32.421875 
z
" id="DejaVuSans-57"/>
      <path d="M 25.390625 72.90625 
L 33.6875 72.90625 
L 8.296875 -9.28125 
L 0 -9.28125 
z
" id="DejaVuSans-47"/>
      <path d="M 48.6875 27.296875 
Q 48.6875 37.203125 44.609375 42.84375 
Q 40.53125 48.484375 33.40625 48.484375 
Q 26.265625 48.484375 22.1875 42.84375 
Q 18.109375 37.203125 18.109375 27.296875 
Q 18.109375 17.390625 22.1875 11.75 
Q 26.265625 6.109375 33.40625 6.109375 
Q 40.53125 6.109375 44.609375 11.75 
Q 48.6875 17.390625 48.6875 27.296875 
z
M 18.109375 46.390625 
Q 20.953125 51.265625 25.265625 53.625 
Q 29.59375 56 35.59375 56 
Q 45.5625 56 51.78125 48.09375 
Q 58.015625 40.1875 58.015625 27.296875 
Q 58.015625 14.40625 51.78125 6.484375 
Q 45.5625 -1.421875 35.59375 -1.421875 
Q 29.59375 -1.421875 25.265625 0.953125 
Q 20.953125 3.328125 18.109375 8.203125 
L 18.109375 0 
L 9.078125 0 
L 9.078125 75.984375 
L 18.109375 75.984375 
z
" id="DejaVuSans-98"/>
      <path d="M 37.109375 75.984375 
L 37.109375 68.5 
L 28.515625 68.5 
Q 23.6875 68.5 21.796875 66.546875 
Q 19.921875 64.59375 19.921875 59.515625 
L 19.921875 54.6875 
L 34.71875 54.6875 
L 34.71875 47.703125 
L 19.921875 47.703125 
L 19.921875 0 
L 10.890625 0 
L 10.890625 47.703125 
L 2.296875 47.703125 
L 2.296875 54.6875 
L 10.890625 54.6875 
L 10.890625 58.5 
Q 10.890625 67.625 15.140625 71.796875 
Q 19.390625 75.984375 28.609375 75.984375 
z
" id="DejaVuSans-102"/>
      <path d="M 14.796875 27.296875 
Q 14.796875 17.390625 18.875 11.75 
Q 22.953125 6.109375 30.078125 6.109375 
Q 37.203125 6.109375 41.296875 11.75 
Q 45.40625 17.390625 45.40625 27.296875 
Q 45.40625 37.203125 41.296875 42.84375 
Q 37.203125 48.484375 30.078125 48.484375 
Q 22.953125 48.484375 18.875 42.84375 
Q 14.796875 37.203125 14.796875 27.296875 
z
M 45.40625 8.203125 
Q 42.578125 3.328125 38.25 0.953125 
Q 33.9375 -1.421875 27.875 -1.421875 
Q 17.96875 -1.421875 11.734375 6.484375 
Q 5.515625 14.40625 5.515625 27.296875 
Q 5.515625 40.1875 11.734375 48.09375 
Q 17.96875 56 27.875 56 
Q 33.9375 56 38.25 53.625 
Q 42.578125 51.265625 45.40625 46.390625 
L 45.40625 54.6875 
L 54.390625 54.6875 
L 54.390625 -20.796875 
L 45.40625 -20.796875 
z
" id="DejaVuSans-113"/>
      <path d="M 52 44.1875 
Q 55.375 50.25 60.0625 53.125 
Q 64.75 56 71.09375 56 
Q 79.640625 56 84.28125 50.015625 
Q 88.921875 44.046875 88.921875 33.015625 
L 88.921875 0 
L 79.890625 0 
L 79.890625 32.71875 
Q 79.890625 40.578125 77.09375 44.375 
Q 74.3125 48.1875 68.609375 48.1875 
Q 61.625 48.1875 57.5625 43.546875 
Q 53.515625 38.921875 53.515625 30.90625 
L 53.515625 0 
L 44.484375 0 
L 44.484375 32.71875 
Q 44.484375 40.625 41.703125 44.40625 
Q 38.921875 48.1875 33.109375 48.1875 
Q 26.21875 48.1875 22.15625 43.53125 
Q 18.109375 38.875 18.109375 30.90625 
L 18.109375 0 
L 9.078125 0 
L 9.078125 54.6875 
L 18.109375 54.6875 
L 18.109375 46.1875 
Q 21.1875 51.21875 25.484375 53.609375 
Q 29.78125 56 35.6875 56 
Q 41.65625 56 45.828125 52.96875 
Q 50 49.953125 52 44.1875 
z
" id="DejaVuSans-109"/>
      <path d="M 54.890625 33.015625 
L 54.890625 0 
L 45.90625 0 
L 45.90625 32.71875 
Q 45.90625 40.484375 42.875 44.328125 
Q 39.84375 48.1875 33.796875 48.1875 
Q 26.515625 48.1875 22.3125 43.546875 
Q 18.109375 38.921875 18.109375 30.90625 
L 18.109375 0 
L 9.078125 0 
L 9.078125 75.984375 
L 18.109375 75.984375 
L 18.109375 46.1875 
Q 21.34375 51.125 25.703125 53.5625 
Q 30.078125 56 35.796875 56 
Q 45.21875 56 50.046875 50.171875 
Q 54.890625 44.34375 54.890625 33.015625 
z
" id="DejaVuSans-104"/>
      <path d="M 31 75.875 
Q 24.46875 64.65625 21.28125 53.65625 
Q 18.109375 42.671875 18.109375 31.390625 
Q 18.109375 20.125 21.3125 9.0625 
Q 24.515625 -2 31 -13.1875 
L 23.1875 -13.1875 
Q 15.875 -1.703125 12.234375 9.375 
Q 8.59375 20.453125 8.59375 31.390625 
Q 8.59375 42.28125 12.203125 53.3125 
Q 15.828125 64.359375 23.1875 75.875 
z
" id="DejaVuSans-40"/>
      <path d="M 9.8125 72.90625 
L 23.09375 72.90625 
L 55.421875 11.921875 
L 55.421875 72.90625 
L 64.984375 72.90625 
L 64.984375 0 
L 51.703125 0 
L 19.390625 60.984375 
L 19.390625 0 
L 9.8125 0 
z
" id="DejaVuSans-78"/>
      <path d="M 10.59375 45.40625 
L 73.1875 45.40625 
L 73.1875 37.203125 
L 10.59375 37.203125 
z
M 10.59375 25.484375 
L 73.1875 25.484375 
L 73.1875 17.1875 
L 10.59375 17.1875 
z
" id="DejaVuSans-61"/>
      <path d="M 8.015625 75.875 
L 15.828125 75.875 
Q 23.140625 64.359375 26.78125 53.3125 
Q 30.421875 42.28125 30.421875 31.390625 
Q 30.421875 20.453125 26.78125 9.375 
Q 23.140625 -1.703125 15.828125 -13.1875 
L 8.015625 -13.1875 
Q 14.5 -2 17.703125 9.0625 
Q 20.90625 20.125 20.90625 31.390625 
Q 20.90625 42.671875 17.703125 53.65625 
Q 14.5 64.65625 8.015625 75.875 
z
" id="DejaVuSans-41"/>
     </defs>
     <g transform="translate(94.6 58.070438)scale(0.1 -0.1)">
      <use xlink:href="#DejaVuSans-115"/>
      <use x="52.099609" xlink:href="#DejaVuSans-112"/>
      <use x="115.576172" xlink:href="#DejaVuSans-95"/>
      <use x="165.576172" xlink:href="#DejaVuSans-99"/>
      <use x="220.556641" xlink:href="#DejaVuSans-97"/>
      <use x="281.835938" xlink:href="#DejaVuSans-115"/>
      <use x="333.935547" xlink:href="#DejaVuSans-57"/>
      <use x="397.558594" xlink:href="#DejaVuSans-47"/>
      <use x="431.25" xlink:href="#DejaVuSans-98"/>
      <use x="494.726562" xlink:href="#DejaVuSans-108"/>
      <use x="522.509766" xlink:href="#DejaVuSans-97"/>
      <use x="583.789062" xlink:href="#DejaVuSans-115"/>
      <use x="635.888672" xlink:href="#DejaVuSans-116"/>
      <use x="675.097656" xlink:href="#DejaVuSans-95"/>
      <use x="725.097656" xlink:href="#DejaVuSans-114"/>
      <use x="766.179688" xlink:href="#DejaVuSans-101"/>
      <use x="827.703125" xlink:href="#DejaVuSans-102"/>
      <use x="862.908203" xlink:href="#DejaVuSans-115"/>
      <use x="915.007812" xlink:href="#DejaVuSans-101"/>
      <use x="976.53125" xlink:href="#DejaVuSans-113"/>
      <use x="1040.007812" xlink:href="#DejaVuSans-95"/>
      <use x="1090.007812" xlink:href="#DejaVuSans-53"/>
      <use x="1153.630859" xlink:href="#DejaVuSans-48"/>
      <use x="1217.253906" xlink:href="#DejaVuSans-48"/>
      <use x="1280.876953" xlink:href="#DejaVuSans-48"/>
      <use x="1344.5" xlink:href="#DejaVuSans-47"/>
      <use x="1378.191406" xlink:href="#DejaVuSans-109"/>
      <use x="1475.603516" xlink:href="#DejaVuSans-97"/>
      <use x="1536.882812" xlink:href="#DejaVuSans-102"/>
      <use x="1572.087891" xlink:href="#DejaVuSans-102"/>
      <use x="1607.277344" xlink:href="#DejaVuSans-116"/>
      <use x="1646.486328" xlink:href="#DejaVuSans-95"/>
      <use x="1696.486328" xlink:href="#DejaVuSans-50"/>
      <use x="1760.109375" xlink:href="#DejaVuSans-48"/>
      <use x="1823.732422" xlink:href="#DejaVuSans-48"/>
      <use x="1887.355469" xlink:href="#DejaVuSans-48"/>
      <use x="1950.978516" xlink:href="#DejaVuSans-47"/>
      <use x="1984.669922" xlink:href="#DejaVuSans-116"/>
      <use x="2023.878906" xlink:href="#DejaVuSans-104"/>
      <use x="2087.257812" xlink:href="#DejaVuSans-114"/>
      <use x="2128.339844" xlink:href="#DejaVuSans-101"/>
      <use x="2189.863281" xlink:href="#DejaVuSans-115"/>
      <use x="2241.962891" xlink:href="#DejaVuSans-104"/>
      <use x="2305.341797" xlink:href="#DejaVuSans-111"/>
      <use x="2366.523438" xlink:href="#DejaVuSans-108"/>
      <use x="2394.306641" xlink:href="#DejaVuSans-100"/>
      <use x="2457.783203" xlink:href="#DejaVuSans-32"/>
      <use x="2489.570312" xlink:href="#DejaVuSans-40"/>
      <use x="2528.583984" xlink:href="#DejaVuSans-78"/>
      <use x="2603.388672" xlink:href="#DejaVuSans-61"/>
      <use x="2687.177734" xlink:href="#DejaVuSans-53"/>
      <use x="2750.800781" xlink:href="#DejaVuSans-53"/>
      <use x="2814.423828" xlink:href="#DejaVuSans-53"/>
      <use x="2878.046875" xlink:href="#DejaVuSans-41"/>
     </g>
    </g>
    <g id="line2d_19">
     <path d="M 66.6 69.526688 
L 86.6 69.526688 
" style="fill:none;stroke:#ff7f0e;"/>
    </g>
    <g id="line2d_20"/>
    <g id="text_18">
     <!-- cj_cas9/blast_refseq_5000/mafft/threshold (N=549) -->
     <defs>
      <path d="M 9.421875 54.6875 
L 18.40625 54.6875 
L 18.40625 -0.984375 
Q 18.40625 -11.421875 14.421875 -16.109375 
Q 10.453125 -20.796875 1.609375 -20.796875 
L -1.8125 -20.796875 
L -1.8125 -13.1875 
L 0.59375 -13.1875 
Q 5.71875 -13.1875 7.5625 -10.8125 
Q 9.421875 -8.453125 9.421875 -0.984375 
z
M 9.421875 75.984375 
L 18.40625 75.984375 
L 18.40625 64.59375 
L 9.421875 64.59375 
z
" id="DejaVuSans-106"/>
     </defs>
     <g transform="translate(94.6 73.026688)scale(0.1 -0.1)">
      <use xlink:href="#DejaVuSans-99"/>
      <use x="54.980469" xlink:href="#DejaVuSans-106"/>
      <use x="82.763672" xlink:href="#DejaVuSans-95"/>
      <use x="132.763672" xlink:href="#DejaVuSans-99"/>
      <use x="187.744141" xlink:href="#DejaVuSans-97"/>
      <use x="249.023438" xlink:href="#DejaVuSans-115"/>
      <use x="301.123047" xlink:href="#DejaVuSans-57"/>
      <use x="364.746094" xlink:href="#DejaVuSans-47"/>
      <use x="398.4375" xlink:href="#DejaVuSans-98"/>
      <use x="461.914062" xlink:href="#DejaVuSans-108"/>
      <use x="489.697266" xlink:href="#DejaVuSans-97"/>
      <use x="550.976562" xlink:href="#DejaVuSans-115"/>
      <use x="603.076172" xlink:href="#DejaVuSans-116"/>
      <use x="642.285156" xlink:href="#DejaVuSans-95"/>
      <use x="692.285156" xlink:href="#DejaVuSans-114"/>
      <use x="733.367188" xlink:href="#DejaVuSans-101"/>
      <use x="794.890625" xlink:href="#DejaVuSans-102"/>
      <use x="830.095703" xlink:href="#DejaVuSans-115"/>
      <use x="882.195312" xlink:href="#DejaVuSans-101"/>
      <use x="943.71875" xlink:href="#DejaVuSans-113"/>
      <use x="1007.195312" xlink:href="#DejaVuSans-95"/>
      <use x="1057.195312" xlink:href="#DejaVuSans-53"/>
      <use x="1120.818359" xlink:href="#DejaVuSans-48"/>
      <use x="1184.441406" xlink:href="#DejaVuSans-48"/>
      <use x="1248.064453" xlink:href="#DejaVuSans-48"/>
      <use x="1311.6875" xlink:href="#DejaVuSans-47"/>
      <use x="1345.378906" xlink:href="#DejaVuSans-109"/>
      <use x="1442.791016" xlink:href="#DejaVuSans-97"/>
      <use x="1504.070312" xlink:href="#DejaVuSans-102"/>
      <use x="1539.275391" xlink:href="#DejaVuSans-102"/>
      <use x="1574.464844" xlink:href="#DejaVuSans-116"/>
      <use x="1613.673828" xlink:href="#DejaVuSans-47"/>
      <use x="1647.365234" xlink:href="#DejaVuSans-116"/>
      <use x="1686.574219" xlink:href="#DejaVuSans-104"/>
      <use x="1749.953125" xlink:href="#DejaVuSans-114"/>
      <use x="1791.035156" xlink:href="#DejaVuSans-101"/>
      <use x="1852.558594" xlink:href="#DejaVuSans-115"/>
      <use x="1904.658203" xlink:href="#DejaVuSans-104"/>
      <use x="1968.037109" xlink:href="#DejaVuSans-111"/>
      <use x="2029.21875" xlink:href="#DejaVuSans-108"/>
      <use x="2057.001953" xlink:href="#DejaVuSans-100"/>
      <use x="2120.478516" xlink:href="#DejaVuSans-32"/>
      <use x="2152.265625" xlink:href="#DejaVuSans-40"/>
      <use x="2191.279297" xlink:href="#DejaVuSans-78"/>
      <use x="2266.083984" xlink:href="#DejaVuSans-61"/>
      <use x="2349.873047" xlink:href="#DejaVuSans-53"/>
      <use x="2413.496094" xlink:href="#DejaVuSans-52"/>
      <use x="2477.119141" xlink:href="#DejaVuSans-57"/>
      <use x="2540.742188" xlink:href="#DejaVuSans-41"/>
     </g>
    </g>
   </g>
  </g>
 </g>
 <defs>
  <clipPath id="pfe4789ec95">
   <rect height="266.112" width="357.12" x="57.6" y="41.472"/>
  </clipPath>
 </defs>
</svg>
