<?xml version="1.0" encoding="utf-8" standalone="no"?>
<!DOCTYPE svg PUBLIC "-//W3C//DTD SVG 1.1//EN"
  "http://www.w3.org/Graphics/SVG/1.1/DTD/svg11.dtd">
<!-- Created with matplotlib (https://matplotlib.org/) -->
<svg height="345.6pt" version="1.1" viewBox="0 0 460.8 345.6" width="460.8pt" xmlns="http://www.w3.org/2000/svg" xmlns:xlink="http://www.w3.org/1999/xlink">
 <defs>
  <style type="text/css">
*{stroke-linecap:butt;stroke-linejoin:round;}
  </style>
 </defs>
 <g id="figure_1">
  <g id="patch_1">
   <path d="M 0 345.6 
L 460.8 345.6 
L 460.8 0 
L 0 0 
z
" style="fill:none;"/>
  </g>
  <g id="axes_1">
   <g id="patch_2">
    <path d="M 57.6 307.584 
L 414.72 307.584 
L 414.72 41.472 
L 57.6 41.472 
z
" style="fill:#ffffff;"/>
   </g>
   <g id="matplotlib.axis_1">
    <g id="xtick_1">
     <g id="line2d_1">
      <defs>
       <path d="M 0 0 
L 0 3.5 
" id="mc6e905ab05" style="stroke:#000000;stroke-width:0.8;"/>
      </defs>
      <g>
       <use style="stroke:#000000;stroke-width:0.8;" x="57.6" xlink:href="#mc6e905ab05" y="307.584"/>
      </g>
     </g>
     <g id="text_1">
      <!-- 0 -->
      <defs>
       <path d="M 31.78125 66.40625 
Q 24.171875 66.40625 20.328125 58.90625 
Q 16.5 51.421875 16.5 36.375 
Q 16.5 21.390625 20.328125 13.890625 
Q 24.171875 6.390625 31.78125 6.390625 
Q 39.453125 6.390625 43.28125 13.890625 
Q 47.125 21.390625 47.125 36.375 
Q 47.125 51.421875 43.28125 58.90625 
Q 39.453125 66.40625 31.78125 66.40625 
z
M 31.78125 74.21875 
Q 44.046875 74.21875 50.515625 64.515625 
Q 56.984375 54.828125 56.984375 36.375 
Q 56.984375 17.96875 50.515625 8.265625 
Q 44.046875 -1.421875 31.78125 -1.421875 
Q 19.53125 -1.421875 13.0625 8.265625 
Q 6.59375 17.96875 6.59375 36.375 
Q 6.59375 54.828125 13.0625 64.515625 
Q 19.53125 74.21875 31.78125 74.21875 
z
" id="DejaVuSans-48"/>
      </defs>
      <g transform="translate(54.41875 322.182437)scale(0.1 -0.1)">
       <use xlink:href="#DejaVuSans-48"/>
      </g>
     </g>
    </g>
    <g id="xtick_2">
     <g id="line2d_2">
      <g>
       <use style="stroke:#000000;stroke-width:0.8;" x="108.984173" xlink:href="#mc6e905ab05" y="307.584"/>
      </g>
     </g>
     <g id="text_2">
      <!-- 200 -->
      <defs>
       <path d="M 19.1875 8.296875 
L 53.609375 8.296875 
L 53.609375 0 
L 7.328125 0 
L 7.328125 8.296875 
Q 12.9375 14.109375 22.625 23.890625 
Q 32.328125 33.6875 34.8125 36.53125 
Q 39.546875 41.84375 41.421875 45.53125 
Q 43.3125 49.21875 43.3125 52.78125 
Q 43.3125 58.59375 39.234375 62.25 
Q 35.15625 65.921875 28.609375 65.921875 
Q 23.96875 65.921875 18.8125 64.3125 
Q 13.671875 62.703125 7.8125 59.421875 
L 7.8125 69.390625 
Q 13.765625 71.78125 18.9375 73 
Q 24.125 74.21875 28.421875 74.21875 
Q 39.75 74.21875 46.484375 68.546875 
Q 53.21875 62.890625 53.21875 53.421875 
Q 53.21875 48.921875 51.53125 44.890625 
Q 49.859375 40.875 45.40625 35.40625 
Q 44.1875 33.984375 37.640625 27.21875 
Q 31.109375 20.453125 19.1875 8.296875 
z
" id="DejaVuSans-50"/>
      </defs>
      <g transform="translate(99.440423 322.182437)scale(0.1 -0.1)">
       <use xlink:href="#DejaVuSans-50"/>
       <use x="63.623047" xlink:href="#DejaVuSans-48"/>
       <use x="127.246094" xlink:href="#DejaVuSans-48"/>
      </g>
     </g>
    </g>
    <g id="xtick_3">
     <g id="line2d_3">
      <g>
       <use style="stroke:#000000;stroke-width:0.8;" x="160.368345" xlink:href="#mc6e905ab05" y="307.584"/>
      </g>
     </g>
     <g id="text_3">
      <!-- 400 -->
      <defs>
       <path d="M 37.796875 64.3125 
L 12.890625 25.390625 
L 37.796875 25.390625 
z
M 35.203125 72.90625 
L 47.609375 72.90625 
L 47.609375 25.390625 
L 58.015625 25.390625 
L 58.015625 17.1875 
L 47.609375 17.1875 
L 47.609375 0 
L 37.796875 0 
L 37.796875 17.1875 
L 4.890625 17.1875 
L 4.890625 26.703125 
z
" id="DejaVuSans-52"/>
      </defs>
      <g transform="translate(150.824595 322.182437)scale(0.1 -0.1)">
       <use xlink:href="#DejaVuSans-52"/>
       <use x="63.623047" xlink:href="#DejaVuSans-48"/>
       <use x="127.246094" xlink:href="#DejaVuSans-48"/>
      </g>
     </g>
    </g>
    <g id="xtick_4">
     <g id="line2d_4">
      <g>
       <use style="stroke:#000000;stroke-width:0.8;" x="211.752518" xlink:href="#mc6e905ab05" y="307.584"/>
      </g>
     </g>
     <g id="text_4">
      <!-- 600 -->
      <defs>
       <path d="M 33.015625 40.375 
Q 26.375 40.375 22.484375 35.828125 
Q 18.609375 31.296875 18.609375 23.390625 
Q 18.609375 15.53125 22.484375 10.953125 
Q 26.375 6.390625 33.015625 6.390625 
Q 39.65625 6.390625 43.53125 10.953125 
Q 47.40625 15.53125 47.40625 23.390625 
Q 47.40625 31.296875 43.53125 35.828125 
Q 39.65625 40.375 33.015625 40.375 
z
M 52.59375 71.296875 
L 52.59375 62.3125 
Q 48.875 64.0625 45.09375 64.984375 
Q 41.3125 65.921875 37.59375 65.921875 
Q 27.828125 65.921875 22.671875 59.328125 
Q 17.53125 52.734375 16.796875 39.40625 
Q 19.671875 43.65625 24.015625 45.921875 
Q 28.375 48.1875 33.59375 48.1875 
Q 44.578125 48.1875 50.953125 41.515625 
Q 57.328125 34.859375 57.328125 23.390625 
Q 57.328125 12.15625 50.6875 5.359375 
Q 44.046875 -1.421875 33.015625 -1.421875 
Q 20.359375 -1.421875 13.671875 8.265625 
Q 6.984375 17.96875 6.984375 36.375 
Q 6.984375 53.65625 15.1875 63.9375 
Q 23.390625 74.21875 37.203125 74.21875 
Q 40.921875 74.21875 44.703125 73.484375 
Q 48.484375 72.75 52.59375 71.296875 
z
" id="DejaVuSans-54"/>
      </defs>
      <g transform="translate(202.208768 322.182437)scale(0.1 -0.1)">
       <use xlink:href="#DejaVuSans-54"/>
       <use x="63.623047" xlink:href="#DejaVuSans-48"/>
       <use x="127.246094" xlink:href="#DejaVuSans-48"/>
      </g>
     </g>
    </g>
    <g id="xtick_5">
     <g id="line2d_5">
      <g>
       <use style="stroke:#000000;stroke-width:0.8;" x="263.136691" xlink:href="#mc6e905ab05" y="307.584"/>
      </g>
     </g>
     <g id="text_5">
      <!-- 800 -->
      <defs>
       <path d="M 31.78125 34.625 
Q 24.75 34.625 20.71875 30.859375 
Q 16.703125 27.09375 16.703125 20.515625 
Q 16.703125 13.921875 20.71875 10.15625 
Q 24.75 6.390625 31.78125 6.390625 
Q 38.8125 6.390625 42.859375 10.171875 
Q 46.921875 13.96875 46.921875 20.515625 
Q 46.921875 27.09375 42.890625 30.859375 
Q 38.875 34.625 31.78125 34.625 
z
M 21.921875 38.8125 
Q 15.578125 40.375 12.03125 44.71875 
Q 8.5 49.078125 8.5 55.328125 
Q 8.5 64.0625 14.71875 69.140625 
Q 20.953125 74.21875 31.78125 74.21875 
Q 42.671875 74.21875 48.875 69.140625 
Q 55.078125 64.0625 55.078125 55.328125 
Q 55.078125 49.078125 51.53125 44.71875 
Q 48 40.375 41.703125 38.8125 
Q 48.828125 37.15625 52.796875 32.3125 
Q 56.78125 27.484375 56.78125 20.515625 
Q 56.78125 9.90625 50.3125 4.234375 
Q 43.84375 -1.421875 31.78125 -1.421875 
Q 19.734375 -1.421875 13.25 4.234375 
Q 6.78125 9.90625 6.78125 20.515625 
Q 6.78125 27.484375 10.78125 32.3125 
Q 14.796875 37.15625 21.921875 38.8125 
z
M 18.3125 54.390625 
Q 18.3125 48.734375 21.84375 45.5625 
Q 25.390625 42.390625 31.78125 42.390625 
Q 38.140625 42.390625 41.71875 45.5625 
Q 45.3125 48.734375 45.3125 54.390625 
Q 45.3125 60.0625 41.71875 63.234375 
Q 38.140625 66.40625 31.78125 66.40625 
Q 25.390625 66.40625 21.84375 63.234375 
Q 18.3125 60.0625 18.3125 54.390625 
z
" id="DejaVuSans-56"/>
      </defs>
      <g transform="translate(253.592941 322.182437)scale(0.1 -0.1)">
       <use xlink:href="#DejaVuSans-56"/>
       <use x="63.623047" xlink:href="#DejaVuSans-48"/>
       <use x="127.246094" xlink:href="#DejaVuSans-48"/>
      </g>
     </g>
    </g>
    <g id="xtick_6">
     <g id="line2d_6">
      <g>
       <use style="stroke:#000000;stroke-width:0.8;" x="314.520863" xlink:href="#mc6e905ab05" y="307.584"/>
      </g>
     </g>
     <g id="text_6">
      <!-- 1000 -->
      <defs>
       <path d="M 12.40625 8.296875 
L 28.515625 8.296875 
L 28.515625 63.921875 
L 10.984375 60.40625 
L 10.984375 69.390625 
L 28.421875 72.90625 
L 38.28125 72.90625 
L 38.28125 8.296875 
L 54.390625 8.296875 
L 54.390625 0 
L 12.40625 0 
z
" id="DejaVuSans-49"/>
      </defs>
      <g transform="translate(301.795863 322.182437)scale(0.1 -0.1)">
       <use xlink:href="#DejaVuSans-49"/>
       <use x="63.623047" xlink:href="#DejaVuSans-48"/>
       <use x="127.246094" xlink:href="#DejaVuSans-48"/>
       <use x="190.869141" xlink:href="#DejaVuSans-48"/>
      </g>
     </g>
    </g>
    <g id="xtick_7">
     <g id="line2d_7">
      <g>
       <use style="stroke:#000000;stroke-width:0.8;" x="365.905036" xlink:href="#mc6e905ab05" y="307.584"/>
      </g>
     </g>
     <g id="text_7">
      <!-- 1200 -->
      <g transform="translate(353.180036 322.182437)scale(0.1 -0.1)">
       <use xlink:href="#DejaVuSans-49"/>
       <use x="63.623047" xlink:href="#DejaVuSans-50"/>
       <use x="127.246094" xlink:href="#DejaVuSans-48"/>
       <use x="190.869141" xlink:href="#DejaVuSans-48"/>
      </g>
     </g>
    </g>
    <g id="text_8">
     <!-- aligned residue index -->
     <defs>
      <path d="M 34.28125 27.484375 
Q 23.390625 27.484375 19.1875 25 
Q 14.984375 22.515625 14.984375 16.5 
Q 14.984375 11.71875 18.140625 8.90625 
Q 21.296875 6.109375 26.703125 6.109375 
Q 34.1875 6.109375 38.703125 11.40625 
Q 43.21875 16.703125 43.21875 25.484375 
L 43.21875 27.484375 
z
M 52.203125 31.203125 
L 52.203125 0 
L 43.21875 0 
L 43.21875 8.296875 
Q 40.140625 3.328125 35.546875 0.953125 
Q 30.953125 -1.421875 24.3125 -1.421875 
Q 15.921875 -1.421875 10.953125 3.296875 
Q 6 8.015625 6 15.921875 
Q 6 25.140625 12.171875 29.828125 
Q 18.359375 34.515625 30.609375 34.515625 
L 43.21875 34.515625 
L 43.21875 35.40625 
Q 43.21875 41.609375 39.140625 45 
Q 35.0625 48.390625 27.6875 48.390625 
Q 23 48.390625 18.546875 47.265625 
Q 14.109375 46.140625 10.015625 43.890625 
L 10.015625 52.203125 
Q 14.9375 54.109375 19.578125 55.046875 
Q 24.21875 56 28.609375 56 
Q 40.484375 56 46.34375 49.84375 
Q 52.203125 43.703125 52.203125 31.203125 
z
" id="DejaVuSans-97"/>
      <path d="M 9.421875 75.984375 
L 18.40625 75.984375 
L 18.40625 0 
L 9.421875 0 
z
" id="DejaVuSans-108"/>
      <path d="M 9.421875 54.6875 
L 18.40625 54.6875 
L 18.40625 0 
L 9.421875 0 
z
M 9.421875 75.984375 
L 18.40625 75.984375 
L 18.40625 64.59375 
L 9.421875 64.59375 
z
" id="DejaVuSans-105"/>
      <path d="M 45.40625 27.984375 
Q 45.40625 37.75 41.375 43.109375 
Q 37.359375 48.484375 30.078125 48.484375 
Q 22.859375 48.484375 18.828125 43.109375 
Q 14.796875 37.75 14.796875 27.984375 
Q 14.796875 18.265625 18.828125 12.890625 
Q 22.859375 7.515625 30.078125 7.515625 
Q 37.359375 7.515625 41.375 12.890625 
Q 45.40625 18.265625 45.40625 27.984375 
z
M 54.390625 6.78125 
Q 54.390625 -7.171875 48.1875 -13.984375 
Q 42 -20.796875 29.203125 -20.796875 
Q 24.46875 -20.796875 20.265625 -20.09375 
Q 16.0625 -19.390625 12.109375 -17.921875 
L 12.109375 -9.1875 
Q 16.0625 -11.328125 19.921875 -12.34375 
Q 23.78125 -13.375 27.78125 -13.375 
Q 36.625 -13.375 41.015625 -8.765625 
Q 45.40625 -4.15625 45.40625 5.171875 
L 45.40625 9.625 
Q 42.625 4.78125 38.28125 2.390625 
Q 33.9375 0 27.875 0 
Q 17.828125 0 11.671875 7.65625 
Q 5.515625 15.328125 5.515625 27.984375 
Q 5.515625 40.671875 11.671875 48.328125 
Q 17.828125 56 27.875 56 
Q 33.9375 56 38.28125 53.609375 
Q 42.625 51.21875 45.40625 46.390625 
L 45.40625 54.6875 
L 54.390625 54.6875 
z
" id="DejaVuSans-103"/>
      <path d="M 54.890625 33.015625 
L 54.890625 0 
L 45.90625 0 
L 45.90625 32.71875 
Q 45.90625 40.484375 42.875 44.328125 
Q 39.84375 48.1875 33.796875 48.1875 
Q 26.515625 48.1875 22.3125 43.546875 
Q 18.109375 38.921875 18.109375 30.90625 
L 18.109375 0 
L 9.078125 0 
L 9.078125 54.6875 
L 18.109375 54.6875 
L 18.109375 46.1875 
Q 21.34375 51.125 25.703125 53.5625 
Q 30.078125 56 35.796875 56 
Q 45.21875 56 50.046875 50.171875 
Q 54.890625 44.34375 54.890625 33.015625 
z
" id="DejaVuSans-110"/>
      <path d="M 56.203125 29.59375 
L 56.203125 25.203125 
L 14.890625 25.203125 
Q 15.484375 15.921875 20.484375 11.0625 
Q 25.484375 6.203125 34.421875 6.203125 
Q 39.59375 6.203125 44.453125 7.46875 
Q 49.3125 8.734375 54.109375 11.28125 
L 54.109375 2.78125 
Q 49.265625 0.734375 44.1875 -0.34375 
Q 39.109375 -1.421875 33.890625 -1.421875 
Q 20.796875 -1.421875 13.15625 6.1875 
Q 5.515625 13.8125 5.515625 26.8125 
Q 5.515625 40.234375 12.765625 48.109375 
Q 20.015625 56 32.328125 56 
Q 43.359375 56 49.78125 48.890625 
Q 56.203125 41.796875 56.203125 29.59375 
z
M 47.21875 32.234375 
Q 47.125 39.59375 43.09375 43.984375 
Q 39.0625 48.390625 32.421875 48.390625 
Q 24.90625 48.390625 20.390625 44.140625 
Q 15.875 39.890625 15.1875 32.171875 
z
" id="DejaVuSans-101"/>
      <path d="M 45.40625 46.390625 
L 45.40625 75.984375 
L 54.390625 75.984375 
L 54.390625 0 
L 45.40625 0 
L 45.40625 8.203125 
Q 42.578125 3.328125 38.25 0.953125 
Q 33.9375 -1.421875 27.875 -1.421875 
Q 17.96875 -1.421875 11.734375 6.484375 
Q 5.515625 14.40625 5.515625 27.296875 
Q 5.515625 40.1875 11.734375 48.09375 
Q 17.96875 56 27.875 56 
Q 33.9375 56 38.25 53.625 
Q 42.578125 51.265625 45.40625 46.390625 
z
M 14.796875 27.296875 
Q 14.796875 17.390625 18.875 11.75 
Q 22.953125 6.109375 30.078125 6.109375 
Q 37.203125 6.109375 41.296875 11.75 
Q 45.40625 17.390625 45.40625 27.296875 
Q 45.40625 37.203125 41.296875 42.84375 
Q 37.203125 48.484375 30.078125 48.484375 
Q 22.953125 48.484375 18.875 42.84375 
Q 14.796875 37.203125 14.796875 27.296875 
z
" id="DejaVuSans-100"/>
      <path id="DejaVuSans-32"/>
      <path d="M 41.109375 46.296875 
Q 39.59375 47.171875 37.8125 47.578125 
Q 36.03125 48 33.890625 48 
Q 26.265625 48 22.1875 43.046875 
Q 18.109375 38.09375 18.109375 28.8125 
L 18.109375 0 
L 9.078125 0 
L 9.078125 54.6875 
L 18.109375 54.6875 
L 18.109375 46.1875 
Q 20.953125 51.171875 25.484375 53.578125 
Q 30.03125 56 36.53125 56 
Q 37.453125 56 38.578125 55.875 
Q 39.703125 55.765625 41.0625 55.515625 
z
" id="DejaVuSans-114"/>
      <path d="M 44.28125 53.078125 
L 44.28125 44.578125 
Q 40.484375 46.53125 36.375 47.5 
Q 32.28125 48.484375 27.875 48.484375 
Q 21.1875 48.484375 17.84375 46.4375 
Q 14.5 44.390625 14.5 40.28125 
Q 14.5 37.15625 16.890625 35.375 
Q 19.28125 33.59375 26.515625 31.984375 
L 29.59375 31.296875 
Q 39.15625 29.25 43.1875 25.515625 
Q 47.21875 21.78125 47.21875 15.09375 
Q 47.21875 7.46875 41.1875 3.015625 
Q 35.15625 -1.421875 24.609375 -1.421875 
Q 20.21875 -1.421875 15.453125 -0.5625 
Q 10.6875 0.296875 5.421875 2 
L 5.421875 11.28125 
Q 10.40625 8.6875 15.234375 7.390625 
Q 20.0625 6.109375 24.8125 6.109375 
Q 31.15625 6.109375 34.5625 8.28125 
Q 37.984375 10.453125 37.984375 14.40625 
Q 37.984375 18.0625 35.515625 20.015625 
Q 33.0625 21.96875 24.703125 23.78125 
L 21.578125 24.515625 
Q 13.234375 26.265625 9.515625 29.90625 
Q 5.8125 33.546875 5.8125 39.890625 
Q 5.8125 47.609375 11.28125 51.796875 
Q 16.75 56 26.8125 56 
Q 31.78125 56 36.171875 55.265625 
Q 40.578125 54.546875 44.28125 53.078125 
z
" id="DejaVuSans-115"/>
      <path d="M 8.5 21.578125 
L 8.5 54.6875 
L 17.484375 54.6875 
L 17.484375 21.921875 
Q 17.484375 14.15625 20.5 10.265625 
Q 23.53125 6.390625 29.59375 6.390625 
Q 36.859375 6.390625 41.078125 11.03125 
Q 45.3125 15.671875 45.3125 23.6875 
L 45.3125 54.6875 
L 54.296875 54.6875 
L 54.296875 0 
L 45.3125 0 
L 45.3125 8.40625 
Q 42.046875 3.421875 37.71875 1 
Q 33.40625 -1.421875 27.6875 -1.421875 
Q 18.265625 -1.421875 13.375 4.4375 
Q 8.5 10.296875 8.5 21.578125 
z
M 31.109375 56 
z
" id="DejaVuSans-117"/>
      <path d="M 54.890625 54.6875 
L 35.109375 28.078125 
L 55.90625 0 
L 45.3125 0 
L 29.390625 21.484375 
L 13.484375 0 
L 2.875 0 
L 24.125 28.609375 
L 4.6875 54.6875 
L 15.28125 54.6875 
L 29.78125 35.203125 
L 44.28125 54.6875 
z
" id="DejaVuSans-120"/>
     </defs>
     <g transform="translate(182.235 335.860562)scale(0.1 -0.1)">
      <use xlink:href="#DejaVuSans-97"/>
      <use x="61.279297" xlink:href="#DejaVuSans-108"/>
      <use x="89.0625" xlink:href="#DejaVuSans-105"/>
      <use x="116.845703" xlink:href="#DejaVuSans-103"/>
      <use x="180.322266" xlink:href="#DejaVuSans-110"/>
      <use x="243.701172" xlink:href="#DejaVuSans-101"/>
      <use x="305.224609" xlink:href="#DejaVuSans-100"/>
      <use x="368.701172" xlink:href="#DejaVuSans-32"/>
      <use x="400.488281" xlink:href="#DejaVuSans-114"/>
      <use x="441.570312" xlink:href="#DejaVuSans-101"/>
      <use x="503.09375" xlink:href="#DejaVuSans-115"/>
      <use x="555.193359" xlink:href="#DejaVuSans-105"/>
      <use x="582.976562" xlink:href="#DejaVuSans-100"/>
      <use x="646.453125" xlink:href="#DejaVuSans-117"/>
      <use x="709.832031" xlink:href="#DejaVuSans-101"/>
      <use x="771.355469" xlink:href="#DejaVuSans-32"/>
      <use x="803.142578" xlink:href="#DejaVuSans-105"/>
      <use x="830.925781" xlink:href="#DejaVuSans-110"/>
      <use x="894.304688" xlink:href="#DejaVuSans-100"/>
      <use x="957.78125" xlink:href="#DejaVuSans-101"/>
      <use x="1019.289062" xlink:href="#DejaVuSans-120"/>
     </g>
    </g>
   </g>
   <g id="matplotlib.axis_2">
    <g id="ytick_1">
     <g id="line2d_8">
      <defs>
       <path d="M 0 0 
L -3.5 0 
" id="m3a3fa92e1a" style="stroke:#000000;stroke-width:0.8;"/>
      </defs>
      <g>
       <use style="stroke:#000000;stroke-width:0.8;" x="57.6" xlink:href="#m3a3fa92e1a" y="307.584"/>
      </g>
     </g>
     <g id="text_9">
      <!-- 0 -->
      <g transform="translate(44.2375 311.383219)scale(0.1 -0.1)">
       <use xlink:href="#DejaVuSans-48"/>
      </g>
     </g>
    </g>
    <g id="ytick_2">
     <g id="line2d_9">
      <g>
       <use style="stroke:#000000;stroke-width:0.8;" x="57.6" xlink:href="#m3a3fa92e1a" y="263.232"/>
      </g>
     </g>
     <g id="text_10">
      <!-- 50 -->
      <defs>
       <path d="M 10.796875 72.90625 
L 49.515625 72.90625 
L 49.515625 64.59375 
L 19.828125 64.59375 
L 19.828125 46.734375 
Q 21.96875 47.46875 24.109375 47.828125 
Q 26.265625 48.1875 28.421875 48.1875 
Q 40.625 48.1875 47.75 41.5 
Q 54.890625 34.8125 54.890625 23.390625 
Q 54.890625 11.625 47.5625 5.09375 
Q 40.234375 -1.421875 26.90625 -1.421875 
Q 22.3125 -1.421875 17.546875 -0.640625 
Q 12.796875 0.140625 7.71875 1.703125 
L 7.71875 11.625 
Q 12.109375 9.234375 16.796875 8.0625 
Q 21.484375 6.890625 26.703125 6.890625 
Q 35.15625 6.890625 40.078125 11.328125 
Q 45.015625 15.765625 45.015625 23.390625 
Q 45.015625 31 40.078125 35.4375 
Q 35.15625 39.890625 26.703125 39.890625 
Q 22.75 39.890625 18.8125 39.015625 
Q 14.890625 38.140625 10.796875 36.28125 
z
" id="DejaVuSans-53"/>
      </defs>
      <g transform="translate(37.875 267.031219)scale(0.1 -0.1)">
       <use xlink:href="#DejaVuSans-53"/>
       <use x="63.623047" xlink:href="#DejaVuSans-48"/>
      </g>
     </g>
    </g>
    <g id="ytick_3">
     <g id="line2d_10">
      <g>
       <use style="stroke:#000000;stroke-width:0.8;" x="57.6" xlink:href="#m3a3fa92e1a" y="218.88"/>
      </g>
     </g>
     <g id="text_11">
      <!-- 100 -->
      <g transform="translate(31.5125 222.679219)scale(0.1 -0.1)">
       <use xlink:href="#DejaVuSans-49"/>
       <use x="63.623047" xlink:href="#DejaVuSans-48"/>
       <use x="127.246094" xlink:href="#DejaVuSans-48"/>
      </g>
     </g>
    </g>
    <g id="ytick_4">
     <g id="line2d_11">
      <g>
       <use style="stroke:#000000;stroke-width:0.8;" x="57.6" xlink:href="#m3a3fa92e1a" y="174.528"/>
      </g>
     </g>
     <g id="text_12">
      <!-- 150 -->
      <g transform="translate(31.5125 178.327219)scale(0.1 -0.1)">
       <use xlink:href="#DejaVuSans-49"/>
       <use x="63.623047" xlink:href="#DejaVuSans-53"/>
       <use x="127.246094" xlink:href="#DejaVuSans-48"/>
      </g>
     </g>
    </g>
    <g id="ytick_5">
     <g id="line2d_12">
      <g>
       <use style="stroke:#000000;stroke-width:0.8;" x="57.6" xlink:href="#m3a3fa92e1a" y="130.176"/>
      </g>
     </g>
     <g id="text_13">
      <!-- 200 -->
      <g transform="translate(31.5125 133.975219)scale(0.1 -0.1)">
       <use xlink:href="#DejaVuSans-50"/>
       <use x="63.623047" xlink:href="#DejaVuSans-48"/>
       <use x="127.246094" xlink:href="#DejaVuSans-48"/>
      </g>
     </g>
    </g>
    <g id="ytick_6">
     <g id="line2d_13">
      <g>
       <use style="stroke:#000000;stroke-width:0.8;" x="57.6" xlink:href="#m3a3fa92e1a" y="85.824"/>
      </g>
     </g>
     <g id="text_14">
      <!-- 250 -->
      <g transform="translate(31.5125 89.623219)scale(0.1 -0.1)">
       <use xlink:href="#DejaVuSans-50"/>
       <use x="63.623047" xlink:href="#DejaVuSans-53"/>
       <use x="127.246094" xlink:href="#DejaVuSans-48"/>
      </g>
     </g>
    </g>
    <g id="ytick_7">
     <g id="line2d_14">
      <g>
       <use style="stroke:#000000;stroke-width:0.8;" x="57.6" xlink:href="#m3a3fa92e1a" y="41.472"/>
      </g>
     </g>
     <g id="text_15">
      <!-- 300 -->
      <defs>
       <path d="M 40.578125 39.3125 
Q 47.65625 37.796875 51.625 33 
Q 55.609375 28.21875 55.609375 21.1875 
Q 55.609375 10.40625 48.1875 4.484375 
Q 40.765625 -1.421875 27.09375 -1.421875 
Q 22.515625 -1.421875 17.65625 -0.515625 
Q 12.796875 0.390625 7.625 2.203125 
L 7.625 11.71875 
Q 11.71875 9.328125 16.59375 8.109375 
Q 21.484375 6.890625 26.8125 6.890625 
Q 36.078125 6.890625 40.9375 10.546875 
Q 45.796875 14.203125 45.796875 21.1875 
Q 45.796875 27.640625 41.28125 31.265625 
Q 36.765625 34.90625 28.71875 34.90625 
L 20.21875 34.90625 
L 20.21875 43.015625 
L 29.109375 43.015625 
Q 36.375 43.015625 40.234375 45.921875 
Q 44.09375 48.828125 44.09375 54.296875 
Q 44.09375 59.90625 40.109375 62.90625 
Q 36.140625 65.921875 28.71875 65.921875 
Q 24.65625 65.921875 20.015625 65.03125 
Q 15.375 64.15625 9.8125 62.3125 
L 9.8125 71.09375 
Q 15.4375 72.65625 20.34375 73.4375 
Q 25.25 74.21875 29.59375 74.21875 
Q 40.828125 74.21875 47.359375 69.109375 
Q 53.90625 64.015625 53.90625 55.328125 
Q 53.90625 49.265625 50.4375 45.09375 
Q 46.96875 40.921875 40.578125 39.3125 
z
" id="DejaVuSans-51"/>
      </defs>
      <g transform="translate(31.5125 45.271219)scale(0.1 -0.1)">
       <use xlink:href="#DejaVuSans-51"/>
       <use x="63.623047" xlink:href="#DejaVuSans-48"/>
       <use x="127.246094" xlink:href="#DejaVuSans-48"/>
      </g>
     </g>
    </g>
    <g id="text_16">
     <!-- deletions -->
     <defs>
      <path d="M 18.3125 70.21875 
L 18.3125 54.6875 
L 36.8125 54.6875 
L 36.8125 47.703125 
L 18.3125 47.703125 
L 18.3125 18.015625 
Q 18.3125 11.328125 20.140625 9.421875 
Q 21.96875 7.515625 27.59375 7.515625 
L 36.8125 7.515625 
L 36.8125 0 
L 27.59375 0 
Q 17.1875 0 13.234375 3.875 
Q 9.28125 7.765625 9.28125 18.015625 
L 9.28125 47.703125 
L 2.6875 47.703125 
L 2.6875 54.6875 
L 9.28125 54.6875 
L 9.28125 70.21875 
z
" id="DejaVuSans-116"/>
      <path d="M 30.609375 48.390625 
Q 23.390625 48.390625 19.1875 42.75 
Q 14.984375 37.109375 14.984375 27.296875 
Q 14.984375 17.484375 19.15625 11.84375 
Q 23.34375 6.203125 30.609375 6.203125 
Q 37.796875 6.203125 41.984375 11.859375 
Q 46.1875 17.53125 46.1875 27.296875 
Q 46.1875 37.015625 41.984375 42.703125 
Q 37.796875 48.390625 30.609375 48.390625 
z
M 30.609375 56 
Q 42.328125 56 49.015625 48.375 
Q 55.71875 40.765625 55.71875 27.296875 
Q 55.71875 13.875 49.015625 6.21875 
Q 42.328125 -1.421875 30.609375 -1.421875 
Q 18.84375 -1.421875 12.171875 6.21875 
Q 5.515625 13.875 5.515625 27.296875 
Q 5.515625 40.765625 12.171875 48.375 
Q 18.84375 56 30.609375 56 
z
" id="DejaVuSans-111"/>
     </defs>
     <g transform="translate(25.432812 197.426437)rotate(-90)scale(0.1 -0.1)">
      <use xlink:href="#DejaVuSans-100"/>
      <use x="63.476562" xlink:href="#DejaVuSans-101"/>
      <use x="125" xlink:href="#DejaVuSans-108"/>
      <use x="152.783203" xlink:href="#DejaVuSans-101"/>
      <use x="214.306641" xlink:href="#DejaVuSans-116"/>
      <use x="253.515625" xlink:href="#DejaVuSans-105"/>
      <use x="281.298828" xlink:href="#DejaVuSans-111"/>
      <use x="342.480469" xlink:href="#DejaVuSans-110"/>
      <use x="405.859375" xlink:href="#DejaVuSans-115"/>
     </g>
    </g>
   </g>
   <g id="line2d_15">
    <path clip-path="url(#p41d0aacbbf)" d="M 57.6 307.584 
L 59.912288 307.584 
L 60.426129 305.80992 
L 60.68305 304.03584 
L 60.939971 303.1488 
L 61.196892 300.48768 
L 61.453813 299.60064 
L 61.710734 299.60064 
L 62.481496 290.73024 
L 62.995338 280.9728 
L 63.252259 279.19872 
L 64.279942 268.55424 
L 65.050705 265.89312 
L 65.307626 262.34496 
L 65.821468 260.57088 
L 66.078388 257.02272 
L 66.335309 257.02272 
L 66.849151 255.24864 
L 67.106072 255.24864 
L 67.362993 253.47456 
L 67.619914 252.58752 
L 67.876835 250.81344 
L 68.133755 253.47456 
L 68.390676 257.90976 
L 68.647597 258.7968 
L 68.904518 258.7968 
L 69.161439 263.232 
L 69.675281 265.00608 
L 70.959885 289.8432 
L 71.473727 296.05248 
L 71.730647 297.82656 
L 72.758331 307.584 
L 85.090532 307.584 
L 85.604374 305.80992 
L 85.861295 299.60064 
L 86.118216 298.7136 
L 86.632058 298.7136 
L 86.888978 299.60064 
L 87.659741 307.584 
L 88.687424 307.584 
L 88.944345 306.69696 
L 89.201266 304.92288 
L 89.458187 306.69696 
L 89.715108 307.584 
L 94.082763 307.584 
L 94.339683 306.69696 
L 94.853525 303.1488 
L 95.367367 307.584 
L 102.047309 307.584 
L 102.30423 306.69696 
L 102.561151 306.69696 
L 102.818072 305.80992 
L 103.331914 302.26176 
L 103.588835 301.37472 
L 103.845755 299.60064 
L 104.359597 295.16544 
L 104.616518 294.2784 
L 105.13036 288.06912 
L 105.644201 282.74688 
L 105.901122 278.31168 
L 106.158043 276.5376 
L 107.442647 243.71712 
L 107.699568 226.86336 
L 107.956489 222.42816 
L 108.21341 224.20224 
L 108.470331 224.20224 
L 108.727252 220.65408 
L 108.984173 218.88 
L 109.498014 214.4448 
L 109.754935 214.4448 
L 110.011856 210.89664 
L 110.268777 219.76704 
L 110.525698 221.54112 
L 110.782619 225.97632 
L 111.03954 233.07264 
L 111.29646 249.03936 
L 111.553381 253.47456 
L 111.810302 253.47456 
L 112.067223 254.3616 
L 112.324144 256.13568 
L 112.837986 257.90976 
L 113.094906 257.90976 
L 113.351827 259.68384 
L 113.865669 259.68384 
L 114.12259 260.57088 
L 114.379511 262.34496 
L 114.893353 262.34496 
L 115.150273 259.68384 
L 115.407194 261.45792 
L 115.664115 258.7968 
L 115.921036 258.7968 
L 116.691799 249.9264 
L 116.948719 251.70048 
L 117.20564 251.70048 
L 117.462561 265.00608 
L 117.976403 273.87648 
L 118.490245 282.74688 
L 118.747165 282.74688 
L 119.004086 295.16544 
L 119.774849 304.92288 
L 120.03177 306.69696 
L 121.059453 306.69696 
L 121.316374 307.584 
L 122.600978 307.584 
L 123.371741 296.05248 
L 123.628662 288.95616 
L 123.885583 288.06912 
L 124.142504 289.8432 
L 124.399424 290.73024 
L 124.656345 290.73024 
L 124.913266 291.61728 
L 125.427108 297.82656 
L 126.711712 306.69696 
L 127.225554 306.69696 
L 127.482475 307.584 
L 129.794763 307.584 
L 130.308604 305.80992 
L 130.565525 307.584 
L 134.676259 307.584 
L 134.93318 306.69696 
L 135.447022 302.26176 
L 135.703942 300.48768 
L 136.731626 278.31168 
L 136.988547 280.08576 
L 137.245468 278.31168 
L 137.502388 279.19872 
L 137.759309 280.9728 
L 138.01623 279.19872 
L 138.273151 280.08576 
L 139.300835 299.60064 
L 139.814676 304.03584 
L 140.071597 305.80992 
L 140.328518 306.69696 
L 142.126964 306.69696 
L 142.383885 305.80992 
L 142.640806 303.1488 
L 142.897727 303.1488 
L 143.154647 302.26176 
L 143.668489 296.93952 
L 143.92541 296.93952 
L 144.182331 287.18208 
L 144.696173 277.42464 
L 144.953094 275.65056 
L 145.723856 248.15232 
L 146.237698 246.37824 
L 146.494619 241.94304 
L 146.75154 233.95968 
L 147.00846 234.84672 
L 147.265381 221.54112 
L 147.522302 221.54112 
L 147.779223 223.3152 
L 148.036144 223.3152 
L 148.549986 233.07264 
L 148.806906 233.95968 
L 149.063827 235.73376 
L 149.320748 235.73376 
L 149.83459 251.70048 
L 150.091511 253.47456 
L 150.348432 257.02272 
L 150.605353 257.02272 
L 150.862273 257.90976 
L 151.119194 252.58752 
L 151.376115 255.24864 
L 151.633036 254.3616 
L 151.889957 254.3616 
L 152.146878 253.47456 
L 152.403799 258.7968 
L 152.660719 261.45792 
L 152.91764 268.55424 
L 153.688403 276.5376 
L 153.945324 283.63392 
L 154.202245 284.52096 
L 154.459165 284.52096 
L 154.716086 285.408 
L 154.973007 285.408 
L 155.229928 284.52096 
L 155.486849 280.9728 
L 156.000691 287.18208 
L 156.514532 296.93952 
L 156.771453 304.92288 
L 157.028374 307.584 
L 169.360576 307.584 
L 170.131338 304.92288 
L 170.388259 307.584 
L 174.755914 307.584 
L 175.012835 304.92288 
L 175.269755 304.03584 
L 175.783597 300.48768 
L 176.040518 302.26176 
L 176.297439 301.37472 
L 176.55436 305.80992 
L 176.811281 307.584 
L 190.685007 307.584 
L 191.198849 297.82656 
L 192.483453 293.39136 
L 193.254216 273.87648 
L 193.768058 264.11904 
L 194.281899 241.056 
L 194.795741 218.88 
L 195.052662 211.78368 
L 195.309583 194.92992 
L 195.823424 190.49472 
L 196.080345 189.60768 
L 196.594187 189.60768 
L 196.851108 188.72064 
L 197.108029 175.41504 
L 197.36495 176.30208 
L 197.621871 175.41504 
L 197.878791 179.85024 
L 198.135712 189.60768 
L 198.392633 191.38176 
L 198.649554 197.59104 
L 199.163396 199.36512 
L 199.677237 204.68736 
L 199.934158 205.5744 
L 200.191079 207.34848 
L 200.704921 214.4448 
L 200.961842 216.21888 
L 201.218763 213.55776 
L 201.475683 215.33184 
L 201.732604 215.33184 
L 201.989525 214.4448 
L 202.246446 212.67072 
L 202.503367 213.55776 
L 202.760288 211.78368 
L 203.274129 211.78368 
L 203.53105 208.23552 
L 203.787971 207.34848 
L 204.044892 204.68736 
L 204.558734 194.92992 
L 204.815655 192.2688 
L 205.072576 182.51136 
L 205.329496 186.05952 
L 205.586417 187.8336 
L 205.843338 188.72064 
L 206.100259 186.94656 
L 206.35718 186.94656 
L 206.614101 185.17248 
L 207.127942 195.81696 
L 207.384863 197.59104 
L 207.641784 204.68736 
L 207.898705 216.21888 
L 208.155626 217.99296 
L 208.669468 217.99296 
L 208.926388 216.21888 
L 209.44023 225.97632 
L 209.697151 244.60416 
L 210.724835 255.24864 
L 211.495597 271.21536 
L 211.752518 271.21536 
L 212.009439 272.98944 
L 212.26636 271.21536 
L 212.523281 264.11904 
L 212.780201 262.34496 
L 213.550964 241.94304 
L 214.064806 241.94304 
L 214.321727 245.4912 
L 214.578647 252.58752 
L 214.835568 256.13568 
L 216.120173 284.52096 
L 216.634014 290.73024 
L 216.890935 296.93952 
L 217.147856 299.60064 
L 217.404777 300.48768 
L 217.918619 305.80992 
L 218.17554 305.80992 
L 218.43246 307.584 
L 222.029353 307.584 
L 222.800115 302.26176 
L 223.570878 293.39136 
L 223.827799 293.39136 
L 224.34164 300.48768 
L 224.598561 302.26176 
L 224.855482 305.80992 
L 225.369324 307.584 
L 228.709295 307.584 
L 228.966216 306.69696 
L 229.223137 306.69696 
L 229.480058 305.80992 
L 230.25082 297.82656 
L 230.507741 292.50432 
L 231.021583 268.55424 
L 231.278504 265.00608 
L 231.535424 264.11904 
L 232.049266 268.55424 
L 232.306187 267.6672 
L 232.563108 269.44128 
L 232.820029 269.44128 
L 233.07695 272.98944 
L 233.333871 271.21536 
L 233.590791 268.55424 
L 234.104633 257.90976 
L 234.361554 254.3616 
L 234.618475 242.83008 
L 234.875396 242.83008 
L 235.389237 241.056 
L 235.646158 244.60416 
L 235.903079 242.83008 
L 236.16 249.9264 
L 236.416921 251.70048 
L 236.930763 257.90976 
L 237.187683 268.55424 
L 237.444604 272.1024 
L 237.958446 275.65056 
L 238.215367 278.31168 
L 238.472288 276.5376 
L 238.729209 278.31168 
L 238.986129 276.5376 
L 239.24305 280.08576 
L 239.499971 279.19872 
L 240.784576 280.08576 
L 241.041496 290.73024 
L 241.555338 303.1488 
L 241.812259 304.03584 
L 242.06918 307.584 
L 244.638388 307.584 
L 244.895309 305.80992 
L 245.15223 305.80992 
L 245.409151 306.69696 
L 245.666072 306.69696 
L 245.922993 307.584 
L 249.006043 307.584 
L 249.262964 306.69696 
L 251.575252 306.69696 
L 251.832173 305.80992 
L 252.089094 301.37472 
L 252.346014 300.48768 
L 252.602935 298.7136 
L 252.859856 297.82656 
L 253.373698 294.2784 
L 253.630619 291.61728 
L 253.88754 293.39136 
L 254.14446 296.93952 
L 254.401381 302.26176 
L 254.658302 303.1488 
L 254.915223 303.1488 
L 255.172144 304.03584 
L 255.429065 304.03584 
L 256.199827 306.69696 
L 261.338245 306.69696 
L 261.595165 307.584 
L 262.87977 307.584 
L 263.393612 301.37472 
L 263.650532 294.2784 
L 263.907453 290.73024 
L 264.164374 283.63392 
L 264.421295 280.9728 
L 265.448978 262.34496 
L 265.705899 263.232 
L 265.96282 263.232 
L 266.219741 259.68384 
L 266.733583 257.90976 
L 266.990504 258.7968 
L 267.247424 254.3616 
L 267.504345 254.3616 
L 267.761266 261.45792 
L 268.018187 264.11904 
L 268.275108 264.11904 
L 268.532029 262.34496 
L 269.559712 278.31168 
L 269.816633 281.85984 
L 270.073554 283.63392 
L 270.587396 291.61728 
L 270.844317 293.39136 
L 271.101237 296.93952 
L 271.615079 306.69696 
L 271.872 307.584 
L 275.982734 307.584 
L 276.239655 306.69696 
L 276.496576 307.584 
L 280.86423 307.584 
L 281.378072 305.80992 
L 281.634993 303.1488 
L 281.891914 303.1488 
L 282.148835 301.37472 
L 282.405755 297.82656 
L 282.662676 297.82656 
L 282.919597 296.93952 
L 283.433439 296.93952 
L 283.69036 295.16544 
L 284.204201 295.16544 
L 284.461122 292.50432 
L 284.718043 291.61728 
L 284.974964 288.95616 
L 285.231885 288.06912 
L 285.488806 286.29504 
L 285.745727 282.74688 
L 286.002647 280.9728 
L 286.77341 265.89312 
L 287.030331 259.68384 
L 287.287252 260.57088 
L 287.544173 258.7968 
L 287.801094 257.90976 
L 288.058014 260.57088 
L 288.571856 273.87648 
L 288.828777 278.31168 
L 289.85646 281.85984 
L 290.370302 282.74688 
L 290.627223 282.74688 
L 290.884144 284.52096 
L 291.141065 285.408 
L 293.967194 285.408 
L 294.224115 284.52096 
L 294.481036 280.9728 
L 294.737957 279.19872 
L 294.994878 276.5376 
L 295.251799 272.1024 
L 295.508719 273.87648 
L 296.022561 281.85984 
L 296.279482 288.06912 
L 296.536403 288.06912 
L 296.793324 287.18208 
L 297.050245 284.52096 
L 297.307165 285.408 
L 297.564086 293.39136 
L 297.821007 291.61728 
L 298.334849 281.85984 
L 298.848691 276.5376 
L 299.362532 268.55424 
L 299.619453 265.89312 
L 300.133295 256.13568 
L 300.390216 245.4912 
L 300.647137 241.94304 
L 301.160978 225.08928 
L 301.417899 215.33184 
L 301.931741 207.34848 
L 302.188662 204.68736 
L 302.445583 203.80032 
L 302.702504 199.36512 
L 302.959424 192.2688 
L 305.528633 188.72064 
L 306.299396 180.73728 
L 306.556317 176.30208 
L 306.813237 160.33536 
L 307.070158 160.33536 
L 307.327079 162.10944 
L 308.097842 159.44832 
L 308.354763 155.01312 
L 308.611683 154.12608 
L 308.868604 155.90016 
L 309.125525 155.90016 
L 309.382446 156.7872 
L 310.153209 168.31872 
L 310.66705 170.0928 
L 311.180892 177.18912 
L 311.951655 187.8336 
L 312.722417 208.23552 
L 312.979338 210.0096 
L 313.236259 210.0096 
L 313.49318 209.12256 
L 313.750101 209.12256 
L 314.263942 207.34848 
L 314.520863 203.80032 
L 314.777784 202.91328 
L 315.291626 194.92992 
L 315.548547 194.04288 
L 316.57623 178.07616 
L 316.833151 177.18912 
L 317.090072 177.18912 
L 317.346993 176.30208 
L 317.860835 172.75392 
L 318.117755 172.75392 
L 318.374676 169.20576 
L 318.631597 168.31872 
L 319.916201 155.90016 
L 320.173122 157.67424 
L 320.430043 156.7872 
L 320.686964 155.01312 
L 320.943885 151.46496 
L 321.200806 152.352 
L 321.457727 151.46496 
L 321.971568 147.02976 
L 322.228489 145.25568 
L 323.256173 118.64448 
L 323.513094 109.77408 
L 323.770014 106.22592 
L 324.026935 107.11296 
L 324.540777 107.11296 
L 324.797698 108 
L 325.054619 113.32224 
L 325.56846 128.40192 
L 329.679194 128.40192 
L 330.449957 131.06304 
L 330.706878 133.72416 
L 330.963799 134.6112 
L 331.47764 140.82048 
L 331.734561 140.82048 
L 331.991482 141.70752 
L 333.533007 144.36864 
L 333.789928 149.69088 
L 334.30377 169.20576 
L 334.560691 175.41504 
L 334.817612 176.30208 
L 335.331453 192.2688 
L 335.588374 186.05952 
L 336.102216 198.47808 
L 336.359137 196.704 
L 336.616058 198.47808 
L 336.872978 195.81696 
L 337.38682 186.05952 
L 337.900662 178.9632 
L 338.671424 178.9632 
L 338.928345 176.30208 
L 339.185266 178.9632 
L 339.442187 175.41504 
L 339.699108 173.64096 
L 339.956029 173.64096 
L 340.21295 175.41504 
L 340.469871 172.75392 
L 340.726791 178.9632 
L 341.754475 214.4448 
L 342.011396 221.54112 
L 342.525237 229.52448 
L 342.782158 234.84672 
L 343.039079 235.73376 
L 343.296 233.07264 
L 344.066763 247.26528 
L 344.323683 248.15232 
L 346.37905 249.9264 
L 346.892892 257.02272 
L 347.149813 259.68384 
L 347.406734 264.11904 
L 347.663655 271.21536 
L 347.920576 286.29504 
L 348.177496 288.06912 
L 348.434417 288.06912 
L 348.691338 282.74688 
L 348.948259 284.52096 
L 349.719022 281.85984 
L 349.975942 293.39136 
L 350.232863 292.50432 
L 350.489784 290.73024 
L 351.003626 288.95616 
L 351.260547 285.408 
L 351.517468 280.08576 
L 351.774388 278.31168 
L 352.545151 262.34496 
L 353.058993 243.71712 
L 354.600518 208.23552 
L 354.857439 203.80032 
L 355.11436 204.68736 
L 355.371281 204.68736 
L 355.885122 197.59104 
L 356.142043 197.59104 
L 356.398964 199.36512 
L 356.655885 203.80032 
L 356.912806 203.80032 
L 357.169727 206.46144 
L 357.683568 202.91328 
L 357.940489 200.25216 
L 358.19741 208.23552 
L 359.482014 225.97632 
L 359.738935 226.86336 
L 361.28046 226.86336 
L 361.537381 225.08928 
L 361.794302 224.20224 
L 362.051223 219.76704 
L 362.308144 218.88 
L 362.565065 192.2688 
L 362.821986 183.3984 
L 363.078906 180.73728 
L 363.592748 153.23904 
L 363.849669 147.02976 
L 364.10659 144.36864 
L 364.620432 146.14272 
L 364.877353 147.9168 
L 365.134273 150.57792 
L 365.648115 145.25568 
L 365.905036 144.36864 
L 366.418878 137.27232 
L 366.675799 140.82048 
L 366.932719 147.9168 
L 367.446561 153.23904 
L 367.703482 154.12608 
L 367.960403 159.44832 
L 368.217324 160.33536 
L 368.474245 158.56128 
L 368.731165 150.57792 
L 368.988086 155.01312 
L 369.501928 147.9168 
L 369.758849 150.57792 
L 371.300374 155.01312 
L 371.557295 158.56128 
L 371.814216 158.56128 
L 372.071137 159.44832 
L 372.328058 159.44832 
L 372.584978 158.56128 
L 372.841899 151.46496 
L 373.09882 153.23904 
L 373.355741 156.7872 
L 373.612662 158.56128 
L 373.869583 161.2224 
L 374.126504 160.33536 
L 374.383424 160.33536 
L 374.640345 161.2224 
L 374.897266 165.6576 
L 375.154187 175.41504 
L 375.411108 176.30208 
L 375.668029 178.07616 
L 375.92495 178.9632 
L 376.181871 181.62432 
L 376.438791 186.94656 
L 376.695712 204.68736 
L 376.952633 210.0096 
L 377.466475 216.21888 
L 378.751079 236.6208 
L 379.008 240.16896 
L 379.264921 240.16896 
L 379.521842 237.50784 
L 379.778763 237.50784 
L 380.035683 230.41152 
L 380.292604 231.29856 
L 380.549525 230.41152 
L 380.806446 228.63744 
L 381.320288 239.28192 
L 381.577209 240.16896 
L 381.834129 238.39488 
L 382.09105 237.50784 
L 382.604892 230.41152 
L 382.861813 227.7504 
L 383.118734 233.95968 
L 383.375655 230.41152 
L 383.632576 238.39488 
L 383.889496 241.056 
L 384.146417 241.94304 
L 384.403338 236.6208 
L 386.458705 167.43168 
L 386.972547 159.44832 
L 388.514072 110.66112 
L 388.770993 109.77408 
L 389.027914 110.66112 
L 389.284835 107.11296 
L 389.541755 105.33888 
L 389.798676 102.67776 
L 390.312518 100.90368 
L 390.569439 101.79072 
L 391.597122 101.79072 
L 391.854043 100.90368 
L 392.110964 100.90368 
L 392.367885 93.80736 
L 392.624806 90.2592 
L 392.881727 91.14624 
L 393.138647 95.58144 
L 393.395568 97.35552 
L 393.90941 108.88704 
L 394.166331 109.77408 
L 394.423252 108.88704 
L 394.680173 110.66112 
L 394.937094 116.8704 
L 395.194014 119.53152 
L 395.450935 123.96672 
L 395.707856 125.7408 
L 395.964777 125.7408 
L 396.221698 123.96672 
L 396.478619 120.41856 
L 396.73554 115.09632 
L 396.99246 106.22592 
L 397.249381 104.45184 
L 397.506302 100.90368 
L 397.763223 91.14624 
L 398.020144 72.5184 
L 398.277065 78.72768 
L 398.533986 79.61472 
L 399.304748 89.37216 
L 399.81859 93.80736 
L 400.075511 99.1296 
L 400.332432 100.90368 
L 400.589353 101.79072 
L 400.846273 99.1296 
L 401.103194 104.45184 
L 401.360115 98.24256 
L 401.617036 100.01664 
L 401.873957 94.6944 
L 402.130878 76.06656 
L 402.387799 77.84064 
L 402.90164 71.63136 
L 403.158561 66.30912 
L 403.415482 69.85728 
L 403.672403 69.85728 
L 403.929324 75.17952 
L 404.186245 77.84064 
L 404.443165 89.37216 
L 404.700086 95.58144 
L 405.213928 120.41856 
L 405.72777 130.176 
L 405.984691 144.36864 
L 406.755453 155.01312 
L 407.012374 155.90016 
L 407.526216 152.352 
L 407.783137 140.82048 
L 408.040058 142.59456 
L 408.296978 147.9168 
L 408.553899 145.25568 
L 408.81082 152.352 
L 409.581583 188.72064 
L 410.095424 200.25216 
L 410.352345 201.1392 
L 410.609266 201.1392 
L 411.123108 210.0096 
L 411.63695 218.88 
L 411.893871 217.99296 
L 412.407712 226.86336 
L 412.921554 249.9264 
L 413.178475 250.81344 
L 413.692317 260.57088 
L 413.949237 263.232 
L 414.206158 267.6672 
L 414.463079 274.76352 
L 414.72 275.65056 
L 414.976921 288.06912 
L 414.976921 288.06912 
" style="fill:none;stroke:#1f77b4;"/>
   </g>
   <g id="line2d_16">
    <path clip-path="url(#p41d0aacbbf)" d="M 57.6 307.584 
L 62.738417 307.584 
L 62.995338 304.03584 
L 63.50918 302.26176 
L 65.307626 304.92288 
L 66.078388 307.584 
L 67.619914 307.584 
L 68.133755 303.1488 
L 68.647597 301.37472 
L 69.161439 301.37472 
L 69.41836 304.92288 
L 69.675281 305.80992 
L 69.932201 307.584 
L 70.189122 307.584 
L 70.702964 305.80992 
L 72.50141 307.584 
L 77.896748 307.584 
L 78.153669 306.69696 
L 78.41059 303.1488 
L 78.667511 303.1488 
L 79.181353 296.05248 
L 79.695194 272.98944 
L 79.952115 269.44128 
L 80.465957 254.3616 
L 80.979799 249.9264 
L 81.49364 238.39488 
L 81.750561 235.73376 
L 82.007482 234.84672 
L 82.521324 220.65408 
L 82.778245 222.42816 
L 83.035165 225.08928 
L 83.549007 237.50784 
L 83.805928 238.39488 
L 84.062849 237.50784 
L 84.31977 240.16896 
L 89.458187 238.39488 
L 89.715108 235.73376 
L 89.972029 235.73376 
L 90.22895 234.84672 
L 90.485871 234.84672 
L 90.999712 228.63744 
L 91.256633 225.08928 
L 91.513554 223.3152 
L 92.284317 234.84672 
L 92.541237 235.73376 
L 92.798158 235.73376 
L 93.055079 234.84672 
L 93.312 230.41152 
L 93.568921 230.41152 
L 93.825842 232.1856 
L 94.082763 232.1856 
L 94.339683 233.95968 
L 94.853525 252.58752 
L 95.110446 256.13568 
L 95.367367 257.90976 
L 95.624288 264.11904 
L 95.881209 273.87648 
L 96.138129 277.42464 
L 96.39505 283.63392 
L 96.651971 284.52096 
L 96.908892 288.06912 
L 97.165813 289.8432 
L 97.422734 292.50432 
L 97.679655 293.39136 
L 98.707338 292.50432 
L 98.964259 291.61728 
L 99.22118 292.50432 
L 99.478101 292.50432 
L 99.735022 291.61728 
L 99.991942 292.50432 
L 100.248863 294.2784 
L 100.505784 295.16544 
L 100.762705 289.8432 
L 101.019626 288.95616 
L 101.276547 286.29504 
L 101.533468 281.85984 
L 103.331914 275.65056 
L 103.845755 275.65056 
L 104.359597 277.42464 
L 110.782619 277.42464 
L 111.29646 273.87648 
L 111.553381 272.98944 
L 111.810302 269.44128 
L 112.067223 269.44128 
L 112.324144 273.87648 
L 112.581065 272.98944 
L 113.608748 258.7968 
L 113.865669 257.90976 
L 115.407194 226.86336 
L 116.177957 226.86336 
L 116.691799 219.76704 
L 116.948719 217.99296 
L 117.20564 217.10592 
L 132.10705 214.4448 
L 132.363971 213.55776 
L 141.099281 210.89664 
L 141.356201 210.0096 
L 141.613122 208.23552 
L 141.870043 207.34848 
L 142.383885 200.25216 
L 146.494619 195.81696 
L 146.75154 180.73728 
L 147.00846 180.73728 
L 147.265381 182.51136 
L 152.146878 186.05952 
L 152.403799 186.94656 
L 152.660719 186.94656 
L 152.91764 187.8336 
L 153.688403 187.8336 
L 154.973007 185.17248 
L 155.229928 194.92992 
L 155.486849 198.47808 
L 155.74377 204.68736 
L 156.000691 206.46144 
L 156.257612 215.33184 
L 156.771453 220.65408 
L 157.542216 241.056 
L 157.799137 257.90976 
L 158.056058 266.78016 
L 158.312978 270.32832 
L 158.569899 278.31168 
L 158.82682 280.08576 
L 159.083741 290.73024 
L 159.340662 296.05248 
L 159.597583 298.7136 
L 164.992921 301.37472 
L 165.249842 304.03584 
L 165.506763 304.92288 
L 165.763683 306.69696 
L 166.020604 307.584 
L 167.81905 307.584 
L 168.075971 305.80992 
L 168.589813 300.48768 
L 169.360576 307.584 
L 169.617496 307.584 
L 169.874417 306.69696 
L 170.131338 307.584 
L 172.957468 307.584 
L 173.471309 305.80992 
L 173.985151 307.584 
L 176.297439 307.584 
L 176.55436 306.69696 
L 187.088115 302.26176 
L 187.345036 304.03584 
L 187.858878 305.80992 
L 188.115799 307.584 
L 188.62964 307.584 
L 188.886561 306.69696 
L 189.143482 306.69696 
L 189.400403 305.80992 
L 189.657324 305.80992 
L 189.914245 304.03584 
L 190.428086 292.50432 
L 190.685007 285.408 
L 191.198849 266.78016 
L 191.45577 263.232 
L 191.969612 245.4912 
L 192.483453 211.78368 
L 192.740374 215.33184 
L 192.997295 215.33184 
L 193.254216 214.4448 
L 193.768058 208.23552 
L 194.024978 202.02624 
L 194.281899 188.72064 
L 194.53882 186.94656 
L 194.795741 178.9632 
L 195.309583 172.75392 
L 195.566504 173.64096 
L 195.823424 177.18912 
L 197.36495 177.18912 
L 197.621871 176.30208 
L 197.878791 176.30208 
L 198.392633 189.60768 
L 198.906475 195.81696 
L 199.163396 196.704 
L 199.420317 199.36512 
L 199.934158 201.1392 
L 200.191079 201.1392 
L 201.218763 204.68736 
L 201.732604 205.5744 
L 201.989525 201.1392 
L 202.246446 200.25216 
L 202.503367 200.25216 
L 202.760288 198.47808 
L 203.017209 197.59104 
L 203.274129 201.1392 
L 203.53105 202.02624 
L 203.787971 201.1392 
L 204.044892 195.81696 
L 205.329496 196.704 
L 205.586417 194.92992 
L 205.843338 194.04288 
L 206.100259 186.05952 
L 206.35718 187.8336 
L 206.614101 190.49472 
L 207.127942 192.2688 
L 207.384863 192.2688 
L 207.641784 195.81696 
L 207.898705 195.81696 
L 208.155626 193.15584 
L 208.412547 194.04288 
L 208.669468 198.47808 
L 208.926388 200.25216 
L 209.183309 202.91328 
L 209.44023 208.23552 
L 210.210993 238.39488 
L 210.467914 241.94304 
L 210.724835 241.94304 
L 210.981755 244.60416 
L 211.238676 260.57088 
L 211.495597 265.89312 
L 211.752518 267.6672 
L 212.009439 271.21536 
L 212.26636 272.98944 
L 212.523281 273.87648 
L 212.780201 271.21536 
L 213.294043 271.21536 
L 213.550964 267.6672 
L 214.321727 267.6672 
L 214.578647 268.55424 
L 216.120173 268.55424 
L 216.377094 272.1024 
L 216.634014 272.98944 
L 216.890935 275.65056 
L 217.147856 275.65056 
L 217.404777 278.31168 
L 217.661698 285.408 
L 217.918619 288.95616 
L 218.43246 290.73024 
L 218.946302 298.7136 
L 219.203223 298.7136 
L 219.460144 296.05248 
L 219.717065 297.82656 
L 219.973986 300.48768 
L 220.230906 300.48768 
L 220.487827 297.82656 
L 220.744748 298.7136 
L 221.001669 298.7136 
L 221.25859 297.82656 
L 221.515511 295.16544 
L 222.286273 292.50432 
L 222.543194 292.50432 
L 223.057036 284.52096 
L 223.313957 286.29504 
L 224.084719 288.06912 
L 224.34164 288.06912 
L 224.598561 286.29504 
L 225.112403 286.29504 
L 226.140086 282.74688 
L 226.653928 277.42464 
L 227.16777 284.52096 
L 227.424691 285.408 
L 227.681612 287.18208 
L 228.195453 304.03584 
L 228.452374 307.584 
L 229.480058 307.584 
L 229.736978 306.69696 
L 229.993899 306.69696 
L 230.25082 305.80992 
L 231.792345 304.03584 
L 233.333871 304.03584 
L 233.590791 302.26176 
L 234.104633 304.03584 
L 235.132317 304.03584 
L 235.389237 303.1488 
L 235.646158 301.37472 
L 235.903079 303.1488 
L 236.16 304.03584 
L 238.215367 304.03584 
L 238.472288 303.1488 
L 238.729209 304.03584 
L 238.986129 302.26176 
L 239.24305 299.60064 
L 239.756892 285.408 
L 240.784576 255.24864 
L 241.041496 250.81344 
L 241.298417 252.58752 
L 241.555338 251.70048 
L 241.812259 249.9264 
L 242.06918 249.03936 
L 242.326101 247.26528 
L 242.583022 253.47456 
L 242.839942 254.3616 
L 243.096863 254.3616 
L 243.610705 265.00608 
L 247.721439 267.6672 
L 247.97836 268.55424 
L 248.235281 270.32832 
L 248.749122 276.5376 
L 249.006043 278.31168 
L 249.262964 279.19872 
L 249.519885 280.9728 
L 249.776806 284.52096 
L 250.033727 286.29504 
L 250.290647 291.61728 
L 250.804489 295.16544 
L 251.06141 296.05248 
L 251.575252 299.60064 
L 251.832173 300.48768 
L 252.089094 300.48768 
L 252.602935 304.92288 
L 252.859856 303.1488 
L 253.373698 307.584 
L 302.445583 307.584 
L 302.702504 305.80992 
L 303.473266 294.2784 
L 303.730187 293.39136 
L 303.987108 291.61728 
L 304.50095 286.29504 
L 305.014791 284.52096 
L 305.271712 284.52096 
L 305.528633 280.9728 
L 305.785554 282.74688 
L 306.042475 283.63392 
L 306.556317 283.63392 
L 306.813237 281.85984 
L 308.868604 281.85984 
L 309.382446 283.63392 
L 309.896288 287.18208 
L 310.66705 296.93952 
L 311.180892 296.93952 
L 311.694734 298.7136 
L 312.208576 302.26176 
L 312.465496 303.1488 
L 312.722417 303.1488 
L 312.979338 304.03584 
L 313.750101 304.03584 
L 314.007022 303.1488 
L 314.263942 301.37472 
L 314.520863 293.39136 
L 314.777784 291.61728 
L 315.034705 292.50432 
L 315.291626 288.95616 
L 315.548547 288.95616 
L 315.805468 294.2784 
L 316.062388 295.16544 
L 316.319309 292.50432 
L 316.57623 291.61728 
L 316.833151 291.61728 
L 317.346993 289.8432 
L 317.603914 286.29504 
L 317.860835 286.29504 
L 318.117755 285.408 
L 318.631597 281.85984 
L 319.916201 256.13568 
L 320.430043 251.70048 
L 320.686964 246.37824 
L 320.943885 244.60416 
L 321.200806 244.60416 
L 321.457727 243.71712 
L 321.714647 243.71712 
L 321.971568 242.83008 
L 332.505324 242.83008 
L 332.762245 243.71712 
L 333.019165 245.4912 
L 333.276086 246.37824 
L 333.533007 246.37824 
L 334.046849 248.15232 
L 334.30377 252.58752 
L 334.817612 252.58752 
L 335.074532 255.24864 
L 335.588374 266.78016 
L 336.102216 274.76352 
L 336.359137 282.74688 
L 336.872978 289.8432 
L 337.643741 299.60064 
L 338.157583 304.92288 
L 338.671424 304.03584 
L 338.928345 297.82656 
L 339.185266 298.7136 
L 339.442187 294.2784 
L 340.726791 296.05248 
L 341.240633 296.05248 
L 341.497554 295.16544 
L 341.754475 291.61728 
L 342.268317 274.76352 
L 342.782158 265.00608 
L 343.296 241.056 
L 343.552921 233.95968 
L 343.809842 233.07264 
L 344.066763 234.84672 
L 344.323683 233.07264 
L 344.580604 229.52448 
L 344.837525 222.42816 
L 345.094446 218.88 
L 345.608288 194.92992 
L 345.865209 192.2688 
L 346.37905 183.3984 
L 346.635971 181.62432 
L 347.149813 186.94656 
L 347.920576 179.85024 
L 348.177496 178.9632 
L 348.434417 186.94656 
L 348.691338 180.73728 
L 348.948259 168.31872 
L 349.462101 159.44832 
L 349.975942 143.4816 
L 350.232863 145.25568 
L 350.489784 149.69088 
L 350.746705 149.69088 
L 351.003626 164.77056 
L 351.774388 177.18912 
L 352.031309 177.18912 
L 352.802072 192.2688 
L 353.058993 195.81696 
L 353.315914 197.59104 
L 353.572835 198.47808 
L 353.829755 194.92992 
L 354.086676 189.60768 
L 354.600518 153.23904 
L 354.857439 154.12608 
L 355.371281 152.352 
L 355.628201 146.14272 
L 355.885122 147.9168 
L 356.142043 146.14272 
L 356.398964 146.14272 
L 356.655885 150.57792 
L 359.995856 152.352 
L 360.252777 138.15936 
L 360.766619 132.83712 
L 361.02354 134.6112 
L 361.28046 131.95008 
L 361.537381 127.51488 
L 362.051223 112.4352 
L 362.308144 109.77408 
L 362.565065 110.66112 
L 362.821986 114.20928 
L 363.078906 120.41856 
L 363.335827 118.64448 
L 363.592748 118.64448 
L 363.849669 119.53152 
L 364.363511 131.06304 
L 364.620432 134.6112 
L 365.134273 147.02976 
L 365.391194 145.25568 
L 365.648115 141.70752 
L 366.418878 141.70752 
L 366.675799 145.25568 
L 366.932719 153.23904 
L 367.446561 160.33536 
L 367.703482 170.0928 
L 368.731165 177.18912 
L 369.245007 189.60768 
L 369.501928 200.25216 
L 369.758849 200.25216 
L 370.272691 212.67072 
L 370.529612 217.99296 
L 370.786532 219.76704 
L 371.043453 212.67072 
L 371.300374 214.4448 
L 371.557295 212.67072 
L 371.814216 210.0096 
L 372.328058 217.10592 
L 372.584978 216.21888 
L 372.841899 210.0096 
L 374.126504 155.90016 
L 374.383424 154.12608 
L 374.640345 154.12608 
L 374.897266 150.57792 
L 375.411108 139.93344 
L 377.980317 131.06304 
L 378.237237 128.40192 
L 378.494158 128.40192 
L 379.008 110.66112 
L 379.521842 96.46848 
L 385.174101 94.6944 
L 385.431022 91.14624 
L 385.687942 93.80736 
L 385.944863 100.90368 
L 386.201784 124.85376 
L 386.715626 143.4816 
L 386.972547 150.57792 
L 392.881727 152.352 
L 393.138647 145.25568 
L 393.395568 155.01312 
L 393.652489 147.02976 
L 393.90941 148.80384 
L 394.166331 145.25568 
L 395.450935 147.9168 
L 395.707856 140.82048 
L 395.964777 139.0464 
L 396.478619 126.62784 
L 396.73554 121.3056 
L 397.249381 117.75744 
L 397.506302 120.41856 
L 398.020144 115.98336 
L 398.277065 111.54816 
L 398.533986 113.32224 
L 398.790906 115.98336 
L 399.047827 115.98336 
L 399.81859 146.14272 
L 400.332432 153.23904 
L 400.589353 158.56128 
L 400.846273 161.2224 
L 401.103194 179.85024 
L 401.360115 185.17248 
L 401.617036 185.17248 
L 401.873957 196.704 
L 403.929324 206.46144 
L 404.186245 209.12256 
L 404.700086 221.54112 
L 404.957007 222.42816 
L 405.213928 225.08928 
L 405.72777 237.50784 
L 405.984691 255.24864 
L 406.241612 263.232 
L 406.498532 266.78016 
L 406.755453 267.6672 
L 407.012374 272.1024 
L 407.526216 275.65056 
L 407.783137 276.5376 
L 408.040058 279.19872 
L 408.553899 289.8432 
L 409.067741 295.16544 
L 409.324662 294.2784 
L 409.581583 292.50432 
L 410.095424 300.48768 
L 410.352345 301.37472 
L 410.609266 301.37472 
L 411.123108 303.1488 
L 411.380029 305.80992 
L 411.63695 305.80992 
L 412.150791 307.584 
L 414.72 307.584 
L 414.72 307.584 
" style="fill:none;stroke:#ff7f0e;"/>
   </g>
   <g id="patch_3">
    <path d="M 57.6 307.584 
L 57.6 41.472 
" style="fill:none;stroke:#000000;stroke-linecap:square;stroke-linejoin:miter;stroke-width:0.8;"/>
   </g>
   <g id="patch_4">
    <path d="M 414.72 307.584 
L 414.72 41.472 
" style="fill:none;stroke:#000000;stroke-linecap:square;stroke-linejoin:miter;stroke-width:0.8;"/>
   </g>
   <g id="patch_5">
    <path d="M 57.6 307.584 
L 414.72 307.584 
" style="fill:none;stroke:#000000;stroke-linecap:square;stroke-linejoin:miter;stroke-width:0.8;"/>
   </g>
   <g id="patch_6">
    <path d="M 57.6 41.472 
L 414.72 41.472 
" style="fill:none;stroke:#000000;stroke-linecap:square;stroke-linejoin:miter;stroke-width:0.8;"/>
   </g>
   <g id="legend_1">
    <g id="patch_7">
     <path d="M 62.6 79.3845 
L 394.735937 79.3845 
L 394.735937 46.472 
L 62.6 46.472 
z
" style="fill:#ffffff;stroke:#000000;stroke-linejoin:miter;"/>
    </g>
    <g id="line2d_17">
     <path d="M 66.6 54.570438 
L 86.6 54.570438 
" style="fill:none;stroke:#1f77b4;"/>
    </g>
    <g id="line2d_18"/>
    <g id="text_17">
     <!-- sp_cas9/blast_refseq_5000/mafft_2000/loophash (N=2428) -->
     <defs>
      <path d="M 18.109375 8.203125 
L 18.109375 -20.796875 
L 9.078125 -20.796875 
L 9.078125 54.6875 
L 18.109375 54.6875 
L 18.109375 46.390625 
Q 20.953125 51.265625 25.265625 53.625 
Q 29.59375 56 35.59375 56 
Q 45.5625 56 51.78125 48.09375 
Q 58.015625 40.1875 58.015625 27.296875 
Q 58.015625 14.40625 51.78125 6.484375 
Q 45.5625 -1.421875 35.59375 -1.421875 
Q 29.59375 -1.421875 25.265625 0.953125 
Q 20.953125 3.328125 18.109375 8.203125 
z
M 48.6875 27.296875 
Q 48.6875 37.203125 44.609375 42.84375 
Q 40.53125 48.484375 33.40625 48.484375 
Q 26.265625 48.484375 22.1875 42.84375 
Q 18.109375 37.203125 18.109375 27.296875 
Q 18.109375 17.390625 22.1875 11.75 
Q 26.265625 6.109375 33.40625 6.109375 
Q 40.53125 6.109375 44.609375 11.75 
Q 48.6875 17.390625 48.6875 27.296875 
z
" id="DejaVuSans-112"/>
      <path d="M 50.984375 -16.609375 
L 50.984375 -23.578125 
L -0.984375 -23.578125 
L -0.984375 -16.609375 
z
" id="DejaVuSans-95"/>
      <path d="M 48.78125 52.59375 
L 48.78125 44.1875 
Q 44.96875 46.296875 41.140625 47.34375 
Q 37.3125 48.390625 33.40625 48.390625 
Q 24.65625 48.390625 19.8125 42.84375 
Q 14.984375 37.3125 14.984375 27.296875 
Q 14.984375 17.28125 19.8125 11.734375 
Q 24.65625 6.203125 33.40625 6.203125 
Q 37.3125 6.203125 41.140625 7.25 
Q 44.96875 8.296875 48.78125 10.40625 
L 48.78125 2.09375 
Q 45.015625 0.34375 40.984375 -0.53125 
Q 36.96875 -1.421875 32.421875 -1.421875 
Q 20.0625 -1.421875 12.78125 6.34375 
Q 5.515625 14.109375 5.515625 27.296875 
Q 5.515625 40.671875 12.859375 48.328125 
Q 20.21875 56 33.015625 56 
Q 37.15625 56 41.109375 55.140625 
Q 45.0625 54.296875 48.78125 52.59375 
z
" id="DejaVuSans-99"/>
      <path d="M 10.984375 1.515625 
L 10.984375 10.5 
Q 14.703125 8.734375 18.5 7.8125 
Q 22.3125 6.890625 25.984375 6.890625 
Q 35.75 6.890625 40.890625 13.453125 
Q 46.046875 20.015625 46.78125 33.40625 
Q 43.953125 29.203125 39.59375 26.953125 
Q 35.25 24.703125 29.984375 24.703125 
Q 19.046875 24.703125 12.671875 31.3125 
Q 6.296875 37.9375 6.296875 49.421875 
Q 6.296875 60.640625 12.9375 67.421875 
Q 19.578125 74.21875 30.609375 74.21875 
Q 43.265625 74.21875 49.921875 64.515625 
Q 56.59375 54.828125 56.59375 36.375 
Q 56.59375 19.140625 48.40625 8.859375 
Q 40.234375 -1.421875 26.421875 -1.421875 
Q 22.703125 -1.421875 18.890625 -0.6875 
Q 15.09375 0.046875 10.984375 1.515625 
z
M 30.609375 32.421875 
Q 37.25 32.421875 41.125 36.953125 
Q 45.015625 41.5 45.015625 49.421875 
Q 45.015625 57.28125 41.125 61.84375 
Q 37.25 66.40625 30.609375 66.40625 
Q 23.96875 66.40625 20.09375 61.84375 
Q 16.21875 57.28125 16.21875 49.421875 
Q 16.21875 41.5 20.09375 36.953125 
Q 23.96875 32.421875 30.609375 32.421875 
z
" id="DejaVuSans-57"/>
      <path d="M 25.390625 72.90625 
L 33.6875 72.90625 
L 8.296875 -9.28125 
L 0 -9.28125 
z
" id="DejaVuSans-47"/>
      <path d="M 48.6875 27.296875 
Q 48.6875 37.203125 44.609375 42.84375 
Q 40.53125 48.484375 33.40625 48.484375 
Q 26.265625 48.484375 22.1875 42.84375 
Q 18.109375 37.203125 18.109375 27.296875 
Q 18.109375 17.390625 22.1875 11.75 
Q 26.265625 6.109375 33.40625 6.109375 
Q 40.53125 6.109375 44.609375 11.75 
Q 48.6875 17.390625 48.6875 27.296875 
z
M 18.109375 46.390625 
Q 20.953125 51.265625 25.265625 53.625 
Q 29.59375 56 35.59375 56 
Q 45.5625 56 51.78125 48.09375 
Q 58.015625 40.1875 58.015625 27.296875 
Q 58.015625 14.40625 51.78125 6.484375 
Q 45.5625 -1.421875 35.59375 -1.421875 
Q 29.59375 -1.421875 25.265625 0.953125 
Q 20.953125 3.328125 18.109375 8.203125 
L 18.109375 0 
L 9.078125 0 
L 9.078125 75.984375 
L 18.109375 75.984375 
z
" id="DejaVuSans-98"/>
      <path d="M 37.109375 75.984375 
L 37.109375 68.5 
L 28.515625 68.5 
Q 23.6875 68.5 21.796875 66.546875 
Q 19.921875 64.59375 19.921875 59.515625 
L 19.921875 54.6875 
L 34.71875 54.6875 
L 34.71875 47.703125 
L 19.921875 47.703125 
L 19.921875 0 
L 10.890625 0 
L 10.890625 47.703125 
L 2.296875 47.703125 
L 2.296875 54.6875 
L 10.890625 54.6875 
L 10.890625 58.5 
Q 10.890625 67.625 15.140625 71.796875 
Q 19.390625 75.984375 28.609375 75.984375 
z
" id="DejaVuSans-102"/>
      <path d="M 14.796875 27.296875 
Q 14.796875 17.390625 18.875 11.75 
Q 22.953125 6.109375 30.078125 6.109375 
Q 37.203125 6.109375 41.296875 11.75 
Q 45.40625 17.390625 45.40625 27.296875 
Q 45.40625 37.203125 41.296875 42.84375 
Q 37.203125 48.484375 30.078125 48.484375 
Q 22.953125 48.484375 18.875 42.84375 
Q 14.796875 37.203125 14.796875 27.296875 
z
M 45.40625 8.203125 
Q 42.578125 3.328125 38.25 0.953125 
Q 33.9375 -1.421875 27.875 -1.421875 
Q 17.96875 -1.421875 11.734375 6.484375 
Q 5.515625 14.40625 5.515625 27.296875 
Q 5.515625 40.1875 11.734375 48.09375 
Q 17.96875 56 27.875 56 
Q 33.9375 56 38.25 53.625 
Q 42.578125 51.265625 45.40625 46.390625 
L 45.40625 54.6875 
L 54.390625 54.6875 
L 54.390625 -20.796875 
L 45.40625 -20.796875 
z
" id="DejaVuSans-113"/>
      <path d="M 52 44.1875 
Q 55.375 50.25 60.0625 53.125 
Q 64.75 56 71.09375 56 
Q 79.640625 56 84.28125 50.015625 
Q 88.921875 44.046875 88.921875 33.015625 
L 88.921875 0 
L 79.890625 0 
L 79.890625 32.71875 
Q 79.890625 40.578125 77.09375 44.375 
Q 74.3125 48.1875 68.609375 48.1875 
Q 61.625 48.1875 57.5625 43.546875 
Q 53.515625 38.921875 53.515625 30.90625 
L 53.515625 0 
L 44.484375 0 
L 44.484375 32.71875 
Q 44.484375 40.625 41.703125 44.40625 
Q 38.921875 48.1875 33.109375 48.1875 
Q 26.21875 48.1875 22.15625 43.53125 
Q 18.109375 38.875 18.109375 30.90625 
L 18.109375 0 
L 9.078125 0 
L 9.078125 54.6875 
L 18.109375 54.6875 
L 18.109375 46.1875 
Q 21.1875 51.21875 25.484375 53.609375 
Q 29.78125 56 35.6875 56 
Q 41.65625 56 45.828125 52.96875 
Q 50 49.953125 52 44.1875 
z
" id="DejaVuSans-109"/>
      <path d="M 54.890625 33.015625 
L 54.890625 0 
L 45.90625 0 
L 45.90625 32.71875 
Q 45.90625 40.484375 42.875 44.328125 
Q 39.84375 48.1875 33.796875 48.1875 
Q 26.515625 48.1875 22.3125 43.546875 
Q 18.109375 38.921875 18.109375 30.90625 
L 18.109375 0 
L 9.078125 0 
L 9.078125 75.984375 
L 18.109375 75.984375 
L 18.109375 46.1875 
Q 21.34375 51.125 25.703125 53.5625 
Q 30.078125 56 35.796875 56 
Q 45.21875 56 50.046875 50.171875 
Q 54.890625 44.34375 54.890625 33.015625 
z
" id="DejaVuSans-104"/>
      <path d="M 31 75.875 
Q 24.46875 64.65625 21.28125 53.65625 
Q 18.109375 42.671875 18.109375 31.390625 
Q 18.109375 20.125 21.3125 9.0625 
Q 24.515625 -2 31 -13.1875 
L 23.1875 -13.1875 
Q 15.875 -1.703125 12.234375 9.375 
Q 8.59375 20.453125 8.59375 31.390625 
Q 8.59375 42.28125 12.203125 53.3125 
Q 15.828125 64.359375 23.1875 75.875 
z
" id="DejaVuSans-40"/>
      <path d="M 9.8125 72.90625 
L 23.09375 72.90625 
L 55.421875 11.921875 
L 55.421875 72.90625 
L 64.984375 72.90625 
L 64.984375 0 
L 51.703125 0 
L 19.390625 60.984375 
L 19.390625 0 
L 9.8125 0 
z
" id="DejaVuSans-78"/>
      <path d="M 10.59375 45.40625 
L 73.1875 45.40625 
L 73.1875 37.203125 
L 10.59375 37.203125 
z
M 10.59375 25.484375 
L 73.1875 25.484375 
L 73.1875 17.1875 
L 10.59375 17.1875 
z
" id="DejaVuSans-61"/>
      <path d="M 8.015625 75.875 
L 15.828125 75.875 
Q 23.140625 64.359375 26.78125 53.3125 
Q 30.421875 42.28125 30.421875 31.390625 
Q 30.421875 20.453125 26.78125 9.375 
Q 23.140625 -1.703125 15.828125 -13.1875 
L 8.015625 -13.1875 
Q 14.5 -2 17.703125 9.0625 
Q 20.90625 20.125 20.90625 31.390625 
Q 20.90625 42.671875 17.703125 53.65625 
Q 14.5 64.65625 8.015625 75.875 
z
" id="DejaVuSans-41"/>
     </defs>
     <g transform="translate(94.6 58.070438)scale(0.1 -0.1)">
      <use xlink:href="#DejaVuSans-115"/>
      <use x="52.099609" xlink:href="#DejaVuSans-112"/>
      <use x="115.576172" xlink:href="#DejaVuSans-95"/>
      <use x="165.576172" xlink:href="#DejaVuSans-99"/>
      <use x="220.556641" xlink:href="#DejaVuSans-97"/>
      <use x="281.835938" xlink:href="#DejaVuSans-115"/>
      <use x="333.935547" xlink:href="#DejaVuSans-57"/>
      <use x="397.558594" xlink:href="#DejaVuSans-47"/>
      <use x="431.25" xlink:href="#DejaVuSans-98"/>
      <use x="494.726562" xlink:href="#DejaVuSans-108"/>
      <use x="522.509766" xlink:href="#DejaVuSans-97"/>
      <use x="583.789062" xlink:href="#DejaVuSans-115"/>
      <use x="635.888672" xlink:href="#DejaVuSans-116"/>
      <use x="675.097656" xlink:href="#DejaVuSans-95"/>
      <use x="725.097656" xlink:href="#DejaVuSans-114"/>
      <use x="766.179688" xlink:href="#DejaVuSans-101"/>
      <use x="827.703125" xlink:href="#DejaVuSans-102"/>
      <use x="862.908203" xlink:href="#DejaVuSans-115"/>
      <use x="915.007812" xlink:href="#DejaVuSans-101"/>
      <use x="976.53125" xlink:href="#DejaVuSans-113"/>
      <use x="1040.007812" xlink:href="#DejaVuSans-95"/>
      <use x="1090.007812" xlink:href="#DejaVuSans-53"/>
      <use x="1153.630859" xlink:href="#DejaVuSans-48"/>
      <use x="1217.253906" xlink:href="#DejaVuSans-48"/>
      <use x="1280.876953" xlink:href="#DejaVuSans-48"/>
      <use x="1344.5" xlink:href="#DejaVuSans-47"/>
      <use x="1378.191406" xlink:href="#DejaVuSans-109"/>
      <use x="1475.603516" xlink:href="#DejaVuSans-97"/>
      <use x="1536.882812" xlink:href="#DejaVuSans-102"/>
      <use x="1572.087891" xlink:href="#DejaVuSans-102"/>
      <use x="1607.277344" xlink:href="#DejaVuSans-116"/>
      <use x="1646.486328" xlink:href="#DejaVuSans-95"/>
      <use x="1696.486328" xlink:href="#DejaVuSans-50"/>
      <use x="1760.109375" xlink:href="#DejaVuSans-48"/>
      <use x="1823.732422" xlink:href="#DejaVuSans-48"/>
      <use x="1887.355469" xlink:href="#DejaVuSans-48"/>
      <use x="1950.978516" xlink:href="#DejaVuSans-47"/>
      <use x="1984.669922" xlink:href="#DejaVuSans-108"/>
      <use x="2012.453125" xlink:href="#DejaVuSans-111"/>
      <use x="2073.634766" xlink:href="#DejaVuSans-111"/>
      <use x="2134.816406" xlink:href="#DejaVuSans-112"/>
      <use x="2198.292969" xlink:href="#DejaVuSans-104"/>
      <use x="2261.671875" xlink:href="#DejaVuSans-97"/>
      <use x="2322.951172" xlink:href="#DejaVuSans-115"/>
      <use x="2375.050781" xlink:href="#DejaVuSans-104"/>
      <use x="2438.429688" xlink:href="#DejaVuSans-32"/>
      <use x="2470.216797" xlink:href="#DejaVuSans-40"/>
      <use x="2509.230469" xlink:href="#DejaVuSans-78"/>
      <use x="2584.035156" xlink:href="#DejaVuSans-61"/>
      <use x="2667.824219" xlink:href="#DejaVuSans-50"/>
      <use x="2731.447266" xlink:href="#DejaVuSans-52"/>
      <use x="2795.070312" xlink:href="#DejaVuSans-50"/>
      <use x="2858.693359" xlink:href="#DejaVuSans-56"/>
      <use x="2922.316406" xlink:href="#DejaVuSans-41"/>
     </g>
    </g>
    <g id="line2d_19">
     <path d="M 66.6 69.526688 
L 86.6 69.526688 
" style="fill:none;stroke:#ff7f0e;"/>
    </g>
    <g id="line2d_20"/>
    <g id="text_18">
     <!-- cj_cas9/blast_refseq_5000/mafft/loophash (N=1721) -->
     <defs>
      <path d="M 9.421875 54.6875 
L 18.40625 54.6875 
L 18.40625 -0.984375 
Q 18.40625 -11.421875 14.421875 -16.109375 
Q 10.453125 -20.796875 1.609375 -20.796875 
L -1.8125 -20.796875 
L -1.8125 -13.1875 
L 0.59375 -13.1875 
Q 5.71875 -13.1875 7.5625 -10.8125 
Q 9.421875 -8.453125 9.421875 -0.984375 
z
M 9.421875 75.984375 
L 18.40625 75.984375 
L 18.40625 64.59375 
L 9.421875 64.59375 
z
" id="DejaVuSans-106"/>
      <path d="M 8.203125 72.90625 
L 55.078125 72.90625 
L 55.078125 68.703125 
L 28.609375 0 
L 18.3125 0 
L 43.21875 64.59375 
L 8.203125 64.59375 
z
" id="DejaVuSans-55"/>
     </defs>
     <g transform="translate(94.6 73.026688)scale(0.1 -0.1)">
      <use xlink:href="#DejaVuSans-99"/>
      <use x="54.980469" xlink:href="#DejaVuSans-106"/>
      <use x="82.763672" xlink:href="#DejaVuSans-95"/>
      <use x="132.763672" xlink:href="#DejaVuSans-99"/>
      <use x="187.744141" xlink:href="#DejaVuSans-97"/>
      <use x="249.023438" xlink:href="#DejaVuSans-115"/>
      <use x="301.123047" xlink:href="#DejaVuSans-57"/>
      <use x="364.746094" xlink:href="#DejaVuSans-47"/>
      <use x="398.4375" xlink:href="#DejaVuSans-98"/>
      <use x="461.914062" xlink:href="#DejaVuSans-108"/>
      <use x="489.697266" xlink:href="#DejaVuSans-97"/>
      <use x="550.976562" xlink:href="#DejaVuSans-115"/>
      <use x="603.076172" xlink:href="#DejaVuSans-116"/>
      <use x="642.285156" xlink:href="#DejaVuSans-95"/>
      <use x="692.285156" xlink:href="#DejaVuSans-114"/>
      <use x="733.367188" xlink:href="#DejaVuSans-101"/>
      <use x="794.890625" xlink:href="#DejaVuSans-102"/>
      <use x="830.095703" xlink:href="#DejaVuSans-115"/>
      <use x="882.195312" xlink:href="#DejaVuSans-101"/>
      <use x="943.71875" xlink:href="#DejaVuSans-113"/>
      <use x="1007.195312" xlink:href="#DejaVuSans-95"/>
      <use x="1057.195312" xlink:href="#DejaVuSans-53"/>
      <use x="1120.818359" xlink:href="#DejaVuSans-48"/>
      <use x="1184.441406" xlink:href="#DejaVuSans-48"/>
      <use x="1248.064453" xlink:href="#DejaVuSans-48"/>
      <use x="1311.6875" xlink:href="#DejaVuSans-47"/>
      <use x="1345.378906" xlink:href="#DejaVuSans-109"/>
      <use x="1442.791016" xlink:href="#DejaVuSans-97"/>
      <use x="1504.070312" xlink:href="#DejaVuSans-102"/>
      <use x="1539.275391" xlink:href="#DejaVuSans-102"/>
      <use x="1574.464844" xlink:href="#DejaVuSans-116"/>
      <use x="1613.673828" xlink:href="#DejaVuSans-47"/>
      <use x="1647.365234" xlink:href="#DejaVuSans-108"/>
      <use x="1675.148438" xlink:href="#DejaVuSans-111"/>
      <use x="1736.330078" xlink:href="#DejaVuSans-111"/>
      <use x="1797.511719" xlink:href="#DejaVuSans-112"/>
      <use x="1860.988281" xlink:href="#DejaVuSans-104"/>
      <use x="1924.367188" xlink:href="#DejaVuSans-97"/>
      <use x="1985.646484" xlink:href="#DejaVuSans-115"/>
      <use x="2037.746094" xlink:href="#DejaVuSans-104"/>
      <use x="2101.125" xlink:href="#DejaVuSans-32"/>
      <use x="2132.912109" xlink:href="#DejaVuSans-40"/>
      <use x="2171.925781" xlink:href="#DejaVuSans-78"/>
      <use x="2246.730469" xlink:href="#DejaVuSans-61"/>
      <use x="2330.519531" xlink:href="#DejaVuSans-49"/>
      <use x="2394.142578" xlink:href="#DejaVuSans-55"/>
      <use x="2457.765625" xlink:href="#DejaVuSans-50"/>
      <use x="2521.388672" xlink:href="#DejaVuSans-49"/>
      <use x="2585.011719" xlink:href="#DejaVuSans-41"/>
     </g>
    </g>
   </g>
  </g>
 </g>
 <defs>
  <clipPath id="p41d0aacbbf">
   <rect height="266.112" width="357.12" x="57.6" y="41.472"/>
  </clipPath>
 </defs>
</svg>
