<?xml version="1.0" encoding="utf-8" standalone="no"?>
<!DOCTYPE svg PUBLIC "-//W3C//DTD SVG 1.1//EN"
  "http://www.w3.org/Graphics/SVG/1.1/DTD/svg11.dtd">
<!-- Created with matplotlib (https://matplotlib.org/) -->
<svg height="345.6pt" version="1.1" viewBox="0 0 460.8 345.6" width="460.8pt" xmlns="http://www.w3.org/2000/svg" xmlns:xlink="http://www.w3.org/1999/xlink">
 <defs>
  <style type="text/css">
*{stroke-linecap:butt;stroke-linejoin:round;}
  </style>
 </defs>
 <g id="figure_1">
  <g id="patch_1">
   <path d="M 0 345.6 
L 460.8 345.6 
L 460.8 0 
L 0 0 
z
" style="fill:none;"/>
  </g>
  <g id="axes_1">
   <g id="patch_2">
    <path d="M 50.87 148.26 
L 437.355 148.26 
L 437.355 24.72 
L 50.87 24.72 
z
" style="fill:#ffffff;"/>
   </g>
   <g id="matplotlib.axis_1">
    <g id="xtick_1">
     <g id="line2d_1">
      <defs>
       <path d="M 0 0 
L 0 3.5 
" id="mf0190a77fd" style="stroke:#000000;stroke-width:0.8;"/>
      </defs>
      <g>
       <use style="stroke:#000000;stroke-width:0.8;" x="50.87" xlink:href="#mf0190a77fd" y="148.26"/>
      </g>
     </g>
     <g id="text_1">
      <!-- 0.0 -->
      <defs>
       <path d="M 31.78125 66.40625 
Q 24.171875 66.40625 20.328125 58.90625 
Q 16.5 51.421875 16.5 36.375 
Q 16.5 21.390625 20.328125 13.890625 
Q 24.171875 6.390625 31.78125 6.390625 
Q 39.453125 6.390625 43.28125 13.890625 
Q 47.125 21.390625 47.125 36.375 
Q 47.125 51.421875 43.28125 58.90625 
Q 39.453125 66.40625 31.78125 66.40625 
z
M 31.78125 74.21875 
Q 44.046875 74.21875 50.515625 64.515625 
Q 56.984375 54.828125 56.984375 36.375 
Q 56.984375 17.96875 50.515625 8.265625 
Q 44.046875 -1.421875 31.78125 -1.421875 
Q 19.53125 -1.421875 13.0625 8.265625 
Q 6.59375 17.96875 6.59375 36.375 
Q 6.59375 54.828125 13.0625 64.515625 
Q 19.53125 74.21875 31.78125 74.21875 
z
" id="DejaVuSans-48"/>
       <path d="M 10.6875 12.40625 
L 21 12.40625 
L 21 0 
L 10.6875 0 
z
" id="DejaVuSans-46"/>
      </defs>
      <g transform="translate(42.918438 162.858437)scale(0.1 -0.1)">
       <use xlink:href="#DejaVuSans-48"/>
       <use x="63.623047" xlink:href="#DejaVuSans-46"/>
       <use x="95.410156" xlink:href="#DejaVuSans-48"/>
      </g>
     </g>
    </g>
    <g id="xtick_2">
     <g id="line2d_2">
      <g>
       <use style="stroke:#000000;stroke-width:0.8;" x="128.167" xlink:href="#mf0190a77fd" y="148.26"/>
      </g>
     </g>
     <g id="text_2">
      <!-- 0.2 -->
      <defs>
       <path d="M 19.1875 8.296875 
L 53.609375 8.296875 
L 53.609375 0 
L 7.328125 0 
L 7.328125 8.296875 
Q 12.9375 14.109375 22.625 23.890625 
Q 32.328125 33.6875 34.8125 36.53125 
Q 39.546875 41.84375 41.421875 45.53125 
Q 43.3125 49.21875 43.3125 52.78125 
Q 43.3125 58.59375 39.234375 62.25 
Q 35.15625 65.921875 28.609375 65.921875 
Q 23.96875 65.921875 18.8125 64.3125 
Q 13.671875 62.703125 7.8125 59.421875 
L 7.8125 69.390625 
Q 13.765625 71.78125 18.9375 73 
Q 24.125 74.21875 28.421875 74.21875 
Q 39.75 74.21875 46.484375 68.546875 
Q 53.21875 62.890625 53.21875 53.421875 
Q 53.21875 48.921875 51.53125 44.890625 
Q 49.859375 40.875 45.40625 35.40625 
Q 44.1875 33.984375 37.640625 27.21875 
Q 31.109375 20.453125 19.1875 8.296875 
z
" id="DejaVuSans-50"/>
      </defs>
      <g transform="translate(120.215438 162.858437)scale(0.1 -0.1)">
       <use xlink:href="#DejaVuSans-48"/>
       <use x="63.623047" xlink:href="#DejaVuSans-46"/>
       <use x="95.410156" xlink:href="#DejaVuSans-50"/>
      </g>
     </g>
    </g>
    <g id="xtick_3">
     <g id="line2d_3">
      <g>
       <use style="stroke:#000000;stroke-width:0.8;" x="205.464" xlink:href="#mf0190a77fd" y="148.26"/>
      </g>
     </g>
     <g id="text_3">
      <!-- 0.4 -->
      <defs>
       <path d="M 37.796875 64.3125 
L 12.890625 25.390625 
L 37.796875 25.390625 
z
M 35.203125 72.90625 
L 47.609375 72.90625 
L 47.609375 25.390625 
L 58.015625 25.390625 
L 58.015625 17.1875 
L 47.609375 17.1875 
L 47.609375 0 
L 37.796875 0 
L 37.796875 17.1875 
L 4.890625 17.1875 
L 4.890625 26.703125 
z
" id="DejaVuSans-52"/>
      </defs>
      <g transform="translate(197.512438 162.858437)scale(0.1 -0.1)">
       <use xlink:href="#DejaVuSans-48"/>
       <use x="63.623047" xlink:href="#DejaVuSans-46"/>
       <use x="95.410156" xlink:href="#DejaVuSans-52"/>
      </g>
     </g>
    </g>
    <g id="xtick_4">
     <g id="line2d_4">
      <g>
       <use style="stroke:#000000;stroke-width:0.8;" x="282.761" xlink:href="#mf0190a77fd" y="148.26"/>
      </g>
     </g>
     <g id="text_4">
      <!-- 0.6 -->
      <defs>
       <path d="M 33.015625 40.375 
Q 26.375 40.375 22.484375 35.828125 
Q 18.609375 31.296875 18.609375 23.390625 
Q 18.609375 15.53125 22.484375 10.953125 
Q 26.375 6.390625 33.015625 6.390625 
Q 39.65625 6.390625 43.53125 10.953125 
Q 47.40625 15.53125 47.40625 23.390625 
Q 47.40625 31.296875 43.53125 35.828125 
Q 39.65625 40.375 33.015625 40.375 
z
M 52.59375 71.296875 
L 52.59375 62.3125 
Q 48.875 64.0625 45.09375 64.984375 
Q 41.3125 65.921875 37.59375 65.921875 
Q 27.828125 65.921875 22.671875 59.328125 
Q 17.53125 52.734375 16.796875 39.40625 
Q 19.671875 43.65625 24.015625 45.921875 
Q 28.375 48.1875 33.59375 48.1875 
Q 44.578125 48.1875 50.953125 41.515625 
Q 57.328125 34.859375 57.328125 23.390625 
Q 57.328125 12.15625 50.6875 5.359375 
Q 44.046875 -1.421875 33.015625 -1.421875 
Q 20.359375 -1.421875 13.671875 8.265625 
Q 6.984375 17.96875 6.984375 36.375 
Q 6.984375 53.65625 15.1875 63.9375 
Q 23.390625 74.21875 37.203125 74.21875 
Q 40.921875 74.21875 44.703125 73.484375 
Q 48.484375 72.75 52.59375 71.296875 
z
" id="DejaVuSans-54"/>
      </defs>
      <g transform="translate(274.809438 162.858437)scale(0.1 -0.1)">
       <use xlink:href="#DejaVuSans-48"/>
       <use x="63.623047" xlink:href="#DejaVuSans-46"/>
       <use x="95.410156" xlink:href="#DejaVuSans-54"/>
      </g>
     </g>
    </g>
    <g id="xtick_5">
     <g id="line2d_5">
      <g>
       <use style="stroke:#000000;stroke-width:0.8;" x="360.058" xlink:href="#mf0190a77fd" y="148.26"/>
      </g>
     </g>
     <g id="text_5">
      <!-- 0.8 -->
      <defs>
       <path d="M 31.78125 34.625 
Q 24.75 34.625 20.71875 30.859375 
Q 16.703125 27.09375 16.703125 20.515625 
Q 16.703125 13.921875 20.71875 10.15625 
Q 24.75 6.390625 31.78125 6.390625 
Q 38.8125 6.390625 42.859375 10.171875 
Q 46.921875 13.96875 46.921875 20.515625 
Q 46.921875 27.09375 42.890625 30.859375 
Q 38.875 34.625 31.78125 34.625 
z
M 21.921875 38.8125 
Q 15.578125 40.375 12.03125 44.71875 
Q 8.5 49.078125 8.5 55.328125 
Q 8.5 64.0625 14.71875 69.140625 
Q 20.953125 74.21875 31.78125 74.21875 
Q 42.671875 74.21875 48.875 69.140625 
Q 55.078125 64.0625 55.078125 55.328125 
Q 55.078125 49.078125 51.53125 44.71875 
Q 48 40.375 41.703125 38.8125 
Q 48.828125 37.15625 52.796875 32.3125 
Q 56.78125 27.484375 56.78125 20.515625 
Q 56.78125 9.90625 50.3125 4.234375 
Q 43.84375 -1.421875 31.78125 -1.421875 
Q 19.734375 -1.421875 13.25 4.234375 
Q 6.78125 9.90625 6.78125 20.515625 
Q 6.78125 27.484375 10.78125 32.3125 
Q 14.796875 37.15625 21.921875 38.8125 
z
M 18.3125 54.390625 
Q 18.3125 48.734375 21.84375 45.5625 
Q 25.390625 42.390625 31.78125 42.390625 
Q 38.140625 42.390625 41.71875 45.5625 
Q 45.3125 48.734375 45.3125 54.390625 
Q 45.3125 60.0625 41.71875 63.234375 
Q 38.140625 66.40625 31.78125 66.40625 
Q 25.390625 66.40625 21.84375 63.234375 
Q 18.3125 60.0625 18.3125 54.390625 
z
" id="DejaVuSans-56"/>
      </defs>
      <g transform="translate(352.106438 162.858437)scale(0.1 -0.1)">
       <use xlink:href="#DejaVuSans-48"/>
       <use x="63.623047" xlink:href="#DejaVuSans-46"/>
       <use x="95.410156" xlink:href="#DejaVuSans-56"/>
      </g>
     </g>
    </g>
    <g id="xtick_6">
     <g id="line2d_6">
      <g>
       <use style="stroke:#000000;stroke-width:0.8;" x="437.355" xlink:href="#mf0190a77fd" y="148.26"/>
      </g>
     </g>
     <g id="text_6">
      <!-- 1.0 -->
      <defs>
       <path d="M 12.40625 8.296875 
L 28.515625 8.296875 
L 28.515625 63.921875 
L 10.984375 60.40625 
L 10.984375 69.390625 
L 28.421875 72.90625 
L 38.28125 72.90625 
L 38.28125 8.296875 
L 54.390625 8.296875 
L 54.390625 0 
L 12.40625 0 
z
" id="DejaVuSans-49"/>
      </defs>
      <g transform="translate(429.403437 162.858437)scale(0.1 -0.1)">
       <use xlink:href="#DejaVuSans-49"/>
       <use x="63.623047" xlink:href="#DejaVuSans-46"/>
       <use x="95.410156" xlink:href="#DejaVuSans-48"/>
      </g>
     </g>
    </g>
    <g id="text_7">
     <!-- % Identity -->
     <defs>
      <path d="M 72.703125 32.078125 
Q 68.453125 32.078125 66.03125 28.46875 
Q 63.625 24.859375 63.625 18.40625 
Q 63.625 12.0625 66.03125 8.421875 
Q 68.453125 4.78125 72.703125 4.78125 
Q 76.859375 4.78125 79.265625 8.421875 
Q 81.6875 12.0625 81.6875 18.40625 
Q 81.6875 24.8125 79.265625 28.4375 
Q 76.859375 32.078125 72.703125 32.078125 
z
M 72.703125 38.28125 
Q 80.421875 38.28125 84.953125 32.90625 
Q 89.5 27.546875 89.5 18.40625 
Q 89.5 9.28125 84.9375 3.921875 
Q 80.375 -1.421875 72.703125 -1.421875 
Q 64.890625 -1.421875 60.34375 3.921875 
Q 55.8125 9.28125 55.8125 18.40625 
Q 55.8125 27.59375 60.375 32.9375 
Q 64.9375 38.28125 72.703125 38.28125 
z
M 22.3125 68.015625 
Q 18.109375 68.015625 15.6875 64.375 
Q 13.28125 60.75 13.28125 54.390625 
Q 13.28125 47.953125 15.671875 44.328125 
Q 18.0625 40.71875 22.3125 40.71875 
Q 26.5625 40.71875 28.96875 44.328125 
Q 31.390625 47.953125 31.390625 54.390625 
Q 31.390625 60.6875 28.953125 64.34375 
Q 26.515625 68.015625 22.3125 68.015625 
z
M 66.40625 74.21875 
L 74.21875 74.21875 
L 28.609375 -1.421875 
L 20.796875 -1.421875 
z
M 22.3125 74.21875 
Q 30.03125 74.21875 34.609375 68.875 
Q 39.203125 63.53125 39.203125 54.390625 
Q 39.203125 45.171875 34.640625 39.84375 
Q 30.078125 34.515625 22.3125 34.515625 
Q 14.546875 34.515625 10.03125 39.859375 
Q 5.515625 45.21875 5.515625 54.390625 
Q 5.515625 63.484375 10.046875 68.84375 
Q 14.59375 74.21875 22.3125 74.21875 
z
" id="DejaVuSans-37"/>
      <path id="DejaVuSans-32"/>
      <path d="M 9.8125 72.90625 
L 19.671875 72.90625 
L 19.671875 0 
L 9.8125 0 
z
" id="DejaVuSans-73"/>
      <path d="M 45.40625 46.390625 
L 45.40625 75.984375 
L 54.390625 75.984375 
L 54.390625 0 
L 45.40625 0 
L 45.40625 8.203125 
Q 42.578125 3.328125 38.25 0.953125 
Q 33.9375 -1.421875 27.875 -1.421875 
Q 17.96875 -1.421875 11.734375 6.484375 
Q 5.515625 14.40625 5.515625 27.296875 
Q 5.515625 40.1875 11.734375 48.09375 
Q 17.96875 56 27.875 56 
Q 33.9375 56 38.25 53.625 
Q 42.578125 51.265625 45.40625 46.390625 
z
M 14.796875 27.296875 
Q 14.796875 17.390625 18.875 11.75 
Q 22.953125 6.109375 30.078125 6.109375 
Q 37.203125 6.109375 41.296875 11.75 
Q 45.40625 17.390625 45.40625 27.296875 
Q 45.40625 37.203125 41.296875 42.84375 
Q 37.203125 48.484375 30.078125 48.484375 
Q 22.953125 48.484375 18.875 42.84375 
Q 14.796875 37.203125 14.796875 27.296875 
z
" id="DejaVuSans-100"/>
      <path d="M 56.203125 29.59375 
L 56.203125 25.203125 
L 14.890625 25.203125 
Q 15.484375 15.921875 20.484375 11.0625 
Q 25.484375 6.203125 34.421875 6.203125 
Q 39.59375 6.203125 44.453125 7.46875 
Q 49.3125 8.734375 54.109375 11.28125 
L 54.109375 2.78125 
Q 49.265625 0.734375 44.1875 -0.34375 
Q 39.109375 -1.421875 33.890625 -1.421875 
Q 20.796875 -1.421875 13.15625 6.1875 
Q 5.515625 13.8125 5.515625 26.8125 
Q 5.515625 40.234375 12.765625 48.109375 
Q 20.015625 56 32.328125 56 
Q 43.359375 56 49.78125 48.890625 
Q 56.203125 41.796875 56.203125 29.59375 
z
M 47.21875 32.234375 
Q 47.125 39.59375 43.09375 43.984375 
Q 39.0625 48.390625 32.421875 48.390625 
Q 24.90625 48.390625 20.390625 44.140625 
Q 15.875 39.890625 15.1875 32.171875 
z
" id="DejaVuSans-101"/>
      <path d="M 54.890625 33.015625 
L 54.890625 0 
L 45.90625 0 
L 45.90625 32.71875 
Q 45.90625 40.484375 42.875 44.328125 
Q 39.84375 48.1875 33.796875 48.1875 
Q 26.515625 48.1875 22.3125 43.546875 
Q 18.109375 38.921875 18.109375 30.90625 
L 18.109375 0 
L 9.078125 0 
L 9.078125 54.6875 
L 18.109375 54.6875 
L 18.109375 46.1875 
Q 21.34375 51.125 25.703125 53.5625 
Q 30.078125 56 35.796875 56 
Q 45.21875 56 50.046875 50.171875 
Q 54.890625 44.34375 54.890625 33.015625 
z
" id="DejaVuSans-110"/>
      <path d="M 18.3125 70.21875 
L 18.3125 54.6875 
L 36.8125 54.6875 
L 36.8125 47.703125 
L 18.3125 47.703125 
L 18.3125 18.015625 
Q 18.3125 11.328125 20.140625 9.421875 
Q 21.96875 7.515625 27.59375 7.515625 
L 36.8125 7.515625 
L 36.8125 0 
L 27.59375 0 
Q 17.1875 0 13.234375 3.875 
Q 9.28125 7.765625 9.28125 18.015625 
L 9.28125 47.703125 
L 2.6875 47.703125 
L 2.6875 54.6875 
L 9.28125 54.6875 
L 9.28125 70.21875 
z
" id="DejaVuSans-116"/>
      <path d="M 9.421875 54.6875 
L 18.40625 54.6875 
L 18.40625 0 
L 9.421875 0 
z
M 9.421875 75.984375 
L 18.40625 75.984375 
L 18.40625 64.59375 
L 9.421875 64.59375 
z
" id="DejaVuSans-105"/>
      <path d="M 32.171875 -5.078125 
Q 28.375 -14.84375 24.75 -17.8125 
Q 21.140625 -20.796875 15.09375 -20.796875 
L 7.90625 -20.796875 
L 7.90625 -13.28125 
L 13.1875 -13.28125 
Q 16.890625 -13.28125 18.9375 -11.515625 
Q 21 -9.765625 23.484375 -3.21875 
L 25.09375 0.875 
L 2.984375 54.6875 
L 12.5 54.6875 
L 29.59375 11.921875 
L 46.6875 54.6875 
L 56.203125 54.6875 
z
" id="DejaVuSans-121"/>
     </defs>
     <g transform="translate(218.609375 176.536562)scale(0.1 -0.1)">
      <use xlink:href="#DejaVuSans-37"/>
      <use x="95.019531" xlink:href="#DejaVuSans-32"/>
      <use x="126.806641" xlink:href="#DejaVuSans-73"/>
      <use x="156.298828" xlink:href="#DejaVuSans-100"/>
      <use x="219.775391" xlink:href="#DejaVuSans-101"/>
      <use x="281.298828" xlink:href="#DejaVuSans-110"/>
      <use x="344.677734" xlink:href="#DejaVuSans-116"/>
      <use x="383.886719" xlink:href="#DejaVuSans-105"/>
      <use x="411.669922" xlink:href="#DejaVuSans-116"/>
      <use x="450.878906" xlink:href="#DejaVuSans-121"/>
     </g>
    </g>
   </g>
   <g id="matplotlib.axis_2">
    <g id="ytick_1">
     <g id="line2d_7">
      <defs>
       <path d="M 0 0 
L -3.5 0 
" id="m744cc7a042" style="stroke:#000000;stroke-width:0.8;"/>
      </defs>
      <g>
       <use style="stroke:#000000;stroke-width:0.8;" x="50.87" xlink:href="#m744cc7a042" y="148.26"/>
      </g>
     </g>
     <g id="text_8">
      <!-- 0 -->
      <g transform="translate(37.5075 152.059219)scale(0.1 -0.1)">
       <use xlink:href="#DejaVuSans-48"/>
      </g>
     </g>
    </g>
    <g id="ytick_2">
     <g id="line2d_8">
      <g>
       <use style="stroke:#000000;stroke-width:0.8;" x="50.87" xlink:href="#m744cc7a042" y="117.375"/>
      </g>
     </g>
     <g id="text_9">
      <!-- 100 -->
      <g transform="translate(24.7825 121.174219)scale(0.1 -0.1)">
       <use xlink:href="#DejaVuSans-49"/>
       <use x="63.623047" xlink:href="#DejaVuSans-48"/>
       <use x="127.246094" xlink:href="#DejaVuSans-48"/>
      </g>
     </g>
    </g>
    <g id="ytick_3">
     <g id="line2d_9">
      <g>
       <use style="stroke:#000000;stroke-width:0.8;" x="50.87" xlink:href="#m744cc7a042" y="86.49"/>
      </g>
     </g>
     <g id="text_10">
      <!-- 200 -->
      <g transform="translate(24.7825 90.289219)scale(0.1 -0.1)">
       <use xlink:href="#DejaVuSans-50"/>
       <use x="63.623047" xlink:href="#DejaVuSans-48"/>
       <use x="127.246094" xlink:href="#DejaVuSans-48"/>
      </g>
     </g>
    </g>
    <g id="ytick_4">
     <g id="line2d_10">
      <g>
       <use style="stroke:#000000;stroke-width:0.8;" x="50.87" xlink:href="#m744cc7a042" y="55.605"/>
      </g>
     </g>
     <g id="text_11">
      <!-- 300 -->
      <defs>
       <path d="M 40.578125 39.3125 
Q 47.65625 37.796875 51.625 33 
Q 55.609375 28.21875 55.609375 21.1875 
Q 55.609375 10.40625 48.1875 4.484375 
Q 40.765625 -1.421875 27.09375 -1.421875 
Q 22.515625 -1.421875 17.65625 -0.515625 
Q 12.796875 0.390625 7.625 2.203125 
L 7.625 11.71875 
Q 11.71875 9.328125 16.59375 8.109375 
Q 21.484375 6.890625 26.8125 6.890625 
Q 36.078125 6.890625 40.9375 10.546875 
Q 45.796875 14.203125 45.796875 21.1875 
Q 45.796875 27.640625 41.28125 31.265625 
Q 36.765625 34.90625 28.71875 34.90625 
L 20.21875 34.90625 
L 20.21875 43.015625 
L 29.109375 43.015625 
Q 36.375 43.015625 40.234375 45.921875 
Q 44.09375 48.828125 44.09375 54.296875 
Q 44.09375 59.90625 40.109375 62.90625 
Q 36.140625 65.921875 28.71875 65.921875 
Q 24.65625 65.921875 20.015625 65.03125 
Q 15.375 64.15625 9.8125 62.3125 
L 9.8125 71.09375 
Q 15.4375 72.65625 20.34375 73.4375 
Q 25.25 74.21875 29.59375 74.21875 
Q 40.828125 74.21875 47.359375 69.109375 
Q 53.90625 64.015625 53.90625 55.328125 
Q 53.90625 49.265625 50.4375 45.09375 
Q 46.96875 40.921875 40.578125 39.3125 
z
" id="DejaVuSans-51"/>
      </defs>
      <g transform="translate(24.7825 59.404219)scale(0.1 -0.1)">
       <use xlink:href="#DejaVuSans-51"/>
       <use x="63.623047" xlink:href="#DejaVuSans-48"/>
       <use x="127.246094" xlink:href="#DejaVuSans-48"/>
      </g>
     </g>
    </g>
    <g id="ytick_5">
     <g id="line2d_11">
      <g>
       <use style="stroke:#000000;stroke-width:0.8;" x="50.87" xlink:href="#m744cc7a042" y="24.72"/>
      </g>
     </g>
     <g id="text_12">
      <!-- 400 -->
      <g transform="translate(24.7825 28.519219)scale(0.1 -0.1)">
       <use xlink:href="#DejaVuSans-52"/>
       <use x="63.623047" xlink:href="#DejaVuSans-48"/>
       <use x="127.246094" xlink:href="#DejaVuSans-48"/>
      </g>
     </g>
    </g>
    <g id="text_13">
     <!-- Count -->
     <defs>
      <path d="M 64.40625 67.28125 
L 64.40625 56.890625 
Q 59.421875 61.53125 53.78125 63.8125 
Q 48.140625 66.109375 41.796875 66.109375 
Q 29.296875 66.109375 22.65625 58.46875 
Q 16.015625 50.828125 16.015625 36.375 
Q 16.015625 21.96875 22.65625 14.328125 
Q 29.296875 6.6875 41.796875 6.6875 
Q 48.140625 6.6875 53.78125 8.984375 
Q 59.421875 11.28125 64.40625 15.921875 
L 64.40625 5.609375 
Q 59.234375 2.09375 53.4375 0.328125 
Q 47.65625 -1.421875 41.21875 -1.421875 
Q 24.65625 -1.421875 15.125 8.703125 
Q 5.609375 18.84375 5.609375 36.375 
Q 5.609375 53.953125 15.125 64.078125 
Q 24.65625 74.21875 41.21875 74.21875 
Q 47.75 74.21875 53.53125 72.484375 
Q 59.328125 70.75 64.40625 67.28125 
z
" id="DejaVuSans-67"/>
      <path d="M 30.609375 48.390625 
Q 23.390625 48.390625 19.1875 42.75 
Q 14.984375 37.109375 14.984375 27.296875 
Q 14.984375 17.484375 19.15625 11.84375 
Q 23.34375 6.203125 30.609375 6.203125 
Q 37.796875 6.203125 41.984375 11.859375 
Q 46.1875 17.53125 46.1875 27.296875 
Q 46.1875 37.015625 41.984375 42.703125 
Q 37.796875 48.390625 30.609375 48.390625 
z
M 30.609375 56 
Q 42.328125 56 49.015625 48.375 
Q 55.71875 40.765625 55.71875 27.296875 
Q 55.71875 13.875 49.015625 6.21875 
Q 42.328125 -1.421875 30.609375 -1.421875 
Q 18.84375 -1.421875 12.171875 6.21875 
Q 5.515625 13.875 5.515625 27.296875 
Q 5.515625 40.765625 12.171875 48.375 
Q 18.84375 56 30.609375 56 
z
" id="DejaVuSans-111"/>
      <path d="M 8.5 21.578125 
L 8.5 54.6875 
L 17.484375 54.6875 
L 17.484375 21.921875 
Q 17.484375 14.15625 20.5 10.265625 
Q 23.53125 6.390625 29.59375 6.390625 
Q 36.859375 6.390625 41.078125 11.03125 
Q 45.3125 15.671875 45.3125 23.6875 
L 45.3125 54.6875 
L 54.296875 54.6875 
L 54.296875 0 
L 45.3125 0 
L 45.3125 8.40625 
Q 42.046875 3.421875 37.71875 1 
Q 33.40625 -1.421875 27.6875 -1.421875 
Q 18.265625 -1.421875 13.375 4.4375 
Q 8.5 10.296875 8.5 21.578125 
z
M 31.109375 56 
z
" id="DejaVuSans-117"/>
     </defs>
     <g transform="translate(18.702813 101.338437)rotate(-90)scale(0.1 -0.1)">
      <use xlink:href="#DejaVuSans-67"/>
      <use x="69.824219" xlink:href="#DejaVuSans-111"/>
      <use x="131.005859" xlink:href="#DejaVuSans-117"/>
      <use x="194.384766" xlink:href="#DejaVuSans-110"/>
      <use x="257.763672" xlink:href="#DejaVuSans-116"/>
     </g>
    </g>
   </g>
   <g id="line2d_12">
    <path clip-path="url(#p6e5c7787c2)" d="M 52.802425 148.26 
L 56.667275 147.95115 
L 60.532125 142.39185 
L 64.396975 134.97945 
L 68.261825 144.86265 
L 72.126675 145.1715 
L 75.991525 145.1715 
L 79.856375 145.48035 
L 83.721225 143.62725 
L 87.586075 145.48035 
L 91.450925 145.1715 
L 95.315775 143.00955 
L 99.180625 144.24495 
L 103.045475 140.53875 
L 106.910325 135.59715 
L 110.775175 126.6405 
L 114.640025 61.782 
L 118.504875 42.32445 
L 122.369725 126.6405 
L 126.234575 119.2281 
L 130.099425 91.74045 
L 133.964275 81.23955 
L 137.829125 104.09445 
L 141.693975 124.47855 
L 145.558825 144.24495 
L 149.423675 145.48035 
L 153.288525 146.09805 
L 157.153375 147.33345 
L 161.018225 145.1715 
L 164.883075 141.77415 
L 168.747925 143.00955 
L 172.612775 130.03785 
L 176.477625 127.56705 
L 180.342475 144.86265 
L 184.207325 146.71575 
L 188.072175 148.26 
L 191.937025 147.95115 
L 195.801875 143.00955 
L 199.666725 147.33345 
L 203.531575 148.26 
L 207.396425 148.26 
L 211.261275 148.26 
L 215.126125 147.95115 
L 218.990975 147.95115 
L 222.855825 147.95115 
L 226.720675 147.95115 
L 230.585525 147.95115 
L 234.450375 148.26 
L 238.315225 148.26 
L 242.180075 148.26 
L 246.044925 148.26 
L 249.909775 147.95115 
L 253.774625 147.33345 
L 257.639475 146.09805 
L 261.504325 147.95115 
L 265.369175 147.95115 
L 269.234025 147.95115 
L 273.098875 147.33345 
L 276.963725 147.6423 
L 280.828575 146.09805 
L 284.693425 142.7007 
L 288.558275 148.26 
L 292.423125 148.26 
L 296.287975 148.26 
L 300.152825 148.26 
L 304.017675 148.26 
L 307.882525 148.26 
L 311.747375 148.26 
L 315.612225 148.26 
L 319.477075 148.26 
L 323.341925 148.26 
L 327.206775 148.26 
L 331.071625 148.26 
L 334.936475 148.26 
L 338.801325 148.26 
L 342.666175 148.26 
L 346.531025 148.26 
L 350.395875 148.26 
L 354.260725 148.26 
L 358.125575 148.26 
L 361.990425 148.26 
L 365.855275 148.26 
L 369.720125 148.26 
L 373.584975 148.26 
L 377.449825 148.26 
L 381.314675 148.26 
L 385.179525 148.26 
L 389.044375 148.26 
L 392.909225 148.26 
L 396.774075 148.26 
L 400.638925 148.26 
L 404.503775 148.26 
L 408.368625 148.26 
L 412.233475 147.95115 
L 416.098325 147.0246 
L 419.963175 146.4069 
L 423.828025 143.62725 
L 427.692875 138.9945 
L 431.557725 130.03785 
L 435.422575 147.6423 
" style="fill:none;stroke:#1f77b4;"/>
   </g>
   <g id="line2d_13">
    <path clip-path="url(#p6e5c7787c2)" d="M 166.8155 148.26 
L 166.8155 24.72 
" style="fill:none;stroke:#ff0000;"/>
   </g>
   <g id="patch_3">
    <path d="M 50.87 148.26 
L 50.87 24.72 
" style="fill:none;stroke:#000000;stroke-linecap:square;stroke-linejoin:miter;stroke-width:0.8;"/>
   </g>
   <g id="patch_4">
    <path d="M 437.355 148.26 
L 437.355 24.72 
" style="fill:none;stroke:#000000;stroke-linecap:square;stroke-linejoin:miter;stroke-width:0.8;"/>
   </g>
   <g id="patch_5">
    <path d="M 50.87 148.26 
L 437.355 148.26 
" style="fill:none;stroke:#000000;stroke-linecap:square;stroke-linejoin:miter;stroke-width:0.8;"/>
   </g>
   <g id="patch_6">
    <path d="M 50.87 24.72 
L 437.355 24.72 
" style="fill:none;stroke:#000000;stroke-linecap:square;stroke-linejoin:miter;stroke-width:0.8;"/>
   </g>
   <g id="text_14">
    <!-- cj_cas9/blast_refseq_5000/mafft -->
    <defs>
     <path d="M 48.78125 52.59375 
L 48.78125 44.1875 
Q 44.96875 46.296875 41.140625 47.34375 
Q 37.3125 48.390625 33.40625 48.390625 
Q 24.65625 48.390625 19.8125 42.84375 
Q 14.984375 37.3125 14.984375 27.296875 
Q 14.984375 17.28125 19.8125 11.734375 
Q 24.65625 6.203125 33.40625 6.203125 
Q 37.3125 6.203125 41.140625 7.25 
Q 44.96875 8.296875 48.78125 10.40625 
L 48.78125 2.09375 
Q 45.015625 0.34375 40.984375 -0.53125 
Q 36.96875 -1.421875 32.421875 -1.421875 
Q 20.0625 -1.421875 12.78125 6.34375 
Q 5.515625 14.109375 5.515625 27.296875 
Q 5.515625 40.671875 12.859375 48.328125 
Q 20.21875 56 33.015625 56 
Q 37.15625 56 41.109375 55.140625 
Q 45.0625 54.296875 48.78125 52.59375 
z
" id="DejaVuSans-99"/>
     <path d="M 9.421875 54.6875 
L 18.40625 54.6875 
L 18.40625 -0.984375 
Q 18.40625 -11.421875 14.421875 -16.109375 
Q 10.453125 -20.796875 1.609375 -20.796875 
L -1.8125 -20.796875 
L -1.8125 -13.1875 
L 0.59375 -13.1875 
Q 5.71875 -13.1875 7.5625 -10.8125 
Q 9.421875 -8.453125 9.421875 -0.984375 
z
M 9.421875 75.984375 
L 18.40625 75.984375 
L 18.40625 64.59375 
L 9.421875 64.59375 
z
" id="DejaVuSans-106"/>
     <path d="M 50.984375 -16.609375 
L 50.984375 -23.578125 
L -0.984375 -23.578125 
L -0.984375 -16.609375 
z
" id="DejaVuSans-95"/>
     <path d="M 34.28125 27.484375 
Q 23.390625 27.484375 19.1875 25 
Q 14.984375 22.515625 14.984375 16.5 
Q 14.984375 11.71875 18.140625 8.90625 
Q 21.296875 6.109375 26.703125 6.109375 
Q 34.1875 6.109375 38.703125 11.40625 
Q 43.21875 16.703125 43.21875 25.484375 
L 43.21875 27.484375 
z
M 52.203125 31.203125 
L 52.203125 0 
L 43.21875 0 
L 43.21875 8.296875 
Q 40.140625 3.328125 35.546875 0.953125 
Q 30.953125 -1.421875 24.3125 -1.421875 
Q 15.921875 -1.421875 10.953125 3.296875 
Q 6 8.015625 6 15.921875 
Q 6 25.140625 12.171875 29.828125 
Q 18.359375 34.515625 30.609375 34.515625 
L 43.21875 34.515625 
L 43.21875 35.40625 
Q 43.21875 41.609375 39.140625 45 
Q 35.0625 48.390625 27.6875 48.390625 
Q 23 48.390625 18.546875 47.265625 
Q 14.109375 46.140625 10.015625 43.890625 
L 10.015625 52.203125 
Q 14.9375 54.109375 19.578125 55.046875 
Q 24.21875 56 28.609375 56 
Q 40.484375 56 46.34375 49.84375 
Q 52.203125 43.703125 52.203125 31.203125 
z
" id="DejaVuSans-97"/>
     <path d="M 44.28125 53.078125 
L 44.28125 44.578125 
Q 40.484375 46.53125 36.375 47.5 
Q 32.28125 48.484375 27.875 48.484375 
Q 21.1875 48.484375 17.84375 46.4375 
Q 14.5 44.390625 14.5 40.28125 
Q 14.5 37.15625 16.890625 35.375 
Q 19.28125 33.59375 26.515625 31.984375 
L 29.59375 31.296875 
Q 39.15625 29.25 43.1875 25.515625 
Q 47.21875 21.78125 47.21875 15.09375 
Q 47.21875 7.46875 41.1875 3.015625 
Q 35.15625 -1.421875 24.609375 -1.421875 
Q 20.21875 -1.421875 15.453125 -0.5625 
Q 10.6875 0.296875 5.421875 2 
L 5.421875 11.28125 
Q 10.40625 8.6875 15.234375 7.390625 
Q 20.0625 6.109375 24.8125 6.109375 
Q 31.15625 6.109375 34.5625 8.28125 
Q 37.984375 10.453125 37.984375 14.40625 
Q 37.984375 18.0625 35.515625 20.015625 
Q 33.0625 21.96875 24.703125 23.78125 
L 21.578125 24.515625 
Q 13.234375 26.265625 9.515625 29.90625 
Q 5.8125 33.546875 5.8125 39.890625 
Q 5.8125 47.609375 11.28125 51.796875 
Q 16.75 56 26.8125 56 
Q 31.78125 56 36.171875 55.265625 
Q 40.578125 54.546875 44.28125 53.078125 
z
" id="DejaVuSans-115"/>
     <path d="M 10.984375 1.515625 
L 10.984375 10.5 
Q 14.703125 8.734375 18.5 7.8125 
Q 22.3125 6.890625 25.984375 6.890625 
Q 35.75 6.890625 40.890625 13.453125 
Q 46.046875 20.015625 46.78125 33.40625 
Q 43.953125 29.203125 39.59375 26.953125 
Q 35.25 24.703125 29.984375 24.703125 
Q 19.046875 24.703125 12.671875 31.3125 
Q 6.296875 37.9375 6.296875 49.421875 
Q 6.296875 60.640625 12.9375 67.421875 
Q 19.578125 74.21875 30.609375 74.21875 
Q 43.265625 74.21875 49.921875 64.515625 
Q 56.59375 54.828125 56.59375 36.375 
Q 56.59375 19.140625 48.40625 8.859375 
Q 40.234375 -1.421875 26.421875 -1.421875 
Q 22.703125 -1.421875 18.890625 -0.6875 
Q 15.09375 0.046875 10.984375 1.515625 
z
M 30.609375 32.421875 
Q 37.25 32.421875 41.125 36.953125 
Q 45.015625 41.5 45.015625 49.421875 
Q 45.015625 57.28125 41.125 61.84375 
Q 37.25 66.40625 30.609375 66.40625 
Q 23.96875 66.40625 20.09375 61.84375 
Q 16.21875 57.28125 16.21875 49.421875 
Q 16.21875 41.5 20.09375 36.953125 
Q 23.96875 32.421875 30.609375 32.421875 
z
" id="DejaVuSans-57"/>
     <path d="M 25.390625 72.90625 
L 33.6875 72.90625 
L 8.296875 -9.28125 
L 0 -9.28125 
z
" id="DejaVuSans-47"/>
     <path d="M 48.6875 27.296875 
Q 48.6875 37.203125 44.609375 42.84375 
Q 40.53125 48.484375 33.40625 48.484375 
Q 26.265625 48.484375 22.1875 42.84375 
Q 18.109375 37.203125 18.109375 27.296875 
Q 18.109375 17.390625 22.1875 11.75 
Q 26.265625 6.109375 33.40625 6.109375 
Q 40.53125 6.109375 44.609375 11.75 
Q 48.6875 17.390625 48.6875 27.296875 
z
M 18.109375 46.390625 
Q 20.953125 51.265625 25.265625 53.625 
Q 29.59375 56 35.59375 56 
Q 45.5625 56 51.78125 48.09375 
Q 58.015625 40.1875 58.015625 27.296875 
Q 58.015625 14.40625 51.78125 6.484375 
Q 45.5625 -1.421875 35.59375 -1.421875 
Q 29.59375 -1.421875 25.265625 0.953125 
Q 20.953125 3.328125 18.109375 8.203125 
L 18.109375 0 
L 9.078125 0 
L 9.078125 75.984375 
L 18.109375 75.984375 
z
" id="DejaVuSans-98"/>
     <path d="M 9.421875 75.984375 
L 18.40625 75.984375 
L 18.40625 0 
L 9.421875 0 
z
" id="DejaVuSans-108"/>
     <path d="M 41.109375 46.296875 
Q 39.59375 47.171875 37.8125 47.578125 
Q 36.03125 48 33.890625 48 
Q 26.265625 48 22.1875 43.046875 
Q 18.109375 38.09375 18.109375 28.8125 
L 18.109375 0 
L 9.078125 0 
L 9.078125 54.6875 
L 18.109375 54.6875 
L 18.109375 46.1875 
Q 20.953125 51.171875 25.484375 53.578125 
Q 30.03125 56 36.53125 56 
Q 37.453125 56 38.578125 55.875 
Q 39.703125 55.765625 41.0625 55.515625 
z
" id="DejaVuSans-114"/>
     <path d="M 37.109375 75.984375 
L 37.109375 68.5 
L 28.515625 68.5 
Q 23.6875 68.5 21.796875 66.546875 
Q 19.921875 64.59375 19.921875 59.515625 
L 19.921875 54.6875 
L 34.71875 54.6875 
L 34.71875 47.703125 
L 19.921875 47.703125 
L 19.921875 0 
L 10.890625 0 
L 10.890625 47.703125 
L 2.296875 47.703125 
L 2.296875 54.6875 
L 10.890625 54.6875 
L 10.890625 58.5 
Q 10.890625 67.625 15.140625 71.796875 
Q 19.390625 75.984375 28.609375 75.984375 
z
" id="DejaVuSans-102"/>
     <path d="M 14.796875 27.296875 
Q 14.796875 17.390625 18.875 11.75 
Q 22.953125 6.109375 30.078125 6.109375 
Q 37.203125 6.109375 41.296875 11.75 
Q 45.40625 17.390625 45.40625 27.296875 
Q 45.40625 37.203125 41.296875 42.84375 
Q 37.203125 48.484375 30.078125 48.484375 
Q 22.953125 48.484375 18.875 42.84375 
Q 14.796875 37.203125 14.796875 27.296875 
z
M 45.40625 8.203125 
Q 42.578125 3.328125 38.25 0.953125 
Q 33.9375 -1.421875 27.875 -1.421875 
Q 17.96875 -1.421875 11.734375 6.484375 
Q 5.515625 14.40625 5.515625 27.296875 
Q 5.515625 40.1875 11.734375 48.09375 
Q 17.96875 56 27.875 56 
Q 33.9375 56 38.25 53.625 
Q 42.578125 51.265625 45.40625 46.390625 
L 45.40625 54.6875 
L 54.390625 54.6875 
L 54.390625 -20.796875 
L 45.40625 -20.796875 
z
" id="DejaVuSans-113"/>
     <path d="M 10.796875 72.90625 
L 49.515625 72.90625 
L 49.515625 64.59375 
L 19.828125 64.59375 
L 19.828125 46.734375 
Q 21.96875 47.46875 24.109375 47.828125 
Q 26.265625 48.1875 28.421875 48.1875 
Q 40.625 48.1875 47.75 41.5 
Q 54.890625 34.8125 54.890625 23.390625 
Q 54.890625 11.625 47.5625 5.09375 
Q 40.234375 -1.421875 26.90625 -1.421875 
Q 22.3125 -1.421875 17.546875 -0.640625 
Q 12.796875 0.140625 7.71875 1.703125 
L 7.71875 11.625 
Q 12.109375 9.234375 16.796875 8.0625 
Q 21.484375 6.890625 26.703125 6.890625 
Q 35.15625 6.890625 40.078125 11.328125 
Q 45.015625 15.765625 45.015625 23.390625 
Q 45.015625 31 40.078125 35.4375 
Q 35.15625 39.890625 26.703125 39.890625 
Q 22.75 39.890625 18.8125 39.015625 
Q 14.890625 38.140625 10.796875 36.28125 
z
" id="DejaVuSans-53"/>
     <path d="M 52 44.1875 
Q 55.375 50.25 60.0625 53.125 
Q 64.75 56 71.09375 56 
Q 79.640625 56 84.28125 50.015625 
Q 88.921875 44.046875 88.921875 33.015625 
L 88.921875 0 
L 79.890625 0 
L 79.890625 32.71875 
Q 79.890625 40.578125 77.09375 44.375 
Q 74.3125 48.1875 68.609375 48.1875 
Q 61.625 48.1875 57.5625 43.546875 
Q 53.515625 38.921875 53.515625 30.90625 
L 53.515625 0 
L 44.484375 0 
L 44.484375 32.71875 
Q 44.484375 40.625 41.703125 44.40625 
Q 38.921875 48.1875 33.109375 48.1875 
Q 26.21875 48.1875 22.15625 43.53125 
Q 18.109375 38.875 18.109375 30.90625 
L 18.109375 0 
L 9.078125 0 
L 9.078125 54.6875 
L 18.109375 54.6875 
L 18.109375 46.1875 
Q 21.1875 51.21875 25.484375 53.609375 
Q 29.78125 56 35.6875 56 
Q 41.65625 56 45.828125 52.96875 
Q 50 49.953125 52 44.1875 
z
" id="DejaVuSans-109"/>
    </defs>
    <g transform="translate(163.428906 18.72)scale(0.1 -0.1)">
     <use xlink:href="#DejaVuSans-99"/>
     <use x="54.980469" xlink:href="#DejaVuSans-106"/>
     <use x="82.763672" xlink:href="#DejaVuSans-95"/>
     <use x="132.763672" xlink:href="#DejaVuSans-99"/>
     <use x="187.744141" xlink:href="#DejaVuSans-97"/>
     <use x="249.023438" xlink:href="#DejaVuSans-115"/>
     <use x="301.123047" xlink:href="#DejaVuSans-57"/>
     <use x="364.746094" xlink:href="#DejaVuSans-47"/>
     <use x="398.4375" xlink:href="#DejaVuSans-98"/>
     <use x="461.914062" xlink:href="#DejaVuSans-108"/>
     <use x="489.697266" xlink:href="#DejaVuSans-97"/>
     <use x="550.976562" xlink:href="#DejaVuSans-115"/>
     <use x="603.076172" xlink:href="#DejaVuSans-116"/>
     <use x="642.285156" xlink:href="#DejaVuSans-95"/>
     <use x="692.285156" xlink:href="#DejaVuSans-114"/>
     <use x="733.367188" xlink:href="#DejaVuSans-101"/>
     <use x="794.890625" xlink:href="#DejaVuSans-102"/>
     <use x="830.095703" xlink:href="#DejaVuSans-115"/>
     <use x="882.195312" xlink:href="#DejaVuSans-101"/>
     <use x="943.71875" xlink:href="#DejaVuSans-113"/>
     <use x="1007.195312" xlink:href="#DejaVuSans-95"/>
     <use x="1057.195312" xlink:href="#DejaVuSans-53"/>
     <use x="1120.818359" xlink:href="#DejaVuSans-48"/>
     <use x="1184.441406" xlink:href="#DejaVuSans-48"/>
     <use x="1248.064453" xlink:href="#DejaVuSans-48"/>
     <use x="1311.6875" xlink:href="#DejaVuSans-47"/>
     <use x="1345.378906" xlink:href="#DejaVuSans-109"/>
     <use x="1442.791016" xlink:href="#DejaVuSans-97"/>
     <use x="1504.070312" xlink:href="#DejaVuSans-102"/>
     <use x="1539.275391" xlink:href="#DejaVuSans-102"/>
     <use x="1574.464844" xlink:href="#DejaVuSans-116"/>
    </g>
   </g>
  </g>
  <g id="axes_2">
   <g id="patch_7">
    <path d="M 50.87 317.72 
L 437.355 317.72 
L 437.355 194.18 
L 50.87 194.18 
z
" style="fill:#ffffff;"/>
   </g>
   <g id="matplotlib.axis_3">
    <g id="xtick_7">
     <g id="line2d_14">
      <g>
       <use style="stroke:#000000;stroke-width:0.8;" x="50.87" xlink:href="#mf0190a77fd" y="317.72"/>
      </g>
     </g>
     <g id="text_15">
      <!-- 0 -->
      <g transform="translate(47.68875 332.318437)scale(0.1 -0.1)">
       <use xlink:href="#DejaVuSans-48"/>
      </g>
     </g>
    </g>
    <g id="xtick_8">
     <g id="line2d_15">
      <g>
       <use style="stroke:#000000;stroke-width:0.8;" x="128.790363" xlink:href="#mf0190a77fd" y="317.72"/>
      </g>
     </g>
     <g id="text_16">
      <!-- 200 -->
      <g transform="translate(119.246613 332.318437)scale(0.1 -0.1)">
       <use xlink:href="#DejaVuSans-50"/>
       <use x="63.623047" xlink:href="#DejaVuSans-48"/>
       <use x="127.246094" xlink:href="#DejaVuSans-48"/>
      </g>
     </g>
    </g>
    <g id="xtick_9">
     <g id="line2d_16">
      <g>
       <use style="stroke:#000000;stroke-width:0.8;" x="206.710726" xlink:href="#mf0190a77fd" y="317.72"/>
      </g>
     </g>
     <g id="text_17">
      <!-- 400 -->
      <g transform="translate(197.166976 332.318437)scale(0.1 -0.1)">
       <use xlink:href="#DejaVuSans-52"/>
       <use x="63.623047" xlink:href="#DejaVuSans-48"/>
       <use x="127.246094" xlink:href="#DejaVuSans-48"/>
      </g>
     </g>
    </g>
    <g id="xtick_10">
     <g id="line2d_17">
      <g>
       <use style="stroke:#000000;stroke-width:0.8;" x="284.631089" xlink:href="#mf0190a77fd" y="317.72"/>
      </g>
     </g>
     <g id="text_18">
      <!-- 600 -->
      <g transform="translate(275.087339 332.318437)scale(0.1 -0.1)">
       <use xlink:href="#DejaVuSans-54"/>
       <use x="63.623047" xlink:href="#DejaVuSans-48"/>
       <use x="127.246094" xlink:href="#DejaVuSans-48"/>
      </g>
     </g>
    </g>
    <g id="xtick_11">
     <g id="line2d_18">
      <g>
       <use style="stroke:#000000;stroke-width:0.8;" x="362.551452" xlink:href="#mf0190a77fd" y="317.72"/>
      </g>
     </g>
     <g id="text_19">
      <!-- 800 -->
      <g transform="translate(353.007702 332.318437)scale(0.1 -0.1)">
       <use xlink:href="#DejaVuSans-56"/>
       <use x="63.623047" xlink:href="#DejaVuSans-48"/>
       <use x="127.246094" xlink:href="#DejaVuSans-48"/>
      </g>
     </g>
    </g>
    <g id="text_20">
     <!-- Residue index -->
     <defs>
      <path d="M 44.390625 34.1875 
Q 47.5625 33.109375 50.5625 29.59375 
Q 53.5625 26.078125 56.59375 19.921875 
L 66.609375 0 
L 56 0 
L 46.6875 18.703125 
Q 43.0625 26.03125 39.671875 28.421875 
Q 36.28125 30.8125 30.421875 30.8125 
L 19.671875 30.8125 
L 19.671875 0 
L 9.8125 0 
L 9.8125 72.90625 
L 32.078125 72.90625 
Q 44.578125 72.90625 50.734375 67.671875 
Q 56.890625 62.453125 56.890625 51.90625 
Q 56.890625 45.015625 53.6875 40.46875 
Q 50.484375 35.9375 44.390625 34.1875 
z
M 19.671875 64.796875 
L 19.671875 38.921875 
L 32.078125 38.921875 
Q 39.203125 38.921875 42.84375 42.21875 
Q 46.484375 45.515625 46.484375 51.90625 
Q 46.484375 58.296875 42.84375 61.546875 
Q 39.203125 64.796875 32.078125 64.796875 
z
" id="DejaVuSans-82"/>
      <path d="M 54.890625 54.6875 
L 35.109375 28.078125 
L 55.90625 0 
L 45.3125 0 
L 29.390625 21.484375 
L 13.484375 0 
L 2.875 0 
L 24.125 28.609375 
L 4.6875 54.6875 
L 15.28125 54.6875 
L 29.78125 35.203125 
L 44.28125 54.6875 
z
" id="DejaVuSans-120"/>
     </defs>
     <g transform="translate(208.795313 345.996562)scale(0.1 -0.1)">
      <use xlink:href="#DejaVuSans-82"/>
      <use x="69.419922" xlink:href="#DejaVuSans-101"/>
      <use x="130.943359" xlink:href="#DejaVuSans-115"/>
      <use x="183.042969" xlink:href="#DejaVuSans-105"/>
      <use x="210.826172" xlink:href="#DejaVuSans-100"/>
      <use x="274.302734" xlink:href="#DejaVuSans-117"/>
      <use x="337.681641" xlink:href="#DejaVuSans-101"/>
      <use x="399.205078" xlink:href="#DejaVuSans-32"/>
      <use x="430.992188" xlink:href="#DejaVuSans-105"/>
      <use x="458.775391" xlink:href="#DejaVuSans-110"/>
      <use x="522.154297" xlink:href="#DejaVuSans-100"/>
      <use x="585.630859" xlink:href="#DejaVuSans-101"/>
      <use x="647.138672" xlink:href="#DejaVuSans-120"/>
     </g>
    </g>
   </g>
   <g id="matplotlib.axis_4">
    <g id="ytick_6">
     <g id="line2d_19">
      <g>
       <use style="stroke:#000000;stroke-width:0.8;" x="50.87" xlink:href="#m744cc7a042" y="317.72"/>
      </g>
     </g>
     <g id="text_21">
      <!-- 0 -->
      <g transform="translate(37.5075 321.519219)scale(0.1 -0.1)">
       <use xlink:href="#DejaVuSans-48"/>
      </g>
     </g>
    </g>
    <g id="ytick_7">
     <g id="line2d_20">
      <g>
       <use style="stroke:#000000;stroke-width:0.8;" x="50.87" xlink:href="#m744cc7a042" y="286.835"/>
      </g>
     </g>
     <g id="text_22">
      <!-- 100 -->
      <g transform="translate(24.7825 290.634219)scale(0.1 -0.1)">
       <use xlink:href="#DejaVuSans-49"/>
       <use x="63.623047" xlink:href="#DejaVuSans-48"/>
       <use x="127.246094" xlink:href="#DejaVuSans-48"/>
      </g>
     </g>
    </g>
    <g id="ytick_8">
     <g id="line2d_21">
      <g>
       <use style="stroke:#000000;stroke-width:0.8;" x="50.87" xlink:href="#m744cc7a042" y="255.95"/>
      </g>
     </g>
     <g id="text_23">
      <!-- 200 -->
      <g transform="translate(24.7825 259.749219)scale(0.1 -0.1)">
       <use xlink:href="#DejaVuSans-50"/>
       <use x="63.623047" xlink:href="#DejaVuSans-48"/>
       <use x="127.246094" xlink:href="#DejaVuSans-48"/>
      </g>
     </g>
    </g>
    <g id="ytick_9">
     <g id="line2d_22">
      <g>
       <use style="stroke:#000000;stroke-width:0.8;" x="50.87" xlink:href="#m744cc7a042" y="225.065"/>
      </g>
     </g>
     <g id="text_24">
      <!-- 300 -->
      <g transform="translate(24.7825 228.864219)scale(0.1 -0.1)">
       <use xlink:href="#DejaVuSans-51"/>
       <use x="63.623047" xlink:href="#DejaVuSans-48"/>
       <use x="127.246094" xlink:href="#DejaVuSans-48"/>
      </g>
     </g>
    </g>
    <g id="ytick_10">
     <g id="line2d_23">
      <g>
       <use style="stroke:#000000;stroke-width:0.8;" x="50.87" xlink:href="#m744cc7a042" y="194.18"/>
      </g>
     </g>
     <g id="text_25">
      <!-- 400 -->
      <g transform="translate(24.7825 197.979219)scale(0.1 -0.1)">
       <use xlink:href="#DejaVuSans-52"/>
       <use x="63.623047" xlink:href="#DejaVuSans-48"/>
       <use x="127.246094" xlink:href="#DejaVuSans-48"/>
      </g>
     </g>
    </g>
    <g id="text_26">
     <!-- Score -->
     <defs>
      <path d="M 53.515625 70.515625 
L 53.515625 60.890625 
Q 47.90625 63.578125 42.921875 64.890625 
Q 37.9375 66.21875 33.296875 66.21875 
Q 25.25 66.21875 20.875 63.09375 
Q 16.5 59.96875 16.5 54.203125 
Q 16.5 49.359375 19.40625 46.890625 
Q 22.3125 44.4375 30.421875 42.921875 
L 36.375 41.703125 
Q 47.40625 39.59375 52.65625 34.296875 
Q 57.90625 29 57.90625 20.125 
Q 57.90625 9.515625 50.796875 4.046875 
Q 43.703125 -1.421875 29.984375 -1.421875 
Q 24.8125 -1.421875 18.96875 -0.25 
Q 13.140625 0.921875 6.890625 3.21875 
L 6.890625 13.375 
Q 12.890625 10.015625 18.65625 8.296875 
Q 24.421875 6.59375 29.984375 6.59375 
Q 38.421875 6.59375 43.015625 9.90625 
Q 47.609375 13.234375 47.609375 19.390625 
Q 47.609375 24.75 44.3125 27.78125 
Q 41.015625 30.8125 33.5 32.328125 
L 27.484375 33.5 
Q 16.453125 35.6875 11.515625 40.375 
Q 6.59375 45.0625 6.59375 53.421875 
Q 6.59375 63.09375 13.40625 68.65625 
Q 20.21875 74.21875 32.171875 74.21875 
Q 37.3125 74.21875 42.625 73.28125 
Q 47.953125 72.359375 53.515625 70.515625 
z
" id="DejaVuSans-83"/>
     </defs>
     <g transform="translate(18.702813 270.063281)rotate(-90)scale(0.1 -0.1)">
      <use xlink:href="#DejaVuSans-83"/>
      <use x="63.476562" xlink:href="#DejaVuSans-99"/>
      <use x="118.457031" xlink:href="#DejaVuSans-111"/>
      <use x="179.638672" xlink:href="#DejaVuSans-114"/>
      <use x="220.720703" xlink:href="#DejaVuSans-101"/>
     </g>
    </g>
   </g>
   <g id="line2d_24">
    <path clip-path="url(#pf5e96a5a86)" d="M 50.87 317.33923 
L 51.259602 243.168529 
L 51.649204 304.938218 
L 52.038805 314.89147 
L 52.428407 317.467191 
L 54.766018 317.522299 
L 56.714027 317.463144 
L 57.493231 317.424538 
L 57.882833 317.468748 
L 58.272434 275.879854 
L 58.662036 294.425176 
L 59.051638 248.182983 
L 59.44124 316.880314 
L 59.830842 317.28101 
L 60.220444 316.862256 
L 60.610045 313.746358 
L 60.999647 313.447783 
L 61.389249 316.928572 
L 62.558054 316.974339 
L 62.947656 306.615722 
L 63.337258 277.596898 
L 63.72686 271.235896 
L 64.116462 260.202292 
L 64.506064 265.028073 
L 64.895665 260.774225 
L 65.285267 259.449158 
L 65.674869 300.750685 
L 66.064471 293.346069 
L 66.454073 310.713588 
L 66.843674 310.829407 
L 67.233276 277.871189 
L 67.622878 277.900144 
L 68.01248 316.574577 
L 68.402082 316.891522 
L 71.518896 316.870351 
L 72.687702 316.654903 
L 73.077303 316.620656 
L 73.466905 316.462495 
L 73.856507 316.573332 
L 74.246109 316.331732 
L 76.58372 316.483355 
L 76.973322 316.306824 
L 77.362923 316.611316 
L 77.752525 316.464986 
L 78.142127 316.50079 
L 78.531729 316.3638 
L 78.921331 307.984998 
L 79.700534 315.649896 
L 80.090136 314.597253 
L 80.479738 313.010972 
L 80.86934 310.464516 
L 81.258942 302.520034 
L 82.038145 298.648512 
L 82.427747 254.775623 
L 82.817349 249.091475 
L 83.206951 260.559399 
L 83.596552 224.89781 
L 83.986154 268.621568 
L 84.375756 274.346812 
L 84.765358 264.99943 
L 85.15496 248.475955 
L 85.544561 297.829998 
L 85.934163 291.49328 
L 86.323765 294.797539 
L 86.713367 295.207575 
L 87.102969 271.932365 
L 87.492571 266.29056 
L 87.882172 256.849463 
L 88.271774 223.00517 
L 88.661376 224.549108 
L 89.050978 235.407116 
L 89.830181 305.111635 
L 90.219783 316.532546 
L 90.609385 316.467476 
L 90.998987 316.983991 
L 91.388589 316.96998 
L 91.778191 280.771951 
L 93.336598 280.709683 
L 93.7262 316.249538 
L 94.115801 316.461872 
L 94.505403 317.022285 
L 94.895005 316.664555 
L 95.284607 304.889337 
L 95.674209 316.216536 
L 96.06381 316.216536 
L 96.453412 316.488025 
L 96.843014 316.253274 
L 97.232616 316.459693 
L 98.791023 316.404585 
L 99.570227 316.274756 
L 100.34943 316.343251 
L 100.739032 316.269152 
L 101.518236 316.452532 
L 101.907838 313.061097 
L 102.29744 311.032401 
L 102.687041 308.225353 
L 103.076643 302.617173 
L 103.466245 289.160093 
L 103.855847 288.577263 
L 104.245449 279.697825 
L 104.63505 304.28627 
L 105.024652 312.930957 
L 105.414254 312.930957 
L 105.803856 292.503269 
L 106.583059 298.599943 
L 106.972661 289.506615 
L 107.362263 289.699646 
L 108.141467 314.536852 
L 108.531069 314.912018 
L 109.310272 314.988919 
L 109.699874 315.249823 
L 110.089476 315.330771 
L 110.479078 314.989542 
L 110.868679 314.978645 
L 111.258281 315.275975 
L 111.647883 302.11031 
L 112.037485 258.200059 
L 112.427087 273.192672 
L 112.816689 315.80183 
L 113.20629 315.922007 
L 113.985494 315.881222 
L 114.375096 316.197544 
L 114.764698 307.077751 
L 115.154299 307.077751 
L 115.543901 299.44679 
L 115.933503 304.822399 
L 116.323105 304.909574 
L 116.712707 310.957679 
L 117.102308 310.496584 
L 117.49191 312.456785 
L 117.881512 297.614861 
L 118.271114 205.689333 
L 118.660716 202.340552 
L 119.050318 203.024567 
L 119.829521 242.827611 
L 120.219123 207.348467 
L 120.608725 242.236686 
L 120.998327 253.249119 
L 121.77753 264.848429 
L 122.167132 256.994859 
L 122.556734 315.763224 
L 122.946336 289.810483 
L 123.335938 308.704818 
L 123.725539 286.553237 
L 124.115141 290.214915 
L 124.504743 291.095075 
L 125.283947 290.99171 
L 125.673548 297.278613 
L 126.06315 298.957362 
L 126.452752 315.276598 
L 126.842354 316.233348 
L 127.231956 316.220894 
L 127.621557 316.358507 
L 128.011159 315.175412 
L 128.400761 316.441635 
L 132.686381 316.339515 
L 133.075983 316.735229 
L 133.855186 306.035383 
L 134.244788 306.80813 
L 134.63439 305.924857 
L 135.023992 265.980153 
L 135.413594 298.976666 
L 135.803196 296.692981 
L 136.192797 312.566377 
L 136.582399 311.671272 
L 136.972001 287.58969 
L 137.361603 311.251274 
L 137.751205 307.143133 
L 138.140806 307.954798 
L 138.530408 307.724406 
L 138.92001 308.942994 
L 139.309612 316.26168 
L 140.478417 316.617542 
L 140.868019 316.584229 
L 141.257621 316.664555 
L 141.647223 316.216847 
L 142.036825 235.696352 
L 142.426426 242.104367 
L 142.816028 314.437846 
L 143.595232 315.067066 
L 144.374435 306.441682 
L 144.764037 306.823386 
L 145.153639 312.981705 
L 145.543241 316.9815 
L 145.932843 316.4846 
L 146.322445 316.49861 
L 146.712046 313.828552 
L 147.101648 313.738263 
L 147.49125 258.171727 
L 147.880852 259.647794 
L 148.270454 310.259031 
L 148.660055 313.60034 
L 149.049657 307.20758 
L 149.439259 315.954387 
L 149.828861 316.290946 
L 150.997666 316.310872 
L 151.77687 316.310872 
L 152.166472 316.448484 
L 152.556074 316.836104 
L 153.335277 316.887164 
L 153.724879 316.573021 
L 155.283286 316.573021 
L 155.672888 314.193132 
L 156.06249 204.965777 
L 156.452092 316.999869 
L 156.841694 316.999869 
L 157.231295 316.525697 
L 158.400101 316.164853 
L 158.789703 266.101264 
L 159.179304 310.346518 
L 159.958508 230.537436 
L 160.34811 210.709702 
L 160.737712 281.323335 
L 161.127314 291.858794 
L 161.516915 233.70128 
L 161.906517 230.778414 
L 162.296119 219.969286 
L 162.685721 315.751393 
L 163.075323 315.830784 
L 163.464924 316.457513 
L 165.412933 316.492695 
L 165.802535 311.244113 
L 166.192137 315.535011 
L 166.581739 315.789999 
L 166.971341 298.112695 
L 167.360943 315.06333 
L 167.750544 313.425055 
L 168.140146 290.500414 
L 168.529748 306.422068 
L 168.91935 306.35295 
L 169.308952 306.817782 
L 169.698553 270.266381 
L 170.088155 316.180731 
L 170.477757 316.175439 
L 170.867359 316.928883 
L 171.256961 304.009177 
L 171.646563 315.208103 
L 172.036164 314.201538 
L 172.425766 313.695921 
L 172.815368 273.554139 
L 173.20497 275.384822 
L 173.594572 307.775777 
L 173.984173 305.821803 
L 174.373775 283.214419 
L 174.763377 281.727767 
L 175.152979 298.701752 
L 175.542581 291.60941 
L 175.932182 203.571904 
L 176.321784 203.156264 
L 176.711386 293.983383 
L 177.100988 287.718896 
L 177.49059 249.14129 
L 177.880192 278.524071 
L 178.269793 224.861695 
L 178.659395 311.883295 
L 179.048997 309.335283 
L 179.438599 309.284846 
L 179.828201 242.2398 
L 180.217802 242.121802 
L 180.607404 315.928857 
L 180.997006 315.928857 
L 181.386608 315.795603 
L 181.77621 316.742701 
L 182.165811 316.717483 
L 182.555413 316.377187 
L 182.945015 303.185058 
L 183.334617 309.705156 
L 183.724219 309.541702 
L 184.113821 295.357952 
L 184.503422 237.391602 
L 184.893024 267.954676 
L 185.282626 265.780272 
L 185.672228 303.059899 
L 186.06183 292.67295 
L 186.451431 311.571021 
L 186.841033 313.158858 
L 187.620237 295.3016 
L 188.399441 316.181043 
L 188.789042 316.367225 
L 189.178644 316.004824 
L 189.568246 315.799339 
L 189.957848 315.913912 
L 190.34745 316.522272 
L 190.737051 315.758553 
L 191.126653 278.448415 
L 191.516255 279.180688 
L 191.905857 316.44973 
L 192.295459 316.222762 
L 192.68506 272.053476 
L 193.074662 312.452738 
L 193.464264 313.994497 
L 193.853866 305.853248 
L 194.243468 301.632402 
L 194.63307 310.759667 
L 195.022671 299.981362 
L 195.412273 316.111925 
L 195.801875 316.057752 
L 196.191477 311.053884 
L 196.581079 268.063956 
L 196.97068 306.049393 
L 197.360282 314.902055 
L 197.749884 314.70591 
L 198.139486 315.683209 
L 198.529088 312.432812 
L 198.91869 306.305626 
L 199.308291 306.693557 
L 199.697893 306.641252 
L 200.087495 306.444173 
L 200.477097 306.853586 
L 200.866699 295.647811 
L 201.2563 225.170233 
L 201.645902 250.35583 
L 202.035504 250.429618 
L 202.425106 243.949372 
L 202.814708 248.779823 
L 203.204309 297.3963 
L 203.593911 297.711688 
L 203.983513 316.922034 
L 204.762717 316.937912 
L 205.54192 316.985547 
L 206.321124 316.983057 
L 206.710726 314.296809 
L 207.100328 314.030301 
L 207.489929 316.848246 
L 208.269133 316.879069 
L 208.658735 316.15956 
L 209.048337 316.137144 
L 209.437939 315.722438 
L 209.82754 288.643578 
L 210.217142 295.412437 
L 210.606744 309.55291 
L 210.996346 309.428374 
L 211.385948 312.402612 
L 211.775549 312.525903 
L 212.165151 314.846948 
L 212.554753 314.915131 
L 212.944355 268.960618 
L 213.333957 305.312761 
L 213.723558 312.447133 
L 214.11316 306.033515 
L 214.502762 305.855428 
L 214.892364 303.891179 
L 215.281966 298.658164 
L 215.671568 299.525248 
L 216.061169 306.492431 
L 216.450771 311.17375 
L 216.840373 302.717736 
L 217.229975 259.125675 
L 217.619577 265.806736 
L 218.009178 301.387377 
L 218.39878 300.680945 
L 218.788382 262.736294 
L 219.177984 307.553169 
L 219.567586 276.97266 
L 219.957188 277.306417 
L 220.736391 251.58656 
L 221.125993 249.900027 
L 221.515595 258.977477 
L 221.905197 256.066753 
L 222.294798 237.921193 
L 222.6844 229.130487 
L 223.074002 240.419391 
L 223.463604 274.858968 
L 223.853206 292.937901 
L 224.242807 277.230139 
L 224.632409 307.219723 
L 225.022011 315.687568 
L 225.411613 316.569596 
L 225.801215 316.96531 
L 226.97002 316.96531 
L 227.359622 316.525074 
L 229.697233 316.631241 
L 232.424446 316.6356 
L 232.814047 316.949432 
L 233.203649 279.828588 
L 233.593251 310.822558 
L 233.982853 315.931659 
L 234.372455 315.808368 
L 234.762056 316.606334 
L 235.151658 316.521961 
L 235.930862 316.881871 
L 236.710066 316.922034 
L 237.099667 316.597617 
L 237.878871 316.653035 
L 238.268473 316.999558 
L 238.658075 313.429725 
L 239.047676 287.630164 
L 239.437278 302.284972 
L 239.82688 305.128447 
L 240.216482 315.509481 
L 240.606084 312.339721 
L 240.995685 312.889549 
L 241.385287 310.629215 
L 241.774889 316.57053 
L 242.164491 316.030977 
L 242.554093 316.334845 
L 244.1125 316.296239 
L 244.502102 316.132785 
L 244.891704 315.815529 
L 245.281305 292.804336 
L 245.670907 315.357858 
L 246.060509 315.747657 
L 246.450111 315.681652 
L 246.839713 315.82051 
L 247.618916 314.463376 
L 248.008518 309.599611 
L 248.39812 293.934814 
L 248.787722 310.359905 
L 249.177324 311.027731 
L 249.566925 312.338164 
L 249.956527 315.932904 
L 250.346129 268.203126 
L 250.735731 314.36219 
L 251.125333 267.936307 
L 251.514934 267.459021 
L 251.904536 224.631925 
L 252.294138 224.990278 
L 252.68374 225.056905 
L 253.073342 294.795982 
L 253.462944 274.933378 
L 253.852545 262.593077 
L 254.242147 265.643905 
L 254.631749 283.943579 
L 255.021351 296.178024 
L 255.410953 315.777234 
L 255.800554 316.678877 
L 256.190156 316.84233 
L 256.579758 317.255168 
L 257.748564 317.225902 
L 258.527767 316.97465 
L 258.917369 313.04553 
L 259.306971 316.108812 
L 259.696573 317.10697 
L 260.475776 317.130321 
L 260.865378 316.305579 
L 261.25498 316.928261 
L 261.644582 317.166748 
L 262.034183 316.847623 
L 262.423785 317.164257 
L 262.813387 316.423577 
L 263.202989 307.1587 
L 263.592591 317.111018 
L 263.982193 314.396126 
L 264.371794 313.877744 
L 264.761396 281.839227 
L 265.150998 296.977235 
L 265.5406 272.80661 
L 265.930202 265.550503 
L 266.319803 278.892387 
L 266.709405 315.840125 
L 267.099007 317.203486 
L 269.047016 317.261706 
L 269.436618 317.219987 
L 269.82622 316.982745 
L 270.215822 317.21376 
L 270.605423 317.068364 
L 270.995025 317.261706 
L 272.163831 317.202863 
L 272.553432 316.926704 
L 272.943034 316.29188 
L 273.332636 317.222789 
L 275.280645 317.196014 
L 276.059849 317.238045 
L 276.449451 317.075525 
L 276.839052 317.075525 
L 277.228654 317.238045 
L 277.618256 311.539575 
L 278.007858 291.03125 
L 278.39746 317.159587 
L 279.176663 317.213137 
L 279.566265 315.043092 
L 279.955867 315.006354 
L 280.345469 314.448432 
L 280.735071 314.954983 
L 281.124672 316.457513 
L 281.514274 315.960302 
L 281.903876 305.34514 
L 282.293478 282.766711 
L 282.68308 304.147101 
L 283.072681 294.739007 
L 283.462283 247.211289 
L 283.851885 252.026484 
L 284.241487 250.533917 
L 284.631089 316.111925 
L 285.020691 315.20281 
L 285.410292 315.651764 
L 285.799894 316.415171 
L 286.579098 316.34294 
L 286.9687 279.53406 
L 287.358301 278.729244 
L 287.747903 306.993689 
L 288.137505 311.762495 
L 288.527107 313.320756 
L 288.916709 315.606619 
L 289.30631 315.588873 
L 289.695912 315.967463 
L 290.085514 316.12002 
L 290.475116 316.12002 
L 290.864718 308.62169 
L 291.25432 316.427002 
L 291.643921 316.483977 
L 292.423125 315.700644 
L 292.812727 302.258508 
L 293.202329 294.225295 
L 293.59193 291.767571 
L 293.981532 302.234535 
L 294.371134 284.541664 
L 294.760736 275.501886 
L 295.150338 291.263822 
L 295.53994 247.843622 
L 295.929541 296.200129 
L 296.319143 310.495338 
L 296.708745 313.74916 
L 297.487949 313.757255 
L 297.87755 316.572087 
L 298.267152 316.70285 
L 300.215161 316.632487 
L 301.383967 316.582984 
L 302.942374 316.530367 
L 303.721578 316.362243 
L 304.111179 316.434785 
L 304.500781 315.921073 
L 304.890383 314.525333 
L 305.279985 314.60597 
L 305.669587 315.209348 
L 306.059189 269.889347 
L 306.44879 249.718515 
L 306.838392 269.110061 
L 307.617596 203.282046 
L 308.007198 203.454218 
L 308.396799 272.420236 
L 308.786401 268.607869 
L 309.176003 292.261669 
L 309.565605 208.822977 
L 309.955207 205.182781 
L 310.344808 205.445241 
L 310.73441 204.547646 
L 311.124012 204.184934 
L 311.513614 204.926859 
L 311.903216 217.997254 
L 312.292818 207.749786 
L 312.682419 220.385549 
L 313.072021 222.971234 
L 313.851225 240.299524 
L 314.240827 311.355884 
L 314.630428 315.94131 
L 315.02003 316.578936 
L 315.799234 316.223074 
L 316.968039 316.346365 
L 318.916048 316.301532 
L 319.695252 316.224319 
L 320.474456 316.156447 
L 320.864057 276.559199 
L 321.253659 278.292122 
L 321.643261 315.72057 
L 322.032863 269.41642 
L 322.422465 274.212313 
L 322.812067 315.823001 
L 323.201668 316.035024 
L 323.59127 308.71696 
L 323.980872 316.339204 
L 324.370474 316.272266 
L 325.149677 316.311495 
L 328.656094 316.370961 
L 329.045696 316.162674 
L 330.604103 316.228367 
L 330.993705 310.777102 
L 331.383306 310.89977 
L 331.772908 268.771945 
L 332.16251 301.925062 
L 332.552112 301.925062 
L 332.941714 315.005732 
L 333.331316 314.917311 
L 333.720917 310.264946 
L 334.110519 309.468848 
L 334.500121 307.958223 
L 334.889723 309.377314 
L 335.279325 302.01286 
L 335.668926 298.762152 
L 336.058528 303.034681 
L 336.44813 291.395208 
L 336.837732 283.190134 
L 337.227334 253.876782 
L 337.616935 254.748847 
L 338.006537 263.238175 
L 338.396139 257.507949 
L 338.785741 274.079993 
L 339.175343 281.429814 
L 339.564945 283.14966 
L 339.954546 282.437935 
L 340.73375 278.288697 
L 341.123352 304.5671 
L 341.512954 237.69765 
L 341.902555 230.683143 
L 342.292157 247.015767 
L 342.681759 247.674252 
L 343.071361 251.33126 
L 343.460963 251.699265 
L 343.850565 252.89855 
L 344.240166 240.756884 
L 344.629768 307.498373 
L 345.01937 260.470356 
L 345.408972 242.424114 
L 346.188175 312.574472 
L 346.577777 301.096585 
L 346.967379 308.451387 
L 347.356981 303.750142 
L 347.746583 304.22338 
L 348.136184 279.929151 
L 348.525786 316.444748 
L 349.30499 299.996929 
L 349.694592 233.370637 
L 350.084194 233.280036 
L 350.473795 256.384632 
L 350.863397 302.073883 
L 351.252999 302.2171 
L 351.642601 314.350359 
L 352.032203 312.96427 
L 352.421804 314.323273 
L 352.811406 314.944086 
L 353.201008 314.935057 
L 353.59061 305.529765 
L 354.369814 305.500811 
L 354.759415 262.811327 
L 355.149017 312.049551 
L 355.538619 277.853131 
L 355.928221 280.698474 
L 356.317823 315.765403 
L 357.097026 316.307447 
L 357.486628 315.970265 
L 357.87623 315.863164 
L 358.265832 315.910488 
L 358.655433 315.776611 
L 359.045035 315.904884 
L 359.434637 312.279009 
L 359.824239 301.940629 
L 360.213841 251.54017 
L 360.603443 270.100747 
L 360.993044 313.352201 
L 361.382646 314.435044 
L 361.772248 314.439403 
L 362.16185 313.162906 
L 362.551452 311.12269 
L 362.941053 307.024823 
L 363.330655 258.830524 
L 363.720257 264.465792 
L 364.109859 251.167806 
L 364.499461 217.273076 
L 364.889062 205.41473 
L 365.278664 266.440003 
L 365.668266 284.579959 
L 366.057868 295.518293 
L 366.837072 275.028648 
L 367.226673 271.759571 
L 367.616275 309.75715 
L 368.395479 278.170076 
L 368.785081 279.887432 
L 369.174682 279.75231 
L 369.564284 284.063445 
L 370.343488 247.689819 
L 370.73309 246.522603 
L 371.122692 239.471358 
L 371.512293 307.518921 
L 371.901895 308.784521 
L 372.291497 309.145365 
L 372.681099 310.927791 
L 373.070701 238.752161 
L 373.460302 304.099155 
L 373.849904 315.297458 
L 374.239506 315.297458 
L 374.629108 315.095709 
L 375.408311 316.074253 
L 375.797913 316.190383 
L 376.187515 315.978983 
L 376.577117 295.248049 
L 376.966719 242.491674 
L 377.356321 293.768247 
L 378.135524 307.024512 
L 378.525126 288.079429 
L 378.914728 314.011932 
L 379.30433 315.428844 
L 379.693931 311.576313 
L 380.083533 315.831096 
L 380.473135 316.282229 
L 380.862737 279.708099 
L 381.641941 279.508841 
L 382.031542 314.255089 
L 382.421144 314.329188 
L 382.810746 312.576029 
L 383.200348 298.790173 
L 383.58995 270.050933 
L 383.979551 271.510187 
L 384.369153 251.254048 
L 384.758755 261.225669 
L 385.148357 284.029509 
L 385.537959 286.967631 
L 385.92756 258.357598 
L 386.317162 256.192534 
L 386.706764 265.572608 
L 387.096366 265.476092 
L 387.485968 266.779364 
L 387.87557 264.004696 
L 388.265171 286.356781 
L 389.044375 221.77911 
L 389.433977 225.252427 
L 389.823579 225.112946 
L 390.21318 227.302606 
L 390.602782 247.6481 
L 390.992384 249.404995 
L 391.381986 230.731713 
L 391.771588 279.089154 
L 392.16119 278.947805 
L 392.550791 284.267996 
L 392.940393 280.068321 
L 393.329995 304.944445 
L 393.719597 274.73412 
L 394.109199 299.32132 
L 394.4988 313.264714 
L 394.888402 314.09039 
L 395.278004 313.59816 
L 395.667606 282.918334 
L 396.057208 308.730348 
L 396.446809 310.031129 
L 396.836411 276.854973 
L 397.226013 307.937986 
L 397.615615 316.160806 
L 398.005217 316.491761 
L 398.78442 315.0982 
L 399.174022 279.248561 
L 399.563624 279.89397 
L 399.953226 277.944977 
L 400.342828 260.548814 
L 400.732429 254.718025 
L 401.122031 240.458308 
L 401.511633 238.578744 
L 401.901235 238.095855 
L 402.290837 244.473047 
L 402.680439 233.697233 
L 403.07004 243.025001 
L 403.459642 313.290244 
L 403.849244 262.458267 
L 404.628448 292.259178 
L 405.018049 263.901019 
L 405.407651 276.723899 
L 405.797253 275.064141 
L 406.186855 243.350664 
L 406.576457 240.908196 
L 406.966058 298.391968 
L 407.35566 302.191259 
L 407.745262 300.585674 
L 408.134864 304.390881 
L 408.524466 302.59569 
L 408.914068 254.946549 
L 409.303669 301.339119 
L 409.693271 269.232729 
L 410.082873 269.366606 
L 410.472475 270.880345 
L 410.862077 313.167576 
L 411.251678 262.183353 
L 411.64128 291.602249 
L 412.030882 259.111665 
L 412.420484 242.439681 
L 412.810086 216.986954 
L 413.199687 216.859927 
L 413.589289 215.474772 
L 413.978891 211.441664 
L 414.368493 208.855668 
L 414.758095 204.968267 
L 415.147697 205.16628 
L 415.9269 205.048905 
L 416.706104 257.524761 
L 417.095706 256.480213 
L 417.485307 246.42671 
L 417.874909 253.105902 
L 418.264511 244.120298 
L 418.654113 230.503188 
L 419.043715 294.642803 
L 419.433317 296.145644 
L 419.822918 260.176762 
L 420.21252 287.587822 
L 420.602122 296.823433 
L 420.991724 270.432637 
L 421.381326 277.222666 
L 421.770927 293.885933 
L 422.160529 270.297515 
L 422.550131 255.327007 
L 422.939733 265.904808 
L 423.329335 257.867236 
L 423.718936 294.190736 
L 424.108538 312.131434 
L 424.49814 313.714913 
L 424.887742 278.864366 
L 425.277344 315.371246 
L 425.666946 317.372855 
L 428.004556 317.310898 
L 428.394158 315.843238 
L 428.78376 316.010428 
L 429.173362 269.488651 
L 429.562964 303.492352 
L 429.952566 309.217285 
L 430.342167 309.104268 
L 430.731769 303.761661 
L 431.121371 303.827354 
L 431.510973 304.754838 
L 431.900575 315.054301 
L 432.290176 304.3722 
L 432.679778 303.827977 
L 433.06938 303.505116 
L 433.458982 308.329341 
L 433.848584 317.187296 
L 434.238185 315.348206 
L 435.017389 315.438184 
L 435.406991 317.378459 
L 436.186195 317.378459 
L 436.575796 317.249253 
L 436.965398 317.249253 
L 436.965398 317.249253 
" style="fill:none;stroke:#1f77b4;"/>
   </g>
   <g id="line2d_25">
    <path clip-path="url(#pf5e96a5a86)" d="M 50.87 295.561648 
L 437.355 295.561648 
" style="fill:none;stroke:#ff0000;"/>
   </g>
   <g id="patch_8">
    <path d="M 50.87 317.72 
L 50.87 194.18 
" style="fill:none;stroke:#000000;stroke-linecap:square;stroke-linejoin:miter;stroke-width:0.8;"/>
   </g>
   <g id="patch_9">
    <path d="M 437.355 317.72 
L 437.355 194.18 
" style="fill:none;stroke:#000000;stroke-linecap:square;stroke-linejoin:miter;stroke-width:0.8;"/>
   </g>
   <g id="patch_10">
    <path d="M 50.87 317.72 
L 437.355 317.72 
" style="fill:none;stroke:#000000;stroke-linecap:square;stroke-linejoin:miter;stroke-width:0.8;"/>
   </g>
   <g id="patch_11">
    <path d="M 50.87 194.18 
L 437.355 194.18 
" style="fill:none;stroke:#000000;stroke-linecap:square;stroke-linejoin:miter;stroke-width:0.8;"/>
   </g>
  </g>
 </g>
 <defs>
  <clipPath id="p6e5c7787c2">
   <rect height="123.54" width="386.485" x="50.87" y="24.72"/>
  </clipPath>
  <clipPath id="pf5e96a5a86">
   <rect height="123.54" width="386.485" x="50.87" y="194.18"/>
  </clipPath>
 </defs>
</svg>
