<?xml version="1.0" encoding="utf-8" standalone="no"?>
<!DOCTYPE svg PUBLIC "-//W3C//DTD SVG 1.1//EN"
  "http://www.w3.org/Graphics/SVG/1.1/DTD/svg11.dtd">
<!-- Created with matplotlib (https://matplotlib.org/) -->
<svg height="345.6pt" version="1.1" viewBox="0 0 460.8 345.6" width="460.8pt" xmlns="http://www.w3.org/2000/svg" xmlns:xlink="http://www.w3.org/1999/xlink">
 <defs>
  <style type="text/css">
*{stroke-linecap:butt;stroke-linejoin:round;}
  </style>
 </defs>
 <g id="figure_1">
  <g id="patch_1">
   <path d="M 0 345.6 
L 460.8 345.6 
L 460.8 0 
L 0 0 
z
" style="fill:none;"/>
  </g>
  <g id="axes_1">
   <g id="patch_2">
    <path d="M 50.87 148.26 
L 437.355 148.26 
L 437.355 24.72 
L 50.87 24.72 
z
" style="fill:#ffffff;"/>
   </g>
   <g id="matplotlib.axis_1">
    <g id="xtick_1">
     <g id="line2d_1">
      <defs>
       <path d="M 0 0 
L 0 3.5 
" id="m9854073f5c" style="stroke:#000000;stroke-width:0.8;"/>
      </defs>
      <g>
       <use style="stroke:#000000;stroke-width:0.8;" x="50.87" xlink:href="#m9854073f5c" y="148.26"/>
      </g>
     </g>
     <g id="text_1">
      <!-- 0.0 -->
      <defs>
       <path d="M 31.78125 66.40625 
Q 24.171875 66.40625 20.328125 58.90625 
Q 16.5 51.421875 16.5 36.375 
Q 16.5 21.390625 20.328125 13.890625 
Q 24.171875 6.390625 31.78125 6.390625 
Q 39.453125 6.390625 43.28125 13.890625 
Q 47.125 21.390625 47.125 36.375 
Q 47.125 51.421875 43.28125 58.90625 
Q 39.453125 66.40625 31.78125 66.40625 
z
M 31.78125 74.21875 
Q 44.046875 74.21875 50.515625 64.515625 
Q 56.984375 54.828125 56.984375 36.375 
Q 56.984375 17.96875 50.515625 8.265625 
Q 44.046875 -1.421875 31.78125 -1.421875 
Q 19.53125 -1.421875 13.0625 8.265625 
Q 6.59375 17.96875 6.59375 36.375 
Q 6.59375 54.828125 13.0625 64.515625 
Q 19.53125 74.21875 31.78125 74.21875 
z
" id="DejaVuSans-48"/>
       <path d="M 10.6875 12.40625 
L 21 12.40625 
L 21 0 
L 10.6875 0 
z
" id="DejaVuSans-46"/>
      </defs>
      <g transform="translate(42.918438 162.858437)scale(0.1 -0.1)">
       <use xlink:href="#DejaVuSans-48"/>
       <use x="63.623047" xlink:href="#DejaVuSans-46"/>
       <use x="95.410156" xlink:href="#DejaVuSans-48"/>
      </g>
     </g>
    </g>
    <g id="xtick_2">
     <g id="line2d_2">
      <g>
       <use style="stroke:#000000;stroke-width:0.8;" x="128.167" xlink:href="#m9854073f5c" y="148.26"/>
      </g>
     </g>
     <g id="text_2">
      <!-- 0.2 -->
      <defs>
       <path d="M 19.1875 8.296875 
L 53.609375 8.296875 
L 53.609375 0 
L 7.328125 0 
L 7.328125 8.296875 
Q 12.9375 14.109375 22.625 23.890625 
Q 32.328125 33.6875 34.8125 36.53125 
Q 39.546875 41.84375 41.421875 45.53125 
Q 43.3125 49.21875 43.3125 52.78125 
Q 43.3125 58.59375 39.234375 62.25 
Q 35.15625 65.921875 28.609375 65.921875 
Q 23.96875 65.921875 18.8125 64.3125 
Q 13.671875 62.703125 7.8125 59.421875 
L 7.8125 69.390625 
Q 13.765625 71.78125 18.9375 73 
Q 24.125 74.21875 28.421875 74.21875 
Q 39.75 74.21875 46.484375 68.546875 
Q 53.21875 62.890625 53.21875 53.421875 
Q 53.21875 48.921875 51.53125 44.890625 
Q 49.859375 40.875 45.40625 35.40625 
Q 44.1875 33.984375 37.640625 27.21875 
Q 31.109375 20.453125 19.1875 8.296875 
z
" id="DejaVuSans-50"/>
      </defs>
      <g transform="translate(120.215438 162.858437)scale(0.1 -0.1)">
       <use xlink:href="#DejaVuSans-48"/>
       <use x="63.623047" xlink:href="#DejaVuSans-46"/>
       <use x="95.410156" xlink:href="#DejaVuSans-50"/>
      </g>
     </g>
    </g>
    <g id="xtick_3">
     <g id="line2d_3">
      <g>
       <use style="stroke:#000000;stroke-width:0.8;" x="205.464" xlink:href="#m9854073f5c" y="148.26"/>
      </g>
     </g>
     <g id="text_3">
      <!-- 0.4 -->
      <defs>
       <path d="M 37.796875 64.3125 
L 12.890625 25.390625 
L 37.796875 25.390625 
z
M 35.203125 72.90625 
L 47.609375 72.90625 
L 47.609375 25.390625 
L 58.015625 25.390625 
L 58.015625 17.1875 
L 47.609375 17.1875 
L 47.609375 0 
L 37.796875 0 
L 37.796875 17.1875 
L 4.890625 17.1875 
L 4.890625 26.703125 
z
" id="DejaVuSans-52"/>
      </defs>
      <g transform="translate(197.512438 162.858437)scale(0.1 -0.1)">
       <use xlink:href="#DejaVuSans-48"/>
       <use x="63.623047" xlink:href="#DejaVuSans-46"/>
       <use x="95.410156" xlink:href="#DejaVuSans-52"/>
      </g>
     </g>
    </g>
    <g id="xtick_4">
     <g id="line2d_4">
      <g>
       <use style="stroke:#000000;stroke-width:0.8;" x="282.761" xlink:href="#m9854073f5c" y="148.26"/>
      </g>
     </g>
     <g id="text_4">
      <!-- 0.6 -->
      <defs>
       <path d="M 33.015625 40.375 
Q 26.375 40.375 22.484375 35.828125 
Q 18.609375 31.296875 18.609375 23.390625 
Q 18.609375 15.53125 22.484375 10.953125 
Q 26.375 6.390625 33.015625 6.390625 
Q 39.65625 6.390625 43.53125 10.953125 
Q 47.40625 15.53125 47.40625 23.390625 
Q 47.40625 31.296875 43.53125 35.828125 
Q 39.65625 40.375 33.015625 40.375 
z
M 52.59375 71.296875 
L 52.59375 62.3125 
Q 48.875 64.0625 45.09375 64.984375 
Q 41.3125 65.921875 37.59375 65.921875 
Q 27.828125 65.921875 22.671875 59.328125 
Q 17.53125 52.734375 16.796875 39.40625 
Q 19.671875 43.65625 24.015625 45.921875 
Q 28.375 48.1875 33.59375 48.1875 
Q 44.578125 48.1875 50.953125 41.515625 
Q 57.328125 34.859375 57.328125 23.390625 
Q 57.328125 12.15625 50.6875 5.359375 
Q 44.046875 -1.421875 33.015625 -1.421875 
Q 20.359375 -1.421875 13.671875 8.265625 
Q 6.984375 17.96875 6.984375 36.375 
Q 6.984375 53.65625 15.1875 63.9375 
Q 23.390625 74.21875 37.203125 74.21875 
Q 40.921875 74.21875 44.703125 73.484375 
Q 48.484375 72.75 52.59375 71.296875 
z
" id="DejaVuSans-54"/>
      </defs>
      <g transform="translate(274.809438 162.858437)scale(0.1 -0.1)">
       <use xlink:href="#DejaVuSans-48"/>
       <use x="63.623047" xlink:href="#DejaVuSans-46"/>
       <use x="95.410156" xlink:href="#DejaVuSans-54"/>
      </g>
     </g>
    </g>
    <g id="xtick_5">
     <g id="line2d_5">
      <g>
       <use style="stroke:#000000;stroke-width:0.8;" x="360.058" xlink:href="#m9854073f5c" y="148.26"/>
      </g>
     </g>
     <g id="text_5">
      <!-- 0.8 -->
      <defs>
       <path d="M 31.78125 34.625 
Q 24.75 34.625 20.71875 30.859375 
Q 16.703125 27.09375 16.703125 20.515625 
Q 16.703125 13.921875 20.71875 10.15625 
Q 24.75 6.390625 31.78125 6.390625 
Q 38.8125 6.390625 42.859375 10.171875 
Q 46.921875 13.96875 46.921875 20.515625 
Q 46.921875 27.09375 42.890625 30.859375 
Q 38.875 34.625 31.78125 34.625 
z
M 21.921875 38.8125 
Q 15.578125 40.375 12.03125 44.71875 
Q 8.5 49.078125 8.5 55.328125 
Q 8.5 64.0625 14.71875 69.140625 
Q 20.953125 74.21875 31.78125 74.21875 
Q 42.671875 74.21875 48.875 69.140625 
Q 55.078125 64.0625 55.078125 55.328125 
Q 55.078125 49.078125 51.53125 44.71875 
Q 48 40.375 41.703125 38.8125 
Q 48.828125 37.15625 52.796875 32.3125 
Q 56.78125 27.484375 56.78125 20.515625 
Q 56.78125 9.90625 50.3125 4.234375 
Q 43.84375 -1.421875 31.78125 -1.421875 
Q 19.734375 -1.421875 13.25 4.234375 
Q 6.78125 9.90625 6.78125 20.515625 
Q 6.78125 27.484375 10.78125 32.3125 
Q 14.796875 37.15625 21.921875 38.8125 
z
M 18.3125 54.390625 
Q 18.3125 48.734375 21.84375 45.5625 
Q 25.390625 42.390625 31.78125 42.390625 
Q 38.140625 42.390625 41.71875 45.5625 
Q 45.3125 48.734375 45.3125 54.390625 
Q 45.3125 60.0625 41.71875 63.234375 
Q 38.140625 66.40625 31.78125 66.40625 
Q 25.390625 66.40625 21.84375 63.234375 
Q 18.3125 60.0625 18.3125 54.390625 
z
" id="DejaVuSans-56"/>
      </defs>
      <g transform="translate(352.106438 162.858437)scale(0.1 -0.1)">
       <use xlink:href="#DejaVuSans-48"/>
       <use x="63.623047" xlink:href="#DejaVuSans-46"/>
       <use x="95.410156" xlink:href="#DejaVuSans-56"/>
      </g>
     </g>
    </g>
    <g id="xtick_6">
     <g id="line2d_6">
      <g>
       <use style="stroke:#000000;stroke-width:0.8;" x="437.355" xlink:href="#m9854073f5c" y="148.26"/>
      </g>
     </g>
     <g id="text_6">
      <!-- 1.0 -->
      <defs>
       <path d="M 12.40625 8.296875 
L 28.515625 8.296875 
L 28.515625 63.921875 
L 10.984375 60.40625 
L 10.984375 69.390625 
L 28.421875 72.90625 
L 38.28125 72.90625 
L 38.28125 8.296875 
L 54.390625 8.296875 
L 54.390625 0 
L 12.40625 0 
z
" id="DejaVuSans-49"/>
      </defs>
      <g transform="translate(429.403437 162.858437)scale(0.1 -0.1)">
       <use xlink:href="#DejaVuSans-49"/>
       <use x="63.623047" xlink:href="#DejaVuSans-46"/>
       <use x="95.410156" xlink:href="#DejaVuSans-48"/>
      </g>
     </g>
    </g>
    <g id="text_7">
     <!-- % Identity -->
     <defs>
      <path d="M 72.703125 32.078125 
Q 68.453125 32.078125 66.03125 28.46875 
Q 63.625 24.859375 63.625 18.40625 
Q 63.625 12.0625 66.03125 8.421875 
Q 68.453125 4.78125 72.703125 4.78125 
Q 76.859375 4.78125 79.265625 8.421875 
Q 81.6875 12.0625 81.6875 18.40625 
Q 81.6875 24.8125 79.265625 28.4375 
Q 76.859375 32.078125 72.703125 32.078125 
z
M 72.703125 38.28125 
Q 80.421875 38.28125 84.953125 32.90625 
Q 89.5 27.546875 89.5 18.40625 
Q 89.5 9.28125 84.9375 3.921875 
Q 80.375 -1.421875 72.703125 -1.421875 
Q 64.890625 -1.421875 60.34375 3.921875 
Q 55.8125 9.28125 55.8125 18.40625 
Q 55.8125 27.59375 60.375 32.9375 
Q 64.9375 38.28125 72.703125 38.28125 
z
M 22.3125 68.015625 
Q 18.109375 68.015625 15.6875 64.375 
Q 13.28125 60.75 13.28125 54.390625 
Q 13.28125 47.953125 15.671875 44.328125 
Q 18.0625 40.71875 22.3125 40.71875 
Q 26.5625 40.71875 28.96875 44.328125 
Q 31.390625 47.953125 31.390625 54.390625 
Q 31.390625 60.6875 28.953125 64.34375 
Q 26.515625 68.015625 22.3125 68.015625 
z
M 66.40625 74.21875 
L 74.21875 74.21875 
L 28.609375 -1.421875 
L 20.796875 -1.421875 
z
M 22.3125 74.21875 
Q 30.03125 74.21875 34.609375 68.875 
Q 39.203125 63.53125 39.203125 54.390625 
Q 39.203125 45.171875 34.640625 39.84375 
Q 30.078125 34.515625 22.3125 34.515625 
Q 14.546875 34.515625 10.03125 39.859375 
Q 5.515625 45.21875 5.515625 54.390625 
Q 5.515625 63.484375 10.046875 68.84375 
Q 14.59375 74.21875 22.3125 74.21875 
z
" id="DejaVuSans-37"/>
      <path id="DejaVuSans-32"/>
      <path d="M 9.8125 72.90625 
L 19.671875 72.90625 
L 19.671875 0 
L 9.8125 0 
z
" id="DejaVuSans-73"/>
      <path d="M 45.40625 46.390625 
L 45.40625 75.984375 
L 54.390625 75.984375 
L 54.390625 0 
L 45.40625 0 
L 45.40625 8.203125 
Q 42.578125 3.328125 38.25 0.953125 
Q 33.9375 -1.421875 27.875 -1.421875 
Q 17.96875 -1.421875 11.734375 6.484375 
Q 5.515625 14.40625 5.515625 27.296875 
Q 5.515625 40.1875 11.734375 48.09375 
Q 17.96875 56 27.875 56 
Q 33.9375 56 38.25 53.625 
Q 42.578125 51.265625 45.40625 46.390625 
z
M 14.796875 27.296875 
Q 14.796875 17.390625 18.875 11.75 
Q 22.953125 6.109375 30.078125 6.109375 
Q 37.203125 6.109375 41.296875 11.75 
Q 45.40625 17.390625 45.40625 27.296875 
Q 45.40625 37.203125 41.296875 42.84375 
Q 37.203125 48.484375 30.078125 48.484375 
Q 22.953125 48.484375 18.875 42.84375 
Q 14.796875 37.203125 14.796875 27.296875 
z
" id="DejaVuSans-100"/>
      <path d="M 56.203125 29.59375 
L 56.203125 25.203125 
L 14.890625 25.203125 
Q 15.484375 15.921875 20.484375 11.0625 
Q 25.484375 6.203125 34.421875 6.203125 
Q 39.59375 6.203125 44.453125 7.46875 
Q 49.3125 8.734375 54.109375 11.28125 
L 54.109375 2.78125 
Q 49.265625 0.734375 44.1875 -0.34375 
Q 39.109375 -1.421875 33.890625 -1.421875 
Q 20.796875 -1.421875 13.15625 6.1875 
Q 5.515625 13.8125 5.515625 26.8125 
Q 5.515625 40.234375 12.765625 48.109375 
Q 20.015625 56 32.328125 56 
Q 43.359375 56 49.78125 48.890625 
Q 56.203125 41.796875 56.203125 29.59375 
z
M 47.21875 32.234375 
Q 47.125 39.59375 43.09375 43.984375 
Q 39.0625 48.390625 32.421875 48.390625 
Q 24.90625 48.390625 20.390625 44.140625 
Q 15.875 39.890625 15.1875 32.171875 
z
" id="DejaVuSans-101"/>
      <path d="M 54.890625 33.015625 
L 54.890625 0 
L 45.90625 0 
L 45.90625 32.71875 
Q 45.90625 40.484375 42.875 44.328125 
Q 39.84375 48.1875 33.796875 48.1875 
Q 26.515625 48.1875 22.3125 43.546875 
Q 18.109375 38.921875 18.109375 30.90625 
L 18.109375 0 
L 9.078125 0 
L 9.078125 54.6875 
L 18.109375 54.6875 
L 18.109375 46.1875 
Q 21.34375 51.125 25.703125 53.5625 
Q 30.078125 56 35.796875 56 
Q 45.21875 56 50.046875 50.171875 
Q 54.890625 44.34375 54.890625 33.015625 
z
" id="DejaVuSans-110"/>
      <path d="M 18.3125 70.21875 
L 18.3125 54.6875 
L 36.8125 54.6875 
L 36.8125 47.703125 
L 18.3125 47.703125 
L 18.3125 18.015625 
Q 18.3125 11.328125 20.140625 9.421875 
Q 21.96875 7.515625 27.59375 7.515625 
L 36.8125 7.515625 
L 36.8125 0 
L 27.59375 0 
Q 17.1875 0 13.234375 3.875 
Q 9.28125 7.765625 9.28125 18.015625 
L 9.28125 47.703125 
L 2.6875 47.703125 
L 2.6875 54.6875 
L 9.28125 54.6875 
L 9.28125 70.21875 
z
" id="DejaVuSans-116"/>
      <path d="M 9.421875 54.6875 
L 18.40625 54.6875 
L 18.40625 0 
L 9.421875 0 
z
M 9.421875 75.984375 
L 18.40625 75.984375 
L 18.40625 64.59375 
L 9.421875 64.59375 
z
" id="DejaVuSans-105"/>
      <path d="M 32.171875 -5.078125 
Q 28.375 -14.84375 24.75 -17.8125 
Q 21.140625 -20.796875 15.09375 -20.796875 
L 7.90625 -20.796875 
L 7.90625 -13.28125 
L 13.1875 -13.28125 
Q 16.890625 -13.28125 18.9375 -11.515625 
Q 21 -9.765625 23.484375 -3.21875 
L 25.09375 0.875 
L 2.984375 54.6875 
L 12.5 54.6875 
L 29.59375 11.921875 
L 46.6875 54.6875 
L 56.203125 54.6875 
z
" id="DejaVuSans-121"/>
     </defs>
     <g transform="translate(218.609375 176.536562)scale(0.1 -0.1)">
      <use xlink:href="#DejaVuSans-37"/>
      <use x="95.019531" xlink:href="#DejaVuSans-32"/>
      <use x="126.806641" xlink:href="#DejaVuSans-73"/>
      <use x="156.298828" xlink:href="#DejaVuSans-100"/>
      <use x="219.775391" xlink:href="#DejaVuSans-101"/>
      <use x="281.298828" xlink:href="#DejaVuSans-110"/>
      <use x="344.677734" xlink:href="#DejaVuSans-116"/>
      <use x="383.886719" xlink:href="#DejaVuSans-105"/>
      <use x="411.669922" xlink:href="#DejaVuSans-116"/>
      <use x="450.878906" xlink:href="#DejaVuSans-121"/>
     </g>
    </g>
   </g>
   <g id="matplotlib.axis_2">
    <g id="ytick_1">
     <g id="line2d_7">
      <defs>
       <path d="M 0 0 
L -3.5 0 
" id="m805a931a81" style="stroke:#000000;stroke-width:0.8;"/>
      </defs>
      <g>
       <use style="stroke:#000000;stroke-width:0.8;" x="50.87" xlink:href="#m805a931a81" y="148.26"/>
      </g>
     </g>
     <g id="text_8">
      <!-- 0 -->
      <g transform="translate(37.5075 152.059219)scale(0.1 -0.1)">
       <use xlink:href="#DejaVuSans-48"/>
      </g>
     </g>
    </g>
    <g id="ytick_2">
     <g id="line2d_8">
      <g>
       <use style="stroke:#000000;stroke-width:0.8;" x="50.87" xlink:href="#m805a931a81" y="117.375"/>
      </g>
     </g>
     <g id="text_9">
      <!-- 50 -->
      <defs>
       <path d="M 10.796875 72.90625 
L 49.515625 72.90625 
L 49.515625 64.59375 
L 19.828125 64.59375 
L 19.828125 46.734375 
Q 21.96875 47.46875 24.109375 47.828125 
Q 26.265625 48.1875 28.421875 48.1875 
Q 40.625 48.1875 47.75 41.5 
Q 54.890625 34.8125 54.890625 23.390625 
Q 54.890625 11.625 47.5625 5.09375 
Q 40.234375 -1.421875 26.90625 -1.421875 
Q 22.3125 -1.421875 17.546875 -0.640625 
Q 12.796875 0.140625 7.71875 1.703125 
L 7.71875 11.625 
Q 12.109375 9.234375 16.796875 8.0625 
Q 21.484375 6.890625 26.703125 6.890625 
Q 35.15625 6.890625 40.078125 11.328125 
Q 45.015625 15.765625 45.015625 23.390625 
Q 45.015625 31 40.078125 35.4375 
Q 35.15625 39.890625 26.703125 39.890625 
Q 22.75 39.890625 18.8125 39.015625 
Q 14.890625 38.140625 10.796875 36.28125 
z
" id="DejaVuSans-53"/>
      </defs>
      <g transform="translate(31.145 121.174219)scale(0.1 -0.1)">
       <use xlink:href="#DejaVuSans-53"/>
       <use x="63.623047" xlink:href="#DejaVuSans-48"/>
      </g>
     </g>
    </g>
    <g id="ytick_3">
     <g id="line2d_9">
      <g>
       <use style="stroke:#000000;stroke-width:0.8;" x="50.87" xlink:href="#m805a931a81" y="86.49"/>
      </g>
     </g>
     <g id="text_10">
      <!-- 100 -->
      <g transform="translate(24.7825 90.289219)scale(0.1 -0.1)">
       <use xlink:href="#DejaVuSans-49"/>
       <use x="63.623047" xlink:href="#DejaVuSans-48"/>
       <use x="127.246094" xlink:href="#DejaVuSans-48"/>
      </g>
     </g>
    </g>
    <g id="ytick_4">
     <g id="line2d_10">
      <g>
       <use style="stroke:#000000;stroke-width:0.8;" x="50.87" xlink:href="#m805a931a81" y="55.605"/>
      </g>
     </g>
     <g id="text_11">
      <!-- 150 -->
      <g transform="translate(24.7825 59.404219)scale(0.1 -0.1)">
       <use xlink:href="#DejaVuSans-49"/>
       <use x="63.623047" xlink:href="#DejaVuSans-53"/>
       <use x="127.246094" xlink:href="#DejaVuSans-48"/>
      </g>
     </g>
    </g>
    <g id="ytick_5">
     <g id="line2d_11">
      <g>
       <use style="stroke:#000000;stroke-width:0.8;" x="50.87" xlink:href="#m805a931a81" y="24.72"/>
      </g>
     </g>
     <g id="text_12">
      <!-- 200 -->
      <g transform="translate(24.7825 28.519219)scale(0.1 -0.1)">
       <use xlink:href="#DejaVuSans-50"/>
       <use x="63.623047" xlink:href="#DejaVuSans-48"/>
       <use x="127.246094" xlink:href="#DejaVuSans-48"/>
      </g>
     </g>
    </g>
    <g id="text_13">
     <!-- Count -->
     <defs>
      <path d="M 64.40625 67.28125 
L 64.40625 56.890625 
Q 59.421875 61.53125 53.78125 63.8125 
Q 48.140625 66.109375 41.796875 66.109375 
Q 29.296875 66.109375 22.65625 58.46875 
Q 16.015625 50.828125 16.015625 36.375 
Q 16.015625 21.96875 22.65625 14.328125 
Q 29.296875 6.6875 41.796875 6.6875 
Q 48.140625 6.6875 53.78125 8.984375 
Q 59.421875 11.28125 64.40625 15.921875 
L 64.40625 5.609375 
Q 59.234375 2.09375 53.4375 0.328125 
Q 47.65625 -1.421875 41.21875 -1.421875 
Q 24.65625 -1.421875 15.125 8.703125 
Q 5.609375 18.84375 5.609375 36.375 
Q 5.609375 53.953125 15.125 64.078125 
Q 24.65625 74.21875 41.21875 74.21875 
Q 47.75 74.21875 53.53125 72.484375 
Q 59.328125 70.75 64.40625 67.28125 
z
" id="DejaVuSans-67"/>
      <path d="M 30.609375 48.390625 
Q 23.390625 48.390625 19.1875 42.75 
Q 14.984375 37.109375 14.984375 27.296875 
Q 14.984375 17.484375 19.15625 11.84375 
Q 23.34375 6.203125 30.609375 6.203125 
Q 37.796875 6.203125 41.984375 11.859375 
Q 46.1875 17.53125 46.1875 27.296875 
Q 46.1875 37.015625 41.984375 42.703125 
Q 37.796875 48.390625 30.609375 48.390625 
z
M 30.609375 56 
Q 42.328125 56 49.015625 48.375 
Q 55.71875 40.765625 55.71875 27.296875 
Q 55.71875 13.875 49.015625 6.21875 
Q 42.328125 -1.421875 30.609375 -1.421875 
Q 18.84375 -1.421875 12.171875 6.21875 
Q 5.515625 13.875 5.515625 27.296875 
Q 5.515625 40.765625 12.171875 48.375 
Q 18.84375 56 30.609375 56 
z
" id="DejaVuSans-111"/>
      <path d="M 8.5 21.578125 
L 8.5 54.6875 
L 17.484375 54.6875 
L 17.484375 21.921875 
Q 17.484375 14.15625 20.5 10.265625 
Q 23.53125 6.390625 29.59375 6.390625 
Q 36.859375 6.390625 41.078125 11.03125 
Q 45.3125 15.671875 45.3125 23.6875 
L 45.3125 54.6875 
L 54.296875 54.6875 
L 54.296875 0 
L 45.3125 0 
L 45.3125 8.40625 
Q 42.046875 3.421875 37.71875 1 
Q 33.40625 -1.421875 27.6875 -1.421875 
Q 18.265625 -1.421875 13.375 4.4375 
Q 8.5 10.296875 8.5 21.578125 
z
M 31.109375 56 
z
" id="DejaVuSans-117"/>
     </defs>
     <g transform="translate(18.702813 101.338437)rotate(-90)scale(0.1 -0.1)">
      <use xlink:href="#DejaVuSans-67"/>
      <use x="69.824219" xlink:href="#DejaVuSans-111"/>
      <use x="131.005859" xlink:href="#DejaVuSans-117"/>
      <use x="194.384766" xlink:href="#DejaVuSans-110"/>
      <use x="257.763672" xlink:href="#DejaVuSans-116"/>
     </g>
    </g>
   </g>
   <g id="line2d_12">
    <path clip-path="url(#p8e71dfc9a0)" d="M 52.802425 148.26 
L 56.667275 148.26 
L 60.532125 148.26 
L 64.396975 147.6423 
L 68.261825 143.9361 
L 72.126675 143.9361 
L 75.991525 146.4069 
L 79.856375 147.0246 
L 83.721225 139.6122 
L 87.586075 142.7007 
L 91.450925 138.9945 
L 95.315775 137.7591 
L 99.180625 140.2299 
L 103.045475 138.9945 
L 106.910325 138.9945 
L 110.775175 140.8476 
L 114.640025 145.1715 
L 118.504875 143.9361 
L 122.369725 137.1414 
L 126.234575 137.1414 
L 130.099425 138.3768 
L 133.964275 145.1715 
L 137.829125 144.5538 
L 141.693975 142.083 
L 145.558825 140.2299 
L 149.423675 128.4936 
L 153.288525 118.6104 
L 157.153375 50.0457 
L 161.018225 43.8687 
L 164.883075 32.7501 
L 168.747925 40.7802 
L 172.612775 87.1077 
L 176.477625 132.1998 
L 180.342475 145.7892 
L 184.207325 147.6423 
L 188.072175 147.0246 
L 191.937025 147.6423 
L 195.801875 147.0246 
L 199.666725 147.0246 
L 203.531575 148.26 
L 207.396425 142.083 
L 211.261275 143.3184 
L 215.126125 146.4069 
L 218.990975 145.7892 
L 222.855825 147.6423 
L 226.720675 147.0246 
L 230.585525 144.5538 
L 234.450375 142.7007 
L 238.315225 135.2883 
L 242.180075 142.7007 
L 246.044925 135.2883 
L 249.909775 59.9289 
L 253.774625 140.2299 
L 257.639475 133.4352 
L 261.504325 144.5538 
L 265.369175 145.7892 
L 269.234025 147.6423 
L 273.098875 147.0246 
L 276.963725 128.4936 
L 280.828575 126.0228 
L 284.693425 136.5237 
L 288.558275 137.1414 
L 292.423125 100.0794 
L 296.287975 69.8121 
L 300.152825 135.2883 
L 304.017675 142.7007 
L 307.882525 147.6423 
L 311.747375 147.6423 
L 315.612225 148.26 
L 319.477075 138.3768 
L 323.341925 147.0246 
L 327.206775 148.26 
L 331.071625 148.26 
L 334.936475 148.26 
L 338.801325 148.26 
L 342.666175 148.26 
L 346.531025 148.26 
L 350.395875 148.26 
L 354.260725 147.6423 
L 358.125575 148.26 
L 361.990425 148.26 
L 365.855275 148.26 
L 369.720125 148.26 
L 373.584975 143.9361 
L 377.449825 147.6423 
L 381.314675 143.3184 
L 385.179525 145.7892 
L 389.044375 147.0246 
L 392.909225 129.1113 
L 396.774075 148.26 
L 400.638925 148.26 
L 404.503775 148.26 
L 408.368625 148.26 
L 412.233475 148.26 
L 416.098325 148.26 
L 419.963175 147.6423 
L 423.828025 148.26 
L 427.692875 127.8759 
L 431.557725 77.8422 
L 435.422575 138.3768 
" style="fill:none;stroke:#1f77b4;"/>
   </g>
   <g id="line2d_13">
    <path clip-path="url(#p8e71dfc9a0)" d="M 166.8155 148.26 
L 166.8155 24.72 
" style="fill:none;stroke:#ff0000;"/>
   </g>
   <g id="patch_3">
    <path d="M 50.87 148.26 
L 50.87 24.72 
" style="fill:none;stroke:#000000;stroke-linecap:square;stroke-linejoin:miter;stroke-width:0.8;"/>
   </g>
   <g id="patch_4">
    <path d="M 437.355 148.26 
L 437.355 24.72 
" style="fill:none;stroke:#000000;stroke-linecap:square;stroke-linejoin:miter;stroke-width:0.8;"/>
   </g>
   <g id="patch_5">
    <path d="M 50.87 148.26 
L 437.355 148.26 
" style="fill:none;stroke:#000000;stroke-linecap:square;stroke-linejoin:miter;stroke-width:0.8;"/>
   </g>
   <g id="patch_6">
    <path d="M 50.87 24.72 
L 437.355 24.72 
" style="fill:none;stroke:#000000;stroke-linecap:square;stroke-linejoin:miter;stroke-width:0.8;"/>
   </g>
   <g id="text_14">
    <!-- sp_cas9/blast_refseq_5000/mafft_2000 -->
    <defs>
     <path d="M 44.28125 53.078125 
L 44.28125 44.578125 
Q 40.484375 46.53125 36.375 47.5 
Q 32.28125 48.484375 27.875 48.484375 
Q 21.1875 48.484375 17.84375 46.4375 
Q 14.5 44.390625 14.5 40.28125 
Q 14.5 37.15625 16.890625 35.375 
Q 19.28125 33.59375 26.515625 31.984375 
L 29.59375 31.296875 
Q 39.15625 29.25 43.1875 25.515625 
Q 47.21875 21.78125 47.21875 15.09375 
Q 47.21875 7.46875 41.1875 3.015625 
Q 35.15625 -1.421875 24.609375 -1.421875 
Q 20.21875 -1.421875 15.453125 -0.5625 
Q 10.6875 0.296875 5.421875 2 
L 5.421875 11.28125 
Q 10.40625 8.6875 15.234375 7.390625 
Q 20.0625 6.109375 24.8125 6.109375 
Q 31.15625 6.109375 34.5625 8.28125 
Q 37.984375 10.453125 37.984375 14.40625 
Q 37.984375 18.0625 35.515625 20.015625 
Q 33.0625 21.96875 24.703125 23.78125 
L 21.578125 24.515625 
Q 13.234375 26.265625 9.515625 29.90625 
Q 5.8125 33.546875 5.8125 39.890625 
Q 5.8125 47.609375 11.28125 51.796875 
Q 16.75 56 26.8125 56 
Q 31.78125 56 36.171875 55.265625 
Q 40.578125 54.546875 44.28125 53.078125 
z
" id="DejaVuSans-115"/>
     <path d="M 18.109375 8.203125 
L 18.109375 -20.796875 
L 9.078125 -20.796875 
L 9.078125 54.6875 
L 18.109375 54.6875 
L 18.109375 46.390625 
Q 20.953125 51.265625 25.265625 53.625 
Q 29.59375 56 35.59375 56 
Q 45.5625 56 51.78125 48.09375 
Q 58.015625 40.1875 58.015625 27.296875 
Q 58.015625 14.40625 51.78125 6.484375 
Q 45.5625 -1.421875 35.59375 -1.421875 
Q 29.59375 -1.421875 25.265625 0.953125 
Q 20.953125 3.328125 18.109375 8.203125 
z
M 48.6875 27.296875 
Q 48.6875 37.203125 44.609375 42.84375 
Q 40.53125 48.484375 33.40625 48.484375 
Q 26.265625 48.484375 22.1875 42.84375 
Q 18.109375 37.203125 18.109375 27.296875 
Q 18.109375 17.390625 22.1875 11.75 
Q 26.265625 6.109375 33.40625 6.109375 
Q 40.53125 6.109375 44.609375 11.75 
Q 48.6875 17.390625 48.6875 27.296875 
z
" id="DejaVuSans-112"/>
     <path d="M 50.984375 -16.609375 
L 50.984375 -23.578125 
L -0.984375 -23.578125 
L -0.984375 -16.609375 
z
" id="DejaVuSans-95"/>
     <path d="M 48.78125 52.59375 
L 48.78125 44.1875 
Q 44.96875 46.296875 41.140625 47.34375 
Q 37.3125 48.390625 33.40625 48.390625 
Q 24.65625 48.390625 19.8125 42.84375 
Q 14.984375 37.3125 14.984375 27.296875 
Q 14.984375 17.28125 19.8125 11.734375 
Q 24.65625 6.203125 33.40625 6.203125 
Q 37.3125 6.203125 41.140625 7.25 
Q 44.96875 8.296875 48.78125 10.40625 
L 48.78125 2.09375 
Q 45.015625 0.34375 40.984375 -0.53125 
Q 36.96875 -1.421875 32.421875 -1.421875 
Q 20.0625 -1.421875 12.78125 6.34375 
Q 5.515625 14.109375 5.515625 27.296875 
Q 5.515625 40.671875 12.859375 48.328125 
Q 20.21875 56 33.015625 56 
Q 37.15625 56 41.109375 55.140625 
Q 45.0625 54.296875 48.78125 52.59375 
z
" id="DejaVuSans-99"/>
     <path d="M 34.28125 27.484375 
Q 23.390625 27.484375 19.1875 25 
Q 14.984375 22.515625 14.984375 16.5 
Q 14.984375 11.71875 18.140625 8.90625 
Q 21.296875 6.109375 26.703125 6.109375 
Q 34.1875 6.109375 38.703125 11.40625 
Q 43.21875 16.703125 43.21875 25.484375 
L 43.21875 27.484375 
z
M 52.203125 31.203125 
L 52.203125 0 
L 43.21875 0 
L 43.21875 8.296875 
Q 40.140625 3.328125 35.546875 0.953125 
Q 30.953125 -1.421875 24.3125 -1.421875 
Q 15.921875 -1.421875 10.953125 3.296875 
Q 6 8.015625 6 15.921875 
Q 6 25.140625 12.171875 29.828125 
Q 18.359375 34.515625 30.609375 34.515625 
L 43.21875 34.515625 
L 43.21875 35.40625 
Q 43.21875 41.609375 39.140625 45 
Q 35.0625 48.390625 27.6875 48.390625 
Q 23 48.390625 18.546875 47.265625 
Q 14.109375 46.140625 10.015625 43.890625 
L 10.015625 52.203125 
Q 14.9375 54.109375 19.578125 55.046875 
Q 24.21875 56 28.609375 56 
Q 40.484375 56 46.34375 49.84375 
Q 52.203125 43.703125 52.203125 31.203125 
z
" id="DejaVuSans-97"/>
     <path d="M 10.984375 1.515625 
L 10.984375 10.5 
Q 14.703125 8.734375 18.5 7.8125 
Q 22.3125 6.890625 25.984375 6.890625 
Q 35.75 6.890625 40.890625 13.453125 
Q 46.046875 20.015625 46.78125 33.40625 
Q 43.953125 29.203125 39.59375 26.953125 
Q 35.25 24.703125 29.984375 24.703125 
Q 19.046875 24.703125 12.671875 31.3125 
Q 6.296875 37.9375 6.296875 49.421875 
Q 6.296875 60.640625 12.9375 67.421875 
Q 19.578125 74.21875 30.609375 74.21875 
Q 43.265625 74.21875 49.921875 64.515625 
Q 56.59375 54.828125 56.59375 36.375 
Q 56.59375 19.140625 48.40625 8.859375 
Q 40.234375 -1.421875 26.421875 -1.421875 
Q 22.703125 -1.421875 18.890625 -0.6875 
Q 15.09375 0.046875 10.984375 1.515625 
z
M 30.609375 32.421875 
Q 37.25 32.421875 41.125 36.953125 
Q 45.015625 41.5 45.015625 49.421875 
Q 45.015625 57.28125 41.125 61.84375 
Q 37.25 66.40625 30.609375 66.40625 
Q 23.96875 66.40625 20.09375 61.84375 
Q 16.21875 57.28125 16.21875 49.421875 
Q 16.21875 41.5 20.09375 36.953125 
Q 23.96875 32.421875 30.609375 32.421875 
z
" id="DejaVuSans-57"/>
     <path d="M 25.390625 72.90625 
L 33.6875 72.90625 
L 8.296875 -9.28125 
L 0 -9.28125 
z
" id="DejaVuSans-47"/>
     <path d="M 48.6875 27.296875 
Q 48.6875 37.203125 44.609375 42.84375 
Q 40.53125 48.484375 33.40625 48.484375 
Q 26.265625 48.484375 22.1875 42.84375 
Q 18.109375 37.203125 18.109375 27.296875 
Q 18.109375 17.390625 22.1875 11.75 
Q 26.265625 6.109375 33.40625 6.109375 
Q 40.53125 6.109375 44.609375 11.75 
Q 48.6875 17.390625 48.6875 27.296875 
z
M 18.109375 46.390625 
Q 20.953125 51.265625 25.265625 53.625 
Q 29.59375 56 35.59375 56 
Q 45.5625 56 51.78125 48.09375 
Q 58.015625 40.1875 58.015625 27.296875 
Q 58.015625 14.40625 51.78125 6.484375 
Q 45.5625 -1.421875 35.59375 -1.421875 
Q 29.59375 -1.421875 25.265625 0.953125 
Q 20.953125 3.328125 18.109375 8.203125 
L 18.109375 0 
L 9.078125 0 
L 9.078125 75.984375 
L 18.109375 75.984375 
z
" id="DejaVuSans-98"/>
     <path d="M 9.421875 75.984375 
L 18.40625 75.984375 
L 18.40625 0 
L 9.421875 0 
z
" id="DejaVuSans-108"/>
     <path d="M 41.109375 46.296875 
Q 39.59375 47.171875 37.8125 47.578125 
Q 36.03125 48 33.890625 48 
Q 26.265625 48 22.1875 43.046875 
Q 18.109375 38.09375 18.109375 28.8125 
L 18.109375 0 
L 9.078125 0 
L 9.078125 54.6875 
L 18.109375 54.6875 
L 18.109375 46.1875 
Q 20.953125 51.171875 25.484375 53.578125 
Q 30.03125 56 36.53125 56 
Q 37.453125 56 38.578125 55.875 
Q 39.703125 55.765625 41.0625 55.515625 
z
" id="DejaVuSans-114"/>
     <path d="M 37.109375 75.984375 
L 37.109375 68.5 
L 28.515625 68.5 
Q 23.6875 68.5 21.796875 66.546875 
Q 19.921875 64.59375 19.921875 59.515625 
L 19.921875 54.6875 
L 34.71875 54.6875 
L 34.71875 47.703125 
L 19.921875 47.703125 
L 19.921875 0 
L 10.890625 0 
L 10.890625 47.703125 
L 2.296875 47.703125 
L 2.296875 54.6875 
L 10.890625 54.6875 
L 10.890625 58.5 
Q 10.890625 67.625 15.140625 71.796875 
Q 19.390625 75.984375 28.609375 75.984375 
z
" id="DejaVuSans-102"/>
     <path d="M 14.796875 27.296875 
Q 14.796875 17.390625 18.875 11.75 
Q 22.953125 6.109375 30.078125 6.109375 
Q 37.203125 6.109375 41.296875 11.75 
Q 45.40625 17.390625 45.40625 27.296875 
Q 45.40625 37.203125 41.296875 42.84375 
Q 37.203125 48.484375 30.078125 48.484375 
Q 22.953125 48.484375 18.875 42.84375 
Q 14.796875 37.203125 14.796875 27.296875 
z
M 45.40625 8.203125 
Q 42.578125 3.328125 38.25 0.953125 
Q 33.9375 -1.421875 27.875 -1.421875 
Q 17.96875 -1.421875 11.734375 6.484375 
Q 5.515625 14.40625 5.515625 27.296875 
Q 5.515625 40.1875 11.734375 48.09375 
Q 17.96875 56 27.875 56 
Q 33.9375 56 38.25 53.625 
Q 42.578125 51.265625 45.40625 46.390625 
L 45.40625 54.6875 
L 54.390625 54.6875 
L 54.390625 -20.796875 
L 45.40625 -20.796875 
z
" id="DejaVuSans-113"/>
     <path d="M 52 44.1875 
Q 55.375 50.25 60.0625 53.125 
Q 64.75 56 71.09375 56 
Q 79.640625 56 84.28125 50.015625 
Q 88.921875 44.046875 88.921875 33.015625 
L 88.921875 0 
L 79.890625 0 
L 79.890625 32.71875 
Q 79.890625 40.578125 77.09375 44.375 
Q 74.3125 48.1875 68.609375 48.1875 
Q 61.625 48.1875 57.5625 43.546875 
Q 53.515625 38.921875 53.515625 30.90625 
L 53.515625 0 
L 44.484375 0 
L 44.484375 32.71875 
Q 44.484375 40.625 41.703125 44.40625 
Q 38.921875 48.1875 33.109375 48.1875 
Q 26.21875 48.1875 22.15625 43.53125 
Q 18.109375 38.875 18.109375 30.90625 
L 18.109375 0 
L 9.078125 0 
L 9.078125 54.6875 
L 18.109375 54.6875 
L 18.109375 46.1875 
Q 21.1875 51.21875 25.484375 53.609375 
Q 29.78125 56 35.6875 56 
Q 41.65625 56 45.828125 52.96875 
Q 50 49.953125 52 44.1875 
z
" id="DejaVuSans-109"/>
    </defs>
    <g transform="translate(146.563281 18.72)scale(0.1 -0.1)">
     <use xlink:href="#DejaVuSans-115"/>
     <use x="52.099609" xlink:href="#DejaVuSans-112"/>
     <use x="115.576172" xlink:href="#DejaVuSans-95"/>
     <use x="165.576172" xlink:href="#DejaVuSans-99"/>
     <use x="220.556641" xlink:href="#DejaVuSans-97"/>
     <use x="281.835938" xlink:href="#DejaVuSans-115"/>
     <use x="333.935547" xlink:href="#DejaVuSans-57"/>
     <use x="397.558594" xlink:href="#DejaVuSans-47"/>
     <use x="431.25" xlink:href="#DejaVuSans-98"/>
     <use x="494.726562" xlink:href="#DejaVuSans-108"/>
     <use x="522.509766" xlink:href="#DejaVuSans-97"/>
     <use x="583.789062" xlink:href="#DejaVuSans-115"/>
     <use x="635.888672" xlink:href="#DejaVuSans-116"/>
     <use x="675.097656" xlink:href="#DejaVuSans-95"/>
     <use x="725.097656" xlink:href="#DejaVuSans-114"/>
     <use x="766.179688" xlink:href="#DejaVuSans-101"/>
     <use x="827.703125" xlink:href="#DejaVuSans-102"/>
     <use x="862.908203" xlink:href="#DejaVuSans-115"/>
     <use x="915.007812" xlink:href="#DejaVuSans-101"/>
     <use x="976.53125" xlink:href="#DejaVuSans-113"/>
     <use x="1040.007812" xlink:href="#DejaVuSans-95"/>
     <use x="1090.007812" xlink:href="#DejaVuSans-53"/>
     <use x="1153.630859" xlink:href="#DejaVuSans-48"/>
     <use x="1217.253906" xlink:href="#DejaVuSans-48"/>
     <use x="1280.876953" xlink:href="#DejaVuSans-48"/>
     <use x="1344.5" xlink:href="#DejaVuSans-47"/>
     <use x="1378.191406" xlink:href="#DejaVuSans-109"/>
     <use x="1475.603516" xlink:href="#DejaVuSans-97"/>
     <use x="1536.882812" xlink:href="#DejaVuSans-102"/>
     <use x="1572.087891" xlink:href="#DejaVuSans-102"/>
     <use x="1607.277344" xlink:href="#DejaVuSans-116"/>
     <use x="1646.486328" xlink:href="#DejaVuSans-95"/>
     <use x="1696.486328" xlink:href="#DejaVuSans-50"/>
     <use x="1760.109375" xlink:href="#DejaVuSans-48"/>
     <use x="1823.732422" xlink:href="#DejaVuSans-48"/>
     <use x="1887.355469" xlink:href="#DejaVuSans-48"/>
    </g>
   </g>
  </g>
  <g id="axes_2">
   <g id="patch_7">
    <path d="M 50.87 317.72 
L 437.355 317.72 
L 437.355 194.18 
L 50.87 194.18 
z
" style="fill:#ffffff;"/>
   </g>
   <g id="matplotlib.axis_3">
    <g id="xtick_7">
     <g id="line2d_14">
      <g>
       <use style="stroke:#000000;stroke-width:0.8;" x="50.87" xlink:href="#m9854073f5c" y="317.72"/>
      </g>
     </g>
     <g id="text_15">
      <!-- 0 -->
      <g transform="translate(47.68875 332.318437)scale(0.1 -0.1)">
       <use xlink:href="#DejaVuSans-48"/>
      </g>
     </g>
    </g>
    <g id="xtick_8">
     <g id="line2d_15">
      <g>
       <use style="stroke:#000000;stroke-width:0.8;" x="107.373655" xlink:href="#m9854073f5c" y="317.72"/>
      </g>
     </g>
     <g id="text_16">
      <!-- 200 -->
      <g transform="translate(97.829905 332.318437)scale(0.1 -0.1)">
       <use xlink:href="#DejaVuSans-50"/>
       <use x="63.623047" xlink:href="#DejaVuSans-48"/>
       <use x="127.246094" xlink:href="#DejaVuSans-48"/>
      </g>
     </g>
    </g>
    <g id="xtick_9">
     <g id="line2d_16">
      <g>
       <use style="stroke:#000000;stroke-width:0.8;" x="163.87731" xlink:href="#m9854073f5c" y="317.72"/>
      </g>
     </g>
     <g id="text_17">
      <!-- 400 -->
      <g transform="translate(154.33356 332.318437)scale(0.1 -0.1)">
       <use xlink:href="#DejaVuSans-52"/>
       <use x="63.623047" xlink:href="#DejaVuSans-48"/>
       <use x="127.246094" xlink:href="#DejaVuSans-48"/>
      </g>
     </g>
    </g>
    <g id="xtick_10">
     <g id="line2d_17">
      <g>
       <use style="stroke:#000000;stroke-width:0.8;" x="220.380965" xlink:href="#m9854073f5c" y="317.72"/>
      </g>
     </g>
     <g id="text_18">
      <!-- 600 -->
      <g transform="translate(210.837215 332.318437)scale(0.1 -0.1)">
       <use xlink:href="#DejaVuSans-54"/>
       <use x="63.623047" xlink:href="#DejaVuSans-48"/>
       <use x="127.246094" xlink:href="#DejaVuSans-48"/>
      </g>
     </g>
    </g>
    <g id="xtick_11">
     <g id="line2d_18">
      <g>
       <use style="stroke:#000000;stroke-width:0.8;" x="276.88462" xlink:href="#m9854073f5c" y="317.72"/>
      </g>
     </g>
     <g id="text_19">
      <!-- 800 -->
      <g transform="translate(267.34087 332.318437)scale(0.1 -0.1)">
       <use xlink:href="#DejaVuSans-56"/>
       <use x="63.623047" xlink:href="#DejaVuSans-48"/>
       <use x="127.246094" xlink:href="#DejaVuSans-48"/>
      </g>
     </g>
    </g>
    <g id="xtick_12">
     <g id="line2d_19">
      <g>
       <use style="stroke:#000000;stroke-width:0.8;" x="333.388275" xlink:href="#m9854073f5c" y="317.72"/>
      </g>
     </g>
     <g id="text_20">
      <!-- 1000 -->
      <g transform="translate(320.663275 332.318437)scale(0.1 -0.1)">
       <use xlink:href="#DejaVuSans-49"/>
       <use x="63.623047" xlink:href="#DejaVuSans-48"/>
       <use x="127.246094" xlink:href="#DejaVuSans-48"/>
       <use x="190.869141" xlink:href="#DejaVuSans-48"/>
      </g>
     </g>
    </g>
    <g id="xtick_13">
     <g id="line2d_20">
      <g>
       <use style="stroke:#000000;stroke-width:0.8;" x="389.89193" xlink:href="#m9854073f5c" y="317.72"/>
      </g>
     </g>
     <g id="text_21">
      <!-- 1200 -->
      <g transform="translate(377.16693 332.318437)scale(0.1 -0.1)">
       <use xlink:href="#DejaVuSans-49"/>
       <use x="63.623047" xlink:href="#DejaVuSans-50"/>
       <use x="127.246094" xlink:href="#DejaVuSans-48"/>
       <use x="190.869141" xlink:href="#DejaVuSans-48"/>
      </g>
     </g>
    </g>
    <g id="text_22">
     <!-- Residue index -->
     <defs>
      <path d="M 44.390625 34.1875 
Q 47.5625 33.109375 50.5625 29.59375 
Q 53.5625 26.078125 56.59375 19.921875 
L 66.609375 0 
L 56 0 
L 46.6875 18.703125 
Q 43.0625 26.03125 39.671875 28.421875 
Q 36.28125 30.8125 30.421875 30.8125 
L 19.671875 30.8125 
L 19.671875 0 
L 9.8125 0 
L 9.8125 72.90625 
L 32.078125 72.90625 
Q 44.578125 72.90625 50.734375 67.671875 
Q 56.890625 62.453125 56.890625 51.90625 
Q 56.890625 45.015625 53.6875 40.46875 
Q 50.484375 35.9375 44.390625 34.1875 
z
M 19.671875 64.796875 
L 19.671875 38.921875 
L 32.078125 38.921875 
Q 39.203125 38.921875 42.84375 42.21875 
Q 46.484375 45.515625 46.484375 51.90625 
Q 46.484375 58.296875 42.84375 61.546875 
Q 39.203125 64.796875 32.078125 64.796875 
z
" id="DejaVuSans-82"/>
      <path d="M 54.890625 54.6875 
L 35.109375 28.078125 
L 55.90625 0 
L 45.3125 0 
L 29.390625 21.484375 
L 13.484375 0 
L 2.875 0 
L 24.125 28.609375 
L 4.6875 54.6875 
L 15.28125 54.6875 
L 29.78125 35.203125 
L 44.28125 54.6875 
z
" id="DejaVuSans-120"/>
     </defs>
     <g transform="translate(208.795313 345.996562)scale(0.1 -0.1)">
      <use xlink:href="#DejaVuSans-82"/>
      <use x="69.419922" xlink:href="#DejaVuSans-101"/>
      <use x="130.943359" xlink:href="#DejaVuSans-115"/>
      <use x="183.042969" xlink:href="#DejaVuSans-105"/>
      <use x="210.826172" xlink:href="#DejaVuSans-100"/>
      <use x="274.302734" xlink:href="#DejaVuSans-117"/>
      <use x="337.681641" xlink:href="#DejaVuSans-101"/>
      <use x="399.205078" xlink:href="#DejaVuSans-32"/>
      <use x="430.992188" xlink:href="#DejaVuSans-105"/>
      <use x="458.775391" xlink:href="#DejaVuSans-110"/>
      <use x="522.154297" xlink:href="#DejaVuSans-100"/>
      <use x="585.630859" xlink:href="#DejaVuSans-101"/>
      <use x="647.138672" xlink:href="#DejaVuSans-120"/>
     </g>
    </g>
   </g>
   <g id="matplotlib.axis_4">
    <g id="ytick_6">
     <g id="line2d_21">
      <g>
       <use style="stroke:#000000;stroke-width:0.8;" x="50.87" xlink:href="#m805a931a81" y="317.72"/>
      </g>
     </g>
     <g id="text_23">
      <!-- 0 -->
      <g transform="translate(37.5075 321.519219)scale(0.1 -0.1)">
       <use xlink:href="#DejaVuSans-48"/>
      </g>
     </g>
    </g>
    <g id="ytick_7">
     <g id="line2d_22">
      <g>
       <use style="stroke:#000000;stroke-width:0.8;" x="50.87" xlink:href="#m805a931a81" y="286.835"/>
      </g>
     </g>
     <g id="text_24">
      <!-- 200 -->
      <g transform="translate(24.7825 290.634219)scale(0.1 -0.1)">
       <use xlink:href="#DejaVuSans-50"/>
       <use x="63.623047" xlink:href="#DejaVuSans-48"/>
       <use x="127.246094" xlink:href="#DejaVuSans-48"/>
      </g>
     </g>
    </g>
    <g id="ytick_8">
     <g id="line2d_23">
      <g>
       <use style="stroke:#000000;stroke-width:0.8;" x="50.87" xlink:href="#m805a931a81" y="255.95"/>
      </g>
     </g>
     <g id="text_25">
      <!-- 400 -->
      <g transform="translate(24.7825 259.749219)scale(0.1 -0.1)">
       <use xlink:href="#DejaVuSans-52"/>
       <use x="63.623047" xlink:href="#DejaVuSans-48"/>
       <use x="127.246094" xlink:href="#DejaVuSans-48"/>
      </g>
     </g>
    </g>
    <g id="ytick_9">
     <g id="line2d_24">
      <g>
       <use style="stroke:#000000;stroke-width:0.8;" x="50.87" xlink:href="#m805a931a81" y="225.065"/>
      </g>
     </g>
     <g id="text_26">
      <!-- 600 -->
      <g transform="translate(24.7825 228.864219)scale(0.1 -0.1)">
       <use xlink:href="#DejaVuSans-54"/>
       <use x="63.623047" xlink:href="#DejaVuSans-48"/>
       <use x="127.246094" xlink:href="#DejaVuSans-48"/>
      </g>
     </g>
    </g>
    <g id="ytick_10">
     <g id="line2d_25">
      <g>
       <use style="stroke:#000000;stroke-width:0.8;" x="50.87" xlink:href="#m805a931a81" y="194.18"/>
      </g>
     </g>
     <g id="text_27">
      <!-- 800 -->
      <g transform="translate(24.7825 197.979219)scale(0.1 -0.1)">
       <use xlink:href="#DejaVuSans-56"/>
       <use x="63.623047" xlink:href="#DejaVuSans-48"/>
       <use x="127.246094" xlink:href="#DejaVuSans-48"/>
      </g>
     </g>
    </g>
    <g id="text_28">
     <!-- Score -->
     <defs>
      <path d="M 53.515625 70.515625 
L 53.515625 60.890625 
Q 47.90625 63.578125 42.921875 64.890625 
Q 37.9375 66.21875 33.296875 66.21875 
Q 25.25 66.21875 20.875 63.09375 
Q 16.5 59.96875 16.5 54.203125 
Q 16.5 49.359375 19.40625 46.890625 
Q 22.3125 44.4375 30.421875 42.921875 
L 36.375 41.703125 
Q 47.40625 39.59375 52.65625 34.296875 
Q 57.90625 29 57.90625 20.125 
Q 57.90625 9.515625 50.796875 4.046875 
Q 43.703125 -1.421875 29.984375 -1.421875 
Q 24.8125 -1.421875 18.96875 -0.25 
Q 13.140625 0.921875 6.890625 3.21875 
L 6.890625 13.375 
Q 12.890625 10.015625 18.65625 8.296875 
Q 24.421875 6.59375 29.984375 6.59375 
Q 38.421875 6.59375 43.015625 9.90625 
Q 47.609375 13.234375 47.609375 19.390625 
Q 47.609375 24.75 44.3125 27.78125 
Q 41.015625 30.8125 33.5 32.328125 
L 27.484375 33.5 
Q 16.453125 35.6875 11.515625 40.375 
Q 6.59375 45.0625 6.59375 53.421875 
Q 6.59375 63.09375 13.40625 68.65625 
Q 20.21875 74.21875 32.171875 74.21875 
Q 37.3125 74.21875 42.625 73.28125 
Q 47.953125 72.359375 53.515625 70.515625 
z
" id="DejaVuSans-83"/>
     </defs>
     <g transform="translate(18.702813 270.063281)rotate(-90)scale(0.1 -0.1)">
      <use xlink:href="#DejaVuSans-83"/>
      <use x="63.476562" xlink:href="#DejaVuSans-99"/>
      <use x="118.457031" xlink:href="#DejaVuSans-111"/>
      <use x="179.638672" xlink:href="#DejaVuSans-114"/>
      <use x="220.720703" xlink:href="#DejaVuSans-101"/>
     </g>
    </g>
   </g>
   <g id="line2d_26">
    <path clip-path="url(#p6409c11905)" d="M 50.87 316.541042 
L 51.152518 316.670858 
L 51.435037 306.495741 
L 51.717555 309.809218 
L 52.000073 317.673379 
L 52.282591 305.458113 
L 52.56511 317.673379 
L 53.130146 317.637821 
L 53.977701 317.684442 
L 59.06303 317.612648 
L 59.345548 317.432824 
L 59.910585 317.384848 
L 60.193103 276.447322 
L 61.888213 276.472608 
L 62.170731 276.29888 
L 62.735768 276.472608 
L 63.018286 276.519117 
L 63.300804 276.907888 
L 63.583322 317.4957 
L 64.148359 317.4957 
L 64.430877 317.675524 
L 65.56095 317.444112 
L 66.408505 317.435984 
L 76.014126 317.478429 
L 76.296645 317.291719 
L 76.579163 313.578182 
L 76.861681 313.623109 
L 77.1442 317.098236 
L 78.274273 317.331003 
L 78.556791 313.823817 
L 78.839309 317.2495 
L 79.121827 317.2495 
L 79.404346 317.396927 
L 80.534419 317.427744 
L 80.816937 317.175449 
L 81.664492 317.12657 
L 81.94701 304.55572 
L 82.229529 304.394296 
L 82.512047 309.69419 
L 82.794565 307.51621 
L 83.359602 311.953333 
L 83.64212 312.255184 
L 83.924638 313.728768 
L 84.207156 317.396927 
L 84.489675 316.956793 
L 84.772193 316.836459 
L 85.054711 316.850343 
L 85.33723 315.654679 
L 85.619748 302.142604 
L 85.902266 317.15005 
L 86.749821 317.014251 
L 87.032339 316.707997 
L 87.314857 317.158742 
L 87.597376 316.605386 
L 87.879894 316.999011 
L 88.162412 317.028135 
L 88.444931 317.340711 
L 90.987595 317.340711 
L 91.270113 317.041117 
L 91.552632 289.2874 
L 91.83515 314.869798 
L 92.117668 317.243969 
L 92.400186 317.028926 
L 92.682705 315.50285 
L 92.965223 317.27885 
L 94.095296 317.225343 
L 97.485515 317.306845 
L 98.050552 317.359111 
L 98.898107 317.181432 
L 99.180625 315.998635 
L 100.02818 315.87435 
L 100.310698 315.811813 
L 100.593216 307.661153 
L 100.875735 313.941554 
L 101.158253 314.745287 
L 101.440771 314.639402 
L 101.723289 313.428385 
L 102.005808 313.076413 
L 102.288326 313.141208 
L 102.570844 313.062077 
L 102.853363 316.706304 
L 103.135881 317.078594 
L 103.700917 317.157726 
L 103.983436 317.157726 
L 104.548472 315.390756 
L 104.83099 315.262746 
L 105.113509 312.298983 
L 105.396027 314.02046 
L 105.961064 298.177674 
L 106.243582 308.302558 
L 106.5261 307.086913 
L 106.808618 311.880861 
L 107.091137 311.947688 
L 107.373655 312.35915 
L 107.656173 291.291764 
L 107.938692 311.034233 
L 108.22121 276.638548 
L 108.503728 287.548313 
L 108.786246 278.678583 
L 109.068765 301.092559 
L 109.351283 312.836535 
L 109.633801 317.094172 
L 110.481356 316.98603 
L 110.763874 316.330739 
L 111.046393 313.353204 
L 111.328911 315.79917 
L 111.611429 311.54379 
L 111.893947 317.153775 
L 112.741502 317.108396 
L 113.306539 317.165854 
L 114.154094 317.07724 
L 114.436612 313.289876 
L 115.001648 313.330515 
L 115.284167 312.959014 
L 115.566685 293.548649 
L 115.849203 289.293834 
L 116.131721 279.875603 
L 116.41424 313.999125 
L 116.696758 316.382553 
L 116.979276 316.377586 
L 117.261795 316.754392 
L 117.544313 314.942043 
L 117.826831 307.90532 
L 118.109349 316.868292 
L 118.391868 316.935006 
L 118.674386 317.132214 
L 122.064605 317.213603 
L 122.347124 317.304249 
L 122.629642 317.175562 
L 122.91216 317.275802 
L 123.194678 293.932793 
L 123.477197 281.308211 
L 123.759715 312.66213 
L 124.042233 313.966953 
L 124.324751 307.417663 
L 124.60727 308.812793 
L 124.889788 315.390305 
L 125.172306 315.954611 
L 125.454825 317.13244 
L 125.737343 317.134133 
L 126.019861 311.393429 
L 126.302379 312.1055 
L 126.584898 316.478279 
L 126.867416 315.410511 
L 127.149934 317.068322 
L 127.714971 317.061436 
L 127.997489 316.542961 
L 128.280007 317.105687 
L 128.845044 317.238325 
L 129.127562 317.238325 
L 129.41008 313.081606 
L 129.692599 313.135903 
L 129.975117 313.059368 
L 130.257635 312.511769 
L 130.540154 308.290367 
L 130.822672 315.997507 
L 131.10519 314.855349 
L 131.387708 315.348989 
L 131.670227 317.057598 
L 132.235263 317.28551 
L 136.755556 317.265756 
L 137.038074 316.88466 
L 137.320592 302.199497 
L 137.60311 277.473323 
L 137.885629 312.705251 
L 138.168147 289.421732 
L 138.450665 288.340418 
L 138.733183 280.22622 
L 139.015702 279.764412 
L 139.29822 304.549963 
L 139.580738 315.873447 
L 140.145775 317.298153 
L 141.275848 317.332018 
L 141.840885 317.353128 
L 142.123403 317.181883 
L 143.818512 317.216087 
L 144.101031 317.395911 
L 145.513622 317.362046 
L 145.79614 315.62262 
L 146.078659 314.925224 
L 146.361177 315.577805 
L 146.643695 317.242502 
L 147.208732 313.002023 
L 147.49125 293.342975 
L 147.773768 299.090565 
L 148.056287 316.15656 
L 148.338805 314.243067 
L 148.621323 292.473883 
L 148.903841 316.611594 
L 149.18636 278.814044 
L 149.468878 293.12082 
L 150.033914 293.029271 
L 150.316433 314.993067 
L 150.598951 314.900276 
L 150.881469 313.800563 
L 151.163988 314.243293 
L 151.446506 303.864533 
L 151.729024 316.962098 
L 152.576579 317.160887 
L 152.859097 315.508381 
L 153.141615 317.201751 
L 153.424134 310.822576 
L 153.98917 306.778176 
L 154.271689 311.207171 
L 154.554207 296.759515 
L 154.836725 316.814108 
L 155.119243 313.27046 
L 155.401762 313.131049 
L 155.68428 313.2673 
L 155.966798 316.978692 
L 156.814353 316.947875 
L 157.096871 315.506688 
L 157.661908 314.704874 
L 157.944426 315.415478 
L 158.226944 302.847902 
L 158.791981 309.838794 
L 159.074499 309.98622 
L 159.357018 312.568323 
L 159.639536 316.447123 
L 159.922054 316.563732 
L 160.487091 316.976547 
L 160.769609 317.024636 
L 161.052127 317.257741 
L 162.1822 316.960518 
L 162.747237 317.271513 
L 163.029755 317.271513 
L 163.312273 317.091689 
L 165.289901 316.89798 
L 165.57242 317.074982 
L 166.419974 317.088641 
L 166.702493 317.268465 
L 168.680121 317.268465 
L 169.527675 317.311925 
L 171.505303 317.358546 
L 172.352858 317.464996 
L 173.200413 317.225795 
L 173.482931 312.311174 
L 173.76545 310.951602 
L 174.047968 307.544657 
L 174.330486 317.135826 
L 174.613004 317.423341 
L 178.850779 317.358546 
L 179.133297 317.259773 
L 179.415815 308.864607 
L 179.698333 311.619874 
L 180.26337 307.16627 
L 180.545888 313.683051 
L 180.828406 304.595117 
L 181.110925 317.241824 
L 181.675961 317.328293 
L 182.240998 317.328293 
L 182.523516 317.328293 
L 182.806034 314.563996 
L 183.088553 315.049396 
L 183.371071 312.238928 
L 183.653589 317.254919 
L 184.783662 317.357982 
L 185.631217 317.360127 
L 185.913735 317.210781 
L 186.196254 317.360127 
L 186.478772 317.300185 
L 187.043808 317.340372 
L 192.129137 317.343871 
L 192.411656 316.814333 
L 192.694174 317.261353 
L 193.259211 317.343871 
L 199.474613 317.336647 
L 200.039649 316.996528 
L 200.322167 317.064935 
L 200.604686 282.635046 
L 200.887204 282.635046 
L 201.169722 282.755606 
L 201.45224 317.018202 
L 201.734759 317.018202 
L 202.017277 317.336647 
L 202.299795 317.336647 
L 202.582314 273.879894 
L 202.864832 274.873045 
L 203.429868 274.916167 
L 203.712387 317.355385 
L 203.994905 316.81614 
L 204.277423 317.355385 
L 205.690015 317.370512 
L 205.972533 316.904641 
L 206.255051 317.004994 
L 206.537569 317.369383 
L 206.820088 317.4037 
L 207.102606 314.946784 
L 207.385124 316.900802 
L 207.667643 316.196182 
L 207.950161 317.1391 
L 208.232679 317.158855 
L 208.515197 317.298379 
L 208.797716 317.216877 
L 209.362752 317.298379 
L 210.210307 317.253113 
L 210.492825 316.963114 
L 210.775344 317.038069 
L 211.057862 317.230423 
L 211.34038 287.159767 
L 211.622898 316.808012 
L 212.187935 310.234 
L 212.470453 309.236446 
L 212.752971 312.088906 
L 213.03549 288.003121 
L 213.318008 291.531078 
L 213.600526 314.126684 
L 213.883045 303.196487 
L 214.448081 317.333825 
L 215.013118 317.333825 
L 215.295636 317.211797 
L 215.578154 304.79018 
L 216.143191 272.447286 
L 216.425709 317.349515 
L 217.555782 317.190914 
L 219.250892 317.116862 
L 219.53341 315.348425 
L 219.815928 316.384924 
L 220.098447 315.644519 
L 220.380965 315.251119 
L 220.663483 285.712822 
L 220.946001 294.692049 
L 221.22852 275.202214 
L 221.511038 304.372736 
L 221.793556 300.075928 
L 222.076075 308.88628 
L 222.641111 316.937151 
L 223.206148 311.864606 
L 223.488666 313.181282 
L 223.771184 316.290214 
L 224.053702 316.935909 
L 224.618739 317.15242 
L 225.466294 317.110766 
L 227.161404 317.131424 
L 227.443922 315.641132 
L 227.72644 317.131424 
L 230.269105 317.131424 
L 230.551623 316.993254 
L 230.834141 317.071821 
L 231.116659 316.830024 
L 231.399178 313.531222 
L 231.681696 279.366497 
L 231.964214 282.37643 
L 232.246732 317.147115 
L 233.941842 317.105235 
L 235.071915 316.802142 
L 235.354433 317.078594 
L 236.201988 317.102526 
L 239.309689 317.078594 
L 239.592208 315.041155 
L 240.157244 277.301288 
L 240.439762 280.83376 
L 240.722281 313.683389 
L 241.004799 314.131989 
L 241.287317 315.942081 
L 241.569836 315.681432 
L 241.852354 316.174734 
L 242.134872 317.099704 
L 243.547463 317.099704 
L 243.829982 276.662592 
L 244.1125 276.665527 
L 244.395018 276.394944 
L 244.677537 275.591099 
L 244.960055 275.738864 
L 245.242573 274.49195 
L 245.525091 315.245588 
L 245.80761 316.293488 
L 246.372646 317.099704 
L 247.502719 317.165628 
L 248.067756 315.33217 
L 248.350274 308.492316 
L 248.632792 316.515079 
L 248.915311 297.213195 
L 249.197829 297.388391 
L 249.480347 316.442156 
L 249.762865 316.442156 
L 250.045384 316.974064 
L 250.327902 316.974064 
L 250.61042 317.153888 
L 251.175457 317.141584 
L 251.457975 316.627962 
L 252.30553 307.135114 
L 252.588048 279.132376 
L 252.870567 310.344965 
L 253.153085 294.499131 
L 253.435603 315.20574 
L 253.718121 301.939752 
L 254.00064 313.280281 
L 254.283158 313.04966 
L 254.565676 313.689372 
L 254.848194 315.996829 
L 255.130713 317.202767 
L 262.19367 317.09643 
L 262.476188 317.027119 
L 262.758706 315.346393 
L 263.041224 317.125328 
L 263.323743 203.206186 
L 263.606261 312.757517 
L 263.888779 315.76903 
L 264.171298 317.107267 
L 266.713962 317.010413 
L 266.99648 315.599365 
L 267.278999 312.286453 
L 267.561517 315.217818 
L 267.844035 314.97128 
L 268.126553 279.253952 
L 268.409072 275.172187 
L 268.69159 312.628942 
L 268.974108 301.201153 
L 269.256626 271.668839 
L 269.539145 315.858659 
L 269.821663 316.932184 
L 270.104181 317.082997 
L 270.3867 316.814898 
L 270.951736 317.082997 
L 271.516773 317.082997 
L 272.081809 317.082997 
L 272.364327 316.878113 
L 272.646846 316.878113 
L 272.929364 316.716689 
L 273.211882 316.798191 
L 273.776919 310.877663 
L 274.059437 310.797854 
L 274.341955 290.78232 
L 274.624474 310.76128 
L 274.906992 308.454952 
L 275.18951 302.932452 
L 275.472029 304.69897 
L 275.754547 310.69513 
L 276.037065 313.778212 
L 276.319583 274.642762 
L 276.602102 285.851444 
L 276.88462 315.661564 
L 277.449656 315.729859 
L 277.732175 292.122476 
L 278.014693 316.568811 
L 278.297211 316.825735 
L 278.57973 315.506011 
L 278.862248 315.793413 
L 279.144766 316.927669 
L 280.557357 316.983433 
L 281.969949 316.995399 
L 282.252467 317.218345 
L 283.38254 317.205702 
L 283.665058 317.000817 
L 284.512613 317.037279 
L 284.795132 316.864228 
L 285.360168 316.855649 
L 285.642686 317.023394 
L 285.925205 317.023394 
L 286.207723 310.030922 
L 286.490241 315.276744 
L 286.77276 316.937715 
L 287.337796 317.020685 
L 289.315424 317.03773 
L 289.597942 316.840297 
L 289.880461 317.020121 
L 291.010534 316.95826 
L 291.293052 316.417999 
L 291.57557 316.95826 
L 293.27068 316.972032 
L 293.553198 316.680792 
L 293.835716 316.648394 
L 294.118235 316.939634 
L 294.683271 316.939634 
L 294.965789 316.648507 
L 295.248308 316.70732 
L 295.530826 312.830101 
L 296.378381 313.571521 
L 296.660899 312.65197 
L 296.943417 315.045671 
L 297.225936 295.802938 
L 297.508454 296.176809 
L 297.790972 297.669923 
L 298.07349 279.046697 
L 298.638527 313.49826 
L 298.921045 316.501645 
L 299.203564 316.709013 
L 299.486082 316.754392 
L 299.7686 316.57502 
L 300.051118 316.808238 
L 300.333637 316.756311 
L 300.616155 316.929475 
L 300.898673 316.929475 
L 301.181192 316.589582 
L 301.46371 316.756311 
L 301.746228 316.496453 
L 302.311265 316.961195 
L 303.441338 316.973838 
L 304.288893 316.982079 
L 304.853929 316.89482 
L 305.136447 316.187038 
L 305.418966 313.970227 
L 305.701484 316.22508 
L 305.984002 269.613113 
L 306.26652 268.306483 
L 306.549039 304.792663 
L 307.114075 316.592065 
L 307.396594 316.161865 
L 307.679112 316.161865 
L 307.96163 298.003043 
L 308.244148 311.912694 
L 308.526667 316.718947 
L 314.177032 316.611707 
L 315.024587 316.530657 
L 315.307105 316.729219 
L 315.872142 316.729219 
L 316.15466 281.36183 
L 316.437178 269.418501 
L 316.719697 281.953228 
L 317.002215 286.233555 
L 317.284733 307.957021 
L 317.567251 272.906723 
L 317.84977 266.207635 
L 318.132288 264.528489 
L 318.414806 266.763475 
L 318.697325 266.447401 
L 318.979843 266.367479 
L 319.262361 270.834741 
L 319.544879 314.299509 
L 319.827398 316.362798 
L 320.109916 316.296874 
L 320.392434 316.549621 
L 321.239989 316.603918 
L 323.782654 316.675035 
L 324.065172 316.850908 
L 324.34769 316.836572 
L 324.630208 314.788183 
L 324.912727 315.431169 
L 325.195245 316.73317 
L 325.477763 316.514966 
L 326.0428 316.629656 
L 333.105757 316.553459 
L 333.388275 316.264138 
L 333.670793 314.913484 
L 333.953311 314.913484 
L 334.23583 313.491487 
L 334.518348 307.853958 
L 334.800866 307.886017 
L 335.083385 310.528626 
L 335.648421 310.496567 
L 335.930939 304.325212 
L 336.495976 304.393168 
L 336.778494 302.799136 
L 337.061012 316.214921 
L 337.343531 316.173379 
L 337.908567 300.865211 
L 338.191086 301.707211 
L 338.473604 300.821186 
L 338.756122 298.899679 
L 339.03864 255.047268 
L 339.321159 235.347809 
L 339.603677 243.544412 
L 340.168713 236.20629 
L 340.73375 244.310893 
L 341.298787 306.481743 
L 341.581305 307.478507 
L 341.863823 298.120894 
L 342.146341 294.98566 
L 342.42886 293.912361 
L 342.711378 298.396782 
L 343.276414 299.501688 
L 343.558933 280.261326 
L 343.841451 279.096592 
L 344.123969 280.362357 
L 344.406488 316.197311 
L 344.689006 316.665214 
L 344.971524 306.425979 
L 345.254042 306.831006 
L 345.536561 316.496791 
L 345.819079 316.575584 
L 346.101597 290.889221 
L 346.384115 307.780471 
L 346.666634 309.435573 
L 346.949152 286.850239 
L 347.23167 288.462107 
L 347.514189 277.884784 
L 347.796707 276.519117 
L 348.079225 267.119849 
L 348.361743 305.881202 
L 348.644262 252.55773 
L 348.92678 252.112516 
L 349.209298 252.112516 
L 349.491817 246.663842 
L 349.774335 246.502531 
L 350.056853 271.758356 
L 350.339371 247.43608 
L 350.62189 247.967876 
L 350.904408 258.501963 
L 351.186926 258.633699 
L 351.469444 253.991467 
L 351.751963 254.863607 
L 352.034481 254.765172 
L 352.316999 309.5427 
L 352.599518 308.25018 
L 352.882036 313.878678 
L 353.447072 314.919354 
L 353.729591 315.812038 
L 354.294627 316.266847 
L 354.577145 293.720459 
L 355.142182 313.902384 
L 355.4247 314.264176 
L 355.707219 313.278588 
L 355.989737 314.306056 
L 356.272255 312.508608 
L 356.554773 313.173493 
L 356.837292 313.18354 
L 357.11981 312.978317 
L 357.402328 312.978317 
L 357.684846 316.767825 
L 357.967365 316.854294 
L 358.249883 316.661828 
L 358.532401 313.14324 
L 358.81492 312.981817 
L 359.097438 312.981817 
L 359.662474 313.323064 
L 359.944993 316.886466 
L 362.770175 316.820994 
L 363.335212 316.579648 
L 363.61773 316.541381 
L 363.900249 314.926917 
L 364.182767 312.042059 
L 364.465285 313.675939 
L 365.030322 298.360998 
L 365.31284 283.406268 
L 365.595358 309.658405 
L 365.877876 310.577392 
L 366.160395 309.086423 
L 366.442913 303.3806 
L 366.725431 305.091015 
L 367.290468 316.978128 
L 367.855504 317.039085 
L 368.138023 315.665741 
L 368.420541 315.62657 
L 368.703059 290.773063 
L 368.985577 316.323628 
L 369.268096 316.890191 
L 369.833132 316.890191 
L 373.50587 316.831605 
L 374.070906 315.155281 
L 374.353425 315.022529 
L 374.635943 292.45887 
L 374.918461 253.187847 
L 375.20098 277.176777 
L 375.483498 280.250377 
L 375.766016 301.695246 
L 376.048534 306.814412 
L 376.331053 315.538408 
L 376.613571 313.549509 
L 376.896089 309.674661 
L 377.178607 312.097146 
L 377.461126 310.428611 
L 378.026162 267.522957 
L 378.308681 260.487137 
L 378.591199 312.484789 
L 378.873717 315.159345 
L 379.156235 316.122017 
L 379.721272 316.773131 
L 380.286308 316.773131 
L 380.568827 316.593307 
L 380.851345 316.700095 
L 381.416382 315.477112 
L 381.6989 315.477112 
L 381.981418 315.931018 
L 382.263936 315.929663 
L 382.546455 315.206643 
L 382.828973 315.413446 
L 383.111491 314.549208 
L 383.39401 313.083863 
L 383.676528 301.094252 
L 383.959046 312.810346 
L 384.524083 312.203822 
L 384.806601 311.807712 
L 385.089119 304.564751 
L 385.371637 306.51098 
L 385.654156 290.868337 
L 385.936674 295.136585 
L 386.219192 311.321409 
L 386.501711 311.364192 
L 386.784229 294.104038 
L 387.066747 287.738409 
L 387.349265 262.564312 
L 387.631784 280.691414 
L 387.914302 316.134999 
L 388.19682 316.647153 
L 388.479338 316.710819 
L 388.761857 316.000554 
L 389.044375 316.70066 
L 389.326893 316.649523 
L 389.609412 315.786865 
L 389.89193 316.749312 
L 390.456966 316.832056 
L 390.739485 316.477488 
L 391.022003 312.730537 
L 391.304521 312.728167 
L 391.587039 296.431362 
L 391.869558 311.02396 
L 392.152076 314.754543 
L 392.434594 301.055872 
L 392.717113 316.613175 
L 393.564667 316.857004 
L 394.129704 316.67718 
L 394.412222 316.545106 
L 394.69474 312.648471 
L 394.977259 316.231627 
L 395.259777 305.21959 
L 395.542295 315.924132 
L 395.824814 316.489341 
L 397.519923 316.449154 
L 398.08496 316.26696 
L 398.932515 316.083298 
L 399.215033 315.940162 
L 399.497551 315.940162 
L 399.780069 316.176427 
L 400.062588 315.129882 
L 400.345106 309.473728 
L 400.910143 306.8993 
L 401.192661 306.555005 
L 401.475179 301.05892 
L 401.757697 290.77058 
L 402.040216 291.630641 
L 402.605252 259.357622 
L 403.170289 309.278552 
L 403.735325 305.477868 
L 404.017844 297.869502 
L 404.300362 284.925007 
L 404.58288 286.064117 
L 404.865398 243.859019 
L 405.147917 236.387129 
L 405.430435 233.063605 
L 405.712953 232.973863 
L 405.995471 285.348321 
L 406.560508 313.108021 
L 406.843026 315.334653 
L 407.125545 315.987121 
L 407.408063 315.667773 
L 407.690581 315.89862 
L 408.255618 316.795369 
L 409.103173 316.596581 
L 409.385691 316.796611 
L 409.668209 316.392035 
L 410.233246 316.462249 
L 410.515764 316.186474 
L 411.0808 316.324644 
L 411.363319 277.051251 
L 411.645837 276.802003 
L 411.928355 276.939609 
L 412.210874 314.105913 
L 412.493392 313.993932 
L 412.77591 304.301732 
L 413.058428 303.449798 
L 413.340947 300.589662 
L 413.905983 316.238852 
L 414.188501 316.750103 
L 414.47102 315.183502 
L 414.753538 316.833072 
L 415.036056 314.910436 
L 415.318575 316.778324 
L 415.601093 316.812414 
L 415.883611 293.976705 
L 416.166129 316.769293 
L 416.448648 314.916419 
L 416.731166 316.144255 
L 417.013684 294.040484 
L 417.296202 289.217638 
L 417.578721 289.174742 
L 417.861239 288.947281 
L 418.143757 288.141065 
L 418.426276 315.490094 
L 418.708794 315.615169 
L 418.991312 316.571069 
L 419.27383 316.478279 
L 419.556349 316.60087 
L 419.838867 316.47365 
L 420.403904 316.997318 
L 420.686422 316.785209 
L 420.96894 317.043939 
L 421.816495 317.067983 
L 422.099013 293.830294 
L 422.381531 313.422402 
L 422.66405 315.194564 
L 422.946568 276.434228 
L 423.229086 276.434228 
L 423.511605 315.248861 
L 423.794123 310.046387 
L 424.076641 314.926465 
L 424.359159 315.096355 
L 424.641678 311.789651 
L 424.924196 312.626684 
L 425.206714 300.256429 
L 425.489232 315.427895 
L 425.771751 314.904453 
L 426.054269 304.548947 
L 426.336787 312.104032 
L 426.619306 295.210073 
L 426.901824 312.572613 
L 427.184342 290.418495 
L 427.46686 300.50816 
L 427.749379 316.601886 
L 428.314415 308.37153 
L 428.879452 294.061255 
L 429.16197 311.721131 
L 429.444488 310.102942 
L 429.727007 288.968278 
L 430.009525 312.132253 
L 430.292043 315.785737 
L 430.574561 316.863325 
L 430.85708 317.346242 
L 431.422116 317.551803 
L 431.704635 317.328858 
L 431.987153 317.551803 
L 433.117226 317.596054 
L 433.682262 317.701826 
L 433.964781 317.701826 
L 434.247299 317.428308 
L 434.529817 317.428308 
L 434.812336 316.32882 
L 435.094854 316.371603 
L 435.377372 317.471091 
L 435.65989 317.471091 
L 435.942409 314.858396 
L 436.224927 317.645045 
L 436.507445 311.894407 
L 436.789963 317.72 
L 437.072482 317.72 
L 437.072482 317.72 
" style="fill:none;stroke:#1f77b4;"/>
   </g>
   <g id="line2d_27">
    <path clip-path="url(#p6409c11905)" d="M 50.87 310.623499 
L 437.355 310.623499 
" style="fill:none;stroke:#ff0000;"/>
   </g>
   <g id="patch_8">
    <path d="M 50.87 317.72 
L 50.87 194.18 
" style="fill:none;stroke:#000000;stroke-linecap:square;stroke-linejoin:miter;stroke-width:0.8;"/>
   </g>
   <g id="patch_9">
    <path d="M 437.355 317.72 
L 437.355 194.18 
" style="fill:none;stroke:#000000;stroke-linecap:square;stroke-linejoin:miter;stroke-width:0.8;"/>
   </g>
   <g id="patch_10">
    <path d="M 50.87 317.72 
L 437.355 317.72 
" style="fill:none;stroke:#000000;stroke-linecap:square;stroke-linejoin:miter;stroke-width:0.8;"/>
   </g>
   <g id="patch_11">
    <path d="M 50.87 194.18 
L 437.355 194.18 
" style="fill:none;stroke:#000000;stroke-linecap:square;stroke-linejoin:miter;stroke-width:0.8;"/>
   </g>
  </g>
 </g>
 <defs>
  <clipPath id="p8e71dfc9a0">
   <rect height="123.54" width="386.485" x="50.87" y="24.72"/>
  </clipPath>
  <clipPath id="p6409c11905">
   <rect height="123.54" width="386.485" x="50.87" y="194.18"/>
  </clipPath>
 </defs>
</svg>
