<?xml version="1.0" encoding="utf-8" standalone="no"?>
<!DOCTYPE svg PUBLIC "-//W3C//DTD SVG 1.1//EN"
  "http://www.w3.org/Graphics/SVG/1.1/DTD/svg11.dtd">
<!-- Created with matplotlib (https://matplotlib.org/) -->
<svg height="345.6pt" version="1.1" viewBox="0 0 460.8 345.6" width="460.8pt" xmlns="http://www.w3.org/2000/svg" xmlns:xlink="http://www.w3.org/1999/xlink">
 <defs>
  <style type="text/css">
*{stroke-linecap:butt;stroke-linejoin:round;}
  </style>
 </defs>
 <g id="figure_1">
  <g id="patch_1">
   <path d="M 0 345.6 
L 460.8 345.6 
L 460.8 0 
L 0 0 
z
" style="fill:none;"/>
  </g>
  <g id="axes_1">
   <g id="patch_2">
    <path d="M 57.6 307.584 
L 414.72 307.584 
L 414.72 41.472 
L 57.6 41.472 
z
" style="fill:#ffffff;"/>
   </g>
   <g id="matplotlib.axis_1">
    <g id="xtick_1">
     <g id="line2d_1">
      <defs>
       <path d="M 0 0 
L 0 3.5 
" id="mb8a502ceee" style="stroke:#000000;stroke-width:0.8;"/>
      </defs>
      <g>
       <use style="stroke:#000000;stroke-width:0.8;" x="57.6" xlink:href="#mb8a502ceee" y="307.584"/>
      </g>
     </g>
     <g id="text_1">
      <!-- 0 -->
      <defs>
       <path d="M 31.78125 66.40625 
Q 24.171875 66.40625 20.328125 58.90625 
Q 16.5 51.421875 16.5 36.375 
Q 16.5 21.390625 20.328125 13.890625 
Q 24.171875 6.390625 31.78125 6.390625 
Q 39.453125 6.390625 43.28125 13.890625 
Q 47.125 21.390625 47.125 36.375 
Q 47.125 51.421875 43.28125 58.90625 
Q 39.453125 66.40625 31.78125 66.40625 
z
M 31.78125 74.21875 
Q 44.046875 74.21875 50.515625 64.515625 
Q 56.984375 54.828125 56.984375 36.375 
Q 56.984375 17.96875 50.515625 8.265625 
Q 44.046875 -1.421875 31.78125 -1.421875 
Q 19.53125 -1.421875 13.0625 8.265625 
Q 6.59375 17.96875 6.59375 36.375 
Q 6.59375 54.828125 13.0625 64.515625 
Q 19.53125 74.21875 31.78125 74.21875 
z
" id="DejaVuSans-48"/>
      </defs>
      <g transform="translate(54.41875 322.182437)scale(0.1 -0.1)">
       <use xlink:href="#DejaVuSans-48"/>
      </g>
     </g>
    </g>
    <g id="xtick_2">
     <g id="line2d_2">
      <g>
       <use style="stroke:#000000;stroke-width:0.8;" x="108.617143" xlink:href="#mb8a502ceee" y="307.584"/>
      </g>
     </g>
     <g id="text_2">
      <!-- 200 -->
      <defs>
       <path d="M 19.1875 8.296875 
L 53.609375 8.296875 
L 53.609375 0 
L 7.328125 0 
L 7.328125 8.296875 
Q 12.9375 14.109375 22.625 23.890625 
Q 32.328125 33.6875 34.8125 36.53125 
Q 39.546875 41.84375 41.421875 45.53125 
Q 43.3125 49.21875 43.3125 52.78125 
Q 43.3125 58.59375 39.234375 62.25 
Q 35.15625 65.921875 28.609375 65.921875 
Q 23.96875 65.921875 18.8125 64.3125 
Q 13.671875 62.703125 7.8125 59.421875 
L 7.8125 69.390625 
Q 13.765625 71.78125 18.9375 73 
Q 24.125 74.21875 28.421875 74.21875 
Q 39.75 74.21875 46.484375 68.546875 
Q 53.21875 62.890625 53.21875 53.421875 
Q 53.21875 48.921875 51.53125 44.890625 
Q 49.859375 40.875 45.40625 35.40625 
Q 44.1875 33.984375 37.640625 27.21875 
Q 31.109375 20.453125 19.1875 8.296875 
z
" id="DejaVuSans-50"/>
      </defs>
      <g transform="translate(99.073393 322.182437)scale(0.1 -0.1)">
       <use xlink:href="#DejaVuSans-50"/>
       <use x="63.623047" xlink:href="#DejaVuSans-48"/>
       <use x="127.246094" xlink:href="#DejaVuSans-48"/>
      </g>
     </g>
    </g>
    <g id="xtick_3">
     <g id="line2d_3">
      <g>
       <use style="stroke:#000000;stroke-width:0.8;" x="159.634286" xlink:href="#mb8a502ceee" y="307.584"/>
      </g>
     </g>
     <g id="text_3">
      <!-- 400 -->
      <defs>
       <path d="M 37.796875 64.3125 
L 12.890625 25.390625 
L 37.796875 25.390625 
z
M 35.203125 72.90625 
L 47.609375 72.90625 
L 47.609375 25.390625 
L 58.015625 25.390625 
L 58.015625 17.1875 
L 47.609375 17.1875 
L 47.609375 0 
L 37.796875 0 
L 37.796875 17.1875 
L 4.890625 17.1875 
L 4.890625 26.703125 
z
" id="DejaVuSans-52"/>
      </defs>
      <g transform="translate(150.090536 322.182437)scale(0.1 -0.1)">
       <use xlink:href="#DejaVuSans-52"/>
       <use x="63.623047" xlink:href="#DejaVuSans-48"/>
       <use x="127.246094" xlink:href="#DejaVuSans-48"/>
      </g>
     </g>
    </g>
    <g id="xtick_4">
     <g id="line2d_4">
      <g>
       <use style="stroke:#000000;stroke-width:0.8;" x="210.651429" xlink:href="#mb8a502ceee" y="307.584"/>
      </g>
     </g>
     <g id="text_4">
      <!-- 600 -->
      <defs>
       <path d="M 33.015625 40.375 
Q 26.375 40.375 22.484375 35.828125 
Q 18.609375 31.296875 18.609375 23.390625 
Q 18.609375 15.53125 22.484375 10.953125 
Q 26.375 6.390625 33.015625 6.390625 
Q 39.65625 6.390625 43.53125 10.953125 
Q 47.40625 15.53125 47.40625 23.390625 
Q 47.40625 31.296875 43.53125 35.828125 
Q 39.65625 40.375 33.015625 40.375 
z
M 52.59375 71.296875 
L 52.59375 62.3125 
Q 48.875 64.0625 45.09375 64.984375 
Q 41.3125 65.921875 37.59375 65.921875 
Q 27.828125 65.921875 22.671875 59.328125 
Q 17.53125 52.734375 16.796875 39.40625 
Q 19.671875 43.65625 24.015625 45.921875 
Q 28.375 48.1875 33.59375 48.1875 
Q 44.578125 48.1875 50.953125 41.515625 
Q 57.328125 34.859375 57.328125 23.390625 
Q 57.328125 12.15625 50.6875 5.359375 
Q 44.046875 -1.421875 33.015625 -1.421875 
Q 20.359375 -1.421875 13.671875 8.265625 
Q 6.984375 17.96875 6.984375 36.375 
Q 6.984375 53.65625 15.1875 63.9375 
Q 23.390625 74.21875 37.203125 74.21875 
Q 40.921875 74.21875 44.703125 73.484375 
Q 48.484375 72.75 52.59375 71.296875 
z
" id="DejaVuSans-54"/>
      </defs>
      <g transform="translate(201.107679 322.182437)scale(0.1 -0.1)">
       <use xlink:href="#DejaVuSans-54"/>
       <use x="63.623047" xlink:href="#DejaVuSans-48"/>
       <use x="127.246094" xlink:href="#DejaVuSans-48"/>
      </g>
     </g>
    </g>
    <g id="xtick_5">
     <g id="line2d_5">
      <g>
       <use style="stroke:#000000;stroke-width:0.8;" x="261.668571" xlink:href="#mb8a502ceee" y="307.584"/>
      </g>
     </g>
     <g id="text_5">
      <!-- 800 -->
      <defs>
       <path d="M 31.78125 34.625 
Q 24.75 34.625 20.71875 30.859375 
Q 16.703125 27.09375 16.703125 20.515625 
Q 16.703125 13.921875 20.71875 10.15625 
Q 24.75 6.390625 31.78125 6.390625 
Q 38.8125 6.390625 42.859375 10.171875 
Q 46.921875 13.96875 46.921875 20.515625 
Q 46.921875 27.09375 42.890625 30.859375 
Q 38.875 34.625 31.78125 34.625 
z
M 21.921875 38.8125 
Q 15.578125 40.375 12.03125 44.71875 
Q 8.5 49.078125 8.5 55.328125 
Q 8.5 64.0625 14.71875 69.140625 
Q 20.953125 74.21875 31.78125 74.21875 
Q 42.671875 74.21875 48.875 69.140625 
Q 55.078125 64.0625 55.078125 55.328125 
Q 55.078125 49.078125 51.53125 44.71875 
Q 48 40.375 41.703125 38.8125 
Q 48.828125 37.15625 52.796875 32.3125 
Q 56.78125 27.484375 56.78125 20.515625 
Q 56.78125 9.90625 50.3125 4.234375 
Q 43.84375 -1.421875 31.78125 -1.421875 
Q 19.734375 -1.421875 13.25 4.234375 
Q 6.78125 9.90625 6.78125 20.515625 
Q 6.78125 27.484375 10.78125 32.3125 
Q 14.796875 37.15625 21.921875 38.8125 
z
M 18.3125 54.390625 
Q 18.3125 48.734375 21.84375 45.5625 
Q 25.390625 42.390625 31.78125 42.390625 
Q 38.140625 42.390625 41.71875 45.5625 
Q 45.3125 48.734375 45.3125 54.390625 
Q 45.3125 60.0625 41.71875 63.234375 
Q 38.140625 66.40625 31.78125 66.40625 
Q 25.390625 66.40625 21.84375 63.234375 
Q 18.3125 60.0625 18.3125 54.390625 
z
" id="DejaVuSans-56"/>
      </defs>
      <g transform="translate(252.124821 322.182437)scale(0.1 -0.1)">
       <use xlink:href="#DejaVuSans-56"/>
       <use x="63.623047" xlink:href="#DejaVuSans-48"/>
       <use x="127.246094" xlink:href="#DejaVuSans-48"/>
      </g>
     </g>
    </g>
    <g id="xtick_6">
     <g id="line2d_6">
      <g>
       <use style="stroke:#000000;stroke-width:0.8;" x="312.685714" xlink:href="#mb8a502ceee" y="307.584"/>
      </g>
     </g>
     <g id="text_6">
      <!-- 1000 -->
      <defs>
       <path d="M 12.40625 8.296875 
L 28.515625 8.296875 
L 28.515625 63.921875 
L 10.984375 60.40625 
L 10.984375 69.390625 
L 28.421875 72.90625 
L 38.28125 72.90625 
L 38.28125 8.296875 
L 54.390625 8.296875 
L 54.390625 0 
L 12.40625 0 
z
" id="DejaVuSans-49"/>
      </defs>
      <g transform="translate(299.960714 322.182437)scale(0.1 -0.1)">
       <use xlink:href="#DejaVuSans-49"/>
       <use x="63.623047" xlink:href="#DejaVuSans-48"/>
       <use x="127.246094" xlink:href="#DejaVuSans-48"/>
       <use x="190.869141" xlink:href="#DejaVuSans-48"/>
      </g>
     </g>
    </g>
    <g id="xtick_7">
     <g id="line2d_7">
      <g>
       <use style="stroke:#000000;stroke-width:0.8;" x="363.702857" xlink:href="#mb8a502ceee" y="307.584"/>
      </g>
     </g>
     <g id="text_7">
      <!-- 1200 -->
      <g transform="translate(350.977857 322.182437)scale(0.1 -0.1)">
       <use xlink:href="#DejaVuSans-49"/>
       <use x="63.623047" xlink:href="#DejaVuSans-50"/>
       <use x="127.246094" xlink:href="#DejaVuSans-48"/>
       <use x="190.869141" xlink:href="#DejaVuSans-48"/>
      </g>
     </g>
    </g>
    <g id="xtick_8">
     <g id="line2d_8">
      <g>
       <use style="stroke:#000000;stroke-width:0.8;" x="414.72" xlink:href="#mb8a502ceee" y="307.584"/>
      </g>
     </g>
     <g id="text_8">
      <!-- 1400 -->
      <g transform="translate(401.995 322.182437)scale(0.1 -0.1)">
       <use xlink:href="#DejaVuSans-49"/>
       <use x="63.623047" xlink:href="#DejaVuSans-52"/>
       <use x="127.246094" xlink:href="#DejaVuSans-48"/>
       <use x="190.869141" xlink:href="#DejaVuSans-48"/>
      </g>
     </g>
    </g>
    <g id="text_9">
     <!-- residue index -->
     <defs>
      <path d="M 41.109375 46.296875 
Q 39.59375 47.171875 37.8125 47.578125 
Q 36.03125 48 33.890625 48 
Q 26.265625 48 22.1875 43.046875 
Q 18.109375 38.09375 18.109375 28.8125 
L 18.109375 0 
L 9.078125 0 
L 9.078125 54.6875 
L 18.109375 54.6875 
L 18.109375 46.1875 
Q 20.953125 51.171875 25.484375 53.578125 
Q 30.03125 56 36.53125 56 
Q 37.453125 56 38.578125 55.875 
Q 39.703125 55.765625 41.0625 55.515625 
z
" id="DejaVuSans-114"/>
      <path d="M 56.203125 29.59375 
L 56.203125 25.203125 
L 14.890625 25.203125 
Q 15.484375 15.921875 20.484375 11.0625 
Q 25.484375 6.203125 34.421875 6.203125 
Q 39.59375 6.203125 44.453125 7.46875 
Q 49.3125 8.734375 54.109375 11.28125 
L 54.109375 2.78125 
Q 49.265625 0.734375 44.1875 -0.34375 
Q 39.109375 -1.421875 33.890625 -1.421875 
Q 20.796875 -1.421875 13.15625 6.1875 
Q 5.515625 13.8125 5.515625 26.8125 
Q 5.515625 40.234375 12.765625 48.109375 
Q 20.015625 56 32.328125 56 
Q 43.359375 56 49.78125 48.890625 
Q 56.203125 41.796875 56.203125 29.59375 
z
M 47.21875 32.234375 
Q 47.125 39.59375 43.09375 43.984375 
Q 39.0625 48.390625 32.421875 48.390625 
Q 24.90625 48.390625 20.390625 44.140625 
Q 15.875 39.890625 15.1875 32.171875 
z
" id="DejaVuSans-101"/>
      <path d="M 44.28125 53.078125 
L 44.28125 44.578125 
Q 40.484375 46.53125 36.375 47.5 
Q 32.28125 48.484375 27.875 48.484375 
Q 21.1875 48.484375 17.84375 46.4375 
Q 14.5 44.390625 14.5 40.28125 
Q 14.5 37.15625 16.890625 35.375 
Q 19.28125 33.59375 26.515625 31.984375 
L 29.59375 31.296875 
Q 39.15625 29.25 43.1875 25.515625 
Q 47.21875 21.78125 47.21875 15.09375 
Q 47.21875 7.46875 41.1875 3.015625 
Q 35.15625 -1.421875 24.609375 -1.421875 
Q 20.21875 -1.421875 15.453125 -0.5625 
Q 10.6875 0.296875 5.421875 2 
L 5.421875 11.28125 
Q 10.40625 8.6875 15.234375 7.390625 
Q 20.0625 6.109375 24.8125 6.109375 
Q 31.15625 6.109375 34.5625 8.28125 
Q 37.984375 10.453125 37.984375 14.40625 
Q 37.984375 18.0625 35.515625 20.015625 
Q 33.0625 21.96875 24.703125 23.78125 
L 21.578125 24.515625 
Q 13.234375 26.265625 9.515625 29.90625 
Q 5.8125 33.546875 5.8125 39.890625 
Q 5.8125 47.609375 11.28125 51.796875 
Q 16.75 56 26.8125 56 
Q 31.78125 56 36.171875 55.265625 
Q 40.578125 54.546875 44.28125 53.078125 
z
" id="DejaVuSans-115"/>
      <path d="M 9.421875 54.6875 
L 18.40625 54.6875 
L 18.40625 0 
L 9.421875 0 
z
M 9.421875 75.984375 
L 18.40625 75.984375 
L 18.40625 64.59375 
L 9.421875 64.59375 
z
" id="DejaVuSans-105"/>
      <path d="M 45.40625 46.390625 
L 45.40625 75.984375 
L 54.390625 75.984375 
L 54.390625 0 
L 45.40625 0 
L 45.40625 8.203125 
Q 42.578125 3.328125 38.25 0.953125 
Q 33.9375 -1.421875 27.875 -1.421875 
Q 17.96875 -1.421875 11.734375 6.484375 
Q 5.515625 14.40625 5.515625 27.296875 
Q 5.515625 40.1875 11.734375 48.09375 
Q 17.96875 56 27.875 56 
Q 33.9375 56 38.25 53.625 
Q 42.578125 51.265625 45.40625 46.390625 
z
M 14.796875 27.296875 
Q 14.796875 17.390625 18.875 11.75 
Q 22.953125 6.109375 30.078125 6.109375 
Q 37.203125 6.109375 41.296875 11.75 
Q 45.40625 17.390625 45.40625 27.296875 
Q 45.40625 37.203125 41.296875 42.84375 
Q 37.203125 48.484375 30.078125 48.484375 
Q 22.953125 48.484375 18.875 42.84375 
Q 14.796875 37.203125 14.796875 27.296875 
z
" id="DejaVuSans-100"/>
      <path d="M 8.5 21.578125 
L 8.5 54.6875 
L 17.484375 54.6875 
L 17.484375 21.921875 
Q 17.484375 14.15625 20.5 10.265625 
Q 23.53125 6.390625 29.59375 6.390625 
Q 36.859375 6.390625 41.078125 11.03125 
Q 45.3125 15.671875 45.3125 23.6875 
L 45.3125 54.6875 
L 54.296875 54.6875 
L 54.296875 0 
L 45.3125 0 
L 45.3125 8.40625 
Q 42.046875 3.421875 37.71875 1 
Q 33.40625 -1.421875 27.6875 -1.421875 
Q 18.265625 -1.421875 13.375 4.4375 
Q 8.5 10.296875 8.5 21.578125 
z
M 31.109375 56 
z
" id="DejaVuSans-117"/>
      <path id="DejaVuSans-32"/>
      <path d="M 54.890625 33.015625 
L 54.890625 0 
L 45.90625 0 
L 45.90625 32.71875 
Q 45.90625 40.484375 42.875 44.328125 
Q 39.84375 48.1875 33.796875 48.1875 
Q 26.515625 48.1875 22.3125 43.546875 
Q 18.109375 38.921875 18.109375 30.90625 
L 18.109375 0 
L 9.078125 0 
L 9.078125 54.6875 
L 18.109375 54.6875 
L 18.109375 46.1875 
Q 21.34375 51.125 25.703125 53.5625 
Q 30.078125 56 35.796875 56 
Q 45.21875 56 50.046875 50.171875 
Q 54.890625 44.34375 54.890625 33.015625 
z
" id="DejaVuSans-110"/>
      <path d="M 54.890625 54.6875 
L 35.109375 28.078125 
L 55.90625 0 
L 45.3125 0 
L 29.390625 21.484375 
L 13.484375 0 
L 2.875 0 
L 24.125 28.609375 
L 4.6875 54.6875 
L 15.28125 54.6875 
L 29.78125 35.203125 
L 44.28125 54.6875 
z
" id="DejaVuSans-120"/>
     </defs>
     <g transform="translate(202.26 335.860562)scale(0.1 -0.1)">
      <use xlink:href="#DejaVuSans-114"/>
      <use x="41.082031" xlink:href="#DejaVuSans-101"/>
      <use x="102.605469" xlink:href="#DejaVuSans-115"/>
      <use x="154.705078" xlink:href="#DejaVuSans-105"/>
      <use x="182.488281" xlink:href="#DejaVuSans-100"/>
      <use x="245.964844" xlink:href="#DejaVuSans-117"/>
      <use x="309.34375" xlink:href="#DejaVuSans-101"/>
      <use x="370.867188" xlink:href="#DejaVuSans-32"/>
      <use x="402.654297" xlink:href="#DejaVuSans-105"/>
      <use x="430.4375" xlink:href="#DejaVuSans-110"/>
      <use x="493.816406" xlink:href="#DejaVuSans-100"/>
      <use x="557.292969" xlink:href="#DejaVuSans-101"/>
      <use x="618.800781" xlink:href="#DejaVuSans-120"/>
     </g>
    </g>
   </g>
   <g id="matplotlib.axis_2">
    <g id="ytick_1">
     <g id="line2d_9">
      <defs>
       <path d="M 0 0 
L -3.5 0 
" id="m3190c37096" style="stroke:#000000;stroke-width:0.8;"/>
      </defs>
      <g>
       <use style="stroke:#000000;stroke-width:0.8;" x="57.6" xlink:href="#m3190c37096" y="307.584"/>
      </g>
     </g>
     <g id="text_10">
      <!-- 0 -->
      <g transform="translate(44.2375 311.383219)scale(0.1 -0.1)">
       <use xlink:href="#DejaVuSans-48"/>
      </g>
     </g>
    </g>
    <g id="ytick_2">
     <g id="line2d_10">
      <g>
       <use style="stroke:#000000;stroke-width:0.8;" x="57.6" xlink:href="#m3190c37096" y="263.232"/>
      </g>
     </g>
     <g id="text_11">
      <!-- 50 -->
      <defs>
       <path d="M 10.796875 72.90625 
L 49.515625 72.90625 
L 49.515625 64.59375 
L 19.828125 64.59375 
L 19.828125 46.734375 
Q 21.96875 47.46875 24.109375 47.828125 
Q 26.265625 48.1875 28.421875 48.1875 
Q 40.625 48.1875 47.75 41.5 
Q 54.890625 34.8125 54.890625 23.390625 
Q 54.890625 11.625 47.5625 5.09375 
Q 40.234375 -1.421875 26.90625 -1.421875 
Q 22.3125 -1.421875 17.546875 -0.640625 
Q 12.796875 0.140625 7.71875 1.703125 
L 7.71875 11.625 
Q 12.109375 9.234375 16.796875 8.0625 
Q 21.484375 6.890625 26.703125 6.890625 
Q 35.15625 6.890625 40.078125 11.328125 
Q 45.015625 15.765625 45.015625 23.390625 
Q 45.015625 31 40.078125 35.4375 
Q 35.15625 39.890625 26.703125 39.890625 
Q 22.75 39.890625 18.8125 39.015625 
Q 14.890625 38.140625 10.796875 36.28125 
z
" id="DejaVuSans-53"/>
      </defs>
      <g transform="translate(37.875 267.031219)scale(0.1 -0.1)">
       <use xlink:href="#DejaVuSans-53"/>
       <use x="63.623047" xlink:href="#DejaVuSans-48"/>
      </g>
     </g>
    </g>
    <g id="ytick_3">
     <g id="line2d_11">
      <g>
       <use style="stroke:#000000;stroke-width:0.8;" x="57.6" xlink:href="#m3190c37096" y="218.88"/>
      </g>
     </g>
     <g id="text_12">
      <!-- 100 -->
      <g transform="translate(31.5125 222.679219)scale(0.1 -0.1)">
       <use xlink:href="#DejaVuSans-49"/>
       <use x="63.623047" xlink:href="#DejaVuSans-48"/>
       <use x="127.246094" xlink:href="#DejaVuSans-48"/>
      </g>
     </g>
    </g>
    <g id="ytick_4">
     <g id="line2d_12">
      <g>
       <use style="stroke:#000000;stroke-width:0.8;" x="57.6" xlink:href="#m3190c37096" y="174.528"/>
      </g>
     </g>
     <g id="text_13">
      <!-- 150 -->
      <g transform="translate(31.5125 178.327219)scale(0.1 -0.1)">
       <use xlink:href="#DejaVuSans-49"/>
       <use x="63.623047" xlink:href="#DejaVuSans-53"/>
       <use x="127.246094" xlink:href="#DejaVuSans-48"/>
      </g>
     </g>
    </g>
    <g id="ytick_5">
     <g id="line2d_13">
      <g>
       <use style="stroke:#000000;stroke-width:0.8;" x="57.6" xlink:href="#m3190c37096" y="130.176"/>
      </g>
     </g>
     <g id="text_14">
      <!-- 200 -->
      <g transform="translate(31.5125 133.975219)scale(0.1 -0.1)">
       <use xlink:href="#DejaVuSans-50"/>
       <use x="63.623047" xlink:href="#DejaVuSans-48"/>
       <use x="127.246094" xlink:href="#DejaVuSans-48"/>
      </g>
     </g>
    </g>
    <g id="ytick_6">
     <g id="line2d_14">
      <g>
       <use style="stroke:#000000;stroke-width:0.8;" x="57.6" xlink:href="#m3190c37096" y="85.824"/>
      </g>
     </g>
     <g id="text_15">
      <!-- 250 -->
      <g transform="translate(31.5125 89.623219)scale(0.1 -0.1)">
       <use xlink:href="#DejaVuSans-50"/>
       <use x="63.623047" xlink:href="#DejaVuSans-53"/>
       <use x="127.246094" xlink:href="#DejaVuSans-48"/>
      </g>
     </g>
    </g>
    <g id="ytick_7">
     <g id="line2d_15">
      <g>
       <use style="stroke:#000000;stroke-width:0.8;" x="57.6" xlink:href="#m3190c37096" y="41.472"/>
      </g>
     </g>
     <g id="text_16">
      <!-- 300 -->
      <defs>
       <path d="M 40.578125 39.3125 
Q 47.65625 37.796875 51.625 33 
Q 55.609375 28.21875 55.609375 21.1875 
Q 55.609375 10.40625 48.1875 4.484375 
Q 40.765625 -1.421875 27.09375 -1.421875 
Q 22.515625 -1.421875 17.65625 -0.515625 
Q 12.796875 0.390625 7.625 2.203125 
L 7.625 11.71875 
Q 11.71875 9.328125 16.59375 8.109375 
Q 21.484375 6.890625 26.8125 6.890625 
Q 36.078125 6.890625 40.9375 10.546875 
Q 45.796875 14.203125 45.796875 21.1875 
Q 45.796875 27.640625 41.28125 31.265625 
Q 36.765625 34.90625 28.71875 34.90625 
L 20.21875 34.90625 
L 20.21875 43.015625 
L 29.109375 43.015625 
Q 36.375 43.015625 40.234375 45.921875 
Q 44.09375 48.828125 44.09375 54.296875 
Q 44.09375 59.90625 40.109375 62.90625 
Q 36.140625 65.921875 28.71875 65.921875 
Q 24.65625 65.921875 20.015625 65.03125 
Q 15.375 64.15625 9.8125 62.3125 
L 9.8125 71.09375 
Q 15.4375 72.65625 20.34375 73.4375 
Q 25.25 74.21875 29.59375 74.21875 
Q 40.828125 74.21875 47.359375 69.109375 
Q 53.90625 64.015625 53.90625 55.328125 
Q 53.90625 49.265625 50.4375 45.09375 
Q 46.96875 40.921875 40.578125 39.3125 
z
" id="DejaVuSans-51"/>
      </defs>
      <g transform="translate(31.5125 45.271219)scale(0.1 -0.1)">
       <use xlink:href="#DejaVuSans-51"/>
       <use x="63.623047" xlink:href="#DejaVuSans-48"/>
       <use x="127.246094" xlink:href="#DejaVuSans-48"/>
      </g>
     </g>
    </g>
    <g id="text_17">
     <!-- deletions -->
     <defs>
      <path d="M 9.421875 75.984375 
L 18.40625 75.984375 
L 18.40625 0 
L 9.421875 0 
z
" id="DejaVuSans-108"/>
      <path d="M 18.3125 70.21875 
L 18.3125 54.6875 
L 36.8125 54.6875 
L 36.8125 47.703125 
L 18.3125 47.703125 
L 18.3125 18.015625 
Q 18.3125 11.328125 20.140625 9.421875 
Q 21.96875 7.515625 27.59375 7.515625 
L 36.8125 7.515625 
L 36.8125 0 
L 27.59375 0 
Q 17.1875 0 13.234375 3.875 
Q 9.28125 7.765625 9.28125 18.015625 
L 9.28125 47.703125 
L 2.6875 47.703125 
L 2.6875 54.6875 
L 9.28125 54.6875 
L 9.28125 70.21875 
z
" id="DejaVuSans-116"/>
      <path d="M 30.609375 48.390625 
Q 23.390625 48.390625 19.1875 42.75 
Q 14.984375 37.109375 14.984375 27.296875 
Q 14.984375 17.484375 19.15625 11.84375 
Q 23.34375 6.203125 30.609375 6.203125 
Q 37.796875 6.203125 41.984375 11.859375 
Q 46.1875 17.53125 46.1875 27.296875 
Q 46.1875 37.015625 41.984375 42.703125 
Q 37.796875 48.390625 30.609375 48.390625 
z
M 30.609375 56 
Q 42.328125 56 49.015625 48.375 
Q 55.71875 40.765625 55.71875 27.296875 
Q 55.71875 13.875 49.015625 6.21875 
Q 42.328125 -1.421875 30.609375 -1.421875 
Q 18.84375 -1.421875 12.171875 6.21875 
Q 5.515625 13.875 5.515625 27.296875 
Q 5.515625 40.765625 12.171875 48.375 
Q 18.84375 56 30.609375 56 
z
" id="DejaVuSans-111"/>
     </defs>
     <g transform="translate(25.432812 197.426437)rotate(-90)scale(0.1 -0.1)">
      <use xlink:href="#DejaVuSans-100"/>
      <use x="63.476562" xlink:href="#DejaVuSans-101"/>
      <use x="125" xlink:href="#DejaVuSans-108"/>
      <use x="152.783203" xlink:href="#DejaVuSans-101"/>
      <use x="214.306641" xlink:href="#DejaVuSans-116"/>
      <use x="253.515625" xlink:href="#DejaVuSans-105"/>
      <use x="281.298828" xlink:href="#DejaVuSans-111"/>
      <use x="342.480469" xlink:href="#DejaVuSans-110"/>
      <use x="405.859375" xlink:href="#DejaVuSans-115"/>
     </g>
    </g>
   </g>
   <g id="line2d_16">
    <path clip-path="url(#p0151a51ba3)" d="M 57.6 307.584 
L 57.855086 307.584 
L 58.110171 305.80992 
L 58.620343 307.584 
L 58.875429 306.69696 
L 59.130514 307.584 
L 64.7424 307.584 
L 64.997486 306.69696 
L 65.252571 304.92288 
L 65.762743 303.1488 
L 66.017829 299.60064 
L 67.038171 299.60064 
L 67.293257 298.7136 
L 67.548343 300.48768 
L 67.803429 298.7136 
L 68.823771 302.26176 
L 69.078857 305.80992 
L 69.589029 305.80992 
L 69.844114 307.584 
L 85.149257 307.584 
L 85.404343 306.69696 
L 85.659429 301.37472 
L 85.914514 300.48768 
L 86.1696 302.26176 
L 86.424686 301.37472 
L 86.679771 303.1488 
L 87.445029 305.80992 
L 87.700114 307.584 
L 88.465371 307.584 
L 88.975543 305.80992 
L 89.230629 307.584 
L 93.822171 307.584 
L 94.077257 306.69696 
L 94.332343 304.92288 
L 94.587429 305.80992 
L 94.842514 307.584 
L 102.24 307.584 
L 102.495086 306.69696 
L 102.750171 307.584 
L 105.556114 307.584 
L 105.8112 304.92288 
L 106.576457 302.26176 
L 106.831543 302.26176 
L 107.086629 296.93952 
L 107.341714 296.05248 
L 107.5968 297.82656 
L 107.851886 296.93952 
L 108.106971 298.7136 
L 108.617143 300.48768 
L 108.872229 298.7136 
L 109.127314 299.60064 
L 109.3824 296.93952 
L 109.637486 297.82656 
L 109.892571 296.93952 
L 110.147657 298.7136 
L 110.402743 301.37472 
L 110.657829 305.80992 
L 112.443429 305.80992 
L 112.698514 306.69696 
L 113.463771 306.69696 
L 113.718857 307.584 
L 114.229029 307.584 
L 114.484114 306.69696 
L 114.7392 306.69696 
L 114.994286 301.37472 
L 115.504457 301.37472 
L 116.5248 297.82656 
L 116.779886 302.26176 
L 117.034971 303.1488 
L 117.290057 303.1488 
L 117.545143 304.03584 
L 117.800229 304.03584 
L 118.055314 303.1488 
L 118.3104 304.92288 
L 118.565486 305.80992 
L 118.820571 307.584 
L 122.646857 307.584 
L 122.901943 302.26176 
L 123.157029 301.37472 
L 123.412114 303.1488 
L 123.6672 304.03584 
L 123.922286 302.26176 
L 124.177371 303.1488 
L 124.432457 304.92288 
L 125.197714 307.584 
L 129.024 307.584 
L 129.534171 305.80992 
L 129.789257 307.584 
L 131.574857 307.584 
L 131.829943 306.69696 
L 135.146057 306.69696 
L 135.401143 305.80992 
L 135.656229 302.26176 
L 135.911314 301.37472 
L 136.1664 303.1488 
L 136.421486 301.37472 
L 137.186743 298.7136 
L 137.441829 302.26176 
L 137.696914 304.03584 
L 137.952 304.92288 
L 138.207086 307.584 
L 144.074057 307.584 
L 144.329143 301.37472 
L 144.584229 300.48768 
L 144.839314 298.7136 
L 145.0944 299.60064 
L 145.349486 302.26176 
L 145.859657 300.48768 
L 146.114743 303.1488 
L 146.369829 300.48768 
L 146.624914 301.37472 
L 146.88 301.37472 
L 147.135086 300.48768 
L 147.390171 302.26176 
L 148.155429 302.26176 
L 148.410514 301.37472 
L 148.6656 304.03584 
L 148.920686 304.92288 
L 149.175771 304.92288 
L 149.430857 305.80992 
L 149.685943 305.80992 
L 149.941029 306.69696 
L 150.196114 304.03584 
L 150.706286 302.26176 
L 150.961371 304.92288 
L 151.216457 304.03584 
L 151.471543 305.80992 
L 152.2368 305.80992 
L 152.491886 306.69696 
L 154.277486 306.69696 
L 154.532571 302.26176 
L 155.808 306.69696 
L 156.828343 306.69696 
L 157.083429 307.584 
L 168.052114 307.584 
L 168.817371 304.92288 
L 169.072457 307.584 
L 173.408914 307.584 
L 173.664 304.03584 
L 173.919086 304.92288 
L 174.429257 303.1488 
L 174.684343 305.80992 
L 174.939429 304.92288 
L 175.194514 306.69696 
L 175.4496 307.584 
L 188.203886 307.584 
L 188.458971 306.69696 
L 191.52 306.69696 
L 191.775086 304.03584 
L 192.285257 302.26176 
L 192.540343 302.26176 
L 192.795429 299.60064 
L 193.050514 299.60064 
L 193.560686 301.37472 
L 193.815771 301.37472 
L 194.070857 304.03584 
L 194.325943 304.03584 
L 194.581029 301.37472 
L 194.836114 302.26176 
L 195.0912 302.26176 
L 195.346286 303.1488 
L 195.601371 304.92288 
L 197.131886 304.92288 
L 197.386971 305.80992 
L 198.152229 305.80992 
L 198.407314 307.584 
L 198.6624 306.69696 
L 200.703086 306.69696 
L 200.958171 305.80992 
L 201.213257 305.80992 
L 201.723429 304.03584 
L 202.2336 304.03584 
L 202.488686 302.26176 
L 202.743771 303.1488 
L 203.253943 299.60064 
L 203.509029 298.7136 
L 203.764114 300.48768 
L 204.0192 298.7136 
L 204.274286 299.60064 
L 204.529371 302.26176 
L 204.784457 300.48768 
L 205.039543 301.37472 
L 205.294629 306.69696 
L 205.8048 306.69696 
L 206.825143 303.1488 
L 207.080229 307.584 
L 208.610743 307.584 
L 208.865829 306.69696 
L 209.631086 306.69696 
L 209.886171 304.03584 
L 210.141257 304.03584 
L 210.651429 302.26176 
L 210.906514 297.82656 
L 211.1616 298.7136 
L 211.416686 297.82656 
L 211.671771 299.60064 
L 211.926857 298.7136 
L 212.181943 300.48768 
L 212.437029 301.37472 
L 212.692114 304.92288 
L 213.967543 304.92288 
L 214.222629 305.80992 
L 214.477714 307.584 
L 219.324343 307.584 
L 219.579429 304.92288 
L 219.834514 304.03584 
L 220.0896 304.03584 
L 220.599771 302.26176 
L 220.854857 300.48768 
L 221.109943 301.37472 
L 221.365029 305.80992 
L 222.130286 305.80992 
L 222.385371 306.69696 
L 222.640457 304.92288 
L 224.681143 304.92288 
L 224.936229 304.03584 
L 225.701486 304.03584 
L 225.956571 302.26176 
L 227.487086 302.26176 
L 227.742171 301.37472 
L 228.507429 294.2784 
L 228.762514 295.16544 
L 229.0176 296.93952 
L 229.272686 297.82656 
L 229.527771 299.60064 
L 229.782857 299.60064 
L 230.037943 300.48768 
L 230.293029 303.1488 
L 231.568457 303.1488 
L 231.823543 298.7136 
L 232.078629 299.60064 
L 232.333714 298.7136 
L 232.5888 296.93952 
L 232.843886 297.82656 
L 233.098971 296.93952 
L 233.354057 300.48768 
L 234.119314 303.1488 
L 234.3744 303.1488 
L 234.629486 305.80992 
L 234.884571 305.80992 
L 235.139657 307.584 
L 235.394743 306.69696 
L 235.649829 306.69696 
L 235.904914 305.80992 
L 236.16 306.69696 
L 236.415086 304.03584 
L 236.925257 305.80992 
L 237.180343 305.80992 
L 237.435429 307.584 
L 238.200686 307.584 
L 238.710857 305.80992 
L 239.221029 301.37472 
L 239.7312 299.60064 
L 239.986286 302.26176 
L 240.241371 301.37472 
L 240.496457 304.03584 
L 240.751543 301.37472 
L 241.006629 302.26176 
L 241.261714 302.26176 
L 241.5168 303.1488 
L 241.771886 304.92288 
L 242.026971 307.584 
L 247.638857 307.584 
L 247.893943 306.69696 
L 249.169371 306.69696 
L 249.424457 303.1488 
L 250.189714 305.80992 
L 252.2304 305.80992 
L 252.485486 304.03584 
L 252.740571 301.37472 
L 252.995657 300.48768 
L 253.250743 300.48768 
L 253.505829 299.60064 
L 253.760914 297.82656 
L 254.016 296.93952 
L 254.271086 298.7136 
L 254.781257 296.93952 
L 255.036343 302.26176 
L 255.291429 303.1488 
L 255.546514 304.92288 
L 257.332114 304.92288 
L 257.5872 302.26176 
L 257.842286 302.26176 
L 258.097371 300.48768 
L 258.352457 300.48768 
L 258.607543 296.05248 
L 259.117714 294.2784 
L 259.3728 292.50432 
L 259.627886 293.39136 
L 260.138057 289.8432 
L 260.393143 290.73024 
L 260.648229 292.50432 
L 260.903314 296.93952 
L 261.1584 295.16544 
L 261.413486 296.05248 
L 261.668571 297.82656 
L 261.923657 297.82656 
L 262.178743 298.7136 
L 262.433829 297.82656 
L 262.944 301.37472 
L 263.454171 301.37472 
L 263.709257 303.1488 
L 263.964343 304.03584 
L 264.7296 304.03584 
L 264.984686 304.92288 
L 266.260114 304.92288 
L 266.5152 307.584 
L 269.831314 307.584 
L 270.0864 306.69696 
L 270.341486 307.584 
L 277.738971 307.584 
L 277.994057 304.03584 
L 278.249143 304.03584 
L 278.504229 302.26176 
L 279.779657 302.26176 
L 280.034743 298.7136 
L 280.544914 300.48768 
L 280.8 298.7136 
L 281.055086 299.60064 
L 281.820343 304.92288 
L 282.075429 305.80992 
L 282.330514 305.80992 
L 282.5856 306.69696 
L 282.840686 306.69696 
L 283.095771 307.584 
L 286.922057 307.584 
L 287.177143 304.03584 
L 287.687314 304.03584 
L 287.9424 301.37472 
L 288.197486 300.48768 
L 288.452571 302.26176 
L 288.707657 303.1488 
L 288.962743 304.92288 
L 289.217829 304.03584 
L 289.472914 304.03584 
L 289.728 302.26176 
L 289.983086 303.1488 
L 290.238171 305.80992 
L 292.278857 305.80992 
L 292.533943 306.69696 
L 294.319543 306.69696 
L 294.574629 305.80992 
L 296.8704 305.80992 
L 297.125486 296.05248 
L 297.380571 295.16544 
L 297.635657 296.93952 
L 298.145829 298.7136 
L 298.400914 297.82656 
L 298.656 295.16544 
L 298.911086 294.2784 
L 299.166171 296.05248 
L 299.676343 294.2784 
L 300.186514 299.60064 
L 300.4416 300.48768 
L 300.696686 300.48768 
L 301.206857 302.26176 
L 302.2272 302.26176 
L 302.482286 303.1488 
L 303.502629 303.1488 
L 304.0128 304.92288 
L 304.267886 307.584 
L 304.522971 306.69696 
L 304.778057 304.92288 
L 305.288229 304.92288 
L 305.543314 304.03584 
L 311.1552 304.03584 
L 311.410286 302.26176 
L 311.665371 301.37472 
L 312.175543 301.37472 
L 312.685714 299.60064 
L 312.9408 297.82656 
L 313.195886 297.82656 
L 313.450971 296.93952 
L 313.706057 294.2784 
L 314.216229 296.05248 
L 314.471314 296.05248 
L 314.7264 295.16544 
L 314.981486 292.50432 
L 315.491657 294.2784 
L 315.746743 293.39136 
L 316.001829 298.7136 
L 316.256914 296.93952 
L 316.512 296.05248 
L 316.767086 292.50432 
L 317.022171 293.39136 
L 317.532343 291.61728 
L 317.787429 289.8432 
L 318.042514 287.18208 
L 318.2976 288.06912 
L 318.552686 286.29504 
L 318.807771 285.408 
L 319.573029 290.73024 
L 319.828114 294.2784 
L 320.0832 295.16544 
L 320.338286 291.61728 
L 320.848457 289.8432 
L 321.103543 292.50432 
L 321.613714 294.2784 
L 321.8688 292.50432 
L 322.123886 291.61728 
L 322.378971 293.39136 
L 322.889143 303.1488 
L 323.144229 299.60064 
L 323.909486 302.26176 
L 324.164571 293.39136 
L 324.674743 295.16544 
L 324.929829 292.50432 
L 325.184914 293.39136 
L 325.950171 290.73024 
L 326.205257 294.2784 
L 326.460343 292.50432 
L 326.715429 291.61728 
L 326.970514 291.61728 
L 327.480686 289.8432 
L 327.735771 293.39136 
L 327.990857 289.8432 
L 328.756114 292.50432 
L 329.0112 290.73024 
L 329.266286 291.61728 
L 329.521371 290.73024 
L 329.776457 296.05248 
L 330.031543 295.16544 
L 330.286629 296.93952 
L 331.562057 301.37472 
L 331.817143 297.82656 
L 332.5824 300.48768 
L 332.837486 300.48768 
L 333.092571 301.37472 
L 334.368 301.37472 
L 334.623086 305.80992 
L 334.878171 307.584 
L 338.959543 307.584 
L 340.490057 302.26176 
L 340.745143 302.26176 
L 341.000229 298.7136 
L 341.5104 296.93952 
L 341.765486 299.60064 
L 342.020571 300.48768 
L 342.275657 299.60064 
L 342.530743 297.82656 
L 342.785829 298.7136 
L 343.040914 301.37472 
L 343.296 307.584 
L 343.806171 307.584 
L 344.061257 305.80992 
L 344.571429 304.03584 
L 344.826514 306.69696 
L 345.0816 307.584 
L 348.6528 307.584 
L 348.907886 305.80992 
L 349.162971 301.37472 
L 349.418057 299.60064 
L 349.673143 298.7136 
L 350.183314 293.39136 
L 350.693486 295.16544 
L 350.948571 296.93952 
L 351.203657 297.82656 
L 351.458743 300.48768 
L 351.713829 298.7136 
L 351.968914 296.05248 
L 352.224 296.93952 
L 353.244343 293.39136 
L 353.499429 297.82656 
L 353.754514 299.60064 
L 354.0096 302.26176 
L 354.519771 304.03584 
L 355.029943 304.03584 
L 355.285029 301.37472 
L 355.540114 301.37472 
L 355.7952 298.7136 
L 356.050286 297.82656 
L 356.560457 297.82656 
L 357.070629 296.05248 
L 357.325714 296.05248 
L 357.835886 294.2784 
L 358.090971 292.50432 
L 358.346057 293.39136 
L 359.111314 290.73024 
L 359.3664 287.18208 
L 359.621486 288.06912 
L 359.876571 286.29504 
L 360.131657 287.18208 
L 360.386743 288.95616 
L 360.641829 289.8432 
L 361.152 288.06912 
L 361.407086 286.29504 
L 361.662171 287.18208 
L 361.917257 299.60064 
L 362.172343 300.48768 
L 362.427429 302.26176 
L 363.447771 302.26176 
L 363.702857 303.1488 
L 364.213029 306.69696 
L 364.7232 303.1488 
L 364.978286 302.26176 
L 365.233371 300.48768 
L 365.488457 301.37472 
L 365.743543 304.03584 
L 365.998629 303.1488 
L 366.253714 305.80992 
L 366.5088 306.69696 
L 366.763886 306.69696 
L 367.018971 307.584 
L 367.274057 305.80992 
L 367.529143 303.1488 
L 368.039314 301.37472 
L 368.2944 301.37472 
L 368.549486 299.60064 
L 369.059657 301.37472 
L 369.569829 301.37472 
L 369.824914 300.48768 
L 370.590171 300.48768 
L 370.845257 298.7136 
L 371.100343 297.82656 
L 371.610514 297.82656 
L 371.8656 296.93952 
L 372.630857 296.93952 
L 373.141029 292.50432 
L 373.396114 290.73024 
L 374.161371 288.06912 
L 374.416457 286.29504 
L 374.671543 287.18208 
L 374.926629 285.408 
L 375.181714 284.52096 
L 375.4368 286.29504 
L 375.691886 291.61728 
L 376.202057 289.8432 
L 376.712229 286.29504 
L 376.967314 287.18208 
L 377.2224 285.408 
L 377.987657 282.74688 
L 378.752914 293.39136 
L 379.008 295.16544 
L 379.263086 296.05248 
L 379.773257 296.05248 
L 380.283429 304.03584 
L 381.048686 304.03584 
L 381.303771 304.92288 
L 381.558857 303.1488 
L 381.813943 303.1488 
L 382.324114 301.37472 
L 382.834286 301.37472 
L 383.344457 296.93952 
L 383.599543 297.82656 
L 383.854629 299.60064 
L 384.109714 298.7136 
L 384.3648 296.93952 
L 384.874971 295.16544 
L 385.640229 304.03584 
L 385.895314 304.03584 
L 386.1504 306.69696 
L 386.405486 305.80992 
L 386.915657 305.80992 
L 387.170743 303.1488 
L 387.425829 304.03584 
L 387.680914 301.37472 
L 387.936 301.37472 
L 388.191086 298.7136 
L 389.211429 295.16544 
L 389.466514 299.60064 
L 389.7216 300.48768 
L 389.976686 302.26176 
L 390.231771 302.26176 
L 390.486857 303.1488 
L 390.741943 303.1488 
L 390.997029 304.92288 
L 391.252114 307.584 
L 392.017371 307.584 
L 392.272457 306.69696 
L 392.527543 306.69696 
L 392.782629 300.48768 
L 393.2928 302.26176 
L 393.547886 301.37472 
L 393.802971 301.37472 
L 394.058057 303.1488 
L 394.313143 302.26176 
L 394.568229 303.1488 
L 394.823314 303.1488 
L 395.0784 302.26176 
L 395.333486 302.26176 
L 395.588571 301.37472 
L 395.843657 304.03584 
L 396.098743 303.1488 
L 396.353829 300.48768 
L 396.608914 301.37472 
L 396.864 300.48768 
L 397.119086 302.26176 
L 397.374171 300.48768 
L 397.629257 301.37472 
L 397.884343 304.92288 
L 398.139429 303.1488 
L 398.394514 300.48768 
L 398.904686 298.7136 
L 399.159771 301.37472 
L 399.669943 299.60064 
L 400.180114 304.03584 
L 400.690286 307.584 
L 406.302171 307.584 
L 406.302171 307.584 
" style="fill:none;stroke:#1f77b4;"/>
   </g>
   <g id="line2d_17">
    <path clip-path="url(#p0151a51ba3)" d="M 57.6 307.584 
L 59.895771 307.584 
L 60.150857 305.80992 
L 60.405943 304.92288 
L 60.661029 303.1488 
L 60.916114 302.26176 
L 61.1712 299.60064 
L 61.426286 298.7136 
L 61.681371 298.7136 
L 62.446629 289.8432 
L 62.9568 280.08576 
L 63.211886 278.31168 
L 64.232229 267.6672 
L 64.997486 265.00608 
L 65.252571 261.45792 
L 65.762743 259.68384 
L 66.017829 256.13568 
L 66.272914 256.13568 
L 66.783086 254.3616 
L 67.038171 254.3616 
L 67.293257 252.58752 
L 67.548343 251.70048 
L 67.803429 249.9264 
L 68.058514 252.58752 
L 68.3136 257.02272 
L 68.568686 257.90976 
L 68.823771 257.90976 
L 69.078857 262.34496 
L 69.589029 264.11904 
L 70.0992 274.76352 
L 71.374629 296.05248 
L 71.629714 297.82656 
L 72.650057 307.584 
L 84.894171 307.584 
L 85.404343 305.80992 
L 85.659429 299.60064 
L 85.914514 298.7136 
L 86.424686 298.7136 
L 86.679771 299.60064 
L 87.445029 307.584 
L 88.465371 307.584 
L 88.720457 306.69696 
L 88.975543 304.92288 
L 89.230629 306.69696 
L 89.485714 307.584 
L 93.567086 307.584 
L 93.822171 306.69696 
L 94.332343 303.1488 
L 94.842514 307.584 
L 101.474743 307.584 
L 101.729829 306.69696 
L 101.984914 306.69696 
L 102.24 305.80992 
L 102.750171 302.26176 
L 103.005257 301.37472 
L 103.260343 299.60064 
L 103.770514 295.16544 
L 104.0256 294.2784 
L 104.535771 288.06912 
L 105.045943 282.74688 
L 105.301029 278.31168 
L 105.556114 276.5376 
L 106.831543 243.71712 
L 107.086629 226.86336 
L 107.341714 222.42816 
L 107.5968 224.20224 
L 107.851886 224.20224 
L 108.106971 220.65408 
L 108.362057 218.88 
L 108.872229 214.4448 
L 109.127314 214.4448 
L 109.3824 210.89664 
L 109.637486 219.76704 
L 109.892571 221.54112 
L 110.147657 225.97632 
L 110.402743 233.07264 
L 110.657829 249.03936 
L 110.912914 253.47456 
L 111.168 253.47456 
L 111.423086 254.3616 
L 111.678171 256.13568 
L 112.188343 257.90976 
L 112.443429 257.90976 
L 112.698514 259.68384 
L 113.208686 259.68384 
L 113.463771 260.57088 
L 113.718857 262.34496 
L 114.229029 262.34496 
L 114.484114 259.68384 
L 114.7392 261.45792 
L 114.994286 258.7968 
L 115.249371 258.7968 
L 116.014629 249.9264 
L 116.269714 251.70048 
L 116.5248 251.70048 
L 116.779886 265.00608 
L 117.290057 273.87648 
L 117.800229 282.74688 
L 118.055314 282.74688 
L 118.3104 295.16544 
L 119.075657 304.92288 
L 119.330743 306.69696 
L 120.351086 306.69696 
L 120.606171 307.584 
L 121.8816 307.584 
L 122.646857 296.05248 
L 122.901943 288.95616 
L 123.157029 288.06912 
L 123.412114 289.8432 
L 123.6672 290.73024 
L 123.922286 290.73024 
L 124.177371 291.61728 
L 124.687543 297.82656 
L 125.962971 306.69696 
L 126.473143 306.69696 
L 126.728229 307.584 
L 129.024 307.584 
L 129.534171 305.80992 
L 129.789257 307.584 
L 133.870629 307.584 
L 134.125714 306.69696 
L 134.635886 302.26176 
L 134.890971 300.48768 
L 135.911314 278.31168 
L 136.1664 280.08576 
L 136.421486 278.31168 
L 136.676571 279.19872 
L 136.931657 280.9728 
L 137.186743 279.19872 
L 137.441829 280.08576 
L 138.462171 299.60064 
L 138.972343 304.03584 
L 139.227429 305.80992 
L 139.482514 306.69696 
L 141.268114 306.69696 
L 141.5232 305.80992 
L 141.778286 303.1488 
L 142.033371 303.1488 
L 142.288457 302.26176 
L 142.798629 296.93952 
L 143.053714 296.93952 
L 143.3088 287.18208 
L 143.818971 277.42464 
L 144.074057 275.65056 
L 144.839314 248.15232 
L 145.349486 246.37824 
L 145.604571 241.94304 
L 145.859657 233.95968 
L 146.114743 234.84672 
L 146.369829 221.54112 
L 146.624914 221.54112 
L 146.88 223.3152 
L 147.135086 223.3152 
L 147.645257 233.07264 
L 147.900343 233.95968 
L 148.155429 235.73376 
L 148.410514 235.73376 
L 148.920686 251.70048 
L 149.175771 253.47456 
L 149.430857 257.02272 
L 149.685943 257.02272 
L 149.941029 257.90976 
L 150.196114 252.58752 
L 150.4512 255.24864 
L 150.706286 254.3616 
L 150.961371 254.3616 
L 151.216457 253.47456 
L 151.471543 258.7968 
L 151.726629 261.45792 
L 151.981714 268.55424 
L 152.746971 276.5376 
L 153.002057 283.63392 
L 153.257143 284.52096 
L 153.512229 284.52096 
L 153.767314 285.408 
L 154.0224 285.408 
L 154.277486 284.52096 
L 154.532571 280.9728 
L 155.042743 287.18208 
L 155.552914 296.93952 
L 155.808 304.92288 
L 156.063086 307.584 
L 168.052114 307.584 
L 168.817371 304.92288 
L 169.072457 307.584 
L 173.408914 307.584 
L 173.664 304.92288 
L 173.919086 304.03584 
L 174.429257 300.48768 
L 174.684343 302.26176 
L 174.939429 301.37472 
L 175.194514 305.80992 
L 175.4496 307.584 
L 189.224229 307.584 
L 189.989486 293.39136 
L 190.754743 273.87648 
L 191.264914 264.11904 
L 191.775086 241.056 
L 192.285257 218.88 
L 192.540343 211.78368 
L 192.795429 194.92992 
L 193.3056 190.49472 
L 193.560686 189.60768 
L 194.070857 189.60768 
L 194.325943 188.72064 
L 194.581029 175.41504 
L 194.836114 176.30208 
L 195.0912 175.41504 
L 195.346286 179.85024 
L 195.601371 189.60768 
L 195.856457 191.38176 
L 196.111543 197.59104 
L 196.621714 199.36512 
L 197.131886 204.68736 
L 197.386971 205.5744 
L 197.642057 207.34848 
L 198.152229 214.4448 
L 198.407314 216.21888 
L 198.6624 213.55776 
L 198.917486 215.33184 
L 199.172571 215.33184 
L 199.427657 214.4448 
L 199.682743 212.67072 
L 199.937829 213.55776 
L 200.192914 211.78368 
L 200.703086 211.78368 
L 200.958171 208.23552 
L 201.213257 207.34848 
L 201.468343 204.68736 
L 201.978514 194.92992 
L 202.2336 192.2688 
L 202.488686 182.51136 
L 202.743771 186.05952 
L 202.998857 187.8336 
L 203.253943 188.72064 
L 203.509029 186.94656 
L 203.764114 186.94656 
L 204.0192 185.17248 
L 204.529371 195.81696 
L 204.784457 197.59104 
L 205.039543 204.68736 
L 205.294629 216.21888 
L 205.549714 217.99296 
L 206.059886 217.99296 
L 206.314971 216.21888 
L 206.825143 225.97632 
L 207.080229 244.60416 
L 208.100571 255.24864 
L 208.865829 271.21536 
L 209.120914 271.21536 
L 209.376 272.98944 
L 209.631086 271.21536 
L 209.886171 264.11904 
L 210.141257 262.34496 
L 210.906514 241.94304 
L 211.416686 241.94304 
L 211.671771 245.4912 
L 211.926857 252.58752 
L 212.181943 256.13568 
L 213.457371 284.52096 
L 213.967543 290.73024 
L 214.222629 296.93952 
L 214.477714 299.60064 
L 214.7328 300.48768 
L 215.242971 305.80992 
L 215.498057 305.80992 
L 215.753143 307.584 
L 219.324343 307.584 
L 220.0896 302.26176 
L 220.854857 293.39136 
L 221.109943 293.39136 
L 221.620114 300.48768 
L 221.8752 302.26176 
L 222.130286 305.80992 
L 222.640457 307.584 
L 225.956571 307.584 
L 226.211657 306.69696 
L 226.466743 306.69696 
L 226.721829 305.80992 
L 227.487086 297.82656 
L 227.742171 292.50432 
L 228.252343 268.55424 
L 228.507429 265.00608 
L 228.762514 264.11904 
L 229.272686 268.55424 
L 229.527771 267.6672 
L 229.782857 269.44128 
L 230.037943 269.44128 
L 230.293029 272.98944 
L 230.548114 271.21536 
L 230.8032 268.55424 
L 231.313371 257.90976 
L 231.568457 254.3616 
L 231.823543 242.83008 
L 232.078629 242.83008 
L 232.5888 241.056 
L 232.843886 244.60416 
L 233.098971 242.83008 
L 233.354057 249.9264 
L 233.609143 251.70048 
L 233.864229 257.90976 
L 234.119314 268.55424 
L 234.3744 272.1024 
L 234.884571 275.65056 
L 235.139657 278.31168 
L 235.394743 276.5376 
L 235.649829 278.31168 
L 235.904914 276.5376 
L 236.16 280.08576 
L 236.415086 279.19872 
L 236.670171 280.08576 
L 236.925257 290.73024 
L 237.435429 303.1488 
L 237.690514 304.03584 
L 237.9456 307.584 
L 240.496457 307.584 
L 240.751543 305.80992 
L 241.006629 305.80992 
L 241.261714 306.69696 
L 241.5168 306.69696 
L 241.771886 307.584 
L 244.832914 307.584 
L 245.088 306.69696 
L 247.383771 306.69696 
L 247.638857 305.80992 
L 247.893943 301.37472 
L 248.149029 300.48768 
L 248.404114 298.7136 
L 248.6592 297.82656 
L 249.169371 294.2784 
L 249.424457 291.61728 
L 249.679543 293.39136 
L 249.934629 296.93952 
L 250.189714 302.26176 
L 250.4448 303.1488 
L 250.699886 303.1488 
L 250.954971 304.03584 
L 251.210057 304.03584 
L 251.975314 306.69696 
L 255.291429 306.69696 
L 255.546514 307.584 
L 256.821943 307.584 
L 257.332114 301.37472 
L 257.5872 294.2784 
L 257.842286 290.73024 
L 258.097371 283.63392 
L 258.352457 280.9728 
L 259.3728 262.34496 
L 259.627886 263.232 
L 259.882971 263.232 
L 260.138057 259.68384 
L 260.648229 257.90976 
L 260.903314 258.7968 
L 261.1584 254.3616 
L 261.413486 254.3616 
L 261.668571 261.45792 
L 261.923657 264.11904 
L 262.178743 264.11904 
L 262.433829 262.34496 
L 263.454171 278.31168 
L 263.709257 281.85984 
L 263.964343 283.63392 
L 264.474514 291.61728 
L 264.7296 293.39136 
L 264.984686 296.93952 
L 265.494857 306.69696 
L 265.749943 307.584 
L 269.831314 307.584 
L 270.0864 306.69696 
L 270.341486 307.584 
L 273.912686 307.584 
L 274.422857 305.80992 
L 274.677943 303.1488 
L 274.933029 303.1488 
L 275.188114 301.37472 
L 275.4432 297.82656 
L 275.698286 297.82656 
L 275.953371 296.93952 
L 276.463543 296.93952 
L 276.718629 295.16544 
L 277.2288 295.16544 
L 277.483886 292.50432 
L 277.738971 291.61728 
L 277.994057 288.95616 
L 278.249143 288.06912 
L 278.504229 286.29504 
L 278.759314 282.74688 
L 279.0144 280.9728 
L 279.779657 265.89312 
L 280.034743 259.68384 
L 280.289829 260.57088 
L 280.544914 258.7968 
L 280.8 257.90976 
L 281.055086 260.57088 
L 281.565257 273.87648 
L 281.820343 278.31168 
L 283.095771 282.74688 
L 283.350857 282.74688 
L 283.605943 284.52096 
L 283.861029 285.408 
L 286.666971 285.408 
L 286.922057 284.52096 
L 287.177143 280.9728 
L 287.432229 279.19872 
L 287.687314 276.5376 
L 287.9424 272.1024 
L 288.197486 273.87648 
L 288.707657 281.85984 
L 288.962743 288.06912 
L 289.217829 288.06912 
L 289.472914 287.18208 
L 289.728 284.52096 
L 289.983086 285.408 
L 290.238171 293.39136 
L 290.493257 291.61728 
L 291.003429 281.85984 
L 291.5136 276.5376 
L 292.023771 268.55424 
L 292.278857 265.89312 
L 292.789029 256.13568 
L 293.044114 245.4912 
L 293.2992 241.94304 
L 293.809371 225.08928 
L 294.064457 215.33184 
L 294.574629 207.34848 
L 294.829714 204.68736 
L 295.0848 203.80032 
L 295.339886 199.36512 
L 295.594971 192.2688 
L 296.105143 186.05952 
L 296.360229 184.28544 
L 296.8704 176.30208 
L 297.125486 160.33536 
L 297.380571 160.33536 
L 297.635657 162.10944 
L 298.400914 159.44832 
L 298.656 155.01312 
L 298.911086 154.12608 
L 299.166171 155.90016 
L 299.421257 155.90016 
L 299.676343 156.7872 
L 300.4416 168.31872 
L 300.951771 170.0928 
L 301.461943 177.18912 
L 302.2272 187.8336 
L 302.992457 208.23552 
L 303.247543 210.0096 
L 303.502629 210.0096 
L 303.757714 209.12256 
L 304.0128 209.12256 
L 304.522971 207.34848 
L 304.778057 203.80032 
L 305.033143 202.91328 
L 305.543314 194.92992 
L 305.7984 194.04288 
L 306.818743 178.07616 
L 307.073829 177.18912 
L 307.328914 177.18912 
L 307.584 176.30208 
L 308.094171 172.75392 
L 308.349257 172.75392 
L 308.604343 169.20576 
L 308.859429 168.31872 
L 310.134857 155.90016 
L 310.389943 157.67424 
L 310.645029 156.7872 
L 310.900114 155.01312 
L 311.1552 151.46496 
L 311.410286 152.352 
L 311.665371 151.46496 
L 312.175543 147.02976 
L 312.430629 145.25568 
L 313.450971 118.64448 
L 313.706057 109.77408 
L 313.961143 106.22592 
L 314.216229 107.11296 
L 314.7264 107.11296 
L 314.981486 108 
L 315.236571 113.32224 
L 315.746743 128.40192 
L 319.828114 128.40192 
L 320.0832 129.28896 
L 320.338286 131.06304 
L 320.593371 133.72416 
L 320.848457 134.6112 
L 321.358629 140.82048 
L 321.613714 140.82048 
L 321.8688 141.70752 
L 322.123886 144.36864 
L 322.378971 149.69088 
L 322.889143 169.20576 
L 323.144229 175.41504 
L 323.399314 176.30208 
L 323.909486 192.2688 
L 324.164571 186.05952 
L 324.674743 198.47808 
L 324.929829 196.704 
L 325.184914 198.47808 
L 325.44 195.81696 
L 325.950171 186.05952 
L 326.460343 178.9632 
L 327.2256 178.9632 
L 327.480686 176.30208 
L 327.735771 178.9632 
L 327.990857 175.41504 
L 328.245943 173.64096 
L 328.501029 173.64096 
L 328.756114 175.41504 
L 329.0112 172.75392 
L 329.266286 178.9632 
L 330.286629 214.4448 
L 330.541714 221.54112 
L 331.051886 229.52448 
L 331.306971 234.84672 
L 331.562057 235.73376 
L 331.817143 233.07264 
L 332.5824 247.26528 
L 332.837486 248.15232 
L 333.092571 249.9264 
L 333.602743 257.02272 
L 333.857829 259.68384 
L 334.112914 264.11904 
L 334.368 271.21536 
L 334.623086 286.29504 
L 334.878171 288.06912 
L 335.133257 288.06912 
L 335.388343 282.74688 
L 335.643429 284.52096 
L 336.408686 281.85984 
L 336.663771 293.39136 
L 336.918857 292.50432 
L 337.173943 290.73024 
L 337.684114 288.95616 
L 337.9392 285.408 
L 338.194286 280.08576 
L 338.449371 278.31168 
L 339.214629 262.34496 
L 339.7248 243.71712 
L 341.255314 208.23552 
L 341.5104 203.80032 
L 341.765486 204.68736 
L 342.020571 204.68736 
L 342.530743 197.59104 
L 342.785829 197.59104 
L 343.040914 199.36512 
L 343.296 203.80032 
L 343.551086 203.80032 
L 343.806171 206.46144 
L 344.316343 202.91328 
L 344.571429 200.25216 
L 344.826514 208.23552 
L 346.101943 225.97632 
L 346.357029 226.86336 
L 347.887543 226.86336 
L 348.142629 225.08928 
L 348.397714 224.20224 
L 348.6528 219.76704 
L 348.907886 218.88 
L 349.162971 192.2688 
L 349.418057 183.3984 
L 349.673143 180.73728 
L 350.183314 153.23904 
L 350.4384 147.02976 
L 350.693486 144.36864 
L 351.203657 146.14272 
L 351.458743 147.9168 
L 351.713829 150.57792 
L 352.224 145.25568 
L 352.479086 144.36864 
L 352.989257 137.27232 
L 353.244343 140.82048 
L 353.499429 147.9168 
L 354.0096 153.23904 
L 354.264686 154.12608 
L 354.519771 159.44832 
L 354.774857 160.33536 
L 355.029943 158.56128 
L 355.285029 150.57792 
L 355.540114 155.01312 
L 356.050286 147.9168 
L 356.305371 150.57792 
L 356.815543 158.56128 
L 357.070629 158.56128 
L 357.325714 159.44832 
L 357.5808 159.44832 
L 357.835886 158.56128 
L 358.090971 151.46496 
L 358.346057 153.23904 
L 358.601143 156.7872 
L 358.856229 158.56128 
L 359.111314 161.2224 
L 359.3664 160.33536 
L 359.621486 160.33536 
L 359.876571 161.2224 
L 360.131657 165.6576 
L 360.386743 175.41504 
L 360.641829 176.30208 
L 360.896914 178.07616 
L 361.152 178.9632 
L 361.407086 181.62432 
L 361.662171 186.94656 
L 361.917257 204.68736 
L 362.172343 210.0096 
L 362.682514 216.21888 
L 363.957943 236.6208 
L 364.213029 240.16896 
L 364.468114 240.16896 
L 364.7232 237.50784 
L 364.978286 237.50784 
L 365.233371 230.41152 
L 365.488457 231.29856 
L 365.743543 230.41152 
L 365.998629 228.63744 
L 366.5088 239.28192 
L 366.763886 240.16896 
L 367.018971 238.39488 
L 367.274057 237.50784 
L 367.784229 230.41152 
L 368.039314 227.7504 
L 368.2944 233.95968 
L 368.549486 230.41152 
L 368.804571 238.39488 
L 369.059657 241.056 
L 369.314743 241.94304 
L 369.569829 236.6208 
L 371.610514 167.43168 
L 372.120686 159.44832 
L 373.6512 110.66112 
L 373.906286 109.77408 
L 374.161371 110.66112 
L 374.416457 107.11296 
L 374.671543 105.33888 
L 374.926629 102.67776 
L 375.4368 100.90368 
L 375.691886 101.79072 
L 376.712229 101.79072 
L 376.967314 100.90368 
L 377.2224 100.90368 
L 377.477486 93.80736 
L 377.732571 90.2592 
L 377.987657 91.14624 
L 378.242743 95.58144 
L 378.497829 97.35552 
L 379.008 108.88704 
L 379.263086 109.77408 
L 379.518171 108.88704 
L 379.773257 110.66112 
L 380.028343 116.8704 
L 380.283429 119.53152 
L 380.538514 123.96672 
L 380.7936 125.7408 
L 381.048686 125.7408 
L 381.303771 123.96672 
L 381.558857 120.41856 
L 381.813943 115.09632 
L 382.069029 106.22592 
L 382.324114 104.45184 
L 382.5792 100.90368 
L 382.834286 91.14624 
L 383.089371 72.5184 
L 383.344457 78.72768 
L 383.599543 79.61472 
L 384.3648 89.37216 
L 384.874971 93.80736 
L 385.130057 99.1296 
L 385.385143 100.90368 
L 385.640229 101.79072 
L 385.895314 99.1296 
L 386.1504 104.45184 
L 386.405486 98.24256 
L 386.660571 100.01664 
L 386.915657 94.6944 
L 387.170743 76.06656 
L 387.425829 77.84064 
L 387.936 71.63136 
L 388.191086 66.30912 
L 388.446171 69.85728 
L 388.701257 69.85728 
L 388.956343 75.17952 
L 389.211429 77.84064 
L 389.466514 89.37216 
L 389.7216 95.58144 
L 390.231771 120.41856 
L 390.741943 130.176 
L 390.997029 144.36864 
L 391.762286 155.01312 
L 392.017371 155.90016 
L 392.527543 152.352 
L 392.782629 140.82048 
L 393.037714 142.59456 
L 393.2928 147.9168 
L 393.547886 145.25568 
L 393.802971 152.352 
L 394.568229 188.72064 
L 395.0784 200.25216 
L 395.333486 201.1392 
L 395.588571 201.1392 
L 396.098743 210.0096 
L 396.608914 218.88 
L 396.864 217.99296 
L 397.374171 226.86336 
L 397.884343 249.9264 
L 398.139429 250.81344 
L 398.6496 260.57088 
L 398.904686 263.232 
L 399.159771 267.6672 
L 399.414857 274.76352 
L 399.669943 275.65056 
L 400.180114 295.16544 
L 400.4352 302.26176 
L 400.690286 304.03584 
L 401.200457 304.03584 
L 401.455543 305.80992 
L 401.710629 306.69696 
L 402.475886 306.69696 
L 402.730971 307.584 
L 406.302171 307.584 
L 406.302171 307.584 
" style="fill:none;stroke:#ff7f0e;"/>
   </g>
   <g id="patch_3">
    <path d="M 57.6 307.584 
L 57.6 41.472 
" style="fill:none;stroke:#000000;stroke-linecap:square;stroke-linejoin:miter;stroke-width:0.8;"/>
   </g>
   <g id="patch_4">
    <path d="M 414.72 307.584 
L 414.72 41.472 
" style="fill:none;stroke:#000000;stroke-linecap:square;stroke-linejoin:miter;stroke-width:0.8;"/>
   </g>
   <g id="patch_5">
    <path d="M 57.6 307.584 
L 414.72 307.584 
" style="fill:none;stroke:#000000;stroke-linecap:square;stroke-linejoin:miter;stroke-width:0.8;"/>
   </g>
   <g id="patch_6">
    <path d="M 57.6 41.472 
L 414.72 41.472 
" style="fill:none;stroke:#000000;stroke-linecap:square;stroke-linejoin:miter;stroke-width:0.8;"/>
   </g>
   <g id="legend_1">
    <g id="patch_7">
     <path d="M 77.584062 79.3845 
L 409.72 79.3845 
L 409.72 46.472 
L 77.584062 46.472 
z
" style="fill:#ffffff;stroke:#000000;stroke-linejoin:miter;"/>
    </g>
    <g id="line2d_18">
     <path d="M 81.584062 54.570438 
L 101.584062 54.570438 
" style="fill:none;stroke:#1f77b4;"/>
    </g>
    <g id="line2d_19"/>
    <g id="text_18">
     <!-- sp_cas9/blast_refseq_5000/mafft_2000/threshold (N=555) -->
     <defs>
      <path d="M 18.109375 8.203125 
L 18.109375 -20.796875 
L 9.078125 -20.796875 
L 9.078125 54.6875 
L 18.109375 54.6875 
L 18.109375 46.390625 
Q 20.953125 51.265625 25.265625 53.625 
Q 29.59375 56 35.59375 56 
Q 45.5625 56 51.78125 48.09375 
Q 58.015625 40.1875 58.015625 27.296875 
Q 58.015625 14.40625 51.78125 6.484375 
Q 45.5625 -1.421875 35.59375 -1.421875 
Q 29.59375 -1.421875 25.265625 0.953125 
Q 20.953125 3.328125 18.109375 8.203125 
z
M 48.6875 27.296875 
Q 48.6875 37.203125 44.609375 42.84375 
Q 40.53125 48.484375 33.40625 48.484375 
Q 26.265625 48.484375 22.1875 42.84375 
Q 18.109375 37.203125 18.109375 27.296875 
Q 18.109375 17.390625 22.1875 11.75 
Q 26.265625 6.109375 33.40625 6.109375 
Q 40.53125 6.109375 44.609375 11.75 
Q 48.6875 17.390625 48.6875 27.296875 
z
" id="DejaVuSans-112"/>
      <path d="M 50.984375 -16.609375 
L 50.984375 -23.578125 
L -0.984375 -23.578125 
L -0.984375 -16.609375 
z
" id="DejaVuSans-95"/>
      <path d="M 48.78125 52.59375 
L 48.78125 44.1875 
Q 44.96875 46.296875 41.140625 47.34375 
Q 37.3125 48.390625 33.40625 48.390625 
Q 24.65625 48.390625 19.8125 42.84375 
Q 14.984375 37.3125 14.984375 27.296875 
Q 14.984375 17.28125 19.8125 11.734375 
Q 24.65625 6.203125 33.40625 6.203125 
Q 37.3125 6.203125 41.140625 7.25 
Q 44.96875 8.296875 48.78125 10.40625 
L 48.78125 2.09375 
Q 45.015625 0.34375 40.984375 -0.53125 
Q 36.96875 -1.421875 32.421875 -1.421875 
Q 20.0625 -1.421875 12.78125 6.34375 
Q 5.515625 14.109375 5.515625 27.296875 
Q 5.515625 40.671875 12.859375 48.328125 
Q 20.21875 56 33.015625 56 
Q 37.15625 56 41.109375 55.140625 
Q 45.0625 54.296875 48.78125 52.59375 
z
" id="DejaVuSans-99"/>
      <path d="M 34.28125 27.484375 
Q 23.390625 27.484375 19.1875 25 
Q 14.984375 22.515625 14.984375 16.5 
Q 14.984375 11.71875 18.140625 8.90625 
Q 21.296875 6.109375 26.703125 6.109375 
Q 34.1875 6.109375 38.703125 11.40625 
Q 43.21875 16.703125 43.21875 25.484375 
L 43.21875 27.484375 
z
M 52.203125 31.203125 
L 52.203125 0 
L 43.21875 0 
L 43.21875 8.296875 
Q 40.140625 3.328125 35.546875 0.953125 
Q 30.953125 -1.421875 24.3125 -1.421875 
Q 15.921875 -1.421875 10.953125 3.296875 
Q 6 8.015625 6 15.921875 
Q 6 25.140625 12.171875 29.828125 
Q 18.359375 34.515625 30.609375 34.515625 
L 43.21875 34.515625 
L 43.21875 35.40625 
Q 43.21875 41.609375 39.140625 45 
Q 35.0625 48.390625 27.6875 48.390625 
Q 23 48.390625 18.546875 47.265625 
Q 14.109375 46.140625 10.015625 43.890625 
L 10.015625 52.203125 
Q 14.9375 54.109375 19.578125 55.046875 
Q 24.21875 56 28.609375 56 
Q 40.484375 56 46.34375 49.84375 
Q 52.203125 43.703125 52.203125 31.203125 
z
" id="DejaVuSans-97"/>
      <path d="M 10.984375 1.515625 
L 10.984375 10.5 
Q 14.703125 8.734375 18.5 7.8125 
Q 22.3125 6.890625 25.984375 6.890625 
Q 35.75 6.890625 40.890625 13.453125 
Q 46.046875 20.015625 46.78125 33.40625 
Q 43.953125 29.203125 39.59375 26.953125 
Q 35.25 24.703125 29.984375 24.703125 
Q 19.046875 24.703125 12.671875 31.3125 
Q 6.296875 37.9375 6.296875 49.421875 
Q 6.296875 60.640625 12.9375 67.421875 
Q 19.578125 74.21875 30.609375 74.21875 
Q 43.265625 74.21875 49.921875 64.515625 
Q 56.59375 54.828125 56.59375 36.375 
Q 56.59375 19.140625 48.40625 8.859375 
Q 40.234375 -1.421875 26.421875 -1.421875 
Q 22.703125 -1.421875 18.890625 -0.6875 
Q 15.09375 0.046875 10.984375 1.515625 
z
M 30.609375 32.421875 
Q 37.25 32.421875 41.125 36.953125 
Q 45.015625 41.5 45.015625 49.421875 
Q 45.015625 57.28125 41.125 61.84375 
Q 37.25 66.40625 30.609375 66.40625 
Q 23.96875 66.40625 20.09375 61.84375 
Q 16.21875 57.28125 16.21875 49.421875 
Q 16.21875 41.5 20.09375 36.953125 
Q 23.96875 32.421875 30.609375 32.421875 
z
" id="DejaVuSans-57"/>
      <path d="M 25.390625 72.90625 
L 33.6875 72.90625 
L 8.296875 -9.28125 
L 0 -9.28125 
z
" id="DejaVuSans-47"/>
      <path d="M 48.6875 27.296875 
Q 48.6875 37.203125 44.609375 42.84375 
Q 40.53125 48.484375 33.40625 48.484375 
Q 26.265625 48.484375 22.1875 42.84375 
Q 18.109375 37.203125 18.109375 27.296875 
Q 18.109375 17.390625 22.1875 11.75 
Q 26.265625 6.109375 33.40625 6.109375 
Q 40.53125 6.109375 44.609375 11.75 
Q 48.6875 17.390625 48.6875 27.296875 
z
M 18.109375 46.390625 
Q 20.953125 51.265625 25.265625 53.625 
Q 29.59375 56 35.59375 56 
Q 45.5625 56 51.78125 48.09375 
Q 58.015625 40.1875 58.015625 27.296875 
Q 58.015625 14.40625 51.78125 6.484375 
Q 45.5625 -1.421875 35.59375 -1.421875 
Q 29.59375 -1.421875 25.265625 0.953125 
Q 20.953125 3.328125 18.109375 8.203125 
L 18.109375 0 
L 9.078125 0 
L 9.078125 75.984375 
L 18.109375 75.984375 
z
" id="DejaVuSans-98"/>
      <path d="M 37.109375 75.984375 
L 37.109375 68.5 
L 28.515625 68.5 
Q 23.6875 68.5 21.796875 66.546875 
Q 19.921875 64.59375 19.921875 59.515625 
L 19.921875 54.6875 
L 34.71875 54.6875 
L 34.71875 47.703125 
L 19.921875 47.703125 
L 19.921875 0 
L 10.890625 0 
L 10.890625 47.703125 
L 2.296875 47.703125 
L 2.296875 54.6875 
L 10.890625 54.6875 
L 10.890625 58.5 
Q 10.890625 67.625 15.140625 71.796875 
Q 19.390625 75.984375 28.609375 75.984375 
z
" id="DejaVuSans-102"/>
      <path d="M 14.796875 27.296875 
Q 14.796875 17.390625 18.875 11.75 
Q 22.953125 6.109375 30.078125 6.109375 
Q 37.203125 6.109375 41.296875 11.75 
Q 45.40625 17.390625 45.40625 27.296875 
Q 45.40625 37.203125 41.296875 42.84375 
Q 37.203125 48.484375 30.078125 48.484375 
Q 22.953125 48.484375 18.875 42.84375 
Q 14.796875 37.203125 14.796875 27.296875 
z
M 45.40625 8.203125 
Q 42.578125 3.328125 38.25 0.953125 
Q 33.9375 -1.421875 27.875 -1.421875 
Q 17.96875 -1.421875 11.734375 6.484375 
Q 5.515625 14.40625 5.515625 27.296875 
Q 5.515625 40.1875 11.734375 48.09375 
Q 17.96875 56 27.875 56 
Q 33.9375 56 38.25 53.625 
Q 42.578125 51.265625 45.40625 46.390625 
L 45.40625 54.6875 
L 54.390625 54.6875 
L 54.390625 -20.796875 
L 45.40625 -20.796875 
z
" id="DejaVuSans-113"/>
      <path d="M 52 44.1875 
Q 55.375 50.25 60.0625 53.125 
Q 64.75 56 71.09375 56 
Q 79.640625 56 84.28125 50.015625 
Q 88.921875 44.046875 88.921875 33.015625 
L 88.921875 0 
L 79.890625 0 
L 79.890625 32.71875 
Q 79.890625 40.578125 77.09375 44.375 
Q 74.3125 48.1875 68.609375 48.1875 
Q 61.625 48.1875 57.5625 43.546875 
Q 53.515625 38.921875 53.515625 30.90625 
L 53.515625 0 
L 44.484375 0 
L 44.484375 32.71875 
Q 44.484375 40.625 41.703125 44.40625 
Q 38.921875 48.1875 33.109375 48.1875 
Q 26.21875 48.1875 22.15625 43.53125 
Q 18.109375 38.875 18.109375 30.90625 
L 18.109375 0 
L 9.078125 0 
L 9.078125 54.6875 
L 18.109375 54.6875 
L 18.109375 46.1875 
Q 21.1875 51.21875 25.484375 53.609375 
Q 29.78125 56 35.6875 56 
Q 41.65625 56 45.828125 52.96875 
Q 50 49.953125 52 44.1875 
z
" id="DejaVuSans-109"/>
      <path d="M 54.890625 33.015625 
L 54.890625 0 
L 45.90625 0 
L 45.90625 32.71875 
Q 45.90625 40.484375 42.875 44.328125 
Q 39.84375 48.1875 33.796875 48.1875 
Q 26.515625 48.1875 22.3125 43.546875 
Q 18.109375 38.921875 18.109375 30.90625 
L 18.109375 0 
L 9.078125 0 
L 9.078125 75.984375 
L 18.109375 75.984375 
L 18.109375 46.1875 
Q 21.34375 51.125 25.703125 53.5625 
Q 30.078125 56 35.796875 56 
Q 45.21875 56 50.046875 50.171875 
Q 54.890625 44.34375 54.890625 33.015625 
z
" id="DejaVuSans-104"/>
      <path d="M 31 75.875 
Q 24.46875 64.65625 21.28125 53.65625 
Q 18.109375 42.671875 18.109375 31.390625 
Q 18.109375 20.125 21.3125 9.0625 
Q 24.515625 -2 31 -13.1875 
L 23.1875 -13.1875 
Q 15.875 -1.703125 12.234375 9.375 
Q 8.59375 20.453125 8.59375 31.390625 
Q 8.59375 42.28125 12.203125 53.3125 
Q 15.828125 64.359375 23.1875 75.875 
z
" id="DejaVuSans-40"/>
      <path d="M 9.8125 72.90625 
L 23.09375 72.90625 
L 55.421875 11.921875 
L 55.421875 72.90625 
L 64.984375 72.90625 
L 64.984375 0 
L 51.703125 0 
L 19.390625 60.984375 
L 19.390625 0 
L 9.8125 0 
z
" id="DejaVuSans-78"/>
      <path d="M 10.59375 45.40625 
L 73.1875 45.40625 
L 73.1875 37.203125 
L 10.59375 37.203125 
z
M 10.59375 25.484375 
L 73.1875 25.484375 
L 73.1875 17.1875 
L 10.59375 17.1875 
z
" id="DejaVuSans-61"/>
      <path d="M 8.015625 75.875 
L 15.828125 75.875 
Q 23.140625 64.359375 26.78125 53.3125 
Q 30.421875 42.28125 30.421875 31.390625 
Q 30.421875 20.453125 26.78125 9.375 
Q 23.140625 -1.703125 15.828125 -13.1875 
L 8.015625 -13.1875 
Q 14.5 -2 17.703125 9.0625 
Q 20.90625 20.125 20.90625 31.390625 
Q 20.90625 42.671875 17.703125 53.65625 
Q 14.5 64.65625 8.015625 75.875 
z
" id="DejaVuSans-41"/>
     </defs>
     <g transform="translate(109.584062 58.070438)scale(0.1 -0.1)">
      <use xlink:href="#DejaVuSans-115"/>
      <use x="52.099609" xlink:href="#DejaVuSans-112"/>
      <use x="115.576172" xlink:href="#DejaVuSans-95"/>
      <use x="165.576172" xlink:href="#DejaVuSans-99"/>
      <use x="220.556641" xlink:href="#DejaVuSans-97"/>
      <use x="281.835938" xlink:href="#DejaVuSans-115"/>
      <use x="333.935547" xlink:href="#DejaVuSans-57"/>
      <use x="397.558594" xlink:href="#DejaVuSans-47"/>
      <use x="431.25" xlink:href="#DejaVuSans-98"/>
      <use x="494.726562" xlink:href="#DejaVuSans-108"/>
      <use x="522.509766" xlink:href="#DejaVuSans-97"/>
      <use x="583.789062" xlink:href="#DejaVuSans-115"/>
      <use x="635.888672" xlink:href="#DejaVuSans-116"/>
      <use x="675.097656" xlink:href="#DejaVuSans-95"/>
      <use x="725.097656" xlink:href="#DejaVuSans-114"/>
      <use x="766.179688" xlink:href="#DejaVuSans-101"/>
      <use x="827.703125" xlink:href="#DejaVuSans-102"/>
      <use x="862.908203" xlink:href="#DejaVuSans-115"/>
      <use x="915.007812" xlink:href="#DejaVuSans-101"/>
      <use x="976.53125" xlink:href="#DejaVuSans-113"/>
      <use x="1040.007812" xlink:href="#DejaVuSans-95"/>
      <use x="1090.007812" xlink:href="#DejaVuSans-53"/>
      <use x="1153.630859" xlink:href="#DejaVuSans-48"/>
      <use x="1217.253906" xlink:href="#DejaVuSans-48"/>
      <use x="1280.876953" xlink:href="#DejaVuSans-48"/>
      <use x="1344.5" xlink:href="#DejaVuSans-47"/>
      <use x="1378.191406" xlink:href="#DejaVuSans-109"/>
      <use x="1475.603516" xlink:href="#DejaVuSans-97"/>
      <use x="1536.882812" xlink:href="#DejaVuSans-102"/>
      <use x="1572.087891" xlink:href="#DejaVuSans-102"/>
      <use x="1607.277344" xlink:href="#DejaVuSans-116"/>
      <use x="1646.486328" xlink:href="#DejaVuSans-95"/>
      <use x="1696.486328" xlink:href="#DejaVuSans-50"/>
      <use x="1760.109375" xlink:href="#DejaVuSans-48"/>
      <use x="1823.732422" xlink:href="#DejaVuSans-48"/>
      <use x="1887.355469" xlink:href="#DejaVuSans-48"/>
      <use x="1950.978516" xlink:href="#DejaVuSans-47"/>
      <use x="1984.669922" xlink:href="#DejaVuSans-116"/>
      <use x="2023.878906" xlink:href="#DejaVuSans-104"/>
      <use x="2087.257812" xlink:href="#DejaVuSans-114"/>
      <use x="2128.339844" xlink:href="#DejaVuSans-101"/>
      <use x="2189.863281" xlink:href="#DejaVuSans-115"/>
      <use x="2241.962891" xlink:href="#DejaVuSans-104"/>
      <use x="2305.341797" xlink:href="#DejaVuSans-111"/>
      <use x="2366.523438" xlink:href="#DejaVuSans-108"/>
      <use x="2394.306641" xlink:href="#DejaVuSans-100"/>
      <use x="2457.783203" xlink:href="#DejaVuSans-32"/>
      <use x="2489.570312" xlink:href="#DejaVuSans-40"/>
      <use x="2528.583984" xlink:href="#DejaVuSans-78"/>
      <use x="2603.388672" xlink:href="#DejaVuSans-61"/>
      <use x="2687.177734" xlink:href="#DejaVuSans-53"/>
      <use x="2750.800781" xlink:href="#DejaVuSans-53"/>
      <use x="2814.423828" xlink:href="#DejaVuSans-53"/>
      <use x="2878.046875" xlink:href="#DejaVuSans-41"/>
     </g>
    </g>
    <g id="line2d_20">
     <path d="M 81.584062 69.526688 
L 101.584062 69.526688 
" style="fill:none;stroke:#ff7f0e;"/>
    </g>
    <g id="line2d_21"/>
    <g id="text_19">
     <!-- sp_cas9/blast_refseq_5000/mafft_2000/loophash (N=2429) -->
     <g transform="translate(109.584062 73.026688)scale(0.1 -0.1)">
      <use xlink:href="#DejaVuSans-115"/>
      <use x="52.099609" xlink:href="#DejaVuSans-112"/>
      <use x="115.576172" xlink:href="#DejaVuSans-95"/>
      <use x="165.576172" xlink:href="#DejaVuSans-99"/>
      <use x="220.556641" xlink:href="#DejaVuSans-97"/>
      <use x="281.835938" xlink:href="#DejaVuSans-115"/>
      <use x="333.935547" xlink:href="#DejaVuSans-57"/>
      <use x="397.558594" xlink:href="#DejaVuSans-47"/>
      <use x="431.25" xlink:href="#DejaVuSans-98"/>
      <use x="494.726562" xlink:href="#DejaVuSans-108"/>
      <use x="522.509766" xlink:href="#DejaVuSans-97"/>
      <use x="583.789062" xlink:href="#DejaVuSans-115"/>
      <use x="635.888672" xlink:href="#DejaVuSans-116"/>
      <use x="675.097656" xlink:href="#DejaVuSans-95"/>
      <use x="725.097656" xlink:href="#DejaVuSans-114"/>
      <use x="766.179688" xlink:href="#DejaVuSans-101"/>
      <use x="827.703125" xlink:href="#DejaVuSans-102"/>
      <use x="862.908203" xlink:href="#DejaVuSans-115"/>
      <use x="915.007812" xlink:href="#DejaVuSans-101"/>
      <use x="976.53125" xlink:href="#DejaVuSans-113"/>
      <use x="1040.007812" xlink:href="#DejaVuSans-95"/>
      <use x="1090.007812" xlink:href="#DejaVuSans-53"/>
      <use x="1153.630859" xlink:href="#DejaVuSans-48"/>
      <use x="1217.253906" xlink:href="#DejaVuSans-48"/>
      <use x="1280.876953" xlink:href="#DejaVuSans-48"/>
      <use x="1344.5" xlink:href="#DejaVuSans-47"/>
      <use x="1378.191406" xlink:href="#DejaVuSans-109"/>
      <use x="1475.603516" xlink:href="#DejaVuSans-97"/>
      <use x="1536.882812" xlink:href="#DejaVuSans-102"/>
      <use x="1572.087891" xlink:href="#DejaVuSans-102"/>
      <use x="1607.277344" xlink:href="#DejaVuSans-116"/>
      <use x="1646.486328" xlink:href="#DejaVuSans-95"/>
      <use x="1696.486328" xlink:href="#DejaVuSans-50"/>
      <use x="1760.109375" xlink:href="#DejaVuSans-48"/>
      <use x="1823.732422" xlink:href="#DejaVuSans-48"/>
      <use x="1887.355469" xlink:href="#DejaVuSans-48"/>
      <use x="1950.978516" xlink:href="#DejaVuSans-47"/>
      <use x="1984.669922" xlink:href="#DejaVuSans-108"/>
      <use x="2012.453125" xlink:href="#DejaVuSans-111"/>
      <use x="2073.634766" xlink:href="#DejaVuSans-111"/>
      <use x="2134.816406" xlink:href="#DejaVuSans-112"/>
      <use x="2198.292969" xlink:href="#DejaVuSans-104"/>
      <use x="2261.671875" xlink:href="#DejaVuSans-97"/>
      <use x="2322.951172" xlink:href="#DejaVuSans-115"/>
      <use x="2375.050781" xlink:href="#DejaVuSans-104"/>
      <use x="2438.429688" xlink:href="#DejaVuSans-32"/>
      <use x="2470.216797" xlink:href="#DejaVuSans-40"/>
      <use x="2509.230469" xlink:href="#DejaVuSans-78"/>
      <use x="2584.035156" xlink:href="#DejaVuSans-61"/>
      <use x="2667.824219" xlink:href="#DejaVuSans-50"/>
      <use x="2731.447266" xlink:href="#DejaVuSans-52"/>
      <use x="2795.070312" xlink:href="#DejaVuSans-50"/>
      <use x="2858.693359" xlink:href="#DejaVuSans-57"/>
      <use x="2922.316406" xlink:href="#DejaVuSans-41"/>
     </g>
    </g>
   </g>
  </g>
 </g>
 <defs>
  <clipPath id="p0151a51ba3">
   <rect height="266.112" width="357.12" x="57.6" y="41.472"/>
  </clipPath>
 </defs>
</svg>
