<?xml version="1.0" encoding="utf-8" standalone="no"?>
<!DOCTYPE svg PUBLIC "-//W3C//DTD SVG 1.1//EN"
  "http://www.w3.org/Graphics/SVG/1.1/DTD/svg11.dtd">
<!-- Created with matplotlib (https://matplotlib.org/) -->
<svg height="345.6pt" version="1.1" viewBox="0 0 460.8 345.6" width="460.8pt" xmlns="http://www.w3.org/2000/svg" xmlns:xlink="http://www.w3.org/1999/xlink">
 <defs>
  <style type="text/css">
*{stroke-linecap:butt;stroke-linejoin:round;}
  </style>
 </defs>
 <g id="figure_1">
  <g id="patch_1">
   <path d="M 0 345.6 
L 460.8 345.6 
L 460.8 0 
L 0 0 
z
" style="fill:none;"/>
  </g>
  <g id="axes_1">
   <g id="patch_2">
    <path d="M 50.87 148.26 
L 437.355 148.26 
L 437.355 24.72 
L 50.87 24.72 
z
" style="fill:#ffffff;"/>
   </g>
   <g id="matplotlib.axis_1">
    <g id="xtick_1">
     <g id="line2d_1">
      <defs>
       <path d="M 0 0 
L 0 3.5 
" id="m2efad5dccc" style="stroke:#000000;stroke-width:0.8;"/>
      </defs>
      <g>
       <use style="stroke:#000000;stroke-width:0.8;" x="50.87" xlink:href="#m2efad5dccc" y="148.26"/>
      </g>
     </g>
     <g id="text_1">
      <!-- 0.0 -->
      <defs>
       <path d="M 31.78125 66.40625 
Q 24.171875 66.40625 20.328125 58.90625 
Q 16.5 51.421875 16.5 36.375 
Q 16.5 21.390625 20.328125 13.890625 
Q 24.171875 6.390625 31.78125 6.390625 
Q 39.453125 6.390625 43.28125 13.890625 
Q 47.125 21.390625 47.125 36.375 
Q 47.125 51.421875 43.28125 58.90625 
Q 39.453125 66.40625 31.78125 66.40625 
z
M 31.78125 74.21875 
Q 44.046875 74.21875 50.515625 64.515625 
Q 56.984375 54.828125 56.984375 36.375 
Q 56.984375 17.96875 50.515625 8.265625 
Q 44.046875 -1.421875 31.78125 -1.421875 
Q 19.53125 -1.421875 13.0625 8.265625 
Q 6.59375 17.96875 6.59375 36.375 
Q 6.59375 54.828125 13.0625 64.515625 
Q 19.53125 74.21875 31.78125 74.21875 
z
" id="DejaVuSans-48"/>
       <path d="M 10.6875 12.40625 
L 21 12.40625 
L 21 0 
L 10.6875 0 
z
" id="DejaVuSans-46"/>
      </defs>
      <g transform="translate(42.918438 162.858437)scale(0.1 -0.1)">
       <use xlink:href="#DejaVuSans-48"/>
       <use x="63.623047" xlink:href="#DejaVuSans-46"/>
       <use x="95.410156" xlink:href="#DejaVuSans-48"/>
      </g>
     </g>
    </g>
    <g id="xtick_2">
     <g id="line2d_2">
      <g>
       <use style="stroke:#000000;stroke-width:0.8;" x="128.167" xlink:href="#m2efad5dccc" y="148.26"/>
      </g>
     </g>
     <g id="text_2">
      <!-- 0.2 -->
      <defs>
       <path d="M 19.1875 8.296875 
L 53.609375 8.296875 
L 53.609375 0 
L 7.328125 0 
L 7.328125 8.296875 
Q 12.9375 14.109375 22.625 23.890625 
Q 32.328125 33.6875 34.8125 36.53125 
Q 39.546875 41.84375 41.421875 45.53125 
Q 43.3125 49.21875 43.3125 52.78125 
Q 43.3125 58.59375 39.234375 62.25 
Q 35.15625 65.921875 28.609375 65.921875 
Q 23.96875 65.921875 18.8125 64.3125 
Q 13.671875 62.703125 7.8125 59.421875 
L 7.8125 69.390625 
Q 13.765625 71.78125 18.9375 73 
Q 24.125 74.21875 28.421875 74.21875 
Q 39.75 74.21875 46.484375 68.546875 
Q 53.21875 62.890625 53.21875 53.421875 
Q 53.21875 48.921875 51.53125 44.890625 
Q 49.859375 40.875 45.40625 35.40625 
Q 44.1875 33.984375 37.640625 27.21875 
Q 31.109375 20.453125 19.1875 8.296875 
z
" id="DejaVuSans-50"/>
      </defs>
      <g transform="translate(120.215438 162.858437)scale(0.1 -0.1)">
       <use xlink:href="#DejaVuSans-48"/>
       <use x="63.623047" xlink:href="#DejaVuSans-46"/>
       <use x="95.410156" xlink:href="#DejaVuSans-50"/>
      </g>
     </g>
    </g>
    <g id="xtick_3">
     <g id="line2d_3">
      <g>
       <use style="stroke:#000000;stroke-width:0.8;" x="205.464" xlink:href="#m2efad5dccc" y="148.26"/>
      </g>
     </g>
     <g id="text_3">
      <!-- 0.4 -->
      <defs>
       <path d="M 37.796875 64.3125 
L 12.890625 25.390625 
L 37.796875 25.390625 
z
M 35.203125 72.90625 
L 47.609375 72.90625 
L 47.609375 25.390625 
L 58.015625 25.390625 
L 58.015625 17.1875 
L 47.609375 17.1875 
L 47.609375 0 
L 37.796875 0 
L 37.796875 17.1875 
L 4.890625 17.1875 
L 4.890625 26.703125 
z
" id="DejaVuSans-52"/>
      </defs>
      <g transform="translate(197.512438 162.858437)scale(0.1 -0.1)">
       <use xlink:href="#DejaVuSans-48"/>
       <use x="63.623047" xlink:href="#DejaVuSans-46"/>
       <use x="95.410156" xlink:href="#DejaVuSans-52"/>
      </g>
     </g>
    </g>
    <g id="xtick_4">
     <g id="line2d_4">
      <g>
       <use style="stroke:#000000;stroke-width:0.8;" x="282.761" xlink:href="#m2efad5dccc" y="148.26"/>
      </g>
     </g>
     <g id="text_4">
      <!-- 0.6 -->
      <defs>
       <path d="M 33.015625 40.375 
Q 26.375 40.375 22.484375 35.828125 
Q 18.609375 31.296875 18.609375 23.390625 
Q 18.609375 15.53125 22.484375 10.953125 
Q 26.375 6.390625 33.015625 6.390625 
Q 39.65625 6.390625 43.53125 10.953125 
Q 47.40625 15.53125 47.40625 23.390625 
Q 47.40625 31.296875 43.53125 35.828125 
Q 39.65625 40.375 33.015625 40.375 
z
M 52.59375 71.296875 
L 52.59375 62.3125 
Q 48.875 64.0625 45.09375 64.984375 
Q 41.3125 65.921875 37.59375 65.921875 
Q 27.828125 65.921875 22.671875 59.328125 
Q 17.53125 52.734375 16.796875 39.40625 
Q 19.671875 43.65625 24.015625 45.921875 
Q 28.375 48.1875 33.59375 48.1875 
Q 44.578125 48.1875 50.953125 41.515625 
Q 57.328125 34.859375 57.328125 23.390625 
Q 57.328125 12.15625 50.6875 5.359375 
Q 44.046875 -1.421875 33.015625 -1.421875 
Q 20.359375 -1.421875 13.671875 8.265625 
Q 6.984375 17.96875 6.984375 36.375 
Q 6.984375 53.65625 15.1875 63.9375 
Q 23.390625 74.21875 37.203125 74.21875 
Q 40.921875 74.21875 44.703125 73.484375 
Q 48.484375 72.75 52.59375 71.296875 
z
" id="DejaVuSans-54"/>
      </defs>
      <g transform="translate(274.809438 162.858437)scale(0.1 -0.1)">
       <use xlink:href="#DejaVuSans-48"/>
       <use x="63.623047" xlink:href="#DejaVuSans-46"/>
       <use x="95.410156" xlink:href="#DejaVuSans-54"/>
      </g>
     </g>
    </g>
    <g id="xtick_5">
     <g id="line2d_5">
      <g>
       <use style="stroke:#000000;stroke-width:0.8;" x="360.058" xlink:href="#m2efad5dccc" y="148.26"/>
      </g>
     </g>
     <g id="text_5">
      <!-- 0.8 -->
      <defs>
       <path d="M 31.78125 34.625 
Q 24.75 34.625 20.71875 30.859375 
Q 16.703125 27.09375 16.703125 20.515625 
Q 16.703125 13.921875 20.71875 10.15625 
Q 24.75 6.390625 31.78125 6.390625 
Q 38.8125 6.390625 42.859375 10.171875 
Q 46.921875 13.96875 46.921875 20.515625 
Q 46.921875 27.09375 42.890625 30.859375 
Q 38.875 34.625 31.78125 34.625 
z
M 21.921875 38.8125 
Q 15.578125 40.375 12.03125 44.71875 
Q 8.5 49.078125 8.5 55.328125 
Q 8.5 64.0625 14.71875 69.140625 
Q 20.953125 74.21875 31.78125 74.21875 
Q 42.671875 74.21875 48.875 69.140625 
Q 55.078125 64.0625 55.078125 55.328125 
Q 55.078125 49.078125 51.53125 44.71875 
Q 48 40.375 41.703125 38.8125 
Q 48.828125 37.15625 52.796875 32.3125 
Q 56.78125 27.484375 56.78125 20.515625 
Q 56.78125 9.90625 50.3125 4.234375 
Q 43.84375 -1.421875 31.78125 -1.421875 
Q 19.734375 -1.421875 13.25 4.234375 
Q 6.78125 9.90625 6.78125 20.515625 
Q 6.78125 27.484375 10.78125 32.3125 
Q 14.796875 37.15625 21.921875 38.8125 
z
M 18.3125 54.390625 
Q 18.3125 48.734375 21.84375 45.5625 
Q 25.390625 42.390625 31.78125 42.390625 
Q 38.140625 42.390625 41.71875 45.5625 
Q 45.3125 48.734375 45.3125 54.390625 
Q 45.3125 60.0625 41.71875 63.234375 
Q 38.140625 66.40625 31.78125 66.40625 
Q 25.390625 66.40625 21.84375 63.234375 
Q 18.3125 60.0625 18.3125 54.390625 
z
" id="DejaVuSans-56"/>
      </defs>
      <g transform="translate(352.106438 162.858437)scale(0.1 -0.1)">
       <use xlink:href="#DejaVuSans-48"/>
       <use x="63.623047" xlink:href="#DejaVuSans-46"/>
       <use x="95.410156" xlink:href="#DejaVuSans-56"/>
      </g>
     </g>
    </g>
    <g id="xtick_6">
     <g id="line2d_6">
      <g>
       <use style="stroke:#000000;stroke-width:0.8;" x="437.355" xlink:href="#m2efad5dccc" y="148.26"/>
      </g>
     </g>
     <g id="text_6">
      <!-- 1.0 -->
      <defs>
       <path d="M 12.40625 8.296875 
L 28.515625 8.296875 
L 28.515625 63.921875 
L 10.984375 60.40625 
L 10.984375 69.390625 
L 28.421875 72.90625 
L 38.28125 72.90625 
L 38.28125 8.296875 
L 54.390625 8.296875 
L 54.390625 0 
L 12.40625 0 
z
" id="DejaVuSans-49"/>
      </defs>
      <g transform="translate(429.403437 162.858437)scale(0.1 -0.1)">
       <use xlink:href="#DejaVuSans-49"/>
       <use x="63.623047" xlink:href="#DejaVuSans-46"/>
       <use x="95.410156" xlink:href="#DejaVuSans-48"/>
      </g>
     </g>
    </g>
    <g id="text_7">
     <!-- % Identity -->
     <defs>
      <path d="M 72.703125 32.078125 
Q 68.453125 32.078125 66.03125 28.46875 
Q 63.625 24.859375 63.625 18.40625 
Q 63.625 12.0625 66.03125 8.421875 
Q 68.453125 4.78125 72.703125 4.78125 
Q 76.859375 4.78125 79.265625 8.421875 
Q 81.6875 12.0625 81.6875 18.40625 
Q 81.6875 24.8125 79.265625 28.4375 
Q 76.859375 32.078125 72.703125 32.078125 
z
M 72.703125 38.28125 
Q 80.421875 38.28125 84.953125 32.90625 
Q 89.5 27.546875 89.5 18.40625 
Q 89.5 9.28125 84.9375 3.921875 
Q 80.375 -1.421875 72.703125 -1.421875 
Q 64.890625 -1.421875 60.34375 3.921875 
Q 55.8125 9.28125 55.8125 18.40625 
Q 55.8125 27.59375 60.375 32.9375 
Q 64.9375 38.28125 72.703125 38.28125 
z
M 22.3125 68.015625 
Q 18.109375 68.015625 15.6875 64.375 
Q 13.28125 60.75 13.28125 54.390625 
Q 13.28125 47.953125 15.671875 44.328125 
Q 18.0625 40.71875 22.3125 40.71875 
Q 26.5625 40.71875 28.96875 44.328125 
Q 31.390625 47.953125 31.390625 54.390625 
Q 31.390625 60.6875 28.953125 64.34375 
Q 26.515625 68.015625 22.3125 68.015625 
z
M 66.40625 74.21875 
L 74.21875 74.21875 
L 28.609375 -1.421875 
L 20.796875 -1.421875 
z
M 22.3125 74.21875 
Q 30.03125 74.21875 34.609375 68.875 
Q 39.203125 63.53125 39.203125 54.390625 
Q 39.203125 45.171875 34.640625 39.84375 
Q 30.078125 34.515625 22.3125 34.515625 
Q 14.546875 34.515625 10.03125 39.859375 
Q 5.515625 45.21875 5.515625 54.390625 
Q 5.515625 63.484375 10.046875 68.84375 
Q 14.59375 74.21875 22.3125 74.21875 
z
" id="DejaVuSans-37"/>
      <path id="DejaVuSans-32"/>
      <path d="M 9.8125 72.90625 
L 19.671875 72.90625 
L 19.671875 0 
L 9.8125 0 
z
" id="DejaVuSans-73"/>
      <path d="M 45.40625 46.390625 
L 45.40625 75.984375 
L 54.390625 75.984375 
L 54.390625 0 
L 45.40625 0 
L 45.40625 8.203125 
Q 42.578125 3.328125 38.25 0.953125 
Q 33.9375 -1.421875 27.875 -1.421875 
Q 17.96875 -1.421875 11.734375 6.484375 
Q 5.515625 14.40625 5.515625 27.296875 
Q 5.515625 40.1875 11.734375 48.09375 
Q 17.96875 56 27.875 56 
Q 33.9375 56 38.25 53.625 
Q 42.578125 51.265625 45.40625 46.390625 
z
M 14.796875 27.296875 
Q 14.796875 17.390625 18.875 11.75 
Q 22.953125 6.109375 30.078125 6.109375 
Q 37.203125 6.109375 41.296875 11.75 
Q 45.40625 17.390625 45.40625 27.296875 
Q 45.40625 37.203125 41.296875 42.84375 
Q 37.203125 48.484375 30.078125 48.484375 
Q 22.953125 48.484375 18.875 42.84375 
Q 14.796875 37.203125 14.796875 27.296875 
z
" id="DejaVuSans-100"/>
      <path d="M 56.203125 29.59375 
L 56.203125 25.203125 
L 14.890625 25.203125 
Q 15.484375 15.921875 20.484375 11.0625 
Q 25.484375 6.203125 34.421875 6.203125 
Q 39.59375 6.203125 44.453125 7.46875 
Q 49.3125 8.734375 54.109375 11.28125 
L 54.109375 2.78125 
Q 49.265625 0.734375 44.1875 -0.34375 
Q 39.109375 -1.421875 33.890625 -1.421875 
Q 20.796875 -1.421875 13.15625 6.1875 
Q 5.515625 13.8125 5.515625 26.8125 
Q 5.515625 40.234375 12.765625 48.109375 
Q 20.015625 56 32.328125 56 
Q 43.359375 56 49.78125 48.890625 
Q 56.203125 41.796875 56.203125 29.59375 
z
M 47.21875 32.234375 
Q 47.125 39.59375 43.09375 43.984375 
Q 39.0625 48.390625 32.421875 48.390625 
Q 24.90625 48.390625 20.390625 44.140625 
Q 15.875 39.890625 15.1875 32.171875 
z
" id="DejaVuSans-101"/>
      <path d="M 54.890625 33.015625 
L 54.890625 0 
L 45.90625 0 
L 45.90625 32.71875 
Q 45.90625 40.484375 42.875 44.328125 
Q 39.84375 48.1875 33.796875 48.1875 
Q 26.515625 48.1875 22.3125 43.546875 
Q 18.109375 38.921875 18.109375 30.90625 
L 18.109375 0 
L 9.078125 0 
L 9.078125 54.6875 
L 18.109375 54.6875 
L 18.109375 46.1875 
Q 21.34375 51.125 25.703125 53.5625 
Q 30.078125 56 35.796875 56 
Q 45.21875 56 50.046875 50.171875 
Q 54.890625 44.34375 54.890625 33.015625 
z
" id="DejaVuSans-110"/>
      <path d="M 18.3125 70.21875 
L 18.3125 54.6875 
L 36.8125 54.6875 
L 36.8125 47.703125 
L 18.3125 47.703125 
L 18.3125 18.015625 
Q 18.3125 11.328125 20.140625 9.421875 
Q 21.96875 7.515625 27.59375 7.515625 
L 36.8125 7.515625 
L 36.8125 0 
L 27.59375 0 
Q 17.1875 0 13.234375 3.875 
Q 9.28125 7.765625 9.28125 18.015625 
L 9.28125 47.703125 
L 2.6875 47.703125 
L 2.6875 54.6875 
L 9.28125 54.6875 
L 9.28125 70.21875 
z
" id="DejaVuSans-116"/>
      <path d="M 9.421875 54.6875 
L 18.40625 54.6875 
L 18.40625 0 
L 9.421875 0 
z
M 9.421875 75.984375 
L 18.40625 75.984375 
L 18.40625 64.59375 
L 9.421875 64.59375 
z
" id="DejaVuSans-105"/>
      <path d="M 32.171875 -5.078125 
Q 28.375 -14.84375 24.75 -17.8125 
Q 21.140625 -20.796875 15.09375 -20.796875 
L 7.90625 -20.796875 
L 7.90625 -13.28125 
L 13.1875 -13.28125 
Q 16.890625 -13.28125 18.9375 -11.515625 
Q 21 -9.765625 23.484375 -3.21875 
L 25.09375 0.875 
L 2.984375 54.6875 
L 12.5 54.6875 
L 29.59375 11.921875 
L 46.6875 54.6875 
L 56.203125 54.6875 
z
" id="DejaVuSans-121"/>
     </defs>
     <g transform="translate(218.609375 176.536562)scale(0.1 -0.1)">
      <use xlink:href="#DejaVuSans-37"/>
      <use x="95.019531" xlink:href="#DejaVuSans-32"/>
      <use x="126.806641" xlink:href="#DejaVuSans-73"/>
      <use x="156.298828" xlink:href="#DejaVuSans-100"/>
      <use x="219.775391" xlink:href="#DejaVuSans-101"/>
      <use x="281.298828" xlink:href="#DejaVuSans-110"/>
      <use x="344.677734" xlink:href="#DejaVuSans-116"/>
      <use x="383.886719" xlink:href="#DejaVuSans-105"/>
      <use x="411.669922" xlink:href="#DejaVuSans-116"/>
      <use x="450.878906" xlink:href="#DejaVuSans-121"/>
     </g>
    </g>
   </g>
   <g id="matplotlib.axis_2">
    <g id="ytick_1">
     <g id="line2d_7">
      <defs>
       <path d="M 0 0 
L -3.5 0 
" id="m8fc41649a4" style="stroke:#000000;stroke-width:0.8;"/>
      </defs>
      <g>
       <use style="stroke:#000000;stroke-width:0.8;" x="50.87" xlink:href="#m8fc41649a4" y="148.26"/>
      </g>
     </g>
     <g id="text_8">
      <!-- 0 -->
      <g transform="translate(37.5075 152.059219)scale(0.1 -0.1)">
       <use xlink:href="#DejaVuSans-48"/>
      </g>
     </g>
    </g>
    <g id="ytick_2">
     <g id="line2d_8">
      <g>
       <use style="stroke:#000000;stroke-width:0.8;" x="50.87" xlink:href="#m8fc41649a4" y="127.67"/>
      </g>
     </g>
     <g id="text_9">
      <!-- 100 -->
      <g transform="translate(24.7825 131.469219)scale(0.1 -0.1)">
       <use xlink:href="#DejaVuSans-49"/>
       <use x="63.623047" xlink:href="#DejaVuSans-48"/>
       <use x="127.246094" xlink:href="#DejaVuSans-48"/>
      </g>
     </g>
    </g>
    <g id="ytick_3">
     <g id="line2d_9">
      <g>
       <use style="stroke:#000000;stroke-width:0.8;" x="50.87" xlink:href="#m8fc41649a4" y="107.08"/>
      </g>
     </g>
     <g id="text_10">
      <!-- 200 -->
      <g transform="translate(24.7825 110.879219)scale(0.1 -0.1)">
       <use xlink:href="#DejaVuSans-50"/>
       <use x="63.623047" xlink:href="#DejaVuSans-48"/>
       <use x="127.246094" xlink:href="#DejaVuSans-48"/>
      </g>
     </g>
    </g>
    <g id="ytick_4">
     <g id="line2d_10">
      <g>
       <use style="stroke:#000000;stroke-width:0.8;" x="50.87" xlink:href="#m8fc41649a4" y="86.49"/>
      </g>
     </g>
     <g id="text_11">
      <!-- 300 -->
      <defs>
       <path d="M 40.578125 39.3125 
Q 47.65625 37.796875 51.625 33 
Q 55.609375 28.21875 55.609375 21.1875 
Q 55.609375 10.40625 48.1875 4.484375 
Q 40.765625 -1.421875 27.09375 -1.421875 
Q 22.515625 -1.421875 17.65625 -0.515625 
Q 12.796875 0.390625 7.625 2.203125 
L 7.625 11.71875 
Q 11.71875 9.328125 16.59375 8.109375 
Q 21.484375 6.890625 26.8125 6.890625 
Q 36.078125 6.890625 40.9375 10.546875 
Q 45.796875 14.203125 45.796875 21.1875 
Q 45.796875 27.640625 41.28125 31.265625 
Q 36.765625 34.90625 28.71875 34.90625 
L 20.21875 34.90625 
L 20.21875 43.015625 
L 29.109375 43.015625 
Q 36.375 43.015625 40.234375 45.921875 
Q 44.09375 48.828125 44.09375 54.296875 
Q 44.09375 59.90625 40.109375 62.90625 
Q 36.140625 65.921875 28.71875 65.921875 
Q 24.65625 65.921875 20.015625 65.03125 
Q 15.375 64.15625 9.8125 62.3125 
L 9.8125 71.09375 
Q 15.4375 72.65625 20.34375 73.4375 
Q 25.25 74.21875 29.59375 74.21875 
Q 40.828125 74.21875 47.359375 69.109375 
Q 53.90625 64.015625 53.90625 55.328125 
Q 53.90625 49.265625 50.4375 45.09375 
Q 46.96875 40.921875 40.578125 39.3125 
z
" id="DejaVuSans-51"/>
      </defs>
      <g transform="translate(24.7825 90.289219)scale(0.1 -0.1)">
       <use xlink:href="#DejaVuSans-51"/>
       <use x="63.623047" xlink:href="#DejaVuSans-48"/>
       <use x="127.246094" xlink:href="#DejaVuSans-48"/>
      </g>
     </g>
    </g>
    <g id="ytick_5">
     <g id="line2d_11">
      <g>
       <use style="stroke:#000000;stroke-width:0.8;" x="50.87" xlink:href="#m8fc41649a4" y="65.9"/>
      </g>
     </g>
     <g id="text_12">
      <!-- 400 -->
      <g transform="translate(24.7825 69.699219)scale(0.1 -0.1)">
       <use xlink:href="#DejaVuSans-52"/>
       <use x="63.623047" xlink:href="#DejaVuSans-48"/>
       <use x="127.246094" xlink:href="#DejaVuSans-48"/>
      </g>
     </g>
    </g>
    <g id="ytick_6">
     <g id="line2d_12">
      <g>
       <use style="stroke:#000000;stroke-width:0.8;" x="50.87" xlink:href="#m8fc41649a4" y="45.31"/>
      </g>
     </g>
     <g id="text_13">
      <!-- 500 -->
      <defs>
       <path d="M 10.796875 72.90625 
L 49.515625 72.90625 
L 49.515625 64.59375 
L 19.828125 64.59375 
L 19.828125 46.734375 
Q 21.96875 47.46875 24.109375 47.828125 
Q 26.265625 48.1875 28.421875 48.1875 
Q 40.625 48.1875 47.75 41.5 
Q 54.890625 34.8125 54.890625 23.390625 
Q 54.890625 11.625 47.5625 5.09375 
Q 40.234375 -1.421875 26.90625 -1.421875 
Q 22.3125 -1.421875 17.546875 -0.640625 
Q 12.796875 0.140625 7.71875 1.703125 
L 7.71875 11.625 
Q 12.109375 9.234375 16.796875 8.0625 
Q 21.484375 6.890625 26.703125 6.890625 
Q 35.15625 6.890625 40.078125 11.328125 
Q 45.015625 15.765625 45.015625 23.390625 
Q 45.015625 31 40.078125 35.4375 
Q 35.15625 39.890625 26.703125 39.890625 
Q 22.75 39.890625 18.8125 39.015625 
Q 14.890625 38.140625 10.796875 36.28125 
z
" id="DejaVuSans-53"/>
      </defs>
      <g transform="translate(24.7825 49.109219)scale(0.1 -0.1)">
       <use xlink:href="#DejaVuSans-53"/>
       <use x="63.623047" xlink:href="#DejaVuSans-48"/>
       <use x="127.246094" xlink:href="#DejaVuSans-48"/>
      </g>
     </g>
    </g>
    <g id="ytick_7">
     <g id="line2d_13">
      <g>
       <use style="stroke:#000000;stroke-width:0.8;" x="50.87" xlink:href="#m8fc41649a4" y="24.72"/>
      </g>
     </g>
     <g id="text_14">
      <!-- 600 -->
      <g transform="translate(24.7825 28.519219)scale(0.1 -0.1)">
       <use xlink:href="#DejaVuSans-54"/>
       <use x="63.623047" xlink:href="#DejaVuSans-48"/>
       <use x="127.246094" xlink:href="#DejaVuSans-48"/>
      </g>
     </g>
    </g>
    <g id="text_15">
     <!-- Count -->
     <defs>
      <path d="M 64.40625 67.28125 
L 64.40625 56.890625 
Q 59.421875 61.53125 53.78125 63.8125 
Q 48.140625 66.109375 41.796875 66.109375 
Q 29.296875 66.109375 22.65625 58.46875 
Q 16.015625 50.828125 16.015625 36.375 
Q 16.015625 21.96875 22.65625 14.328125 
Q 29.296875 6.6875 41.796875 6.6875 
Q 48.140625 6.6875 53.78125 8.984375 
Q 59.421875 11.28125 64.40625 15.921875 
L 64.40625 5.609375 
Q 59.234375 2.09375 53.4375 0.328125 
Q 47.65625 -1.421875 41.21875 -1.421875 
Q 24.65625 -1.421875 15.125 8.703125 
Q 5.609375 18.84375 5.609375 36.375 
Q 5.609375 53.953125 15.125 64.078125 
Q 24.65625 74.21875 41.21875 74.21875 
Q 47.75 74.21875 53.53125 72.484375 
Q 59.328125 70.75 64.40625 67.28125 
z
" id="DejaVuSans-67"/>
      <path d="M 30.609375 48.390625 
Q 23.390625 48.390625 19.1875 42.75 
Q 14.984375 37.109375 14.984375 27.296875 
Q 14.984375 17.484375 19.15625 11.84375 
Q 23.34375 6.203125 30.609375 6.203125 
Q 37.796875 6.203125 41.984375 11.859375 
Q 46.1875 17.53125 46.1875 27.296875 
Q 46.1875 37.015625 41.984375 42.703125 
Q 37.796875 48.390625 30.609375 48.390625 
z
M 30.609375 56 
Q 42.328125 56 49.015625 48.375 
Q 55.71875 40.765625 55.71875 27.296875 
Q 55.71875 13.875 49.015625 6.21875 
Q 42.328125 -1.421875 30.609375 -1.421875 
Q 18.84375 -1.421875 12.171875 6.21875 
Q 5.515625 13.875 5.515625 27.296875 
Q 5.515625 40.765625 12.171875 48.375 
Q 18.84375 56 30.609375 56 
z
" id="DejaVuSans-111"/>
      <path d="M 8.5 21.578125 
L 8.5 54.6875 
L 17.484375 54.6875 
L 17.484375 21.921875 
Q 17.484375 14.15625 20.5 10.265625 
Q 23.53125 6.390625 29.59375 6.390625 
Q 36.859375 6.390625 41.078125 11.03125 
Q 45.3125 15.671875 45.3125 23.6875 
L 45.3125 54.6875 
L 54.296875 54.6875 
L 54.296875 0 
L 45.3125 0 
L 45.3125 8.40625 
Q 42.046875 3.421875 37.71875 1 
Q 33.40625 -1.421875 27.6875 -1.421875 
Q 18.265625 -1.421875 13.375 4.4375 
Q 8.5 10.296875 8.5 21.578125 
z
M 31.109375 56 
z
" id="DejaVuSans-117"/>
     </defs>
     <g transform="translate(18.702813 101.338437)rotate(-90)scale(0.1 -0.1)">
      <use xlink:href="#DejaVuSans-67"/>
      <use x="69.824219" xlink:href="#DejaVuSans-111"/>
      <use x="131.005859" xlink:href="#DejaVuSans-117"/>
      <use x="194.384766" xlink:href="#DejaVuSans-110"/>
      <use x="257.763672" xlink:href="#DejaVuSans-116"/>
     </g>
    </g>
   </g>
   <g id="line2d_14">
    <path clip-path="url(#p391f889516)" d="M 52.802425 148.26 
L 56.667275 148.26 
L 60.532125 146.4069 
L 64.396975 145.1715 
L 68.261825 146.201 
L 72.126675 146.6128 
L 75.991525 146.201 
L 79.856375 145.7892 
L 83.721225 145.3774 
L 87.586075 146.4069 
L 91.450925 145.7892 
L 95.315775 146.6128 
L 99.180625 144.5538 
L 103.045475 138.3768 
L 106.910325 141.4653 
L 110.775175 134.0529 
L 114.640025 119.6399 
L 118.504875 41.3979 
L 122.369725 74.7537 
L 126.234575 126.6405 
L 130.099425 140.024 
L 133.964275 119.8458 
L 137.829125 138.7886 
L 141.693975 142.2889 
L 145.558825 128.6995 
L 149.423675 141.6712 
L 153.288525 145.9951 
L 157.153375 147.6423 
L 161.018225 148.0541 
L 164.883075 148.0541 
L 168.747925 145.7892 
L 172.612775 145.3774 
L 176.477625 145.9951 
L 180.342475 147.4364 
L 184.207325 143.5243 
L 188.072175 138.7886 
L 191.937025 144.3479 
L 195.801875 146.4069 
L 199.666725 147.4364 
L 203.531575 147.4364 
L 207.396425 147.8482 
L 211.261275 148.26 
L 215.126125 148.0541 
L 218.990975 148.0541 
L 222.855825 148.26 
L 226.720675 148.26 
L 230.585525 148.0541 
L 234.450375 148.26 
L 238.315225 147.8482 
L 242.180075 148.26 
L 246.044925 147.6423 
L 249.909775 147.8482 
L 253.774625 148.0541 
L 257.639475 148.0541 
L 261.504325 148.26 
L 265.369175 148.0541 
L 269.234025 148.26 
L 273.098875 147.8482 
L 276.963725 147.4364 
L 280.828575 147.2305 
L 284.693425 148.26 
L 288.558275 148.26 
L 292.423125 147.2305 
L 296.287975 147.6423 
L 300.152825 148.0541 
L 304.017675 148.26 
L 307.882525 148.26 
L 311.747375 148.26 
L 315.612225 148.26 
L 319.477075 148.26 
L 323.341925 148.0541 
L 327.206775 148.26 
L 331.071625 148.26 
L 334.936475 148.26 
L 338.801325 148.26 
L 342.666175 148.26 
L 346.531025 148.26 
L 350.395875 148.26 
L 354.260725 148.0541 
L 358.125575 148.0541 
L 361.990425 148.26 
L 365.855275 148.0541 
L 369.720125 148.26 
L 373.584975 147.8482 
L 377.449825 147.6423 
L 381.314675 147.4364 
L 385.179525 148.26 
L 389.044375 148.26 
L 392.909225 148.26 
L 396.774075 148.26 
L 400.638925 148.0541 
L 404.503775 148.26 
L 408.368625 148.26 
L 412.233475 148.26 
L 416.098325 148.26 
L 419.963175 148.0541 
L 423.828025 148.26 
L 427.692875 148.26 
L 431.557725 148.26 
L 435.422575 148.26 
" style="fill:none;stroke:#1f77b4;"/>
   </g>
   <g id="line2d_15">
    <path clip-path="url(#p391f889516)" d="M 166.8155 148.26 
L 166.8155 24.72 
" style="fill:none;stroke:#ff0000;"/>
   </g>
   <g id="patch_3">
    <path d="M 50.87 148.26 
L 50.87 24.72 
" style="fill:none;stroke:#000000;stroke-linecap:square;stroke-linejoin:miter;stroke-width:0.8;"/>
   </g>
   <g id="patch_4">
    <path d="M 437.355 148.26 
L 437.355 24.72 
" style="fill:none;stroke:#000000;stroke-linecap:square;stroke-linejoin:miter;stroke-width:0.8;"/>
   </g>
   <g id="patch_5">
    <path d="M 50.87 148.26 
L 437.355 148.26 
" style="fill:none;stroke:#000000;stroke-linecap:square;stroke-linejoin:miter;stroke-width:0.8;"/>
   </g>
   <g id="patch_6">
    <path d="M 50.87 24.72 
L 437.355 24.72 
" style="fill:none;stroke:#000000;stroke-linecap:square;stroke-linejoin:miter;stroke-width:0.8;"/>
   </g>
   <g id="text_16">
    <!-- sa_cas9/blast_refseq_5000/mafft -->
    <defs>
     <path d="M 44.28125 53.078125 
L 44.28125 44.578125 
Q 40.484375 46.53125 36.375 47.5 
Q 32.28125 48.484375 27.875 48.484375 
Q 21.1875 48.484375 17.84375 46.4375 
Q 14.5 44.390625 14.5 40.28125 
Q 14.5 37.15625 16.890625 35.375 
Q 19.28125 33.59375 26.515625 31.984375 
L 29.59375 31.296875 
Q 39.15625 29.25 43.1875 25.515625 
Q 47.21875 21.78125 47.21875 15.09375 
Q 47.21875 7.46875 41.1875 3.015625 
Q 35.15625 -1.421875 24.609375 -1.421875 
Q 20.21875 -1.421875 15.453125 -0.5625 
Q 10.6875 0.296875 5.421875 2 
L 5.421875 11.28125 
Q 10.40625 8.6875 15.234375 7.390625 
Q 20.0625 6.109375 24.8125 6.109375 
Q 31.15625 6.109375 34.5625 8.28125 
Q 37.984375 10.453125 37.984375 14.40625 
Q 37.984375 18.0625 35.515625 20.015625 
Q 33.0625 21.96875 24.703125 23.78125 
L 21.578125 24.515625 
Q 13.234375 26.265625 9.515625 29.90625 
Q 5.8125 33.546875 5.8125 39.890625 
Q 5.8125 47.609375 11.28125 51.796875 
Q 16.75 56 26.8125 56 
Q 31.78125 56 36.171875 55.265625 
Q 40.578125 54.546875 44.28125 53.078125 
z
" id="DejaVuSans-115"/>
     <path d="M 34.28125 27.484375 
Q 23.390625 27.484375 19.1875 25 
Q 14.984375 22.515625 14.984375 16.5 
Q 14.984375 11.71875 18.140625 8.90625 
Q 21.296875 6.109375 26.703125 6.109375 
Q 34.1875 6.109375 38.703125 11.40625 
Q 43.21875 16.703125 43.21875 25.484375 
L 43.21875 27.484375 
z
M 52.203125 31.203125 
L 52.203125 0 
L 43.21875 0 
L 43.21875 8.296875 
Q 40.140625 3.328125 35.546875 0.953125 
Q 30.953125 -1.421875 24.3125 -1.421875 
Q 15.921875 -1.421875 10.953125 3.296875 
Q 6 8.015625 6 15.921875 
Q 6 25.140625 12.171875 29.828125 
Q 18.359375 34.515625 30.609375 34.515625 
L 43.21875 34.515625 
L 43.21875 35.40625 
Q 43.21875 41.609375 39.140625 45 
Q 35.0625 48.390625 27.6875 48.390625 
Q 23 48.390625 18.546875 47.265625 
Q 14.109375 46.140625 10.015625 43.890625 
L 10.015625 52.203125 
Q 14.9375 54.109375 19.578125 55.046875 
Q 24.21875 56 28.609375 56 
Q 40.484375 56 46.34375 49.84375 
Q 52.203125 43.703125 52.203125 31.203125 
z
" id="DejaVuSans-97"/>
     <path d="M 50.984375 -16.609375 
L 50.984375 -23.578125 
L -0.984375 -23.578125 
L -0.984375 -16.609375 
z
" id="DejaVuSans-95"/>
     <path d="M 48.78125 52.59375 
L 48.78125 44.1875 
Q 44.96875 46.296875 41.140625 47.34375 
Q 37.3125 48.390625 33.40625 48.390625 
Q 24.65625 48.390625 19.8125 42.84375 
Q 14.984375 37.3125 14.984375 27.296875 
Q 14.984375 17.28125 19.8125 11.734375 
Q 24.65625 6.203125 33.40625 6.203125 
Q 37.3125 6.203125 41.140625 7.25 
Q 44.96875 8.296875 48.78125 10.40625 
L 48.78125 2.09375 
Q 45.015625 0.34375 40.984375 -0.53125 
Q 36.96875 -1.421875 32.421875 -1.421875 
Q 20.0625 -1.421875 12.78125 6.34375 
Q 5.515625 14.109375 5.515625 27.296875 
Q 5.515625 40.671875 12.859375 48.328125 
Q 20.21875 56 33.015625 56 
Q 37.15625 56 41.109375 55.140625 
Q 45.0625 54.296875 48.78125 52.59375 
z
" id="DejaVuSans-99"/>
     <path d="M 10.984375 1.515625 
L 10.984375 10.5 
Q 14.703125 8.734375 18.5 7.8125 
Q 22.3125 6.890625 25.984375 6.890625 
Q 35.75 6.890625 40.890625 13.453125 
Q 46.046875 20.015625 46.78125 33.40625 
Q 43.953125 29.203125 39.59375 26.953125 
Q 35.25 24.703125 29.984375 24.703125 
Q 19.046875 24.703125 12.671875 31.3125 
Q 6.296875 37.9375 6.296875 49.421875 
Q 6.296875 60.640625 12.9375 67.421875 
Q 19.578125 74.21875 30.609375 74.21875 
Q 43.265625 74.21875 49.921875 64.515625 
Q 56.59375 54.828125 56.59375 36.375 
Q 56.59375 19.140625 48.40625 8.859375 
Q 40.234375 -1.421875 26.421875 -1.421875 
Q 22.703125 -1.421875 18.890625 -0.6875 
Q 15.09375 0.046875 10.984375 1.515625 
z
M 30.609375 32.421875 
Q 37.25 32.421875 41.125 36.953125 
Q 45.015625 41.5 45.015625 49.421875 
Q 45.015625 57.28125 41.125 61.84375 
Q 37.25 66.40625 30.609375 66.40625 
Q 23.96875 66.40625 20.09375 61.84375 
Q 16.21875 57.28125 16.21875 49.421875 
Q 16.21875 41.5 20.09375 36.953125 
Q 23.96875 32.421875 30.609375 32.421875 
z
" id="DejaVuSans-57"/>
     <path d="M 25.390625 72.90625 
L 33.6875 72.90625 
L 8.296875 -9.28125 
L 0 -9.28125 
z
" id="DejaVuSans-47"/>
     <path d="M 48.6875 27.296875 
Q 48.6875 37.203125 44.609375 42.84375 
Q 40.53125 48.484375 33.40625 48.484375 
Q 26.265625 48.484375 22.1875 42.84375 
Q 18.109375 37.203125 18.109375 27.296875 
Q 18.109375 17.390625 22.1875 11.75 
Q 26.265625 6.109375 33.40625 6.109375 
Q 40.53125 6.109375 44.609375 11.75 
Q 48.6875 17.390625 48.6875 27.296875 
z
M 18.109375 46.390625 
Q 20.953125 51.265625 25.265625 53.625 
Q 29.59375 56 35.59375 56 
Q 45.5625 56 51.78125 48.09375 
Q 58.015625 40.1875 58.015625 27.296875 
Q 58.015625 14.40625 51.78125 6.484375 
Q 45.5625 -1.421875 35.59375 -1.421875 
Q 29.59375 -1.421875 25.265625 0.953125 
Q 20.953125 3.328125 18.109375 8.203125 
L 18.109375 0 
L 9.078125 0 
L 9.078125 75.984375 
L 18.109375 75.984375 
z
" id="DejaVuSans-98"/>
     <path d="M 9.421875 75.984375 
L 18.40625 75.984375 
L 18.40625 0 
L 9.421875 0 
z
" id="DejaVuSans-108"/>
     <path d="M 41.109375 46.296875 
Q 39.59375 47.171875 37.8125 47.578125 
Q 36.03125 48 33.890625 48 
Q 26.265625 48 22.1875 43.046875 
Q 18.109375 38.09375 18.109375 28.8125 
L 18.109375 0 
L 9.078125 0 
L 9.078125 54.6875 
L 18.109375 54.6875 
L 18.109375 46.1875 
Q 20.953125 51.171875 25.484375 53.578125 
Q 30.03125 56 36.53125 56 
Q 37.453125 56 38.578125 55.875 
Q 39.703125 55.765625 41.0625 55.515625 
z
" id="DejaVuSans-114"/>
     <path d="M 37.109375 75.984375 
L 37.109375 68.5 
L 28.515625 68.5 
Q 23.6875 68.5 21.796875 66.546875 
Q 19.921875 64.59375 19.921875 59.515625 
L 19.921875 54.6875 
L 34.71875 54.6875 
L 34.71875 47.703125 
L 19.921875 47.703125 
L 19.921875 0 
L 10.890625 0 
L 10.890625 47.703125 
L 2.296875 47.703125 
L 2.296875 54.6875 
L 10.890625 54.6875 
L 10.890625 58.5 
Q 10.890625 67.625 15.140625 71.796875 
Q 19.390625 75.984375 28.609375 75.984375 
z
" id="DejaVuSans-102"/>
     <path d="M 14.796875 27.296875 
Q 14.796875 17.390625 18.875 11.75 
Q 22.953125 6.109375 30.078125 6.109375 
Q 37.203125 6.109375 41.296875 11.75 
Q 45.40625 17.390625 45.40625 27.296875 
Q 45.40625 37.203125 41.296875 42.84375 
Q 37.203125 48.484375 30.078125 48.484375 
Q 22.953125 48.484375 18.875 42.84375 
Q 14.796875 37.203125 14.796875 27.296875 
z
M 45.40625 8.203125 
Q 42.578125 3.328125 38.25 0.953125 
Q 33.9375 -1.421875 27.875 -1.421875 
Q 17.96875 -1.421875 11.734375 6.484375 
Q 5.515625 14.40625 5.515625 27.296875 
Q 5.515625 40.1875 11.734375 48.09375 
Q 17.96875 56 27.875 56 
Q 33.9375 56 38.25 53.625 
Q 42.578125 51.265625 45.40625 46.390625 
L 45.40625 54.6875 
L 54.390625 54.6875 
L 54.390625 -20.796875 
L 45.40625 -20.796875 
z
" id="DejaVuSans-113"/>
     <path d="M 52 44.1875 
Q 55.375 50.25 60.0625 53.125 
Q 64.75 56 71.09375 56 
Q 79.640625 56 84.28125 50.015625 
Q 88.921875 44.046875 88.921875 33.015625 
L 88.921875 0 
L 79.890625 0 
L 79.890625 32.71875 
Q 79.890625 40.578125 77.09375 44.375 
Q 74.3125 48.1875 68.609375 48.1875 
Q 61.625 48.1875 57.5625 43.546875 
Q 53.515625 38.921875 53.515625 30.90625 
L 53.515625 0 
L 44.484375 0 
L 44.484375 32.71875 
Q 44.484375 40.625 41.703125 44.40625 
Q 38.921875 48.1875 33.109375 48.1875 
Q 26.21875 48.1875 22.15625 43.53125 
Q 18.109375 38.875 18.109375 30.90625 
L 18.109375 0 
L 9.078125 0 
L 9.078125 54.6875 
L 18.109375 54.6875 
L 18.109375 46.1875 
Q 21.1875 51.21875 25.484375 53.609375 
Q 29.78125 56 35.6875 56 
Q 41.65625 56 45.828125 52.96875 
Q 50 49.953125 52 44.1875 
z
" id="DejaVuSans-109"/>
    </defs>
    <g transform="translate(161.898438 18.72)scale(0.1 -0.1)">
     <use xlink:href="#DejaVuSans-115"/>
     <use x="52.099609" xlink:href="#DejaVuSans-97"/>
     <use x="113.378906" xlink:href="#DejaVuSans-95"/>
     <use x="163.378906" xlink:href="#DejaVuSans-99"/>
     <use x="218.359375" xlink:href="#DejaVuSans-97"/>
     <use x="279.638672" xlink:href="#DejaVuSans-115"/>
     <use x="331.738281" xlink:href="#DejaVuSans-57"/>
     <use x="395.361328" xlink:href="#DejaVuSans-47"/>
     <use x="429.052734" xlink:href="#DejaVuSans-98"/>
     <use x="492.529297" xlink:href="#DejaVuSans-108"/>
     <use x="520.3125" xlink:href="#DejaVuSans-97"/>
     <use x="581.591797" xlink:href="#DejaVuSans-115"/>
     <use x="633.691406" xlink:href="#DejaVuSans-116"/>
     <use x="672.900391" xlink:href="#DejaVuSans-95"/>
     <use x="722.900391" xlink:href="#DejaVuSans-114"/>
     <use x="763.982422" xlink:href="#DejaVuSans-101"/>
     <use x="825.505859" xlink:href="#DejaVuSans-102"/>
     <use x="860.710938" xlink:href="#DejaVuSans-115"/>
     <use x="912.810547" xlink:href="#DejaVuSans-101"/>
     <use x="974.333984" xlink:href="#DejaVuSans-113"/>
     <use x="1037.810547" xlink:href="#DejaVuSans-95"/>
     <use x="1087.810547" xlink:href="#DejaVuSans-53"/>
     <use x="1151.433594" xlink:href="#DejaVuSans-48"/>
     <use x="1215.056641" xlink:href="#DejaVuSans-48"/>
     <use x="1278.679688" xlink:href="#DejaVuSans-48"/>
     <use x="1342.302734" xlink:href="#DejaVuSans-47"/>
     <use x="1375.994141" xlink:href="#DejaVuSans-109"/>
     <use x="1473.40625" xlink:href="#DejaVuSans-97"/>
     <use x="1534.685547" xlink:href="#DejaVuSans-102"/>
     <use x="1569.890625" xlink:href="#DejaVuSans-102"/>
     <use x="1605.080078" xlink:href="#DejaVuSans-116"/>
    </g>
   </g>
  </g>
  <g id="axes_2">
   <g id="patch_7">
    <path d="M 50.87 317.72 
L 437.355 317.72 
L 437.355 194.18 
L 50.87 194.18 
z
" style="fill:#ffffff;"/>
   </g>
   <g id="matplotlib.axis_3">
    <g id="xtick_7">
     <g id="line2d_16">
      <g>
       <use style="stroke:#000000;stroke-width:0.8;" x="50.87" xlink:href="#m2efad5dccc" y="317.72"/>
      </g>
     </g>
     <g id="text_17">
      <!-- 0 -->
      <g transform="translate(47.68875 332.318437)scale(0.1 -0.1)">
       <use xlink:href="#DejaVuSans-48"/>
      </g>
     </g>
    </g>
    <g id="xtick_8">
     <g id="line2d_17">
      <g>
       <use style="stroke:#000000;stroke-width:0.8;" x="123.177764" xlink:href="#m2efad5dccc" y="317.72"/>
      </g>
     </g>
     <g id="text_18">
      <!-- 200 -->
      <g transform="translate(113.634014 332.318437)scale(0.1 -0.1)">
       <use xlink:href="#DejaVuSans-50"/>
       <use x="63.623047" xlink:href="#DejaVuSans-48"/>
       <use x="127.246094" xlink:href="#DejaVuSans-48"/>
      </g>
     </g>
    </g>
    <g id="xtick_9">
     <g id="line2d_18">
      <g>
       <use style="stroke:#000000;stroke-width:0.8;" x="195.485529" xlink:href="#m2efad5dccc" y="317.72"/>
      </g>
     </g>
     <g id="text_19">
      <!-- 400 -->
      <g transform="translate(185.941779 332.318437)scale(0.1 -0.1)">
       <use xlink:href="#DejaVuSans-52"/>
       <use x="63.623047" xlink:href="#DejaVuSans-48"/>
       <use x="127.246094" xlink:href="#DejaVuSans-48"/>
      </g>
     </g>
    </g>
    <g id="xtick_10">
     <g id="line2d_19">
      <g>
       <use style="stroke:#000000;stroke-width:0.8;" x="267.793293" xlink:href="#m2efad5dccc" y="317.72"/>
      </g>
     </g>
     <g id="text_20">
      <!-- 600 -->
      <g transform="translate(258.249543 332.318437)scale(0.1 -0.1)">
       <use xlink:href="#DejaVuSans-54"/>
       <use x="63.623047" xlink:href="#DejaVuSans-48"/>
       <use x="127.246094" xlink:href="#DejaVuSans-48"/>
      </g>
     </g>
    </g>
    <g id="xtick_11">
     <g id="line2d_20">
      <g>
       <use style="stroke:#000000;stroke-width:0.8;" x="340.101057" xlink:href="#m2efad5dccc" y="317.72"/>
      </g>
     </g>
     <g id="text_21">
      <!-- 800 -->
      <g transform="translate(330.557307 332.318437)scale(0.1 -0.1)">
       <use xlink:href="#DejaVuSans-56"/>
       <use x="63.623047" xlink:href="#DejaVuSans-48"/>
       <use x="127.246094" xlink:href="#DejaVuSans-48"/>
      </g>
     </g>
    </g>
    <g id="xtick_12">
     <g id="line2d_21">
      <g>
       <use style="stroke:#000000;stroke-width:0.8;" x="412.408821" xlink:href="#m2efad5dccc" y="317.72"/>
      </g>
     </g>
     <g id="text_22">
      <!-- 1000 -->
      <g transform="translate(399.683821 332.318437)scale(0.1 -0.1)">
       <use xlink:href="#DejaVuSans-49"/>
       <use x="63.623047" xlink:href="#DejaVuSans-48"/>
       <use x="127.246094" xlink:href="#DejaVuSans-48"/>
       <use x="190.869141" xlink:href="#DejaVuSans-48"/>
      </g>
     </g>
    </g>
    <g id="text_23">
     <!-- Residue index -->
     <defs>
      <path d="M 44.390625 34.1875 
Q 47.5625 33.109375 50.5625 29.59375 
Q 53.5625 26.078125 56.59375 19.921875 
L 66.609375 0 
L 56 0 
L 46.6875 18.703125 
Q 43.0625 26.03125 39.671875 28.421875 
Q 36.28125 30.8125 30.421875 30.8125 
L 19.671875 30.8125 
L 19.671875 0 
L 9.8125 0 
L 9.8125 72.90625 
L 32.078125 72.90625 
Q 44.578125 72.90625 50.734375 67.671875 
Q 56.890625 62.453125 56.890625 51.90625 
Q 56.890625 45.015625 53.6875 40.46875 
Q 50.484375 35.9375 44.390625 34.1875 
z
M 19.671875 64.796875 
L 19.671875 38.921875 
L 32.078125 38.921875 
Q 39.203125 38.921875 42.84375 42.21875 
Q 46.484375 45.515625 46.484375 51.90625 
Q 46.484375 58.296875 42.84375 61.546875 
Q 39.203125 64.796875 32.078125 64.796875 
z
" id="DejaVuSans-82"/>
      <path d="M 54.890625 54.6875 
L 35.109375 28.078125 
L 55.90625 0 
L 45.3125 0 
L 29.390625 21.484375 
L 13.484375 0 
L 2.875 0 
L 24.125 28.609375 
L 4.6875 54.6875 
L 15.28125 54.6875 
L 29.78125 35.203125 
L 44.28125 54.6875 
z
" id="DejaVuSans-120"/>
     </defs>
     <g transform="translate(208.795313 345.996562)scale(0.1 -0.1)">
      <use xlink:href="#DejaVuSans-82"/>
      <use x="69.419922" xlink:href="#DejaVuSans-101"/>
      <use x="130.943359" xlink:href="#DejaVuSans-115"/>
      <use x="183.042969" xlink:href="#DejaVuSans-105"/>
      <use x="210.826172" xlink:href="#DejaVuSans-100"/>
      <use x="274.302734" xlink:href="#DejaVuSans-117"/>
      <use x="337.681641" xlink:href="#DejaVuSans-101"/>
      <use x="399.205078" xlink:href="#DejaVuSans-32"/>
      <use x="430.992188" xlink:href="#DejaVuSans-105"/>
      <use x="458.775391" xlink:href="#DejaVuSans-110"/>
      <use x="522.154297" xlink:href="#DejaVuSans-100"/>
      <use x="585.630859" xlink:href="#DejaVuSans-101"/>
      <use x="647.138672" xlink:href="#DejaVuSans-120"/>
     </g>
    </g>
   </g>
   <g id="matplotlib.axis_4">
    <g id="ytick_8">
     <g id="line2d_22">
      <g>
       <use style="stroke:#000000;stroke-width:0.8;" x="50.87" xlink:href="#m8fc41649a4" y="317.72"/>
      </g>
     </g>
     <g id="text_24">
      <!-- 0 -->
      <g transform="translate(37.5075 321.519219)scale(0.1 -0.1)">
       <use xlink:href="#DejaVuSans-48"/>
      </g>
     </g>
    </g>
    <g id="ytick_9">
     <g id="line2d_23">
      <g>
       <use style="stroke:#000000;stroke-width:0.8;" x="50.87" xlink:href="#m8fc41649a4" y="286.835"/>
      </g>
     </g>
     <g id="text_25">
      <!-- 100 -->
      <g transform="translate(24.7825 290.634219)scale(0.1 -0.1)">
       <use xlink:href="#DejaVuSans-49"/>
       <use x="63.623047" xlink:href="#DejaVuSans-48"/>
       <use x="127.246094" xlink:href="#DejaVuSans-48"/>
      </g>
     </g>
    </g>
    <g id="ytick_10">
     <g id="line2d_24">
      <g>
       <use style="stroke:#000000;stroke-width:0.8;" x="50.87" xlink:href="#m8fc41649a4" y="255.95"/>
      </g>
     </g>
     <g id="text_26">
      <!-- 200 -->
      <g transform="translate(24.7825 259.749219)scale(0.1 -0.1)">
       <use xlink:href="#DejaVuSans-50"/>
       <use x="63.623047" xlink:href="#DejaVuSans-48"/>
       <use x="127.246094" xlink:href="#DejaVuSans-48"/>
      </g>
     </g>
    </g>
    <g id="ytick_11">
     <g id="line2d_25">
      <g>
       <use style="stroke:#000000;stroke-width:0.8;" x="50.87" xlink:href="#m8fc41649a4" y="225.065"/>
      </g>
     </g>
     <g id="text_27">
      <!-- 300 -->
      <g transform="translate(24.7825 228.864219)scale(0.1 -0.1)">
       <use xlink:href="#DejaVuSans-51"/>
       <use x="63.623047" xlink:href="#DejaVuSans-48"/>
       <use x="127.246094" xlink:href="#DejaVuSans-48"/>
      </g>
     </g>
    </g>
    <g id="ytick_12">
     <g id="line2d_26">
      <g>
       <use style="stroke:#000000;stroke-width:0.8;" x="50.87" xlink:href="#m8fc41649a4" y="194.18"/>
      </g>
     </g>
     <g id="text_28">
      <!-- 400 -->
      <g transform="translate(24.7825 197.979219)scale(0.1 -0.1)">
       <use xlink:href="#DejaVuSans-52"/>
       <use x="63.623047" xlink:href="#DejaVuSans-48"/>
       <use x="127.246094" xlink:href="#DejaVuSans-48"/>
      </g>
     </g>
    </g>
    <g id="text_29">
     <!-- Score -->
     <defs>
      <path d="M 53.515625 70.515625 
L 53.515625 60.890625 
Q 47.90625 63.578125 42.921875 64.890625 
Q 37.9375 66.21875 33.296875 66.21875 
Q 25.25 66.21875 20.875 63.09375 
Q 16.5 59.96875 16.5 54.203125 
Q 16.5 49.359375 19.40625 46.890625 
Q 22.3125 44.4375 30.421875 42.921875 
L 36.375 41.703125 
Q 47.40625 39.59375 52.65625 34.296875 
Q 57.90625 29 57.90625 20.125 
Q 57.90625 9.515625 50.796875 4.046875 
Q 43.703125 -1.421875 29.984375 -1.421875 
Q 24.8125 -1.421875 18.96875 -0.25 
Q 13.140625 0.921875 6.890625 3.21875 
L 6.890625 13.375 
Q 12.890625 10.015625 18.65625 8.296875 
Q 24.421875 6.59375 29.984375 6.59375 
Q 38.421875 6.59375 43.015625 9.90625 
Q 47.609375 13.234375 47.609375 19.390625 
Q 47.609375 24.75 44.3125 27.78125 
Q 41.015625 30.8125 33.5 32.328125 
L 27.484375 33.5 
Q 16.453125 35.6875 11.515625 40.375 
Q 6.59375 45.0625 6.59375 53.421875 
Q 6.59375 63.09375 13.40625 68.65625 
Q 20.21875 74.21875 32.171875 74.21875 
Q 37.3125 74.21875 42.625 73.28125 
Q 47.953125 72.359375 53.515625 70.515625 
z
" id="DejaVuSans-83"/>
     </defs>
     <g transform="translate(18.702813 270.063281)rotate(-90)scale(0.1 -0.1)">
      <use xlink:href="#DejaVuSans-83"/>
      <use x="63.476562" xlink:href="#DejaVuSans-99"/>
      <use x="118.457031" xlink:href="#DejaVuSans-111"/>
      <use x="179.638672" xlink:href="#DejaVuSans-114"/>
      <use x="220.720703" xlink:href="#DejaVuSans-101"/>
     </g>
    </g>
   </g>
   <g id="line2d_27">
    <path clip-path="url(#p73d5d63f11)" d="M 50.87 317.431663 
L 51.231539 315.293693 
L 51.593078 244.699944 
L 51.954616 242.665405 
L 52.316155 305.159715 
L 52.677694 316.904682 
L 53.039233 317.5975 
L 54.123849 317.622636 
L 54.485388 317.482223 
L 57.01616 317.38197 
L 57.739238 317.32852 
L 58.100776 317.421551 
L 58.462315 312.702126 
L 58.823854 266.072133 
L 59.185393 303.424203 
L 59.546932 303.959273 
L 59.908471 223.97059 
L 60.270009 316.848344 
L 60.631548 316.535449 
L 60.993087 317.206598 
L 61.716165 316.755891 
L 62.077703 317.033538 
L 63.16232 317.00638 
L 63.523859 317.039605 
L 63.885398 280.35435 
L 64.246936 275.021271 
L 64.608475 278.133173 
L 64.970014 313.261466 
L 65.331553 261.645668 
L 65.693092 306.374024 
L 66.05463 313.863853 
L 66.416169 288.525152 
L 66.777708 276.27025 
L 67.139247 276.220845 
L 67.500786 317.147371 
L 70.393096 317.048851 
L 71.477713 316.876369 
L 71.839252 317.006958 
L 74.370023 316.975466 
L 74.731562 316.581964 
L 75.45464 317.091321 
L 76.177717 317.15286 
L 76.539256 314.507556 
L 76.900795 316.794606 
L 77.262334 316.303739 
L 77.623873 314.657502 
L 77.985412 314.35183 
L 78.34695 311.911944 
L 78.708489 243.918718 
L 79.070028 239.935737 
L 79.431567 218.913713 
L 79.793106 216.730962 
L 80.154645 228.02291 
L 80.516183 228.042268 
L 80.877722 227.768954 
L 81.239261 285.321953 
L 81.6008 292.381877 
L 81.962339 307.735969 
L 82.323877 316.191351 
L 82.685416 317.005225 
L 83.408494 317.010136 
L 83.770033 317.010136 
L 84.131572 280.305813 
L 85.216188 280.431202 
L 85.577727 280.331237 
L 85.939266 316.796628 
L 86.300804 316.688863 
L 86.662343 316.932996 
L 87.023882 316.690307 
L 87.385421 281.305169 
L 87.74696 316.575608 
L 88.108499 316.901504 
L 88.831576 316.802406 
L 91.000809 316.71082 
L 91.723887 316.71082 
L 92.808503 316.71082 
L 93.170042 316.715443 
L 93.531581 306.816642 
L 93.89312 223.157584 
L 94.254659 258.711448 
L 94.616197 309.012106 
L 94.977736 281.883866 
L 95.339275 277.030963 
L 95.700814 303.212717 
L 96.062353 268.569802 
L 96.423891 275.243157 
L 96.78543 285.707654 
L 97.146969 283.692762 
L 97.508508 312.451348 
L 97.870047 314.621099 
L 98.231586 305.492256 
L 98.593124 309.879717 
L 98.954663 298.579967 
L 99.316202 310.055955 
L 99.677741 310.040065 
L 100.03928 298.009361 
L 100.400819 310.73086 
L 101.123896 311.428879 
L 101.485435 307.948899 
L 101.846974 310.855383 
L 102.208513 310.896409 
L 102.570051 315.947796 
L 102.93159 315.428327 
L 103.654668 291.998487 
L 104.016207 311.85445 
L 104.377746 312.396455 
L 104.739284 279.271209 
L 105.100823 279.280743 
L 105.462362 316.160726 
L 105.823901 279.602305 
L 106.18544 316.264158 
L 106.546978 314.149879 
L 106.908517 313.612786 
L 107.270056 292.004554 
L 107.631595 310.29171 
L 107.993134 296.881726 
L 108.354673 274.928529 
L 108.716211 264.134958 
L 109.07775 312.196814 
L 109.439289 315.954441 
L 109.800828 316.032448 
L 110.162367 316.796917 
L 110.523906 313.533912 
L 111.246983 290.221371 
L 111.608522 248.775377 
L 111.970061 292.342006 
L 112.3316 314.180504 
L 112.693138 314.155079 
L 113.054677 316.783338 
L 113.416216 316.877524 
L 114.862371 316.821764 
L 116.670065 316.981245 
L 117.393143 316.907282 
L 118.116221 316.883591 
L 118.839298 309.881162 
L 119.200837 308.51315 
L 119.562376 309.746816 
L 119.923915 307.067709 
L 120.285454 256.67431 
L 120.646993 316.347077 
L 121.37007 293.367076 
L 121.731609 307.825243 
L 122.093148 310.34487 
L 122.454687 310.639563 
L 122.816225 315.954441 
L 123.177764 315.954441 
L 123.539303 290.461748 
L 123.900842 308.301953 
L 124.262381 311.906455 
L 124.62392 317.057518 
L 124.985458 317.057518 
L 125.346997 316.795183 
L 125.708536 316.94513 
L 126.070075 316.94513 
L 126.431614 265.53764 
L 126.793152 263.443585 
L 127.154691 262.759146 
L 127.51623 263.128668 
L 127.877769 263.090531 
L 128.239308 293.317383 
L 128.600847 223.681964 
L 128.962385 287.240925 
L 129.323924 290.230039 
L 129.685463 261.623999 
L 130.047002 273.265246 
L 130.77008 273.197062 
L 131.131618 258.907622 
L 131.493157 221.743924 
L 131.854696 220.585664 
L 132.216235 219.901224 
L 132.577774 220.034414 
L 132.939312 221.157137 
L 133.300851 221.157137 
L 133.66239 208.233397 
L 134.023929 284.28706 
L 134.385468 260.499831 
L 134.747007 286.044818 
L 135.108545 286.056374 
L 135.470084 317.07312 
L 135.831623 314.861476 
L 136.193162 314.976175 
L 136.554701 314.615032 
L 136.916239 314.489932 
L 137.277778 278.116127 
L 137.639317 292.524023 
L 138.000856 292.645945 
L 138.362395 317.000024 
L 138.723934 316.158993 
L 139.085472 278.50125 
L 139.447011 316.952931 
L 140.531628 317.00898 
L 143.785477 317.099122 
L 144.508555 317.155749 
L 144.870094 314.706618 
L 145.231632 317.223355 
L 146.316249 317.125702 
L 147.039326 316.281782 
L 147.400865 311.117139 
L 147.762404 267.274885 
L 148.123943 265.458188 
L 148.485482 243.495169 
L 148.847021 257.005695 
L 149.208559 277.836457 
L 149.570098 283.438806 
L 149.931637 316.792872 
L 150.293176 316.203775 
L 150.654715 274.610145 
L 151.016254 316.344765 
L 151.377792 316.764847 
L 151.739331 316.683662 
L 152.823948 317.102011 
L 153.185486 316.767448 
L 153.547025 313.861542 
L 153.908564 291.375875 
L 154.270103 291.633587 
L 154.631642 289.733683 
L 154.993181 311.074091 
L 155.354719 277.338657 
L 155.716258 216.831504 
L 156.077797 316.287271 
L 156.439336 309.580979 
L 156.800875 316.584565 
L 157.162413 315.889146 
L 157.523952 276.699577 
L 157.885491 314.243487 
L 158.24703 314.510156 
L 158.608569 316.67904 
L 158.970108 315.452307 
L 159.331646 316.971422 
L 159.693185 314.626011 
L 160.054724 311.458348 
L 160.416263 310.533531 
L 160.777802 307.175474 
L 161.139341 307.596134 
L 161.500879 278.474959 
L 161.862418 314.65548 
L 162.223957 274.863523 
L 162.585496 275.337922 
L 162.947035 246.825779 
L 163.308573 248.141498 
L 163.670112 240.919204 
L 164.031651 270.452082 
L 164.39319 263.240767 
L 164.754729 262.402047 
L 165.477806 229.706417 
L 165.839345 292.094406 
L 166.200884 290.288688 
L 166.562423 236.6814 
L 166.923962 242.538572 
L 167.2855 313.265799 
L 167.647039 277.883839 
L 168.008578 278.02483 
L 168.370117 315.285892 
L 168.731656 315.261912 
L 169.093195 288.313377 
L 169.454733 288.715547 
L 169.816272 288.841225 
L 170.177811 287.4527 
L 170.53935 287.146739 
L 170.900889 295.099121 
L 171.262428 311.152098 
L 171.623966 316.186729 
L 171.985505 315.911971 
L 172.347044 277.269606 
L 172.708583 274.413105 
L 173.070122 304.666537 
L 173.43166 304.489432 
L 173.793199 286.691409 
L 174.154738 241.164781 
L 174.516277 237.71456 
L 174.877816 302.440737 
L 175.239355 302.710294 
L 175.600893 299.216158 
L 175.962432 298.89604 
L 176.323971 298.120015 
L 176.68551 300.757808 
L 177.047049 308.530196 
L 177.408587 311.333826 
L 177.770126 311.333826 
L 178.131665 311.954126 
L 178.493204 312.98873 
L 178.854743 316.997135 
L 179.216282 316.327141 
L 179.57782 279.719893 
L 179.939359 284.30035 
L 180.300898 316.159571 
L 180.662437 316.701286 
L 181.023976 309.53273 
L 181.385514 316.79605 
L 181.747053 316.265025 
L 182.108592 311.094315 
L 182.470131 310.761196 
L 182.83167 316.16506 
L 183.193209 302.964828 
L 183.554747 303.557393 
L 183.916286 270.816982 
L 184.277825 306.100133 
L 184.639364 282.152846 
L 185.000903 219.062505 
L 185.362442 213.032562 
L 185.72398 278.984316 
L 186.085519 313.414879 
L 186.447058 314.924749 
L 186.808597 315.693262 
L 187.170136 315.675927 
L 187.531674 315.202974 
L 187.893213 316.414972 
L 188.254752 316.762536 
L 188.97783 316.683085 
L 189.339369 305.242344 
L 189.700907 303.180937 
L 190.062446 271.581161 
L 190.423985 221.642225 
L 190.785524 220.477032 
L 191.147063 315.618433 
L 191.508601 316.063651 
L 191.87014 316.959287 
L 194.039373 316.919128 
L 194.762451 317.018226 
L 195.12399 314.701417 
L 195.485529 314.701417 
L 195.847067 313.918747 
L 196.208606 316.767737 
L 196.931684 316.736823 
L 197.293223 316.944841 
L 197.654761 316.870879 
L 198.0163 286.123403 
L 198.377839 243.973323 
L 198.739378 244.465634 
L 199.100917 258.689491 
L 199.462456 258.516142 
L 199.823994 258.480316 
L 200.185533 315.875567 
L 200.547072 237.915067 
L 200.908611 236.829036 
L 201.631688 287.378449 
L 201.993227 287.708967 
L 202.354766 295.488867 
L 202.716305 261.027679 
L 203.077844 296.766449 
L 203.439383 247.44608 
L 203.800921 277.08759 
L 204.16246 293.229842 
L 204.523999 304.359132 
L 204.885538 299.76683 
L 205.247077 277.777808 
L 205.608616 313.890722 
L 205.970154 273.869078 
L 206.331693 307.164206 
L 206.693232 306.482945 
L 207.054771 254.223445 
L 207.41631 250.379143 
L 207.777848 274.537049 
L 208.139387 281.990475 
L 208.500926 255.432842 
L 208.862465 255.44411 
L 209.224004 274.33452 
L 209.585543 257.456113 
L 209.947081 278.114971 
L 210.30862 283.304171 
L 210.670159 308.650962 
L 211.031698 314.112609 
L 211.393237 316.226021 
L 211.754775 316.027248 
L 212.116314 317.110101 
L 212.839392 317.176262 
L 218.985552 317.101433 
L 219.347091 283.983121 
L 219.70863 275.569631 
L 220.070168 314.590763 
L 220.431707 307.673274 
L 220.793246 316.882147 
L 221.154785 317.098255 
L 221.516324 316.117678 
L 221.877862 317.119924 
L 222.60094 317.159216 
L 223.324018 317.104322 
L 224.047095 317.119057 
L 224.408634 292.377254 
L 224.770173 316.525337 
L 225.131712 315.081918 
L 225.493251 316.325408 
L 225.85479 312.750086 
L 226.216328 316.988468 
L 226.577867 316.868568 
L 226.939406 315.322007 
L 227.300945 315.189395 
L 227.662484 314.911459 
L 228.024022 315.039737 
L 228.385561 316.708509 
L 229.470178 316.768603 
L 229.831717 316.815985 
L 230.193255 315.51009 
L 230.554794 279.068679 
L 230.916333 314.400079 
L 231.639411 313.846229 
L 232.362488 285.655072 
L 233.085566 312.085004 
L 233.447105 311.893454 
L 233.808644 297.567321 
L 234.170182 314.881122 
L 234.89326 286.047707 
L 235.254799 254.408061 
L 235.616338 262.515879 
L 235.977877 256.898219 
L 236.339415 241.841131 
L 236.700954 241.587464 
L 237.062493 213.057409 
L 237.424032 299.238404 
L 237.785571 297.322321 
L 238.147109 309.409653 
L 238.508648 314.224708 
L 238.870187 275.663529 
L 239.231726 276.518428 
L 239.593265 315.796405 
L 239.954804 317.106923 
L 240.677881 317.073986 
L 241.762498 317.050295 
L 242.485575 316.849211 
L 242.847114 307.825243 
L 243.208653 316.828987 
L 243.570192 317.041339 
L 244.293269 317.066475 
L 244.654808 316.201175 
L 245.016347 316.774382 
L 246.100964 316.97171 
L 246.462502 315.741222 
L 246.824041 308.163563 
L 247.18558 317.042784 
L 247.547119 314.954507 
L 247.908658 314.903658 
L 248.270196 285.179518 
L 248.631735 288.104492 
L 248.993274 297.431531 
L 249.354813 244.200699 
L 249.716352 252.757491 
L 250.439429 314.740999 
L 250.800968 316.843432 
L 251.162507 317.133503 
L 252.608662 317.119635 
L 253.33174 316.873479 
L 253.693279 317.130903 
L 254.054818 316.958998 
L 254.416356 317.119635 
L 255.139434 316.989045 
L 255.500973 316.989045 
L 255.862512 316.754446 
L 256.224051 316.061051 
L 256.585589 316.978933 
L 259.839439 316.776982 
L 260.200978 317.00898 
L 260.562516 314.297803 
L 261.285594 316.904393 
L 261.647133 315.810273 
L 262.008672 316.753002 
L 262.37021 315.911104 
L 262.731749 315.886546 
L 263.093288 315.204996 
L 263.454827 286.205454 
L 263.816366 279.392553 
L 264.177905 279.341126 
L 264.539443 315.035403 
L 264.900982 308.908096 
L 265.262521 247.409099 
L 265.62406 242.141891 
L 265.985599 268.442968 
L 266.347138 305.654626 
L 266.708676 302.899534 
L 267.070215 233.918796 
L 267.431754 234.143861 
L 267.793293 268.786488 
L 268.51637 268.454236 
L 268.877909 316.464954 
L 269.239448 315.060828 
L 269.600987 277.863038 
L 269.962526 278.006628 
L 270.324065 276.715757 
L 270.685603 276.068298 
L 271.047142 303.049769 
L 271.408681 292.163168 
L 271.77022 215.762808 
L 272.131759 272.323384 
L 272.493297 234.59399 
L 272.854836 234.544875 
L 273.216375 231.786027 
L 273.577914 260.166424 
L 273.939453 307.027838 
L 274.300992 298.530563 
L 274.66253 315.452885 
L 275.024069 315.870078 
L 275.385608 316.741445 
L 275.747147 316.588032 
L 276.108686 316.800095 
L 276.831763 316.737689 
L 277.193302 311.190524 
L 277.554841 267.795221 
L 277.91638 264.108956 
L 278.277919 290.611695 
L 278.639457 285.114223 
L 279.000996 315.471953 
L 279.362535 289.847515 
L 279.724074 279.777676 
L 280.085613 275.35959 
L 280.447152 307.122602 
L 280.80869 286.838178 
L 281.170229 221.864401 
L 281.531768 291.420657 
L 281.893307 313.465728 
L 282.254846 314.552626 
L 282.977923 314.637567 
L 283.339462 316.860189 
L 284.424079 316.926351 
L 287.316389 316.738556 
L 288.039467 316.844299 
L 288.762544 316.760514 
L 289.485622 316.658816 
L 290.2087 316.605944 
L 290.570239 316.050072 
L 290.931777 269.546623 
L 291.293316 246.89483 
L 291.654855 290.676701 
L 292.016394 283.897602 
L 292.377933 225.104004 
L 292.739471 283.307638 
L 293.462549 316.253757 
L 293.824088 316.852678 
L 294.547166 316.742601 
L 295.270243 316.744623 
L 298.524093 316.507424 
L 298.885631 313.461973 
L 299.24717 312.84774 
L 299.608709 315.925261 
L 299.970248 315.509512 
L 300.331787 277.579323 
L 300.693326 304.041614 
L 301.054864 270.412212 
L 301.416403 316.644081 
L 301.777942 306.207031 
L 302.139481 316.54325 
L 302.50102 315.888569 
L 302.862558 279.054522 
L 303.224097 316.497023 
L 303.585636 316.63108 
L 304.308714 316.6123 
L 307.201024 316.516092 
L 307.924102 316.357766 
L 308.285641 314.998133 
L 308.64718 315.167437 
L 309.008718 314.296648 
L 309.370257 313.984331 
L 309.731796 311.273731 
L 310.093335 276.692354 
L 310.454874 277.603014 
L 310.816413 312.412923 
L 311.177951 305.780882 
L 311.53949 272.426815 
L 311.901029 301.923868 
L 312.262568 309.872494 
L 312.624107 294.740289 
L 312.985645 296.370635 
L 313.708723 250.517534 
L 314.070262 276.053275 
L 314.431801 275.684619 
L 314.79334 227.50922 
L 315.154878 200.054217 
L 315.516417 199.836953 
L 315.877956 208.830007 
L 316.239495 282.812149 
L 316.601034 279.10855 
L 316.962572 263.39707 
L 317.324111 270.906545 
L 317.68565 271.37112 
L 318.047189 285.658828 
L 318.408728 292.189459 
L 318.770267 305.352132 
L 319.131805 305.654915 
L 319.493344 308.143339 
L 320.577961 238.377042 
L 320.9395 238.94187 
L 321.301038 237.004985 
L 321.662577 250.139055 
L 322.385655 252.162326 
L 322.747194 257.959403 
L 323.108732 248.308779 
L 323.470271 275.590433 
L 323.83181 313.857786 
L 324.193349 314.367143 
L 324.554888 309.723414 
L 324.916427 316.309807 
L 325.277965 278.806633 
L 325.639504 278.866728 
L 326.001043 316.223132 
L 326.362582 316.021181 
L 326.724121 315.251222 
L 327.085659 301.030543 
L 327.447198 303.132977 
L 327.808737 276.566099 
L 328.170276 239.511033 
L 328.531815 313.723441 
L 328.893354 314.093541 
L 329.254892 313.77429 
L 329.616431 316.036204 
L 329.97797 316.00529 
L 330.339509 314.933127 
L 330.701048 315.251222 
L 331.062587 314.933127 
L 331.424125 315.108498 
L 331.785664 312.986419 
L 332.147203 279.740406 
L 332.508742 281.134132 
L 332.870281 316.41266 
L 333.231819 316.185573 
L 333.593358 316.524759 
L 333.954897 316.149459 
L 334.316436 316.417572 
L 334.677975 316.410349 
L 335.039514 316.009913 
L 335.401052 313.219862 
L 335.762591 313.126831 
L 336.12413 311.963371 
L 336.485669 280.021521 
L 336.847208 281.742875 
L 337.208746 279.433001 
L 337.570285 249.657723 
L 337.931824 234.543141 
L 338.293363 226.649698 
L 338.654902 254.870903 
L 339.016441 255.090767 
L 339.377979 254.62937 
L 339.739518 234.717068 
L 340.462596 300.418911 
L 340.824135 266.593335 
L 341.185674 293.423993 
L 341.547212 244.877915 
L 341.908751 298.609726 
L 342.27029 263.191073 
L 342.631829 288.082246 
L 342.993368 232.066852 
L 343.354906 211.700376 
L 343.716445 227.917168 
L 344.077984 262.674494 
L 344.439523 220.845976 
L 344.801062 233.119369 
L 345.162601 221.439118 
L 345.524139 222.14696 
L 345.885678 269.806935 
L 346.247217 271.234175 
L 346.608756 271.500265 
L 346.970295 271.437282 
L 347.331833 222.710922 
L 347.693372 221.880869 
L 348.054911 223.259571 
L 348.41645 232.185307 
L 348.777989 301.623397 
L 349.139528 290.53051 
L 349.501066 258.890864 
L 349.862605 288.253861 
L 350.224144 289.239638 
L 350.585683 247.128851 
L 351.308761 274.207109 
L 351.670299 312.157233 
L 352.031838 310.373473 
L 352.393377 310.645341 
L 352.754916 311.818047 
L 353.116455 311.622163 
L 353.477993 312.992775 
L 353.839532 277.815078 
L 354.201071 303.389244 
L 354.56261 300.129707 
L 354.924149 298.33179 
L 355.285688 261.98601 
L 355.647226 304.177404 
L 356.008765 300.694246 
L 356.370304 294.989333 
L 356.731843 309.906586 
L 357.093382 308.165874 
L 357.45492 251.752356 
L 357.816459 228.796913 
L 358.177998 283.208829 
L 358.539537 300.022808 
L 358.901076 253.749913 
L 359.262615 251.857521 
L 359.624153 223.423964 
L 359.985692 223.339023 
L 360.347231 287.226191 
L 360.70877 281.306325 
L 361.070309 260.130598 
L 361.431848 261.634689 
L 361.793386 222.022437 
L 362.154925 230.162036 
L 362.516464 208.39519 
L 362.878003 217.020454 
L 363.239542 230.008622 
L 363.60108 230.232531 
L 363.962619 263.789705 
L 364.324158 249.383543 
L 365.047236 306.049573 
L 365.408775 257.11895 
L 365.770313 230.978799 
L 366.131852 246.58858 
L 366.493391 297.179597 
L 366.85493 268.628162 
L 367.216469 296.463377 
L 367.578007 303.268189 
L 367.939546 303.062771 
L 368.301085 303.805282 
L 369.024163 303.610264 
L 369.385702 314.504089 
L 369.74724 313.311737 
L 370.108779 260.398133 
L 370.470318 247.59516 
L 370.831857 244.869826 
L 371.193396 279.580059 
L 371.554935 298.618104 
L 371.916473 234.610747 
L 372.278012 234.532163 
L 372.639551 273.285759 
L 373.00109 289.29251 
L 373.362629 314.481842 
L 373.724167 296.298985 
L 374.085706 265.698855 
L 374.447245 305.79475 
L 374.808784 283.667626 
L 375.170323 311.014286 
L 375.531862 255.592034 
L 375.8934 301.830549 
L 376.616478 245.551665 
L 376.978017 241.603932 
L 377.339556 312.446726 
L 377.701094 312.446726 
L 378.062633 285.328598 
L 378.424172 279.211403 
L 378.785711 282.134355 
L 379.14725 258.857928 
L 379.508789 289.389874 
L 380.231866 290.113606 
L 380.593405 298.008783 
L 380.954944 298.848658 
L 381.316483 315.775892 
L 381.678022 316.252024 
L 382.03956 316.259246 
L 382.401099 303.477075 
L 382.762638 257.974427 
L 383.124177 305.669938 
L 383.485716 308.027773 
L 383.847254 277.616882 
L 384.208793 277.535408 
L 384.570332 283.584419 
L 384.931871 315.204996 
L 385.29341 315.383545 
L 385.654949 315.080763 
L 386.016487 310.175277 
L 386.378026 309.916987 
L 387.101104 308.394406 
L 387.462643 307.65305 
L 387.824181 224.950301 
L 388.18572 256.030896 
L 388.547259 308.86707 
L 388.908798 272.073183 
L 389.270337 272.963619 
L 389.631876 248.819292 
L 389.993414 248.66819 
L 390.354953 249.376609 
L 390.716492 270.455549 
L 391.078031 265.981124 
L 391.43957 253.278115 
L 391.801109 295.532493 
L 392.524186 238.141865 
L 392.885725 260.932915 
L 393.608803 234.602947 
L 393.970341 234.009516 
L 394.33188 292.835473 
L 394.693419 249.434392 
L 395.054958 249.276933 
L 395.416497 249.574227 
L 395.778036 252.406459 
L 396.139574 289.562356 
L 396.501113 288.51504 
L 396.862652 305.463075 
L 397.224191 269.914989 
L 397.58573 258.041166 
L 397.947268 311.829315 
L 398.308807 314.681771 
L 398.670346 275.650816 
L 399.031885 278.951669 
L 399.393424 315.544182 
L 399.754963 316.205219 
L 400.116501 297.593612 
L 400.47804 300.918444 
L 400.839579 300.902265 
L 401.201118 315.284737 
L 401.562657 316.175172 
L 401.924196 314.806582 
L 402.285734 287.98257 
L 402.647273 308.730992 
L 403.008812 255.788497 
L 403.370351 254.151505 
L 403.73189 258.137952 
L 404.093428 294.296227 
L 404.454967 279.393709 
L 404.816506 276.606547 
L 405.178045 315.141146 
L 405.539584 261.54397 
L 405.901123 313.219284 
L 406.262661 312.814803 
L 406.6242 310.445701 
L 406.985739 270.169812 
L 407.347278 213.639572 
L 407.708817 212.630104 
L 408.070355 314.912325 
L 408.793433 315.169459 
L 409.154972 309.737571 
L 409.516511 310.177299 
L 409.87805 293.665237 
L 410.239588 293.964841 
L 410.601127 262.517613 
L 410.962666 293.855631 
L 411.324205 298.013694 
L 411.685744 305.666471 
L 412.047283 302.28559 
L 412.408821 263.080997 
L 413.131899 209.453774 
L 413.493438 224.004682 
L 413.854977 253.337343 
L 414.216515 259.223117 
L 414.578054 244.609224 
L 414.939593 218.781101 
L 415.301132 207.951705 
L 415.662671 218.133354 
L 416.385748 270.306469 
L 416.747287 234.157729 
L 417.108826 238.253097 
L 417.470365 250.932415 
L 417.831904 239.676581 
L 418.193442 239.367153 
L 418.554981 239.702583 
L 418.91652 251.505911 
L 419.278059 270.682058 
L 419.639598 275.166595 
L 420.001137 308.27624 
L 420.362675 221.111489 
L 420.724214 250.101785 
L 421.085753 261.566505 
L 421.447292 313.219284 
L 421.808831 279.612128 
L 422.531908 316.01598 
L 422.893447 316.427684 
L 423.254986 300.046788 
L 423.616525 296.305341 
L 423.978064 316.700419 
L 424.339602 316.731911 
L 424.701141 317.385725 
L 425.06268 317.206887 
L 425.424219 316.401681 
L 426.147297 252.332497 
L 426.508835 254.99138 
L 426.870374 315.039159 
L 427.231913 311.477127 
L 427.593452 295.782983 
L 427.954991 313.001153 
L 428.316529 298.205245 
L 428.678068 299.333457 
L 429.039607 316.948597 
L 429.401146 317.014759 
L 429.762685 315.376611 
L 430.124224 315.225798 
L 430.485762 315.396258 
L 430.847301 315.319406 
L 431.570379 314.627744 
L 432.293457 314.577184 
L 432.654995 314.033446 
L 433.739612 314.033446 
L 434.101151 314.169236 
L 434.462689 315.083941 
L 435.185767 315.45953 
L 435.547306 316.944552 
L 435.908845 317.607612 
L 436.993461 317.662217 
L 436.993461 317.662217 
" style="fill:none;stroke:#1f77b4;"/>
   </g>
   <g id="line2d_28">
    <path clip-path="url(#p73d5d63f11)" d="M 50.87 293.453166 
L 437.355 293.453166 
" style="fill:none;stroke:#ff0000;"/>
   </g>
   <g id="patch_8">
    <path d="M 50.87 317.72 
L 50.87 194.18 
" style="fill:none;stroke:#000000;stroke-linecap:square;stroke-linejoin:miter;stroke-width:0.8;"/>
   </g>
   <g id="patch_9">
    <path d="M 437.355 317.72 
L 437.355 194.18 
" style="fill:none;stroke:#000000;stroke-linecap:square;stroke-linejoin:miter;stroke-width:0.8;"/>
   </g>
   <g id="patch_10">
    <path d="M 50.87 317.72 
L 437.355 317.72 
" style="fill:none;stroke:#000000;stroke-linecap:square;stroke-linejoin:miter;stroke-width:0.8;"/>
   </g>
   <g id="patch_11">
    <path d="M 50.87 194.18 
L 437.355 194.18 
" style="fill:none;stroke:#000000;stroke-linecap:square;stroke-linejoin:miter;stroke-width:0.8;"/>
   </g>
  </g>
 </g>
 <defs>
  <clipPath id="p391f889516">
   <rect height="123.54" width="386.485" x="50.87" y="24.72"/>
  </clipPath>
  <clipPath id="p73d5d63f11">
   <rect height="123.54" width="386.485" x="50.87" y="194.18"/>
  </clipPath>
 </defs>
</svg>
