<?xml version="1.0" encoding="utf-8" standalone="no"?>
<!DOCTYPE svg PUBLIC "-//W3C//DTD SVG 1.1//EN"
  "http://www.w3.org/Graphics/SVG/1.1/DTD/svg11.dtd">
<!-- Created with matplotlib (https://matplotlib.org/) -->
<svg height="345.6pt" version="1.1" viewBox="0 0 460.8 345.6" width="460.8pt" xmlns="http://www.w3.org/2000/svg" xmlns:xlink="http://www.w3.org/1999/xlink">
 <defs>
  <style type="text/css">
*{stroke-linecap:butt;stroke-linejoin:round;}
  </style>
 </defs>
 <g id="figure_1">
  <g id="patch_1">
   <path d="M 0 345.6 
L 460.8 345.6 
L 460.8 0 
L 0 0 
z
" style="fill:none;"/>
  </g>
  <g id="axes_1">
   <g id="patch_2">
    <path d="M 57.6 307.584 
L 414.72 307.584 
L 414.72 41.472 
L 57.6 41.472 
z
" style="fill:#ffffff;"/>
   </g>
   <g id="matplotlib.axis_1">
    <g id="xtick_1">
     <g id="line2d_1">
      <defs>
       <path d="M 0 0 
L 0 3.5 
" id="ma7ea6145be" style="stroke:#000000;stroke-width:0.8;"/>
      </defs>
      <g>
       <use style="stroke:#000000;stroke-width:0.8;" x="57.6" xlink:href="#ma7ea6145be" y="307.584"/>
      </g>
     </g>
     <g id="text_1">
      <!-- 0 -->
      <defs>
       <path d="M 31.78125 66.40625 
Q 24.171875 66.40625 20.328125 58.90625 
Q 16.5 51.421875 16.5 36.375 
Q 16.5 21.390625 20.328125 13.890625 
Q 24.171875 6.390625 31.78125 6.390625 
Q 39.453125 6.390625 43.28125 13.890625 
Q 47.125 21.390625 47.125 36.375 
Q 47.125 51.421875 43.28125 58.90625 
Q 39.453125 66.40625 31.78125 66.40625 
z
M 31.78125 74.21875 
Q 44.046875 74.21875 50.515625 64.515625 
Q 56.984375 54.828125 56.984375 36.375 
Q 56.984375 17.96875 50.515625 8.265625 
Q 44.046875 -1.421875 31.78125 -1.421875 
Q 19.53125 -1.421875 13.0625 8.265625 
Q 6.59375 17.96875 6.59375 36.375 
Q 6.59375 54.828125 13.0625 64.515625 
Q 19.53125 74.21875 31.78125 74.21875 
z
" id="DejaVuSans-48"/>
      </defs>
      <g transform="translate(54.41875 322.182437)scale(0.1 -0.1)">
       <use xlink:href="#DejaVuSans-48"/>
      </g>
     </g>
    </g>
    <g id="xtick_2">
     <g id="line2d_2">
      <g>
       <use style="stroke:#000000;stroke-width:0.8;" x="107.477095" xlink:href="#ma7ea6145be" y="307.584"/>
      </g>
     </g>
     <g id="text_2">
      <!-- 200 -->
      <defs>
       <path d="M 19.1875 8.296875 
L 53.609375 8.296875 
L 53.609375 0 
L 7.328125 0 
L 7.328125 8.296875 
Q 12.9375 14.109375 22.625 23.890625 
Q 32.328125 33.6875 34.8125 36.53125 
Q 39.546875 41.84375 41.421875 45.53125 
Q 43.3125 49.21875 43.3125 52.78125 
Q 43.3125 58.59375 39.234375 62.25 
Q 35.15625 65.921875 28.609375 65.921875 
Q 23.96875 65.921875 18.8125 64.3125 
Q 13.671875 62.703125 7.8125 59.421875 
L 7.8125 69.390625 
Q 13.765625 71.78125 18.9375 73 
Q 24.125 74.21875 28.421875 74.21875 
Q 39.75 74.21875 46.484375 68.546875 
Q 53.21875 62.890625 53.21875 53.421875 
Q 53.21875 48.921875 51.53125 44.890625 
Q 49.859375 40.875 45.40625 35.40625 
Q 44.1875 33.984375 37.640625 27.21875 
Q 31.109375 20.453125 19.1875 8.296875 
z
" id="DejaVuSans-50"/>
      </defs>
      <g transform="translate(97.933345 322.182437)scale(0.1 -0.1)">
       <use xlink:href="#DejaVuSans-50"/>
       <use x="63.623047" xlink:href="#DejaVuSans-48"/>
       <use x="127.246094" xlink:href="#DejaVuSans-48"/>
      </g>
     </g>
    </g>
    <g id="xtick_3">
     <g id="line2d_3">
      <g>
       <use style="stroke:#000000;stroke-width:0.8;" x="157.35419" xlink:href="#ma7ea6145be" y="307.584"/>
      </g>
     </g>
     <g id="text_3">
      <!-- 400 -->
      <defs>
       <path d="M 37.796875 64.3125 
L 12.890625 25.390625 
L 37.796875 25.390625 
z
M 35.203125 72.90625 
L 47.609375 72.90625 
L 47.609375 25.390625 
L 58.015625 25.390625 
L 58.015625 17.1875 
L 47.609375 17.1875 
L 47.609375 0 
L 37.796875 0 
L 37.796875 17.1875 
L 4.890625 17.1875 
L 4.890625 26.703125 
z
" id="DejaVuSans-52"/>
      </defs>
      <g transform="translate(147.81044 322.182437)scale(0.1 -0.1)">
       <use xlink:href="#DejaVuSans-52"/>
       <use x="63.623047" xlink:href="#DejaVuSans-48"/>
       <use x="127.246094" xlink:href="#DejaVuSans-48"/>
      </g>
     </g>
    </g>
    <g id="xtick_4">
     <g id="line2d_4">
      <g>
       <use style="stroke:#000000;stroke-width:0.8;" x="207.231285" xlink:href="#ma7ea6145be" y="307.584"/>
      </g>
     </g>
     <g id="text_4">
      <!-- 600 -->
      <defs>
       <path d="M 33.015625 40.375 
Q 26.375 40.375 22.484375 35.828125 
Q 18.609375 31.296875 18.609375 23.390625 
Q 18.609375 15.53125 22.484375 10.953125 
Q 26.375 6.390625 33.015625 6.390625 
Q 39.65625 6.390625 43.53125 10.953125 
Q 47.40625 15.53125 47.40625 23.390625 
Q 47.40625 31.296875 43.53125 35.828125 
Q 39.65625 40.375 33.015625 40.375 
z
M 52.59375 71.296875 
L 52.59375 62.3125 
Q 48.875 64.0625 45.09375 64.984375 
Q 41.3125 65.921875 37.59375 65.921875 
Q 27.828125 65.921875 22.671875 59.328125 
Q 17.53125 52.734375 16.796875 39.40625 
Q 19.671875 43.65625 24.015625 45.921875 
Q 28.375 48.1875 33.59375 48.1875 
Q 44.578125 48.1875 50.953125 41.515625 
Q 57.328125 34.859375 57.328125 23.390625 
Q 57.328125 12.15625 50.6875 5.359375 
Q 44.046875 -1.421875 33.015625 -1.421875 
Q 20.359375 -1.421875 13.671875 8.265625 
Q 6.984375 17.96875 6.984375 36.375 
Q 6.984375 53.65625 15.1875 63.9375 
Q 23.390625 74.21875 37.203125 74.21875 
Q 40.921875 74.21875 44.703125 73.484375 
Q 48.484375 72.75 52.59375 71.296875 
z
" id="DejaVuSans-54"/>
      </defs>
      <g transform="translate(197.687535 322.182437)scale(0.1 -0.1)">
       <use xlink:href="#DejaVuSans-54"/>
       <use x="63.623047" xlink:href="#DejaVuSans-48"/>
       <use x="127.246094" xlink:href="#DejaVuSans-48"/>
      </g>
     </g>
    </g>
    <g id="xtick_5">
     <g id="line2d_5">
      <g>
       <use style="stroke:#000000;stroke-width:0.8;" x="257.10838" xlink:href="#ma7ea6145be" y="307.584"/>
      </g>
     </g>
     <g id="text_5">
      <!-- 800 -->
      <defs>
       <path d="M 31.78125 34.625 
Q 24.75 34.625 20.71875 30.859375 
Q 16.703125 27.09375 16.703125 20.515625 
Q 16.703125 13.921875 20.71875 10.15625 
Q 24.75 6.390625 31.78125 6.390625 
Q 38.8125 6.390625 42.859375 10.171875 
Q 46.921875 13.96875 46.921875 20.515625 
Q 46.921875 27.09375 42.890625 30.859375 
Q 38.875 34.625 31.78125 34.625 
z
M 21.921875 38.8125 
Q 15.578125 40.375 12.03125 44.71875 
Q 8.5 49.078125 8.5 55.328125 
Q 8.5 64.0625 14.71875 69.140625 
Q 20.953125 74.21875 31.78125 74.21875 
Q 42.671875 74.21875 48.875 69.140625 
Q 55.078125 64.0625 55.078125 55.328125 
Q 55.078125 49.078125 51.53125 44.71875 
Q 48 40.375 41.703125 38.8125 
Q 48.828125 37.15625 52.796875 32.3125 
Q 56.78125 27.484375 56.78125 20.515625 
Q 56.78125 9.90625 50.3125 4.234375 
Q 43.84375 -1.421875 31.78125 -1.421875 
Q 19.734375 -1.421875 13.25 4.234375 
Q 6.78125 9.90625 6.78125 20.515625 
Q 6.78125 27.484375 10.78125 32.3125 
Q 14.796875 37.15625 21.921875 38.8125 
z
M 18.3125 54.390625 
Q 18.3125 48.734375 21.84375 45.5625 
Q 25.390625 42.390625 31.78125 42.390625 
Q 38.140625 42.390625 41.71875 45.5625 
Q 45.3125 48.734375 45.3125 54.390625 
Q 45.3125 60.0625 41.71875 63.234375 
Q 38.140625 66.40625 31.78125 66.40625 
Q 25.390625 66.40625 21.84375 63.234375 
Q 18.3125 60.0625 18.3125 54.390625 
z
" id="DejaVuSans-56"/>
      </defs>
      <g transform="translate(247.56463 322.182437)scale(0.1 -0.1)">
       <use xlink:href="#DejaVuSans-56"/>
       <use x="63.623047" xlink:href="#DejaVuSans-48"/>
       <use x="127.246094" xlink:href="#DejaVuSans-48"/>
      </g>
     </g>
    </g>
    <g id="xtick_6">
     <g id="line2d_6">
      <g>
       <use style="stroke:#000000;stroke-width:0.8;" x="306.985475" xlink:href="#ma7ea6145be" y="307.584"/>
      </g>
     </g>
     <g id="text_6">
      <!-- 1000 -->
      <defs>
       <path d="M 12.40625 8.296875 
L 28.515625 8.296875 
L 28.515625 63.921875 
L 10.984375 60.40625 
L 10.984375 69.390625 
L 28.421875 72.90625 
L 38.28125 72.90625 
L 38.28125 8.296875 
L 54.390625 8.296875 
L 54.390625 0 
L 12.40625 0 
z
" id="DejaVuSans-49"/>
      </defs>
      <g transform="translate(294.260475 322.182437)scale(0.1 -0.1)">
       <use xlink:href="#DejaVuSans-49"/>
       <use x="63.623047" xlink:href="#DejaVuSans-48"/>
       <use x="127.246094" xlink:href="#DejaVuSans-48"/>
       <use x="190.869141" xlink:href="#DejaVuSans-48"/>
      </g>
     </g>
    </g>
    <g id="xtick_7">
     <g id="line2d_7">
      <g>
       <use style="stroke:#000000;stroke-width:0.8;" x="356.86257" xlink:href="#ma7ea6145be" y="307.584"/>
      </g>
     </g>
     <g id="text_7">
      <!-- 1200 -->
      <g transform="translate(344.13757 322.182437)scale(0.1 -0.1)">
       <use xlink:href="#DejaVuSans-49"/>
       <use x="63.623047" xlink:href="#DejaVuSans-50"/>
       <use x="127.246094" xlink:href="#DejaVuSans-48"/>
       <use x="190.869141" xlink:href="#DejaVuSans-48"/>
      </g>
     </g>
    </g>
    <g id="xtick_8">
     <g id="line2d_8">
      <g>
       <use style="stroke:#000000;stroke-width:0.8;" x="406.739665" xlink:href="#ma7ea6145be" y="307.584"/>
      </g>
     </g>
     <g id="text_8">
      <!-- 1400 -->
      <g transform="translate(394.014665 322.182437)scale(0.1 -0.1)">
       <use xlink:href="#DejaVuSans-49"/>
       <use x="63.623047" xlink:href="#DejaVuSans-52"/>
       <use x="127.246094" xlink:href="#DejaVuSans-48"/>
       <use x="190.869141" xlink:href="#DejaVuSans-48"/>
      </g>
     </g>
    </g>
    <g id="text_9">
     <!-- aligned residue index -->
     <defs>
      <path d="M 34.28125 27.484375 
Q 23.390625 27.484375 19.1875 25 
Q 14.984375 22.515625 14.984375 16.5 
Q 14.984375 11.71875 18.140625 8.90625 
Q 21.296875 6.109375 26.703125 6.109375 
Q 34.1875 6.109375 38.703125 11.40625 
Q 43.21875 16.703125 43.21875 25.484375 
L 43.21875 27.484375 
z
M 52.203125 31.203125 
L 52.203125 0 
L 43.21875 0 
L 43.21875 8.296875 
Q 40.140625 3.328125 35.546875 0.953125 
Q 30.953125 -1.421875 24.3125 -1.421875 
Q 15.921875 -1.421875 10.953125 3.296875 
Q 6 8.015625 6 15.921875 
Q 6 25.140625 12.171875 29.828125 
Q 18.359375 34.515625 30.609375 34.515625 
L 43.21875 34.515625 
L 43.21875 35.40625 
Q 43.21875 41.609375 39.140625 45 
Q 35.0625 48.390625 27.6875 48.390625 
Q 23 48.390625 18.546875 47.265625 
Q 14.109375 46.140625 10.015625 43.890625 
L 10.015625 52.203125 
Q 14.9375 54.109375 19.578125 55.046875 
Q 24.21875 56 28.609375 56 
Q 40.484375 56 46.34375 49.84375 
Q 52.203125 43.703125 52.203125 31.203125 
z
" id="DejaVuSans-97"/>
      <path d="M 9.421875 75.984375 
L 18.40625 75.984375 
L 18.40625 0 
L 9.421875 0 
z
" id="DejaVuSans-108"/>
      <path d="M 9.421875 54.6875 
L 18.40625 54.6875 
L 18.40625 0 
L 9.421875 0 
z
M 9.421875 75.984375 
L 18.40625 75.984375 
L 18.40625 64.59375 
L 9.421875 64.59375 
z
" id="DejaVuSans-105"/>
      <path d="M 45.40625 27.984375 
Q 45.40625 37.75 41.375 43.109375 
Q 37.359375 48.484375 30.078125 48.484375 
Q 22.859375 48.484375 18.828125 43.109375 
Q 14.796875 37.75 14.796875 27.984375 
Q 14.796875 18.265625 18.828125 12.890625 
Q 22.859375 7.515625 30.078125 7.515625 
Q 37.359375 7.515625 41.375 12.890625 
Q 45.40625 18.265625 45.40625 27.984375 
z
M 54.390625 6.78125 
Q 54.390625 -7.171875 48.1875 -13.984375 
Q 42 -20.796875 29.203125 -20.796875 
Q 24.46875 -20.796875 20.265625 -20.09375 
Q 16.0625 -19.390625 12.109375 -17.921875 
L 12.109375 -9.1875 
Q 16.0625 -11.328125 19.921875 -12.34375 
Q 23.78125 -13.375 27.78125 -13.375 
Q 36.625 -13.375 41.015625 -8.765625 
Q 45.40625 -4.15625 45.40625 5.171875 
L 45.40625 9.625 
Q 42.625 4.78125 38.28125 2.390625 
Q 33.9375 0 27.875 0 
Q 17.828125 0 11.671875 7.65625 
Q 5.515625 15.328125 5.515625 27.984375 
Q 5.515625 40.671875 11.671875 48.328125 
Q 17.828125 56 27.875 56 
Q 33.9375 56 38.28125 53.609375 
Q 42.625 51.21875 45.40625 46.390625 
L 45.40625 54.6875 
L 54.390625 54.6875 
z
" id="DejaVuSans-103"/>
      <path d="M 54.890625 33.015625 
L 54.890625 0 
L 45.90625 0 
L 45.90625 32.71875 
Q 45.90625 40.484375 42.875 44.328125 
Q 39.84375 48.1875 33.796875 48.1875 
Q 26.515625 48.1875 22.3125 43.546875 
Q 18.109375 38.921875 18.109375 30.90625 
L 18.109375 0 
L 9.078125 0 
L 9.078125 54.6875 
L 18.109375 54.6875 
L 18.109375 46.1875 
Q 21.34375 51.125 25.703125 53.5625 
Q 30.078125 56 35.796875 56 
Q 45.21875 56 50.046875 50.171875 
Q 54.890625 44.34375 54.890625 33.015625 
z
" id="DejaVuSans-110"/>
      <path d="M 56.203125 29.59375 
L 56.203125 25.203125 
L 14.890625 25.203125 
Q 15.484375 15.921875 20.484375 11.0625 
Q 25.484375 6.203125 34.421875 6.203125 
Q 39.59375 6.203125 44.453125 7.46875 
Q 49.3125 8.734375 54.109375 11.28125 
L 54.109375 2.78125 
Q 49.265625 0.734375 44.1875 -0.34375 
Q 39.109375 -1.421875 33.890625 -1.421875 
Q 20.796875 -1.421875 13.15625 6.1875 
Q 5.515625 13.8125 5.515625 26.8125 
Q 5.515625 40.234375 12.765625 48.109375 
Q 20.015625 56 32.328125 56 
Q 43.359375 56 49.78125 48.890625 
Q 56.203125 41.796875 56.203125 29.59375 
z
M 47.21875 32.234375 
Q 47.125 39.59375 43.09375 43.984375 
Q 39.0625 48.390625 32.421875 48.390625 
Q 24.90625 48.390625 20.390625 44.140625 
Q 15.875 39.890625 15.1875 32.171875 
z
" id="DejaVuSans-101"/>
      <path d="M 45.40625 46.390625 
L 45.40625 75.984375 
L 54.390625 75.984375 
L 54.390625 0 
L 45.40625 0 
L 45.40625 8.203125 
Q 42.578125 3.328125 38.25 0.953125 
Q 33.9375 -1.421875 27.875 -1.421875 
Q 17.96875 -1.421875 11.734375 6.484375 
Q 5.515625 14.40625 5.515625 27.296875 
Q 5.515625 40.1875 11.734375 48.09375 
Q 17.96875 56 27.875 56 
Q 33.9375 56 38.25 53.625 
Q 42.578125 51.265625 45.40625 46.390625 
z
M 14.796875 27.296875 
Q 14.796875 17.390625 18.875 11.75 
Q 22.953125 6.109375 30.078125 6.109375 
Q 37.203125 6.109375 41.296875 11.75 
Q 45.40625 17.390625 45.40625 27.296875 
Q 45.40625 37.203125 41.296875 42.84375 
Q 37.203125 48.484375 30.078125 48.484375 
Q 22.953125 48.484375 18.875 42.84375 
Q 14.796875 37.203125 14.796875 27.296875 
z
" id="DejaVuSans-100"/>
      <path id="DejaVuSans-32"/>
      <path d="M 41.109375 46.296875 
Q 39.59375 47.171875 37.8125 47.578125 
Q 36.03125 48 33.890625 48 
Q 26.265625 48 22.1875 43.046875 
Q 18.109375 38.09375 18.109375 28.8125 
L 18.109375 0 
L 9.078125 0 
L 9.078125 54.6875 
L 18.109375 54.6875 
L 18.109375 46.1875 
Q 20.953125 51.171875 25.484375 53.578125 
Q 30.03125 56 36.53125 56 
Q 37.453125 56 38.578125 55.875 
Q 39.703125 55.765625 41.0625 55.515625 
z
" id="DejaVuSans-114"/>
      <path d="M 44.28125 53.078125 
L 44.28125 44.578125 
Q 40.484375 46.53125 36.375 47.5 
Q 32.28125 48.484375 27.875 48.484375 
Q 21.1875 48.484375 17.84375 46.4375 
Q 14.5 44.390625 14.5 40.28125 
Q 14.5 37.15625 16.890625 35.375 
Q 19.28125 33.59375 26.515625 31.984375 
L 29.59375 31.296875 
Q 39.15625 29.25 43.1875 25.515625 
Q 47.21875 21.78125 47.21875 15.09375 
Q 47.21875 7.46875 41.1875 3.015625 
Q 35.15625 -1.421875 24.609375 -1.421875 
Q 20.21875 -1.421875 15.453125 -0.5625 
Q 10.6875 0.296875 5.421875 2 
L 5.421875 11.28125 
Q 10.40625 8.6875 15.234375 7.390625 
Q 20.0625 6.109375 24.8125 6.109375 
Q 31.15625 6.109375 34.5625 8.28125 
Q 37.984375 10.453125 37.984375 14.40625 
Q 37.984375 18.0625 35.515625 20.015625 
Q 33.0625 21.96875 24.703125 23.78125 
L 21.578125 24.515625 
Q 13.234375 26.265625 9.515625 29.90625 
Q 5.8125 33.546875 5.8125 39.890625 
Q 5.8125 47.609375 11.28125 51.796875 
Q 16.75 56 26.8125 56 
Q 31.78125 56 36.171875 55.265625 
Q 40.578125 54.546875 44.28125 53.078125 
z
" id="DejaVuSans-115"/>
      <path d="M 8.5 21.578125 
L 8.5 54.6875 
L 17.484375 54.6875 
L 17.484375 21.921875 
Q 17.484375 14.15625 20.5 10.265625 
Q 23.53125 6.390625 29.59375 6.390625 
Q 36.859375 6.390625 41.078125 11.03125 
Q 45.3125 15.671875 45.3125 23.6875 
L 45.3125 54.6875 
L 54.296875 54.6875 
L 54.296875 0 
L 45.3125 0 
L 45.3125 8.40625 
Q 42.046875 3.421875 37.71875 1 
Q 33.40625 -1.421875 27.6875 -1.421875 
Q 18.265625 -1.421875 13.375 4.4375 
Q 8.5 10.296875 8.5 21.578125 
z
M 31.109375 56 
z
" id="DejaVuSans-117"/>
      <path d="M 54.890625 54.6875 
L 35.109375 28.078125 
L 55.90625 0 
L 45.3125 0 
L 29.390625 21.484375 
L 13.484375 0 
L 2.875 0 
L 24.125 28.609375 
L 4.6875 54.6875 
L 15.28125 54.6875 
L 29.78125 35.203125 
L 44.28125 54.6875 
z
" id="DejaVuSans-120"/>
     </defs>
     <g transform="translate(182.235 335.860562)scale(0.1 -0.1)">
      <use xlink:href="#DejaVuSans-97"/>
      <use x="61.279297" xlink:href="#DejaVuSans-108"/>
      <use x="89.0625" xlink:href="#DejaVuSans-105"/>
      <use x="116.845703" xlink:href="#DejaVuSans-103"/>
      <use x="180.322266" xlink:href="#DejaVuSans-110"/>
      <use x="243.701172" xlink:href="#DejaVuSans-101"/>
      <use x="305.224609" xlink:href="#DejaVuSans-100"/>
      <use x="368.701172" xlink:href="#DejaVuSans-32"/>
      <use x="400.488281" xlink:href="#DejaVuSans-114"/>
      <use x="441.570312" xlink:href="#DejaVuSans-101"/>
      <use x="503.09375" xlink:href="#DejaVuSans-115"/>
      <use x="555.193359" xlink:href="#DejaVuSans-105"/>
      <use x="582.976562" xlink:href="#DejaVuSans-100"/>
      <use x="646.453125" xlink:href="#DejaVuSans-117"/>
      <use x="709.832031" xlink:href="#DejaVuSans-101"/>
      <use x="771.355469" xlink:href="#DejaVuSans-32"/>
      <use x="803.142578" xlink:href="#DejaVuSans-105"/>
      <use x="830.925781" xlink:href="#DejaVuSans-110"/>
      <use x="894.304688" xlink:href="#DejaVuSans-100"/>
      <use x="957.78125" xlink:href="#DejaVuSans-101"/>
      <use x="1019.289062" xlink:href="#DejaVuSans-120"/>
     </g>
    </g>
   </g>
   <g id="matplotlib.axis_2">
    <g id="ytick_1">
     <g id="line2d_9">
      <defs>
       <path d="M 0 0 
L -3.5 0 
" id="m3f5bfbd1a6" style="stroke:#000000;stroke-width:0.8;"/>
      </defs>
      <g>
       <use style="stroke:#000000;stroke-width:0.8;" x="57.6" xlink:href="#m3f5bfbd1a6" y="307.584"/>
      </g>
     </g>
     <g id="text_10">
      <!-- 0 -->
      <g transform="translate(44.2375 311.383219)scale(0.1 -0.1)">
       <use xlink:href="#DejaVuSans-48"/>
      </g>
     </g>
    </g>
    <g id="ytick_2">
     <g id="line2d_10">
      <g>
       <use style="stroke:#000000;stroke-width:0.8;" x="57.6" xlink:href="#m3f5bfbd1a6" y="263.232"/>
      </g>
     </g>
     <g id="text_11">
      <!-- 50 -->
      <defs>
       <path d="M 10.796875 72.90625 
L 49.515625 72.90625 
L 49.515625 64.59375 
L 19.828125 64.59375 
L 19.828125 46.734375 
Q 21.96875 47.46875 24.109375 47.828125 
Q 26.265625 48.1875 28.421875 48.1875 
Q 40.625 48.1875 47.75 41.5 
Q 54.890625 34.8125 54.890625 23.390625 
Q 54.890625 11.625 47.5625 5.09375 
Q 40.234375 -1.421875 26.90625 -1.421875 
Q 22.3125 -1.421875 17.546875 -0.640625 
Q 12.796875 0.140625 7.71875 1.703125 
L 7.71875 11.625 
Q 12.109375 9.234375 16.796875 8.0625 
Q 21.484375 6.890625 26.703125 6.890625 
Q 35.15625 6.890625 40.078125 11.328125 
Q 45.015625 15.765625 45.015625 23.390625 
Q 45.015625 31 40.078125 35.4375 
Q 35.15625 39.890625 26.703125 39.890625 
Q 22.75 39.890625 18.8125 39.015625 
Q 14.890625 38.140625 10.796875 36.28125 
z
" id="DejaVuSans-53"/>
      </defs>
      <g transform="translate(37.875 267.031219)scale(0.1 -0.1)">
       <use xlink:href="#DejaVuSans-53"/>
       <use x="63.623047" xlink:href="#DejaVuSans-48"/>
      </g>
     </g>
    </g>
    <g id="ytick_3">
     <g id="line2d_11">
      <g>
       <use style="stroke:#000000;stroke-width:0.8;" x="57.6" xlink:href="#m3f5bfbd1a6" y="218.88"/>
      </g>
     </g>
     <g id="text_12">
      <!-- 100 -->
      <g transform="translate(31.5125 222.679219)scale(0.1 -0.1)">
       <use xlink:href="#DejaVuSans-49"/>
       <use x="63.623047" xlink:href="#DejaVuSans-48"/>
       <use x="127.246094" xlink:href="#DejaVuSans-48"/>
      </g>
     </g>
    </g>
    <g id="ytick_4">
     <g id="line2d_12">
      <g>
       <use style="stroke:#000000;stroke-width:0.8;" x="57.6" xlink:href="#m3f5bfbd1a6" y="174.528"/>
      </g>
     </g>
     <g id="text_13">
      <!-- 150 -->
      <g transform="translate(31.5125 178.327219)scale(0.1 -0.1)">
       <use xlink:href="#DejaVuSans-49"/>
       <use x="63.623047" xlink:href="#DejaVuSans-53"/>
       <use x="127.246094" xlink:href="#DejaVuSans-48"/>
      </g>
     </g>
    </g>
    <g id="ytick_5">
     <g id="line2d_13">
      <g>
       <use style="stroke:#000000;stroke-width:0.8;" x="57.6" xlink:href="#m3f5bfbd1a6" y="130.176"/>
      </g>
     </g>
     <g id="text_14">
      <!-- 200 -->
      <g transform="translate(31.5125 133.975219)scale(0.1 -0.1)">
       <use xlink:href="#DejaVuSans-50"/>
       <use x="63.623047" xlink:href="#DejaVuSans-48"/>
       <use x="127.246094" xlink:href="#DejaVuSans-48"/>
      </g>
     </g>
    </g>
    <g id="ytick_6">
     <g id="line2d_14">
      <g>
       <use style="stroke:#000000;stroke-width:0.8;" x="57.6" xlink:href="#m3f5bfbd1a6" y="85.824"/>
      </g>
     </g>
     <g id="text_15">
      <!-- 250 -->
      <g transform="translate(31.5125 89.623219)scale(0.1 -0.1)">
       <use xlink:href="#DejaVuSans-50"/>
       <use x="63.623047" xlink:href="#DejaVuSans-53"/>
       <use x="127.246094" xlink:href="#DejaVuSans-48"/>
      </g>
     </g>
    </g>
    <g id="ytick_7">
     <g id="line2d_15">
      <g>
       <use style="stroke:#000000;stroke-width:0.8;" x="57.6" xlink:href="#m3f5bfbd1a6" y="41.472"/>
      </g>
     </g>
     <g id="text_16">
      <!-- 300 -->
      <defs>
       <path d="M 40.578125 39.3125 
Q 47.65625 37.796875 51.625 33 
Q 55.609375 28.21875 55.609375 21.1875 
Q 55.609375 10.40625 48.1875 4.484375 
Q 40.765625 -1.421875 27.09375 -1.421875 
Q 22.515625 -1.421875 17.65625 -0.515625 
Q 12.796875 0.390625 7.625 2.203125 
L 7.625 11.71875 
Q 11.71875 9.328125 16.59375 8.109375 
Q 21.484375 6.890625 26.8125 6.890625 
Q 36.078125 6.890625 40.9375 10.546875 
Q 45.796875 14.203125 45.796875 21.1875 
Q 45.796875 27.640625 41.28125 31.265625 
Q 36.765625 34.90625 28.71875 34.90625 
L 20.21875 34.90625 
L 20.21875 43.015625 
L 29.109375 43.015625 
Q 36.375 43.015625 40.234375 45.921875 
Q 44.09375 48.828125 44.09375 54.296875 
Q 44.09375 59.90625 40.109375 62.90625 
Q 36.140625 65.921875 28.71875 65.921875 
Q 24.65625 65.921875 20.015625 65.03125 
Q 15.375 64.15625 9.8125 62.3125 
L 9.8125 71.09375 
Q 15.4375 72.65625 20.34375 73.4375 
Q 25.25 74.21875 29.59375 74.21875 
Q 40.828125 74.21875 47.359375 69.109375 
Q 53.90625 64.015625 53.90625 55.328125 
Q 53.90625 49.265625 50.4375 45.09375 
Q 46.96875 40.921875 40.578125 39.3125 
z
" id="DejaVuSans-51"/>
      </defs>
      <g transform="translate(31.5125 45.271219)scale(0.1 -0.1)">
       <use xlink:href="#DejaVuSans-51"/>
       <use x="63.623047" xlink:href="#DejaVuSans-48"/>
       <use x="127.246094" xlink:href="#DejaVuSans-48"/>
      </g>
     </g>
    </g>
    <g id="text_17">
     <!-- deletions -->
     <defs>
      <path d="M 18.3125 70.21875 
L 18.3125 54.6875 
L 36.8125 54.6875 
L 36.8125 47.703125 
L 18.3125 47.703125 
L 18.3125 18.015625 
Q 18.3125 11.328125 20.140625 9.421875 
Q 21.96875 7.515625 27.59375 7.515625 
L 36.8125 7.515625 
L 36.8125 0 
L 27.59375 0 
Q 17.1875 0 13.234375 3.875 
Q 9.28125 7.765625 9.28125 18.015625 
L 9.28125 47.703125 
L 2.6875 47.703125 
L 2.6875 54.6875 
L 9.28125 54.6875 
L 9.28125 70.21875 
z
" id="DejaVuSans-116"/>
      <path d="M 30.609375 48.390625 
Q 23.390625 48.390625 19.1875 42.75 
Q 14.984375 37.109375 14.984375 27.296875 
Q 14.984375 17.484375 19.15625 11.84375 
Q 23.34375 6.203125 30.609375 6.203125 
Q 37.796875 6.203125 41.984375 11.859375 
Q 46.1875 17.53125 46.1875 27.296875 
Q 46.1875 37.015625 41.984375 42.703125 
Q 37.796875 48.390625 30.609375 48.390625 
z
M 30.609375 56 
Q 42.328125 56 49.015625 48.375 
Q 55.71875 40.765625 55.71875 27.296875 
Q 55.71875 13.875 49.015625 6.21875 
Q 42.328125 -1.421875 30.609375 -1.421875 
Q 18.84375 -1.421875 12.171875 6.21875 
Q 5.515625 13.875 5.515625 27.296875 
Q 5.515625 40.765625 12.171875 48.375 
Q 18.84375 56 30.609375 56 
z
" id="DejaVuSans-111"/>
     </defs>
     <g transform="translate(25.432812 197.426437)rotate(-90)scale(0.1 -0.1)">
      <use xlink:href="#DejaVuSans-100"/>
      <use x="63.476562" xlink:href="#DejaVuSans-101"/>
      <use x="125" xlink:href="#DejaVuSans-108"/>
      <use x="152.783203" xlink:href="#DejaVuSans-101"/>
      <use x="214.306641" xlink:href="#DejaVuSans-116"/>
      <use x="253.515625" xlink:href="#DejaVuSans-105"/>
      <use x="281.298828" xlink:href="#DejaVuSans-111"/>
      <use x="342.480469" xlink:href="#DejaVuSans-110"/>
      <use x="405.859375" xlink:href="#DejaVuSans-115"/>
     </g>
    </g>
   </g>
   <g id="line2d_16">
    <path clip-path="url(#paf399709d5)" d="M 57.6 307.584 
L 62.587709 307.584 
L 63.335866 304.92288 
L 63.585251 303.1488 
L 63.834637 303.1488 
L 64.084022 302.26176 
L 67.326034 301.37472 
L 67.575419 305.80992 
L 68.07419 307.584 
L 70.81743 307.584 
L 71.066816 305.80992 
L 71.316201 305.80992 
L 71.565587 306.69696 
L 71.814972 304.92288 
L 72.064358 306.69696 
L 73.061899 303.1488 
L 73.311285 307.584 
L 78.797765 307.584 
L 79.047151 306.69696 
L 79.296536 304.03584 
L 83.037318 296.05248 
L 83.286704 296.05248 
L 83.536089 288.95616 
L 83.785475 287.18208 
L 84.284246 276.5376 
L 84.533631 267.6672 
L 84.783017 267.6672 
L 85.032402 265.00608 
L 85.531173 256.13568 
L 85.780559 255.24864 
L 86.029944 257.02272 
L 86.528715 263.232 
L 87.027486 267.6672 
L 89.770726 267.6672 
L 90.020112 268.55424 
L 90.518883 268.55424 
L 91.516425 263.232 
L 91.76581 265.00608 
L 92.015196 265.89312 
L 92.264581 267.6672 
L 92.513966 270.32832 
L 92.763352 278.31168 
L 93.012737 280.9728 
L 93.262123 285.408 
L 93.511508 287.18208 
L 93.760894 287.18208 
L 94.259665 297.82656 
L 94.50905 302.26176 
L 94.758436 304.03584 
L 95.007821 304.92288 
L 97.002905 305.80992 
L 97.501676 307.584 
L 99.49676 307.584 
L 99.995531 293.39136 
L 100.244916 289.8432 
L 102.489385 291.61728 
L 103.237542 288.95616 
L 103.486927 287.18208 
L 105.731397 287.18208 
L 106.230168 294.2784 
L 106.479553 296.05248 
L 106.728939 298.7136 
L 106.978324 298.7136 
L 107.477095 303.1488 
L 107.72648 304.03584 
L 107.975866 305.80992 
L 108.474637 307.584 
L 109.97095 307.584 
L 110.220335 306.69696 
L 110.469721 307.584 
L 110.719106 306.69696 
L 110.968492 304.03584 
L 111.217877 304.92288 
L 111.467263 306.69696 
L 111.716648 305.80992 
L 111.966034 307.584 
L 112.464804 307.584 
L 112.71419 305.80992 
L 112.963575 304.92288 
L 113.462346 300.48768 
L 115.706816 301.37472 
L 115.956201 305.80992 
L 116.205587 307.584 
L 116.704358 307.584 
L 120.195754 306.69696 
L 120.694525 303.1488 
L 120.943911 305.80992 
L 121.442682 307.584 
L 140.146592 307.584 
L 140.645363 305.80992 
L 146.131844 302.26176 
L 146.381229 304.92288 
L 146.630615 305.80992 
L 146.88 305.80992 
L 148.625698 307.584 
L 151.867709 307.584 
L 152.117095 306.69696 
L 157.852961 307.584 
L 158.601117 307.584 
L 158.850503 306.69696 
L 159.099888 304.92288 
L 170.57162 304.03584 
L 170.821006 301.37472 
L 171.569162 298.7136 
L 172.067933 293.39136 
L 172.317318 297.82656 
L 172.566704 298.7136 
L 174.063017 285.408 
L 175.808715 283.63392 
L 176.058101 287.18208 
L 176.307486 286.29504 
L 176.556872 287.18208 
L 176.806257 288.95616 
L 177.055642 288.06912 
L 181.04581 283.63392 
L 181.295196 295.16544 
L 181.544581 296.05248 
L 181.793966 298.7136 
L 183.290279 298.7136 
L 183.539665 297.82656 
L 183.78905 299.60064 
L 184.287821 305.80992 
L 184.537207 306.69696 
L 184.786592 306.69696 
L 185.035978 307.584 
L 187.280447 307.584 
L 187.779218 305.80992 
L 188.77676 291.61728 
L 189.275531 288.06912 
L 189.774302 283.63392 
L 190.771844 260.57088 
L 191.021229 257.90976 
L 191.270615 252.58752 
L 191.52 250.81344 
L 192.018771 257.02272 
L 193.515084 264.11904 
L 193.764469 267.6672 
L 194.013855 269.44128 
L 194.512626 271.21536 
L 195.260782 271.21536 
L 195.510168 270.32832 
L 196.008939 256.13568 
L 196.258324 251.70048 
L 196.507709 250.81344 
L 196.757095 237.50784 
L 197.00648 233.95968 
L 197.255866 238.39488 
L 197.505251 239.28192 
L 197.754637 241.056 
L 198.004022 241.94304 
L 198.253408 235.73376 
L 198.502793 239.28192 
L 199.001564 231.29856 
L 199.500335 217.99296 
L 200.248492 212.67072 
L 200.747263 206.46144 
L 200.996648 204.68736 
L 201.246034 205.5744 
L 201.495419 202.02624 
L 201.744804 202.02624 
L 201.99419 201.1392 
L 202.243575 202.02624 
L 202.492961 203.80032 
L 203.241117 211.78368 
L 203.739888 213.55776 
L 203.989274 222.42816 
L 204.238659 224.20224 
L 204.488045 223.3152 
L 204.73743 225.97632 
L 204.986816 233.95968 
L 205.236201 233.95968 
L 205.485587 241.94304 
L 205.734972 257.90976 
L 205.984358 265.89312 
L 206.981899 255.24864 
L 207.231285 257.90976 
L 207.730056 267.6672 
L 207.979441 268.55424 
L 208.228827 267.6672 
L 208.478212 258.7968 
L 208.727598 257.02272 
L 209.226369 258.7968 
L 209.475754 254.3616 
L 209.72514 252.58752 
L 210.722682 253.47456 
L 210.972067 271.21536 
L 211.470838 284.52096 
L 212.717765 304.92288 
L 212.967151 305.80992 
L 213.216536 305.80992 
L 213.465922 306.69696 
L 213.964693 306.69696 
L 214.214078 302.26176 
L 214.463464 302.26176 
L 214.712849 304.03584 
L 214.962235 304.92288 
L 215.710391 302.26176 
L 215.959777 295.16544 
L 216.458547 291.61728 
L 216.957318 276.5376 
L 217.206704 272.98944 
L 217.456089 273.87648 
L 217.95486 269.44128 
L 218.204246 269.44128 
L 218.703017 277.42464 
L 218.952402 280.08576 
L 219.451173 288.95616 
L 219.949944 295.16544 
L 220.448715 295.16544 
L 220.698101 294.2784 
L 220.947486 292.50432 
L 221.196872 292.50432 
L 221.446257 290.73024 
L 221.695642 291.61728 
L 221.945028 296.05248 
L 222.194413 304.92288 
L 222.443799 306.69696 
L 222.693184 307.584 
L 224.438883 307.584 
L 224.688268 306.69696 
L 224.937654 301.37472 
L 225.436425 299.60064 
L 225.68581 297.82656 
L 225.935196 297.82656 
L 226.433966 288.95616 
L 228.179665 285.408 
L 228.678436 267.6672 
L 229.177207 269.44128 
L 229.426592 269.44128 
L 229.675978 270.32832 
L 229.925363 272.98944 
L 230.174749 269.44128 
L 230.424134 269.44128 
L 231.421676 290.73024 
L 231.671061 290.73024 
L 231.920447 292.50432 
L 232.668603 304.03584 
L 235.411844 304.03584 
L 236.16 306.69696 
L 236.409385 304.03584 
L 236.658771 304.92288 
L 236.908156 302.26176 
L 237.157542 295.16544 
L 237.406927 294.2784 
L 237.656313 296.05248 
L 237.905698 295.16544 
L 238.155084 289.8432 
L 238.404469 287.18208 
L 238.653855 289.8432 
L 239.152626 291.61728 
L 239.651397 299.60064 
L 239.900782 301.37472 
L 240.399553 301.37472 
L 240.648939 303.1488 
L 240.898324 304.03584 
L 241.147709 304.03584 
L 241.397095 305.80992 
L 241.895866 305.80992 
L 242.394637 307.584 
L 245.387263 307.584 
L 245.636648 304.92288 
L 245.886034 304.92288 
L 246.135419 306.69696 
L 246.883575 307.584 
L 249.37743 307.584 
L 249.626816 306.69696 
L 249.876201 307.584 
L 253.367598 307.584 
L 253.866369 304.03584 
L 254.115754 304.03584 
L 254.36514 302.26176 
L 254.863911 300.48768 
L 255.113296 296.05248 
L 255.612067 296.05248 
L 255.861453 295.16544 
L 256.110838 293.39136 
L 256.609609 287.18208 
L 257.10838 277.42464 
L 257.357765 276.5376 
L 257.856536 272.1024 
L 260.101006 272.98944 
L 260.350391 272.1024 
L 260.599777 280.08576 
L 260.849162 282.74688 
L 261.098547 287.18208 
L 261.347933 288.06912 
L 261.597318 286.29504 
L 261.846704 287.18208 
L 262.096089 301.37472 
L 262.345475 304.92288 
L 262.59486 306.69696 
L 262.844246 306.69696 
L 263.093631 307.584 
L 266.834413 307.584 
L 267.083799 306.69696 
L 267.333184 306.69696 
L 267.831955 304.92288 
L 268.081341 299.60064 
L 268.580112 297.82656 
L 268.829497 296.05248 
L 269.078883 297.82656 
L 269.328268 300.48768 
L 269.827039 307.584 
L 272.320894 307.584 
L 273.06905 304.92288 
L 273.318436 303.1488 
L 273.817207 292.50432 
L 274.066592 288.95616 
L 274.565363 287.18208 
L 274.814749 283.63392 
L 276.061676 257.90976 
L 276.311061 257.02272 
L 276.560447 255.24864 
L 277.308603 252.58752 
L 279.054302 221.54112 
L 279.303687 221.54112 
L 279.553073 217.10592 
L 279.802458 202.02624 
L 280.051844 201.1392 
L 280.550615 205.5744 
L 280.8 205.5744 
L 281.049385 204.68736 
L 281.548156 209.12256 
L 281.797542 210.89664 
L 282.046927 213.55776 
L 282.296313 222.42816 
L 282.545698 218.88 
L 282.795084 218.88 
L 283.044469 215.33184 
L 283.293855 210.0096 
L 283.54324 208.23552 
L 283.792626 210.0096 
L 284.042011 206.46144 
L 284.291397 199.36512 
L 284.540782 205.5744 
L 284.790168 207.34848 
L 285.039553 207.34848 
L 285.538324 209.12256 
L 286.785251 237.50784 
L 287.034637 243.71712 
L 287.284022 254.3616 
L 287.533408 259.68384 
L 287.782793 259.68384 
L 288.032179 258.7968 
L 288.281564 259.68384 
L 288.53095 262.34496 
L 289.029721 272.1024 
L 289.279106 276.5376 
L 289.528492 274.76352 
L 289.777877 274.76352 
L 290.027263 272.98944 
L 290.276648 275.65056 
L 290.526034 275.65056 
L 290.775419 272.98944 
L 291.024804 284.52096 
L 292.022346 298.7136 
L 292.521117 304.03584 
L 293.269274 306.69696 
L 293.518659 306.69696 
L 293.768045 307.584 
L 296.261899 307.584 
L 297.010056 304.92288 
L 297.259441 303.1488 
L 297.758212 295.16544 
L 298.007598 294.2784 
L 298.256983 296.93952 
L 298.506369 296.05248 
L 301.000223 296.93952 
L 301.249609 301.37472 
L 301.498994 303.1488 
L 301.74838 304.03584 
L 301.997765 307.584 
L 303.992849 307.584 
L 304.242235 306.69696 
L 304.49162 306.69696 
L 304.741006 305.80992 
L 304.990391 305.80992 
L 305.239777 304.03584 
L 305.489162 301.37472 
L 305.738547 300.48768 
L 305.987933 297.82656 
L 306.486704 288.06912 
L 306.736089 287.18208 
L 306.985475 283.63392 
L 307.23486 285.408 
L 307.983017 285.408 
L 308.232402 283.63392 
L 308.481788 284.52096 
L 308.980559 284.52096 
L 309.978101 273.87648 
L 310.227486 267.6672 
L 310.726257 261.45792 
L 310.975642 256.13568 
L 314.467039 252.58752 
L 314.716425 250.81344 
L 315.464581 239.28192 
L 315.963352 231.29856 
L 316.212737 224.20224 
L 316.462123 211.78368 
L 316.711508 209.12256 
L 316.960894 210.0096 
L 317.210279 204.68736 
L 317.459665 194.92992 
L 317.70905 198.47808 
L 317.958436 198.47808 
L 318.207821 193.15584 
L 318.706592 178.9632 
L 318.955978 176.30208 
L 319.205363 179.85024 
L 319.454749 181.62432 
L 319.704134 179.85024 
L 319.95352 179.85024 
L 326.188156 184.28544 
L 326.437542 188.72064 
L 326.686927 188.72064 
L 327.185698 190.49472 
L 327.684469 190.49472 
L 328.18324 194.04288 
L 328.682011 200.25216 
L 328.931397 201.1392 
L 329.180782 201.1392 
L 329.430168 202.02624 
L 329.928939 198.47808 
L 330.178324 197.59104 
L 331.425251 210.0096 
L 331.674637 218.88 
L 331.924022 238.39488 
L 332.173408 243.71712 
L 332.422793 243.71712 
L 332.672179 251.70048 
L 332.921564 249.9264 
L 333.17095 253.47456 
L 333.420335 263.232 
L 333.669721 267.6672 
L 333.919106 268.55424 
L 334.168492 272.1024 
L 334.667263 280.9728 
L 334.916648 281.85984 
L 335.166034 290.73024 
L 335.415419 294.2784 
L 335.664804 296.05248 
L 335.91419 296.05248 
L 336.412961 303.1488 
L 336.911732 307.584 
L 337.161117 307.584 
L 337.410503 306.69696 
L 337.659888 304.92288 
L 337.909274 304.92288 
L 338.158659 307.584 
L 339.654972 307.584 
L 339.904358 306.69696 
L 340.403128 303.1488 
L 340.652514 292.50432 
L 340.901899 288.06912 
L 341.650056 268.55424 
L 341.899441 265.00608 
L 342.148827 267.6672 
L 342.647598 261.45792 
L 342.896983 253.47456 
L 343.146369 251.70048 
L 343.395754 251.70048 
L 344.143911 231.29856 
L 344.393296 231.29856 
L 344.892067 218.88 
L 345.390838 190.49472 
L 345.640223 186.94656 
L 345.889609 185.17248 
L 346.138994 176.30208 
L 346.38838 171.86688 
L 346.637765 158.56128 
L 346.887151 153.23904 
L 347.136536 155.90016 
L 347.635307 145.25568 
L 348.383464 124.85376 
L 348.632849 118.64448 
L 348.882235 118.64448 
L 349.13162 129.28896 
L 349.381006 130.176 
L 349.630391 121.3056 
L 349.879777 122.19264 
L 350.378547 112.4352 
L 350.627933 112.4352 
L 350.877318 116.8704 
L 351.126704 123.96672 
L 351.376089 125.7408 
L 351.625475 132.83712 
L 351.87486 134.6112 
L 352.124246 140.82048 
L 352.373631 141.70752 
L 352.623017 138.15936 
L 352.872402 140.82048 
L 353.121788 140.82048 
L 353.371173 139.0464 
L 353.620559 132.83712 
L 353.869944 138.15936 
L 354.11933 136.38528 
L 354.368715 133.72416 
L 354.618101 135.49824 
L 354.867486 135.49824 
L 355.116872 129.28896 
L 355.366257 131.06304 
L 355.615642 137.27232 
L 355.865028 139.0464 
L 356.114413 137.27232 
L 356.613184 135.49824 
L 356.86257 140.82048 
L 357.111955 154.12608 
L 357.361341 155.90016 
L 357.610726 155.01312 
L 357.860112 153.23904 
L 358.109497 147.9168 
L 358.358883 149.69088 
L 358.608268 148.80384 
L 358.857654 152.352 
L 359.107039 154.12608 
L 359.356425 157.67424 
L 359.60581 166.54464 
L 359.855196 170.0928 
L 360.353966 183.3984 
L 360.603352 181.62432 
L 360.852737 181.62432 
L 361.102123 186.94656 
L 361.351508 199.36512 
L 361.600894 203.80032 
L 362.34905 241.056 
L 362.847821 261.45792 
L 363.595978 275.65056 
L 363.845363 273.87648 
L 364.094749 269.44128 
L 364.344134 269.44128 
L 364.59352 272.98944 
L 364.842905 272.1024 
L 365.341676 260.57088 
L 365.591061 263.232 
L 366.089832 271.21536 
L 366.339218 268.55424 
L 366.588603 264.11904 
L 366.837989 263.232 
L 367.087374 265.00608 
L 367.33676 265.89312 
L 367.586145 263.232 
L 367.835531 264.11904 
L 368.084916 265.89312 
L 368.334302 266.78016 
L 368.583687 268.55424 
L 368.833073 286.29504 
L 369.581229 286.29504 
L 369.830615 285.408 
L 370.08 280.9728 
L 370.329385 281.85984 
L 371.077542 279.19872 
L 371.576313 275.65056 
L 372.075084 265.00608 
L 372.573855 249.9264 
L 372.82324 233.07264 
L 373.072626 231.29856 
L 373.571397 216.21888 
L 373.820782 214.4448 
L 374.070168 216.21888 
L 374.319553 219.76704 
L 374.568939 219.76704 
L 374.818324 216.21888 
L 375.56648 194.04288 
L 376.314637 147.02976 
L 376.564022 147.9168 
L 376.813408 151.46496 
L 377.062793 148.80384 
L 377.81095 136.38528 
L 378.060335 135.49824 
L 378.309721 132.83712 
L 378.559106 134.6112 
L 378.808492 132.83712 
L 379.057877 139.93344 
L 379.307263 141.70752 
L 379.556648 132.83712 
L 382.050503 131.95008 
L 382.299888 124.85376 
L 382.549274 129.28896 
L 382.798659 129.28896 
L 383.048045 136.38528 
L 383.29743 137.27232 
L 383.546816 141.70752 
L 383.796201 143.4816 
L 384.294972 160.33536 
L 385.043128 168.31872 
L 385.292514 168.31872 
L 385.541899 176.30208 
L 385.791285 178.07616 
L 386.04067 175.41504 
L 386.290056 174.528 
L 387.287598 181.62432 
L 387.536983 184.28544 
L 387.786369 179.85024 
L 388.035754 178.9632 
L 388.28514 177.18912 
L 388.534525 178.07616 
L 388.783911 177.18912 
L 389.781453 131.06304 
L 390.030838 128.40192 
L 390.280223 123.96672 
L 390.529609 123.07968 
L 390.778994 121.3056 
L 391.02838 118.64448 
L 391.277765 123.96672 
L 391.527151 120.41856 
L 391.776536 132.83712 
L 392.025922 136.38528 
L 392.275307 133.72416 
L 392.524693 123.96672 
L 392.774078 123.07968 
L 393.023464 123.07968 
L 393.272849 155.01312 
L 393.522235 161.2224 
L 394.270391 168.31872 
L 394.519777 163.88352 
L 394.769162 162.10944 
L 395.018547 162.10944 
L 395.267933 163.88352 
L 395.517318 162.99648 
L 395.766704 161.2224 
L 396.016089 157.67424 
L 396.51486 144.36864 
L 396.764246 144.36864 
L 397.512402 149.69088 
L 398.011173 147.9168 
L 398.260559 146.14272 
L 399.008715 157.67424 
L 399.258101 155.90016 
L 399.507486 157.67424 
L 399.756872 160.33536 
L 400.006257 160.33536 
L 400.505028 168.31872 
L 401.751955 180.73728 
L 402.500112 210.89664 
L 402.749497 210.0096 
L 403.248268 223.3152 
L 403.497654 235.73376 
L 403.747039 236.6208 
L 404.24581 253.47456 
L 404.495196 254.3616 
L 404.744581 256.13568 
L 404.993966 257.02272 
L 405.742123 265.89312 
L 406.240894 261.45792 
L 406.739665 259.68384 
L 406.98905 261.45792 
L 407.737207 284.52096 
L 407.986592 289.8432 
L 408.235978 299.60064 
L 408.485363 302.26176 
L 408.734749 303.1488 
L 408.984134 304.92288 
L 412.475531 304.92288 
L 413.223687 307.584 
L 414.72 307.584 
L 414.72 307.584 
" style="fill:none;stroke:#1f77b4;"/>
   </g>
   <g id="line2d_17">
    <path clip-path="url(#paf399709d5)" d="M 57.6 307.584 
L 59.844469 307.584 
L 60.34324 305.80992 
L 60.592626 304.03584 
L 60.842011 303.1488 
L 61.091397 300.48768 
L 61.340782 299.60064 
L 61.590168 299.60064 
L 62.338324 290.73024 
L 62.837095 280.9728 
L 63.08648 279.19872 
L 64.084022 268.55424 
L 64.832179 265.89312 
L 65.081564 262.34496 
L 65.580335 260.57088 
L 65.829721 257.02272 
L 66.079106 257.02272 
L 66.577877 255.24864 
L 66.827263 255.24864 
L 67.076648 253.47456 
L 67.326034 252.58752 
L 67.575419 250.81344 
L 67.824804 253.47456 
L 68.07419 257.90976 
L 68.323575 258.7968 
L 68.572961 258.7968 
L 68.822346 263.232 
L 69.321117 265.00608 
L 70.568045 289.8432 
L 71.066816 296.05248 
L 71.316201 297.82656 
L 72.064358 300.48768 
L 72.812514 307.584 
L 84.783017 307.584 
L 85.281788 305.80992 
L 85.531173 299.60064 
L 85.780559 298.7136 
L 86.27933 298.7136 
L 86.528715 299.60064 
L 87.276872 307.584 
L 88.274413 307.584 
L 88.523799 306.69696 
L 88.773184 304.92288 
L 89.02257 306.69696 
L 89.271955 307.584 
L 93.262123 307.584 
L 93.511508 306.69696 
L 94.010279 303.1488 
L 94.50905 307.584 
L 100.993073 307.584 
L 101.242458 306.69696 
L 101.491844 306.69696 
L 101.741229 305.80992 
L 102.24 302.26176 
L 102.489385 301.37472 
L 102.738771 299.60064 
L 103.237542 295.16544 
L 103.486927 294.2784 
L 103.985698 288.06912 
L 104.484469 282.74688 
L 104.733855 278.31168 
L 104.98324 276.5376 
L 106.230168 243.71712 
L 106.479553 226.86336 
L 106.728939 222.42816 
L 106.978324 224.20224 
L 107.227709 224.20224 
L 107.477095 220.65408 
L 107.72648 218.88 
L 107.975866 216.21888 
L 108.724022 214.4448 
L 108.973408 214.4448 
L 109.222793 210.89664 
L 109.472179 219.76704 
L 109.721564 221.54112 
L 109.97095 225.97632 
L 110.220335 233.07264 
L 110.469721 249.03936 
L 110.719106 253.47456 
L 110.968492 253.47456 
L 111.217877 254.3616 
L 111.467263 256.13568 
L 111.966034 257.90976 
L 112.215419 257.90976 
L 112.464804 259.68384 
L 112.963575 259.68384 
L 113.212961 260.57088 
L 113.462346 262.34496 
L 113.961117 262.34496 
L 114.210503 259.68384 
L 114.459888 261.45792 
L 114.709274 258.7968 
L 114.958659 258.7968 
L 115.706816 249.9264 
L 115.956201 251.70048 
L 116.205587 251.70048 
L 116.454972 265.00608 
L 116.953743 273.87648 
L 117.452514 282.74688 
L 117.701899 282.74688 
L 117.951285 295.16544 
L 118.699441 304.92288 
L 118.948827 306.69696 
L 119.946369 306.69696 
L 120.195754 307.584 
L 121.442682 307.584 
L 122.190838 296.05248 
L 122.440223 288.95616 
L 122.689609 288.06912 
L 122.938994 289.8432 
L 123.18838 290.73024 
L 123.437765 290.73024 
L 123.687151 291.61728 
L 124.185922 297.82656 
L 125.432849 306.69696 
L 125.93162 306.69696 
L 126.181006 307.584 
L 128.425475 307.584 
L 128.924246 305.80992 
L 129.173631 307.584 
L 133.163799 307.584 
L 133.413184 306.69696 
L 133.911955 302.26176 
L 134.161341 300.48768 
L 135.158883 278.31168 
L 135.408268 280.08576 
L 135.657654 278.31168 
L 135.907039 279.19872 
L 136.156425 280.9728 
L 136.40581 279.19872 
L 136.655196 280.08576 
L 137.652737 299.60064 
L 138.151508 304.03584 
L 138.400894 305.80992 
L 138.650279 306.69696 
L 140.395978 306.69696 
L 140.645363 305.80992 
L 140.894749 303.1488 
L 141.144134 303.1488 
L 141.39352 302.26176 
L 141.892291 296.93952 
L 142.141676 296.93952 
L 142.391061 287.18208 
L 142.889832 277.42464 
L 143.139218 275.65056 
L 143.887374 248.15232 
L 144.386145 246.37824 
L 144.635531 241.94304 
L 144.884916 233.95968 
L 145.134302 234.84672 
L 145.383687 221.54112 
L 145.633073 221.54112 
L 145.882458 223.3152 
L 146.131844 223.3152 
L 146.630615 233.07264 
L 146.88 233.95968 
L 147.129385 235.73376 
L 147.378771 235.73376 
L 147.877542 251.70048 
L 148.126927 253.47456 
L 148.376313 257.02272 
L 148.625698 257.02272 
L 148.875084 257.90976 
L 149.124469 252.58752 
L 149.373855 255.24864 
L 149.62324 254.3616 
L 149.872626 254.3616 
L 150.122011 253.47456 
L 150.371397 258.7968 
L 150.620782 261.45792 
L 150.870168 268.55424 
L 151.618324 276.5376 
L 151.867709 283.63392 
L 152.117095 284.52096 
L 152.36648 284.52096 
L 152.615866 285.408 
L 152.865251 285.408 
L 153.114637 284.52096 
L 153.364022 280.9728 
L 153.862793 287.18208 
L 154.361564 296.93952 
L 154.61095 304.92288 
L 154.860335 307.584 
L 166.581453 307.584 
L 167.329609 304.92288 
L 167.578994 307.584 
L 171.818547 307.584 
L 172.067933 304.92288 
L 172.317318 304.03584 
L 172.816089 300.48768 
L 173.065475 302.26176 
L 173.31486 301.37472 
L 173.564246 305.80992 
L 173.813631 307.584 
L 187.280447 307.584 
L 188.028603 293.39136 
L 188.77676 273.87648 
L 189.275531 264.11904 
L 189.774302 241.056 
L 190.273073 218.88 
L 190.522458 211.78368 
L 190.771844 194.92992 
L 191.270615 190.49472 
L 191.52 189.60768 
L 192.018771 189.60768 
L 192.268156 188.72064 
L 192.517542 175.41504 
L 192.766927 176.30208 
L 193.016313 175.41504 
L 193.265698 179.85024 
L 193.515084 189.60768 
L 193.764469 191.38176 
L 194.013855 197.59104 
L 194.512626 199.36512 
L 195.011397 204.68736 
L 195.260782 205.5744 
L 195.510168 207.34848 
L 196.008939 214.4448 
L 196.258324 216.21888 
L 196.507709 213.55776 
L 196.757095 215.33184 
L 197.00648 215.33184 
L 197.255866 214.4448 
L 197.505251 212.67072 
L 197.754637 213.55776 
L 198.004022 211.78368 
L 198.502793 211.78368 
L 198.752179 208.23552 
L 199.001564 207.34848 
L 199.25095 204.68736 
L 199.749721 194.92992 
L 199.999106 192.2688 
L 200.248492 182.51136 
L 200.497877 186.05952 
L 200.747263 187.8336 
L 200.996648 188.72064 
L 201.246034 186.94656 
L 201.495419 186.94656 
L 201.744804 185.17248 
L 202.243575 195.81696 
L 202.492961 197.59104 
L 202.742346 204.68736 
L 202.991732 216.21888 
L 203.241117 217.99296 
L 203.739888 217.99296 
L 203.989274 216.21888 
L 204.488045 225.97632 
L 204.73743 244.60416 
L 205.734972 255.24864 
L 206.483128 271.21536 
L 206.732514 271.21536 
L 206.981899 272.98944 
L 207.231285 271.21536 
L 207.48067 264.11904 
L 207.730056 262.34496 
L 208.478212 241.94304 
L 208.976983 241.94304 
L 209.226369 245.4912 
L 209.475754 252.58752 
L 209.72514 256.13568 
L 210.972067 284.52096 
L 211.470838 290.73024 
L 211.720223 296.93952 
L 211.969609 299.60064 
L 212.218994 300.48768 
L 212.717765 305.80992 
L 212.967151 305.80992 
L 213.216536 307.584 
L 216.707933 307.584 
L 217.456089 302.26176 
L 217.705475 299.60064 
L 218.204246 296.93952 
L 218.453631 293.39136 
L 218.703017 293.39136 
L 219.201788 300.48768 
L 219.451173 302.26176 
L 219.700559 305.80992 
L 220.19933 307.584 
L 223.441341 307.584 
L 223.690726 306.69696 
L 223.940112 306.69696 
L 224.189497 305.80992 
L 224.937654 297.82656 
L 225.187039 292.50432 
L 225.68581 268.55424 
L 225.935196 265.00608 
L 226.184581 264.11904 
L 226.683352 268.55424 
L 226.932737 267.6672 
L 227.182123 269.44128 
L 227.431508 269.44128 
L 227.680894 272.98944 
L 227.930279 271.21536 
L 228.179665 268.55424 
L 228.678436 257.90976 
L 228.927821 254.3616 
L 229.177207 242.83008 
L 229.426592 242.83008 
L 229.925363 241.056 
L 230.174749 244.60416 
L 230.424134 242.83008 
L 230.67352 249.9264 
L 230.922905 251.70048 
L 231.172291 257.90976 
L 231.421676 268.55424 
L 231.671061 272.1024 
L 232.169832 275.65056 
L 232.419218 278.31168 
L 232.668603 276.5376 
L 232.917989 278.31168 
L 233.167374 276.5376 
L 233.41676 280.08576 
L 233.666145 279.19872 
L 233.915531 280.08576 
L 234.164916 290.73024 
L 234.663687 303.1488 
L 234.913073 304.03584 
L 235.162458 307.584 
L 237.656313 307.584 
L 237.905698 305.80992 
L 238.155084 305.80992 
L 238.404469 306.69696 
L 238.653855 306.69696 
L 238.90324 307.584 
L 241.895866 307.584 
L 242.145251 306.69696 
L 244.389721 306.69696 
L 244.639106 305.80992 
L 244.888492 301.37472 
L 245.137877 300.48768 
L 245.387263 298.7136 
L 245.636648 297.82656 
L 246.135419 294.2784 
L 246.384804 291.61728 
L 246.63419 293.39136 
L 246.883575 296.93952 
L 247.132961 302.26176 
L 247.382346 303.1488 
L 247.631732 303.1488 
L 247.881117 304.03584 
L 248.130503 304.03584 
L 248.878659 306.69696 
L 253.616983 306.69696 
L 253.866369 307.584 
L 255.113296 307.584 
L 255.612067 301.37472 
L 255.861453 294.2784 
L 256.110838 290.73024 
L 256.360223 283.63392 
L 256.609609 280.9728 
L 257.607151 262.34496 
L 257.856536 263.232 
L 258.105922 263.232 
L 258.355307 259.68384 
L 258.854078 257.90976 
L 259.103464 258.7968 
L 259.352849 254.3616 
L 259.602235 254.3616 
L 259.85162 261.45792 
L 260.101006 264.11904 
L 260.350391 264.11904 
L 260.599777 262.34496 
L 261.597318 278.31168 
L 261.846704 281.85984 
L 262.096089 283.63392 
L 262.59486 291.61728 
L 262.844246 293.39136 
L 263.093631 296.93952 
L 263.592402 306.69696 
L 263.841788 307.584 
L 268.829497 307.584 
L 269.078883 306.69696 
L 269.328268 307.584 
L 272.819665 307.584 
L 273.318436 305.80992 
L 273.567821 303.1488 
L 273.817207 303.1488 
L 274.066592 301.37472 
L 274.315978 297.82656 
L 274.565363 297.82656 
L 274.814749 296.93952 
L 275.31352 296.93952 
L 275.562905 295.16544 
L 276.061676 295.16544 
L 276.311061 292.50432 
L 276.560447 291.61728 
L 276.809832 288.95616 
L 277.059218 288.06912 
L 277.308603 286.29504 
L 277.557989 282.74688 
L 277.807374 280.9728 
L 278.306145 270.32832 
L 279.802458 265.89312 
L 280.051844 259.68384 
L 280.301229 260.57088 
L 280.550615 258.7968 
L 280.8 257.90976 
L 281.049385 260.57088 
L 281.548156 273.87648 
L 281.797542 278.31168 
L 283.044469 282.74688 
L 283.293855 282.74688 
L 283.54324 284.52096 
L 283.792626 285.408 
L 287.533408 285.408 
L 287.782793 284.52096 
L 288.032179 280.9728 
L 288.281564 279.19872 
L 288.53095 276.5376 
L 288.780335 272.1024 
L 289.029721 273.87648 
L 289.528492 281.85984 
L 289.777877 288.06912 
L 290.027263 288.06912 
L 290.276648 287.18208 
L 290.526034 284.52096 
L 290.775419 285.408 
L 291.024804 293.39136 
L 291.27419 291.61728 
L 291.772961 281.85984 
L 292.271732 276.5376 
L 292.770503 268.55424 
L 293.019888 265.89312 
L 293.518659 256.13568 
L 293.768045 245.4912 
L 294.01743 241.94304 
L 294.516201 225.08928 
L 294.765587 215.33184 
L 295.264358 207.34848 
L 295.513743 204.68736 
L 295.763128 203.80032 
L 296.012514 199.36512 
L 296.261899 192.2688 
L 296.76067 186.05952 
L 297.010056 184.28544 
L 297.758212 180.73728 
L 298.007598 176.30208 
L 298.256983 160.33536 
L 298.506369 160.33536 
L 298.755754 162.10944 
L 299.503911 159.44832 
L 299.753296 155.01312 
L 300.002682 154.12608 
L 300.252067 155.90016 
L 300.501453 155.90016 
L 300.750838 156.7872 
L 301.498994 168.31872 
L 301.997765 170.0928 
L 302.496536 177.18912 
L 303.244693 187.8336 
L 303.992849 208.23552 
L 304.242235 210.0096 
L 304.49162 210.0096 
L 304.741006 209.12256 
L 304.990391 209.12256 
L 305.489162 207.34848 
L 305.738547 203.80032 
L 305.987933 202.91328 
L 306.486704 194.92992 
L 306.736089 194.04288 
L 307.733631 178.07616 
L 307.983017 177.18912 
L 308.232402 177.18912 
L 308.481788 176.30208 
L 308.980559 172.75392 
L 309.229944 172.75392 
L 309.47933 169.20576 
L 309.728715 168.31872 
L 310.975642 155.90016 
L 311.225028 157.67424 
L 311.474413 156.7872 
L 311.723799 155.01312 
L 311.973184 151.46496 
L 312.22257 152.352 
L 312.471955 151.46496 
L 312.970726 147.02976 
L 313.220112 145.25568 
L 314.217654 118.64448 
L 314.467039 109.77408 
L 314.716425 106.22592 
L 314.96581 107.11296 
L 315.464581 107.11296 
L 315.713966 108 
L 315.963352 113.32224 
L 316.462123 128.40192 
L 320.452291 128.40192 
L 320.701676 129.28896 
L 320.951061 131.06304 
L 321.200447 133.72416 
L 321.449832 134.6112 
L 321.948603 140.82048 
L 322.197989 140.82048 
L 322.447374 141.70752 
L 322.69676 144.36864 
L 322.946145 149.69088 
L 323.444916 169.20576 
L 323.694302 175.41504 
L 323.943687 176.30208 
L 324.442458 192.2688 
L 324.691844 186.05952 
L 325.190615 198.47808 
L 325.44 196.704 
L 325.689385 198.47808 
L 325.938771 195.81696 
L 326.437542 186.05952 
L 326.936313 178.9632 
L 327.684469 178.9632 
L 327.933855 176.30208 
L 328.18324 178.9632 
L 328.432626 175.41504 
L 328.682011 173.64096 
L 328.931397 173.64096 
L 329.180782 175.41504 
L 329.430168 172.75392 
L 329.679553 178.9632 
L 330.677095 214.4448 
L 330.92648 221.54112 
L 331.425251 229.52448 
L 331.674637 234.84672 
L 331.924022 235.73376 
L 332.173408 233.07264 
L 332.422793 237.50784 
L 334.667263 243.71712 
L 334.916648 247.26528 
L 335.166034 248.15232 
L 335.415419 249.9264 
L 335.91419 257.02272 
L 336.163575 259.68384 
L 336.412961 264.11904 
L 336.662346 271.21536 
L 336.911732 286.29504 
L 337.161117 288.06912 
L 337.410503 288.06912 
L 337.659888 282.74688 
L 337.909274 284.52096 
L 338.65743 281.85984 
L 338.906816 293.39136 
L 339.156201 292.50432 
L 339.405587 290.73024 
L 339.904358 288.95616 
L 340.153743 285.408 
L 340.403128 280.08576 
L 340.652514 278.31168 
L 341.40067 262.34496 
L 341.899441 243.71712 
L 343.395754 208.23552 
L 343.64514 203.80032 
L 343.894525 204.68736 
L 344.143911 204.68736 
L 344.642682 197.59104 
L 344.892067 197.59104 
L 345.141453 199.36512 
L 345.390838 203.80032 
L 345.640223 203.80032 
L 345.889609 206.46144 
L 346.38838 202.91328 
L 348.383464 200.25216 
L 348.632849 208.23552 
L 349.879777 225.97632 
L 350.129162 226.86336 
L 351.625475 226.86336 
L 351.87486 225.08928 
L 352.124246 224.20224 
L 352.373631 219.76704 
L 352.623017 218.88 
L 352.872402 192.2688 
L 353.121788 183.3984 
L 353.371173 180.73728 
L 353.869944 153.23904 
L 354.11933 147.02976 
L 354.368715 144.36864 
L 354.867486 146.14272 
L 355.116872 147.9168 
L 355.366257 150.57792 
L 355.865028 145.25568 
L 356.363799 144.36864 
L 356.86257 137.27232 
L 357.111955 140.82048 
L 357.361341 147.9168 
L 357.860112 153.23904 
L 358.109497 154.12608 
L 358.358883 159.44832 
L 358.608268 160.33536 
L 358.857654 158.56128 
L 359.107039 150.57792 
L 359.356425 155.01312 
L 359.855196 147.9168 
L 360.104581 150.57792 
L 360.603352 158.56128 
L 360.852737 158.56128 
L 361.102123 159.44832 
L 361.351508 159.44832 
L 361.600894 158.56128 
L 361.850279 151.46496 
L 364.094749 153.23904 
L 364.344134 156.7872 
L 364.59352 158.56128 
L 364.842905 161.2224 
L 365.092291 160.33536 
L 366.588603 160.33536 
L 366.837989 161.2224 
L 367.087374 165.6576 
L 367.33676 175.41504 
L 367.586145 176.30208 
L 367.835531 178.07616 
L 368.084916 178.9632 
L 368.334302 181.62432 
L 368.583687 186.94656 
L 368.833073 204.68736 
L 369.082458 210.0096 
L 370.08 212.67072 
L 371.077542 227.7504 
L 371.326927 233.95968 
L 371.825698 240.16896 
L 372.075084 240.16896 
L 372.324469 237.50784 
L 372.573855 237.50784 
L 372.82324 230.41152 
L 373.072626 231.29856 
L 373.322011 230.41152 
L 373.571397 228.63744 
L 374.070168 239.28192 
L 374.319553 240.16896 
L 374.568939 238.39488 
L 374.818324 237.50784 
L 375.56648 233.07264 
L 376.065251 227.7504 
L 376.314637 233.95968 
L 376.564022 230.41152 
L 376.813408 238.39488 
L 377.062793 241.056 
L 377.312179 241.94304 
L 377.561564 236.6208 
L 379.556648 167.43168 
L 380.055419 159.44832 
L 381.551732 110.66112 
L 381.801117 109.77408 
L 382.050503 110.66112 
L 382.299888 107.11296 
L 382.549274 105.33888 
L 382.798659 102.67776 
L 383.29743 100.90368 
L 383.546816 101.79072 
L 384.544358 101.79072 
L 384.793743 100.90368 
L 385.043128 100.90368 
L 385.292514 93.80736 
L 385.541899 90.2592 
L 385.791285 91.14624 
L 386.04067 95.58144 
L 386.290056 97.35552 
L 386.788827 108.88704 
L 387.038212 109.77408 
L 387.287598 108.88704 
L 387.536983 110.66112 
L 387.786369 116.8704 
L 388.035754 119.53152 
L 388.28514 123.96672 
L 388.534525 125.7408 
L 388.783911 125.7408 
L 389.033296 123.96672 
L 389.282682 120.41856 
L 389.532067 115.09632 
L 389.781453 106.22592 
L 390.030838 104.45184 
L 390.280223 100.90368 
L 390.529609 91.14624 
L 390.778994 72.5184 
L 391.02838 78.72768 
L 391.277765 79.61472 
L 391.527151 83.16288 
L 393.023464 85.824 
L 393.522235 92.03328 
L 393.77162 93.80736 
L 394.021006 99.1296 
L 394.270391 100.90368 
L 394.519777 101.79072 
L 394.769162 99.1296 
L 395.018547 104.45184 
L 395.267933 98.24256 
L 395.517318 100.01664 
L 395.766704 94.6944 
L 396.016089 76.06656 
L 396.265475 77.84064 
L 396.764246 71.63136 
L 397.013631 66.30912 
L 397.263017 69.85728 
L 397.512402 69.85728 
L 397.761788 75.17952 
L 398.011173 77.84064 
L 398.260559 89.37216 
L 398.509944 95.58144 
L 399.008715 120.41856 
L 399.507486 130.176 
L 399.756872 144.36864 
L 400.505028 155.01312 
L 400.754413 155.90016 
L 401.253184 152.352 
L 401.50257 140.82048 
L 401.751955 142.59456 
L 402.001341 147.9168 
L 402.250726 145.25568 
L 402.500112 152.352 
L 403.248268 188.72064 
L 403.747039 200.25216 
L 403.996425 201.1392 
L 404.24581 201.1392 
L 404.744581 210.0096 
L 405.243352 218.88 
L 405.492737 217.99296 
L 405.991508 226.86336 
L 406.490279 249.9264 
L 406.739665 250.81344 
L 407.238436 260.57088 
L 407.487821 263.232 
L 407.737207 267.6672 
L 407.986592 274.76352 
L 408.235978 275.65056 
L 408.734749 295.16544 
L 408.984134 302.26176 
L 409.23352 304.03584 
L 409.732291 304.03584 
L 409.981676 305.80992 
L 410.231061 306.69696 
L 410.979218 306.69696 
L 411.228603 307.584 
L 414.72 307.584 
L 414.72 307.584 
" style="fill:none;stroke:#ff7f0e;"/>
   </g>
   <g id="patch_3">
    <path d="M 57.6 307.584 
L 57.6 41.472 
" style="fill:none;stroke:#000000;stroke-linecap:square;stroke-linejoin:miter;stroke-width:0.8;"/>
   </g>
   <g id="patch_4">
    <path d="M 414.72 307.584 
L 414.72 41.472 
" style="fill:none;stroke:#000000;stroke-linecap:square;stroke-linejoin:miter;stroke-width:0.8;"/>
   </g>
   <g id="patch_5">
    <path d="M 57.6 307.584 
L 414.72 307.584 
" style="fill:none;stroke:#000000;stroke-linecap:square;stroke-linejoin:miter;stroke-width:0.8;"/>
   </g>
   <g id="patch_6">
    <path d="M 57.6 41.472 
L 414.72 41.472 
" style="fill:none;stroke:#000000;stroke-linecap:square;stroke-linejoin:miter;stroke-width:0.8;"/>
   </g>
   <g id="legend_1">
    <g id="patch_7">
     <path d="M 62.6 79.3845 
L 394.735937 79.3845 
L 394.735937 46.472 
L 62.6 46.472 
z
" style="fill:#ffffff;stroke:#000000;stroke-linejoin:miter;"/>
    </g>
    <g id="line2d_18">
     <path d="M 66.6 54.570438 
L 86.6 54.570438 
" style="fill:none;stroke:#1f77b4;"/>
    </g>
    <g id="line2d_19"/>
    <g id="text_18">
     <!-- sa_cas9/blast_refseq_5000/mafft/loophash (N=2119) -->
     <defs>
      <path d="M 50.984375 -16.609375 
L 50.984375 -23.578125 
L -0.984375 -23.578125 
L -0.984375 -16.609375 
z
" id="DejaVuSans-95"/>
      <path d="M 48.78125 52.59375 
L 48.78125 44.1875 
Q 44.96875 46.296875 41.140625 47.34375 
Q 37.3125 48.390625 33.40625 48.390625 
Q 24.65625 48.390625 19.8125 42.84375 
Q 14.984375 37.3125 14.984375 27.296875 
Q 14.984375 17.28125 19.8125 11.734375 
Q 24.65625 6.203125 33.40625 6.203125 
Q 37.3125 6.203125 41.140625 7.25 
Q 44.96875 8.296875 48.78125 10.40625 
L 48.78125 2.09375 
Q 45.015625 0.34375 40.984375 -0.53125 
Q 36.96875 -1.421875 32.421875 -1.421875 
Q 20.0625 -1.421875 12.78125 6.34375 
Q 5.515625 14.109375 5.515625 27.296875 
Q 5.515625 40.671875 12.859375 48.328125 
Q 20.21875 56 33.015625 56 
Q 37.15625 56 41.109375 55.140625 
Q 45.0625 54.296875 48.78125 52.59375 
z
" id="DejaVuSans-99"/>
      <path d="M 10.984375 1.515625 
L 10.984375 10.5 
Q 14.703125 8.734375 18.5 7.8125 
Q 22.3125 6.890625 25.984375 6.890625 
Q 35.75 6.890625 40.890625 13.453125 
Q 46.046875 20.015625 46.78125 33.40625 
Q 43.953125 29.203125 39.59375 26.953125 
Q 35.25 24.703125 29.984375 24.703125 
Q 19.046875 24.703125 12.671875 31.3125 
Q 6.296875 37.9375 6.296875 49.421875 
Q 6.296875 60.640625 12.9375 67.421875 
Q 19.578125 74.21875 30.609375 74.21875 
Q 43.265625 74.21875 49.921875 64.515625 
Q 56.59375 54.828125 56.59375 36.375 
Q 56.59375 19.140625 48.40625 8.859375 
Q 40.234375 -1.421875 26.421875 -1.421875 
Q 22.703125 -1.421875 18.890625 -0.6875 
Q 15.09375 0.046875 10.984375 1.515625 
z
M 30.609375 32.421875 
Q 37.25 32.421875 41.125 36.953125 
Q 45.015625 41.5 45.015625 49.421875 
Q 45.015625 57.28125 41.125 61.84375 
Q 37.25 66.40625 30.609375 66.40625 
Q 23.96875 66.40625 20.09375 61.84375 
Q 16.21875 57.28125 16.21875 49.421875 
Q 16.21875 41.5 20.09375 36.953125 
Q 23.96875 32.421875 30.609375 32.421875 
z
" id="DejaVuSans-57"/>
      <path d="M 25.390625 72.90625 
L 33.6875 72.90625 
L 8.296875 -9.28125 
L 0 -9.28125 
z
" id="DejaVuSans-47"/>
      <path d="M 48.6875 27.296875 
Q 48.6875 37.203125 44.609375 42.84375 
Q 40.53125 48.484375 33.40625 48.484375 
Q 26.265625 48.484375 22.1875 42.84375 
Q 18.109375 37.203125 18.109375 27.296875 
Q 18.109375 17.390625 22.1875 11.75 
Q 26.265625 6.109375 33.40625 6.109375 
Q 40.53125 6.109375 44.609375 11.75 
Q 48.6875 17.390625 48.6875 27.296875 
z
M 18.109375 46.390625 
Q 20.953125 51.265625 25.265625 53.625 
Q 29.59375 56 35.59375 56 
Q 45.5625 56 51.78125 48.09375 
Q 58.015625 40.1875 58.015625 27.296875 
Q 58.015625 14.40625 51.78125 6.484375 
Q 45.5625 -1.421875 35.59375 -1.421875 
Q 29.59375 -1.421875 25.265625 0.953125 
Q 20.953125 3.328125 18.109375 8.203125 
L 18.109375 0 
L 9.078125 0 
L 9.078125 75.984375 
L 18.109375 75.984375 
z
" id="DejaVuSans-98"/>
      <path d="M 37.109375 75.984375 
L 37.109375 68.5 
L 28.515625 68.5 
Q 23.6875 68.5 21.796875 66.546875 
Q 19.921875 64.59375 19.921875 59.515625 
L 19.921875 54.6875 
L 34.71875 54.6875 
L 34.71875 47.703125 
L 19.921875 47.703125 
L 19.921875 0 
L 10.890625 0 
L 10.890625 47.703125 
L 2.296875 47.703125 
L 2.296875 54.6875 
L 10.890625 54.6875 
L 10.890625 58.5 
Q 10.890625 67.625 15.140625 71.796875 
Q 19.390625 75.984375 28.609375 75.984375 
z
" id="DejaVuSans-102"/>
      <path d="M 14.796875 27.296875 
Q 14.796875 17.390625 18.875 11.75 
Q 22.953125 6.109375 30.078125 6.109375 
Q 37.203125 6.109375 41.296875 11.75 
Q 45.40625 17.390625 45.40625 27.296875 
Q 45.40625 37.203125 41.296875 42.84375 
Q 37.203125 48.484375 30.078125 48.484375 
Q 22.953125 48.484375 18.875 42.84375 
Q 14.796875 37.203125 14.796875 27.296875 
z
M 45.40625 8.203125 
Q 42.578125 3.328125 38.25 0.953125 
Q 33.9375 -1.421875 27.875 -1.421875 
Q 17.96875 -1.421875 11.734375 6.484375 
Q 5.515625 14.40625 5.515625 27.296875 
Q 5.515625 40.1875 11.734375 48.09375 
Q 17.96875 56 27.875 56 
Q 33.9375 56 38.25 53.625 
Q 42.578125 51.265625 45.40625 46.390625 
L 45.40625 54.6875 
L 54.390625 54.6875 
L 54.390625 -20.796875 
L 45.40625 -20.796875 
z
" id="DejaVuSans-113"/>
      <path d="M 52 44.1875 
Q 55.375 50.25 60.0625 53.125 
Q 64.75 56 71.09375 56 
Q 79.640625 56 84.28125 50.015625 
Q 88.921875 44.046875 88.921875 33.015625 
L 88.921875 0 
L 79.890625 0 
L 79.890625 32.71875 
Q 79.890625 40.578125 77.09375 44.375 
Q 74.3125 48.1875 68.609375 48.1875 
Q 61.625 48.1875 57.5625 43.546875 
Q 53.515625 38.921875 53.515625 30.90625 
L 53.515625 0 
L 44.484375 0 
L 44.484375 32.71875 
Q 44.484375 40.625 41.703125 44.40625 
Q 38.921875 48.1875 33.109375 48.1875 
Q 26.21875 48.1875 22.15625 43.53125 
Q 18.109375 38.875 18.109375 30.90625 
L 18.109375 0 
L 9.078125 0 
L 9.078125 54.6875 
L 18.109375 54.6875 
L 18.109375 46.1875 
Q 21.1875 51.21875 25.484375 53.609375 
Q 29.78125 56 35.6875 56 
Q 41.65625 56 45.828125 52.96875 
Q 50 49.953125 52 44.1875 
z
" id="DejaVuSans-109"/>
      <path d="M 18.109375 8.203125 
L 18.109375 -20.796875 
L 9.078125 -20.796875 
L 9.078125 54.6875 
L 18.109375 54.6875 
L 18.109375 46.390625 
Q 20.953125 51.265625 25.265625 53.625 
Q 29.59375 56 35.59375 56 
Q 45.5625 56 51.78125 48.09375 
Q 58.015625 40.1875 58.015625 27.296875 
Q 58.015625 14.40625 51.78125 6.484375 
Q 45.5625 -1.421875 35.59375 -1.421875 
Q 29.59375 -1.421875 25.265625 0.953125 
Q 20.953125 3.328125 18.109375 8.203125 
z
M 48.6875 27.296875 
Q 48.6875 37.203125 44.609375 42.84375 
Q 40.53125 48.484375 33.40625 48.484375 
Q 26.265625 48.484375 22.1875 42.84375 
Q 18.109375 37.203125 18.109375 27.296875 
Q 18.109375 17.390625 22.1875 11.75 
Q 26.265625 6.109375 33.40625 6.109375 
Q 40.53125 6.109375 44.609375 11.75 
Q 48.6875 17.390625 48.6875 27.296875 
z
" id="DejaVuSans-112"/>
      <path d="M 54.890625 33.015625 
L 54.890625 0 
L 45.90625 0 
L 45.90625 32.71875 
Q 45.90625 40.484375 42.875 44.328125 
Q 39.84375 48.1875 33.796875 48.1875 
Q 26.515625 48.1875 22.3125 43.546875 
Q 18.109375 38.921875 18.109375 30.90625 
L 18.109375 0 
L 9.078125 0 
L 9.078125 75.984375 
L 18.109375 75.984375 
L 18.109375 46.1875 
Q 21.34375 51.125 25.703125 53.5625 
Q 30.078125 56 35.796875 56 
Q 45.21875 56 50.046875 50.171875 
Q 54.890625 44.34375 54.890625 33.015625 
z
" id="DejaVuSans-104"/>
      <path d="M 31 75.875 
Q 24.46875 64.65625 21.28125 53.65625 
Q 18.109375 42.671875 18.109375 31.390625 
Q 18.109375 20.125 21.3125 9.0625 
Q 24.515625 -2 31 -13.1875 
L 23.1875 -13.1875 
Q 15.875 -1.703125 12.234375 9.375 
Q 8.59375 20.453125 8.59375 31.390625 
Q 8.59375 42.28125 12.203125 53.3125 
Q 15.828125 64.359375 23.1875 75.875 
z
" id="DejaVuSans-40"/>
      <path d="M 9.8125 72.90625 
L 23.09375 72.90625 
L 55.421875 11.921875 
L 55.421875 72.90625 
L 64.984375 72.90625 
L 64.984375 0 
L 51.703125 0 
L 19.390625 60.984375 
L 19.390625 0 
L 9.8125 0 
z
" id="DejaVuSans-78"/>
      <path d="M 10.59375 45.40625 
L 73.1875 45.40625 
L 73.1875 37.203125 
L 10.59375 37.203125 
z
M 10.59375 25.484375 
L 73.1875 25.484375 
L 73.1875 17.1875 
L 10.59375 17.1875 
z
" id="DejaVuSans-61"/>
      <path d="M 8.015625 75.875 
L 15.828125 75.875 
Q 23.140625 64.359375 26.78125 53.3125 
Q 30.421875 42.28125 30.421875 31.390625 
Q 30.421875 20.453125 26.78125 9.375 
Q 23.140625 -1.703125 15.828125 -13.1875 
L 8.015625 -13.1875 
Q 14.5 -2 17.703125 9.0625 
Q 20.90625 20.125 20.90625 31.390625 
Q 20.90625 42.671875 17.703125 53.65625 
Q 14.5 64.65625 8.015625 75.875 
z
" id="DejaVuSans-41"/>
     </defs>
     <g transform="translate(94.6 58.070438)scale(0.1 -0.1)">
      <use xlink:href="#DejaVuSans-115"/>
      <use x="52.099609" xlink:href="#DejaVuSans-97"/>
      <use x="113.378906" xlink:href="#DejaVuSans-95"/>
      <use x="163.378906" xlink:href="#DejaVuSans-99"/>
      <use x="218.359375" xlink:href="#DejaVuSans-97"/>
      <use x="279.638672" xlink:href="#DejaVuSans-115"/>
      <use x="331.738281" xlink:href="#DejaVuSans-57"/>
      <use x="395.361328" xlink:href="#DejaVuSans-47"/>
      <use x="429.052734" xlink:href="#DejaVuSans-98"/>
      <use x="492.529297" xlink:href="#DejaVuSans-108"/>
      <use x="520.3125" xlink:href="#DejaVuSans-97"/>
      <use x="581.591797" xlink:href="#DejaVuSans-115"/>
      <use x="633.691406" xlink:href="#DejaVuSans-116"/>
      <use x="672.900391" xlink:href="#DejaVuSans-95"/>
      <use x="722.900391" xlink:href="#DejaVuSans-114"/>
      <use x="763.982422" xlink:href="#DejaVuSans-101"/>
      <use x="825.505859" xlink:href="#DejaVuSans-102"/>
      <use x="860.710938" xlink:href="#DejaVuSans-115"/>
      <use x="912.810547" xlink:href="#DejaVuSans-101"/>
      <use x="974.333984" xlink:href="#DejaVuSans-113"/>
      <use x="1037.810547" xlink:href="#DejaVuSans-95"/>
      <use x="1087.810547" xlink:href="#DejaVuSans-53"/>
      <use x="1151.433594" xlink:href="#DejaVuSans-48"/>
      <use x="1215.056641" xlink:href="#DejaVuSans-48"/>
      <use x="1278.679688" xlink:href="#DejaVuSans-48"/>
      <use x="1342.302734" xlink:href="#DejaVuSans-47"/>
      <use x="1375.994141" xlink:href="#DejaVuSans-109"/>
      <use x="1473.40625" xlink:href="#DejaVuSans-97"/>
      <use x="1534.685547" xlink:href="#DejaVuSans-102"/>
      <use x="1569.890625" xlink:href="#DejaVuSans-102"/>
      <use x="1605.080078" xlink:href="#DejaVuSans-116"/>
      <use x="1644.289062" xlink:href="#DejaVuSans-47"/>
      <use x="1677.980469" xlink:href="#DejaVuSans-108"/>
      <use x="1705.763672" xlink:href="#DejaVuSans-111"/>
      <use x="1766.945312" xlink:href="#DejaVuSans-111"/>
      <use x="1828.126953" xlink:href="#DejaVuSans-112"/>
      <use x="1891.603516" xlink:href="#DejaVuSans-104"/>
      <use x="1954.982422" xlink:href="#DejaVuSans-97"/>
      <use x="2016.261719" xlink:href="#DejaVuSans-115"/>
      <use x="2068.361328" xlink:href="#DejaVuSans-104"/>
      <use x="2131.740234" xlink:href="#DejaVuSans-32"/>
      <use x="2163.527344" xlink:href="#DejaVuSans-40"/>
      <use x="2202.541016" xlink:href="#DejaVuSans-78"/>
      <use x="2277.345703" xlink:href="#DejaVuSans-61"/>
      <use x="2361.134766" xlink:href="#DejaVuSans-50"/>
      <use x="2424.757812" xlink:href="#DejaVuSans-49"/>
      <use x="2488.380859" xlink:href="#DejaVuSans-49"/>
      <use x="2552.003906" xlink:href="#DejaVuSans-57"/>
      <use x="2615.626953" xlink:href="#DejaVuSans-41"/>
     </g>
    </g>
    <g id="line2d_20">
     <path d="M 66.6 69.526688 
L 86.6 69.526688 
" style="fill:none;stroke:#ff7f0e;"/>
    </g>
    <g id="line2d_21"/>
    <g id="text_19">
     <!-- sp_cas9/blast_refseq_5000/mafft_2000/loophash (N=2428) -->
     <g transform="translate(94.6 73.026688)scale(0.1 -0.1)">
      <use xlink:href="#DejaVuSans-115"/>
      <use x="52.099609" xlink:href="#DejaVuSans-112"/>
      <use x="115.576172" xlink:href="#DejaVuSans-95"/>
      <use x="165.576172" xlink:href="#DejaVuSans-99"/>
      <use x="220.556641" xlink:href="#DejaVuSans-97"/>
      <use x="281.835938" xlink:href="#DejaVuSans-115"/>
      <use x="333.935547" xlink:href="#DejaVuSans-57"/>
      <use x="397.558594" xlink:href="#DejaVuSans-47"/>
      <use x="431.25" xlink:href="#DejaVuSans-98"/>
      <use x="494.726562" xlink:href="#DejaVuSans-108"/>
      <use x="522.509766" xlink:href="#DejaVuSans-97"/>
      <use x="583.789062" xlink:href="#DejaVuSans-115"/>
      <use x="635.888672" xlink:href="#DejaVuSans-116"/>
      <use x="675.097656" xlink:href="#DejaVuSans-95"/>
      <use x="725.097656" xlink:href="#DejaVuSans-114"/>
      <use x="766.179688" xlink:href="#DejaVuSans-101"/>
      <use x="827.703125" xlink:href="#DejaVuSans-102"/>
      <use x="862.908203" xlink:href="#DejaVuSans-115"/>
      <use x="915.007812" xlink:href="#DejaVuSans-101"/>
      <use x="976.53125" xlink:href="#DejaVuSans-113"/>
      <use x="1040.007812" xlink:href="#DejaVuSans-95"/>
      <use x="1090.007812" xlink:href="#DejaVuSans-53"/>
      <use x="1153.630859" xlink:href="#DejaVuSans-48"/>
      <use x="1217.253906" xlink:href="#DejaVuSans-48"/>
      <use x="1280.876953" xlink:href="#DejaVuSans-48"/>
      <use x="1344.5" xlink:href="#DejaVuSans-47"/>
      <use x="1378.191406" xlink:href="#DejaVuSans-109"/>
      <use x="1475.603516" xlink:href="#DejaVuSans-97"/>
      <use x="1536.882812" xlink:href="#DejaVuSans-102"/>
      <use x="1572.087891" xlink:href="#DejaVuSans-102"/>
      <use x="1607.277344" xlink:href="#DejaVuSans-116"/>
      <use x="1646.486328" xlink:href="#DejaVuSans-95"/>
      <use x="1696.486328" xlink:href="#DejaVuSans-50"/>
      <use x="1760.109375" xlink:href="#DejaVuSans-48"/>
      <use x="1823.732422" xlink:href="#DejaVuSans-48"/>
      <use x="1887.355469" xlink:href="#DejaVuSans-48"/>
      <use x="1950.978516" xlink:href="#DejaVuSans-47"/>
      <use x="1984.669922" xlink:href="#DejaVuSans-108"/>
      <use x="2012.453125" xlink:href="#DejaVuSans-111"/>
      <use x="2073.634766" xlink:href="#DejaVuSans-111"/>
      <use x="2134.816406" xlink:href="#DejaVuSans-112"/>
      <use x="2198.292969" xlink:href="#DejaVuSans-104"/>
      <use x="2261.671875" xlink:href="#DejaVuSans-97"/>
      <use x="2322.951172" xlink:href="#DejaVuSans-115"/>
      <use x="2375.050781" xlink:href="#DejaVuSans-104"/>
      <use x="2438.429688" xlink:href="#DejaVuSans-32"/>
      <use x="2470.216797" xlink:href="#DejaVuSans-40"/>
      <use x="2509.230469" xlink:href="#DejaVuSans-78"/>
      <use x="2584.035156" xlink:href="#DejaVuSans-61"/>
      <use x="2667.824219" xlink:href="#DejaVuSans-50"/>
      <use x="2731.447266" xlink:href="#DejaVuSans-52"/>
      <use x="2795.070312" xlink:href="#DejaVuSans-50"/>
      <use x="2858.693359" xlink:href="#DejaVuSans-56"/>
      <use x="2922.316406" xlink:href="#DejaVuSans-41"/>
     </g>
    </g>
   </g>
  </g>
 </g>
 <defs>
  <clipPath id="paf399709d5">
   <rect height="266.112" width="357.12" x="57.6" y="41.472"/>
  </clipPath>
 </defs>
</svg>
