<?xml version="1.0" encoding="utf-8" standalone="no"?>
<!DOCTYPE svg PUBLIC "-//W3C//DTD SVG 1.1//EN"
  "http://www.w3.org/Graphics/SVG/1.1/DTD/svg11.dtd">
<!-- Created with matplotlib (https://matplotlib.org/) -->
<svg height="345.6pt" version="1.1" viewBox="0 0 460.8 345.6" width="460.8pt" xmlns="http://www.w3.org/2000/svg" xmlns:xlink="http://www.w3.org/1999/xlink">
 <defs>
  <style type="text/css">
*{stroke-linecap:butt;stroke-linejoin:round;}
  </style>
 </defs>
 <g id="figure_1">
  <g id="patch_1">
   <path d="M 0 345.6 
L 460.8 345.6 
L 460.8 0 
L 0 0 
z
" style="fill:none;"/>
  </g>
  <g id="axes_1">
   <g id="patch_2">
    <path d="M 57.6 307.584 
L 414.72 307.584 
L 414.72 41.472 
L 57.6 41.472 
z
" style="fill:#ffffff;"/>
   </g>
   <g id="matplotlib.axis_1">
    <g id="xtick_1">
     <g id="line2d_1">
      <defs>
       <path d="M 0 0 
L 0 3.5 
" id="m2dc55428b0" style="stroke:#000000;stroke-width:0.8;"/>
      </defs>
      <g>
       <use style="stroke:#000000;stroke-width:0.8;" x="57.6" xlink:href="#m2dc55428b0" y="307.584"/>
      </g>
     </g>
     <g id="text_1">
      <!-- 0 -->
      <defs>
       <path d="M 31.78125 66.40625 
Q 24.171875 66.40625 20.328125 58.90625 
Q 16.5 51.421875 16.5 36.375 
Q 16.5 21.390625 20.328125 13.890625 
Q 24.171875 6.390625 31.78125 6.390625 
Q 39.453125 6.390625 43.28125 13.890625 
Q 47.125 21.390625 47.125 36.375 
Q 47.125 51.421875 43.28125 58.90625 
Q 39.453125 66.40625 31.78125 66.40625 
z
M 31.78125 74.21875 
Q 44.046875 74.21875 50.515625 64.515625 
Q 56.984375 54.828125 56.984375 36.375 
Q 56.984375 17.96875 50.515625 8.265625 
Q 44.046875 -1.421875 31.78125 -1.421875 
Q 19.53125 -1.421875 13.0625 8.265625 
Q 6.59375 17.96875 6.59375 36.375 
Q 6.59375 54.828125 13.0625 64.515625 
Q 19.53125 74.21875 31.78125 74.21875 
z
" id="DejaVuSans-48"/>
      </defs>
      <g transform="translate(54.41875 322.182437)scale(0.1 -0.1)">
       <use xlink:href="#DejaVuSans-48"/>
      </g>
     </g>
    </g>
    <g id="xtick_2">
     <g id="line2d_2">
      <g>
       <use style="stroke:#000000;stroke-width:0.8;" x="107.477095" xlink:href="#m2dc55428b0" y="307.584"/>
      </g>
     </g>
     <g id="text_2">
      <!-- 200 -->
      <defs>
       <path d="M 19.1875 8.296875 
L 53.609375 8.296875 
L 53.609375 0 
L 7.328125 0 
L 7.328125 8.296875 
Q 12.9375 14.109375 22.625 23.890625 
Q 32.328125 33.6875 34.8125 36.53125 
Q 39.546875 41.84375 41.421875 45.53125 
Q 43.3125 49.21875 43.3125 52.78125 
Q 43.3125 58.59375 39.234375 62.25 
Q 35.15625 65.921875 28.609375 65.921875 
Q 23.96875 65.921875 18.8125 64.3125 
Q 13.671875 62.703125 7.8125 59.421875 
L 7.8125 69.390625 
Q 13.765625 71.78125 18.9375 73 
Q 24.125 74.21875 28.421875 74.21875 
Q 39.75 74.21875 46.484375 68.546875 
Q 53.21875 62.890625 53.21875 53.421875 
Q 53.21875 48.921875 51.53125 44.890625 
Q 49.859375 40.875 45.40625 35.40625 
Q 44.1875 33.984375 37.640625 27.21875 
Q 31.109375 20.453125 19.1875 8.296875 
z
" id="DejaVuSans-50"/>
      </defs>
      <g transform="translate(97.933345 322.182437)scale(0.1 -0.1)">
       <use xlink:href="#DejaVuSans-50"/>
       <use x="63.623047" xlink:href="#DejaVuSans-48"/>
       <use x="127.246094" xlink:href="#DejaVuSans-48"/>
      </g>
     </g>
    </g>
    <g id="xtick_3">
     <g id="line2d_3">
      <g>
       <use style="stroke:#000000;stroke-width:0.8;" x="157.35419" xlink:href="#m2dc55428b0" y="307.584"/>
      </g>
     </g>
     <g id="text_3">
      <!-- 400 -->
      <defs>
       <path d="M 37.796875 64.3125 
L 12.890625 25.390625 
L 37.796875 25.390625 
z
M 35.203125 72.90625 
L 47.609375 72.90625 
L 47.609375 25.390625 
L 58.015625 25.390625 
L 58.015625 17.1875 
L 47.609375 17.1875 
L 47.609375 0 
L 37.796875 0 
L 37.796875 17.1875 
L 4.890625 17.1875 
L 4.890625 26.703125 
z
" id="DejaVuSans-52"/>
      </defs>
      <g transform="translate(147.81044 322.182437)scale(0.1 -0.1)">
       <use xlink:href="#DejaVuSans-52"/>
       <use x="63.623047" xlink:href="#DejaVuSans-48"/>
       <use x="127.246094" xlink:href="#DejaVuSans-48"/>
      </g>
     </g>
    </g>
    <g id="xtick_4">
     <g id="line2d_4">
      <g>
       <use style="stroke:#000000;stroke-width:0.8;" x="207.231285" xlink:href="#m2dc55428b0" y="307.584"/>
      </g>
     </g>
     <g id="text_4">
      <!-- 600 -->
      <defs>
       <path d="M 33.015625 40.375 
Q 26.375 40.375 22.484375 35.828125 
Q 18.609375 31.296875 18.609375 23.390625 
Q 18.609375 15.53125 22.484375 10.953125 
Q 26.375 6.390625 33.015625 6.390625 
Q 39.65625 6.390625 43.53125 10.953125 
Q 47.40625 15.53125 47.40625 23.390625 
Q 47.40625 31.296875 43.53125 35.828125 
Q 39.65625 40.375 33.015625 40.375 
z
M 52.59375 71.296875 
L 52.59375 62.3125 
Q 48.875 64.0625 45.09375 64.984375 
Q 41.3125 65.921875 37.59375 65.921875 
Q 27.828125 65.921875 22.671875 59.328125 
Q 17.53125 52.734375 16.796875 39.40625 
Q 19.671875 43.65625 24.015625 45.921875 
Q 28.375 48.1875 33.59375 48.1875 
Q 44.578125 48.1875 50.953125 41.515625 
Q 57.328125 34.859375 57.328125 23.390625 
Q 57.328125 12.15625 50.6875 5.359375 
Q 44.046875 -1.421875 33.015625 -1.421875 
Q 20.359375 -1.421875 13.671875 8.265625 
Q 6.984375 17.96875 6.984375 36.375 
Q 6.984375 53.65625 15.1875 63.9375 
Q 23.390625 74.21875 37.203125 74.21875 
Q 40.921875 74.21875 44.703125 73.484375 
Q 48.484375 72.75 52.59375 71.296875 
z
" id="DejaVuSans-54"/>
      </defs>
      <g transform="translate(197.687535 322.182437)scale(0.1 -0.1)">
       <use xlink:href="#DejaVuSans-54"/>
       <use x="63.623047" xlink:href="#DejaVuSans-48"/>
       <use x="127.246094" xlink:href="#DejaVuSans-48"/>
      </g>
     </g>
    </g>
    <g id="xtick_5">
     <g id="line2d_5">
      <g>
       <use style="stroke:#000000;stroke-width:0.8;" x="257.10838" xlink:href="#m2dc55428b0" y="307.584"/>
      </g>
     </g>
     <g id="text_5">
      <!-- 800 -->
      <defs>
       <path d="M 31.78125 34.625 
Q 24.75 34.625 20.71875 30.859375 
Q 16.703125 27.09375 16.703125 20.515625 
Q 16.703125 13.921875 20.71875 10.15625 
Q 24.75 6.390625 31.78125 6.390625 
Q 38.8125 6.390625 42.859375 10.171875 
Q 46.921875 13.96875 46.921875 20.515625 
Q 46.921875 27.09375 42.890625 30.859375 
Q 38.875 34.625 31.78125 34.625 
z
M 21.921875 38.8125 
Q 15.578125 40.375 12.03125 44.71875 
Q 8.5 49.078125 8.5 55.328125 
Q 8.5 64.0625 14.71875 69.140625 
Q 20.953125 74.21875 31.78125 74.21875 
Q 42.671875 74.21875 48.875 69.140625 
Q 55.078125 64.0625 55.078125 55.328125 
Q 55.078125 49.078125 51.53125 44.71875 
Q 48 40.375 41.703125 38.8125 
Q 48.828125 37.15625 52.796875 32.3125 
Q 56.78125 27.484375 56.78125 20.515625 
Q 56.78125 9.90625 50.3125 4.234375 
Q 43.84375 -1.421875 31.78125 -1.421875 
Q 19.734375 -1.421875 13.25 4.234375 
Q 6.78125 9.90625 6.78125 20.515625 
Q 6.78125 27.484375 10.78125 32.3125 
Q 14.796875 37.15625 21.921875 38.8125 
z
M 18.3125 54.390625 
Q 18.3125 48.734375 21.84375 45.5625 
Q 25.390625 42.390625 31.78125 42.390625 
Q 38.140625 42.390625 41.71875 45.5625 
Q 45.3125 48.734375 45.3125 54.390625 
Q 45.3125 60.0625 41.71875 63.234375 
Q 38.140625 66.40625 31.78125 66.40625 
Q 25.390625 66.40625 21.84375 63.234375 
Q 18.3125 60.0625 18.3125 54.390625 
z
" id="DejaVuSans-56"/>
      </defs>
      <g transform="translate(247.56463 322.182437)scale(0.1 -0.1)">
       <use xlink:href="#DejaVuSans-56"/>
       <use x="63.623047" xlink:href="#DejaVuSans-48"/>
       <use x="127.246094" xlink:href="#DejaVuSans-48"/>
      </g>
     </g>
    </g>
    <g id="xtick_6">
     <g id="line2d_6">
      <g>
       <use style="stroke:#000000;stroke-width:0.8;" x="306.985475" xlink:href="#m2dc55428b0" y="307.584"/>
      </g>
     </g>
     <g id="text_6">
      <!-- 1000 -->
      <defs>
       <path d="M 12.40625 8.296875 
L 28.515625 8.296875 
L 28.515625 63.921875 
L 10.984375 60.40625 
L 10.984375 69.390625 
L 28.421875 72.90625 
L 38.28125 72.90625 
L 38.28125 8.296875 
L 54.390625 8.296875 
L 54.390625 0 
L 12.40625 0 
z
" id="DejaVuSans-49"/>
      </defs>
      <g transform="translate(294.260475 322.182437)scale(0.1 -0.1)">
       <use xlink:href="#DejaVuSans-49"/>
       <use x="63.623047" xlink:href="#DejaVuSans-48"/>
       <use x="127.246094" xlink:href="#DejaVuSans-48"/>
       <use x="190.869141" xlink:href="#DejaVuSans-48"/>
      </g>
     </g>
    </g>
    <g id="xtick_7">
     <g id="line2d_7">
      <g>
       <use style="stroke:#000000;stroke-width:0.8;" x="356.86257" xlink:href="#m2dc55428b0" y="307.584"/>
      </g>
     </g>
     <g id="text_7">
      <!-- 1200 -->
      <g transform="translate(344.13757 322.182437)scale(0.1 -0.1)">
       <use xlink:href="#DejaVuSans-49"/>
       <use x="63.623047" xlink:href="#DejaVuSans-50"/>
       <use x="127.246094" xlink:href="#DejaVuSans-48"/>
       <use x="190.869141" xlink:href="#DejaVuSans-48"/>
      </g>
     </g>
    </g>
    <g id="xtick_8">
     <g id="line2d_8">
      <g>
       <use style="stroke:#000000;stroke-width:0.8;" x="406.739665" xlink:href="#m2dc55428b0" y="307.584"/>
      </g>
     </g>
     <g id="text_8">
      <!-- 1400 -->
      <g transform="translate(394.014665 322.182437)scale(0.1 -0.1)">
       <use xlink:href="#DejaVuSans-49"/>
       <use x="63.623047" xlink:href="#DejaVuSans-52"/>
       <use x="127.246094" xlink:href="#DejaVuSans-48"/>
       <use x="190.869141" xlink:href="#DejaVuSans-48"/>
      </g>
     </g>
    </g>
    <g id="text_9">
     <!-- aligned residue index -->
     <defs>
      <path d="M 34.28125 27.484375 
Q 23.390625 27.484375 19.1875 25 
Q 14.984375 22.515625 14.984375 16.5 
Q 14.984375 11.71875 18.140625 8.90625 
Q 21.296875 6.109375 26.703125 6.109375 
Q 34.1875 6.109375 38.703125 11.40625 
Q 43.21875 16.703125 43.21875 25.484375 
L 43.21875 27.484375 
z
M 52.203125 31.203125 
L 52.203125 0 
L 43.21875 0 
L 43.21875 8.296875 
Q 40.140625 3.328125 35.546875 0.953125 
Q 30.953125 -1.421875 24.3125 -1.421875 
Q 15.921875 -1.421875 10.953125 3.296875 
Q 6 8.015625 6 15.921875 
Q 6 25.140625 12.171875 29.828125 
Q 18.359375 34.515625 30.609375 34.515625 
L 43.21875 34.515625 
L 43.21875 35.40625 
Q 43.21875 41.609375 39.140625 45 
Q 35.0625 48.390625 27.6875 48.390625 
Q 23 48.390625 18.546875 47.265625 
Q 14.109375 46.140625 10.015625 43.890625 
L 10.015625 52.203125 
Q 14.9375 54.109375 19.578125 55.046875 
Q 24.21875 56 28.609375 56 
Q 40.484375 56 46.34375 49.84375 
Q 52.203125 43.703125 52.203125 31.203125 
z
" id="DejaVuSans-97"/>
      <path d="M 9.421875 75.984375 
L 18.40625 75.984375 
L 18.40625 0 
L 9.421875 0 
z
" id="DejaVuSans-108"/>
      <path d="M 9.421875 54.6875 
L 18.40625 54.6875 
L 18.40625 0 
L 9.421875 0 
z
M 9.421875 75.984375 
L 18.40625 75.984375 
L 18.40625 64.59375 
L 9.421875 64.59375 
z
" id="DejaVuSans-105"/>
      <path d="M 45.40625 27.984375 
Q 45.40625 37.75 41.375 43.109375 
Q 37.359375 48.484375 30.078125 48.484375 
Q 22.859375 48.484375 18.828125 43.109375 
Q 14.796875 37.75 14.796875 27.984375 
Q 14.796875 18.265625 18.828125 12.890625 
Q 22.859375 7.515625 30.078125 7.515625 
Q 37.359375 7.515625 41.375 12.890625 
Q 45.40625 18.265625 45.40625 27.984375 
z
M 54.390625 6.78125 
Q 54.390625 -7.171875 48.1875 -13.984375 
Q 42 -20.796875 29.203125 -20.796875 
Q 24.46875 -20.796875 20.265625 -20.09375 
Q 16.0625 -19.390625 12.109375 -17.921875 
L 12.109375 -9.1875 
Q 16.0625 -11.328125 19.921875 -12.34375 
Q 23.78125 -13.375 27.78125 -13.375 
Q 36.625 -13.375 41.015625 -8.765625 
Q 45.40625 -4.15625 45.40625 5.171875 
L 45.40625 9.625 
Q 42.625 4.78125 38.28125 2.390625 
Q 33.9375 0 27.875 0 
Q 17.828125 0 11.671875 7.65625 
Q 5.515625 15.328125 5.515625 27.984375 
Q 5.515625 40.671875 11.671875 48.328125 
Q 17.828125 56 27.875 56 
Q 33.9375 56 38.28125 53.609375 
Q 42.625 51.21875 45.40625 46.390625 
L 45.40625 54.6875 
L 54.390625 54.6875 
z
" id="DejaVuSans-103"/>
      <path d="M 54.890625 33.015625 
L 54.890625 0 
L 45.90625 0 
L 45.90625 32.71875 
Q 45.90625 40.484375 42.875 44.328125 
Q 39.84375 48.1875 33.796875 48.1875 
Q 26.515625 48.1875 22.3125 43.546875 
Q 18.109375 38.921875 18.109375 30.90625 
L 18.109375 0 
L 9.078125 0 
L 9.078125 54.6875 
L 18.109375 54.6875 
L 18.109375 46.1875 
Q 21.34375 51.125 25.703125 53.5625 
Q 30.078125 56 35.796875 56 
Q 45.21875 56 50.046875 50.171875 
Q 54.890625 44.34375 54.890625 33.015625 
z
" id="DejaVuSans-110"/>
      <path d="M 56.203125 29.59375 
L 56.203125 25.203125 
L 14.890625 25.203125 
Q 15.484375 15.921875 20.484375 11.0625 
Q 25.484375 6.203125 34.421875 6.203125 
Q 39.59375 6.203125 44.453125 7.46875 
Q 49.3125 8.734375 54.109375 11.28125 
L 54.109375 2.78125 
Q 49.265625 0.734375 44.1875 -0.34375 
Q 39.109375 -1.421875 33.890625 -1.421875 
Q 20.796875 -1.421875 13.15625 6.1875 
Q 5.515625 13.8125 5.515625 26.8125 
Q 5.515625 40.234375 12.765625 48.109375 
Q 20.015625 56 32.328125 56 
Q 43.359375 56 49.78125 48.890625 
Q 56.203125 41.796875 56.203125 29.59375 
z
M 47.21875 32.234375 
Q 47.125 39.59375 43.09375 43.984375 
Q 39.0625 48.390625 32.421875 48.390625 
Q 24.90625 48.390625 20.390625 44.140625 
Q 15.875 39.890625 15.1875 32.171875 
z
" id="DejaVuSans-101"/>
      <path d="M 45.40625 46.390625 
L 45.40625 75.984375 
L 54.390625 75.984375 
L 54.390625 0 
L 45.40625 0 
L 45.40625 8.203125 
Q 42.578125 3.328125 38.25 0.953125 
Q 33.9375 -1.421875 27.875 -1.421875 
Q 17.96875 -1.421875 11.734375 6.484375 
Q 5.515625 14.40625 5.515625 27.296875 
Q 5.515625 40.1875 11.734375 48.09375 
Q 17.96875 56 27.875 56 
Q 33.9375 56 38.25 53.625 
Q 42.578125 51.265625 45.40625 46.390625 
z
M 14.796875 27.296875 
Q 14.796875 17.390625 18.875 11.75 
Q 22.953125 6.109375 30.078125 6.109375 
Q 37.203125 6.109375 41.296875 11.75 
Q 45.40625 17.390625 45.40625 27.296875 
Q 45.40625 37.203125 41.296875 42.84375 
Q 37.203125 48.484375 30.078125 48.484375 
Q 22.953125 48.484375 18.875 42.84375 
Q 14.796875 37.203125 14.796875 27.296875 
z
" id="DejaVuSans-100"/>
      <path id="DejaVuSans-32"/>
      <path d="M 41.109375 46.296875 
Q 39.59375 47.171875 37.8125 47.578125 
Q 36.03125 48 33.890625 48 
Q 26.265625 48 22.1875 43.046875 
Q 18.109375 38.09375 18.109375 28.8125 
L 18.109375 0 
L 9.078125 0 
L 9.078125 54.6875 
L 18.109375 54.6875 
L 18.109375 46.1875 
Q 20.953125 51.171875 25.484375 53.578125 
Q 30.03125 56 36.53125 56 
Q 37.453125 56 38.578125 55.875 
Q 39.703125 55.765625 41.0625 55.515625 
z
" id="DejaVuSans-114"/>
      <path d="M 44.28125 53.078125 
L 44.28125 44.578125 
Q 40.484375 46.53125 36.375 47.5 
Q 32.28125 48.484375 27.875 48.484375 
Q 21.1875 48.484375 17.84375 46.4375 
Q 14.5 44.390625 14.5 40.28125 
Q 14.5 37.15625 16.890625 35.375 
Q 19.28125 33.59375 26.515625 31.984375 
L 29.59375 31.296875 
Q 39.15625 29.25 43.1875 25.515625 
Q 47.21875 21.78125 47.21875 15.09375 
Q 47.21875 7.46875 41.1875 3.015625 
Q 35.15625 -1.421875 24.609375 -1.421875 
Q 20.21875 -1.421875 15.453125 -0.5625 
Q 10.6875 0.296875 5.421875 2 
L 5.421875 11.28125 
Q 10.40625 8.6875 15.234375 7.390625 
Q 20.0625 6.109375 24.8125 6.109375 
Q 31.15625 6.109375 34.5625 8.28125 
Q 37.984375 10.453125 37.984375 14.40625 
Q 37.984375 18.0625 35.515625 20.015625 
Q 33.0625 21.96875 24.703125 23.78125 
L 21.578125 24.515625 
Q 13.234375 26.265625 9.515625 29.90625 
Q 5.8125 33.546875 5.8125 39.890625 
Q 5.8125 47.609375 11.28125 51.796875 
Q 16.75 56 26.8125 56 
Q 31.78125 56 36.171875 55.265625 
Q 40.578125 54.546875 44.28125 53.078125 
z
" id="DejaVuSans-115"/>
      <path d="M 8.5 21.578125 
L 8.5 54.6875 
L 17.484375 54.6875 
L 17.484375 21.921875 
Q 17.484375 14.15625 20.5 10.265625 
Q 23.53125 6.390625 29.59375 6.390625 
Q 36.859375 6.390625 41.078125 11.03125 
Q 45.3125 15.671875 45.3125 23.6875 
L 45.3125 54.6875 
L 54.296875 54.6875 
L 54.296875 0 
L 45.3125 0 
L 45.3125 8.40625 
Q 42.046875 3.421875 37.71875 1 
Q 33.40625 -1.421875 27.6875 -1.421875 
Q 18.265625 -1.421875 13.375 4.4375 
Q 8.5 10.296875 8.5 21.578125 
z
M 31.109375 56 
z
" id="DejaVuSans-117"/>
      <path d="M 54.890625 54.6875 
L 35.109375 28.078125 
L 55.90625 0 
L 45.3125 0 
L 29.390625 21.484375 
L 13.484375 0 
L 2.875 0 
L 24.125 28.609375 
L 4.6875 54.6875 
L 15.28125 54.6875 
L 29.78125 35.203125 
L 44.28125 54.6875 
z
" id="DejaVuSans-120"/>
     </defs>
     <g transform="translate(182.235 335.860562)scale(0.1 -0.1)">
      <use xlink:href="#DejaVuSans-97"/>
      <use x="61.279297" xlink:href="#DejaVuSans-108"/>
      <use x="89.0625" xlink:href="#DejaVuSans-105"/>
      <use x="116.845703" xlink:href="#DejaVuSans-103"/>
      <use x="180.322266" xlink:href="#DejaVuSans-110"/>
      <use x="243.701172" xlink:href="#DejaVuSans-101"/>
      <use x="305.224609" xlink:href="#DejaVuSans-100"/>
      <use x="368.701172" xlink:href="#DejaVuSans-32"/>
      <use x="400.488281" xlink:href="#DejaVuSans-114"/>
      <use x="441.570312" xlink:href="#DejaVuSans-101"/>
      <use x="503.09375" xlink:href="#DejaVuSans-115"/>
      <use x="555.193359" xlink:href="#DejaVuSans-105"/>
      <use x="582.976562" xlink:href="#DejaVuSans-100"/>
      <use x="646.453125" xlink:href="#DejaVuSans-117"/>
      <use x="709.832031" xlink:href="#DejaVuSans-101"/>
      <use x="771.355469" xlink:href="#DejaVuSans-32"/>
      <use x="803.142578" xlink:href="#DejaVuSans-105"/>
      <use x="830.925781" xlink:href="#DejaVuSans-110"/>
      <use x="894.304688" xlink:href="#DejaVuSans-100"/>
      <use x="957.78125" xlink:href="#DejaVuSans-101"/>
      <use x="1019.289062" xlink:href="#DejaVuSans-120"/>
     </g>
    </g>
   </g>
   <g id="matplotlib.axis_2">
    <g id="ytick_1">
     <g id="line2d_9">
      <defs>
       <path d="M 0 0 
L -3.5 0 
" id="mccb76721ee" style="stroke:#000000;stroke-width:0.8;"/>
      </defs>
      <g>
       <use style="stroke:#000000;stroke-width:0.8;" x="57.6" xlink:href="#mccb76721ee" y="307.584"/>
      </g>
     </g>
     <g id="text_10">
      <!-- 0 -->
      <g transform="translate(44.2375 311.383219)scale(0.1 -0.1)">
       <use xlink:href="#DejaVuSans-48"/>
      </g>
     </g>
    </g>
    <g id="ytick_2">
     <g id="line2d_10">
      <g>
       <use style="stroke:#000000;stroke-width:0.8;" x="57.6" xlink:href="#mccb76721ee" y="263.232"/>
      </g>
     </g>
     <g id="text_11">
      <!-- 5 -->
      <defs>
       <path d="M 10.796875 72.90625 
L 49.515625 72.90625 
L 49.515625 64.59375 
L 19.828125 64.59375 
L 19.828125 46.734375 
Q 21.96875 47.46875 24.109375 47.828125 
Q 26.265625 48.1875 28.421875 48.1875 
Q 40.625 48.1875 47.75 41.5 
Q 54.890625 34.8125 54.890625 23.390625 
Q 54.890625 11.625 47.5625 5.09375 
Q 40.234375 -1.421875 26.90625 -1.421875 
Q 22.3125 -1.421875 17.546875 -0.640625 
Q 12.796875 0.140625 7.71875 1.703125 
L 7.71875 11.625 
Q 12.109375 9.234375 16.796875 8.0625 
Q 21.484375 6.890625 26.703125 6.890625 
Q 35.15625 6.890625 40.078125 11.328125 
Q 45.015625 15.765625 45.015625 23.390625 
Q 45.015625 31 40.078125 35.4375 
Q 35.15625 39.890625 26.703125 39.890625 
Q 22.75 39.890625 18.8125 39.015625 
Q 14.890625 38.140625 10.796875 36.28125 
z
" id="DejaVuSans-53"/>
      </defs>
      <g transform="translate(44.2375 267.031219)scale(0.1 -0.1)">
       <use xlink:href="#DejaVuSans-53"/>
      </g>
     </g>
    </g>
    <g id="ytick_3">
     <g id="line2d_11">
      <g>
       <use style="stroke:#000000;stroke-width:0.8;" x="57.6" xlink:href="#mccb76721ee" y="218.88"/>
      </g>
     </g>
     <g id="text_12">
      <!-- 10 -->
      <g transform="translate(37.875 222.679219)scale(0.1 -0.1)">
       <use xlink:href="#DejaVuSans-49"/>
       <use x="63.623047" xlink:href="#DejaVuSans-48"/>
      </g>
     </g>
    </g>
    <g id="ytick_4">
     <g id="line2d_12">
      <g>
       <use style="stroke:#000000;stroke-width:0.8;" x="57.6" xlink:href="#mccb76721ee" y="174.528"/>
      </g>
     </g>
     <g id="text_13">
      <!-- 15 -->
      <g transform="translate(37.875 178.327219)scale(0.1 -0.1)">
       <use xlink:href="#DejaVuSans-49"/>
       <use x="63.623047" xlink:href="#DejaVuSans-53"/>
      </g>
     </g>
    </g>
    <g id="ytick_5">
     <g id="line2d_13">
      <g>
       <use style="stroke:#000000;stroke-width:0.8;" x="57.6" xlink:href="#mccb76721ee" y="130.176"/>
      </g>
     </g>
     <g id="text_14">
      <!-- 20 -->
      <g transform="translate(37.875 133.975219)scale(0.1 -0.1)">
       <use xlink:href="#DejaVuSans-50"/>
       <use x="63.623047" xlink:href="#DejaVuSans-48"/>
      </g>
     </g>
    </g>
    <g id="ytick_6">
     <g id="line2d_14">
      <g>
       <use style="stroke:#000000;stroke-width:0.8;" x="57.6" xlink:href="#mccb76721ee" y="85.824"/>
      </g>
     </g>
     <g id="text_15">
      <!-- 25 -->
      <g transform="translate(37.875 89.623219)scale(0.1 -0.1)">
       <use xlink:href="#DejaVuSans-50"/>
       <use x="63.623047" xlink:href="#DejaVuSans-53"/>
      </g>
     </g>
    </g>
    <g id="ytick_7">
     <g id="line2d_15">
      <g>
       <use style="stroke:#000000;stroke-width:0.8;" x="57.6" xlink:href="#mccb76721ee" y="41.472"/>
      </g>
     </g>
     <g id="text_16">
      <!-- 30 -->
      <defs>
       <path d="M 40.578125 39.3125 
Q 47.65625 37.796875 51.625 33 
Q 55.609375 28.21875 55.609375 21.1875 
Q 55.609375 10.40625 48.1875 4.484375 
Q 40.765625 -1.421875 27.09375 -1.421875 
Q 22.515625 -1.421875 17.65625 -0.515625 
Q 12.796875 0.390625 7.625 2.203125 
L 7.625 11.71875 
Q 11.71875 9.328125 16.59375 8.109375 
Q 21.484375 6.890625 26.8125 6.890625 
Q 36.078125 6.890625 40.9375 10.546875 
Q 45.796875 14.203125 45.796875 21.1875 
Q 45.796875 27.640625 41.28125 31.265625 
Q 36.765625 34.90625 28.71875 34.90625 
L 20.21875 34.90625 
L 20.21875 43.015625 
L 29.109375 43.015625 
Q 36.375 43.015625 40.234375 45.921875 
Q 44.09375 48.828125 44.09375 54.296875 
Q 44.09375 59.90625 40.109375 62.90625 
Q 36.140625 65.921875 28.71875 65.921875 
Q 24.65625 65.921875 20.015625 65.03125 
Q 15.375 64.15625 9.8125 62.3125 
L 9.8125 71.09375 
Q 15.4375 72.65625 20.34375 73.4375 
Q 25.25 74.21875 29.59375 74.21875 
Q 40.828125 74.21875 47.359375 69.109375 
Q 53.90625 64.015625 53.90625 55.328125 
Q 53.90625 49.265625 50.4375 45.09375 
Q 46.96875 40.921875 40.578125 39.3125 
z
" id="DejaVuSans-51"/>
      </defs>
      <g transform="translate(37.875 45.271219)scale(0.1 -0.1)">
       <use xlink:href="#DejaVuSans-51"/>
       <use x="63.623047" xlink:href="#DejaVuSans-48"/>
      </g>
     </g>
    </g>
    <g id="text_17">
     <!-- deletions -->
     <defs>
      <path d="M 18.3125 70.21875 
L 18.3125 54.6875 
L 36.8125 54.6875 
L 36.8125 47.703125 
L 18.3125 47.703125 
L 18.3125 18.015625 
Q 18.3125 11.328125 20.140625 9.421875 
Q 21.96875 7.515625 27.59375 7.515625 
L 36.8125 7.515625 
L 36.8125 0 
L 27.59375 0 
Q 17.1875 0 13.234375 3.875 
Q 9.28125 7.765625 9.28125 18.015625 
L 9.28125 47.703125 
L 2.6875 47.703125 
L 2.6875 54.6875 
L 9.28125 54.6875 
L 9.28125 70.21875 
z
" id="DejaVuSans-116"/>
      <path d="M 30.609375 48.390625 
Q 23.390625 48.390625 19.1875 42.75 
Q 14.984375 37.109375 14.984375 27.296875 
Q 14.984375 17.484375 19.15625 11.84375 
Q 23.34375 6.203125 30.609375 6.203125 
Q 37.796875 6.203125 41.984375 11.859375 
Q 46.1875 17.53125 46.1875 27.296875 
Q 46.1875 37.015625 41.984375 42.703125 
Q 37.796875 48.390625 30.609375 48.390625 
z
M 30.609375 56 
Q 42.328125 56 49.015625 48.375 
Q 55.71875 40.765625 55.71875 27.296875 
Q 55.71875 13.875 49.015625 6.21875 
Q 42.328125 -1.421875 30.609375 -1.421875 
Q 18.84375 -1.421875 12.171875 6.21875 
Q 5.515625 13.875 5.515625 27.296875 
Q 5.515625 40.765625 12.171875 48.375 
Q 18.84375 56 30.609375 56 
z
" id="DejaVuSans-111"/>
     </defs>
     <g transform="translate(31.795312 197.426437)rotate(-90)scale(0.1 -0.1)">
      <use xlink:href="#DejaVuSans-100"/>
      <use x="63.476562" xlink:href="#DejaVuSans-101"/>
      <use x="125" xlink:href="#DejaVuSans-108"/>
      <use x="152.783203" xlink:href="#DejaVuSans-101"/>
      <use x="214.306641" xlink:href="#DejaVuSans-116"/>
      <use x="253.515625" xlink:href="#DejaVuSans-105"/>
      <use x="281.298828" xlink:href="#DejaVuSans-111"/>
      <use x="342.480469" xlink:href="#DejaVuSans-110"/>
      <use x="405.859375" xlink:href="#DejaVuSans-115"/>
     </g>
    </g>
   </g>
   <g id="line2d_16">
    <path clip-path="url(#p4ff32696cb)" d="M 57.6 298.7136 
L 58.098771 263.232 
L 58.348156 254.3616 
L 59.096313 307.584 
L 62.587709 307.584 
L 63.335866 289.8432 
L 63.585251 263.232 
L 64.084022 280.9728 
L 67.326034 272.1024 
L 67.575419 298.7136 
L 67.824804 298.7136 
L 68.07419 307.584 
L 70.568045 307.584 
L 71.066816 263.232 
L 71.316201 272.1024 
L 71.565587 289.8432 
L 71.814972 272.1024 
L 72.064358 280.9728 
L 72.313743 298.7136 
L 73.061899 272.1024 
L 73.311285 307.584 
L 79.296536 307.584 
L 83.037318 289.8432 
L 83.286704 289.8432 
L 83.536089 280.9728 
L 83.785475 263.232 
L 84.284246 245.4912 
L 84.533631 210.0096 
L 84.783017 201.1392 
L 85.032402 174.528 
L 85.281788 165.6576 
L 85.531173 183.3984 
L 85.780559 192.2688 
L 86.029944 183.3984 
L 86.27933 218.88 
L 86.778101 236.6208 
L 87.027486 272.1024 
L 89.770726 298.7136 
L 90.020112 307.584 
L 90.518883 307.584 
L 91.516425 272.1024 
L 92.015196 289.8432 
L 92.264581 289.8432 
L 92.513966 280.9728 
L 92.763352 298.7136 
L 93.012737 298.7136 
L 93.262123 307.584 
L 93.511508 307.584 
L 93.760894 298.7136 
L 94.010279 307.584 
L 99.49676 307.584 
L 99.995531 263.232 
L 100.244916 272.1024 
L 102.489385 289.8432 
L 102.738771 272.1024 
L 102.988156 263.232 
L 103.237542 280.9728 
L 103.486927 254.3616 
L 105.232626 263.232 
L 105.482011 272.1024 
L 105.731397 263.232 
L 105.980782 298.7136 
L 106.230168 307.584 
L 109.97095 307.584 
L 110.220335 298.7136 
L 110.469721 307.584 
L 110.719106 307.584 
L 110.968492 289.8432 
L 111.467263 307.584 
L 111.716648 298.7136 
L 111.966034 307.584 
L 112.464804 307.584 
L 112.71419 280.9728 
L 112.963575 289.8432 
L 113.462346 272.1024 
L 115.706816 263.232 
L 115.956201 298.7136 
L 116.205587 307.584 
L 116.704358 307.584 
L 119.946369 298.7136 
L 120.195754 289.8432 
L 120.44514 272.1024 
L 120.694525 263.232 
L 120.943911 280.9728 
L 121.193296 307.584 
L 140.395978 307.584 
L 140.645363 298.7136 
L 146.131844 289.8432 
L 146.381229 307.584 
L 146.630615 307.584 
L 146.88 298.7136 
L 148.625698 307.584 
L 151.867709 307.584 
L 152.117095 298.7136 
L 157.35419 307.584 
L 158.102346 307.584 
L 158.351732 298.7136 
L 158.850503 298.7136 
L 159.099888 280.9728 
L 170.57162 272.1024 
L 170.821006 254.3616 
L 171.070391 263.232 
L 171.319777 254.3616 
L 171.569162 289.8432 
L 172.067933 263.232 
L 172.566704 280.9728 
L 173.065475 236.6208 
L 173.31486 245.4912 
L 174.063017 218.88 
L 175.808715 210.0096 
L 176.307486 174.528 
L 176.556872 183.3984 
L 176.806257 201.1392 
L 177.055642 201.1392 
L 181.04581 192.2688 
L 181.295196 254.3616 
L 181.544581 245.4912 
L 181.793966 263.232 
L 182.043352 272.1024 
L 182.292737 307.584 
L 183.290279 307.584 
L 183.539665 280.9728 
L 184.287821 307.584 
L 184.537207 307.584 
L 184.786592 298.7136 
L 185.035978 307.584 
L 189.774302 307.584 
L 190.023687 289.8432 
L 190.522458 272.1024 
L 190.771844 245.4912 
L 191.021229 236.6208 
L 191.270615 218.88 
L 191.52 227.7504 
L 191.769385 254.3616 
L 193.016313 298.7136 
L 193.265698 298.7136 
L 193.515084 289.8432 
L 193.764469 298.7136 
L 194.26324 298.7136 
L 194.512626 307.584 
L 195.011397 307.584 
L 195.260782 298.7136 
L 195.510168 280.9728 
L 195.759553 254.3616 
L 196.008939 263.232 
L 196.258324 254.3616 
L 196.507709 272.1024 
L 197.00648 254.3616 
L 197.255866 289.8432 
L 197.505251 289.8432 
L 197.754637 298.7136 
L 198.004022 298.7136 
L 198.253408 289.8432 
L 198.502793 298.7136 
L 199.500335 298.7136 
L 199.749721 272.1024 
L 200.747263 272.1024 
L 200.996648 263.232 
L 201.246034 272.1024 
L 201.495419 236.6208 
L 201.744804 245.4912 
L 201.99419 218.88 
L 202.243575 227.7504 
L 202.492961 218.88 
L 202.742346 236.6208 
L 203.739888 201.1392 
L 203.989274 254.3616 
L 204.238659 245.4912 
L 204.488045 227.7504 
L 204.73743 236.6208 
L 204.986816 263.232 
L 205.236201 245.4912 
L 205.485587 254.3616 
L 205.734972 280.9728 
L 205.984358 280.9728 
L 206.233743 236.6208 
L 206.732514 254.3616 
L 207.231285 236.6208 
L 207.48067 263.232 
L 207.730056 272.1024 
L 207.979441 289.8432 
L 208.228827 289.8432 
L 208.478212 245.4912 
L 208.727598 236.6208 
L 208.976983 254.3616 
L 209.226369 245.4912 
L 209.475754 218.88 
L 209.72514 210.0096 
L 210.722682 201.1392 
L 210.972067 227.7504 
L 211.221453 236.6208 
L 212.218994 236.6208 
L 212.46838 263.232 
L 212.717765 272.1024 
L 212.967151 272.1024 
L 213.465922 289.8432 
L 213.715307 307.584 
L 213.964693 307.584 
L 214.214078 280.9728 
L 214.962235 307.584 
L 215.710391 307.584 
L 215.959777 298.7136 
L 216.458547 298.7136 
L 216.707933 254.3616 
L 216.957318 254.3616 
L 217.206704 245.4912 
L 217.456089 263.232 
L 217.705475 254.3616 
L 217.95486 236.6208 
L 218.204246 227.7504 
L 218.453631 245.4912 
L 218.703017 272.1024 
L 219.201788 289.8432 
L 219.700559 289.8432 
L 219.949944 307.584 
L 220.19933 307.584 
L 220.448715 298.7136 
L 220.698101 298.7136 
L 220.947486 272.1024 
L 221.945028 236.6208 
L 222.194413 280.9728 
L 222.443799 289.8432 
L 222.693184 307.584 
L 224.688268 307.584 
L 224.937654 298.7136 
L 226.433966 298.7136 
L 228.179665 289.8432 
L 228.678436 236.6208 
L 229.177207 254.3616 
L 229.675978 236.6208 
L 229.925363 272.1024 
L 230.174749 192.2688 
L 230.424134 183.3984 
L 230.67352 201.1392 
L 231.421676 227.7504 
L 231.671061 218.88 
L 231.920447 236.6208 
L 232.169832 210.0096 
L 232.668603 227.7504 
L 235.411844 245.4912 
L 235.910615 227.7504 
L 236.16 254.3616 
L 236.409385 227.7504 
L 236.658771 236.6208 
L 236.908156 227.7504 
L 237.157542 192.2688 
L 237.406927 183.3984 
L 237.656313 201.1392 
L 237.905698 210.0096 
L 238.155084 174.528 
L 238.653855 192.2688 
L 238.90324 183.3984 
L 239.402011 218.88 
L 239.900782 263.232 
L 240.150168 280.9728 
L 240.399553 280.9728 
L 240.648939 307.584 
L 245.387263 307.584 
L 245.886034 289.8432 
L 246.135419 307.584 
L 249.37743 307.584 
L 249.626816 298.7136 
L 249.876201 307.584 
L 253.367598 307.584 
L 253.866369 272.1024 
L 254.115754 280.9728 
L 254.863911 280.9728 
L 255.113296 263.232 
L 255.612067 280.9728 
L 256.360223 280.9728 
L 256.858994 236.6208 
L 257.10838 218.88 
L 257.357765 227.7504 
L 257.856536 210.0096 
L 260.101006 201.1392 
L 260.350391 192.2688 
L 260.599777 245.4912 
L 260.849162 245.4912 
L 261.098547 263.232 
L 261.347933 272.1024 
L 261.597318 254.3616 
L 261.846704 263.232 
L 262.096089 298.7136 
L 262.345475 307.584 
L 267.333184 307.584 
L 267.58257 289.8432 
L 267.831955 280.9728 
L 268.081341 245.4912 
L 268.580112 263.232 
L 268.829497 236.6208 
L 269.328268 254.3616 
L 269.577654 272.1024 
L 269.827039 298.7136 
L 270.076425 307.584 
L 276.311061 307.584 
L 276.560447 289.8432 
L 277.059218 289.8432 
L 277.308603 263.232 
L 277.557989 263.232 
L 277.807374 236.6208 
L 278.306145 218.88 
L 278.555531 201.1392 
L 279.054302 183.3984 
L 279.303687 210.0096 
L 279.553073 201.1392 
L 279.802458 174.528 
L 280.051844 165.6576 
L 280.301229 183.3984 
L 280.550615 192.2688 
L 280.8 183.3984 
L 281.049385 156.7872 
L 281.548156 174.528 
L 282.046927 156.7872 
L 282.296313 245.4912 
L 282.795084 183.3984 
L 283.044469 192.2688 
L 283.54324 174.528 
L 283.792626 201.1392 
L 284.042011 192.2688 
L 284.291397 174.528 
L 284.540782 183.3984 
L 284.790168 165.6576 
L 285.288939 147.9168 
L 285.787709 210.0096 
L 286.037095 210.0096 
L 286.28648 227.7504 
L 286.535866 236.6208 
L 286.785251 254.3616 
L 287.034637 254.3616 
L 287.284022 272.1024 
L 287.782793 272.1024 
L 288.281564 236.6208 
L 288.53095 227.7504 
L 288.780335 245.4912 
L 289.029721 236.6208 
L 289.279106 263.232 
L 289.528492 210.0096 
L 290.027263 192.2688 
L 290.276648 218.88 
L 290.526034 201.1392 
L 290.775419 192.2688 
L 291.024804 210.0096 
L 292.271732 254.3616 
L 292.770503 298.7136 
L 293.019888 298.7136 
L 293.269274 307.584 
L 296.261899 307.584 
L 297.010056 280.9728 
L 297.259441 280.9728 
L 297.508827 263.232 
L 297.758212 236.6208 
L 298.007598 227.7504 
L 298.256983 245.4912 
L 298.506369 236.6208 
L 301.000223 218.88 
L 301.249609 227.7504 
L 301.997765 307.584 
L 305.987933 307.584 
L 306.237318 298.7136 
L 306.486704 280.9728 
L 306.736089 289.8432 
L 306.985475 280.9728 
L 307.23486 307.584 
L 307.983017 307.584 
L 308.232402 298.7136 
L 308.481788 307.584 
L 310.726257 307.584 
L 310.975642 298.7136 
L 314.467039 289.8432 
L 314.716425 280.9728 
L 315.215196 245.4912 
L 315.464581 245.4912 
L 315.713966 227.7504 
L 315.963352 218.88 
L 316.462123 174.528 
L 316.711508 183.3984 
L 316.960894 201.1392 
L 317.459665 165.6576 
L 317.70905 174.528 
L 317.958436 192.2688 
L 318.207821 156.7872 
L 318.457207 156.7872 
L 318.706592 112.4352 
L 318.955978 103.5648 
L 319.205363 121.3056 
L 319.704134 103.5648 
L 319.95352 85.824 
L 326.188156 76.9536 
L 326.437542 94.6944 
L 326.686927 130.176 
L 326.936313 121.3056 
L 327.185698 94.6944 
L 327.684469 112.4352 
L 327.933855 139.0464 
L 328.18324 147.9168 
L 328.432626 165.6576 
L 328.931397 183.3984 
L 329.180782 174.528 
L 329.430168 156.7872 
L 329.679553 103.5648 
L 329.928939 112.4352 
L 330.178324 103.5648 
L 330.427709 121.3056 
L 331.175866 147.9168 
L 331.425251 139.0464 
L 331.674637 165.6576 
L 332.173408 236.6208 
L 332.422793 236.6208 
L 332.672179 254.3616 
L 332.921564 236.6208 
L 333.420335 254.3616 
L 333.919106 254.3616 
L 334.168492 236.6208 
L 334.417877 236.6208 
L 334.916648 218.88 
L 335.166034 245.4912 
L 335.415419 254.3616 
L 337.161117 254.3616 
L 337.410503 245.4912 
L 337.659888 227.7504 
L 337.909274 236.6208 
L 338.158659 272.1024 
L 338.408045 272.1024 
L 338.65743 307.584 
L 339.654972 307.584 
L 340.153743 289.8432 
L 340.652514 227.7504 
L 340.901899 236.6208 
L 341.151285 227.7504 
L 341.40067 192.2688 
L 341.899441 174.528 
L 342.148827 201.1392 
L 342.398212 210.0096 
L 342.896983 192.2688 
L 343.395754 245.4912 
L 343.64514 218.88 
L 343.894525 227.7504 
L 344.143911 218.88 
L 344.393296 236.6208 
L 344.642682 218.88 
L 344.892067 227.7504 
L 345.141453 183.3984 
L 345.390838 165.6576 
L 345.640223 174.528 
L 345.889609 192.2688 
L 346.138994 174.528 
L 346.38838 183.3984 
L 346.637765 165.6576 
L 346.887151 174.528 
L 347.136536 201.1392 
L 347.635307 218.88 
L 347.884693 210.0096 
L 348.134078 183.3984 
L 348.383464 174.528 
L 348.632849 192.2688 
L 348.882235 201.1392 
L 349.13162 254.3616 
L 349.381006 245.4912 
L 349.630391 218.88 
L 350.129162 236.6208 
L 350.378547 210.0096 
L 350.877318 227.7504 
L 351.126704 272.1024 
L 352.124246 272.1024 
L 352.373631 280.9728 
L 352.623017 245.4912 
L 352.872402 254.3616 
L 353.620559 227.7504 
L 353.869944 263.232 
L 354.368715 263.232 
L 354.618101 272.1024 
L 354.867486 263.232 
L 355.116872 227.7504 
L 355.366257 218.88 
L 355.615642 236.6208 
L 355.865028 245.4912 
L 356.114413 227.7504 
L 356.86257 201.1392 
L 357.111955 236.6208 
L 357.361341 227.7504 
L 357.610726 192.2688 
L 357.860112 201.1392 
L 358.109497 174.528 
L 358.358883 183.3984 
L 358.608268 156.7872 
L 359.107039 174.528 
L 359.60581 210.0096 
L 359.855196 201.1392 
L 360.104581 218.88 
L 360.353966 254.3616 
L 360.603352 218.88 
L 360.852737 201.1392 
L 361.102123 210.0096 
L 361.351508 227.7504 
L 361.600894 210.0096 
L 361.850279 218.88 
L 362.099665 236.6208 
L 362.34905 236.6208 
L 362.598436 245.4912 
L 363.097207 245.4912 
L 363.346592 307.584 
L 363.595978 289.8432 
L 363.845363 263.232 
L 364.344134 245.4912 
L 364.59352 272.1024 
L 364.842905 280.9728 
L 365.092291 254.3616 
L 365.341676 245.4912 
L 365.591061 263.232 
L 365.840447 272.1024 
L 366.089832 298.7136 
L 366.339218 263.232 
L 366.588603 254.3616 
L 366.837989 272.1024 
L 367.087374 263.232 
L 367.33676 280.9728 
L 367.586145 263.232 
L 367.835531 272.1024 
L 368.583687 245.4912 
L 368.833073 289.8432 
L 369.082458 289.8432 
L 369.331844 236.6208 
L 369.581229 218.88 
L 369.830615 227.7504 
L 370.08 218.88 
L 370.329385 245.4912 
L 371.326927 280.9728 
L 371.576313 307.584 
L 372.075084 307.584 
L 372.573855 254.3616 
L 372.82324 245.4912 
L 373.072626 263.232 
L 373.322011 272.1024 
L 373.571397 254.3616 
L 373.820782 245.4912 
L 374.319553 280.9728 
L 374.568939 289.8432 
L 374.818324 280.9728 
L 375.067709 254.3616 
L 375.56648 236.6208 
L 375.815866 218.88 
L 376.065251 210.0096 
L 376.314637 192.2688 
L 376.564022 201.1392 
L 376.813408 227.7504 
L 377.062793 192.2688 
L 377.312179 201.1392 
L 377.561564 174.528 
L 377.81095 165.6576 
L 378.060335 183.3984 
L 378.309721 192.2688 
L 378.808492 174.528 
L 379.057877 210.0096 
L 379.556648 174.528 
L 382.050503 183.3984 
L 382.798659 156.7872 
L 383.048045 201.1392 
L 383.29743 165.6576 
L 383.546816 156.7872 
L 383.796201 174.528 
L 384.294972 192.2688 
L 384.544358 183.3984 
L 384.793743 218.88 
L 385.292514 201.1392 
L 385.541899 263.232 
L 385.791285 272.1024 
L 386.04067 254.3616 
L 387.536983 307.584 
L 387.786369 298.7136 
L 388.783911 298.7136 
L 389.033296 263.232 
L 389.282682 245.4912 
L 389.532067 254.3616 
L 389.781453 227.7504 
L 390.030838 218.88 
L 390.280223 236.6208 
L 390.529609 245.4912 
L 391.02838 227.7504 
L 391.277765 272.1024 
L 391.527151 236.6208 
L 391.776536 245.4912 
L 393.023464 201.1392 
L 393.272849 254.3616 
L 393.522235 263.232 
L 393.77162 280.9728 
L 394.021006 263.232 
L 394.270391 263.232 
L 394.519777 227.7504 
L 394.769162 227.7504 
L 395.018547 210.0096 
L 395.267933 218.88 
L 395.517318 236.6208 
L 395.766704 245.4912 
L 396.016089 236.6208 
L 396.51486 174.528 
L 396.764246 156.7872 
L 397.013631 165.6576 
L 397.263017 183.3984 
L 397.512402 192.2688 
L 397.761788 174.528 
L 398.011173 165.6576 
L 398.260559 147.9168 
L 398.509944 156.7872 
L 399.008715 210.0096 
L 399.258101 174.528 
L 399.756872 192.2688 
L 400.006257 174.528 
L 400.255642 165.6576 
L 400.505028 183.3984 
L 401.751955 201.1392 
L 402.001341 218.88 
L 402.250726 227.7504 
L 402.500112 254.3616 
L 402.749497 227.7504 
L 403.248268 245.4912 
L 403.497654 272.1024 
L 403.747039 254.3616 
L 403.996425 263.232 
L 404.495196 307.584 
L 406.240894 307.584 
L 406.739665 272.1024 
L 407.487821 298.7136 
L 408.734749 298.7136 
L 408.984134 307.584 
L 414.72 307.584 
L 414.72 307.584 
" style="fill:none;stroke:#1f77b4;"/>
   </g>
   <g id="line2d_17">
    <path clip-path="url(#p4ff32696cb)" d="M 57.6 307.584 
L 57.849385 307.584 
L 58.098771 289.8432 
L 58.597542 307.584 
L 58.846927 298.7136 
L 59.096313 307.584 
L 64.582793 307.584 
L 64.832179 298.7136 
L 65.081564 280.9728 
L 65.580335 263.232 
L 65.829721 227.7504 
L 66.827263 227.7504 
L 67.076648 218.88 
L 67.326034 236.6208 
L 67.575419 218.88 
L 68.572961 254.3616 
L 68.822346 289.8432 
L 69.321117 289.8432 
L 69.570503 307.584 
L 85.032402 307.584 
L 85.281788 298.7136 
L 85.531173 245.4912 
L 85.780559 236.6208 
L 86.029944 254.3616 
L 86.27933 245.4912 
L 86.528715 263.232 
L 87.276872 289.8432 
L 87.526257 307.584 
L 88.274413 307.584 
L 88.773184 289.8432 
L 89.02257 307.584 
L 93.511508 307.584 
L 93.760894 298.7136 
L 94.010279 280.9728 
L 94.259665 289.8432 
L 94.50905 307.584 
L 101.741229 307.584 
L 101.990615 298.7136 
L 102.24 307.584 
L 104.98324 307.584 
L 105.232626 280.9728 
L 105.980782 254.3616 
L 106.230168 254.3616 
L 106.479553 201.1392 
L 106.728939 192.2688 
L 106.978324 210.0096 
L 107.227709 201.1392 
L 107.477095 218.88 
L 107.975866 236.6208 
L 108.724022 218.88 
L 108.973408 227.7504 
L 109.222793 201.1392 
L 109.472179 210.0096 
L 109.721564 201.1392 
L 109.97095 218.88 
L 110.220335 245.4912 
L 110.469721 289.8432 
L 112.215419 289.8432 
L 112.464804 298.7136 
L 113.212961 298.7136 
L 113.462346 307.584 
L 113.961117 307.584 
L 114.210503 298.7136 
L 114.459888 298.7136 
L 114.709274 245.4912 
L 115.208045 245.4912 
L 116.205587 210.0096 
L 116.454972 254.3616 
L 116.704358 263.232 
L 116.953743 263.232 
L 117.203128 272.1024 
L 117.452514 272.1024 
L 117.701899 263.232 
L 117.951285 280.9728 
L 118.20067 289.8432 
L 118.450056 307.584 
L 122.190838 307.584 
L 122.440223 254.3616 
L 122.689609 245.4912 
L 122.938994 263.232 
L 123.18838 272.1024 
L 123.437765 254.3616 
L 123.687151 263.232 
L 123.936536 280.9728 
L 124.684693 307.584 
L 128.425475 307.584 
L 128.924246 289.8432 
L 129.173631 307.584 
L 130.91933 307.584 
L 131.168715 298.7136 
L 134.410726 298.7136 
L 134.660112 289.8432 
L 134.909497 254.3616 
L 135.158883 245.4912 
L 135.408268 263.232 
L 135.657654 245.4912 
L 136.40581 218.88 
L 136.655196 254.3616 
L 136.904581 272.1024 
L 137.153966 280.9728 
L 137.403352 307.584 
L 143.139218 307.584 
L 143.388603 245.4912 
L 143.637989 236.6208 
L 143.887374 218.88 
L 144.13676 227.7504 
L 144.386145 254.3616 
L 144.884916 236.6208 
L 145.134302 263.232 
L 145.383687 236.6208 
L 145.633073 245.4912 
L 145.882458 245.4912 
L 146.131844 236.6208 
L 146.381229 254.3616 
L 147.129385 254.3616 
L 147.378771 245.4912 
L 147.628156 272.1024 
L 147.877542 280.9728 
L 148.126927 280.9728 
L 148.376313 289.8432 
L 148.625698 289.8432 
L 148.875084 298.7136 
L 149.124469 272.1024 
L 149.62324 254.3616 
L 149.872626 280.9728 
L 150.122011 272.1024 
L 150.371397 289.8432 
L 151.119553 289.8432 
L 151.368939 298.7136 
L 153.114637 298.7136 
L 153.364022 254.3616 
L 154.61095 298.7136 
L 155.608492 298.7136 
L 155.857877 307.584 
L 166.581453 307.584 
L 167.329609 280.9728 
L 167.578994 307.584 
L 171.818547 307.584 
L 172.067933 272.1024 
L 172.317318 280.9728 
L 172.816089 263.232 
L 173.065475 289.8432 
L 173.31486 280.9728 
L 173.564246 298.7136 
L 173.813631 307.584 
L 186.282905 307.584 
L 186.532291 298.7136 
L 189.524916 298.7136 
L 189.774302 272.1024 
L 190.273073 254.3616 
L 190.522458 254.3616 
L 190.771844 227.7504 
L 191.021229 227.7504 
L 191.52 245.4912 
L 191.769385 245.4912 
L 192.018771 272.1024 
L 192.268156 272.1024 
L 192.517542 245.4912 
L 192.766927 254.3616 
L 193.016313 254.3616 
L 193.265698 263.232 
L 193.515084 280.9728 
L 195.011397 280.9728 
L 195.260782 289.8432 
L 196.008939 289.8432 
L 196.258324 307.584 
L 196.507709 298.7136 
L 198.502793 298.7136 
L 198.752179 289.8432 
L 199.001564 289.8432 
L 199.500335 272.1024 
L 199.999106 272.1024 
L 200.248492 254.3616 
L 200.497877 263.232 
L 200.996648 227.7504 
L 201.246034 218.88 
L 201.495419 236.6208 
L 201.744804 218.88 
L 201.99419 227.7504 
L 202.243575 254.3616 
L 202.492961 236.6208 
L 202.742346 245.4912 
L 202.991732 298.7136 
L 203.490503 298.7136 
L 204.488045 263.232 
L 204.73743 307.584 
L 206.233743 307.584 
L 206.483128 298.7136 
L 207.231285 298.7136 
L 207.48067 272.1024 
L 207.730056 272.1024 
L 208.228827 254.3616 
L 208.478212 210.0096 
L 208.727598 218.88 
L 208.976983 210.0096 
L 209.226369 227.7504 
L 209.475754 218.88 
L 209.72514 236.6208 
L 209.974525 245.4912 
L 210.223911 280.9728 
L 211.470838 280.9728 
L 211.720223 289.8432 
L 211.969609 307.584 
L 216.707933 307.584 
L 216.957318 280.9728 
L 217.206704 272.1024 
L 217.456089 272.1024 
L 217.705475 263.232 
L 218.204246 254.3616 
L 218.453631 236.6208 
L 218.703017 245.4912 
L 218.952402 289.8432 
L 219.700559 289.8432 
L 219.949944 298.7136 
L 220.19933 280.9728 
L 222.194413 280.9728 
L 222.443799 272.1024 
L 223.191955 272.1024 
L 223.441341 254.3616 
L 224.937654 254.3616 
L 225.187039 245.4912 
L 225.935196 174.528 
L 226.184581 183.3984 
L 226.433966 201.1392 
L 226.683352 210.0096 
L 226.932737 227.7504 
L 227.182123 227.7504 
L 227.431508 236.6208 
L 227.680894 263.232 
L 228.927821 263.232 
L 229.177207 218.88 
L 229.426592 227.7504 
L 229.675978 218.88 
L 229.925363 201.1392 
L 230.174749 210.0096 
L 230.424134 201.1392 
L 230.67352 236.6208 
L 231.421676 263.232 
L 231.671061 263.232 
L 231.920447 289.8432 
L 232.169832 289.8432 
L 232.419218 307.584 
L 232.668603 298.7136 
L 232.917989 298.7136 
L 233.167374 289.8432 
L 233.41676 298.7136 
L 233.666145 272.1024 
L 234.164916 289.8432 
L 234.414302 289.8432 
L 234.663687 307.584 
L 235.411844 307.584 
L 235.910615 289.8432 
L 236.409385 245.4912 
L 236.908156 227.7504 
L 237.157542 254.3616 
L 237.406927 245.4912 
L 237.656313 272.1024 
L 237.905698 245.4912 
L 238.155084 254.3616 
L 238.404469 254.3616 
L 238.653855 263.232 
L 238.90324 280.9728 
L 239.152626 307.584 
L 244.639106 307.584 
L 244.888492 298.7136 
L 246.135419 298.7136 
L 246.384804 263.232 
L 247.132961 289.8432 
L 249.128045 289.8432 
L 249.37743 272.1024 
L 249.626816 245.4912 
L 249.876201 236.6208 
L 250.125587 236.6208 
L 250.374972 227.7504 
L 252.12067 210.0096 
L 252.370056 201.1392 
L 252.619441 218.88 
L 253.118212 201.1392 
L 253.367598 254.3616 
L 253.616983 263.232 
L 253.866369 280.9728 
L 255.612067 280.9728 
L 255.861453 254.3616 
L 256.110838 254.3616 
L 256.360223 236.6208 
L 256.609609 236.6208 
L 256.858994 192.2688 
L 257.357765 174.528 
L 257.607151 156.7872 
L 257.856536 165.6576 
L 258.355307 130.176 
L 258.604693 139.0464 
L 258.854078 156.7872 
L 259.103464 201.1392 
L 259.352849 183.3984 
L 259.602235 192.2688 
L 259.85162 210.0096 
L 260.101006 210.0096 
L 260.350391 218.88 
L 260.599777 210.0096 
L 261.098547 245.4912 
L 261.597318 245.4912 
L 261.846704 263.232 
L 262.096089 272.1024 
L 262.844246 272.1024 
L 263.093631 280.9728 
L 264.340559 280.9728 
L 264.589944 307.584 
L 268.829497 307.584 
L 269.078883 298.7136 
L 269.328268 307.584 
L 276.560447 307.584 
L 276.809832 272.1024 
L 277.059218 272.1024 
L 277.308603 254.3616 
L 279.802458 254.3616 
L 280.051844 218.88 
L 280.550615 236.6208 
L 280.8 218.88 
L 281.049385 227.7504 
L 281.797542 280.9728 
L 282.046927 289.8432 
L 282.296313 289.8432 
L 282.545698 298.7136 
L 282.795084 298.7136 
L 283.044469 307.584 
L 287.782793 307.584 
L 288.032179 272.1024 
L 288.53095 272.1024 
L 288.780335 245.4912 
L 289.029721 236.6208 
L 289.279106 254.3616 
L 289.528492 263.232 
L 289.777877 280.9728 
L 290.027263 272.1024 
L 290.276648 272.1024 
L 290.526034 254.3616 
L 290.775419 263.232 
L 291.024804 289.8432 
L 293.019888 289.8432 
L 293.269274 298.7136 
L 295.014972 298.7136 
L 295.264358 289.8432 
L 298.007598 289.8432 
L 298.256983 192.2688 
L 298.506369 183.3984 
L 298.755754 201.1392 
L 299.254525 218.88 
L 299.503911 210.0096 
L 299.753296 183.3984 
L 300.002682 174.528 
L 300.252067 192.2688 
L 300.750838 174.528 
L 301.249609 227.7504 
L 301.498994 236.6208 
L 301.74838 236.6208 
L 302.247151 254.3616 
L 303.244693 254.3616 
L 303.494078 263.232 
L 304.49162 263.232 
L 304.990391 280.9728 
L 305.239777 307.584 
L 305.489162 298.7136 
L 305.738547 280.9728 
L 306.237318 280.9728 
L 306.486704 272.1024 
L 311.973184 272.1024 
L 312.22257 254.3616 
L 312.471955 245.4912 
L 312.970726 245.4912 
L 313.469497 227.7504 
L 313.718883 210.0096 
L 313.968268 210.0096 
L 314.217654 201.1392 
L 314.467039 174.528 
L 314.96581 192.2688 
L 315.215196 192.2688 
L 315.464581 183.3984 
L 315.713966 156.7872 
L 316.212737 174.528 
L 316.462123 165.6576 
L 316.711508 218.88 
L 316.960894 201.1392 
L 317.210279 192.2688 
L 317.459665 156.7872 
L 317.70905 165.6576 
L 318.207821 147.9168 
L 318.457207 130.176 
L 318.706592 103.5648 
L 318.955978 112.4352 
L 319.205363 94.6944 
L 319.454749 85.824 
L 320.202905 139.0464 
L 320.452291 174.528 
L 320.701676 183.3984 
L 320.951061 147.9168 
L 321.449832 130.176 
L 321.699218 156.7872 
L 322.197989 174.528 
L 322.447374 156.7872 
L 322.69676 147.9168 
L 322.946145 165.6576 
L 323.444916 263.232 
L 323.694302 227.7504 
L 324.442458 254.3616 
L 324.691844 165.6576 
L 325.190615 183.3984 
L 325.44 156.7872 
L 325.689385 165.6576 
L 326.437542 139.0464 
L 326.686927 174.528 
L 326.936313 156.7872 
L 327.185698 147.9168 
L 327.435084 147.9168 
L 327.933855 130.176 
L 328.18324 165.6576 
L 328.432626 130.176 
L 329.180782 156.7872 
L 329.430168 139.0464 
L 329.679553 147.9168 
L 329.928939 139.0464 
L 330.178324 192.2688 
L 330.427709 183.3984 
L 330.677095 201.1392 
L 331.924022 245.4912 
L 332.173408 210.0096 
L 332.422793 218.88 
L 334.667263 227.7504 
L 334.916648 236.6208 
L 335.166034 236.6208 
L 335.415419 245.4912 
L 336.662346 245.4912 
L 336.911732 289.8432 
L 337.161117 307.584 
L 341.151285 307.584 
L 342.647598 254.3616 
L 342.896983 254.3616 
L 343.146369 218.88 
L 343.64514 201.1392 
L 343.894525 227.7504 
L 344.143911 236.6208 
L 344.393296 227.7504 
L 344.642682 210.0096 
L 344.892067 218.88 
L 345.141453 245.4912 
L 345.390838 307.584 
L 345.889609 307.584 
L 346.138994 289.8432 
L 346.38838 280.9728 
L 348.383464 272.1024 
L 348.632849 298.7136 
L 348.882235 307.584 
L 352.373631 307.584 
L 352.623017 289.8432 
L 352.872402 245.4912 
L 353.121788 227.7504 
L 353.371173 218.88 
L 353.869944 165.6576 
L 354.368715 183.3984 
L 354.618101 201.1392 
L 354.867486 210.0096 
L 355.116872 236.6208 
L 355.366257 218.88 
L 355.615642 192.2688 
L 355.865028 201.1392 
L 356.363799 192.2688 
L 357.111955 165.6576 
L 357.361341 210.0096 
L 357.610726 227.7504 
L 357.860112 254.3616 
L 358.358883 272.1024 
L 358.857654 272.1024 
L 359.107039 245.4912 
L 359.356425 245.4912 
L 359.60581 218.88 
L 359.855196 210.0096 
L 360.353966 210.0096 
L 360.852737 192.2688 
L 361.102123 192.2688 
L 361.600894 174.528 
L 361.850279 156.7872 
L 364.094749 165.6576 
L 364.842905 139.0464 
L 365.092291 103.5648 
L 366.588603 112.4352 
L 366.837989 94.6944 
L 367.087374 103.5648 
L 367.33676 121.3056 
L 367.586145 130.176 
L 368.084916 112.4352 
L 368.334302 94.6944 
L 368.583687 103.5648 
L 368.833073 227.7504 
L 369.082458 236.6208 
L 370.08 254.3616 
L 371.077542 254.3616 
L 371.326927 263.232 
L 371.825698 298.7136 
L 372.324469 263.232 
L 372.573855 254.3616 
L 372.82324 236.6208 
L 373.072626 245.4912 
L 373.322011 272.1024 
L 373.571397 263.232 
L 373.820782 289.8432 
L 374.070168 298.7136 
L 374.319553 298.7136 
L 374.568939 307.584 
L 374.818324 289.8432 
L 376.065251 245.4912 
L 376.314637 245.4912 
L 376.564022 227.7504 
L 377.062793 245.4912 
L 377.561564 245.4912 
L 377.81095 236.6208 
L 378.559106 236.6208 
L 378.808492 218.88 
L 379.057877 210.0096 
L 379.556648 210.0096 
L 379.806034 201.1392 
L 380.55419 201.1392 
L 381.052961 156.7872 
L 381.302346 139.0464 
L 382.050503 112.4352 
L 382.299888 94.6944 
L 382.549274 103.5648 
L 382.798659 85.824 
L 383.048045 76.9536 
L 383.29743 94.6944 
L 383.546816 147.9168 
L 384.045587 130.176 
L 384.544358 94.6944 
L 384.793743 103.5648 
L 385.043128 85.824 
L 385.791285 59.2128 
L 386.539441 165.6576 
L 386.788827 183.3984 
L 387.038212 192.2688 
L 387.536983 192.2688 
L 388.035754 272.1024 
L 388.783911 272.1024 
L 389.033296 280.9728 
L 389.282682 263.232 
L 389.532067 263.232 
L 390.030838 245.4912 
L 390.529609 245.4912 
L 391.02838 201.1392 
L 391.277765 210.0096 
L 391.527151 227.7504 
L 393.023464 218.88 
L 393.272849 201.1392 
L 393.77162 183.3984 
L 394.519777 272.1024 
L 394.769162 272.1024 
L 395.018547 298.7136 
L 395.267933 289.8432 
L 395.766704 289.8432 
L 396.016089 263.232 
L 396.265475 272.1024 
L 396.51486 245.4912 
L 396.764246 245.4912 
L 397.013631 218.88 
L 398.011173 183.3984 
L 398.260559 227.7504 
L 398.509944 236.6208 
L 398.75933 254.3616 
L 399.008715 254.3616 
L 399.258101 263.232 
L 399.507486 263.232 
L 399.756872 280.9728 
L 400.006257 307.584 
L 400.754413 307.584 
L 401.003799 298.7136 
L 401.253184 298.7136 
L 401.50257 236.6208 
L 402.001341 254.3616 
L 402.250726 245.4912 
L 402.500112 245.4912 
L 402.749497 263.232 
L 402.998883 254.3616 
L 403.248268 263.232 
L 403.497654 263.232 
L 403.747039 254.3616 
L 403.996425 254.3616 
L 404.24581 245.4912 
L 404.495196 272.1024 
L 404.744581 263.232 
L 404.993966 236.6208 
L 405.243352 245.4912 
L 405.492737 236.6208 
L 405.742123 254.3616 
L 405.991508 236.6208 
L 406.240894 245.4912 
L 406.490279 280.9728 
L 406.739665 263.232 
L 406.98905 236.6208 
L 407.487821 218.88 
L 407.737207 245.4912 
L 408.235978 227.7504 
L 408.734749 272.1024 
L 409.23352 307.584 
L 414.72 307.584 
L 414.72 307.584 
" style="fill:none;stroke:#ff7f0e;"/>
   </g>
   <g id="patch_3">
    <path d="M 57.6 307.584 
L 57.6 41.472 
" style="fill:none;stroke:#000000;stroke-linecap:square;stroke-linejoin:miter;stroke-width:0.8;"/>
   </g>
   <g id="patch_4">
    <path d="M 414.72 307.584 
L 414.72 41.472 
" style="fill:none;stroke:#000000;stroke-linecap:square;stroke-linejoin:miter;stroke-width:0.8;"/>
   </g>
   <g id="patch_5">
    <path d="M 57.6 307.584 
L 414.72 307.584 
" style="fill:none;stroke:#000000;stroke-linecap:square;stroke-linejoin:miter;stroke-width:0.8;"/>
   </g>
   <g id="patch_6">
    <path d="M 57.6 41.472 
L 414.72 41.472 
" style="fill:none;stroke:#000000;stroke-linecap:square;stroke-linejoin:miter;stroke-width:0.8;"/>
   </g>
   <g id="legend_1">
    <g id="patch_7">
     <path d="M 82.012188 79.3845 
L 409.72 79.3845 
L 409.72 46.472 
L 82.012188 46.472 
z
" style="fill:#ffffff;stroke:#000000;stroke-linejoin:miter;"/>
    </g>
    <g id="line2d_18">
     <path d="M 86.012188 54.570438 
L 106.012188 54.570438 
" style="fill:none;stroke:#1f77b4;"/>
    </g>
    <g id="line2d_19"/>
    <g id="text_18">
     <!-- sa_cas9/blast_refseq_5000/mafft/threshold (N=618) -->
     <defs>
      <path d="M 50.984375 -16.609375 
L 50.984375 -23.578125 
L -0.984375 -23.578125 
L -0.984375 -16.609375 
z
" id="DejaVuSans-95"/>
      <path d="M 48.78125 52.59375 
L 48.78125 44.1875 
Q 44.96875 46.296875 41.140625 47.34375 
Q 37.3125 48.390625 33.40625 48.390625 
Q 24.65625 48.390625 19.8125 42.84375 
Q 14.984375 37.3125 14.984375 27.296875 
Q 14.984375 17.28125 19.8125 11.734375 
Q 24.65625 6.203125 33.40625 6.203125 
Q 37.3125 6.203125 41.140625 7.25 
Q 44.96875 8.296875 48.78125 10.40625 
L 48.78125 2.09375 
Q 45.015625 0.34375 40.984375 -0.53125 
Q 36.96875 -1.421875 32.421875 -1.421875 
Q 20.0625 -1.421875 12.78125 6.34375 
Q 5.515625 14.109375 5.515625 27.296875 
Q 5.515625 40.671875 12.859375 48.328125 
Q 20.21875 56 33.015625 56 
Q 37.15625 56 41.109375 55.140625 
Q 45.0625 54.296875 48.78125 52.59375 
z
" id="DejaVuSans-99"/>
      <path d="M 10.984375 1.515625 
L 10.984375 10.5 
Q 14.703125 8.734375 18.5 7.8125 
Q 22.3125 6.890625 25.984375 6.890625 
Q 35.75 6.890625 40.890625 13.453125 
Q 46.046875 20.015625 46.78125 33.40625 
Q 43.953125 29.203125 39.59375 26.953125 
Q 35.25 24.703125 29.984375 24.703125 
Q 19.046875 24.703125 12.671875 31.3125 
Q 6.296875 37.9375 6.296875 49.421875 
Q 6.296875 60.640625 12.9375 67.421875 
Q 19.578125 74.21875 30.609375 74.21875 
Q 43.265625 74.21875 49.921875 64.515625 
Q 56.59375 54.828125 56.59375 36.375 
Q 56.59375 19.140625 48.40625 8.859375 
Q 40.234375 -1.421875 26.421875 -1.421875 
Q 22.703125 -1.421875 18.890625 -0.6875 
Q 15.09375 0.046875 10.984375 1.515625 
z
M 30.609375 32.421875 
Q 37.25 32.421875 41.125 36.953125 
Q 45.015625 41.5 45.015625 49.421875 
Q 45.015625 57.28125 41.125 61.84375 
Q 37.25 66.40625 30.609375 66.40625 
Q 23.96875 66.40625 20.09375 61.84375 
Q 16.21875 57.28125 16.21875 49.421875 
Q 16.21875 41.5 20.09375 36.953125 
Q 23.96875 32.421875 30.609375 32.421875 
z
" id="DejaVuSans-57"/>
      <path d="M 25.390625 72.90625 
L 33.6875 72.90625 
L 8.296875 -9.28125 
L 0 -9.28125 
z
" id="DejaVuSans-47"/>
      <path d="M 48.6875 27.296875 
Q 48.6875 37.203125 44.609375 42.84375 
Q 40.53125 48.484375 33.40625 48.484375 
Q 26.265625 48.484375 22.1875 42.84375 
Q 18.109375 37.203125 18.109375 27.296875 
Q 18.109375 17.390625 22.1875 11.75 
Q 26.265625 6.109375 33.40625 6.109375 
Q 40.53125 6.109375 44.609375 11.75 
Q 48.6875 17.390625 48.6875 27.296875 
z
M 18.109375 46.390625 
Q 20.953125 51.265625 25.265625 53.625 
Q 29.59375 56 35.59375 56 
Q 45.5625 56 51.78125 48.09375 
Q 58.015625 40.1875 58.015625 27.296875 
Q 58.015625 14.40625 51.78125 6.484375 
Q 45.5625 -1.421875 35.59375 -1.421875 
Q 29.59375 -1.421875 25.265625 0.953125 
Q 20.953125 3.328125 18.109375 8.203125 
L 18.109375 0 
L 9.078125 0 
L 9.078125 75.984375 
L 18.109375 75.984375 
z
" id="DejaVuSans-98"/>
      <path d="M 37.109375 75.984375 
L 37.109375 68.5 
L 28.515625 68.5 
Q 23.6875 68.5 21.796875 66.546875 
Q 19.921875 64.59375 19.921875 59.515625 
L 19.921875 54.6875 
L 34.71875 54.6875 
L 34.71875 47.703125 
L 19.921875 47.703125 
L 19.921875 0 
L 10.890625 0 
L 10.890625 47.703125 
L 2.296875 47.703125 
L 2.296875 54.6875 
L 10.890625 54.6875 
L 10.890625 58.5 
Q 10.890625 67.625 15.140625 71.796875 
Q 19.390625 75.984375 28.609375 75.984375 
z
" id="DejaVuSans-102"/>
      <path d="M 14.796875 27.296875 
Q 14.796875 17.390625 18.875 11.75 
Q 22.953125 6.109375 30.078125 6.109375 
Q 37.203125 6.109375 41.296875 11.75 
Q 45.40625 17.390625 45.40625 27.296875 
Q 45.40625 37.203125 41.296875 42.84375 
Q 37.203125 48.484375 30.078125 48.484375 
Q 22.953125 48.484375 18.875 42.84375 
Q 14.796875 37.203125 14.796875 27.296875 
z
M 45.40625 8.203125 
Q 42.578125 3.328125 38.25 0.953125 
Q 33.9375 -1.421875 27.875 -1.421875 
Q 17.96875 -1.421875 11.734375 6.484375 
Q 5.515625 14.40625 5.515625 27.296875 
Q 5.515625 40.1875 11.734375 48.09375 
Q 17.96875 56 27.875 56 
Q 33.9375 56 38.25 53.625 
Q 42.578125 51.265625 45.40625 46.390625 
L 45.40625 54.6875 
L 54.390625 54.6875 
L 54.390625 -20.796875 
L 45.40625 -20.796875 
z
" id="DejaVuSans-113"/>
      <path d="M 52 44.1875 
Q 55.375 50.25 60.0625 53.125 
Q 64.75 56 71.09375 56 
Q 79.640625 56 84.28125 50.015625 
Q 88.921875 44.046875 88.921875 33.015625 
L 88.921875 0 
L 79.890625 0 
L 79.890625 32.71875 
Q 79.890625 40.578125 77.09375 44.375 
Q 74.3125 48.1875 68.609375 48.1875 
Q 61.625 48.1875 57.5625 43.546875 
Q 53.515625 38.921875 53.515625 30.90625 
L 53.515625 0 
L 44.484375 0 
L 44.484375 32.71875 
Q 44.484375 40.625 41.703125 44.40625 
Q 38.921875 48.1875 33.109375 48.1875 
Q 26.21875 48.1875 22.15625 43.53125 
Q 18.109375 38.875 18.109375 30.90625 
L 18.109375 0 
L 9.078125 0 
L 9.078125 54.6875 
L 18.109375 54.6875 
L 18.109375 46.1875 
Q 21.1875 51.21875 25.484375 53.609375 
Q 29.78125 56 35.6875 56 
Q 41.65625 56 45.828125 52.96875 
Q 50 49.953125 52 44.1875 
z
" id="DejaVuSans-109"/>
      <path d="M 54.890625 33.015625 
L 54.890625 0 
L 45.90625 0 
L 45.90625 32.71875 
Q 45.90625 40.484375 42.875 44.328125 
Q 39.84375 48.1875 33.796875 48.1875 
Q 26.515625 48.1875 22.3125 43.546875 
Q 18.109375 38.921875 18.109375 30.90625 
L 18.109375 0 
L 9.078125 0 
L 9.078125 75.984375 
L 18.109375 75.984375 
L 18.109375 46.1875 
Q 21.34375 51.125 25.703125 53.5625 
Q 30.078125 56 35.796875 56 
Q 45.21875 56 50.046875 50.171875 
Q 54.890625 44.34375 54.890625 33.015625 
z
" id="DejaVuSans-104"/>
      <path d="M 31 75.875 
Q 24.46875 64.65625 21.28125 53.65625 
Q 18.109375 42.671875 18.109375 31.390625 
Q 18.109375 20.125 21.3125 9.0625 
Q 24.515625 -2 31 -13.1875 
L 23.1875 -13.1875 
Q 15.875 -1.703125 12.234375 9.375 
Q 8.59375 20.453125 8.59375 31.390625 
Q 8.59375 42.28125 12.203125 53.3125 
Q 15.828125 64.359375 23.1875 75.875 
z
" id="DejaVuSans-40"/>
      <path d="M 9.8125 72.90625 
L 23.09375 72.90625 
L 55.421875 11.921875 
L 55.421875 72.90625 
L 64.984375 72.90625 
L 64.984375 0 
L 51.703125 0 
L 19.390625 60.984375 
L 19.390625 0 
L 9.8125 0 
z
" id="DejaVuSans-78"/>
      <path d="M 10.59375 45.40625 
L 73.1875 45.40625 
L 73.1875 37.203125 
L 10.59375 37.203125 
z
M 10.59375 25.484375 
L 73.1875 25.484375 
L 73.1875 17.1875 
L 10.59375 17.1875 
z
" id="DejaVuSans-61"/>
      <path d="M 8.015625 75.875 
L 15.828125 75.875 
Q 23.140625 64.359375 26.78125 53.3125 
Q 30.421875 42.28125 30.421875 31.390625 
Q 30.421875 20.453125 26.78125 9.375 
Q 23.140625 -1.703125 15.828125 -13.1875 
L 8.015625 -13.1875 
Q 14.5 -2 17.703125 9.0625 
Q 20.90625 20.125 20.90625 31.390625 
Q 20.90625 42.671875 17.703125 53.65625 
Q 14.5 64.65625 8.015625 75.875 
z
" id="DejaVuSans-41"/>
     </defs>
     <g transform="translate(114.012188 58.070438)scale(0.1 -0.1)">
      <use xlink:href="#DejaVuSans-115"/>
      <use x="52.099609" xlink:href="#DejaVuSans-97"/>
      <use x="113.378906" xlink:href="#DejaVuSans-95"/>
      <use x="163.378906" xlink:href="#DejaVuSans-99"/>
      <use x="218.359375" xlink:href="#DejaVuSans-97"/>
      <use x="279.638672" xlink:href="#DejaVuSans-115"/>
      <use x="331.738281" xlink:href="#DejaVuSans-57"/>
      <use x="395.361328" xlink:href="#DejaVuSans-47"/>
      <use x="429.052734" xlink:href="#DejaVuSans-98"/>
      <use x="492.529297" xlink:href="#DejaVuSans-108"/>
      <use x="520.3125" xlink:href="#DejaVuSans-97"/>
      <use x="581.591797" xlink:href="#DejaVuSans-115"/>
      <use x="633.691406" xlink:href="#DejaVuSans-116"/>
      <use x="672.900391" xlink:href="#DejaVuSans-95"/>
      <use x="722.900391" xlink:href="#DejaVuSans-114"/>
      <use x="763.982422" xlink:href="#DejaVuSans-101"/>
      <use x="825.505859" xlink:href="#DejaVuSans-102"/>
      <use x="860.710938" xlink:href="#DejaVuSans-115"/>
      <use x="912.810547" xlink:href="#DejaVuSans-101"/>
      <use x="974.333984" xlink:href="#DejaVuSans-113"/>
      <use x="1037.810547" xlink:href="#DejaVuSans-95"/>
      <use x="1087.810547" xlink:href="#DejaVuSans-53"/>
      <use x="1151.433594" xlink:href="#DejaVuSans-48"/>
      <use x="1215.056641" xlink:href="#DejaVuSans-48"/>
      <use x="1278.679688" xlink:href="#DejaVuSans-48"/>
      <use x="1342.302734" xlink:href="#DejaVuSans-47"/>
      <use x="1375.994141" xlink:href="#DejaVuSans-109"/>
      <use x="1473.40625" xlink:href="#DejaVuSans-97"/>
      <use x="1534.685547" xlink:href="#DejaVuSans-102"/>
      <use x="1569.890625" xlink:href="#DejaVuSans-102"/>
      <use x="1605.080078" xlink:href="#DejaVuSans-116"/>
      <use x="1644.289062" xlink:href="#DejaVuSans-47"/>
      <use x="1677.980469" xlink:href="#DejaVuSans-116"/>
      <use x="1717.189453" xlink:href="#DejaVuSans-104"/>
      <use x="1780.568359" xlink:href="#DejaVuSans-114"/>
      <use x="1821.650391" xlink:href="#DejaVuSans-101"/>
      <use x="1883.173828" xlink:href="#DejaVuSans-115"/>
      <use x="1935.273438" xlink:href="#DejaVuSans-104"/>
      <use x="1998.652344" xlink:href="#DejaVuSans-111"/>
      <use x="2059.833984" xlink:href="#DejaVuSans-108"/>
      <use x="2087.617188" xlink:href="#DejaVuSans-100"/>
      <use x="2151.09375" xlink:href="#DejaVuSans-32"/>
      <use x="2182.880859" xlink:href="#DejaVuSans-40"/>
      <use x="2221.894531" xlink:href="#DejaVuSans-78"/>
      <use x="2296.699219" xlink:href="#DejaVuSans-61"/>
      <use x="2380.488281" xlink:href="#DejaVuSans-54"/>
      <use x="2444.111328" xlink:href="#DejaVuSans-49"/>
      <use x="2507.734375" xlink:href="#DejaVuSans-56"/>
      <use x="2571.357422" xlink:href="#DejaVuSans-41"/>
     </g>
    </g>
    <g id="line2d_20">
     <path d="M 86.012188 69.526688 
L 106.012188 69.526688 
" style="fill:none;stroke:#ff7f0e;"/>
    </g>
    <g id="line2d_21"/>
    <g id="text_19">
     <!-- sp_cas9/blast_refseq_5000/mafft_2000/threshold (N=555) -->
     <defs>
      <path d="M 18.109375 8.203125 
L 18.109375 -20.796875 
L 9.078125 -20.796875 
L 9.078125 54.6875 
L 18.109375 54.6875 
L 18.109375 46.390625 
Q 20.953125 51.265625 25.265625 53.625 
Q 29.59375 56 35.59375 56 
Q 45.5625 56 51.78125 48.09375 
Q 58.015625 40.1875 58.015625 27.296875 
Q 58.015625 14.40625 51.78125 6.484375 
Q 45.5625 -1.421875 35.59375 -1.421875 
Q 29.59375 -1.421875 25.265625 0.953125 
Q 20.953125 3.328125 18.109375 8.203125 
z
M 48.6875 27.296875 
Q 48.6875 37.203125 44.609375 42.84375 
Q 40.53125 48.484375 33.40625 48.484375 
Q 26.265625 48.484375 22.1875 42.84375 
Q 18.109375 37.203125 18.109375 27.296875 
Q 18.109375 17.390625 22.1875 11.75 
Q 26.265625 6.109375 33.40625 6.109375 
Q 40.53125 6.109375 44.609375 11.75 
Q 48.6875 17.390625 48.6875 27.296875 
z
" id="DejaVuSans-112"/>
     </defs>
     <g transform="translate(114.012188 73.026688)scale(0.1 -0.1)">
      <use xlink:href="#DejaVuSans-115"/>
      <use x="52.099609" xlink:href="#DejaVuSans-112"/>
      <use x="115.576172" xlink:href="#DejaVuSans-95"/>
      <use x="165.576172" xlink:href="#DejaVuSans-99"/>
      <use x="220.556641" xlink:href="#DejaVuSans-97"/>
      <use x="281.835938" xlink:href="#DejaVuSans-115"/>
      <use x="333.935547" xlink:href="#DejaVuSans-57"/>
      <use x="397.558594" xlink:href="#DejaVuSans-47"/>
      <use x="431.25" xlink:href="#DejaVuSans-98"/>
      <use x="494.726562" xlink:href="#DejaVuSans-108"/>
      <use x="522.509766" xlink:href="#DejaVuSans-97"/>
      <use x="583.789062" xlink:href="#DejaVuSans-115"/>
      <use x="635.888672" xlink:href="#DejaVuSans-116"/>
      <use x="675.097656" xlink:href="#DejaVuSans-95"/>
      <use x="725.097656" xlink:href="#DejaVuSans-114"/>
      <use x="766.179688" xlink:href="#DejaVuSans-101"/>
      <use x="827.703125" xlink:href="#DejaVuSans-102"/>
      <use x="862.908203" xlink:href="#DejaVuSans-115"/>
      <use x="915.007812" xlink:href="#DejaVuSans-101"/>
      <use x="976.53125" xlink:href="#DejaVuSans-113"/>
      <use x="1040.007812" xlink:href="#DejaVuSans-95"/>
      <use x="1090.007812" xlink:href="#DejaVuSans-53"/>
      <use x="1153.630859" xlink:href="#DejaVuSans-48"/>
      <use x="1217.253906" xlink:href="#DejaVuSans-48"/>
      <use x="1280.876953" xlink:href="#DejaVuSans-48"/>
      <use x="1344.5" xlink:href="#DejaVuSans-47"/>
      <use x="1378.191406" xlink:href="#DejaVuSans-109"/>
      <use x="1475.603516" xlink:href="#DejaVuSans-97"/>
      <use x="1536.882812" xlink:href="#DejaVuSans-102"/>
      <use x="1572.087891" xlink:href="#DejaVuSans-102"/>
      <use x="1607.277344" xlink:href="#DejaVuSans-116"/>
      <use x="1646.486328" xlink:href="#DejaVuSans-95"/>
      <use x="1696.486328" xlink:href="#DejaVuSans-50"/>
      <use x="1760.109375" xlink:href="#DejaVuSans-48"/>
      <use x="1823.732422" xlink:href="#DejaVuSans-48"/>
      <use x="1887.355469" xlink:href="#DejaVuSans-48"/>
      <use x="1950.978516" xlink:href="#DejaVuSans-47"/>
      <use x="1984.669922" xlink:href="#DejaVuSans-116"/>
      <use x="2023.878906" xlink:href="#DejaVuSans-104"/>
      <use x="2087.257812" xlink:href="#DejaVuSans-114"/>
      <use x="2128.339844" xlink:href="#DejaVuSans-101"/>
      <use x="2189.863281" xlink:href="#DejaVuSans-115"/>
      <use x="2241.962891" xlink:href="#DejaVuSans-104"/>
      <use x="2305.341797" xlink:href="#DejaVuSans-111"/>
      <use x="2366.523438" xlink:href="#DejaVuSans-108"/>
      <use x="2394.306641" xlink:href="#DejaVuSans-100"/>
      <use x="2457.783203" xlink:href="#DejaVuSans-32"/>
      <use x="2489.570312" xlink:href="#DejaVuSans-40"/>
      <use x="2528.583984" xlink:href="#DejaVuSans-78"/>
      <use x="2603.388672" xlink:href="#DejaVuSans-61"/>
      <use x="2687.177734" xlink:href="#DejaVuSans-53"/>
      <use x="2750.800781" xlink:href="#DejaVuSans-53"/>
      <use x="2814.423828" xlink:href="#DejaVuSans-53"/>
      <use x="2878.046875" xlink:href="#DejaVuSans-41"/>
     </g>
    </g>
   </g>
  </g>
 </g>
 <defs>
  <clipPath id="p4ff32696cb">
   <rect height="266.112" width="357.12" x="57.6" y="41.472"/>
  </clipPath>
 </defs>
</svg>
