<?xml version="1.0" encoding="utf-8" standalone="no"?>
<!DOCTYPE svg PUBLIC "-//W3C//DTD SVG 1.1//EN"
  "http://www.w3.org/Graphics/SVG/1.1/DTD/svg11.dtd">
<!-- Created with matplotlib (https://matplotlib.org/) -->
<svg height="345.6pt" version="1.1" viewBox="0 0 460.8 345.6" width="460.8pt" xmlns="http://www.w3.org/2000/svg" xmlns:xlink="http://www.w3.org/1999/xlink">
 <defs>
  <style type="text/css">
*{stroke-linecap:butt;stroke-linejoin:round;}
  </style>
 </defs>
 <g id="figure_1">
  <g id="patch_1">
   <path d="M 0 345.6 
L 460.8 345.6 
L 460.8 0 
L 0 0 
z
" style="fill:none;"/>
  </g>
  <g id="axes_1">
   <g id="patch_2">
    <path d="M 57.6 307.584 
L 414.72 307.584 
L 414.72 41.472 
L 57.6 41.472 
z
" style="fill:#ffffff;"/>
   </g>
   <g id="matplotlib.axis_1">
    <g id="xtick_1">
     <g id="line2d_1">
      <defs>
       <path d="M 0 0 
L 0 3.5 
" id="mb284d1aae7" style="stroke:#000000;stroke-width:0.8;"/>
      </defs>
      <g>
       <use style="stroke:#000000;stroke-width:0.8;" x="57.6" xlink:href="#mb284d1aae7" y="307.584"/>
      </g>
     </g>
     <g id="text_1">
      <!-- 0 -->
      <defs>
       <path d="M 31.78125 66.40625 
Q 24.171875 66.40625 20.328125 58.90625 
Q 16.5 51.421875 16.5 36.375 
Q 16.5 21.390625 20.328125 13.890625 
Q 24.171875 6.390625 31.78125 6.390625 
Q 39.453125 6.390625 43.28125 13.890625 
Q 47.125 21.390625 47.125 36.375 
Q 47.125 51.421875 43.28125 58.90625 
Q 39.453125 66.40625 31.78125 66.40625 
z
M 31.78125 74.21875 
Q 44.046875 74.21875 50.515625 64.515625 
Q 56.984375 54.828125 56.984375 36.375 
Q 56.984375 17.96875 50.515625 8.265625 
Q 44.046875 -1.421875 31.78125 -1.421875 
Q 19.53125 -1.421875 13.0625 8.265625 
Q 6.59375 17.96875 6.59375 36.375 
Q 6.59375 54.828125 13.0625 64.515625 
Q 19.53125 74.21875 31.78125 74.21875 
z
" id="DejaVuSans-48"/>
      </defs>
      <g transform="translate(54.41875 322.182437)scale(0.1 -0.1)">
       <use xlink:href="#DejaVuSans-48"/>
      </g>
     </g>
    </g>
    <g id="xtick_2">
     <g id="line2d_2">
      <g>
       <use style="stroke:#000000;stroke-width:0.8;" x="124.476404" xlink:href="#mb284d1aae7" y="307.584"/>
      </g>
     </g>
     <g id="text_2">
      <!-- 200 -->
      <defs>
       <path d="M 19.1875 8.296875 
L 53.609375 8.296875 
L 53.609375 0 
L 7.328125 0 
L 7.328125 8.296875 
Q 12.9375 14.109375 22.625 23.890625 
Q 32.328125 33.6875 34.8125 36.53125 
Q 39.546875 41.84375 41.421875 45.53125 
Q 43.3125 49.21875 43.3125 52.78125 
Q 43.3125 58.59375 39.234375 62.25 
Q 35.15625 65.921875 28.609375 65.921875 
Q 23.96875 65.921875 18.8125 64.3125 
Q 13.671875 62.703125 7.8125 59.421875 
L 7.8125 69.390625 
Q 13.765625 71.78125 18.9375 73 
Q 24.125 74.21875 28.421875 74.21875 
Q 39.75 74.21875 46.484375 68.546875 
Q 53.21875 62.890625 53.21875 53.421875 
Q 53.21875 48.921875 51.53125 44.890625 
Q 49.859375 40.875 45.40625 35.40625 
Q 44.1875 33.984375 37.640625 27.21875 
Q 31.109375 20.453125 19.1875 8.296875 
z
" id="DejaVuSans-50"/>
      </defs>
      <g transform="translate(114.932654 322.182437)scale(0.1 -0.1)">
       <use xlink:href="#DejaVuSans-50"/>
       <use x="63.623047" xlink:href="#DejaVuSans-48"/>
       <use x="127.246094" xlink:href="#DejaVuSans-48"/>
      </g>
     </g>
    </g>
    <g id="xtick_3">
     <g id="line2d_3">
      <g>
       <use style="stroke:#000000;stroke-width:0.8;" x="191.352809" xlink:href="#mb284d1aae7" y="307.584"/>
      </g>
     </g>
     <g id="text_3">
      <!-- 400 -->
      <defs>
       <path d="M 37.796875 64.3125 
L 12.890625 25.390625 
L 37.796875 25.390625 
z
M 35.203125 72.90625 
L 47.609375 72.90625 
L 47.609375 25.390625 
L 58.015625 25.390625 
L 58.015625 17.1875 
L 47.609375 17.1875 
L 47.609375 0 
L 37.796875 0 
L 37.796875 17.1875 
L 4.890625 17.1875 
L 4.890625 26.703125 
z
" id="DejaVuSans-52"/>
      </defs>
      <g transform="translate(181.809059 322.182437)scale(0.1 -0.1)">
       <use xlink:href="#DejaVuSans-52"/>
       <use x="63.623047" xlink:href="#DejaVuSans-48"/>
       <use x="127.246094" xlink:href="#DejaVuSans-48"/>
      </g>
     </g>
    </g>
    <g id="xtick_4">
     <g id="line2d_4">
      <g>
       <use style="stroke:#000000;stroke-width:0.8;" x="258.229213" xlink:href="#mb284d1aae7" y="307.584"/>
      </g>
     </g>
     <g id="text_4">
      <!-- 600 -->
      <defs>
       <path d="M 33.015625 40.375 
Q 26.375 40.375 22.484375 35.828125 
Q 18.609375 31.296875 18.609375 23.390625 
Q 18.609375 15.53125 22.484375 10.953125 
Q 26.375 6.390625 33.015625 6.390625 
Q 39.65625 6.390625 43.53125 10.953125 
Q 47.40625 15.53125 47.40625 23.390625 
Q 47.40625 31.296875 43.53125 35.828125 
Q 39.65625 40.375 33.015625 40.375 
z
M 52.59375 71.296875 
L 52.59375 62.3125 
Q 48.875 64.0625 45.09375 64.984375 
Q 41.3125 65.921875 37.59375 65.921875 
Q 27.828125 65.921875 22.671875 59.328125 
Q 17.53125 52.734375 16.796875 39.40625 
Q 19.671875 43.65625 24.015625 45.921875 
Q 28.375 48.1875 33.59375 48.1875 
Q 44.578125 48.1875 50.953125 41.515625 
Q 57.328125 34.859375 57.328125 23.390625 
Q 57.328125 12.15625 50.6875 5.359375 
Q 44.046875 -1.421875 33.015625 -1.421875 
Q 20.359375 -1.421875 13.671875 8.265625 
Q 6.984375 17.96875 6.984375 36.375 
Q 6.984375 53.65625 15.1875 63.9375 
Q 23.390625 74.21875 37.203125 74.21875 
Q 40.921875 74.21875 44.703125 73.484375 
Q 48.484375 72.75 52.59375 71.296875 
z
" id="DejaVuSans-54"/>
      </defs>
      <g transform="translate(248.685463 322.182437)scale(0.1 -0.1)">
       <use xlink:href="#DejaVuSans-54"/>
       <use x="63.623047" xlink:href="#DejaVuSans-48"/>
       <use x="127.246094" xlink:href="#DejaVuSans-48"/>
      </g>
     </g>
    </g>
    <g id="xtick_5">
     <g id="line2d_5">
      <g>
       <use style="stroke:#000000;stroke-width:0.8;" x="325.105618" xlink:href="#mb284d1aae7" y="307.584"/>
      </g>
     </g>
     <g id="text_5">
      <!-- 800 -->
      <defs>
       <path d="M 31.78125 34.625 
Q 24.75 34.625 20.71875 30.859375 
Q 16.703125 27.09375 16.703125 20.515625 
Q 16.703125 13.921875 20.71875 10.15625 
Q 24.75 6.390625 31.78125 6.390625 
Q 38.8125 6.390625 42.859375 10.171875 
Q 46.921875 13.96875 46.921875 20.515625 
Q 46.921875 27.09375 42.890625 30.859375 
Q 38.875 34.625 31.78125 34.625 
z
M 21.921875 38.8125 
Q 15.578125 40.375 12.03125 44.71875 
Q 8.5 49.078125 8.5 55.328125 
Q 8.5 64.0625 14.71875 69.140625 
Q 20.953125 74.21875 31.78125 74.21875 
Q 42.671875 74.21875 48.875 69.140625 
Q 55.078125 64.0625 55.078125 55.328125 
Q 55.078125 49.078125 51.53125 44.71875 
Q 48 40.375 41.703125 38.8125 
Q 48.828125 37.15625 52.796875 32.3125 
Q 56.78125 27.484375 56.78125 20.515625 
Q 56.78125 9.90625 50.3125 4.234375 
Q 43.84375 -1.421875 31.78125 -1.421875 
Q 19.734375 -1.421875 13.25 4.234375 
Q 6.78125 9.90625 6.78125 20.515625 
Q 6.78125 27.484375 10.78125 32.3125 
Q 14.796875 37.15625 21.921875 38.8125 
z
M 18.3125 54.390625 
Q 18.3125 48.734375 21.84375 45.5625 
Q 25.390625 42.390625 31.78125 42.390625 
Q 38.140625 42.390625 41.71875 45.5625 
Q 45.3125 48.734375 45.3125 54.390625 
Q 45.3125 60.0625 41.71875 63.234375 
Q 38.140625 66.40625 31.78125 66.40625 
Q 25.390625 66.40625 21.84375 63.234375 
Q 18.3125 60.0625 18.3125 54.390625 
z
" id="DejaVuSans-56"/>
      </defs>
      <g transform="translate(315.561868 322.182437)scale(0.1 -0.1)">
       <use xlink:href="#DejaVuSans-56"/>
       <use x="63.623047" xlink:href="#DejaVuSans-48"/>
       <use x="127.246094" xlink:href="#DejaVuSans-48"/>
      </g>
     </g>
    </g>
    <g id="xtick_6">
     <g id="line2d_6">
      <g>
       <use style="stroke:#000000;stroke-width:0.8;" x="391.982022" xlink:href="#mb284d1aae7" y="307.584"/>
      </g>
     </g>
     <g id="text_6">
      <!-- 1000 -->
      <defs>
       <path d="M 12.40625 8.296875 
L 28.515625 8.296875 
L 28.515625 63.921875 
L 10.984375 60.40625 
L 10.984375 69.390625 
L 28.421875 72.90625 
L 38.28125 72.90625 
L 38.28125 8.296875 
L 54.390625 8.296875 
L 54.390625 0 
L 12.40625 0 
z
" id="DejaVuSans-49"/>
      </defs>
      <g transform="translate(379.257022 322.182437)scale(0.1 -0.1)">
       <use xlink:href="#DejaVuSans-49"/>
       <use x="63.623047" xlink:href="#DejaVuSans-48"/>
       <use x="127.246094" xlink:href="#DejaVuSans-48"/>
       <use x="190.869141" xlink:href="#DejaVuSans-48"/>
      </g>
     </g>
    </g>
    <g id="text_7">
     <!-- residue index -->
     <defs>
      <path d="M 41.109375 46.296875 
Q 39.59375 47.171875 37.8125 47.578125 
Q 36.03125 48 33.890625 48 
Q 26.265625 48 22.1875 43.046875 
Q 18.109375 38.09375 18.109375 28.8125 
L 18.109375 0 
L 9.078125 0 
L 9.078125 54.6875 
L 18.109375 54.6875 
L 18.109375 46.1875 
Q 20.953125 51.171875 25.484375 53.578125 
Q 30.03125 56 36.53125 56 
Q 37.453125 56 38.578125 55.875 
Q 39.703125 55.765625 41.0625 55.515625 
z
" id="DejaVuSans-114"/>
      <path d="M 56.203125 29.59375 
L 56.203125 25.203125 
L 14.890625 25.203125 
Q 15.484375 15.921875 20.484375 11.0625 
Q 25.484375 6.203125 34.421875 6.203125 
Q 39.59375 6.203125 44.453125 7.46875 
Q 49.3125 8.734375 54.109375 11.28125 
L 54.109375 2.78125 
Q 49.265625 0.734375 44.1875 -0.34375 
Q 39.109375 -1.421875 33.890625 -1.421875 
Q 20.796875 -1.421875 13.15625 6.1875 
Q 5.515625 13.8125 5.515625 26.8125 
Q 5.515625 40.234375 12.765625 48.109375 
Q 20.015625 56 32.328125 56 
Q 43.359375 56 49.78125 48.890625 
Q 56.203125 41.796875 56.203125 29.59375 
z
M 47.21875 32.234375 
Q 47.125 39.59375 43.09375 43.984375 
Q 39.0625 48.390625 32.421875 48.390625 
Q 24.90625 48.390625 20.390625 44.140625 
Q 15.875 39.890625 15.1875 32.171875 
z
" id="DejaVuSans-101"/>
      <path d="M 44.28125 53.078125 
L 44.28125 44.578125 
Q 40.484375 46.53125 36.375 47.5 
Q 32.28125 48.484375 27.875 48.484375 
Q 21.1875 48.484375 17.84375 46.4375 
Q 14.5 44.390625 14.5 40.28125 
Q 14.5 37.15625 16.890625 35.375 
Q 19.28125 33.59375 26.515625 31.984375 
L 29.59375 31.296875 
Q 39.15625 29.25 43.1875 25.515625 
Q 47.21875 21.78125 47.21875 15.09375 
Q 47.21875 7.46875 41.1875 3.015625 
Q 35.15625 -1.421875 24.609375 -1.421875 
Q 20.21875 -1.421875 15.453125 -0.5625 
Q 10.6875 0.296875 5.421875 2 
L 5.421875 11.28125 
Q 10.40625 8.6875 15.234375 7.390625 
Q 20.0625 6.109375 24.8125 6.109375 
Q 31.15625 6.109375 34.5625 8.28125 
Q 37.984375 10.453125 37.984375 14.40625 
Q 37.984375 18.0625 35.515625 20.015625 
Q 33.0625 21.96875 24.703125 23.78125 
L 21.578125 24.515625 
Q 13.234375 26.265625 9.515625 29.90625 
Q 5.8125 33.546875 5.8125 39.890625 
Q 5.8125 47.609375 11.28125 51.796875 
Q 16.75 56 26.8125 56 
Q 31.78125 56 36.171875 55.265625 
Q 40.578125 54.546875 44.28125 53.078125 
z
" id="DejaVuSans-115"/>
      <path d="M 9.421875 54.6875 
L 18.40625 54.6875 
L 18.40625 0 
L 9.421875 0 
z
M 9.421875 75.984375 
L 18.40625 75.984375 
L 18.40625 64.59375 
L 9.421875 64.59375 
z
" id="DejaVuSans-105"/>
      <path d="M 45.40625 46.390625 
L 45.40625 75.984375 
L 54.390625 75.984375 
L 54.390625 0 
L 45.40625 0 
L 45.40625 8.203125 
Q 42.578125 3.328125 38.25 0.953125 
Q 33.9375 -1.421875 27.875 -1.421875 
Q 17.96875 -1.421875 11.734375 6.484375 
Q 5.515625 14.40625 5.515625 27.296875 
Q 5.515625 40.1875 11.734375 48.09375 
Q 17.96875 56 27.875 56 
Q 33.9375 56 38.25 53.625 
Q 42.578125 51.265625 45.40625 46.390625 
z
M 14.796875 27.296875 
Q 14.796875 17.390625 18.875 11.75 
Q 22.953125 6.109375 30.078125 6.109375 
Q 37.203125 6.109375 41.296875 11.75 
Q 45.40625 17.390625 45.40625 27.296875 
Q 45.40625 37.203125 41.296875 42.84375 
Q 37.203125 48.484375 30.078125 48.484375 
Q 22.953125 48.484375 18.875 42.84375 
Q 14.796875 37.203125 14.796875 27.296875 
z
" id="DejaVuSans-100"/>
      <path d="M 8.5 21.578125 
L 8.5 54.6875 
L 17.484375 54.6875 
L 17.484375 21.921875 
Q 17.484375 14.15625 20.5 10.265625 
Q 23.53125 6.390625 29.59375 6.390625 
Q 36.859375 6.390625 41.078125 11.03125 
Q 45.3125 15.671875 45.3125 23.6875 
L 45.3125 54.6875 
L 54.296875 54.6875 
L 54.296875 0 
L 45.3125 0 
L 45.3125 8.40625 
Q 42.046875 3.421875 37.71875 1 
Q 33.40625 -1.421875 27.6875 -1.421875 
Q 18.265625 -1.421875 13.375 4.4375 
Q 8.5 10.296875 8.5 21.578125 
z
M 31.109375 56 
z
" id="DejaVuSans-117"/>
      <path id="DejaVuSans-32"/>
      <path d="M 54.890625 33.015625 
L 54.890625 0 
L 45.90625 0 
L 45.90625 32.71875 
Q 45.90625 40.484375 42.875 44.328125 
Q 39.84375 48.1875 33.796875 48.1875 
Q 26.515625 48.1875 22.3125 43.546875 
Q 18.109375 38.921875 18.109375 30.90625 
L 18.109375 0 
L 9.078125 0 
L 9.078125 54.6875 
L 18.109375 54.6875 
L 18.109375 46.1875 
Q 21.34375 51.125 25.703125 53.5625 
Q 30.078125 56 35.796875 56 
Q 45.21875 56 50.046875 50.171875 
Q 54.890625 44.34375 54.890625 33.015625 
z
" id="DejaVuSans-110"/>
      <path d="M 54.890625 54.6875 
L 35.109375 28.078125 
L 55.90625 0 
L 45.3125 0 
L 29.390625 21.484375 
L 13.484375 0 
L 2.875 0 
L 24.125 28.609375 
L 4.6875 54.6875 
L 15.28125 54.6875 
L 29.78125 35.203125 
L 44.28125 54.6875 
z
" id="DejaVuSans-120"/>
     </defs>
     <g transform="translate(202.26 335.860562)scale(0.1 -0.1)">
      <use xlink:href="#DejaVuSans-114"/>
      <use x="41.082031" xlink:href="#DejaVuSans-101"/>
      <use x="102.605469" xlink:href="#DejaVuSans-115"/>
      <use x="154.705078" xlink:href="#DejaVuSans-105"/>
      <use x="182.488281" xlink:href="#DejaVuSans-100"/>
      <use x="245.964844" xlink:href="#DejaVuSans-117"/>
      <use x="309.34375" xlink:href="#DejaVuSans-101"/>
      <use x="370.867188" xlink:href="#DejaVuSans-32"/>
      <use x="402.654297" xlink:href="#DejaVuSans-105"/>
      <use x="430.4375" xlink:href="#DejaVuSans-110"/>
      <use x="493.816406" xlink:href="#DejaVuSans-100"/>
      <use x="557.292969" xlink:href="#DejaVuSans-101"/>
      <use x="618.800781" xlink:href="#DejaVuSans-120"/>
     </g>
    </g>
   </g>
   <g id="matplotlib.axis_2">
    <g id="ytick_1">
     <g id="line2d_7">
      <defs>
       <path d="M 0 0 
L -3.5 0 
" id="m1e22e299e5" style="stroke:#000000;stroke-width:0.8;"/>
      </defs>
      <g>
       <use style="stroke:#000000;stroke-width:0.8;" x="57.6" xlink:href="#m1e22e299e5" y="307.584"/>
      </g>
     </g>
     <g id="text_8">
      <!-- 0 -->
      <g transform="translate(44.2375 311.383219)scale(0.1 -0.1)">
       <use xlink:href="#DejaVuSans-48"/>
      </g>
     </g>
    </g>
    <g id="ytick_2">
     <g id="line2d_8">
      <g>
       <use style="stroke:#000000;stroke-width:0.8;" x="57.6" xlink:href="#m1e22e299e5" y="278.016"/>
      </g>
     </g>
     <g id="text_9">
      <!-- 25 -->
      <defs>
       <path d="M 10.796875 72.90625 
L 49.515625 72.90625 
L 49.515625 64.59375 
L 19.828125 64.59375 
L 19.828125 46.734375 
Q 21.96875 47.46875 24.109375 47.828125 
Q 26.265625 48.1875 28.421875 48.1875 
Q 40.625 48.1875 47.75 41.5 
Q 54.890625 34.8125 54.890625 23.390625 
Q 54.890625 11.625 47.5625 5.09375 
Q 40.234375 -1.421875 26.90625 -1.421875 
Q 22.3125 -1.421875 17.546875 -0.640625 
Q 12.796875 0.140625 7.71875 1.703125 
L 7.71875 11.625 
Q 12.109375 9.234375 16.796875 8.0625 
Q 21.484375 6.890625 26.703125 6.890625 
Q 35.15625 6.890625 40.078125 11.328125 
Q 45.015625 15.765625 45.015625 23.390625 
Q 45.015625 31 40.078125 35.4375 
Q 35.15625 39.890625 26.703125 39.890625 
Q 22.75 39.890625 18.8125 39.015625 
Q 14.890625 38.140625 10.796875 36.28125 
z
" id="DejaVuSans-53"/>
      </defs>
      <g transform="translate(37.875 281.815219)scale(0.1 -0.1)">
       <use xlink:href="#DejaVuSans-50"/>
       <use x="63.623047" xlink:href="#DejaVuSans-53"/>
      </g>
     </g>
    </g>
    <g id="ytick_3">
     <g id="line2d_9">
      <g>
       <use style="stroke:#000000;stroke-width:0.8;" x="57.6" xlink:href="#m1e22e299e5" y="248.448"/>
      </g>
     </g>
     <g id="text_10">
      <!-- 50 -->
      <g transform="translate(37.875 252.247219)scale(0.1 -0.1)">
       <use xlink:href="#DejaVuSans-53"/>
       <use x="63.623047" xlink:href="#DejaVuSans-48"/>
      </g>
     </g>
    </g>
    <g id="ytick_4">
     <g id="line2d_10">
      <g>
       <use style="stroke:#000000;stroke-width:0.8;" x="57.6" xlink:href="#m1e22e299e5" y="218.88"/>
      </g>
     </g>
     <g id="text_11">
      <!-- 75 -->
      <defs>
       <path d="M 8.203125 72.90625 
L 55.078125 72.90625 
L 55.078125 68.703125 
L 28.609375 0 
L 18.3125 0 
L 43.21875 64.59375 
L 8.203125 64.59375 
z
" id="DejaVuSans-55"/>
      </defs>
      <g transform="translate(37.875 222.679219)scale(0.1 -0.1)">
       <use xlink:href="#DejaVuSans-55"/>
       <use x="63.623047" xlink:href="#DejaVuSans-53"/>
      </g>
     </g>
    </g>
    <g id="ytick_5">
     <g id="line2d_11">
      <g>
       <use style="stroke:#000000;stroke-width:0.8;" x="57.6" xlink:href="#m1e22e299e5" y="189.312"/>
      </g>
     </g>
     <g id="text_12">
      <!-- 100 -->
      <g transform="translate(31.5125 193.111219)scale(0.1 -0.1)">
       <use xlink:href="#DejaVuSans-49"/>
       <use x="63.623047" xlink:href="#DejaVuSans-48"/>
       <use x="127.246094" xlink:href="#DejaVuSans-48"/>
      </g>
     </g>
    </g>
    <g id="ytick_6">
     <g id="line2d_12">
      <g>
       <use style="stroke:#000000;stroke-width:0.8;" x="57.6" xlink:href="#m1e22e299e5" y="159.744"/>
      </g>
     </g>
     <g id="text_13">
      <!-- 125 -->
      <g transform="translate(31.5125 163.543219)scale(0.1 -0.1)">
       <use xlink:href="#DejaVuSans-49"/>
       <use x="63.623047" xlink:href="#DejaVuSans-50"/>
       <use x="127.246094" xlink:href="#DejaVuSans-53"/>
      </g>
     </g>
    </g>
    <g id="ytick_7">
     <g id="line2d_13">
      <g>
       <use style="stroke:#000000;stroke-width:0.8;" x="57.6" xlink:href="#m1e22e299e5" y="130.176"/>
      </g>
     </g>
     <g id="text_14">
      <!-- 150 -->
      <g transform="translate(31.5125 133.975219)scale(0.1 -0.1)">
       <use xlink:href="#DejaVuSans-49"/>
       <use x="63.623047" xlink:href="#DejaVuSans-53"/>
       <use x="127.246094" xlink:href="#DejaVuSans-48"/>
      </g>
     </g>
    </g>
    <g id="ytick_8">
     <g id="line2d_14">
      <g>
       <use style="stroke:#000000;stroke-width:0.8;" x="57.6" xlink:href="#m1e22e299e5" y="100.608"/>
      </g>
     </g>
     <g id="text_15">
      <!-- 175 -->
      <g transform="translate(31.5125 104.407219)scale(0.1 -0.1)">
       <use xlink:href="#DejaVuSans-49"/>
       <use x="63.623047" xlink:href="#DejaVuSans-55"/>
       <use x="127.246094" xlink:href="#DejaVuSans-53"/>
      </g>
     </g>
    </g>
    <g id="ytick_9">
     <g id="line2d_15">
      <g>
       <use style="stroke:#000000;stroke-width:0.8;" x="57.6" xlink:href="#m1e22e299e5" y="71.04"/>
      </g>
     </g>
     <g id="text_16">
      <!-- 200 -->
      <g transform="translate(31.5125 74.839219)scale(0.1 -0.1)">
       <use xlink:href="#DejaVuSans-50"/>
       <use x="63.623047" xlink:href="#DejaVuSans-48"/>
       <use x="127.246094" xlink:href="#DejaVuSans-48"/>
      </g>
     </g>
    </g>
    <g id="ytick_10">
     <g id="line2d_16">
      <g>
       <use style="stroke:#000000;stroke-width:0.8;" x="57.6" xlink:href="#m1e22e299e5" y="41.472"/>
      </g>
     </g>
     <g id="text_17">
      <!-- 225 -->
      <g transform="translate(31.5125 45.271219)scale(0.1 -0.1)">
       <use xlink:href="#DejaVuSans-50"/>
       <use x="63.623047" xlink:href="#DejaVuSans-50"/>
       <use x="127.246094" xlink:href="#DejaVuSans-53"/>
      </g>
     </g>
    </g>
    <g id="text_18">
     <!-- deletions -->
     <defs>
      <path d="M 9.421875 75.984375 
L 18.40625 75.984375 
L 18.40625 0 
L 9.421875 0 
z
" id="DejaVuSans-108"/>
      <path d="M 18.3125 70.21875 
L 18.3125 54.6875 
L 36.8125 54.6875 
L 36.8125 47.703125 
L 18.3125 47.703125 
L 18.3125 18.015625 
Q 18.3125 11.328125 20.140625 9.421875 
Q 21.96875 7.515625 27.59375 7.515625 
L 36.8125 7.515625 
L 36.8125 0 
L 27.59375 0 
Q 17.1875 0 13.234375 3.875 
Q 9.28125 7.765625 9.28125 18.015625 
L 9.28125 47.703125 
L 2.6875 47.703125 
L 2.6875 54.6875 
L 9.28125 54.6875 
L 9.28125 70.21875 
z
" id="DejaVuSans-116"/>
      <path d="M 30.609375 48.390625 
Q 23.390625 48.390625 19.1875 42.75 
Q 14.984375 37.109375 14.984375 27.296875 
Q 14.984375 17.484375 19.15625 11.84375 
Q 23.34375 6.203125 30.609375 6.203125 
Q 37.796875 6.203125 41.984375 11.859375 
Q 46.1875 17.53125 46.1875 27.296875 
Q 46.1875 37.015625 41.984375 42.703125 
Q 37.796875 48.390625 30.609375 48.390625 
z
M 30.609375 56 
Q 42.328125 56 49.015625 48.375 
Q 55.71875 40.765625 55.71875 27.296875 
Q 55.71875 13.875 49.015625 6.21875 
Q 42.328125 -1.421875 30.609375 -1.421875 
Q 18.84375 -1.421875 12.171875 6.21875 
Q 5.515625 13.875 5.515625 27.296875 
Q 5.515625 40.765625 12.171875 48.375 
Q 18.84375 56 30.609375 56 
z
" id="DejaVuSans-111"/>
     </defs>
     <g transform="translate(25.432812 197.426437)rotate(-90)scale(0.1 -0.1)">
      <use xlink:href="#DejaVuSans-100"/>
      <use x="63.476562" xlink:href="#DejaVuSans-101"/>
      <use x="125" xlink:href="#DejaVuSans-108"/>
      <use x="152.783203" xlink:href="#DejaVuSans-101"/>
      <use x="214.306641" xlink:href="#DejaVuSans-116"/>
      <use x="253.515625" xlink:href="#DejaVuSans-105"/>
      <use x="281.298828" xlink:href="#DejaVuSans-111"/>
      <use x="342.480469" xlink:href="#DejaVuSans-110"/>
      <use x="405.859375" xlink:href="#DejaVuSans-115"/>
     </g>
    </g>
   </g>
   <g id="line2d_17">
    <path clip-path="url(#pfc651b7c84)" d="M 57.6 307.584 
L 64.28764 307.584 
L 64.956404 301.6704 
L 65.290787 301.6704 
L 65.959551 299.30496 
L 66.293933 305.21856 
L 66.962697 307.584 
L 69.637753 307.584 
L 69.972135 305.21856 
L 70.306517 305.21856 
L 70.640899 306.40128 
L 70.975281 304.03584 
L 71.309663 306.40128 
L 72.647191 301.6704 
L 72.981573 307.584 
L 80.337978 307.584 
L 80.67236 306.40128 
L 81.006742 302.85312 
L 81.341124 292.20864 
L 81.675506 292.20864 
L 82.009888 282.74688 
L 82.34427 280.38144 
L 83.013034 266.1888 
L 83.347416 254.3616 
L 83.681798 254.3616 
L 84.01618 250.81344 
L 84.684944 238.98624 
L 85.019326 237.80352 
L 85.353708 240.16896 
L 86.022472 248.448 
L 86.691236 254.3616 
L 87.025618 254.3616 
L 87.36 255.54432 
L 88.028764 255.54432 
L 88.363146 248.448 
L 88.697528 250.81344 
L 89.03191 251.99616 
L 89.366292 254.3616 
L 89.700674 257.90976 
L 90.035056 268.55424 
L 90.369438 272.1024 
L 90.70382 278.016 
L 91.038202 280.38144 
L 91.372584 280.38144 
L 92.041348 294.57408 
L 92.37573 300.48768 
L 92.710112 302.85312 
L 94.04764 307.584 
L 96.722697 307.584 
L 97.391461 288.66048 
L 97.725843 283.9296 
L 98.060225 286.29504 
L 99.063371 282.74688 
L 99.397753 280.38144 
L 100.400899 280.38144 
L 101.069663 289.8432 
L 101.404045 292.20864 
L 101.738427 295.7568 
L 102.072809 295.7568 
L 102.741573 301.6704 
L 103.075955 302.85312 
L 103.410337 305.21856 
L 104.079101 307.584 
L 106.085393 307.584 
L 106.419775 306.40128 
L 106.754157 307.584 
L 107.088539 306.40128 
L 107.422921 302.85312 
L 107.757303 304.03584 
L 108.091685 306.40128 
L 108.426067 305.21856 
L 108.760449 307.584 
L 109.429213 307.584 
L 109.763596 305.21856 
L 110.097978 304.03584 
L 110.766742 298.12224 
L 111.101124 299.30496 
L 111.435506 305.21856 
L 111.769888 307.584 
L 112.438652 307.584 
L 112.773034 306.40128 
L 113.107416 306.40128 
L 113.77618 301.6704 
L 114.110562 305.21856 
L 114.779326 307.584 
L 120.798202 307.584 
L 121.466966 305.21856 
L 121.801348 300.48768 
L 122.13573 304.03584 
L 122.470112 305.21856 
L 122.804494 305.21856 
L 123.138876 307.584 
L 124.476404 307.584 
L 124.810787 306.40128 
L 125.145169 307.584 
L 126.817079 307.584 
L 127.151461 306.40128 
L 127.485843 304.03584 
L 127.820225 302.85312 
L 128.154607 299.30496 
L 129.157753 295.7568 
L 129.492135 288.66048 
L 129.826517 294.57408 
L 130.160899 295.7568 
L 130.495281 289.8432 
L 131.164045 282.74688 
L 131.498427 281.56416 
L 132.167191 275.65056 
L 132.501573 280.38144 
L 132.835955 279.19872 
L 133.170337 280.38144 
L 133.504719 282.74688 
L 133.839101 281.56416 
L 134.173483 275.65056 
L 134.507865 291.02592 
L 134.842247 292.20864 
L 135.176629 295.7568 
L 137.182921 295.7568 
L 137.517303 294.57408 
L 137.851685 296.93952 
L 138.520449 305.21856 
L 138.854831 306.40128 
L 139.189213 306.40128 
L 139.523596 307.584 
L 142.533034 307.584 
L 143.201798 305.21856 
L 144.539326 286.29504 
L 145.20809 281.56416 
L 145.876854 275.65056 
L 147.214382 244.89984 
L 147.548764 241.35168 
L 147.883146 234.25536 
L 148.217528 231.88992 
L 149.220674 246.08256 
L 149.555056 247.26528 
L 149.889438 249.63072 
L 150.22382 254.3616 
L 150.558202 256.72704 
L 151.226966 259.09248 
L 152.230112 259.09248 
L 152.564494 257.90976 
L 152.898876 246.08256 
L 153.56764 233.07264 
L 153.902022 231.88992 
L 154.236404 214.14912 
L 154.570787 209.41824 
L 154.905169 215.33184 
L 155.239551 216.51456 
L 155.573933 218.88 
L 155.908315 220.06272 
L 156.242697 211.78368 
L 156.577079 216.51456 
L 157.245843 205.87008 
L 157.580225 195.2256 
L 157.914607 188.12928 
L 158.917753 181.03296 
L 159.586517 172.75392 
L 159.920899 170.38848 
L 160.255281 171.5712 
L 160.589663 166.84032 
L 160.924045 166.84032 
L 161.258427 165.6576 
L 161.592809 166.84032 
L 161.927191 169.20576 
L 162.930337 179.85024 
L 163.599101 182.21568 
L 163.933483 194.04288 
L 164.267865 196.40832 
L 164.602247 195.2256 
L 164.936629 198.77376 
L 165.271011 209.41824 
L 165.605393 209.41824 
L 165.939775 220.06272 
L 166.274157 241.35168 
L 166.608539 251.99616 
L 167.946067 237.80352 
L 168.280449 241.35168 
L 168.614831 249.63072 
L 168.949213 254.3616 
L 169.283596 255.54432 
L 169.617978 254.3616 
L 169.95236 242.5344 
L 170.286742 240.16896 
L 170.955506 242.5344 
L 171.289888 236.6208 
L 171.62427 234.25536 
L 171.958652 235.43808 
L 172.293034 259.09248 
L 172.961798 276.83328 
L 173.630562 288.66048 
L 173.964944 292.20864 
L 174.299326 299.30496 
L 174.633708 304.03584 
L 174.96809 305.21856 
L 175.302472 305.21856 
L 175.636854 306.40128 
L 176.305618 306.40128 
L 176.64 300.48768 
L 176.974382 300.48768 
L 177.308764 302.85312 
L 177.643146 304.03584 
L 178.646292 300.48768 
L 178.980674 291.02592 
L 179.649438 286.29504 
L 180.318202 266.1888 
L 180.652584 261.45792 
L 180.986966 262.64064 
L 181.65573 256.72704 
L 181.990112 256.72704 
L 182.658876 267.37152 
L 182.993258 270.91968 
L 183.32764 278.016 
L 184.330787 291.02592 
L 184.999551 291.02592 
L 185.333933 289.8432 
L 185.668315 287.47776 
L 186.002697 287.47776 
L 186.337079 285.11232 
L 186.671461 286.29504 
L 187.005843 292.20864 
L 187.340225 304.03584 
L 187.674607 306.40128 
L 188.008989 307.584 
L 190.349663 307.584 
L 190.684045 306.40128 
L 191.018427 299.30496 
L 191.687191 296.93952 
L 192.021573 294.57408 
L 192.355955 294.57408 
L 193.359101 278.016 
L 194.027865 254.3616 
L 194.696629 256.72704 
L 195.031011 256.72704 
L 195.365393 257.90976 
L 195.699775 261.45792 
L 196.034157 256.72704 
L 196.368539 256.72704 
L 197.706067 285.11232 
L 198.040449 285.11232 
L 198.374831 287.47776 
L 199.377978 302.85312 
L 199.71236 302.85312 
L 200.715506 306.40128 
L 201.049888 302.85312 
L 201.38427 304.03584 
L 201.718652 300.48768 
L 202.053034 291.02592 
L 202.387416 289.8432 
L 202.721798 292.20864 
L 203.05618 291.02592 
L 203.390562 283.9296 
L 203.724944 280.38144 
L 204.059326 283.9296 
L 204.72809 286.29504 
L 205.396854 296.93952 
L 205.731236 299.30496 
L 206.4 299.30496 
L 206.734382 301.6704 
L 207.068764 302.85312 
L 207.403146 302.85312 
L 207.737528 305.21856 
L 208.406292 305.21856 
L 209.075056 307.584 
L 213.08764 307.584 
L 213.422022 304.03584 
L 213.756404 304.03584 
L 214.090787 306.40128 
L 214.425169 307.584 
L 217.768989 307.584 
L 218.103371 306.40128 
L 218.437753 307.584 
L 223.119101 307.584 
L 223.787865 302.85312 
L 224.122247 302.85312 
L 224.456629 300.48768 
L 225.125393 298.12224 
L 225.459775 292.20864 
L 226.128539 292.20864 
L 226.462921 291.02592 
L 226.797303 288.66048 
L 227.466067 280.38144 
L 228.134831 267.37152 
L 228.469213 266.1888 
L 229.137978 260.2752 
L 229.47236 261.45792 
L 229.806742 260.2752 
L 230.141124 270.91968 
L 230.475506 274.46784 
L 230.809888 280.38144 
L 231.14427 281.56416 
L 231.478652 279.19872 
L 231.813034 280.38144 
L 232.147416 299.30496 
L 232.481798 304.03584 
L 232.81618 306.40128 
L 233.150562 306.40128 
L 233.484944 307.584 
L 238.500674 307.584 
L 238.835056 306.40128 
L 239.169438 306.40128 
L 239.838202 304.03584 
L 240.172584 296.93952 
L 240.841348 294.57408 
L 241.17573 292.20864 
L 241.510112 294.57408 
L 241.844494 298.12224 
L 242.178876 304.03584 
L 242.513258 307.584 
L 245.857079 307.584 
L 246.860225 304.03584 
L 247.194607 301.6704 
L 247.863371 287.47776 
L 248.197753 282.74688 
L 248.866517 280.38144 
L 249.200899 275.65056 
L 249.535281 268.55424 
L 249.869663 263.82336 
L 250.872809 241.35168 
L 251.207191 240.16896 
L 251.541573 237.80352 
L 252.544719 234.25536 
L 253.213483 223.61088 
L 253.882247 212.9664 
L 254.216629 204.68736 
L 254.551011 199.95648 
L 254.885393 192.86016 
L 255.219775 192.86016 
L 255.554157 186.94656 
L 255.888539 166.84032 
L 256.222921 165.6576 
L 256.891685 171.5712 
L 257.226067 171.5712 
L 257.560449 170.38848 
L 258.229213 176.30208 
L 258.563596 178.66752 
L 258.897978 182.21568 
L 259.23236 194.04288 
L 259.566742 189.312 
L 259.901124 189.312 
L 260.235506 184.58112 
L 260.569888 177.4848 
L 260.90427 175.11936 
L 261.238652 177.4848 
L 261.573034 172.75392 
L 261.907416 163.29216 
L 262.241798 171.5712 
L 262.57618 173.93664 
L 262.910562 173.93664 
L 263.579326 176.30208 
L 263.913708 183.3984 
L 264.24809 188.12928 
L 265.585618 222.42816 
L 265.92 236.6208 
L 266.254382 243.71712 
L 266.588764 243.71712 
L 266.923146 242.5344 
L 267.257528 243.71712 
L 267.59191 247.26528 
L 267.926292 255.54432 
L 268.595056 266.1888 
L 268.929438 263.82336 
L 269.26382 263.82336 
L 269.598202 261.45792 
L 269.932584 265.00608 
L 270.266966 265.00608 
L 270.601348 261.45792 
L 271.270112 287.47776 
L 271.938876 295.7568 
L 272.60764 302.85312 
L 273.610787 306.40128 
L 273.945169 306.40128 
L 274.279551 307.584 
L 277.623371 307.584 
L 278.626517 304.03584 
L 278.960899 301.6704 
L 279.629663 291.02592 
L 279.964045 289.8432 
L 280.298427 293.39136 
L 280.632809 292.20864 
L 280.967191 293.39136 
L 281.301573 299.30496 
L 281.635955 301.6704 
L 281.970337 302.85312 
L 282.304719 307.584 
L 284.979775 307.584 
L 285.314157 306.40128 
L 285.648539 306.40128 
L 285.982921 305.21856 
L 286.317303 305.21856 
L 286.651685 302.85312 
L 286.986067 299.30496 
L 287.320449 298.12224 
L 287.654831 294.57408 
L 288.323596 281.56416 
L 288.657978 280.38144 
L 288.99236 275.65056 
L 289.326742 278.016 
L 290.329888 278.016 
L 290.66427 275.65056 
L 290.998652 276.83328 
L 291.667416 276.83328 
L 293.004944 262.64064 
L 293.339326 254.3616 
L 294.00809 246.08256 
L 294.342472 238.98624 
L 294.676854 234.25536 
L 295.011236 231.88992 
L 295.68 218.88 
L 296.014382 216.51456 
L 296.683146 205.87008 
L 297.017528 196.40832 
L 297.35191 179.85024 
L 297.686292 176.30208 
L 298.020674 177.4848 
L 298.355056 170.38848 
L 298.689438 157.37856 
L 299.02382 162.10944 
L 299.358202 162.10944 
L 299.692584 155.01312 
L 300.026966 143.18592 
L 300.361348 136.0896 
L 300.69573 132.54144 
L 301.030112 137.27232 
L 301.364494 139.63776 
L 301.698876 137.27232 
L 302.033258 137.27232 
L 302.702022 149.09952 
L 303.036404 149.09952 
L 303.705169 151.46496 
L 304.373933 151.46496 
L 305.042697 156.19584 
L 305.711461 164.47488 
L 306.045843 165.6576 
L 306.380225 165.6576 
L 306.714607 166.84032 
L 307.383371 162.10944 
L 307.717753 160.92672 
L 309.389663 177.4848 
L 309.724045 189.312 
L 310.058427 215.33184 
L 310.392809 222.42816 
L 310.727191 222.42816 
L 311.061573 233.07264 
L 311.395955 230.7072 
L 311.730337 235.43808 
L 312.064719 248.448 
L 312.399101 254.3616 
L 312.733483 255.54432 
L 313.067865 260.2752 
L 313.402247 267.37152 
L 313.736629 272.1024 
L 314.071011 273.28512 
L 314.405393 285.11232 
L 314.739775 289.8432 
L 315.074157 292.20864 
L 315.408539 292.20864 
L 315.742921 298.12224 
L 316.746067 307.584 
L 317.080449 307.584 
L 317.414831 306.40128 
L 317.749213 304.03584 
L 318.083596 304.03584 
L 318.417978 307.584 
L 320.42427 307.584 
L 320.758652 306.40128 
L 321.427416 301.6704 
L 321.761798 287.47776 
L 322.09618 281.56416 
L 322.430562 272.1024 
L 322.764944 259.09248 
L 323.433708 250.81344 
L 323.76809 254.3616 
L 324.436854 246.08256 
L 324.771236 235.43808 
L 325.105618 233.07264 
L 325.44 233.07264 
L 325.774382 222.42816 
L 326.108764 216.51456 
L 326.443146 205.87008 
L 326.777528 205.87008 
L 327.446292 189.312 
L 328.115056 151.46496 
L 328.449438 146.73408 
L 328.78382 144.36864 
L 329.118202 132.54144 
L 329.452584 126.62784 
L 329.786966 108.88704 
L 330.121348 101.79072 
L 330.45573 105.33888 
L 330.790112 99.42528 
L 331.458876 80.50176 
L 331.793258 68.67456 
L 332.12764 63.94368 
L 332.462022 55.66464 
L 332.796404 55.66464 
L 333.130787 69.85728 
L 333.465169 71.04 
L 333.799551 59.2128 
L 334.133933 60.39552 
L 334.802697 47.3856 
L 335.137079 47.3856 
L 335.471461 53.2992 
L 335.805843 62.76096 
L 336.140225 65.1264 
L 336.474607 74.58816 
L 336.808989 76.9536 
L 337.143371 85.23264 
L 337.477753 86.41536 
L 337.812135 81.68448 
L 338.146517 85.23264 
L 338.480899 85.23264 
L 338.815281 82.8672 
L 339.149663 74.58816 
L 339.484045 81.68448 
L 339.818427 79.31904 
L 340.152809 75.77088 
L 340.487191 78.13632 
L 340.821573 78.13632 
L 341.155955 69.85728 
L 341.490337 72.22272 
L 341.824719 80.50176 
L 342.159101 82.8672 
L 342.493483 80.50176 
L 343.162247 78.13632 
L 343.496629 85.23264 
L 343.831011 102.97344 
L 344.165393 105.33888 
L 344.499775 104.15616 
L 344.834157 101.79072 
L 345.168539 94.6944 
L 345.502921 97.05984 
L 345.837303 95.87712 
L 346.171685 100.608 
L 346.506067 102.97344 
L 346.840449 107.70432 
L 347.174831 119.53152 
L 347.509213 124.2624 
L 348.177978 142.0032 
L 348.51236 139.63776 
L 348.846742 139.63776 
L 349.181124 146.73408 
L 349.515506 163.29216 
L 349.849888 169.20576 
L 350.518652 208.23552 
L 350.853034 218.88 
L 351.521798 246.08256 
L 352.190562 260.2752 
L 352.524944 265.00608 
L 352.859326 262.64064 
L 353.193708 256.72704 
L 353.52809 256.72704 
L 353.862472 261.45792 
L 354.196854 260.2752 
L 354.531236 250.81344 
L 354.865618 244.89984 
L 355.2 248.448 
L 355.868764 259.09248 
L 356.203146 255.54432 
L 356.537528 249.63072 
L 356.87191 248.448 
L 357.206292 250.81344 
L 357.540674 251.99616 
L 357.875056 248.448 
L 358.209438 249.63072 
L 358.54382 251.99616 
L 358.878202 253.17888 
L 359.212584 255.54432 
L 359.546966 279.19872 
L 360.550112 279.19872 
L 360.884494 278.016 
L 361.218876 272.1024 
L 361.553258 273.28512 
L 362.556404 269.73696 
L 363.225169 265.00608 
L 363.559551 259.09248 
L 363.893933 250.81344 
L 364.562697 208.23552 
L 364.897079 205.87008 
L 365.565843 185.76384 
L 365.900225 183.3984 
L 366.234607 185.76384 
L 366.568989 190.49472 
L 366.903371 190.49472 
L 367.237753 185.76384 
L 368.240899 156.19584 
L 369.244045 93.51168 
L 369.578427 94.6944 
L 369.912809 99.42528 
L 370.247191 95.87712 
L 371.250337 79.31904 
L 371.584719 78.13632 
L 371.919101 74.58816 
L 372.253483 76.9536 
L 372.587865 74.58816 
L 372.922247 84.04992 
L 373.256629 86.41536 
L 373.591011 74.58816 
L 373.925393 73.40544 
L 374.259775 63.94368 
L 374.594157 69.85728 
L 374.928539 69.85728 
L 375.262921 79.31904 
L 375.597303 80.50176 
L 375.931685 86.41536 
L 376.266067 88.7808 
L 376.934831 111.25248 
L 377.937978 121.89696 
L 378.27236 121.89696 
L 378.606742 132.54144 
L 378.941124 134.90688 
L 379.275506 131.35872 
L 379.609888 130.176 
L 379.94427 139.63776 
L 380.278652 143.18592 
L 380.613034 137.27232 
L 380.947416 136.0896 
L 381.281798 133.72416 
L 381.61618 134.90688 
L 381.950562 133.72416 
L 382.284944 117.16608 
L 382.619326 94.6944 
L 382.953708 86.41536 
L 383.28809 72.22272 
L 383.622472 68.67456 
L 383.956854 62.76096 
L 384.291236 61.57824 
L 384.625618 59.2128 
L 384.96 55.66464 
L 385.294382 62.76096 
L 385.628764 58.03008 
L 385.963146 74.58816 
L 386.297528 79.31904 
L 386.63191 75.77088 
L 386.966292 62.76096 
L 387.300674 61.57824 
L 387.635056 61.57824 
L 387.969438 104.15616 
L 388.30382 112.4352 
L 389.306966 121.89696 
L 389.641348 115.98336 
L 389.97573 113.61792 
L 390.310112 113.61792 
L 390.644494 115.98336 
L 390.978876 114.80064 
L 391.313258 112.4352 
L 391.64764 107.70432 
L 392.316404 89.96352 
L 392.650787 89.96352 
L 393.653933 97.05984 
L 394.322697 94.6944 
L 394.657079 92.32896 
L 395.660225 107.70432 
L 395.994607 105.33888 
L 396.328989 107.70432 
L 396.663371 111.25248 
L 396.997753 111.25248 
L 397.666517 121.89696 
L 398.335281 152.64768 
L 398.669663 160.92672 
L 399.004045 178.66752 
L 399.338427 177.4848 
L 400.007191 195.2256 
L 400.341573 211.78368 
L 400.675955 212.9664 
L 401.344719 235.43808 
L 401.679101 236.6208 
L 402.013483 238.98624 
L 402.347865 240.16896 
L 403.351011 251.99616 
L 404.019775 246.08256 
L 404.688539 243.71712 
L 405.022921 246.08256 
L 405.357303 268.55424 
L 406.026067 283.9296 
L 406.360449 296.93952 
L 406.694831 300.48768 
L 407.029213 301.6704 
L 407.363596 304.03584 
L 412.044944 304.03584 
L 413.04809 307.584 
L 414.72 307.584 
L 414.72 307.584 
" style="fill:none;stroke:#1f77b4;"/>
   </g>
   <g id="line2d_18">
    <path clip-path="url(#pfc651b7c84)" d="M 57.6 306.40128 
L 58.268764 301.6704 
L 58.603146 300.48768 
L 59.606292 307.584 
L 64.28764 307.584 
L 64.622022 305.21856 
L 64.956404 301.6704 
L 65.625169 304.03584 
L 65.959551 302.85312 
L 66.293933 306.40128 
L 66.628315 306.40128 
L 66.962697 307.584 
L 69.303371 307.584 
L 69.972135 301.6704 
L 70.306517 302.85312 
L 70.640899 305.21856 
L 70.975281 302.85312 
L 71.309663 304.03584 
L 71.644045 306.40128 
L 72.647191 302.85312 
L 72.981573 307.584 
L 81.006742 307.584 
L 81.341124 305.21856 
L 81.675506 305.21856 
L 82.009888 304.03584 
L 82.34427 301.6704 
L 83.013034 299.30496 
L 83.347416 294.57408 
L 83.681798 293.39136 
L 84.01618 289.8432 
L 84.350562 288.66048 
L 84.684944 291.02592 
L 85.019326 292.20864 
L 85.353708 291.02592 
L 85.68809 295.7568 
L 86.356854 298.12224 
L 87.025618 306.40128 
L 87.36 307.584 
L 88.028764 307.584 
L 88.363146 302.85312 
L 89.03191 305.21856 
L 89.366292 305.21856 
L 89.700674 304.03584 
L 90.035056 306.40128 
L 90.369438 306.40128 
L 90.70382 307.584 
L 91.038202 307.584 
L 91.372584 306.40128 
L 91.706966 307.584 
L 96.722697 307.584 
L 97.391461 301.6704 
L 97.725843 302.85312 
L 98.060225 305.21856 
L 98.394607 302.85312 
L 98.728989 301.6704 
L 99.063371 304.03584 
L 99.397753 300.48768 
L 100.066517 302.85312 
L 100.400899 301.6704 
L 100.735281 306.40128 
L 101.069663 307.584 
L 106.085393 307.584 
L 106.419775 306.40128 
L 106.754157 307.584 
L 107.088539 307.584 
L 107.422921 305.21856 
L 108.091685 307.584 
L 108.426067 306.40128 
L 108.760449 307.584 
L 109.429213 307.584 
L 109.763596 304.03584 
L 110.097978 305.21856 
L 111.101124 301.6704 
L 111.435506 306.40128 
L 111.769888 307.584 
L 112.438652 307.584 
L 113.107416 305.21856 
L 113.441798 302.85312 
L 113.77618 301.6704 
L 114.110562 304.03584 
L 114.444944 307.584 
L 121.132584 307.584 
L 121.801348 305.21856 
L 122.13573 307.584 
L 122.470112 307.584 
L 122.804494 306.40128 
L 123.138876 307.584 
L 124.476404 307.584 
L 124.810787 306.40128 
L 125.145169 307.584 
L 126.148315 307.584 
L 126.482697 306.40128 
L 127.151461 306.40128 
L 127.485843 304.03584 
L 127.820225 302.85312 
L 128.154607 300.48768 
L 128.488989 301.6704 
L 128.823371 300.48768 
L 129.157753 305.21856 
L 129.492135 301.6704 
L 130.160899 304.03584 
L 130.495281 298.12224 
L 130.829663 299.30496 
L 132.167191 294.57408 
L 132.835955 289.8432 
L 133.170337 291.02592 
L 133.504719 293.39136 
L 133.839101 293.39136 
L 134.173483 292.20864 
L 134.507865 300.48768 
L 134.842247 299.30496 
L 135.176629 301.6704 
L 135.511011 302.85312 
L 135.845393 307.584 
L 137.182921 307.584 
L 137.517303 304.03584 
L 138.520449 307.584 
L 138.854831 307.584 
L 139.189213 306.40128 
L 139.523596 307.584 
L 145.876854 307.584 
L 146.211236 305.21856 
L 146.88 302.85312 
L 147.214382 299.30496 
L 147.548764 298.12224 
L 147.883146 295.7568 
L 148.217528 296.93952 
L 148.55191 300.48768 
L 148.886292 301.6704 
L 149.220674 306.40128 
L 149.555056 306.40128 
L 149.889438 305.21856 
L 150.22382 306.40128 
L 150.892584 306.40128 
L 151.226966 307.584 
L 151.89573 307.584 
L 152.230112 306.40128 
L 152.564494 304.03584 
L 152.898876 300.48768 
L 153.233258 301.6704 
L 153.56764 300.48768 
L 153.902022 302.85312 
L 154.570787 300.48768 
L 154.905169 305.21856 
L 155.239551 305.21856 
L 155.573933 306.40128 
L 155.908315 306.40128 
L 156.242697 305.21856 
L 156.577079 306.40128 
L 157.914607 306.40128 
L 158.248989 302.85312 
L 159.586517 302.85312 
L 159.920899 301.6704 
L 160.255281 302.85312 
L 160.589663 298.12224 
L 160.924045 299.30496 
L 161.258427 295.7568 
L 161.592809 296.93952 
L 161.927191 295.7568 
L 162.261573 298.12224 
L 163.599101 293.39136 
L 163.933483 300.48768 
L 164.267865 299.30496 
L 164.602247 296.93952 
L 164.936629 298.12224 
L 165.271011 301.6704 
L 165.605393 299.30496 
L 165.939775 300.48768 
L 166.274157 304.03584 
L 166.608539 304.03584 
L 166.942921 298.12224 
L 167.611685 300.48768 
L 168.280449 298.12224 
L 168.614831 301.6704 
L 168.949213 302.85312 
L 169.283596 305.21856 
L 169.617978 305.21856 
L 169.95236 299.30496 
L 170.286742 298.12224 
L 170.621124 300.48768 
L 170.955506 299.30496 
L 171.289888 295.7568 
L 171.958652 293.39136 
L 172.293034 296.93952 
L 172.627416 298.12224 
L 173.964944 298.12224 
L 174.299326 301.6704 
L 174.633708 302.85312 
L 174.96809 302.85312 
L 175.636854 305.21856 
L 175.971236 307.584 
L 176.305618 307.584 
L 176.64 304.03584 
L 177.643146 307.584 
L 178.646292 307.584 
L 178.980674 306.40128 
L 179.649438 306.40128 
L 179.98382 300.48768 
L 180.318202 300.48768 
L 180.652584 299.30496 
L 180.986966 301.6704 
L 181.321348 300.48768 
L 181.65573 298.12224 
L 181.990112 296.93952 
L 182.324494 299.30496 
L 182.658876 302.85312 
L 183.32764 305.21856 
L 183.996404 305.21856 
L 184.330787 307.584 
L 184.665169 307.584 
L 184.999551 306.40128 
L 185.333933 306.40128 
L 185.668315 302.85312 
L 187.005843 298.12224 
L 187.340225 304.03584 
L 187.674607 305.21856 
L 188.008989 307.584 
L 190.684045 307.584 
L 191.018427 306.40128 
L 193.024719 306.40128 
L 193.359101 305.21856 
L 194.027865 298.12224 
L 194.696629 300.48768 
L 195.365393 298.12224 
L 195.699775 302.85312 
L 196.034157 292.20864 
L 196.368539 291.02592 
L 196.702921 293.39136 
L 197.706067 296.93952 
L 198.040449 295.7568 
L 198.374831 298.12224 
L 198.709213 294.57408 
L 199.377978 296.93952 
L 199.71236 299.30496 
L 200.381124 296.93952 
L 200.715506 300.48768 
L 201.049888 296.93952 
L 201.38427 298.12224 
L 201.718652 296.93952 
L 202.053034 292.20864 
L 202.387416 291.02592 
L 202.721798 293.39136 
L 203.05618 294.57408 
L 203.390562 289.8432 
L 204.059326 292.20864 
L 204.393708 291.02592 
L 205.062472 295.7568 
L 205.731236 301.6704 
L 206.065618 304.03584 
L 206.4 304.03584 
L 206.734382 307.584 
L 213.08764 307.584 
L 213.756404 305.21856 
L 214.090787 307.584 
L 217.768989 307.584 
L 218.103371 306.40128 
L 218.437753 307.584 
L 223.119101 307.584 
L 223.787865 302.85312 
L 224.122247 304.03584 
L 225.125393 304.03584 
L 225.459775 301.6704 
L 226.128539 304.03584 
L 227.131685 304.03584 
L 227.800449 298.12224 
L 228.134831 295.7568 
L 228.469213 296.93952 
L 229.806742 292.20864 
L 230.141124 299.30496 
L 230.475506 299.30496 
L 230.809888 301.6704 
L 231.14427 302.85312 
L 231.478652 300.48768 
L 231.813034 301.6704 
L 232.147416 306.40128 
L 232.481798 307.584 
L 239.169438 307.584 
L 239.50382 305.21856 
L 239.838202 304.03584 
L 240.172584 299.30496 
L 240.841348 301.6704 
L 241.17573 298.12224 
L 241.844494 300.48768 
L 242.178876 302.85312 
L 242.513258 306.40128 
L 242.84764 307.584 
L 251.207191 307.584 
L 251.541573 305.21856 
L 252.210337 305.21856 
L 252.544719 301.6704 
L 252.879101 301.6704 
L 253.213483 298.12224 
L 253.882247 295.7568 
L 254.216629 293.39136 
L 254.885393 291.02592 
L 255.219775 294.57408 
L 255.554157 293.39136 
L 255.888539 289.8432 
L 256.222921 288.66048 
L 256.557303 291.02592 
L 256.891685 292.20864 
L 257.226067 291.02592 
L 257.560449 287.47776 
L 258.229213 289.8432 
L 258.897978 287.47776 
L 259.23236 299.30496 
L 259.901124 291.02592 
L 260.235506 292.20864 
L 260.90427 289.8432 
L 261.238652 293.39136 
L 261.573034 292.20864 
L 261.907416 289.8432 
L 262.241798 291.02592 
L 262.57618 288.66048 
L 263.244944 286.29504 
L 263.913708 294.57408 
L 264.24809 294.57408 
L 264.582472 296.93952 
L 264.916854 298.12224 
L 265.251236 300.48768 
L 265.585618 300.48768 
L 265.92 302.85312 
L 266.588764 302.85312 
L 267.257528 298.12224 
L 267.59191 296.93952 
L 267.926292 299.30496 
L 268.260674 298.12224 
L 268.595056 301.6704 
L 268.929438 294.57408 
L 269.598202 292.20864 
L 269.932584 295.7568 
L 270.266966 293.39136 
L 270.601348 292.20864 
L 271.270112 296.93952 
L 272.273258 300.48768 
L 272.942022 306.40128 
L 273.276404 306.40128 
L 273.610787 307.584 
L 277.623371 307.584 
L 278.626517 304.03584 
L 278.960899 304.03584 
L 279.295281 301.6704 
L 279.629663 298.12224 
L 279.964045 296.93952 
L 280.298427 299.30496 
L 280.632809 298.12224 
L 280.967191 295.7568 
L 281.301573 296.93952 
L 282.304719 307.584 
L 287.654831 307.584 
L 287.989213 306.40128 
L 288.323596 304.03584 
L 288.657978 305.21856 
L 288.99236 304.03584 
L 289.326742 307.584 
L 290.329888 307.584 
L 290.66427 306.40128 
L 290.998652 307.584 
L 294.00809 307.584 
L 295.011236 304.03584 
L 295.68 299.30496 
L 296.014382 299.30496 
L 296.348764 296.93952 
L 296.683146 295.7568 
L 297.35191 289.8432 
L 297.686292 291.02592 
L 298.020674 293.39136 
L 298.689438 288.66048 
L 299.02382 289.8432 
L 299.358202 292.20864 
L 299.692584 287.47776 
L 300.026966 287.47776 
L 300.361348 281.56416 
L 300.69573 280.38144 
L 301.030112 282.74688 
L 301.698876 280.38144 
L 302.033258 278.016 
L 302.36764 276.83328 
L 302.702022 279.19872 
L 303.036404 283.9296 
L 303.370787 282.74688 
L 303.705169 279.19872 
L 304.373933 281.56416 
L 304.708315 285.11232 
L 305.042697 286.29504 
L 305.377079 288.66048 
L 306.045843 291.02592 
L 306.380225 289.8432 
L 306.714607 287.47776 
L 307.048989 280.38144 
L 307.383371 281.56416 
L 307.717753 280.38144 
L 308.052135 282.74688 
L 309.055281 286.29504 
L 309.389663 285.11232 
L 309.724045 288.66048 
L 310.058427 294.57408 
L 310.392809 298.12224 
L 310.727191 298.12224 
L 311.061573 300.48768 
L 311.395955 298.12224 
L 312.064719 300.48768 
L 312.733483 300.48768 
L 313.067865 298.12224 
L 313.402247 298.12224 
L 314.071011 295.7568 
L 314.405393 299.30496 
L 314.739775 300.48768 
L 317.080449 300.48768 
L 317.414831 299.30496 
L 317.749213 296.93952 
L 318.083596 298.12224 
L 318.417978 302.85312 
L 318.75236 302.85312 
L 319.086742 307.584 
L 320.42427 307.584 
L 321.093034 305.21856 
L 321.761798 296.93952 
L 322.09618 298.12224 
L 322.430562 296.93952 
L 322.764944 292.20864 
L 323.433708 289.8432 
L 323.76809 293.39136 
L 324.102472 294.57408 
L 324.771236 292.20864 
L 325.44 299.30496 
L 325.774382 295.7568 
L 326.108764 296.93952 
L 326.443146 295.7568 
L 326.777528 298.12224 
L 327.11191 295.7568 
L 327.446292 296.93952 
L 327.780674 291.02592 
L 328.115056 288.66048 
L 328.449438 289.8432 
L 328.78382 292.20864 
L 329.118202 289.8432 
L 329.452584 291.02592 
L 329.786966 288.66048 
L 330.121348 289.8432 
L 330.45573 293.39136 
L 331.124494 295.7568 
L 331.458876 294.57408 
L 331.793258 291.02592 
L 332.12764 289.8432 
L 332.462022 292.20864 
L 332.796404 293.39136 
L 333.130787 300.48768 
L 333.465169 299.30496 
L 333.799551 295.7568 
L 334.468315 298.12224 
L 334.802697 294.57408 
L 335.471461 296.93952 
L 335.805843 302.85312 
L 337.143371 302.85312 
L 337.477753 304.03584 
L 337.812135 299.30496 
L 338.146517 300.48768 
L 339.149663 296.93952 
L 339.484045 301.6704 
L 340.152809 301.6704 
L 340.487191 302.85312 
L 340.821573 301.6704 
L 341.155955 296.93952 
L 341.490337 295.7568 
L 341.824719 298.12224 
L 342.159101 299.30496 
L 342.493483 296.93952 
L 343.496629 293.39136 
L 343.831011 298.12224 
L 344.165393 296.93952 
L 344.499775 292.20864 
L 344.834157 293.39136 
L 345.168539 289.8432 
L 345.502921 291.02592 
L 345.837303 287.47776 
L 346.506067 289.8432 
L 347.174831 294.57408 
L 347.509213 293.39136 
L 347.843596 295.7568 
L 348.177978 300.48768 
L 348.51236 295.7568 
L 348.846742 293.39136 
L 349.181124 294.57408 
L 349.515506 296.93952 
L 349.849888 294.57408 
L 350.18427 295.7568 
L 350.518652 298.12224 
L 350.853034 298.12224 
L 351.187416 299.30496 
L 351.85618 299.30496 
L 352.190562 307.584 
L 352.524944 305.21856 
L 352.859326 301.6704 
L 353.52809 299.30496 
L 353.862472 302.85312 
L 354.196854 304.03584 
L 354.531236 300.48768 
L 354.865618 299.30496 
L 355.2 301.6704 
L 355.534382 302.85312 
L 355.868764 306.40128 
L 356.203146 301.6704 
L 356.537528 300.48768 
L 356.87191 302.85312 
L 357.206292 301.6704 
L 357.540674 304.03584 
L 357.875056 301.6704 
L 358.209438 302.85312 
L 359.212584 299.30496 
L 359.546966 305.21856 
L 359.881348 305.21856 
L 360.21573 298.12224 
L 360.550112 295.7568 
L 360.884494 296.93952 
L 361.218876 295.7568 
L 361.553258 299.30496 
L 362.890787 304.03584 
L 363.225169 307.584 
L 363.893933 307.584 
L 364.228315 300.48768 
L 364.562697 299.30496 
L 364.897079 301.6704 
L 365.231461 302.85312 
L 365.565843 300.48768 
L 365.900225 299.30496 
L 366.568989 304.03584 
L 366.903371 305.21856 
L 367.237753 304.03584 
L 367.572135 300.48768 
L 368.240899 298.12224 
L 368.575281 295.7568 
L 368.909663 294.57408 
L 369.244045 292.20864 
L 369.578427 293.39136 
L 369.912809 296.93952 
L 370.247191 292.20864 
L 370.581573 293.39136 
L 370.915955 289.8432 
L 371.250337 288.66048 
L 371.584719 291.02592 
L 371.919101 292.20864 
L 372.587865 289.8432 
L 372.922247 294.57408 
L 373.591011 289.8432 
L 373.925393 291.02592 
L 374.928539 287.47776 
L 375.262921 293.39136 
L 375.597303 288.66048 
L 375.931685 287.47776 
L 376.266067 289.8432 
L 376.934831 292.20864 
L 377.269213 291.02592 
L 377.603596 295.7568 
L 378.27236 293.39136 
L 378.606742 301.6704 
L 378.941124 302.85312 
L 379.275506 300.48768 
L 379.609888 301.6704 
L 379.94427 306.40128 
L 380.278652 307.584 
L 380.613034 306.40128 
L 381.950562 306.40128 
L 382.284944 301.6704 
L 382.619326 299.30496 
L 382.953708 300.48768 
L 383.28809 296.93952 
L 383.622472 295.7568 
L 383.956854 298.12224 
L 384.291236 299.30496 
L 384.96 296.93952 
L 385.294382 302.85312 
L 385.628764 298.12224 
L 385.963146 299.30496 
L 387.635056 293.39136 
L 387.969438 300.48768 
L 388.30382 301.6704 
L 388.638202 304.03584 
L 388.972584 301.6704 
L 389.306966 301.6704 
L 389.641348 296.93952 
L 389.97573 296.93952 
L 390.310112 294.57408 
L 390.644494 295.7568 
L 390.978876 298.12224 
L 391.313258 299.30496 
L 391.64764 298.12224 
L 392.316404 289.8432 
L 392.650787 287.47776 
L 392.985169 288.66048 
L 393.319551 291.02592 
L 393.653933 292.20864 
L 393.988315 289.8432 
L 394.322697 288.66048 
L 394.657079 286.29504 
L 394.991461 287.47776 
L 395.660225 294.57408 
L 395.994607 289.8432 
L 396.663371 292.20864 
L 396.997753 289.8432 
L 397.332135 288.66048 
L 398.335281 295.7568 
L 398.669663 296.93952 
L 399.004045 300.48768 
L 399.338427 296.93952 
L 400.007191 299.30496 
L 400.341573 302.85312 
L 400.675955 300.48768 
L 401.010337 301.6704 
L 401.679101 307.584 
L 404.019775 307.584 
L 404.688539 302.85312 
L 405.022921 304.03584 
L 405.357303 306.40128 
L 407.029213 306.40128 
L 407.363596 307.584 
L 414.72 307.584 
L 414.72 307.584 
" style="fill:none;stroke:#ff7f0e;"/>
   </g>
   <g id="patch_3">
    <path d="M 57.6 307.584 
L 57.6 41.472 
" style="fill:none;stroke:#000000;stroke-linecap:square;stroke-linejoin:miter;stroke-width:0.8;"/>
   </g>
   <g id="patch_4">
    <path d="M 414.72 307.584 
L 414.72 41.472 
" style="fill:none;stroke:#000000;stroke-linecap:square;stroke-linejoin:miter;stroke-width:0.8;"/>
   </g>
   <g id="patch_5">
    <path d="M 57.6 307.584 
L 414.72 307.584 
" style="fill:none;stroke:#000000;stroke-linecap:square;stroke-linejoin:miter;stroke-width:0.8;"/>
   </g>
   <g id="patch_6">
    <path d="M 57.6 41.472 
L 414.72 41.472 
" style="fill:none;stroke:#000000;stroke-linecap:square;stroke-linejoin:miter;stroke-width:0.8;"/>
   </g>
   <g id="legend_1">
    <g id="patch_7">
     <path d="M 62.6 79.3845 
L 364.065625 79.3845 
L 364.065625 46.472 
L 62.6 46.472 
z
" style="fill:#ffffff;stroke:#000000;stroke-linejoin:miter;"/>
    </g>
    <g id="line2d_19">
     <path d="M 66.6 54.570438 
L 86.6 54.570438 
" style="fill:none;stroke:#1f77b4;"/>
    </g>
    <g id="line2d_20"/>
    <g id="text_19">
     <!-- sa_cas9/blast_refseq_5000/mafft/loophash (N=2119) -->
     <defs>
      <path d="M 34.28125 27.484375 
Q 23.390625 27.484375 19.1875 25 
Q 14.984375 22.515625 14.984375 16.5 
Q 14.984375 11.71875 18.140625 8.90625 
Q 21.296875 6.109375 26.703125 6.109375 
Q 34.1875 6.109375 38.703125 11.40625 
Q 43.21875 16.703125 43.21875 25.484375 
L 43.21875 27.484375 
z
M 52.203125 31.203125 
L 52.203125 0 
L 43.21875 0 
L 43.21875 8.296875 
Q 40.140625 3.328125 35.546875 0.953125 
Q 30.953125 -1.421875 24.3125 -1.421875 
Q 15.921875 -1.421875 10.953125 3.296875 
Q 6 8.015625 6 15.921875 
Q 6 25.140625 12.171875 29.828125 
Q 18.359375 34.515625 30.609375 34.515625 
L 43.21875 34.515625 
L 43.21875 35.40625 
Q 43.21875 41.609375 39.140625 45 
Q 35.0625 48.390625 27.6875 48.390625 
Q 23 48.390625 18.546875 47.265625 
Q 14.109375 46.140625 10.015625 43.890625 
L 10.015625 52.203125 
Q 14.9375 54.109375 19.578125 55.046875 
Q 24.21875 56 28.609375 56 
Q 40.484375 56 46.34375 49.84375 
Q 52.203125 43.703125 52.203125 31.203125 
z
" id="DejaVuSans-97"/>
      <path d="M 50.984375 -16.609375 
L 50.984375 -23.578125 
L -0.984375 -23.578125 
L -0.984375 -16.609375 
z
" id="DejaVuSans-95"/>
      <path d="M 48.78125 52.59375 
L 48.78125 44.1875 
Q 44.96875 46.296875 41.140625 47.34375 
Q 37.3125 48.390625 33.40625 48.390625 
Q 24.65625 48.390625 19.8125 42.84375 
Q 14.984375 37.3125 14.984375 27.296875 
Q 14.984375 17.28125 19.8125 11.734375 
Q 24.65625 6.203125 33.40625 6.203125 
Q 37.3125 6.203125 41.140625 7.25 
Q 44.96875 8.296875 48.78125 10.40625 
L 48.78125 2.09375 
Q 45.015625 0.34375 40.984375 -0.53125 
Q 36.96875 -1.421875 32.421875 -1.421875 
Q 20.0625 -1.421875 12.78125 6.34375 
Q 5.515625 14.109375 5.515625 27.296875 
Q 5.515625 40.671875 12.859375 48.328125 
Q 20.21875 56 33.015625 56 
Q 37.15625 56 41.109375 55.140625 
Q 45.0625 54.296875 48.78125 52.59375 
z
" id="DejaVuSans-99"/>
      <path d="M 10.984375 1.515625 
L 10.984375 10.5 
Q 14.703125 8.734375 18.5 7.8125 
Q 22.3125 6.890625 25.984375 6.890625 
Q 35.75 6.890625 40.890625 13.453125 
Q 46.046875 20.015625 46.78125 33.40625 
Q 43.953125 29.203125 39.59375 26.953125 
Q 35.25 24.703125 29.984375 24.703125 
Q 19.046875 24.703125 12.671875 31.3125 
Q 6.296875 37.9375 6.296875 49.421875 
Q 6.296875 60.640625 12.9375 67.421875 
Q 19.578125 74.21875 30.609375 74.21875 
Q 43.265625 74.21875 49.921875 64.515625 
Q 56.59375 54.828125 56.59375 36.375 
Q 56.59375 19.140625 48.40625 8.859375 
Q 40.234375 -1.421875 26.421875 -1.421875 
Q 22.703125 -1.421875 18.890625 -0.6875 
Q 15.09375 0.046875 10.984375 1.515625 
z
M 30.609375 32.421875 
Q 37.25 32.421875 41.125 36.953125 
Q 45.015625 41.5 45.015625 49.421875 
Q 45.015625 57.28125 41.125 61.84375 
Q 37.25 66.40625 30.609375 66.40625 
Q 23.96875 66.40625 20.09375 61.84375 
Q 16.21875 57.28125 16.21875 49.421875 
Q 16.21875 41.5 20.09375 36.953125 
Q 23.96875 32.421875 30.609375 32.421875 
z
" id="DejaVuSans-57"/>
      <path d="M 25.390625 72.90625 
L 33.6875 72.90625 
L 8.296875 -9.28125 
L 0 -9.28125 
z
" id="DejaVuSans-47"/>
      <path d="M 48.6875 27.296875 
Q 48.6875 37.203125 44.609375 42.84375 
Q 40.53125 48.484375 33.40625 48.484375 
Q 26.265625 48.484375 22.1875 42.84375 
Q 18.109375 37.203125 18.109375 27.296875 
Q 18.109375 17.390625 22.1875 11.75 
Q 26.265625 6.109375 33.40625 6.109375 
Q 40.53125 6.109375 44.609375 11.75 
Q 48.6875 17.390625 48.6875 27.296875 
z
M 18.109375 46.390625 
Q 20.953125 51.265625 25.265625 53.625 
Q 29.59375 56 35.59375 56 
Q 45.5625 56 51.78125 48.09375 
Q 58.015625 40.1875 58.015625 27.296875 
Q 58.015625 14.40625 51.78125 6.484375 
Q 45.5625 -1.421875 35.59375 -1.421875 
Q 29.59375 -1.421875 25.265625 0.953125 
Q 20.953125 3.328125 18.109375 8.203125 
L 18.109375 0 
L 9.078125 0 
L 9.078125 75.984375 
L 18.109375 75.984375 
z
" id="DejaVuSans-98"/>
      <path d="M 37.109375 75.984375 
L 37.109375 68.5 
L 28.515625 68.5 
Q 23.6875 68.5 21.796875 66.546875 
Q 19.921875 64.59375 19.921875 59.515625 
L 19.921875 54.6875 
L 34.71875 54.6875 
L 34.71875 47.703125 
L 19.921875 47.703125 
L 19.921875 0 
L 10.890625 0 
L 10.890625 47.703125 
L 2.296875 47.703125 
L 2.296875 54.6875 
L 10.890625 54.6875 
L 10.890625 58.5 
Q 10.890625 67.625 15.140625 71.796875 
Q 19.390625 75.984375 28.609375 75.984375 
z
" id="DejaVuSans-102"/>
      <path d="M 14.796875 27.296875 
Q 14.796875 17.390625 18.875 11.75 
Q 22.953125 6.109375 30.078125 6.109375 
Q 37.203125 6.109375 41.296875 11.75 
Q 45.40625 17.390625 45.40625 27.296875 
Q 45.40625 37.203125 41.296875 42.84375 
Q 37.203125 48.484375 30.078125 48.484375 
Q 22.953125 48.484375 18.875 42.84375 
Q 14.796875 37.203125 14.796875 27.296875 
z
M 45.40625 8.203125 
Q 42.578125 3.328125 38.25 0.953125 
Q 33.9375 -1.421875 27.875 -1.421875 
Q 17.96875 -1.421875 11.734375 6.484375 
Q 5.515625 14.40625 5.515625 27.296875 
Q 5.515625 40.1875 11.734375 48.09375 
Q 17.96875 56 27.875 56 
Q 33.9375 56 38.25 53.625 
Q 42.578125 51.265625 45.40625 46.390625 
L 45.40625 54.6875 
L 54.390625 54.6875 
L 54.390625 -20.796875 
L 45.40625 -20.796875 
z
" id="DejaVuSans-113"/>
      <path d="M 52 44.1875 
Q 55.375 50.25 60.0625 53.125 
Q 64.75 56 71.09375 56 
Q 79.640625 56 84.28125 50.015625 
Q 88.921875 44.046875 88.921875 33.015625 
L 88.921875 0 
L 79.890625 0 
L 79.890625 32.71875 
Q 79.890625 40.578125 77.09375 44.375 
Q 74.3125 48.1875 68.609375 48.1875 
Q 61.625 48.1875 57.5625 43.546875 
Q 53.515625 38.921875 53.515625 30.90625 
L 53.515625 0 
L 44.484375 0 
L 44.484375 32.71875 
Q 44.484375 40.625 41.703125 44.40625 
Q 38.921875 48.1875 33.109375 48.1875 
Q 26.21875 48.1875 22.15625 43.53125 
Q 18.109375 38.875 18.109375 30.90625 
L 18.109375 0 
L 9.078125 0 
L 9.078125 54.6875 
L 18.109375 54.6875 
L 18.109375 46.1875 
Q 21.1875 51.21875 25.484375 53.609375 
Q 29.78125 56 35.6875 56 
Q 41.65625 56 45.828125 52.96875 
Q 50 49.953125 52 44.1875 
z
" id="DejaVuSans-109"/>
      <path d="M 18.109375 8.203125 
L 18.109375 -20.796875 
L 9.078125 -20.796875 
L 9.078125 54.6875 
L 18.109375 54.6875 
L 18.109375 46.390625 
Q 20.953125 51.265625 25.265625 53.625 
Q 29.59375 56 35.59375 56 
Q 45.5625 56 51.78125 48.09375 
Q 58.015625 40.1875 58.015625 27.296875 
Q 58.015625 14.40625 51.78125 6.484375 
Q 45.5625 -1.421875 35.59375 -1.421875 
Q 29.59375 -1.421875 25.265625 0.953125 
Q 20.953125 3.328125 18.109375 8.203125 
z
M 48.6875 27.296875 
Q 48.6875 37.203125 44.609375 42.84375 
Q 40.53125 48.484375 33.40625 48.484375 
Q 26.265625 48.484375 22.1875 42.84375 
Q 18.109375 37.203125 18.109375 27.296875 
Q 18.109375 17.390625 22.1875 11.75 
Q 26.265625 6.109375 33.40625 6.109375 
Q 40.53125 6.109375 44.609375 11.75 
Q 48.6875 17.390625 48.6875 27.296875 
z
" id="DejaVuSans-112"/>
      <path d="M 54.890625 33.015625 
L 54.890625 0 
L 45.90625 0 
L 45.90625 32.71875 
Q 45.90625 40.484375 42.875 44.328125 
Q 39.84375 48.1875 33.796875 48.1875 
Q 26.515625 48.1875 22.3125 43.546875 
Q 18.109375 38.921875 18.109375 30.90625 
L 18.109375 0 
L 9.078125 0 
L 9.078125 75.984375 
L 18.109375 75.984375 
L 18.109375 46.1875 
Q 21.34375 51.125 25.703125 53.5625 
Q 30.078125 56 35.796875 56 
Q 45.21875 56 50.046875 50.171875 
Q 54.890625 44.34375 54.890625 33.015625 
z
" id="DejaVuSans-104"/>
      <path d="M 31 75.875 
Q 24.46875 64.65625 21.28125 53.65625 
Q 18.109375 42.671875 18.109375 31.390625 
Q 18.109375 20.125 21.3125 9.0625 
Q 24.515625 -2 31 -13.1875 
L 23.1875 -13.1875 
Q 15.875 -1.703125 12.234375 9.375 
Q 8.59375 20.453125 8.59375 31.390625 
Q 8.59375 42.28125 12.203125 53.3125 
Q 15.828125 64.359375 23.1875 75.875 
z
" id="DejaVuSans-40"/>
      <path d="M 9.8125 72.90625 
L 23.09375 72.90625 
L 55.421875 11.921875 
L 55.421875 72.90625 
L 64.984375 72.90625 
L 64.984375 0 
L 51.703125 0 
L 19.390625 60.984375 
L 19.390625 0 
L 9.8125 0 
z
" id="DejaVuSans-78"/>
      <path d="M 10.59375 45.40625 
L 73.1875 45.40625 
L 73.1875 37.203125 
L 10.59375 37.203125 
z
M 10.59375 25.484375 
L 73.1875 25.484375 
L 73.1875 17.1875 
L 10.59375 17.1875 
z
" id="DejaVuSans-61"/>
      <path d="M 8.015625 75.875 
L 15.828125 75.875 
Q 23.140625 64.359375 26.78125 53.3125 
Q 30.421875 42.28125 30.421875 31.390625 
Q 30.421875 20.453125 26.78125 9.375 
Q 23.140625 -1.703125 15.828125 -13.1875 
L 8.015625 -13.1875 
Q 14.5 -2 17.703125 9.0625 
Q 20.90625 20.125 20.90625 31.390625 
Q 20.90625 42.671875 17.703125 53.65625 
Q 14.5 64.65625 8.015625 75.875 
z
" id="DejaVuSans-41"/>
     </defs>
     <g transform="translate(94.6 58.070438)scale(0.1 -0.1)">
      <use xlink:href="#DejaVuSans-115"/>
      <use x="52.099609" xlink:href="#DejaVuSans-97"/>
      <use x="113.378906" xlink:href="#DejaVuSans-95"/>
      <use x="163.378906" xlink:href="#DejaVuSans-99"/>
      <use x="218.359375" xlink:href="#DejaVuSans-97"/>
      <use x="279.638672" xlink:href="#DejaVuSans-115"/>
      <use x="331.738281" xlink:href="#DejaVuSans-57"/>
      <use x="395.361328" xlink:href="#DejaVuSans-47"/>
      <use x="429.052734" xlink:href="#DejaVuSans-98"/>
      <use x="492.529297" xlink:href="#DejaVuSans-108"/>
      <use x="520.3125" xlink:href="#DejaVuSans-97"/>
      <use x="581.591797" xlink:href="#DejaVuSans-115"/>
      <use x="633.691406" xlink:href="#DejaVuSans-116"/>
      <use x="672.900391" xlink:href="#DejaVuSans-95"/>
      <use x="722.900391" xlink:href="#DejaVuSans-114"/>
      <use x="763.982422" xlink:href="#DejaVuSans-101"/>
      <use x="825.505859" xlink:href="#DejaVuSans-102"/>
      <use x="860.710938" xlink:href="#DejaVuSans-115"/>
      <use x="912.810547" xlink:href="#DejaVuSans-101"/>
      <use x="974.333984" xlink:href="#DejaVuSans-113"/>
      <use x="1037.810547" xlink:href="#DejaVuSans-95"/>
      <use x="1087.810547" xlink:href="#DejaVuSans-53"/>
      <use x="1151.433594" xlink:href="#DejaVuSans-48"/>
      <use x="1215.056641" xlink:href="#DejaVuSans-48"/>
      <use x="1278.679688" xlink:href="#DejaVuSans-48"/>
      <use x="1342.302734" xlink:href="#DejaVuSans-47"/>
      <use x="1375.994141" xlink:href="#DejaVuSans-109"/>
      <use x="1473.40625" xlink:href="#DejaVuSans-97"/>
      <use x="1534.685547" xlink:href="#DejaVuSans-102"/>
      <use x="1569.890625" xlink:href="#DejaVuSans-102"/>
      <use x="1605.080078" xlink:href="#DejaVuSans-116"/>
      <use x="1644.289062" xlink:href="#DejaVuSans-47"/>
      <use x="1677.980469" xlink:href="#DejaVuSans-108"/>
      <use x="1705.763672" xlink:href="#DejaVuSans-111"/>
      <use x="1766.945312" xlink:href="#DejaVuSans-111"/>
      <use x="1828.126953" xlink:href="#DejaVuSans-112"/>
      <use x="1891.603516" xlink:href="#DejaVuSans-104"/>
      <use x="1954.982422" xlink:href="#DejaVuSans-97"/>
      <use x="2016.261719" xlink:href="#DejaVuSans-115"/>
      <use x="2068.361328" xlink:href="#DejaVuSans-104"/>
      <use x="2131.740234" xlink:href="#DejaVuSans-32"/>
      <use x="2163.527344" xlink:href="#DejaVuSans-40"/>
      <use x="2202.541016" xlink:href="#DejaVuSans-78"/>
      <use x="2277.345703" xlink:href="#DejaVuSans-61"/>
      <use x="2361.134766" xlink:href="#DejaVuSans-50"/>
      <use x="2424.757812" xlink:href="#DejaVuSans-49"/>
      <use x="2488.380859" xlink:href="#DejaVuSans-49"/>
      <use x="2552.003906" xlink:href="#DejaVuSans-57"/>
      <use x="2615.626953" xlink:href="#DejaVuSans-41"/>
     </g>
    </g>
    <g id="line2d_21">
     <path d="M 66.6 69.526688 
L 86.6 69.526688 
" style="fill:none;stroke:#ff7f0e;"/>
    </g>
    <g id="line2d_22"/>
    <g id="text_20">
     <!-- sa_cas9/blast_refseq_5000/mafft/threshold (N=618) -->
     <g transform="translate(94.6 73.026688)scale(0.1 -0.1)">
      <use xlink:href="#DejaVuSans-115"/>
      <use x="52.099609" xlink:href="#DejaVuSans-97"/>
      <use x="113.378906" xlink:href="#DejaVuSans-95"/>
      <use x="163.378906" xlink:href="#DejaVuSans-99"/>
      <use x="218.359375" xlink:href="#DejaVuSans-97"/>
      <use x="279.638672" xlink:href="#DejaVuSans-115"/>
      <use x="331.738281" xlink:href="#DejaVuSans-57"/>
      <use x="395.361328" xlink:href="#DejaVuSans-47"/>
      <use x="429.052734" xlink:href="#DejaVuSans-98"/>
      <use x="492.529297" xlink:href="#DejaVuSans-108"/>
      <use x="520.3125" xlink:href="#DejaVuSans-97"/>
      <use x="581.591797" xlink:href="#DejaVuSans-115"/>
      <use x="633.691406" xlink:href="#DejaVuSans-116"/>
      <use x="672.900391" xlink:href="#DejaVuSans-95"/>
      <use x="722.900391" xlink:href="#DejaVuSans-114"/>
      <use x="763.982422" xlink:href="#DejaVuSans-101"/>
      <use x="825.505859" xlink:href="#DejaVuSans-102"/>
      <use x="860.710938" xlink:href="#DejaVuSans-115"/>
      <use x="912.810547" xlink:href="#DejaVuSans-101"/>
      <use x="974.333984" xlink:href="#DejaVuSans-113"/>
      <use x="1037.810547" xlink:href="#DejaVuSans-95"/>
      <use x="1087.810547" xlink:href="#DejaVuSans-53"/>
      <use x="1151.433594" xlink:href="#DejaVuSans-48"/>
      <use x="1215.056641" xlink:href="#DejaVuSans-48"/>
      <use x="1278.679688" xlink:href="#DejaVuSans-48"/>
      <use x="1342.302734" xlink:href="#DejaVuSans-47"/>
      <use x="1375.994141" xlink:href="#DejaVuSans-109"/>
      <use x="1473.40625" xlink:href="#DejaVuSans-97"/>
      <use x="1534.685547" xlink:href="#DejaVuSans-102"/>
      <use x="1569.890625" xlink:href="#DejaVuSans-102"/>
      <use x="1605.080078" xlink:href="#DejaVuSans-116"/>
      <use x="1644.289062" xlink:href="#DejaVuSans-47"/>
      <use x="1677.980469" xlink:href="#DejaVuSans-116"/>
      <use x="1717.189453" xlink:href="#DejaVuSans-104"/>
      <use x="1780.568359" xlink:href="#DejaVuSans-114"/>
      <use x="1821.650391" xlink:href="#DejaVuSans-101"/>
      <use x="1883.173828" xlink:href="#DejaVuSans-115"/>
      <use x="1935.273438" xlink:href="#DejaVuSans-104"/>
      <use x="1998.652344" xlink:href="#DejaVuSans-111"/>
      <use x="2059.833984" xlink:href="#DejaVuSans-108"/>
      <use x="2087.617188" xlink:href="#DejaVuSans-100"/>
      <use x="2151.09375" xlink:href="#DejaVuSans-32"/>
      <use x="2182.880859" xlink:href="#DejaVuSans-40"/>
      <use x="2221.894531" xlink:href="#DejaVuSans-78"/>
      <use x="2296.699219" xlink:href="#DejaVuSans-61"/>
      <use x="2380.488281" xlink:href="#DejaVuSans-54"/>
      <use x="2444.111328" xlink:href="#DejaVuSans-49"/>
      <use x="2507.734375" xlink:href="#DejaVuSans-56"/>
      <use x="2571.357422" xlink:href="#DejaVuSans-41"/>
     </g>
    </g>
   </g>
  </g>
 </g>
 <defs>
  <clipPath id="pfc651b7c84">
   <rect height="266.112" width="357.12" x="57.6" y="41.472"/>
  </clipPath>
 </defs>
</svg>
