<?xml version="1.0" encoding="utf-8" standalone="no"?>
<!DOCTYPE svg PUBLIC "-//W3C//DTD SVG 1.1//EN"
  "http://www.w3.org/Graphics/SVG/1.1/DTD/svg11.dtd">
<!-- Created with matplotlib (https://matplotlib.org/) -->
<svg height="525.6pt" version="1.1" viewBox="0 0 637.2 525.6" width="637.2pt" xmlns="http://www.w3.org/2000/svg" xmlns:xlink="http://www.w3.org/1999/xlink">
 <defs>
  <style type="text/css">
*{stroke-linecap:butt;stroke-linejoin:round;}
  </style>
 </defs>
 <g id="figure_1">
  <g id="patch_1">
   <path d="M 0 525.6 
L 637.2 525.6 
L 637.2 0 
L 0 0 
z
" style="fill:none;"/>
  </g>
  <g id="axes_1">
   <g id="patch_2">
    <path d="M 79.65 467.784 
L 573.48 467.784 
L 573.48 63.072 
L 79.65 63.072 
z
" style="fill:#ffffff;"/>
   </g>
   <g id="line2d_1">
    <path clip-path="url(#pf580ceb8f9)" d="M 227.799 467.784 
L 227.799 63.072 
" style="fill:none;stroke:#808080;stroke-dasharray:3.7,1.6;stroke-dashoffset:0;"/>
   </g>
   <g id="matplotlib.axis_1">
    <g id="xtick_1">
     <g id="line2d_2">
      <defs>
       <path d="M 0 0 
L 0 3.5 
" id="m584d192b27" style="stroke:#000000;stroke-width:0.8;"/>
      </defs>
      <g>
       <use style="stroke:#000000;stroke-width:0.8;" x="79.65" xlink:href="#m584d192b27" y="467.784"/>
      </g>
     </g>
     <g id="text_1">
      <!-- 0.0 -->
      <defs>
       <path d="M 31.78125 66.40625 
Q 24.171875 66.40625 20.328125 58.90625 
Q 16.5 51.421875 16.5 36.375 
Q 16.5 21.390625 20.328125 13.890625 
Q 24.171875 6.390625 31.78125 6.390625 
Q 39.453125 6.390625 43.28125 13.890625 
Q 47.125 21.390625 47.125 36.375 
Q 47.125 51.421875 43.28125 58.90625 
Q 39.453125 66.40625 31.78125 66.40625 
z
M 31.78125 74.21875 
Q 44.046875 74.21875 50.515625 64.515625 
Q 56.984375 54.828125 56.984375 36.375 
Q 56.984375 17.96875 50.515625 8.265625 
Q 44.046875 -1.421875 31.78125 -1.421875 
Q 19.53125 -1.421875 13.0625 8.265625 
Q 6.59375 17.96875 6.59375 36.375 
Q 6.59375 54.828125 13.0625 64.515625 
Q 19.53125 74.21875 31.78125 74.21875 
z
" id="DejaVuSans-48"/>
       <path d="M 10.6875 12.40625 
L 21 12.40625 
L 21 0 
L 10.6875 0 
z
" id="DejaVuSans-46"/>
      </defs>
      <g transform="translate(71.698437 482.382438)scale(0.1 -0.1)">
       <use xlink:href="#DejaVuSans-48"/>
       <use x="63.623047" xlink:href="#DejaVuSans-46"/>
       <use x="95.410156" xlink:href="#DejaVuSans-48"/>
      </g>
     </g>
    </g>
    <g id="xtick_2">
     <g id="line2d_3">
      <g>
       <use style="stroke:#000000;stroke-width:0.8;" x="178.416" xlink:href="#m584d192b27" y="467.784"/>
      </g>
     </g>
     <g id="text_2">
      <!-- 0.2 -->
      <defs>
       <path d="M 19.1875 8.296875 
L 53.609375 8.296875 
L 53.609375 0 
L 7.328125 0 
L 7.328125 8.296875 
Q 12.9375 14.109375 22.625 23.890625 
Q 32.328125 33.6875 34.8125 36.53125 
Q 39.546875 41.84375 41.421875 45.53125 
Q 43.3125 49.21875 43.3125 52.78125 
Q 43.3125 58.59375 39.234375 62.25 
Q 35.15625 65.921875 28.609375 65.921875 
Q 23.96875 65.921875 18.8125 64.3125 
Q 13.671875 62.703125 7.8125 59.421875 
L 7.8125 69.390625 
Q 13.765625 71.78125 18.9375 73 
Q 24.125 74.21875 28.421875 74.21875 
Q 39.75 74.21875 46.484375 68.546875 
Q 53.21875 62.890625 53.21875 53.421875 
Q 53.21875 48.921875 51.53125 44.890625 
Q 49.859375 40.875 45.40625 35.40625 
Q 44.1875 33.984375 37.640625 27.21875 
Q 31.109375 20.453125 19.1875 8.296875 
z
" id="DejaVuSans-50"/>
      </defs>
      <g transform="translate(170.464438 482.382438)scale(0.1 -0.1)">
       <use xlink:href="#DejaVuSans-48"/>
       <use x="63.623047" xlink:href="#DejaVuSans-46"/>
       <use x="95.410156" xlink:href="#DejaVuSans-50"/>
      </g>
     </g>
    </g>
    <g id="xtick_3">
     <g id="line2d_4">
      <g>
       <use style="stroke:#000000;stroke-width:0.8;" x="277.182" xlink:href="#m584d192b27" y="467.784"/>
      </g>
     </g>
     <g id="text_3">
      <!-- 0.4 -->
      <defs>
       <path d="M 37.796875 64.3125 
L 12.890625 25.390625 
L 37.796875 25.390625 
z
M 35.203125 72.90625 
L 47.609375 72.90625 
L 47.609375 25.390625 
L 58.015625 25.390625 
L 58.015625 17.1875 
L 47.609375 17.1875 
L 47.609375 0 
L 37.796875 0 
L 37.796875 17.1875 
L 4.890625 17.1875 
L 4.890625 26.703125 
z
" id="DejaVuSans-52"/>
      </defs>
      <g transform="translate(269.230437 482.382438)scale(0.1 -0.1)">
       <use xlink:href="#DejaVuSans-48"/>
       <use x="63.623047" xlink:href="#DejaVuSans-46"/>
       <use x="95.410156" xlink:href="#DejaVuSans-52"/>
      </g>
     </g>
    </g>
    <g id="xtick_4">
     <g id="line2d_5">
      <g>
       <use style="stroke:#000000;stroke-width:0.8;" x="375.948" xlink:href="#m584d192b27" y="467.784"/>
      </g>
     </g>
     <g id="text_4">
      <!-- 0.6 -->
      <defs>
       <path d="M 33.015625 40.375 
Q 26.375 40.375 22.484375 35.828125 
Q 18.609375 31.296875 18.609375 23.390625 
Q 18.609375 15.53125 22.484375 10.953125 
Q 26.375 6.390625 33.015625 6.390625 
Q 39.65625 6.390625 43.53125 10.953125 
Q 47.40625 15.53125 47.40625 23.390625 
Q 47.40625 31.296875 43.53125 35.828125 
Q 39.65625 40.375 33.015625 40.375 
z
M 52.59375 71.296875 
L 52.59375 62.3125 
Q 48.875 64.0625 45.09375 64.984375 
Q 41.3125 65.921875 37.59375 65.921875 
Q 27.828125 65.921875 22.671875 59.328125 
Q 17.53125 52.734375 16.796875 39.40625 
Q 19.671875 43.65625 24.015625 45.921875 
Q 28.375 48.1875 33.59375 48.1875 
Q 44.578125 48.1875 50.953125 41.515625 
Q 57.328125 34.859375 57.328125 23.390625 
Q 57.328125 12.15625 50.6875 5.359375 
Q 44.046875 -1.421875 33.015625 -1.421875 
Q 20.359375 -1.421875 13.671875 8.265625 
Q 6.984375 17.96875 6.984375 36.375 
Q 6.984375 53.65625 15.1875 63.9375 
Q 23.390625 74.21875 37.203125 74.21875 
Q 40.921875 74.21875 44.703125 73.484375 
Q 48.484375 72.75 52.59375 71.296875 
z
" id="DejaVuSans-54"/>
      </defs>
      <g transform="translate(367.996437 482.382438)scale(0.1 -0.1)">
       <use xlink:href="#DejaVuSans-48"/>
       <use x="63.623047" xlink:href="#DejaVuSans-46"/>
       <use x="95.410156" xlink:href="#DejaVuSans-54"/>
      </g>
     </g>
    </g>
    <g id="xtick_5">
     <g id="line2d_6">
      <g>
       <use style="stroke:#000000;stroke-width:0.8;" x="474.714" xlink:href="#m584d192b27" y="467.784"/>
      </g>
     </g>
     <g id="text_5">
      <!-- 0.8 -->
      <defs>
       <path d="M 31.78125 34.625 
Q 24.75 34.625 20.71875 30.859375 
Q 16.703125 27.09375 16.703125 20.515625 
Q 16.703125 13.921875 20.71875 10.15625 
Q 24.75 6.390625 31.78125 6.390625 
Q 38.8125 6.390625 42.859375 10.171875 
Q 46.921875 13.96875 46.921875 20.515625 
Q 46.921875 27.09375 42.890625 30.859375 
Q 38.875 34.625 31.78125 34.625 
z
M 21.921875 38.8125 
Q 15.578125 40.375 12.03125 44.71875 
Q 8.5 49.078125 8.5 55.328125 
Q 8.5 64.0625 14.71875 69.140625 
Q 20.953125 74.21875 31.78125 74.21875 
Q 42.671875 74.21875 48.875 69.140625 
Q 55.078125 64.0625 55.078125 55.328125 
Q 55.078125 49.078125 51.53125 44.71875 
Q 48 40.375 41.703125 38.8125 
Q 48.828125 37.15625 52.796875 32.3125 
Q 56.78125 27.484375 56.78125 20.515625 
Q 56.78125 9.90625 50.3125 4.234375 
Q 43.84375 -1.421875 31.78125 -1.421875 
Q 19.734375 -1.421875 13.25 4.234375 
Q 6.78125 9.90625 6.78125 20.515625 
Q 6.78125 27.484375 10.78125 32.3125 
Q 14.796875 37.15625 21.921875 38.8125 
z
M 18.3125 54.390625 
Q 18.3125 48.734375 21.84375 45.5625 
Q 25.390625 42.390625 31.78125 42.390625 
Q 38.140625 42.390625 41.71875 45.5625 
Q 45.3125 48.734375 45.3125 54.390625 
Q 45.3125 60.0625 41.71875 63.234375 
Q 38.140625 66.40625 31.78125 66.40625 
Q 25.390625 66.40625 21.84375 63.234375 
Q 18.3125 60.0625 18.3125 54.390625 
z
" id="DejaVuSans-56"/>
      </defs>
      <g transform="translate(466.762437 482.382438)scale(0.1 -0.1)">
       <use xlink:href="#DejaVuSans-48"/>
       <use x="63.623047" xlink:href="#DejaVuSans-46"/>
       <use x="95.410156" xlink:href="#DejaVuSans-56"/>
      </g>
     </g>
    </g>
    <g id="xtick_6">
     <g id="line2d_7">
      <g>
       <use style="stroke:#000000;stroke-width:0.8;" x="573.48" xlink:href="#m584d192b27" y="467.784"/>
      </g>
     </g>
     <g id="text_6">
      <!-- 1.0 -->
      <defs>
       <path d="M 12.40625 8.296875 
L 28.515625 8.296875 
L 28.515625 63.921875 
L 10.984375 60.40625 
L 10.984375 69.390625 
L 28.421875 72.90625 
L 38.28125 72.90625 
L 38.28125 8.296875 
L 54.390625 8.296875 
L 54.390625 0 
L 12.40625 0 
z
" id="DejaVuSans-49"/>
      </defs>
      <g transform="translate(565.528437 482.382438)scale(0.1 -0.1)">
       <use xlink:href="#DejaVuSans-49"/>
       <use x="63.623047" xlink:href="#DejaVuSans-46"/>
       <use x="95.410156" xlink:href="#DejaVuSans-48"/>
      </g>
     </g>
    </g>
    <g id="text_7">
     <!-- % Identity -->
     <defs>
      <path d="M 72.703125 32.078125 
Q 68.453125 32.078125 66.03125 28.46875 
Q 63.625 24.859375 63.625 18.40625 
Q 63.625 12.0625 66.03125 8.421875 
Q 68.453125 4.78125 72.703125 4.78125 
Q 76.859375 4.78125 79.265625 8.421875 
Q 81.6875 12.0625 81.6875 18.40625 
Q 81.6875 24.8125 79.265625 28.4375 
Q 76.859375 32.078125 72.703125 32.078125 
z
M 72.703125 38.28125 
Q 80.421875 38.28125 84.953125 32.90625 
Q 89.5 27.546875 89.5 18.40625 
Q 89.5 9.28125 84.9375 3.921875 
Q 80.375 -1.421875 72.703125 -1.421875 
Q 64.890625 -1.421875 60.34375 3.921875 
Q 55.8125 9.28125 55.8125 18.40625 
Q 55.8125 27.59375 60.375 32.9375 
Q 64.9375 38.28125 72.703125 38.28125 
z
M 22.3125 68.015625 
Q 18.109375 68.015625 15.6875 64.375 
Q 13.28125 60.75 13.28125 54.390625 
Q 13.28125 47.953125 15.671875 44.328125 
Q 18.0625 40.71875 22.3125 40.71875 
Q 26.5625 40.71875 28.96875 44.328125 
Q 31.390625 47.953125 31.390625 54.390625 
Q 31.390625 60.6875 28.953125 64.34375 
Q 26.515625 68.015625 22.3125 68.015625 
z
M 66.40625 74.21875 
L 74.21875 74.21875 
L 28.609375 -1.421875 
L 20.796875 -1.421875 
z
M 22.3125 74.21875 
Q 30.03125 74.21875 34.609375 68.875 
Q 39.203125 63.53125 39.203125 54.390625 
Q 39.203125 45.171875 34.640625 39.84375 
Q 30.078125 34.515625 22.3125 34.515625 
Q 14.546875 34.515625 10.03125 39.859375 
Q 5.515625 45.21875 5.515625 54.390625 
Q 5.515625 63.484375 10.046875 68.84375 
Q 14.59375 74.21875 22.3125 74.21875 
z
" id="DejaVuSans-37"/>
      <path id="DejaVuSans-32"/>
      <path d="M 9.8125 72.90625 
L 19.671875 72.90625 
L 19.671875 0 
L 9.8125 0 
z
" id="DejaVuSans-73"/>
      <path d="M 45.40625 46.390625 
L 45.40625 75.984375 
L 54.390625 75.984375 
L 54.390625 0 
L 45.40625 0 
L 45.40625 8.203125 
Q 42.578125 3.328125 38.25 0.953125 
Q 33.9375 -1.421875 27.875 -1.421875 
Q 17.96875 -1.421875 11.734375 6.484375 
Q 5.515625 14.40625 5.515625 27.296875 
Q 5.515625 40.1875 11.734375 48.09375 
Q 17.96875 56 27.875 56 
Q 33.9375 56 38.25 53.625 
Q 42.578125 51.265625 45.40625 46.390625 
z
M 14.796875 27.296875 
Q 14.796875 17.390625 18.875 11.75 
Q 22.953125 6.109375 30.078125 6.109375 
Q 37.203125 6.109375 41.296875 11.75 
Q 45.40625 17.390625 45.40625 27.296875 
Q 45.40625 37.203125 41.296875 42.84375 
Q 37.203125 48.484375 30.078125 48.484375 
Q 22.953125 48.484375 18.875 42.84375 
Q 14.796875 37.203125 14.796875 27.296875 
z
" id="DejaVuSans-100"/>
      <path d="M 56.203125 29.59375 
L 56.203125 25.203125 
L 14.890625 25.203125 
Q 15.484375 15.921875 20.484375 11.0625 
Q 25.484375 6.203125 34.421875 6.203125 
Q 39.59375 6.203125 44.453125 7.46875 
Q 49.3125 8.734375 54.109375 11.28125 
L 54.109375 2.78125 
Q 49.265625 0.734375 44.1875 -0.34375 
Q 39.109375 -1.421875 33.890625 -1.421875 
Q 20.796875 -1.421875 13.15625 6.1875 
Q 5.515625 13.8125 5.515625 26.8125 
Q 5.515625 40.234375 12.765625 48.109375 
Q 20.015625 56 32.328125 56 
Q 43.359375 56 49.78125 48.890625 
Q 56.203125 41.796875 56.203125 29.59375 
z
M 47.21875 32.234375 
Q 47.125 39.59375 43.09375 43.984375 
Q 39.0625 48.390625 32.421875 48.390625 
Q 24.90625 48.390625 20.390625 44.140625 
Q 15.875 39.890625 15.1875 32.171875 
z
" id="DejaVuSans-101"/>
      <path d="M 54.890625 33.015625 
L 54.890625 0 
L 45.90625 0 
L 45.90625 32.71875 
Q 45.90625 40.484375 42.875 44.328125 
Q 39.84375 48.1875 33.796875 48.1875 
Q 26.515625 48.1875 22.3125 43.546875 
Q 18.109375 38.921875 18.109375 30.90625 
L 18.109375 0 
L 9.078125 0 
L 9.078125 54.6875 
L 18.109375 54.6875 
L 18.109375 46.1875 
Q 21.34375 51.125 25.703125 53.5625 
Q 30.078125 56 35.796875 56 
Q 45.21875 56 50.046875 50.171875 
Q 54.890625 44.34375 54.890625 33.015625 
z
" id="DejaVuSans-110"/>
      <path d="M 18.3125 70.21875 
L 18.3125 54.6875 
L 36.8125 54.6875 
L 36.8125 47.703125 
L 18.3125 47.703125 
L 18.3125 18.015625 
Q 18.3125 11.328125 20.140625 9.421875 
Q 21.96875 7.515625 27.59375 7.515625 
L 36.8125 7.515625 
L 36.8125 0 
L 27.59375 0 
Q 17.1875 0 13.234375 3.875 
Q 9.28125 7.765625 9.28125 18.015625 
L 9.28125 47.703125 
L 2.6875 47.703125 
L 2.6875 54.6875 
L 9.28125 54.6875 
L 9.28125 70.21875 
z
" id="DejaVuSans-116"/>
      <path d="M 9.421875 54.6875 
L 18.40625 54.6875 
L 18.40625 0 
L 9.421875 0 
z
M 9.421875 75.984375 
L 18.40625 75.984375 
L 18.40625 64.59375 
L 9.421875 64.59375 
z
" id="DejaVuSans-105"/>
      <path d="M 32.171875 -5.078125 
Q 28.375 -14.84375 24.75 -17.8125 
Q 21.140625 -20.796875 15.09375 -20.796875 
L 7.90625 -20.796875 
L 7.90625 -13.28125 
L 13.1875 -13.28125 
Q 16.890625 -13.28125 18.9375 -11.515625 
Q 21 -9.765625 23.484375 -3.21875 
L 25.09375 0.875 
L 2.984375 54.6875 
L 12.5 54.6875 
L 29.59375 11.921875 
L 46.6875 54.6875 
L 56.203125 54.6875 
z
" id="DejaVuSans-121"/>
     </defs>
     <g transform="translate(301.061875 496.060563)scale(0.1 -0.1)">
      <use xlink:href="#DejaVuSans-37"/>
      <use x="95.019531" xlink:href="#DejaVuSans-32"/>
      <use x="126.806641" xlink:href="#DejaVuSans-73"/>
      <use x="156.298828" xlink:href="#DejaVuSans-100"/>
      <use x="219.775391" xlink:href="#DejaVuSans-101"/>
      <use x="281.298828" xlink:href="#DejaVuSans-110"/>
      <use x="344.677734" xlink:href="#DejaVuSans-116"/>
      <use x="383.886719" xlink:href="#DejaVuSans-105"/>
      <use x="411.669922" xlink:href="#DejaVuSans-116"/>
      <use x="450.878906" xlink:href="#DejaVuSans-121"/>
     </g>
    </g>
   </g>
   <g id="matplotlib.axis_2">
    <g id="ytick_1">
     <g id="line2d_8">
      <defs>
       <path d="M 0 0 
L -3.5 0 
" id="me125d2f607" style="stroke:#000000;stroke-width:0.8;"/>
      </defs>
      <g>
       <use style="stroke:#000000;stroke-width:0.8;" x="79.65" xlink:href="#me125d2f607" y="467.784"/>
      </g>
     </g>
     <g id="text_8">
      <!-- 0 -->
      <g transform="translate(66.2875 471.583219)scale(0.1 -0.1)">
       <use xlink:href="#DejaVuSans-48"/>
      </g>
     </g>
    </g>
    <g id="ytick_2">
     <g id="line2d_9">
      <g>
       <use style="stroke:#000000;stroke-width:0.8;" x="79.65" xlink:href="#me125d2f607" y="417.195"/>
      </g>
     </g>
     <g id="text_9">
      <!-- 20 -->
      <g transform="translate(59.925 420.994219)scale(0.1 -0.1)">
       <use xlink:href="#DejaVuSans-50"/>
       <use x="63.623047" xlink:href="#DejaVuSans-48"/>
      </g>
     </g>
    </g>
    <g id="ytick_3">
     <g id="line2d_10">
      <g>
       <use style="stroke:#000000;stroke-width:0.8;" x="79.65" xlink:href="#me125d2f607" y="366.606"/>
      </g>
     </g>
     <g id="text_10">
      <!-- 40 -->
      <g transform="translate(59.925 370.405219)scale(0.1 -0.1)">
       <use xlink:href="#DejaVuSans-52"/>
       <use x="63.623047" xlink:href="#DejaVuSans-48"/>
      </g>
     </g>
    </g>
    <g id="ytick_4">
     <g id="line2d_11">
      <g>
       <use style="stroke:#000000;stroke-width:0.8;" x="79.65" xlink:href="#me125d2f607" y="316.017"/>
      </g>
     </g>
     <g id="text_11">
      <!-- 60 -->
      <g transform="translate(59.925 319.816219)scale(0.1 -0.1)">
       <use xlink:href="#DejaVuSans-54"/>
       <use x="63.623047" xlink:href="#DejaVuSans-48"/>
      </g>
     </g>
    </g>
    <g id="ytick_5">
     <g id="line2d_12">
      <g>
       <use style="stroke:#000000;stroke-width:0.8;" x="79.65" xlink:href="#me125d2f607" y="265.428"/>
      </g>
     </g>
     <g id="text_12">
      <!-- 80 -->
      <g transform="translate(59.925 269.227219)scale(0.1 -0.1)">
       <use xlink:href="#DejaVuSans-56"/>
       <use x="63.623047" xlink:href="#DejaVuSans-48"/>
      </g>
     </g>
    </g>
    <g id="ytick_6">
     <g id="line2d_13">
      <g>
       <use style="stroke:#000000;stroke-width:0.8;" x="79.65" xlink:href="#me125d2f607" y="214.839"/>
      </g>
     </g>
     <g id="text_13">
      <!-- 100 -->
      <g transform="translate(53.5625 218.638219)scale(0.1 -0.1)">
       <use xlink:href="#DejaVuSans-49"/>
       <use x="63.623047" xlink:href="#DejaVuSans-48"/>
       <use x="127.246094" xlink:href="#DejaVuSans-48"/>
      </g>
     </g>
    </g>
    <g id="ytick_7">
     <g id="line2d_14">
      <g>
       <use style="stroke:#000000;stroke-width:0.8;" x="79.65" xlink:href="#me125d2f607" y="164.25"/>
      </g>
     </g>
     <g id="text_14">
      <!-- 120 -->
      <g transform="translate(53.5625 168.049219)scale(0.1 -0.1)">
       <use xlink:href="#DejaVuSans-49"/>
       <use x="63.623047" xlink:href="#DejaVuSans-50"/>
       <use x="127.246094" xlink:href="#DejaVuSans-48"/>
      </g>
     </g>
    </g>
    <g id="ytick_8">
     <g id="line2d_15">
      <g>
       <use style="stroke:#000000;stroke-width:0.8;" x="79.65" xlink:href="#me125d2f607" y="113.661"/>
      </g>
     </g>
     <g id="text_15">
      <!-- 140 -->
      <g transform="translate(53.5625 117.460219)scale(0.1 -0.1)">
       <use xlink:href="#DejaVuSans-49"/>
       <use x="63.623047" xlink:href="#DejaVuSans-52"/>
       <use x="127.246094" xlink:href="#DejaVuSans-48"/>
      </g>
     </g>
    </g>
    <g id="ytick_9">
     <g id="line2d_16">
      <g>
       <use style="stroke:#000000;stroke-width:0.8;" x="79.65" xlink:href="#me125d2f607" y="63.072"/>
      </g>
     </g>
     <g id="text_16">
      <!-- 160 -->
      <g transform="translate(53.5625 66.871219)scale(0.1 -0.1)">
       <use xlink:href="#DejaVuSans-49"/>
       <use x="63.623047" xlink:href="#DejaVuSans-54"/>
       <use x="127.246094" xlink:href="#DejaVuSans-48"/>
      </g>
     </g>
    </g>
    <g id="text_17">
     <!-- Count -->
     <defs>
      <path d="M 64.40625 67.28125 
L 64.40625 56.890625 
Q 59.421875 61.53125 53.78125 63.8125 
Q 48.140625 66.109375 41.796875 66.109375 
Q 29.296875 66.109375 22.65625 58.46875 
Q 16.015625 50.828125 16.015625 36.375 
Q 16.015625 21.96875 22.65625 14.328125 
Q 29.296875 6.6875 41.796875 6.6875 
Q 48.140625 6.6875 53.78125 8.984375 
Q 59.421875 11.28125 64.40625 15.921875 
L 64.40625 5.609375 
Q 59.234375 2.09375 53.4375 0.328125 
Q 47.65625 -1.421875 41.21875 -1.421875 
Q 24.65625 -1.421875 15.125 8.703125 
Q 5.609375 18.84375 5.609375 36.375 
Q 5.609375 53.953125 15.125 64.078125 
Q 24.65625 74.21875 41.21875 74.21875 
Q 47.75 74.21875 53.53125 72.484375 
Q 59.328125 70.75 64.40625 67.28125 
z
" id="DejaVuSans-67"/>
      <path d="M 30.609375 48.390625 
Q 23.390625 48.390625 19.1875 42.75 
Q 14.984375 37.109375 14.984375 27.296875 
Q 14.984375 17.484375 19.15625 11.84375 
Q 23.34375 6.203125 30.609375 6.203125 
Q 37.796875 6.203125 41.984375 11.859375 
Q 46.1875 17.53125 46.1875 27.296875 
Q 46.1875 37.015625 41.984375 42.703125 
Q 37.796875 48.390625 30.609375 48.390625 
z
M 30.609375 56 
Q 42.328125 56 49.015625 48.375 
Q 55.71875 40.765625 55.71875 27.296875 
Q 55.71875 13.875 49.015625 6.21875 
Q 42.328125 -1.421875 30.609375 -1.421875 
Q 18.84375 -1.421875 12.171875 6.21875 
Q 5.515625 13.875 5.515625 27.296875 
Q 5.515625 40.765625 12.171875 48.375 
Q 18.84375 56 30.609375 56 
z
" id="DejaVuSans-111"/>
      <path d="M 8.5 21.578125 
L 8.5 54.6875 
L 17.484375 54.6875 
L 17.484375 21.921875 
Q 17.484375 14.15625 20.5 10.265625 
Q 23.53125 6.390625 29.59375 6.390625 
Q 36.859375 6.390625 41.078125 11.03125 
Q 45.3125 15.671875 45.3125 23.6875 
L 45.3125 54.6875 
L 54.296875 54.6875 
L 54.296875 0 
L 45.3125 0 
L 45.3125 8.40625 
Q 42.046875 3.421875 37.71875 1 
Q 33.40625 -1.421875 27.6875 -1.421875 
Q 18.265625 -1.421875 13.375 4.4375 
Q 8.5 10.296875 8.5 21.578125 
z
M 31.109375 56 
z
" id="DejaVuSans-117"/>
     </defs>
     <g transform="translate(47.482812 280.276437)rotate(-90)scale(0.1 -0.1)">
      <use xlink:href="#DejaVuSans-67"/>
      <use x="69.824219" xlink:href="#DejaVuSans-111"/>
      <use x="131.005859" xlink:href="#DejaVuSans-117"/>
      <use x="194.384766" xlink:href="#DejaVuSans-110"/>
      <use x="257.763672" xlink:href="#DejaVuSans-116"/>
     </g>
    </g>
   </g>
   <g id="line2d_17">
    <path clip-path="url(#pf580ceb8f9)" d="M 82.11915 467.784 
L 87.05745 467.784 
L 91.99575 467.784 
L 96.93405 467.784 
L 101.87235 467.784 
L 106.81065 467.784 
L 111.74895 467.784 
L 116.68725 467.784 
L 121.62555 467.784 
L 126.56385 467.784 
L 131.50215 467.784 
L 136.44045 467.784 
L 141.37875 467.784 
L 146.31705 467.784 
L 151.25535 467.784 
L 156.19365 467.784 
L 161.13195 467.784 
L 166.07025 467.784 
L 171.00855 467.784 
L 175.94685 467.784 
L 180.88515 452.6073 
L 185.82345 467.784 
L 190.76175 467.784 
L 195.70005 467.784 
L 200.63835 462.7251 
L 205.57665 462.7251 
L 210.51495 462.7251 
L 215.45325 465.25455 
L 220.39155 462.7251 
L 225.32985 422.2539 
L 230.26815 318.54645 
L 235.20645 409.60665 
L 240.14475 442.4895 
L 245.08305 457.6662 
L 250.02135 465.25455 
L 254.95965 462.7251 
L 259.89795 465.25455 
L 264.83625 462.7251 
L 269.77455 465.25455 
L 274.71285 442.4895 
L 279.65115 450.07785 
L 284.58945 467.784 
L 289.52775 460.19565 
L 294.46605 457.6662 
L 299.40435 465.25455 
L 304.34265 447.5484 
L 309.28095 447.5484 
L 314.21925 417.195 
L 319.15755 437.4306 
L 324.09585 419.72445 
L 329.03415 219.8979 
L 333.97245 318.54645 
L 338.91075 404.54775 
L 343.84905 455.13675 
L 348.78735 460.19565 
L 353.72565 465.25455 
L 358.66395 462.7251 
L 363.60225 374.19435 
L 368.54055 366.606 
L 373.47885 432.3717 
L 378.41715 419.72445 
L 383.35545 295.7814 
L 388.29375 366.606 
L 393.23205 197.13285 
L 398.17035 439.96005 
L 403.10865 457.6662 
L 408.04695 462.7251 
L 412.98525 467.784 
L 417.92355 450.07785 
L 422.86185 439.96005 
L 427.80015 467.784 
L 432.73845 467.784 
L 437.67675 467.784 
L 442.61505 467.784 
L 447.55335 467.784 
L 452.49165 467.784 
L 457.42995 467.784 
L 462.36825 467.784 
L 467.30655 465.25455 
L 472.24485 467.784 
L 477.18315 467.784 
L 482.12145 467.784 
L 487.05975 465.25455 
L 491.99805 450.07785 
L 496.93635 465.25455 
L 501.87465 445.01895 
L 506.81295 457.6662 
L 511.75125 462.7251 
L 516.68955 394.42995 
L 521.62785 467.784 
L 526.56615 467.784 
L 531.50445 467.784 
L 536.44275 467.784 
L 541.38105 467.784 
L 546.31935 467.784 
L 551.25765 465.25455 
L 556.19595 467.784 
L 561.13425 384.31215 
L 566.07255 179.4267 
L 571.01085 427.3128 
" style="fill:none;stroke:#1f77b4;"/>
   </g>
   <g id="line2d_18">
    <path clip-path="url(#pf580ceb8f9)" d="M 82.11915 467.784 
L 87.05745 467.784 
L 91.99575 467.784 
L 96.93405 467.784 
L 101.87235 467.784 
L 106.81065 467.784 
L 111.74895 467.784 
L 116.68725 467.784 
L 121.62555 467.784 
L 126.56385 467.784 
L 131.50215 467.784 
L 136.44045 467.784 
L 141.37875 467.784 
L 146.31705 467.784 
L 151.25535 467.784 
L 156.19365 467.784 
L 161.13195 467.784 
L 166.07025 467.784 
L 171.00855 467.784 
L 175.94685 467.784 
L 180.88515 455.13675 
L 185.82345 465.25455 
L 190.76175 467.784 
L 195.70005 467.784 
L 200.63835 465.25455 
L 205.57665 460.19565 
L 210.51495 462.7251 
L 215.45325 465.25455 
L 220.39155 465.25455 
L 225.32985 465.25455 
L 230.26815 409.60665 
L 235.20645 338.78205 
L 240.14475 396.9594 
L 245.08305 457.6662 
L 250.02135 452.6073 
L 254.95965 462.7251 
L 259.89795 465.25455 
L 264.83625 462.7251 
L 269.77455 462.7251 
L 274.71285 467.784 
L 279.65115 447.5484 
L 284.58945 447.5484 
L 289.52775 455.13675 
L 294.46605 457.6662 
L 299.40435 465.25455 
L 304.34265 462.7251 
L 309.28095 452.6073 
L 314.21925 445.01895 
L 319.15755 414.66555 
L 324.09585 437.4306 
L 329.03415 417.195 
L 333.97245 189.5445 
L 338.91075 353.95875 
L 343.84905 409.60665 
L 348.78735 450.07785 
L 353.72565 460.19565 
L 358.66395 465.25455 
L 363.60225 460.19565 
L 368.54055 389.37105 
L 373.47885 356.4882 
L 378.41715 432.3717 
L 383.35545 417.195 
L 388.29375 265.428 
L 393.23205 161.72055 
L 398.17035 417.195 
L 403.10865 445.01895 
L 408.04695 465.25455 
L 412.98525 465.25455 
L 417.92355 467.784 
L 422.86185 434.90115 
L 427.80015 455.13675 
L 432.73845 467.784 
L 437.67675 467.784 
L 442.61505 467.784 
L 447.55335 467.784 
L 452.49165 467.784 
L 457.42995 467.784 
L 462.36825 467.784 
L 467.30655 465.25455 
L 472.24485 467.784 
L 477.18315 467.784 
L 482.12145 467.784 
L 487.05975 467.784 
L 491.99805 450.07785 
L 496.93635 465.25455 
L 501.87465 447.5484 
L 506.81295 457.6662 
L 511.75125 462.7251 
L 516.68955 389.37105 
L 521.62785 467.784 
L 526.56615 467.784 
L 531.50445 467.784 
L 536.44275 467.784 
L 541.38105 467.784 
L 546.31935 467.784 
L 551.25765 465.25455 
L 556.19595 467.784 
L 561.13425 384.31215 
L 566.07255 179.4267 
L 571.01085 427.3128 
" style="fill:none;stroke:#ff7f0e;"/>
   </g>
   <g id="line2d_19">
    <path clip-path="url(#pf580ceb8f9)" d="M 82.11915 467.784 
L 87.05745 467.784 
L 91.99575 467.784 
L 96.93405 467.784 
L 101.87235 467.784 
L 106.81065 467.784 
L 111.74895 467.784 
L 116.68725 467.784 
L 121.62555 467.784 
L 126.56385 467.784 
L 131.50215 467.784 
L 136.44045 467.784 
L 141.37875 467.784 
L 146.31705 467.784 
L 151.25535 467.784 
L 156.19365 467.784 
L 161.13195 467.784 
L 166.07025 467.784 
L 171.00855 467.784 
L 175.94685 467.784 
L 180.88515 457.6662 
L 185.82345 462.7251 
L 190.76175 467.784 
L 195.70005 467.784 
L 200.63835 465.25455 
L 205.57665 460.19565 
L 210.51495 465.25455 
L 215.45325 465.25455 
L 220.39155 462.7251 
L 225.32985 467.784 
L 230.26815 462.7251 
L 235.20645 422.2539 
L 240.14475 346.3704 
L 245.08305 379.25325 
L 250.02135 442.4895 
L 254.95965 462.7251 
L 259.89795 462.7251 
L 264.83625 465.25455 
L 269.77455 462.7251 
L 274.71285 462.7251 
L 279.65115 467.784 
L 284.58945 434.90115 
L 289.52775 452.6073 
L 294.46605 457.6662 
L 299.40435 465.25455 
L 304.34265 462.7251 
L 309.28095 450.07785 
L 314.21925 445.01895 
L 319.15755 417.195 
L 324.09585 439.96005 
L 329.03415 424.78335 
L 333.97245 240.1335 
L 338.91075 298.31085 
L 343.84905 407.0772 
L 348.78735 452.6073 
L 353.72565 452.6073 
L 358.66395 467.784 
L 363.60225 462.7251 
L 368.54055 391.9005 
L 373.47885 361.5471 
L 378.41715 432.3717 
L 383.35545 419.72445 
L 388.29375 318.54645 
L 393.23205 106.07265 
L 398.17035 407.0772 
L 403.10865 450.07785 
L 408.04695 460.19565 
L 412.98525 465.25455 
L 417.92355 467.784 
L 422.86185 429.84225 
L 427.80015 460.19565 
L 432.73845 467.784 
L 437.67675 467.784 
L 442.61505 467.784 
L 447.55335 467.784 
L 452.49165 467.784 
L 457.42995 467.784 
L 462.36825 467.784 
L 467.30655 465.25455 
L 472.24485 467.784 
L 477.18315 467.784 
L 482.12145 467.784 
L 487.05975 465.25455 
L 491.99805 450.07785 
L 496.93635 467.784 
L 501.87465 447.5484 
L 506.81295 457.6662 
L 511.75125 460.19565 
L 516.68955 391.9005 
L 521.62785 467.784 
L 526.56615 467.784 
L 531.50445 467.784 
L 536.44275 467.784 
L 541.38105 467.784 
L 546.31935 467.784 
L 551.25765 465.25455 
L 556.19595 467.784 
L 561.13425 384.31215 
L 566.07255 179.4267 
L 571.01085 427.3128 
" style="fill:none;stroke:#2ca02c;"/>
   </g>
   <g id="patch_3">
    <path d="M 79.65 467.784 
L 79.65 63.072 
" style="fill:none;stroke:#000000;stroke-linecap:square;stroke-linejoin:miter;stroke-width:0.8;"/>
   </g>
   <g id="patch_4">
    <path d="M 573.48 467.784 
L 573.48 63.072 
" style="fill:none;stroke:#000000;stroke-linecap:square;stroke-linejoin:miter;stroke-width:0.8;"/>
   </g>
   <g id="patch_5">
    <path d="M 79.65 467.784 
L 573.48 467.784 
" style="fill:none;stroke:#000000;stroke-linecap:square;stroke-linejoin:miter;stroke-width:0.8;"/>
   </g>
   <g id="patch_6">
    <path d="M 79.65 63.072 
L 573.48 63.072 
" style="fill:none;stroke:#000000;stroke-linecap:square;stroke-linejoin:miter;stroke-width:0.8;"/>
   </g>
   <g id="text_18">
    <!-- sp_cas9 -->
    <defs>
     <path d="M 44.28125 53.078125 
L 44.28125 44.578125 
Q 40.484375 46.53125 36.375 47.5 
Q 32.28125 48.484375 27.875 48.484375 
Q 21.1875 48.484375 17.84375 46.4375 
Q 14.5 44.390625 14.5 40.28125 
Q 14.5 37.15625 16.890625 35.375 
Q 19.28125 33.59375 26.515625 31.984375 
L 29.59375 31.296875 
Q 39.15625 29.25 43.1875 25.515625 
Q 47.21875 21.78125 47.21875 15.09375 
Q 47.21875 7.46875 41.1875 3.015625 
Q 35.15625 -1.421875 24.609375 -1.421875 
Q 20.21875 -1.421875 15.453125 -0.5625 
Q 10.6875 0.296875 5.421875 2 
L 5.421875 11.28125 
Q 10.40625 8.6875 15.234375 7.390625 
Q 20.0625 6.109375 24.8125 6.109375 
Q 31.15625 6.109375 34.5625 8.28125 
Q 37.984375 10.453125 37.984375 14.40625 
Q 37.984375 18.0625 35.515625 20.015625 
Q 33.0625 21.96875 24.703125 23.78125 
L 21.578125 24.515625 
Q 13.234375 26.265625 9.515625 29.90625 
Q 5.8125 33.546875 5.8125 39.890625 
Q 5.8125 47.609375 11.28125 51.796875 
Q 16.75 56 26.8125 56 
Q 31.78125 56 36.171875 55.265625 
Q 40.578125 54.546875 44.28125 53.078125 
z
" id="DejaVuSans-115"/>
     <path d="M 18.109375 8.203125 
L 18.109375 -20.796875 
L 9.078125 -20.796875 
L 9.078125 54.6875 
L 18.109375 54.6875 
L 18.109375 46.390625 
Q 20.953125 51.265625 25.265625 53.625 
Q 29.59375 56 35.59375 56 
Q 45.5625 56 51.78125 48.09375 
Q 58.015625 40.1875 58.015625 27.296875 
Q 58.015625 14.40625 51.78125 6.484375 
Q 45.5625 -1.421875 35.59375 -1.421875 
Q 29.59375 -1.421875 25.265625 0.953125 
Q 20.953125 3.328125 18.109375 8.203125 
z
M 48.6875 27.296875 
Q 48.6875 37.203125 44.609375 42.84375 
Q 40.53125 48.484375 33.40625 48.484375 
Q 26.265625 48.484375 22.1875 42.84375 
Q 18.109375 37.203125 18.109375 27.296875 
Q 18.109375 17.390625 22.1875 11.75 
Q 26.265625 6.109375 33.40625 6.109375 
Q 40.53125 6.109375 44.609375 11.75 
Q 48.6875 17.390625 48.6875 27.296875 
z
" id="DejaVuSans-112"/>
     <path d="M 50.984375 -16.609375 
L 50.984375 -23.578125 
L -0.984375 -23.578125 
L -0.984375 -16.609375 
z
" id="DejaVuSans-95"/>
     <path d="M 48.78125 52.59375 
L 48.78125 44.1875 
Q 44.96875 46.296875 41.140625 47.34375 
Q 37.3125 48.390625 33.40625 48.390625 
Q 24.65625 48.390625 19.8125 42.84375 
Q 14.984375 37.3125 14.984375 27.296875 
Q 14.984375 17.28125 19.8125 11.734375 
Q 24.65625 6.203125 33.40625 6.203125 
Q 37.3125 6.203125 41.140625 7.25 
Q 44.96875 8.296875 48.78125 10.40625 
L 48.78125 2.09375 
Q 45.015625 0.34375 40.984375 -0.53125 
Q 36.96875 -1.421875 32.421875 -1.421875 
Q 20.0625 -1.421875 12.78125 6.34375 
Q 5.515625 14.109375 5.515625 27.296875 
Q 5.515625 40.671875 12.859375 48.328125 
Q 20.21875 56 33.015625 56 
Q 37.15625 56 41.109375 55.140625 
Q 45.0625 54.296875 48.78125 52.59375 
z
" id="DejaVuSans-99"/>
     <path d="M 34.28125 27.484375 
Q 23.390625 27.484375 19.1875 25 
Q 14.984375 22.515625 14.984375 16.5 
Q 14.984375 11.71875 18.140625 8.90625 
Q 21.296875 6.109375 26.703125 6.109375 
Q 34.1875 6.109375 38.703125 11.40625 
Q 43.21875 16.703125 43.21875 25.484375 
L 43.21875 27.484375 
z
M 52.203125 31.203125 
L 52.203125 0 
L 43.21875 0 
L 43.21875 8.296875 
Q 40.140625 3.328125 35.546875 0.953125 
Q 30.953125 -1.421875 24.3125 -1.421875 
Q 15.921875 -1.421875 10.953125 3.296875 
Q 6 8.015625 6 15.921875 
Q 6 25.140625 12.171875 29.828125 
Q 18.359375 34.515625 30.609375 34.515625 
L 43.21875 34.515625 
L 43.21875 35.40625 
Q 43.21875 41.609375 39.140625 45 
Q 35.0625 48.390625 27.6875 48.390625 
Q 23 48.390625 18.546875 47.265625 
Q 14.109375 46.140625 10.015625 43.890625 
L 10.015625 52.203125 
Q 14.9375 54.109375 19.578125 55.046875 
Q 24.21875 56 28.609375 56 
Q 40.484375 56 46.34375 49.84375 
Q 52.203125 43.703125 52.203125 31.203125 
z
" id="DejaVuSans-97"/>
     <path d="M 10.984375 1.515625 
L 10.984375 10.5 
Q 14.703125 8.734375 18.5 7.8125 
Q 22.3125 6.890625 25.984375 6.890625 
Q 35.75 6.890625 40.890625 13.453125 
Q 46.046875 20.015625 46.78125 33.40625 
Q 43.953125 29.203125 39.59375 26.953125 
Q 35.25 24.703125 29.984375 24.703125 
Q 19.046875 24.703125 12.671875 31.3125 
Q 6.296875 37.9375 6.296875 49.421875 
Q 6.296875 60.640625 12.9375 67.421875 
Q 19.578125 74.21875 30.609375 74.21875 
Q 43.265625 74.21875 49.921875 64.515625 
Q 56.59375 54.828125 56.59375 36.375 
Q 56.59375 19.140625 48.40625 8.859375 
Q 40.234375 -1.421875 26.421875 -1.421875 
Q 22.703125 -1.421875 18.890625 -0.6875 
Q 15.09375 0.046875 10.984375 1.515625 
z
M 30.609375 32.421875 
Q 37.25 32.421875 41.125 36.953125 
Q 45.015625 41.5 45.015625 49.421875 
Q 45.015625 57.28125 41.125 61.84375 
Q 37.25 66.40625 30.609375 66.40625 
Q 23.96875 66.40625 20.09375 61.84375 
Q 16.21875 57.28125 16.21875 49.421875 
Q 16.21875 41.5 20.09375 36.953125 
Q 23.96875 32.421875 30.609375 32.421875 
z
" id="DejaVuSans-57"/>
    </defs>
    <g transform="translate(306.686875 57.072)scale(0.1 -0.1)">
     <use xlink:href="#DejaVuSans-115"/>
     <use x="52.099609" xlink:href="#DejaVuSans-112"/>
     <use x="115.576172" xlink:href="#DejaVuSans-95"/>
     <use x="165.576172" xlink:href="#DejaVuSans-99"/>
     <use x="220.556641" xlink:href="#DejaVuSans-97"/>
     <use x="281.835938" xlink:href="#DejaVuSans-115"/>
     <use x="333.935547" xlink:href="#DejaVuSans-57"/>
    </g>
   </g>
   <g id="legend_1">
    <g id="patch_7">
     <path d="M 84.65 115.94075 
L 327.689062 115.94075 
L 327.689062 68.072 
L 84.65 68.072 
z
" style="fill:#ffffff;stroke:#000000;stroke-linejoin:miter;"/>
    </g>
    <g id="line2d_20">
     <path d="M 88.65 76.170438 
L 108.65 76.170438 
" style="fill:none;stroke:#1f77b4;"/>
    </g>
    <g id="line2d_21"/>
    <g id="text_19">
     <!-- sp_cas9/blast_refseq_5000/clustalo_1000 -->
     <defs>
      <path d="M 25.390625 72.90625 
L 33.6875 72.90625 
L 8.296875 -9.28125 
L 0 -9.28125 
z
" id="DejaVuSans-47"/>
      <path d="M 48.6875 27.296875 
Q 48.6875 37.203125 44.609375 42.84375 
Q 40.53125 48.484375 33.40625 48.484375 
Q 26.265625 48.484375 22.1875 42.84375 
Q 18.109375 37.203125 18.109375 27.296875 
Q 18.109375 17.390625 22.1875 11.75 
Q 26.265625 6.109375 33.40625 6.109375 
Q 40.53125 6.109375 44.609375 11.75 
Q 48.6875 17.390625 48.6875 27.296875 
z
M 18.109375 46.390625 
Q 20.953125 51.265625 25.265625 53.625 
Q 29.59375 56 35.59375 56 
Q 45.5625 56 51.78125 48.09375 
Q 58.015625 40.1875 58.015625 27.296875 
Q 58.015625 14.40625 51.78125 6.484375 
Q 45.5625 -1.421875 35.59375 -1.421875 
Q 29.59375 -1.421875 25.265625 0.953125 
Q 20.953125 3.328125 18.109375 8.203125 
L 18.109375 0 
L 9.078125 0 
L 9.078125 75.984375 
L 18.109375 75.984375 
z
" id="DejaVuSans-98"/>
      <path d="M 9.421875 75.984375 
L 18.40625 75.984375 
L 18.40625 0 
L 9.421875 0 
z
" id="DejaVuSans-108"/>
      <path d="M 41.109375 46.296875 
Q 39.59375 47.171875 37.8125 47.578125 
Q 36.03125 48 33.890625 48 
Q 26.265625 48 22.1875 43.046875 
Q 18.109375 38.09375 18.109375 28.8125 
L 18.109375 0 
L 9.078125 0 
L 9.078125 54.6875 
L 18.109375 54.6875 
L 18.109375 46.1875 
Q 20.953125 51.171875 25.484375 53.578125 
Q 30.03125 56 36.53125 56 
Q 37.453125 56 38.578125 55.875 
Q 39.703125 55.765625 41.0625 55.515625 
z
" id="DejaVuSans-114"/>
      <path d="M 37.109375 75.984375 
L 37.109375 68.5 
L 28.515625 68.5 
Q 23.6875 68.5 21.796875 66.546875 
Q 19.921875 64.59375 19.921875 59.515625 
L 19.921875 54.6875 
L 34.71875 54.6875 
L 34.71875 47.703125 
L 19.921875 47.703125 
L 19.921875 0 
L 10.890625 0 
L 10.890625 47.703125 
L 2.296875 47.703125 
L 2.296875 54.6875 
L 10.890625 54.6875 
L 10.890625 58.5 
Q 10.890625 67.625 15.140625 71.796875 
Q 19.390625 75.984375 28.609375 75.984375 
z
" id="DejaVuSans-102"/>
      <path d="M 14.796875 27.296875 
Q 14.796875 17.390625 18.875 11.75 
Q 22.953125 6.109375 30.078125 6.109375 
Q 37.203125 6.109375 41.296875 11.75 
Q 45.40625 17.390625 45.40625 27.296875 
Q 45.40625 37.203125 41.296875 42.84375 
Q 37.203125 48.484375 30.078125 48.484375 
Q 22.953125 48.484375 18.875 42.84375 
Q 14.796875 37.203125 14.796875 27.296875 
z
M 45.40625 8.203125 
Q 42.578125 3.328125 38.25 0.953125 
Q 33.9375 -1.421875 27.875 -1.421875 
Q 17.96875 -1.421875 11.734375 6.484375 
Q 5.515625 14.40625 5.515625 27.296875 
Q 5.515625 40.1875 11.734375 48.09375 
Q 17.96875 56 27.875 56 
Q 33.9375 56 38.25 53.625 
Q 42.578125 51.265625 45.40625 46.390625 
L 45.40625 54.6875 
L 54.390625 54.6875 
L 54.390625 -20.796875 
L 45.40625 -20.796875 
z
" id="DejaVuSans-113"/>
      <path d="M 10.796875 72.90625 
L 49.515625 72.90625 
L 49.515625 64.59375 
L 19.828125 64.59375 
L 19.828125 46.734375 
Q 21.96875 47.46875 24.109375 47.828125 
Q 26.265625 48.1875 28.421875 48.1875 
Q 40.625 48.1875 47.75 41.5 
Q 54.890625 34.8125 54.890625 23.390625 
Q 54.890625 11.625 47.5625 5.09375 
Q 40.234375 -1.421875 26.90625 -1.421875 
Q 22.3125 -1.421875 17.546875 -0.640625 
Q 12.796875 0.140625 7.71875 1.703125 
L 7.71875 11.625 
Q 12.109375 9.234375 16.796875 8.0625 
Q 21.484375 6.890625 26.703125 6.890625 
Q 35.15625 6.890625 40.078125 11.328125 
Q 45.015625 15.765625 45.015625 23.390625 
Q 45.015625 31 40.078125 35.4375 
Q 35.15625 39.890625 26.703125 39.890625 
Q 22.75 39.890625 18.8125 39.015625 
Q 14.890625 38.140625 10.796875 36.28125 
z
" id="DejaVuSans-53"/>
     </defs>
     <g transform="translate(116.65 79.670438)scale(0.1 -0.1)">
      <use xlink:href="#DejaVuSans-115"/>
      <use x="52.099609" xlink:href="#DejaVuSans-112"/>
      <use x="115.576172" xlink:href="#DejaVuSans-95"/>
      <use x="165.576172" xlink:href="#DejaVuSans-99"/>
      <use x="220.556641" xlink:href="#DejaVuSans-97"/>
      <use x="281.835938" xlink:href="#DejaVuSans-115"/>
      <use x="333.935547" xlink:href="#DejaVuSans-57"/>
      <use x="397.558594" xlink:href="#DejaVuSans-47"/>
      <use x="431.25" xlink:href="#DejaVuSans-98"/>
      <use x="494.726562" xlink:href="#DejaVuSans-108"/>
      <use x="522.509766" xlink:href="#DejaVuSans-97"/>
      <use x="583.789062" xlink:href="#DejaVuSans-115"/>
      <use x="635.888672" xlink:href="#DejaVuSans-116"/>
      <use x="675.097656" xlink:href="#DejaVuSans-95"/>
      <use x="725.097656" xlink:href="#DejaVuSans-114"/>
      <use x="766.179688" xlink:href="#DejaVuSans-101"/>
      <use x="827.703125" xlink:href="#DejaVuSans-102"/>
      <use x="862.908203" xlink:href="#DejaVuSans-115"/>
      <use x="915.007812" xlink:href="#DejaVuSans-101"/>
      <use x="976.53125" xlink:href="#DejaVuSans-113"/>
      <use x="1040.007812" xlink:href="#DejaVuSans-95"/>
      <use x="1090.007812" xlink:href="#DejaVuSans-53"/>
      <use x="1153.630859" xlink:href="#DejaVuSans-48"/>
      <use x="1217.253906" xlink:href="#DejaVuSans-48"/>
      <use x="1280.876953" xlink:href="#DejaVuSans-48"/>
      <use x="1344.5" xlink:href="#DejaVuSans-47"/>
      <use x="1378.191406" xlink:href="#DejaVuSans-99"/>
      <use x="1433.171875" xlink:href="#DejaVuSans-108"/>
      <use x="1460.955078" xlink:href="#DejaVuSans-117"/>
      <use x="1524.333984" xlink:href="#DejaVuSans-115"/>
      <use x="1576.433594" xlink:href="#DejaVuSans-116"/>
      <use x="1615.642578" xlink:href="#DejaVuSans-97"/>
      <use x="1676.921875" xlink:href="#DejaVuSans-108"/>
      <use x="1704.705078" xlink:href="#DejaVuSans-111"/>
      <use x="1765.886719" xlink:href="#DejaVuSans-95"/>
      <use x="1815.886719" xlink:href="#DejaVuSans-49"/>
      <use x="1879.509766" xlink:href="#DejaVuSans-48"/>
      <use x="1943.132812" xlink:href="#DejaVuSans-48"/>
      <use x="2006.755859" xlink:href="#DejaVuSans-48"/>
     </g>
    </g>
    <g id="line2d_22">
     <path d="M 88.65 91.126688 
L 108.65 91.126688 
" style="fill:none;stroke:#ff7f0e;"/>
    </g>
    <g id="line2d_23"/>
    <g id="text_20">
     <!-- sp_cas9/blast_refseq_5000/mafft_1000 -->
     <defs>
      <path d="M 52 44.1875 
Q 55.375 50.25 60.0625 53.125 
Q 64.75 56 71.09375 56 
Q 79.640625 56 84.28125 50.015625 
Q 88.921875 44.046875 88.921875 33.015625 
L 88.921875 0 
L 79.890625 0 
L 79.890625 32.71875 
Q 79.890625 40.578125 77.09375 44.375 
Q 74.3125 48.1875 68.609375 48.1875 
Q 61.625 48.1875 57.5625 43.546875 
Q 53.515625 38.921875 53.515625 30.90625 
L 53.515625 0 
L 44.484375 0 
L 44.484375 32.71875 
Q 44.484375 40.625 41.703125 44.40625 
Q 38.921875 48.1875 33.109375 48.1875 
Q 26.21875 48.1875 22.15625 43.53125 
Q 18.109375 38.875 18.109375 30.90625 
L 18.109375 0 
L 9.078125 0 
L 9.078125 54.6875 
L 18.109375 54.6875 
L 18.109375 46.1875 
Q 21.1875 51.21875 25.484375 53.609375 
Q 29.78125 56 35.6875 56 
Q 41.65625 56 45.828125 52.96875 
Q 50 49.953125 52 44.1875 
z
" id="DejaVuSans-109"/>
     </defs>
     <g transform="translate(116.65 94.626688)scale(0.1 -0.1)">
      <use xlink:href="#DejaVuSans-115"/>
      <use x="52.099609" xlink:href="#DejaVuSans-112"/>
      <use x="115.576172" xlink:href="#DejaVuSans-95"/>
      <use x="165.576172" xlink:href="#DejaVuSans-99"/>
      <use x="220.556641" xlink:href="#DejaVuSans-97"/>
      <use x="281.835938" xlink:href="#DejaVuSans-115"/>
      <use x="333.935547" xlink:href="#DejaVuSans-57"/>
      <use x="397.558594" xlink:href="#DejaVuSans-47"/>
      <use x="431.25" xlink:href="#DejaVuSans-98"/>
      <use x="494.726562" xlink:href="#DejaVuSans-108"/>
      <use x="522.509766" xlink:href="#DejaVuSans-97"/>
      <use x="583.789062" xlink:href="#DejaVuSans-115"/>
      <use x="635.888672" xlink:href="#DejaVuSans-116"/>
      <use x="675.097656" xlink:href="#DejaVuSans-95"/>
      <use x="725.097656" xlink:href="#DejaVuSans-114"/>
      <use x="766.179688" xlink:href="#DejaVuSans-101"/>
      <use x="827.703125" xlink:href="#DejaVuSans-102"/>
      <use x="862.908203" xlink:href="#DejaVuSans-115"/>
      <use x="915.007812" xlink:href="#DejaVuSans-101"/>
      <use x="976.53125" xlink:href="#DejaVuSans-113"/>
      <use x="1040.007812" xlink:href="#DejaVuSans-95"/>
      <use x="1090.007812" xlink:href="#DejaVuSans-53"/>
      <use x="1153.630859" xlink:href="#DejaVuSans-48"/>
      <use x="1217.253906" xlink:href="#DejaVuSans-48"/>
      <use x="1280.876953" xlink:href="#DejaVuSans-48"/>
      <use x="1344.5" xlink:href="#DejaVuSans-47"/>
      <use x="1378.191406" xlink:href="#DejaVuSans-109"/>
      <use x="1475.603516" xlink:href="#DejaVuSans-97"/>
      <use x="1536.882812" xlink:href="#DejaVuSans-102"/>
      <use x="1572.087891" xlink:href="#DejaVuSans-102"/>
      <use x="1607.277344" xlink:href="#DejaVuSans-116"/>
      <use x="1646.486328" xlink:href="#DejaVuSans-95"/>
      <use x="1696.486328" xlink:href="#DejaVuSans-49"/>
      <use x="1760.109375" xlink:href="#DejaVuSans-48"/>
      <use x="1823.732422" xlink:href="#DejaVuSans-48"/>
      <use x="1887.355469" xlink:href="#DejaVuSans-48"/>
     </g>
    </g>
    <g id="line2d_24">
     <path d="M 88.65 106.082938 
L 108.65 106.082938 
" style="fill:none;stroke:#2ca02c;"/>
    </g>
    <g id="line2d_25"/>
    <g id="text_21">
     <!-- sp_cas9/blast_refseq_5000/muscle_1000 -->
     <g transform="translate(116.65 109.582938)scale(0.1 -0.1)">
      <use xlink:href="#DejaVuSans-115"/>
      <use x="52.099609" xlink:href="#DejaVuSans-112"/>
      <use x="115.576172" xlink:href="#DejaVuSans-95"/>
      <use x="165.576172" xlink:href="#DejaVuSans-99"/>
      <use x="220.556641" xlink:href="#DejaVuSans-97"/>
      <use x="281.835938" xlink:href="#DejaVuSans-115"/>
      <use x="333.935547" xlink:href="#DejaVuSans-57"/>
      <use x="397.558594" xlink:href="#DejaVuSans-47"/>
      <use x="431.25" xlink:href="#DejaVuSans-98"/>
      <use x="494.726562" xlink:href="#DejaVuSans-108"/>
      <use x="522.509766" xlink:href="#DejaVuSans-97"/>
      <use x="583.789062" xlink:href="#DejaVuSans-115"/>
      <use x="635.888672" xlink:href="#DejaVuSans-116"/>
      <use x="675.097656" xlink:href="#DejaVuSans-95"/>
      <use x="725.097656" xlink:href="#DejaVuSans-114"/>
      <use x="766.179688" xlink:href="#DejaVuSans-101"/>
      <use x="827.703125" xlink:href="#DejaVuSans-102"/>
      <use x="862.908203" xlink:href="#DejaVuSans-115"/>
      <use x="915.007812" xlink:href="#DejaVuSans-101"/>
      <use x="976.53125" xlink:href="#DejaVuSans-113"/>
      <use x="1040.007812" xlink:href="#DejaVuSans-95"/>
      <use x="1090.007812" xlink:href="#DejaVuSans-53"/>
      <use x="1153.630859" xlink:href="#DejaVuSans-48"/>
      <use x="1217.253906" xlink:href="#DejaVuSans-48"/>
      <use x="1280.876953" xlink:href="#DejaVuSans-48"/>
      <use x="1344.5" xlink:href="#DejaVuSans-47"/>
      <use x="1378.191406" xlink:href="#DejaVuSans-109"/>
      <use x="1475.603516" xlink:href="#DejaVuSans-117"/>
      <use x="1538.982422" xlink:href="#DejaVuSans-115"/>
      <use x="1591.082031" xlink:href="#DejaVuSans-99"/>
      <use x="1646.0625" xlink:href="#DejaVuSans-108"/>
      <use x="1673.845703" xlink:href="#DejaVuSans-101"/>
      <use x="1735.369141" xlink:href="#DejaVuSans-95"/>
      <use x="1785.369141" xlink:href="#DejaVuSans-49"/>
      <use x="1848.992188" xlink:href="#DejaVuSans-48"/>
      <use x="1912.615234" xlink:href="#DejaVuSans-48"/>
      <use x="1976.238281" xlink:href="#DejaVuSans-48"/>
     </g>
    </g>
   </g>
  </g>
 </g>
 <defs>
  <clipPath id="pf580ceb8f9">
   <rect height="404.712" width="493.83" x="79.65" y="63.072"/>
  </clipPath>
 </defs>
</svg>
